<svg width="40" height="36" viewBox="0 0 40 36" fill="none" xmlns="http://www.w3.org/2000/svg">
<path fill-rule="evenodd" clip-rule="evenodd" d="M6.66683 6C5.78277 6 4.93493 6.31607 4.30981 6.87868C3.68469 7.44129 3.3335 8.20435 3.3335 9V27C3.3335 27.7956 3.68469 28.5587 4.30981 29.1213C4.93493 29.6839 5.78277 30 6.66683 30H33.3335C34.2176 30 35.0654 29.6839 35.6905 29.1213C36.3156 28.5587 36.6668 27.7956 36.6668 27V9C36.6668 8.20435 36.3156 7.44129 35.6905 6.87868C35.0654 6.31607 34.2176 6 33.3335 6H6.66683ZM23.3335 13.5C23.3335 13.1022 23.5091 12.7206 23.8217 12.4393C24.1342 12.158 24.5581 12 25.0002 12H30.0002C30.4422 12 30.8661 12.158 31.1787 12.4393C31.4912 12.7206 31.6668 13.1022 31.6668 13.5C31.6668 13.8978 31.4912 14.2794 31.1787 14.5607C30.8661 14.842 30.4422 15 30.0002 15H25.0002C24.5581 15 24.1342 14.842 23.8217 14.5607C23.5091 14.2794 23.3335 13.8978 23.3335 13.5ZM23.3335 18C23.3335 17.6022 23.5091 17.2206 23.8217 16.9393C24.1342 16.658 24.5581 16.5 25.0002 16.5H30.0002C30.4422 16.5 30.8661 16.658 31.1787 16.9393C31.4912 17.2206 31.6668 17.6022 31.6668 18C31.6668 18.3978 31.4912 18.7794 31.1787 19.0607C30.8661 19.342 30.4422 19.5 30.0002 19.5H25.0002C24.5581 19.5 24.1342 19.342 23.8217 19.0607C23.5091 18.7794 23.3335 18.3978 23.3335 18ZM23.3335 22.5C23.3335 22.1022 23.5091 21.7206 23.8217 21.4393C24.1342 21.158 24.5581 21 25.0002 21H30.0002C30.4422 21 30.8661 21.158 31.1787 21.4393C31.4912 21.7206 31.6668 22.1022 31.6668 22.5C31.6668 22.8978 31.4912 23.2794 31.1787 23.5607C30.8661 23.842 30.4422 24 30.0002 24H25.0002C24.5581 24 24.1342 23.842 23.8217 23.5607C23.5091 23.2794 23.3335 22.8978 23.3335 22.5ZM10.0002 15C10.0002 13.8065 10.5269 12.6619 11.4646 11.818C12.4023 10.9741 13.6741 10.5 15.0002 10.5C16.3262 10.5 17.598 10.9741 18.5357 11.818C19.4734 12.6619 20.0002 13.8065 20.0002 15C20.0002 16.1935 19.4734 17.3381 18.5357 18.182C17.598 19.0259 16.3262 19.5 15.0002 19.5C13.6741 19.5 12.4023 19.0259 11.4646 18.182C10.5269 17.3381 10.0002 16.1935 10.0002 15ZM13.2368 21C12.1872 20.9997 11.1641 21.2966 10.3125 21.8488C9.46082 22.401 8.82386 23.1804 8.49183 24.0765L8.4185 24.276L8.41183 24.294C8.34183 24.483 8.32016 24.5445 8.34183 24.5865C8.35183 24.606 8.37516 24.621 8.40516 24.645C8.4585 24.6825 8.5385 24.741 8.6485 24.8775C8.80292 25.0702 9.00599 25.2271 9.24099 25.3353C9.47599 25.4436 9.73619 25.5 10.0002 25.5H20.0002C20.2641 25.5 20.5243 25.4436 20.7593 25.3353C20.9943 25.2271 21.1974 25.0702 21.3518 24.8775C21.4196 24.7895 21.5016 24.7111 21.5952 24.645C21.6268 24.621 21.6468 24.606 21.6585 24.585C21.6818 24.5445 21.6585 24.483 21.5885 24.294L21.5818 24.276L21.5085 24.0765C21.1766 23.1806 20.5398 22.4014 19.6885 21.8492C18.8372 21.2971 17.8145 21 16.7652 21H13.2368Z" fill="#3B5E7B"/>
</svg>
