<svg width="12" height="13" viewBox="0 0 12 13" fill="none" xmlns="http://www.w3.org/2000/svg">
<path d="M4.375 4.25195C4.27554 4.25195 4.18016 4.29107 4.10984 4.3607C4.03951 4.43033 4 4.52477 4 4.62324C4 4.72171 4.03951 4.81615 4.10984 4.88578C4.18016 4.95541 4.27554 4.99453 4.375 4.99453H8.125C8.22446 4.99453 8.31984 4.95541 8.39017 4.88578C8.46049 4.81615 8.5 4.72171 8.5 4.62324C8.5 4.52477 8.46049 4.43033 8.39017 4.3607C8.31984 4.29107 8.22446 4.25195 8.125 4.25195H4.375ZM3.5 6.60344C3.5 6.50497 3.53951 6.41053 3.60983 6.3409C3.68016 6.27127 3.77554 6.23215 3.875 6.23215H7.125C7.22446 6.23215 7.31984 6.27127 7.39016 6.3409C7.46049 6.41053 7.5 6.50497 7.5 6.60344C7.5 6.70191 7.46049 6.79635 7.39016 6.86598C7.31984 6.93561 7.22446 6.97473 7.125 6.97473H3.875C3.77554 6.97473 3.68016 6.93561 3.60983 6.86598C3.53951 6.79635 3.5 6.70191 3.5 6.60344ZM4.875 8.21235C4.77554 8.21235 4.68016 8.25147 4.60984 8.3211C4.53951 8.39073 4.5 8.48517 4.5 8.58364C4.5 8.68211 4.53951 8.77655 4.60984 8.84618C4.68016 8.91581 4.77554 8.95492 4.875 8.95492H8.125C8.22446 8.95492 8.31984 8.91581 8.39017 8.84618C8.46049 8.77655 8.5 8.68211 8.5 8.58364C8.5 8.48517 8.46049 8.39073 8.39017 8.3211C8.31984 8.25147 8.22446 8.21235 8.125 8.21235H4.875Z" fill="#565656"/>
<path d="M1 2.64319C1 2.16497 1.392 1.77686 1.875 1.77686H10.125C10.608 1.77686 11 2.16497 11 2.64319V10.8115C11 11.0413 10.9078 11.2616 10.7437 11.4241C10.5796 11.5866 10.3571 11.6778 10.125 11.6778H1.875C1.64294 11.6778 1.42038 11.5866 1.25628 11.4241C1.09219 11.2616 1 11.0413 1 10.8115V2.64319ZM1.875 2.51943C1.84185 2.51943 1.81005 2.53247 1.78661 2.55568C1.76317 2.57889 1.75 2.61037 1.75 2.64319V10.8115C1.75 10.8798 1.806 10.9353 1.875 10.9353H10.125C10.1582 10.9353 10.1899 10.9222 10.2134 10.899C10.2368 10.8758 10.25 10.8443 10.25 10.8115V2.64319C10.25 2.61037 10.2368 2.57889 10.2134 2.55568C10.1899 2.53247 10.1582 2.51943 10.125 2.51943H1.875Z" fill="#565656"/>
</svg>
