<svg width="61" height="61" viewBox="0 0 61 61" fill="none" xmlns="http://www.w3.org/2000/svg">
<path fill-rule="evenodd" clip-rule="evenodd" d="M7.625 9.53125C7.11943 9.53125 6.63457 9.73209 6.27708 10.0896C5.91959 10.4471 5.71875 10.9319 5.71875 11.4375V15.25C5.71875 15.7556 5.91959 16.2404 6.27708 16.5979C6.63457 16.9554 7.11943 17.1562 7.625 17.1562H11.4375C11.9431 17.1562 12.4279 16.9554 12.7854 16.5979C13.1429 16.2404 13.3438 15.7556 13.3438 15.25V11.4375C13.3438 10.9319 13.1429 10.4471 12.7854 10.0896C12.4279 9.73209 11.9431 9.53125 11.4375 9.53125H7.625ZM11.4375 11.4375H7.625V15.25H11.4375V11.4375Z" fill="#F8F8F8"/>
<path d="M19.0625 13.3438C19.0625 12.8382 19.2633 12.3533 19.6208 11.9958C19.9783 11.6383 20.4632 11.4375 20.9688 11.4375H55.2812C55.7868 11.4375 56.2717 11.6383 56.6292 11.9958C56.9867 12.3533 57.1875 12.8382 57.1875 13.3438C57.1875 13.8493 56.9867 14.3342 56.6292 14.6917C56.2717 15.0492 55.7868 15.25 55.2812 15.25H20.9688C20.4632 15.25 19.9783 15.0492 19.6208 14.6917C19.2633 14.3342 19.0625 13.8493 19.0625 13.3438ZM20.9688 26.6875C20.4632 26.6875 19.9783 26.8883 19.6208 27.2458C19.2633 27.6033 19.0625 28.0882 19.0625 28.5938C19.0625 29.0993 19.2633 29.5842 19.6208 29.9417C19.9783 30.2992 20.4632 30.5 20.9688 30.5H55.2812C55.7868 30.5 56.2717 30.2992 56.6292 29.9417C56.9867 29.5842 57.1875 29.0993 57.1875 28.5938C57.1875 28.0882 56.9867 27.6033 56.6292 27.2458C56.2717 26.8883 55.7868 26.6875 55.2812 26.6875H20.9688ZM20.9688 41.9375C20.4632 41.9375 19.9783 42.1383 19.6208 42.4958C19.2633 42.8533 19.0625 43.3382 19.0625 43.8438C19.0625 44.3493 19.2633 44.8342 19.6208 45.1917C19.9783 45.5492 20.4632 45.75 20.9688 45.75H55.2812C55.7868 45.75 56.2717 45.5492 56.6292 45.1917C56.9867 44.8342 57.1875 44.3493 57.1875 43.8438C57.1875 43.3382 56.9867 42.8533 56.6292 42.4958C56.2717 42.1383 55.7868 41.9375 55.2812 41.9375H20.9688Z" fill="#F8F8F8"/>
<path fill-rule="evenodd" clip-rule="evenodd" d="M5.71875 26.6875C5.71875 26.1819 5.91959 25.6971 6.27708 25.3396C6.63457 24.9821 7.11943 24.7812 7.625 24.7812H11.4375C11.9431 24.7812 12.4279 24.9821 12.7854 25.3396C13.1429 25.6971 13.3438 26.1819 13.3438 26.6875V30.5C13.3438 31.0056 13.1429 31.4904 12.7854 31.8479C12.4279 32.2054 11.9431 32.4062 11.4375 32.4062H7.625C7.11943 32.4062 6.63457 32.2054 6.27708 31.8479C5.91959 31.4904 5.71875 31.0056 5.71875 30.5V26.6875ZM7.625 26.6875H11.4375V30.5H7.625V26.6875ZM7.625 40.0312C7.11943 40.0312 6.63457 40.2321 6.27708 40.5896C5.91959 40.9471 5.71875 41.4319 5.71875 41.9375V45.75C5.71875 46.2556 5.91959 46.7404 6.27708 47.0979C6.63457 47.4554 7.11943 47.6562 7.625 47.6562H11.4375C11.9431 47.6562 12.4279 47.4554 12.7854 47.0979C13.1429 46.7404 13.3438 46.2556 13.3438 45.75V41.9375C13.3438 41.4319 13.1429 40.9471 12.7854 40.5896C12.4279 40.2321 11.9431 40.0312 11.4375 40.0312H7.625ZM11.4375 41.9375H7.625V45.75H11.4375V41.9375Z" fill="#F8F8F8"/>
</svg>
