<svg width="19" height="21" viewBox="0 0 19 21" fill="none" xmlns="http://www.w3.org/2000/svg">
<g clip-path="url(#clip0_1750_4516)">
<path d="M17.4167 1.96919H14.8438V0.656688C14.8439 0.482639 14.7814 0.315674 14.6701 0.192521C14.5588 0.0693679 14.4079 0.000116188 14.2504 1.55823e-07C14.0929 -0.000115876 13.9419 0.0689133 13.8304 0.191902C13.719 0.314891 13.6564 0.481764 13.6562 0.655813V1.96919H10.0938V0.656688C10.0938 0.570508 10.0785 0.48516 10.0487 0.405518C10.0189 0.325876 9.97522 0.2535 9.92013 0.192521C9.86503 0.131542 9.7996 0.0831544 9.72758 0.0501216C9.65557 0.0170889 9.57837 5.75994e-05 9.5004 1.46044e-07C9.34292 -0.000115886 9.19186 0.0689133 9.08043 0.191902C8.96901 0.314891 8.90635 0.481764 8.90625 0.655813V1.96919H5.34375V0.656688C5.3438 0.570508 5.3285 0.48516 5.29871 0.405518C5.26891 0.325876 5.22522 0.2535 5.17012 0.192521C5.11503 0.131542 5.0496 0.0831544 4.97758 0.0501216C4.90557 0.0170889 4.82837 5.75994e-05 4.7504 1.46044e-07C4.59292 -0.000115886 4.44186 0.0689133 4.33044 0.191902C4.21901 0.314891 4.15635 0.481764 4.15625 0.655813V1.96919H1.58333C1.16354 1.96919 0.760937 2.15344 0.464027 2.48144C0.167118 2.80944 0.000209894 3.25434 0 3.71831V19.2496C0 19.7137 0.166815 20.1588 0.463748 20.487C0.76068 20.8152 1.16341 20.9996 1.58333 20.9996H17.4167C17.8366 20.9996 18.2393 20.8152 18.5363 20.487C18.8332 20.1588 19 19.7137 19 19.2496V3.71831C18.9998 3.25434 18.8329 2.80944 18.536 2.48144C18.2391 2.15344 17.8365 1.96919 17.4167 1.96919ZM17.8125 19.2504C17.8125 19.3663 17.7709 19.4775 17.6968 19.5595C17.6228 19.6415 17.5223 19.6877 17.4175 19.6879H1.58333C1.47835 19.6879 1.37767 19.6418 1.30344 19.5598C1.2292 19.4777 1.1875 19.3665 1.1875 19.2504V3.71919C1.18771 3.60331 1.22951 3.49225 1.30372 3.41039C1.37793 3.32854 1.47849 3.28256 1.58333 3.28256H4.15625V4.59506C4.15615 4.76911 4.2186 4.93608 4.32988 5.05923C4.44115 5.18238 4.59213 5.25163 4.7496 5.25175C4.90708 5.25187 5.05814 5.18284 5.16956 5.05985C5.28099 4.93686 5.34365 4.76999 5.34375 4.59594V3.28256H8.90625V4.59506C8.90615 4.76911 8.9686 4.93608 9.07988 5.05923C9.19115 5.18238 9.34213 5.25163 9.4996 5.25175C9.65708 5.25187 9.80814 5.18284 9.91957 5.05985C10.031 4.93686 10.0936 4.76999 10.0938 4.59594V3.28256H13.6562V4.59506C13.6561 4.76911 13.7186 4.93608 13.8299 5.05923C13.9412 5.18238 14.0921 5.25163 14.2496 5.25175C14.4071 5.25187 14.5581 5.18284 14.6696 5.05985C14.781 4.93686 14.8436 4.76999 14.8438 4.59594V3.28256H17.4167C17.5214 3.28279 17.6217 3.32887 17.6958 3.4107C17.7698 3.49254 17.8115 3.60346 17.8117 3.71919L17.8125 19.2504Z" fill="black"/>
<path d="M4.15625 7.875H6.53125V9.84375H4.15625V7.875ZM4.15625 11.1562H6.53125V13.125H4.15625V11.1562ZM4.15625 14.4375H6.53125V16.4062H4.15625V14.4375ZM8.3125 14.4375H10.6875V16.4062H8.3125V14.4375ZM8.3125 11.1562H10.6875V13.125H8.3125V11.1562ZM8.3125 7.875H10.6875V9.84375H8.3125V7.875ZM12.4688 14.4375H14.8438V16.4062H12.4688V14.4375ZM12.4688 11.1562H14.8438V13.125H12.4688V11.1562ZM12.4688 7.875H14.8438V9.84375H12.4688V7.875Z" fill="black"/>
</g>
<defs>
<clipPath id="clip0_1750_4516">
<rect width="19" height="21" fill="white"/>
</clipPath>
</defs>
</svg>
