<svg width="45" height="45" viewBox="0 0 45 45" fill="none" xmlns="http://www.w3.org/2000/svg">
<circle cx="22.375" cy="22.375" r="22.375" fill="#28B4E1"/>
<path d="M31.7449 13.9361H28.8248L27.4069 11.8059C27.2816 11.6181 27.1118 11.4641 26.9127 11.3578C26.7135 11.2514 26.4911 11.196 26.2653 11.1963H18.9592C18.7334 11.196 18.5111 11.2514 18.3119 11.3578C18.1127 11.4641 17.943 11.6181 17.8176 11.8059L16.3987 13.9361H13.4796C12.6319 13.9361 11.8189 14.2729 11.2194 14.8723C10.62 15.4717 10.2832 16.2848 10.2832 17.1325V29.9182C10.2832 30.766 10.62 31.579 11.2194 32.1784C11.8189 32.7779 12.6319 33.1147 13.4796 33.1147H31.7449C32.1647 33.1147 32.5804 33.032 32.9682 32.8713C33.356 32.7107 33.7083 32.4753 34.0052 32.1784C34.302 31.8816 34.5374 31.5293 34.6981 31.1415C34.8587 30.7536 34.9414 30.338 34.9414 29.9182V17.1325C34.9414 16.7128 34.8587 16.2971 34.6981 15.9093C34.5374 15.5215 34.302 15.1691 34.0052 14.8723C33.7083 14.5755 33.356 14.34 32.9682 14.1794C32.5804 14.0188 32.1647 13.9361 31.7449 13.9361ZM32.2016 29.9182C32.2016 30.0393 32.1535 30.1555 32.0678 30.2411C31.9822 30.3268 31.866 30.3749 31.7449 30.3749H13.4796C13.3585 30.3749 13.2424 30.3268 13.1567 30.2411C13.0711 30.1555 13.023 30.0393 13.023 29.9182V17.1325C13.023 17.0114 13.0711 16.8953 13.1567 16.8096C13.2424 16.724 13.3585 16.6759 13.4796 16.6759H17.1327C17.3585 16.6762 17.5808 16.6207 17.78 16.5144C17.9792 16.408 18.149 16.2541 18.2743 16.0663L19.6921 13.9361H25.5313L26.9503 16.0663C27.0756 16.2541 27.2454 16.408 27.4446 16.5144C27.6437 16.6207 27.8661 16.6762 28.0919 16.6759H31.7449C31.866 16.6759 31.9822 16.724 32.0678 16.8096C32.1535 16.8953 32.2016 17.0114 32.2016 17.1325V29.9182ZM22.6123 17.5891C21.5285 17.5891 20.4691 17.9105 19.568 18.5126C18.6669 19.1147 17.9645 19.9705 17.5498 20.9718C17.1351 21.9731 17.0266 23.0748 17.238 24.1378C17.4494 25.2007 17.9713 26.1771 18.7376 26.9434C19.504 27.7097 20.4803 28.2316 21.5433 28.443C22.6062 28.6545 23.708 28.546 24.7092 28.1312C25.7105 27.7165 26.5663 27.0142 27.1684 26.113C27.7705 25.2119 28.0919 24.1525 28.0919 23.0687C28.0904 21.6159 27.5126 20.223 26.4853 19.1958C25.458 18.1685 24.0651 17.5907 22.6123 17.5891ZM22.6123 25.8085C22.0704 25.8085 21.5407 25.6479 21.0901 25.3468C20.6396 25.0457 20.2884 24.6178 20.081 24.1172C19.8737 23.6166 19.8194 23.0657 19.9251 22.5342C20.0309 22.0028 20.2918 21.5146 20.675 21.1314C21.0581 20.7482 21.5463 20.4873 22.0778 20.3816C22.6092 20.2759 23.1601 20.3301 23.6608 20.5375C24.1614 20.7449 24.5893 21.096 24.8903 21.5466C25.1914 21.9971 25.3521 22.5269 25.3521 23.0687C25.3521 23.7954 25.0634 24.4923 24.5496 25.0061C24.0358 25.5199 23.3389 25.8085 22.6123 25.8085Z" fill="white"/>
</svg>
