<?xml version="1.0" standalone="no"?>
<!DOCTYPE svg PUBLIC "-//W3C//DTD SVG 20010904//EN"
 "http://www.w3.org/TR/2001/REC-SVG-20010904/DTD/svg10.dtd">
<svg version="1.0" xmlns="http://www.w3.org/2000/svg"
 width="800.000000pt" height="800.000000pt" viewBox="0 0 800.000000 800.000000"
 preserveAspectRatio="xMidYMid meet">

<g transform="translate(0.000000,800.000000) scale(0.100000,-0.100000)"
fill="#000000" stroke="none">
<path d="M1616 6814 c-106 -26 -184 -71 -272 -159 -120 -119 -174 -245 -174
-407 0 -105 15 -168 62 -268 l40 -85 949 -950 949 -950 -936 -935 c-540 -539
-951 -957 -971 -988 -60 -92 -85 -174 -90 -292 -8 -178 45 -318 167 -440 115
-116 254 -172 419 -172 115 1 216 29 309 88 38 24 371 349 994 972 l938 937
947 -946 c875 -873 953 -948 1019 -982 98 -50 172 -68 284 -68 219 -1 411 115
512 307 55 105 71 179 65 304 -5 118 -30 200 -90 292 -20 31 -431 449 -971
988 l-936 935 949 950 c940 942 949 951 989 1032 22 45 46 108 52 139 18 84 8
245 -18 318 -82 225 -281 378 -512 393 -106 8 -200 -11 -300 -59 l-85 -40
-952 -951 -953 -952 -957 956 c-883 881 -963 958 -1024 987 -125 60 -275 77
-403 46z"/>
</g>
</svg>
