<svg width="26" height="25" viewBox="0 0 26 25" fill="none" xmlns="http://www.w3.org/2000/svg">
<path d="M20.9219 12.5C20.9219 12.2928 21.0067 12.0941 21.1576 11.9476C21.3085 11.8011 21.5131 11.7188 21.7266 11.7188C21.94 11.7188 22.1447 11.8011 22.2956 11.9476C22.4465 12.0941 22.5312 12.2928 22.5312 12.5V21.0938C22.5312 21.301 22.4465 21.4997 22.2956 21.6462C22.1447 21.7927 21.94 21.875 21.7266 21.875H4.02344C3.81002 21.875 3.60535 21.7927 3.45444 21.6462C3.30353 21.4997 3.21875 21.301 3.21875 21.0938V3.90625C3.21875 3.69905 3.30353 3.50034 3.45444 3.35382C3.60535 3.20731 3.81002 3.125 4.02344 3.125H12.875C13.0884 3.125 13.2931 3.20731 13.444 3.35382C13.5949 3.50034 13.6797 3.69905 13.6797 3.90625C13.6797 4.11345 13.5949 4.31216 13.444 4.45868C13.2931 4.60519 13.0884 4.6875 12.875 4.6875H4.82812V20.3125H20.9219V12.5Z" fill="#000000"/>
<path d="M11.8172 13.5313L13.1449 13.347L21.3012 5.42977C21.3781 5.3577 21.4394 5.2715 21.4816 5.17618C21.5237 5.08087 21.5459 4.97835 21.5469 4.87462C21.5478 4.77088 21.5274 4.66801 21.487 4.572C21.4465 4.47598 21.3868 4.38876 21.3112 4.3154C21.2357 4.24205 21.1458 4.18404 21.0469 4.14476C20.948 4.10547 20.8421 4.08571 20.7352 4.08661C20.6284 4.08751 20.5228 4.10906 20.4246 4.15001C20.3264 4.19095 20.2376 4.25047 20.1634 4.32509L12.0055 12.2423L11.8156 13.5313H11.8172ZM22.4391 3.21884C22.6634 3.43649 22.8414 3.69493 22.9628 3.97939C23.0842 4.26384 23.1467 4.56874 23.1467 4.87665C23.1467 5.18456 23.0842 5.48945 22.9628 5.77391C22.8414 6.05836 22.6634 6.3168 22.4391 6.53446L14.0945 14.636C13.9714 14.7559 13.8116 14.8338 13.639 14.8579L10.9835 15.2266C10.8598 15.2439 10.7336 15.2329 10.615 15.1946C10.4963 15.1562 10.3885 15.0916 10.3001 15.0058C10.2117 14.9199 10.1451 14.8153 10.1057 14.7001C10.0662 14.5849 10.0549 14.4624 10.0726 14.3423L10.4524 11.7641C10.4768 11.5968 10.5564 11.4416 10.6794 11.322L19.0256 3.2204C19.4783 2.78101 20.0922 2.53418 20.7323 2.53418C21.3724 2.53418 21.9864 2.78101 22.4391 3.2204V3.21884Z" fill="#000000"/>
</svg>
