<svg width="56" height="52" viewBox="0 0 56 52" fill="none" xmlns="http://www.w3.org/2000/svg">
<path d="M45.5727 26.133C45.5727 25.7086 45.7536 25.3016 46.0757 25.0014C46.3978 24.7013 46.8346 24.5327 47.29 24.5327C47.7455 24.5327 48.1823 24.7013 48.5043 25.0014C48.8264 25.3016 49.0073 25.7086 49.0073 26.133V43.7361C49.0073 44.1605 48.8264 44.5675 48.5043 44.8676C48.1823 45.1677 47.7455 45.3363 47.29 45.3363H9.5093C9.05384 45.3363 8.61704 45.1677 8.29498 44.8676C7.97292 44.5675 7.79199 44.1605 7.79199 43.7361V8.52996C7.79199 8.10554 7.97292 7.69851 8.29498 7.3984C8.61704 7.09829 9.05384 6.92969 9.5093 6.92969H28.3997C28.8551 6.92969 29.2919 7.09829 29.614 7.3984C29.936 7.69851 30.117 8.10554 30.117 8.52996C30.117 8.95438 29.936 9.36142 29.614 9.66153C29.2919 9.96164 28.8551 10.1302 28.3997 10.1302H11.2266V42.1358H45.5727V26.133Z" fill="#1F4768"/>
<path d="M26.1429 28.2453L28.9765 27.8677L46.3831 11.6504C46.5471 11.5028 46.6779 11.3262 46.7679 11.131C46.8579 10.9358 46.9053 10.7258 46.9073 10.5133C46.9093 10.3008 46.8658 10.0901 46.7795 9.89341C46.6931 9.69674 46.5656 9.51807 46.4043 9.36781C46.2431 9.21756 46.0514 9.09873 45.8403 9.01827C45.6293 8.93781 45.4031 8.89732 45.1751 8.89916C44.9471 8.90101 44.7217 8.94516 44.5122 9.02902C44.3027 9.11289 44.1132 9.23481 43.9548 9.38765L26.5448 25.6049L26.1395 28.2453H26.1429ZM48.8113 7.12166C49.2901 7.56749 49.6699 8.09687 49.929 8.67954C50.1881 9.2622 50.3215 9.88673 50.3215 10.5174C50.3215 11.1482 50.1881 11.7727 49.929 12.3554C49.6699 12.938 49.2901 13.4674 48.8113 13.9132L31.0029 30.5081C30.7403 30.7537 30.3992 30.9132 30.0309 30.9626L24.3638 31.7179C24.0997 31.7533 23.8304 31.7308 23.5772 31.6522C23.324 31.5737 23.094 31.4413 22.9053 31.2655C22.7167 31.0896 22.5746 30.8753 22.4903 30.6394C22.406 30.4035 22.3819 30.1525 22.4198 29.9064L23.2304 24.6255C23.2824 24.2827 23.4523 23.9649 23.7146 23.7197L41.5265 7.12486C42.4926 6.22484 43.8028 5.71924 45.1689 5.71924C46.535 5.71924 47.8452 6.22484 48.8113 7.12486V7.12166Z" fill="#1F4768"/>
</svg>
