<svg width="36" height="36" viewBox="0 0 36 36" fill="none" xmlns="http://www.w3.org/2000/svg">
<g clip-path="url(#clip0_1949_4162)">
<path d="M33 4H3C2.73478 4 2.48043 4.10536 2.29289 4.29289C2.10536 4.48043 2 4.73478 2 5V6.67C2.00019 6.90619 2.04711 7.14 2.13808 7.35797C2.22904 7.57594 2.36224 7.77375 2.53 7.94L14 19.58V29.78L16 30.54V19C16.0008 18.8684 15.9755 18.7379 15.9258 18.6161C15.876 18.4943 15.8027 18.3834 15.71 18.29L4 6.59V6H32V6.61L20.33 18.29C20.2301 18.3801 20.1493 18.4894 20.0926 18.6114C20.0359 18.7334 20.0044 18.8655 20 19V32.21L22 33V19.5L33.47 8C33.6405 7.82953 33.7752 7.62672 33.8662 7.40348C33.9572 7.18024 34.0027 6.94106 34 6.7V5C34 4.73478 33.8946 4.48043 33.7071 4.29289C33.5196 4.10536 33.2652 4 33 4Z" fill="#198FB5"/>
</g>
<defs>
<clipPath id="clip0_1949_4162">
<rect width="36" height="36" fill="white"/>
</clipPath>
</defs>
</svg>
