<svg width="73" height="22" viewBox="0 0 73 22" fill="none" xmlns="http://www.w3.org/2000/svg">
<g clip-path="url(#clip0_1396_2707)">
<path fill-rule="evenodd" clip-rule="evenodd" d="M2.8419 15.397C2.56092 15.665 2.17983 15.8156 1.78246 15.8156C1.38509 15.8156 1.004 15.665 0.723015 15.397C0.442034 15.1289 0.28418 14.7654 0.28418 14.3863C0.28418 14.0072 0.442034 13.6436 0.723015 13.3755L5.714 8.61555L5.72448 8.60555C6.13227 8.22452 6.68033 8.01112 7.25113 8.01112C7.82193 8.01112 8.36999 8.22452 8.77778 8.60555L8.78826 8.61555L11.3354 11.0455L14.8499 7.49983L13.2926 6.01412C13.1357 5.86428 13.0289 5.67345 12.9857 5.46574C12.9424 5.25803 12.9646 5.04275 13.0496 4.84708C13.1345 4.65142 13.2783 4.48416 13.4628 4.36641C13.6473 4.24867 13.8642 4.18573 14.0862 4.18555H19.5549C19.8528 4.18555 20.1384 4.29843 20.349 4.49936C20.5597 4.70029 20.678 4.97281 20.678 5.25698V10.4741C20.6778 10.6859 20.6118 10.8929 20.4884 11.0689C20.365 11.2449 20.1896 11.3821 19.9845 11.4631C19.7795 11.5441 19.5538 11.5653 19.3361 11.5241C19.1183 11.4828 18.9183 11.3809 18.7612 11.2313L16.9688 9.51983L12.9197 13.607C12.7196 13.804 12.4807 13.9613 12.2167 14.0699C11.9527 14.1786 11.6688 14.2363 11.3813 14.2399C11.0938 14.2435 10.8083 14.1928 10.5414 14.0908C10.2745 13.9888 10.0314 13.8375 9.82599 13.6455L9.81551 13.6355L7.25038 11.1898L2.8419 15.397Z" fill="#BB3E03"/>
</g>
<path d="M30.79 5.564H31.924V15H30.79V10.73H26.212V15H25.078V5.564H26.212V9.708H30.79V5.564ZM34.0741 15V7.902H35.1801V15H34.0741ZM34.1021 6.194C33.9714 6.054 33.9061 5.88133 33.9061 5.676C33.9061 5.47067 33.9714 5.298 34.1021 5.158C34.2421 5.018 34.4148 4.948 34.6201 4.948C34.8254 4.948 34.9981 5.018 35.1381 5.158C35.2781 5.298 35.3481 5.47067 35.3481 5.676C35.3481 5.88133 35.2781 6.054 35.1381 6.194C34.9981 6.32467 34.8254 6.39 34.6201 6.39C34.4148 6.39 34.2421 6.32467 34.1021 6.194ZM39.9457 13.838C40.459 13.838 40.9117 13.642 41.3037 13.25C41.705 12.8487 41.9057 12.256 41.9057 11.472C41.9057 10.5667 41.7143 9.89467 41.3317 9.456C40.949 9.01733 40.5057 8.798 40.0017 8.798C39.395 8.798 38.9143 9.04067 38.5597 9.526C38.205 10.002 38.0277 10.6273 38.0277 11.402C38.0277 12.1953 38.2237 12.802 38.6157 13.222C39.0077 13.6327 39.451 13.838 39.9457 13.838ZM41.9057 7.902H43.0117V14.426C43.0117 15.5087 42.713 16.3207 42.1157 16.862C41.5183 17.4127 40.7483 17.688 39.8057 17.688C38.947 17.688 38.2143 17.5433 37.6077 17.254V16.148C38.205 16.4933 38.905 16.666 39.7077 16.666C40.389 16.666 40.9257 16.484 41.3177 16.12C41.7097 15.756 41.9057 15.1867 41.9057 14.412V13.614C41.439 14.4167 40.7437 14.818 39.8197 14.818C39.0077 14.818 38.3123 14.5193 37.7337 13.922C37.1643 13.3247 36.8797 12.494 36.8797 11.43C36.8797 10.3753 37.1457 9.50733 37.6777 8.826C38.2097 8.14467 38.905 7.804 39.7637 7.804C40.7343 7.804 41.4483 8.22867 41.9057 9.078V7.902ZM46.0613 5.102V9.134C46.4813 8.24733 47.2279 7.804 48.3013 7.804C48.9826 7.804 49.5286 8.014 49.9393 8.434C50.3593 8.854 50.5693 9.42333 50.5693 10.142V15H49.4633V10.408C49.4633 9.89467 49.3279 9.498 49.0573 9.218C48.7959 8.938 48.4506 8.798 48.0213 8.798C47.4986 8.798 47.0413 8.99867 46.6493 9.4C46.2573 9.80133 46.0613 10.3753 46.0613 11.122V15H44.9693V5.102H46.0613Z" fill="#BB3E03"/>
<defs>
<clipPath id="clip0_1396_2707">
<rect width="20.9642" height="20" fill="white"/>
</clipPath>
</defs>
</svg>
