<svg width="36" height="30" viewBox="0 0 36 30" fill="none" xmlns="http://www.w3.org/2000/svg">
<path fill-rule="evenodd" clip-rule="evenodd" d="M0 28.8462C0 28.5402 0.14588 28.2467 0.405548 28.0303C0.665216 27.8139 1.0174 27.6924 1.38463 27.6924H34.6157C34.9829 27.6924 35.3351 27.8139 35.5948 28.0303C35.8544 28.2467 36.0003 28.5402 36.0003 28.8462C36.0003 29.1522 35.8544 29.4457 35.5948 29.6621C35.3351 29.8784 34.9829 30 34.6157 30H1.38463C1.0174 30 0.665216 29.8784 0.405548 29.6621C0.14588 29.4457 0 29.1522 0 28.8462Z" fill="#1F4768"/>
<path d="M9.69218 13.8462H4.15367C3.38896 13.8462 2.76904 14.3628 2.76904 15V28.8458C2.76904 29.483 3.38896 29.9996 4.15367 29.9996H9.69218C10.4569 29.9996 11.0768 29.483 11.0768 28.8458V15C11.0768 14.3628 10.4569 13.8462 9.69218 13.8462Z" fill="#1F4768"/>
<path d="M20.7693 0H15.2308C14.4661 0 13.8462 0.51658 13.8462 1.15381V28.8453C13.8462 29.4826 14.4661 29.9991 15.2308 29.9991H20.7693C21.534 29.9991 22.154 29.4826 22.154 28.8453V1.15381C22.154 0.51658 21.534 0 20.7693 0Z" fill="#1F4768"/>
<path d="M31.846 6.92139H26.3075C25.5428 6.92139 24.9229 7.43797 24.9229 8.0752V28.8438C24.9229 29.4811 25.5428 29.9977 26.3075 29.9977H31.846C32.6107 29.9977 33.2306 29.4811 33.2306 28.8438V8.0752C33.2306 7.43797 32.6107 6.92139 31.846 6.92139Z" fill="#1F4768"/>
</svg>
