<svg width="22" height="18" viewBox="0 0 22 18" fill="none" xmlns="http://www.w3.org/2000/svg">
<path d="M14.08 0.818182V10.6364C14.08 10.8534 13.9873 11.0615 13.8223 11.2149C13.6572 11.3683 13.4334 11.4545 13.2 11.4545H8.8C8.56661 11.4545 8.34278 11.3683 8.17775 11.2149C8.01271 11.0615 7.92 10.8534 7.92 10.6364V0.818182C7.92 0.601186 8.01271 0.393079 8.17775 0.23964C8.34278 0.0862012 8.56661 0 8.8 0H13.2C13.4334 0 13.6572 0.0862012 13.8223 0.23964C13.9873 0.393079 14.08 0.601186 14.08 0.818182ZM21.12 0H16.72C16.4866 0 16.2628 0.0862012 16.0977 0.23964C15.9327 0.393079 15.84 0.601186 15.84 0.818182V5.72727C15.84 5.94427 15.9327 6.15238 16.0977 6.30581C16.2628 6.45925 16.4866 6.54545 16.72 6.54545H21.12C21.3534 6.54545 21.5772 6.45925 21.7423 6.30581C21.9073 6.15238 22 5.94427 22 5.72727V0.818182C22 0.601186 21.9073 0.393079 21.7423 0.23964C21.5772 0.0862012 21.3534 0 21.12 0ZM21.12 8.18182H16.72C16.4866 8.18182 16.2628 8.26802 16.0977 8.42146C15.9327 8.5749 15.84 8.783 15.84 9V13.0909C15.84 13.5249 16.0254 13.9411 16.3555 14.248C16.6856 14.5549 17.1332 14.7273 17.6 14.7273H20.24C20.7068 14.7273 21.1544 14.5549 21.4845 14.248C21.8146 13.9411 22 13.5249 22 13.0909V9C22 8.783 21.9073 8.5749 21.7423 8.42146C21.5772 8.26802 21.3534 8.18182 21.12 8.18182ZM5.28 0H0.88C0.646609 0 0.422778 0.0862012 0.257746 0.23964C0.0927142 0.393079 0 0.601186 0 0.818182V5.72727C0 5.94427 0.0927142 6.15238 0.257746 6.30581C0.422778 6.45925 0.646609 6.54545 0.88 6.54545H5.28C5.51339 6.54545 5.73722 6.45925 5.90225 6.30581C6.06729 6.15238 6.16 5.94427 6.16 5.72727V0.818182C6.16 0.601186 6.06729 0.393079 5.90225 0.23964C5.73722 0.0862012 5.51339 0 5.28 0ZM5.28 8.18182H0.88C0.646609 8.18182 0.422778 8.26802 0.257746 8.42146C0.0927142 8.5749 0 8.783 0 9V16.3636C0 16.7976 0.185428 17.2138 0.515492 17.5207C0.845556 17.8276 1.29322 18 1.76 18H4.4C4.86678 18 5.31444 17.8276 5.64451 17.5207C5.97457 17.2138 6.16 16.7976 6.16 16.3636V9C6.16 8.783 6.06729 8.5749 5.90225 8.42146C5.73722 8.26802 5.51339 8.18182 5.28 8.18182Z" fill="black"/>
</svg>
