<svg width="188" height="51" viewBox="0 0 188 51" fill="none" xmlns="http://www.w3.org/2000/svg">
<rect x="85.8599" y="7.17969" width="6.58129" height="35.5988" fill="black"/>
<rect x="151.075" y="7.17969" width="6.58129" height="35.5988" fill="black"/>
<rect x="170.52" y="7.17969" width="6.58129" height="35.5988" fill="black"/>
<rect x="160.348" y="7.17969" width="27.2226" height="6.28214" fill="black"/>
<rect x="57.1421" y="7.17969" width="5.98299" height="35.5988" fill="black"/>
<path fill-rule="evenodd" clip-rule="evenodd" d="M65.2129 32.9065H70.0052C77.1095 32.9065 82.8687 27.1474 82.8687 20.0431C82.8687 12.9388 77.1095 7.17969 70.0052 7.17969H62.8252V13.233H69.9846C73.7457 13.233 76.7947 16.2819 76.7947 20.043C76.7947 23.8041 73.7457 26.8531 69.9846 26.8531H67.6553L65.2129 32.9065Z" fill="black"/>
<path fill-rule="evenodd" clip-rule="evenodd" d="M131.032 42.7782V42.7785H124.75V17.0516H131.032V19.316C132.931 17.7163 135.384 16.7524 138.061 16.7524C144.092 16.7524 148.98 21.641 148.98 27.6714V42.7782H142.651C142.682 42.5334 142.698 42.2838 142.698 42.0304V28.8678C142.698 25.6461 140.086 23.0344 136.865 23.0344C133.667 23.0344 131.07 25.6072 131.032 28.7957V42.1026C131.034 42.3312 131.05 42.5566 131.079 42.7782H131.032Z" fill="black"/>
<path fill-rule="evenodd" clip-rule="evenodd" d="M94.9371 29.8706C94.6923 37.2561 100.195 43.4337 107.229 43.6689C110.326 43.7724 113.205 42.7057 115.476 40.8485V42.7783H121.758V42.8927H121.758V17.052H115.476V19.695C113.435 18.038 110.894 17.0168 108.115 16.9239C101.082 16.6888 95.1818 22.4852 94.9371 29.8706ZM108.296 37.4842C111.698 37.4842 114.569 35.2491 115.476 32.1897V28.0555C114.569 24.996 111.698 22.761 108.296 22.761C104.166 22.761 100.818 26.0569 100.818 30.1226C100.818 34.1883 104.166 37.4842 108.296 37.4842Z" fill="black"/>
<rect x="0.602539" width="15.2566" height="9.27364" rx="4.63682" fill="#E54C41"/>
<rect x="13.167" y="13.7607" width="13.1626" height="9.27364" rx="4.63682" fill="#F9BE15"/>
<rect x="14.3633" y="41.5815" width="14.9575" height="9.27364" rx="4.63682" fill="#4C88EF"/>
<rect x="0.602539" y="41.5815" width="9.57279" height="9.27364" rx="4.63682" fill="#4C88EF"/>
<rect x="0.602539" y="13.7607" width="8.97449" height="9.27364" rx="4.48724" fill="#F9BE15"/>
<rect x="17.6533" y="27.5215" width="9.57279" height="9.27364" rx="4.63682" fill="#3FA95B"/>
<rect x="31.1157" y="27.5215" width="8.97449" height="9.27364" rx="4.48724" fill="#3FA95B"/>
<rect x="33.5093" y="41.5815" width="17.3507" height="9.27364" rx="4.63682" fill="#4C88EF"/>
<rect x="0.602539" y="27.5215" width="13.1626" height="9.27364" rx="4.63682" fill="#3FA95B"/>
</svg>
