<svg width="73" height="22" viewBox="0 0 73 22" fill="none" xmlns="http://www.w3.org/2000/svg">
<path fill-rule="evenodd" clip-rule="evenodd" d="M2.77404 15.397C2.49311 15.665 2.11209 15.8156 1.7148 15.8156C1.3175 15.8156 0.93648 15.665 0.655551 15.397C0.374621 15.1289 0.216797 14.7654 0.216797 14.3863C0.216797 14.0072 0.374621 13.6436 0.655551 13.3755L5.64561 8.61555L5.65609 8.60555C6.0638 8.22452 6.61176 8.01112 7.18245 8.01112C7.75314 8.01112 8.3011 8.22452 8.70881 8.60555L8.71929 8.61555L11.266 11.0455L14.7798 7.49983L13.2228 6.01412C13.0659 5.86428 12.9591 5.67345 12.9159 5.46574C12.8727 5.25803 12.8949 5.04275 12.9798 4.84708C13.0647 4.65142 13.2085 4.48416 13.3929 4.36641C13.5774 4.24867 13.7943 4.18573 14.0163 4.18555H19.4839C19.7817 4.18555 20.0673 4.29843 20.2779 4.49936C20.4885 4.70029 20.6068 4.97281 20.6068 5.25698V10.4741C20.6066 10.6859 20.5406 10.8929 20.4172 11.0689C20.2938 11.2449 20.1185 11.3821 19.9135 11.4631C19.7084 11.5441 19.4828 11.5653 19.2651 11.5241C19.0474 11.4828 18.8475 11.3809 18.6904 11.2313L16.8983 9.51983L12.85 13.607C12.6499 13.804 12.4111 13.9613 12.1471 14.0699C11.8831 14.1786 11.5993 14.2363 11.3118 14.2399C11.0244 14.2435 10.739 14.1928 10.4721 14.0908C10.2053 13.9888 9.96219 13.8375 9.75683 13.6455L9.74635 13.6355L7.1817 11.1898L2.77404 15.397Z" fill="#28B4E1"/>
<path d="M25.212 13.978H29.23V15H24.078V5.564H25.212V13.978ZM33.5779 15.126C32.5605 15.126 31.7532 14.7853 31.1559 14.104C30.5679 13.4133 30.2739 12.5453 30.2739 11.5C30.2739 10.4453 30.5772 9.568 31.1839 8.868C31.7999 8.15867 32.5979 7.804 33.5779 7.804C34.6512 7.804 35.4772 8.14933 36.0559 8.84C36.6439 9.53067 36.9379 10.408 36.9379 11.472C36.9379 12.5267 36.6392 13.3993 36.0419 14.09C35.4445 14.7807 34.6232 15.126 33.5779 15.126ZM33.5779 8.784C32.9059 8.784 32.3785 9.04533 31.9959 9.568C31.6132 10.0907 31.4219 10.73 31.4219 11.486C31.4219 12.2233 31.6179 12.8533 32.0099 13.376C32.4019 13.8893 32.9245 14.146 33.5779 14.146C34.2872 14.146 34.8332 13.894 35.2159 13.39C35.5985 12.8767 35.7899 12.242 35.7899 11.486C35.7899 10.702 35.6079 10.058 35.2439 9.554C34.8799 9.04067 34.3245 8.784 33.5779 8.784ZM40.0672 15L37.8832 7.902H39.0592L39.7452 10.254C39.9879 11.0753 40.1885 11.794 40.3472 12.41C40.5152 13.0167 40.6225 13.4227 40.6692 13.628L40.7392 13.922C40.8792 13.3247 41.2199 12.0973 41.7612 10.24L42.4332 7.902H43.6092L44.2952 10.24L45.3452 13.936C45.4759 13.3853 45.8352 12.1533 46.4232 10.24L47.1372 7.902H48.2712L46.0312 15H44.6732L44.0012 12.676L43.0212 9.134C42.8812 9.73133 42.5639 10.912 42.0692 12.676L41.4252 15H40.0672Z" fill="#28B4E1"/>
</svg>
