<svg width="56" height="56" viewBox="0 0 56 56" fill="none" xmlns="http://www.w3.org/2000/svg">
<g clip-path="url(#clip0_171_122)">
<path d="M23.3337 18.667C20.767 18.667 18.5698 17.7531 16.742 15.9253C14.9142 14.0975 14.0003 11.9003 14.0003 9.33364C14.0003 6.76697 14.9142 4.56975 16.742 2.74197C18.5698 0.914193 20.767 0.00030397 23.3337 0.00030397C25.9003 0.00030397 28.0975 0.914193 29.9253 2.74197C31.7531 4.56975 32.667 6.76697 32.667 9.33364C32.667 11.9003 31.7531 14.0975 29.9253 15.9253C28.0975 17.7531 25.9003 18.667 23.3337 18.667ZM37.3337 18.667C36.9059 18.667 36.3614 18.6187 35.7003 18.5223C35.0392 18.4259 34.4948 18.3185 34.067 18.2003C35.117 16.9559 35.9243 15.5753 36.489 14.0586C37.0537 12.542 37.3352 10.967 37.3337 9.33364C37.3337 7.7003 37.0513 6.1253 36.4867 4.60864C35.922 3.09197 35.1154 1.71142 34.067 0.466971C34.6114 0.272526 35.1559 0.145748 35.7003 0.0866373C36.2448 0.0275262 36.7892 -0.00125159 37.3337 0.00030397C39.9003 0.00030397 42.0975 0.914193 43.9253 2.74197C45.7531 4.56975 46.667 6.76697 46.667 9.33364C46.667 11.9003 45.7531 14.0975 43.9253 15.9253C42.0975 17.7531 39.9003 18.667 37.3337 18.667ZM44.3337 46.667C41.1059 46.667 38.3549 45.5291 36.0807 43.2533C33.8064 40.9775 32.6685 38.2265 32.667 35.0003C32.667 31.7336 33.8049 28.9725 36.0807 26.717C38.3564 24.4614 41.1074 23.3336 44.3337 23.3336C47.6003 23.3336 50.3614 24.4614 52.617 26.717C54.8725 28.9725 56.0003 31.7336 56.0003 35.0003C56.0003 38.2281 54.8725 40.9799 52.617 43.2556C50.3614 45.5314 47.6003 46.6685 44.3337 46.667ZM42.7003 40.2503L50.9253 31.967L49.292 30.3336L42.7003 36.9253L39.3753 33.6003L37.742 35.292L42.7003 40.2503ZM4.66699 37.3336V30.8003C4.66699 29.4781 5.00766 28.2632 5.68899 27.1556C6.37033 26.0481 7.2741 25.2019 8.40033 24.617C10.8114 23.4114 13.2614 22.5076 15.7503 21.9056C18.2392 21.3036 20.767 21.0019 23.3337 21.0003C25.0837 21.0003 26.8142 21.1364 28.5253 21.4086C30.2364 21.6809 31.9475 22.1086 33.6587 22.692C31.5587 24.5197 30.042 26.7271 29.1087 29.314C28.1753 31.9009 27.8642 34.5741 28.1753 37.3336H4.66699Z" fill="#F8F8F8"/>
</g>
<defs>
<clipPath id="clip0_171_122">
<rect width="56" height="56" fill="white" transform="translate(0 0.000244141)"/>
</clipPath>
</defs>
</svg>
