<svg width="73" height="22" viewBox="0 0 73 22" fill="none" xmlns="http://www.w3.org/2000/svg">
<path fill-rule="evenodd" clip-rule="evenodd" d="M2.77404 15.397C2.49311 15.665 2.11209 15.8156 1.7148 15.8156C1.3175 15.8156 0.93648 15.665 0.655551 15.397C0.374621 15.1289 0.216797 14.7654 0.216797 14.3863C0.216797 14.0072 0.374621 13.6436 0.655551 13.3755L5.64561 8.61555L5.65609 8.60555C6.0638 8.22452 6.61176 8.01112 7.18245 8.01112C7.75314 8.01112 8.3011 8.22452 8.70881 8.60555L8.71929 8.61555L11.266 11.0455L14.7798 7.49983L13.2228 6.01412C13.0659 5.86428 12.9591 5.67345 12.9159 5.46574C12.8727 5.25803 12.8949 5.04275 12.9798 4.84708C13.0647 4.65142 13.2085 4.48416 13.3929 4.36641C13.5774 4.24867 13.7943 4.18573 14.0163 4.18555H19.4839C19.7817 4.18555 20.0673 4.29843 20.2779 4.49936C20.4885 4.70029 20.6068 4.97281 20.6068 5.25698V10.4741C20.6066 10.6859 20.5406 10.8929 20.4172 11.0689C20.2938 11.2449 20.1185 11.3821 19.9135 11.4631C19.7084 11.5441 19.4828 11.5653 19.2651 11.5241C19.0474 11.4828 18.8475 11.3809 18.6904 11.2313L16.8983 9.51983L12.85 13.607C12.6499 13.804 12.4111 13.9613 12.1471 14.0699C11.8831 14.1786 11.5993 14.2363 11.3118 14.2399C11.0244 14.2435 10.739 14.1928 10.4721 14.0908C10.2053 13.9888 9.96219 13.8375 9.75683 13.6455L9.74635 13.6355L7.1817 11.1898L2.77404 15.397Z" fill="#F3A20D"/>
<path d="M23.98 15L24.666 5.564H26.108L27.354 9.008L28.866 13.404C29.4073 11.8733 29.9393 10.408 30.462 9.008L31.764 5.564H33.206L34.032 15H32.898L32.576 11.276L32.24 7.09C31.7453 8.47133 31.2367 9.86667 30.714 11.276L29.398 14.79H28.32L27.074 11.276L25.646 7.174C25.646 7.538 25.5573 8.90533 25.38 11.276L25.114 15H23.98ZM40.5479 10.996V10.716C40.5479 10.128 40.3892 9.66133 40.0719 9.316C39.7546 8.96133 39.3159 8.784 38.7559 8.784C38.2239 8.784 37.7712 8.97533 37.3979 9.358C37.0246 9.74067 36.8052 10.2867 36.7399 10.996H40.5479ZM41.2059 13.6V14.636C40.6552 14.9253 39.9832 15.07 39.1899 15.07C38.1166 15.07 37.2486 14.7433 36.5859 14.09C35.9326 13.4273 35.6059 12.5547 35.6059 11.472C35.6059 10.3427 35.8999 9.45133 36.4879 8.798C37.0759 8.14467 37.8319 7.818 38.7559 7.818C39.6426 7.818 40.3472 8.10267 40.8699 8.672C41.3926 9.24133 41.6539 10.0487 41.6539 11.094C41.6539 11.3927 41.6306 11.668 41.5839 11.92H36.7399C36.8239 12.62 37.0899 13.1567 37.5379 13.53C37.9859 13.9033 38.5739 14.09 39.3019 14.09C40.0952 14.09 40.7299 13.9267 41.2059 13.6ZM46.0424 14.104C46.621 14.104 47.111 13.8893 47.5124 13.46C47.923 13.0307 48.1284 12.3447 48.1284 11.402C48.1284 10.506 47.9184 9.848 47.4984 9.428C47.0784 9.008 46.6164 8.798 46.1124 8.798C45.5244 8.798 45.0344 9.036 44.6424 9.512C44.2597 9.97867 44.0684 10.6507 44.0684 11.528C44.0684 12.2933 44.255 12.914 44.6284 13.39C45.0017 13.866 45.473 14.104 46.0424 14.104ZM48.1284 5.102H49.2344V15H48.1284V13.95C47.6244 14.7247 46.8964 15.112 45.9444 15.112C45.0017 15.112 44.2597 14.762 43.7184 14.062C43.1864 13.362 42.9204 12.5127 42.9204 11.514C42.9204 10.4033 43.205 9.50733 43.7744 8.826C44.3437 8.13533 45.0764 7.79 45.9724 7.79C46.8964 7.79 47.615 8.18667 48.1284 8.98V5.102ZM51.3397 15V7.902H52.4457V15H51.3397ZM51.3677 6.194C51.2371 6.054 51.1717 5.88133 51.1717 5.676C51.1717 5.47067 51.2371 5.298 51.3677 5.158C51.5077 5.018 51.6804 4.948 51.8857 4.948C52.0911 4.948 52.2637 5.018 52.4037 5.158C52.5437 5.298 52.6137 5.47067 52.6137 5.676C52.6137 5.88133 52.5437 6.054 52.4037 6.194C52.2637 6.32467 52.0911 6.39 51.8857 6.39C51.6804 6.39 51.5077 6.32467 51.3677 6.194ZM58.9613 7.902H60.0673V15H58.9613V13.768C58.588 14.6453 57.846 15.084 56.7353 15.084C56.0353 15.084 55.48 14.8787 55.0693 14.468C54.668 14.048 54.4673 13.488 54.4673 12.788V7.902H55.5733V12.508C55.5733 13.0213 55.704 13.4133 55.9653 13.684C56.2266 13.9547 56.5813 14.09 57.0293 14.09C57.6173 14.09 58.084 13.8847 58.4293 13.474C58.784 13.0633 58.9613 12.508 58.9613 11.808V7.902ZM63.2038 7.902V9.05C63.5958 8.21933 64.2632 7.804 65.2058 7.804C66.2978 7.804 66.9885 8.266 67.2778 9.19C67.4832 8.742 67.7678 8.40133 68.1318 8.168C68.5052 7.92533 68.9205 7.804 69.3778 7.804C70.1152 7.804 70.6705 8.014 71.0438 8.434C71.4172 8.854 71.6038 9.41867 71.6038 10.128V15H70.4978V10.408C70.4978 9.33467 70.0452 8.798 69.1398 8.798C68.6918 8.798 68.2905 9.00333 67.9358 9.414C67.5812 9.81533 67.4038 10.3847 67.4038 11.122V15H66.2978V10.408C66.2978 9.33467 65.8452 8.798 64.9398 8.798C64.4918 8.798 64.0905 9.00333 63.7358 9.414C63.3812 9.81533 63.2038 10.3847 63.2038 11.122V15H62.1118V7.902H63.2038Z" fill="#F3A20D"/>
</svg>
