<svg width="75" height="75" viewBox="0 0 75 75" fill="none" xmlns="http://www.w3.org/2000/svg">
<path d="M26.3254 34.4137C29.0835 39.8343 33.5273 44.2588 38.9479 47.0362L43.1618 42.8223C43.6789 42.3051 44.4451 42.1327 45.1155 42.3626C47.2607 43.0713 49.5784 43.4544 51.9535 43.4544C53.0069 43.4544 53.8689 44.3163 53.8689 45.3698V52.0545C53.8689 53.108 53.0069 53.9699 51.9535 53.9699C33.9678 53.9699 19.3916 39.3937 19.3916 21.4081C19.3916 20.3546 20.2535 19.4927 21.307 19.4927H28.0109C29.0644 19.4927 29.9263 20.3546 29.9263 21.4081C29.9263 23.8023 30.3094 26.1008 31.0181 28.2461C31.2288 28.9165 31.0756 29.6635 30.5393 30.1998L26.3254 34.4137Z" fill="#0ABF73"/>
<path d="M73.1914 37.2922C73.1914 57.1745 57.0737 73.2922 37.1914 73.2922C17.3092 73.2922 1.19141 57.1745 1.19141 37.2922C1.19141 17.41 17.3092 1.29224 37.1914 1.29224C57.0737 1.29224 73.1914 17.41 73.1914 37.2922Z" stroke="#776A6A" stroke-width="2"/>
</svg>
