<svg width="50" height="50" viewBox="0 0 38 42" fill="none" xmlns="http://www.w3.org/2000/svg">
<path d="M10.8993 30.0125C11.291 29.205 11.8538 28.5145 12.5397 28H25.4597C26.1456 28.5147 26.7084 29.2054 27.1 30.0131C27.4915 30.8207 27.7002 31.7212 27.708 32.6375V33.6875C27.708 33.8035 27.6663 33.9148 27.5921 33.9969C27.5178 34.0789 27.4172 34.125 27.3122 34.125H10.6872C10.5822 34.125 10.4815 34.0789 10.4073 33.9969C10.333 33.9148 10.2913 33.8035 10.2913 33.6875V32.6375C10.2991 31.721 10.5077 30.8203 10.8993 30.0125ZM10.6872 3.5C9.53238 3.5 8.42488 4.00703 7.60831 4.90955C6.79175 5.81207 6.33301 7.03615 6.33301 8.3125V9.0475C6.33323 10.785 6.74051 12.4929 7.5152 14.0048C8.28989 15.5167 9.40559 16.7812 10.7537 17.675L13.6195 19.5755C13.7904 19.6889 13.9327 19.8479 14.0333 20.0381C14.1339 20.2282 14.1896 20.4432 14.1953 20.6634C14.201 20.8835 14.1564 21.1018 14.0658 21.2979C13.9751 21.494 13.8412 21.6618 13.6765 21.7858L10.3183 24.311C9.09042 25.2337 8.0854 26.4743 7.39078 27.9247C6.69615 29.3751 6.33301 30.9912 6.33301 32.6322V33.6875C6.33301 34.9639 6.79175 36.1879 7.60831 37.0905C8.42488 37.993 9.53238 38.5 10.6872 38.5H27.3122C27.884 38.5 28.4502 38.3755 28.9784 38.1337C29.5067 37.8918 29.9867 37.5373 30.391 37.0905C30.7954 36.6436 31.1161 36.113 31.3349 35.5292C31.5537 34.9453 31.6663 34.3195 31.6663 33.6875V32.6305C31.6661 30.9897 31.3028 29.374 30.6082 27.9239C29.9136 26.4739 28.9087 25.2335 27.6811 24.311L24.3228 21.7858C24.1581 21.6618 24.0242 21.494 23.9336 21.2979C23.8429 21.1018 23.7984 20.8835 23.8041 20.6634C23.8097 20.4432 23.8655 20.2282 23.9661 20.0381C24.0667 19.8479 24.209 19.6889 24.3798 19.5755L27.2457 17.675C28.5938 16.7812 29.7095 15.5167 30.4842 14.0048C31.2588 12.4929 31.6661 10.785 31.6663 9.0475V8.3125C31.6663 7.68051 31.5537 7.05472 31.3349 6.47084C31.1161 5.88696 30.7954 5.35643 30.391 4.90955C29.9867 4.46267 29.5067 4.10818 28.9784 3.86633C28.4502 3.62448 27.884 3.5 27.3122 3.5H10.6872ZM8.70801 8.3125C8.70801 7.105 9.59467 6.125 10.6872 6.125H27.3122C28.4047 6.125 29.2913 7.105 29.2913 8.3125V9.0475C29.291 10.3314 28.99 11.5933 28.4176 12.7105C27.8452 13.8277 27.0209 14.7621 26.0249 15.4227L23.1591 17.325C20.9266 18.8037 20.8363 22.3405 22.9881 23.9575L26.3448 26.481C27.2526 27.1629 27.9957 28.08 28.5092 29.1522C29.0228 30.2243 29.2913 31.4191 29.2913 32.6322V33.6875C29.2913 34.895 28.4047 35.875 27.3122 35.875H10.6872C9.59467 35.875 8.70801 34.895 8.70801 33.6875V32.6305C8.70809 31.4178 8.97647 30.2235 9.48977 29.1516C10.0031 28.0798 10.7457 27.163 11.653 26.481L15.0113 23.9575C17.163 22.3405 17.0728 18.8037 14.8418 17.325L11.976 15.4227C10.9797 14.7623 10.1551 13.828 9.5824 12.7108C9.00971 11.5936 8.70848 10.3316 8.70801 9.0475V8.3125Z" fill="white"/>
</svg>
