<svg width="20" height="20" viewBox="0 0 20 20" fill="none" xmlns="http://www.w3.org/2000/svg">
<path d="M18.75 11.25H12.5V15.2925C12.5014 15.8841 12.67 16.4632 12.9864 16.963C13.3028 17.4629 13.7541 17.8631 14.2881 18.1175L15.625 18.75L16.9619 18.1169C17.4959 17.8625 17.9472 17.4622 18.2636 16.9624C18.58 16.4625 18.7486 15.8834 18.75 15.2919V11.25ZM15.625 17.3662L14.8231 16.9869C14.5026 16.8344 14.2318 16.5944 14.0419 16.2946C13.8521 15.9948 13.7508 15.6474 13.75 15.2925V12.5H17.5V15.2925C17.499 15.6473 17.3978 15.9946 17.2079 16.2943C17.018 16.594 16.7473 16.8338 16.4269 16.9862L15.625 17.3662ZM10.625 11.25H3.125C2.79348 11.25 2.47554 11.3817 2.24112 11.6161C2.0067 11.8505 1.875 12.1685 1.875 12.5V15.625C1.875 15.9565 2.0067 16.2745 2.24112 16.5089C2.47554 16.7433 2.79348 16.875 3.125 16.875H10.625V15.625H3.125V12.5H10.625V11.25ZM16.875 2.5H13.75C13.4185 2.5 13.1005 2.6317 12.8661 2.86612C12.6317 3.10054 12.5 3.41848 12.5 3.75V9.375H13.75V3.75H16.875V9.375H18.125V3.75C18.125 3.41848 17.9933 3.10054 17.7589 2.86612C17.5245 2.6317 17.2065 2.5 16.875 2.5ZM9.375 2.5H3.125C2.79348 2.5 2.47554 2.6317 2.24112 2.86612C2.0067 3.10054 1.875 3.41848 1.875 3.75V8.125C1.875 8.45652 2.0067 8.77446 2.24112 9.00888C2.47554 9.2433 2.79348 9.375 3.125 9.375H9.375C9.70652 9.375 10.0245 9.2433 10.2589 9.00888C10.4933 8.77446 10.625 8.45652 10.625 8.125V3.75C10.625 3.41848 10.4933 3.10054 10.2589 2.86612C10.0245 2.6317 9.70652 2.5 9.375 2.5ZM3.125 8.125V3.75H9.375V8.125H3.125Z" fill="#333333"/>
</svg>
