<svg width="75" height="75" viewBox="0 0 75 75" fill="none" xmlns="http://www.w3.org/2000/svg">
<path d="M36.6315 36.4977C34.1134 36.4977 31.9578 35.6011 30.1647 33.808C28.3715 32.0148 27.4749 29.8592 27.4749 27.3411C27.4749 24.8231 28.3715 22.6675 30.1647 20.8743C31.9578 19.0812 34.1134 18.1846 36.6315 18.1846C39.1495 18.1846 41.3052 19.0812 43.0983 20.8743C44.8915 22.6675 45.7881 24.8231 45.7881 27.3411C45.7881 29.8592 44.8915 32.0148 43.0983 33.808C41.3052 35.6011 39.1495 36.4977 36.6315 36.4977ZM18.3184 54.8108V48.4012C18.3184 47.1041 18.6526 45.9122 19.321 44.8256C19.9894 43.739 20.8761 42.9088 21.981 42.335C24.3464 41.1523 26.75 40.2656 29.1918 39.675C31.6335 39.0844 34.1134 38.7884 36.6315 38.7868C39.1495 38.7868 41.6294 39.0829 44.0712 39.675C46.513 40.2672 48.9165 41.1538 51.282 42.335C52.3884 42.9073 53.2758 43.7375 53.9443 44.8256C54.6127 45.9137 54.9461 47.1056 54.9446 48.4012V54.8108H18.3184Z" fill="#AEE1F2"/>
<path d="M73.1914 37.0581C73.1914 56.9404 57.0737 73.0581 37.1914 73.0581C17.3092 73.0581 1.19141 56.9404 1.19141 37.0581C1.19141 17.1759 17.3092 1.05811 37.1914 1.05811C57.0737 1.05811 73.1914 17.1759 73.1914 37.0581Z" stroke="#776A6A" stroke-width="2"/>
</svg>
