<svg width="75" height="75" viewBox="0 0 75 75" fill="none" xmlns="http://www.w3.org/2000/svg">
<path d="M37.1715 33.6802C34.8642 33.6802 32.8889 32.8747 31.2458 31.2636C29.6026 29.6526 28.7811 27.7159 28.7811 25.4535C28.7811 23.1912 29.6026 21.2545 31.2458 19.6434C32.8889 18.0323 34.8642 17.2268 37.1715 17.2268C39.4789 17.2268 41.4542 18.0323 43.0973 19.6434C44.7404 21.2545 45.562 23.1912 45.562 25.4535C45.562 27.7159 44.7404 29.6526 43.0973 31.2636C41.4542 32.8747 39.4789 33.6802 37.1715 33.6802ZM20.3906 50.1337V44.375C20.3906 43.2095 20.6969 42.1387 21.3094 41.1624C21.9219 40.1862 22.7344 39.4403 23.7468 38.9248C25.9143 37.8621 28.1168 37.0655 30.3543 36.5349C32.5917 36.0043 34.8642 35.7383 37.1715 35.7369C39.4789 35.7369 41.7513 36.0029 43.9888 36.5349C46.2262 37.0669 48.4287 37.8635 50.5963 38.9248C51.6101 39.4389 52.4233 40.1848 53.0358 41.1624C53.6483 42.14 53.9539 43.2109 53.9525 44.375V50.1337H20.3906Z" fill="#1F4768"/>
<path d="M73.1914 37.3157C73.1914 57.1979 57.0737 73.3157 37.1914 73.3157C17.3092 73.3157 1.19141 57.1979 1.19141 37.3157C1.19141 17.4334 17.3092 1.31567 37.1914 1.31567C57.0737 1.31567 73.1914 17.4334 73.1914 37.3157Z" stroke="#776A6A" stroke-width="2"/>
</svg>
