<svg width="23" height="23" viewBox="0 0 23 23" fill="none" xmlns="http://www.w3.org/2000/svg">
<path d="M22.4931 20.173C22.8013 20.4812 22.9744 20.8992 22.9744 21.3351C22.9744 21.7709 22.8013 22.189 22.4931 22.4972C22.1849 22.8054 21.7668 22.9785 21.331 22.9785C20.8951 22.9785 20.4771 22.8054 20.1689 22.4972L11.4886 13.8142L2.80558 22.4944C2.49737 22.8027 2.07935 22.9758 1.64347 22.9758C1.2076 22.9758 0.789572 22.8027 0.481362 22.4944C0.173152 22.1862 4.59269e-09 21.7682 0 21.3323C-4.59269e-09 20.8965 0.173152 20.4784 0.481362 20.1702L9.16437 11.49L0.484096 2.80695C0.175885 2.49874 0.00273443 2.08071 0.00273444 1.64484C0.00273444 1.20896 0.175885 0.790939 0.484096 0.482729C0.792306 0.174518 1.21033 0.00136696 1.64621 0.00136696C2.08208 0.00136695 2.5001 0.174518 2.80832 0.482729L11.4886 9.16574L20.1716 0.481361C20.4798 0.173151 20.8978 -7.26169e-09 21.3337 0C21.7696 7.26169e-09 22.1876 0.173151 22.4958 0.481361C22.804 0.789572 22.9772 1.20759 22.9772 1.64347C22.9772 2.07935 22.804 2.49737 22.4958 2.80558L13.8128 11.49L22.4931 20.173Z" fill="#1F4768"/>
</svg>
