<svg width="702" height="930" viewBox="0 0 702 930" fill="none" xmlns="http://www.w3.org/2000/svg">
<rect width="702" height="930" rx="17" fill="white"/>
<path d="M43.964 146V127.8H50.776C52.3187 127.8 53.6447 128.051 54.754 128.554C55.8633 129.039 56.7127 129.75 57.302 130.686C57.9087 131.605 58.212 132.723 58.212 134.04C58.212 135.323 57.9087 136.432 57.302 137.368C56.7127 138.287 55.8633 138.997 54.754 139.5C53.6447 140.003 52.3187 140.254 50.776 140.254H45.03L45.888 139.344V146H43.964ZM45.888 139.5L45.03 138.564H50.724C52.544 138.564 53.922 138.174 54.858 137.394C55.8113 136.597 56.288 135.479 56.288 134.04C56.288 132.584 55.8113 131.457 54.858 130.66C53.922 129.863 52.544 129.464 50.724 129.464H45.03L45.888 128.554V139.5ZM61.6521 146V132.35H63.4201V136.068L63.2381 135.418C63.6195 134.378 64.2608 133.589 65.1621 133.052C66.0635 132.497 67.1815 132.22 68.5161 132.22V134.014C68.4468 134.014 68.3775 134.014 68.3081 134.014C68.2388 133.997 68.1695 133.988 68.1001 133.988C66.6615 133.988 65.5348 134.43 64.7201 135.314C63.9055 136.181 63.4981 137.42 63.4981 139.032V146H61.6521ZM77.3216 146.13C76.0043 146.13 74.8169 145.835 73.7596 145.246C72.7196 144.639 71.8963 143.816 71.2896 142.776C70.6829 141.719 70.3796 140.514 70.3796 139.162C70.3796 137.793 70.6829 136.588 71.2896 135.548C71.8963 134.508 72.7196 133.693 73.7596 133.104C74.7996 132.515 75.9869 132.22 77.3216 132.22C78.6736 132.22 79.8696 132.515 80.9096 133.104C81.9669 133.693 82.7903 134.508 83.3796 135.548C83.9863 136.588 84.2896 137.793 84.2896 139.162C84.2896 140.514 83.9863 141.719 83.3796 142.776C82.7903 143.816 81.9669 144.639 80.9096 145.246C79.8523 145.835 78.6563 146.13 77.3216 146.13ZM77.3216 144.492C78.3096 144.492 79.1849 144.275 79.9476 143.842C80.7103 143.391 81.3083 142.767 81.7416 141.97C82.1923 141.155 82.4176 140.219 82.4176 139.162C82.4176 138.087 82.1923 137.151 81.7416 136.354C81.3083 135.557 80.7103 134.941 79.9476 134.508C79.1849 134.057 78.3183 133.832 77.3476 133.832C76.3769 133.832 75.5103 134.057 74.7476 134.508C73.9849 134.941 73.3783 135.557 72.9276 136.354C72.4769 137.151 72.2516 138.087 72.2516 139.162C72.2516 140.219 72.4769 141.155 72.9276 141.97C73.3783 142.767 73.9849 143.391 74.7476 143.842C75.5103 144.275 76.3683 144.492 77.3216 144.492ZM86.0304 151.174C85.4757 151.174 84.947 151.096 84.4444 150.94C83.9244 150.801 83.491 150.585 83.1444 150.29L83.7944 148.886C84.349 149.354 85.0597 149.588 85.9264 149.588C86.6544 149.588 87.209 149.371 87.5904 148.938C87.989 148.505 88.1884 147.863 88.1884 147.014V132.35H90.0344V147.014C90.0344 148.279 89.6877 149.285 88.9944 150.03C88.3184 150.793 87.3304 151.174 86.0304 151.174ZM89.1244 129.334C88.743 129.334 88.4224 129.204 88.1624 128.944C87.9024 128.684 87.7724 128.372 87.7724 128.008C87.7724 127.644 87.9024 127.341 88.1624 127.098C88.4224 126.838 88.743 126.708 89.1244 126.708C89.5057 126.708 89.8264 126.829 90.0864 127.072C90.3464 127.315 90.4764 127.618 90.4764 127.982C90.4764 128.363 90.3464 128.684 90.0864 128.944C89.8437 129.204 89.523 129.334 89.1244 129.334ZM100.991 146.13C99.5698 146.13 98.3218 145.835 97.2471 145.246C96.1725 144.639 95.3318 143.816 94.7251 142.776C94.1185 141.719 93.8151 140.514 93.8151 139.162C93.8151 137.81 94.1011 136.614 94.6731 135.574C95.2625 134.534 96.0598 133.719 97.0651 133.13C98.0878 132.523 99.2318 132.22 100.497 132.22C101.78 132.22 102.915 132.515 103.903 133.104C104.908 133.676 105.697 134.491 106.269 135.548C106.841 136.588 107.127 137.793 107.127 139.162C107.127 139.249 107.118 139.344 107.101 139.448C107.101 139.535 107.101 139.63 107.101 139.734H95.2191V138.356H106.113L105.385 138.902C105.385 137.914 105.168 137.039 104.735 136.276C104.319 135.496 103.747 134.889 103.019 134.456C102.291 134.023 101.45 133.806 100.497 133.806C99.5611 133.806 98.7205 134.023 97.9751 134.456C97.2298 134.889 96.6491 135.496 96.2331 136.276C95.8171 137.056 95.6091 137.949 95.6091 138.954V139.24C95.6091 140.28 95.8345 141.199 96.2851 141.996C96.7531 142.776 97.3945 143.391 98.2091 143.842C99.0411 144.275 99.9858 144.492 101.043 144.492C101.875 144.492 102.646 144.345 103.357 144.05C104.085 143.755 104.709 143.305 105.229 142.698L106.269 143.894C105.662 144.622 104.9 145.177 103.981 145.558C103.08 145.939 102.083 146.13 100.991 146.13ZM116.553 146.13C115.201 146.13 113.987 145.835 112.913 145.246C111.855 144.639 111.023 143.816 110.417 142.776C109.81 141.719 109.507 140.514 109.507 139.162C109.507 137.793 109.81 136.588 110.417 135.548C111.023 134.508 111.855 133.693 112.913 133.104C113.987 132.515 115.201 132.22 116.553 132.22C117.714 132.22 118.763 132.445 119.699 132.896C120.635 133.347 121.371 134.023 121.909 134.924L120.531 135.86C120.063 135.167 119.482 134.655 118.789 134.326C118.095 133.997 117.341 133.832 116.527 133.832C115.556 133.832 114.681 134.057 113.901 134.508C113.121 134.941 112.505 135.557 112.055 136.354C111.604 137.151 111.379 138.087 111.379 139.162C111.379 140.237 111.604 141.173 112.055 141.97C112.505 142.767 113.121 143.391 113.901 143.842C114.681 144.275 115.556 144.492 116.527 144.492C117.341 144.492 118.095 144.327 118.789 143.998C119.482 143.669 120.063 143.166 120.531 142.49L121.909 143.426C121.371 144.31 120.635 144.986 119.699 145.454C118.763 145.905 117.714 146.13 116.553 146.13ZM130.003 146.13C128.721 146.13 127.733 145.783 127.039 145.09C126.346 144.397 125.999 143.417 125.999 142.152V129.334H127.845V142.048C127.845 142.845 128.045 143.461 128.443 143.894C128.859 144.327 129.449 144.544 130.211 144.544C131.026 144.544 131.702 144.31 132.239 143.842L132.889 145.168C132.525 145.497 132.083 145.74 131.563 145.896C131.061 146.052 130.541 146.13 130.003 146.13ZM123.555 133.884V132.35H132.005V133.884H123.555ZM150.022 132.22C151.132 132.22 152.102 132.437 152.934 132.87C153.784 133.286 154.442 133.927 154.91 134.794C155.396 135.661 155.638 136.753 155.638 138.07V146H153.792V138.252C153.792 136.813 153.428 135.73 152.7 135.002C151.99 134.257 150.984 133.884 149.684 133.884C148.714 133.884 147.864 134.083 147.136 134.482C146.426 134.863 145.871 135.427 145.472 136.172C145.091 136.9 144.9 137.784 144.9 138.824V146H143.054V132.35H144.822V136.094L144.536 135.392C144.97 134.404 145.663 133.633 146.616 133.078C147.57 132.506 148.705 132.22 150.022 132.22ZM169.179 146V142.984L169.101 142.49V137.446C169.101 136.285 168.771 135.392 168.113 134.768C167.471 134.144 166.509 133.832 165.227 133.832C164.343 133.832 163.502 133.979 162.705 134.274C161.907 134.569 161.231 134.959 160.677 135.444L159.845 134.066C160.538 133.477 161.37 133.026 162.341 132.714C163.311 132.385 164.334 132.22 165.409 132.22C167.177 132.22 168.537 132.662 169.491 133.546C170.461 134.413 170.947 135.739 170.947 137.524V146H169.179ZM164.473 146.13C163.45 146.13 162.557 145.965 161.795 145.636C161.049 145.289 160.477 144.821 160.079 144.232C159.68 143.625 159.481 142.932 159.481 142.152C159.481 141.441 159.645 140.8 159.975 140.228C160.321 139.639 160.876 139.171 161.639 138.824C162.419 138.46 163.459 138.278 164.759 138.278H169.465V139.656H164.811C163.493 139.656 162.575 139.89 162.055 140.358C161.552 140.826 161.301 141.407 161.301 142.1C161.301 142.88 161.604 143.504 162.211 143.972C162.817 144.44 163.667 144.674 164.759 144.674C165.799 144.674 166.691 144.44 167.437 143.972C168.199 143.487 168.754 142.793 169.101 141.892L169.517 143.166C169.17 144.067 168.563 144.787 167.697 145.324C166.847 145.861 165.773 146.13 164.473 146.13ZM193.017 132.22C194.126 132.22 195.088 132.437 195.903 132.87C196.735 133.286 197.376 133.927 197.827 134.794C198.295 135.661 198.529 136.753 198.529 138.07V146H196.683V138.252C196.683 136.813 196.336 135.73 195.643 135.002C194.967 134.257 194.005 133.884 192.757 133.884C191.821 133.884 191.006 134.083 190.313 134.482C189.637 134.863 189.108 135.427 188.727 136.172C188.363 136.9 188.181 137.784 188.181 138.824V146H186.335V138.252C186.335 136.813 185.988 135.73 185.295 135.002C184.601 134.257 183.631 133.884 182.383 133.884C181.464 133.884 180.658 134.083 179.965 134.482C179.271 134.863 178.734 135.427 178.353 136.172C177.989 136.9 177.807 137.784 177.807 138.824V146H175.961V132.35H177.729V136.042L177.443 135.392C177.859 134.404 178.526 133.633 179.445 133.078C180.381 132.506 181.481 132.22 182.747 132.22C184.081 132.22 185.217 132.558 186.153 133.234C187.089 133.893 187.695 134.889 187.973 136.224L187.245 135.938C187.643 134.829 188.345 133.936 189.351 133.26C190.373 132.567 191.595 132.22 193.017 132.22ZM209.333 146.13C207.912 146.13 206.664 145.835 205.589 145.246C204.514 144.639 203.674 143.816 203.067 142.776C202.46 141.719 202.157 140.514 202.157 139.162C202.157 137.81 202.443 136.614 203.015 135.574C203.604 134.534 204.402 133.719 205.407 133.13C206.43 132.523 207.574 132.22 208.839 132.22C210.122 132.22 211.257 132.515 212.245 133.104C213.25 133.676 214.039 134.491 214.611 135.548C215.183 136.588 215.469 137.793 215.469 139.162C215.469 139.249 215.46 139.344 215.443 139.448C215.443 139.535 215.443 139.63 215.443 139.734H203.561V138.356H214.455L213.727 138.902C213.727 137.914 213.51 137.039 213.077 136.276C212.661 135.496 212.089 134.889 211.361 134.456C210.633 134.023 209.792 133.806 208.839 133.806C207.903 133.806 207.062 134.023 206.317 134.456C205.572 134.889 204.991 135.496 204.575 136.276C204.159 137.056 203.951 137.949 203.951 138.954V139.24C203.951 140.28 204.176 141.199 204.627 141.996C205.095 142.776 205.736 143.391 206.551 143.842C207.383 144.275 208.328 144.492 209.385 144.492C210.217 144.492 210.988 144.345 211.699 144.05C212.427 143.755 213.051 143.305 213.571 142.698L214.611 143.894C214.004 144.622 213.242 145.177 212.323 145.558C211.422 145.939 210.425 146.13 209.333 146.13ZM219.408 135.054C219.027 135.054 218.698 134.915 218.42 134.638C218.16 134.361 218.03 134.023 218.03 133.624C218.03 133.208 218.16 132.87 218.42 132.61C218.698 132.35 219.027 132.22 219.408 132.22C219.79 132.22 220.11 132.35 220.37 132.61C220.648 132.87 220.786 133.208 220.786 133.624C220.786 134.023 220.648 134.361 220.37 134.638C220.11 134.915 219.79 135.054 219.408 135.054ZM219.408 146.13C219.027 146.13 218.698 145.991 218.42 145.714C218.16 145.437 218.03 145.099 218.03 144.7C218.03 144.284 218.16 143.946 218.42 143.686C218.698 143.426 219.027 143.296 219.408 143.296C219.79 143.296 220.11 143.426 220.37 143.686C220.648 143.946 220.786 144.284 220.786 144.7C220.786 145.099 220.648 145.437 220.37 145.714C220.11 145.991 219.79 146.13 219.408 146.13Z" fill="#776A6A"/>
<path d="M412.68 267.938H422.3V269.576H412.68V267.938ZM412.888 276.336H423.834V278H410.964V259.8H423.444V261.464H412.888V276.336ZM434.935 264.22C436.044 264.22 437.015 264.437 437.847 264.87C438.696 265.286 439.355 265.927 439.823 266.794C440.308 267.661 440.551 268.753 440.551 270.07V278H438.705V270.252C438.705 268.813 438.341 267.73 437.613 267.002C436.902 266.257 435.897 265.884 434.597 265.884C433.626 265.884 432.777 266.083 432.049 266.482C431.338 266.863 430.783 267.427 430.385 268.172C430.003 268.9 429.813 269.784 429.813 270.824V278H427.967V264.35H429.735V268.094L429.449 267.392C429.882 266.404 430.575 265.633 431.529 265.078C432.482 264.506 433.617 264.22 434.935 264.22ZM450.971 278.13C449.671 278.13 448.501 277.835 447.461 277.246C446.438 276.657 445.632 275.842 445.043 274.802C444.454 273.745 444.159 272.531 444.159 271.162C444.159 269.775 444.454 268.562 445.043 267.522C445.632 266.482 446.438 265.676 447.461 265.104C448.501 264.515 449.671 264.22 450.971 264.22C452.167 264.22 453.233 264.489 454.169 265.026C455.122 265.563 455.876 266.352 456.431 267.392C457.003 268.415 457.289 269.671 457.289 271.162C457.289 272.635 457.012 273.892 456.457 274.932C455.902 275.972 455.148 276.769 454.195 277.324C453.259 277.861 452.184 278.13 450.971 278.13ZM451.101 276.492C452.072 276.492 452.938 276.275 453.701 275.842C454.481 275.391 455.088 274.767 455.521 273.97C455.972 273.155 456.197 272.219 456.197 271.162C456.197 270.087 455.972 269.151 455.521 268.354C455.088 267.557 454.481 266.941 453.701 266.508C452.938 266.057 452.072 265.832 451.101 265.832C450.148 265.832 449.29 266.057 448.527 266.508C447.764 266.941 447.158 267.557 446.707 268.354C446.256 269.151 446.031 270.087 446.031 271.162C446.031 272.219 446.256 273.155 446.707 273.97C447.158 274.767 447.764 275.391 448.527 275.842C449.29 276.275 450.148 276.492 451.101 276.492ZM456.249 278V273.892L456.431 271.136L456.171 268.38V258.708H458.017V278H456.249ZM475.397 278.13C474.097 278.13 472.927 277.835 471.887 277.246C470.864 276.657 470.058 275.842 469.469 274.802C468.879 273.745 468.585 272.531 468.585 271.162C468.585 269.775 468.879 268.562 469.469 267.522C470.058 266.482 470.864 265.676 471.887 265.104C472.927 264.515 474.097 264.22 475.397 264.22C476.593 264.22 477.659 264.489 478.595 265.026C479.548 265.563 480.302 266.352 480.857 267.392C481.429 268.415 481.715 269.671 481.715 271.162C481.715 272.635 481.437 273.892 480.883 274.932C480.328 275.972 479.574 276.769 478.621 277.324C477.685 277.861 476.61 278.13 475.397 278.13ZM475.527 276.492C476.497 276.492 477.364 276.275 478.127 275.842C478.907 275.391 479.513 274.767 479.947 273.97C480.397 273.155 480.623 272.219 480.623 271.162C480.623 270.087 480.397 269.151 479.947 268.354C479.513 267.557 478.907 266.941 478.127 266.508C477.364 266.057 476.497 265.832 475.527 265.832C474.573 265.832 473.715 266.057 472.953 266.508C472.19 266.941 471.583 267.557 471.133 268.354C470.682 269.151 470.457 270.087 470.457 271.162C470.457 272.219 470.682 273.155 471.133 273.97C471.583 274.767 472.19 275.391 472.953 275.842C473.715 276.275 474.573 276.492 475.527 276.492ZM480.675 278V273.892L480.857 271.136L480.597 268.38V258.708H482.443V278H480.675ZM496.138 278V274.984L496.06 274.49V269.446C496.06 268.285 495.73 267.392 495.072 266.768C494.43 266.144 493.468 265.832 492.186 265.832C491.302 265.832 490.461 265.979 489.664 266.274C488.866 266.569 488.19 266.959 487.636 267.444L486.804 266.066C487.497 265.477 488.329 265.026 489.3 264.714C490.27 264.385 491.293 264.22 492.368 264.22C494.136 264.22 495.496 264.662 496.45 265.546C497.42 266.413 497.906 267.739 497.906 269.524V278H496.138ZM491.432 278.13C490.409 278.13 489.516 277.965 488.754 277.636C488.008 277.289 487.436 276.821 487.038 276.232C486.639 275.625 486.44 274.932 486.44 274.152C486.44 273.441 486.604 272.8 486.934 272.228C487.28 271.639 487.835 271.171 488.598 270.824C489.378 270.46 490.418 270.278 491.718 270.278H496.424V271.656H491.77C490.452 271.656 489.534 271.89 489.014 272.358C488.511 272.826 488.26 273.407 488.26 274.1C488.26 274.88 488.563 275.504 489.17 275.972C489.776 276.44 490.626 276.674 491.718 276.674C492.758 276.674 493.65 276.44 494.396 275.972C495.158 275.487 495.713 274.793 496.06 273.892L496.476 275.166C496.129 276.067 495.522 276.787 494.656 277.324C493.806 277.861 492.732 278.13 491.432 278.13ZM507.236 278.13C505.953 278.13 504.965 277.783 504.272 277.09C503.578 276.397 503.232 275.417 503.232 274.152V261.334H505.078V274.048C505.078 274.845 505.277 275.461 505.676 275.894C506.092 276.327 506.681 276.544 507.444 276.544C508.258 276.544 508.934 276.31 509.472 275.842L510.122 277.168C509.758 277.497 509.316 277.74 508.796 277.896C508.293 278.052 507.773 278.13 507.236 278.13ZM500.788 265.884V264.35H509.238V265.884H500.788ZM518.798 278.13C517.376 278.13 516.128 277.835 515.054 277.246C513.979 276.639 513.138 275.816 512.532 274.776C511.925 273.719 511.622 272.514 511.622 271.162C511.622 269.81 511.908 268.614 512.48 267.574C513.069 266.534 513.866 265.719 514.872 265.13C515.894 264.523 517.038 264.22 518.304 264.22C519.586 264.22 520.722 264.515 521.71 265.104C522.715 265.676 523.504 266.491 524.076 267.548C524.648 268.588 524.934 269.793 524.934 271.162C524.934 271.249 524.925 271.344 524.908 271.448C524.908 271.535 524.908 271.63 524.908 271.734H513.026V270.356H523.92L523.192 270.902C523.192 269.914 522.975 269.039 522.542 268.276C522.126 267.496 521.554 266.889 520.826 266.456C520.098 266.023 519.257 265.806 518.304 265.806C517.368 265.806 516.527 266.023 515.782 266.456C515.036 266.889 514.456 267.496 514.04 268.276C513.624 269.056 513.416 269.949 513.416 270.954V271.24C513.416 272.28 513.641 273.199 514.092 273.996C514.56 274.776 515.201 275.391 516.016 275.842C516.848 276.275 517.792 276.492 518.85 276.492C519.682 276.492 520.453 276.345 521.164 276.05C521.892 275.755 522.516 275.305 523.036 274.698L524.076 275.894C523.469 276.622 522.706 277.177 521.788 277.558C520.886 277.939 519.89 278.13 518.798 278.13ZM528.873 267.054C528.492 267.054 528.163 266.915 527.885 266.638C527.625 266.361 527.495 266.023 527.495 265.624C527.495 265.208 527.625 264.87 527.885 264.61C528.163 264.35 528.492 264.22 528.873 264.22C529.255 264.22 529.575 264.35 529.835 264.61C530.113 264.87 530.251 265.208 530.251 265.624C530.251 266.023 530.113 266.361 529.835 266.638C529.575 266.915 529.255 267.054 528.873 267.054ZM528.873 278.13C528.492 278.13 528.163 277.991 527.885 277.714C527.625 277.437 527.495 277.099 527.495 276.7C527.495 276.284 527.625 275.946 527.885 275.686C528.163 275.426 528.492 275.296 528.873 275.296C529.255 275.296 529.575 275.426 529.835 275.686C530.113 275.946 530.251 276.284 530.251 276.7C530.251 277.099 530.113 277.437 529.835 277.714C529.575 277.991 529.255 278.13 528.873 278.13Z" fill="#776A6A"/>
<path d="M43.964 417V398.8H50.776C52.3187 398.8 53.6447 399.051 54.754 399.554C55.8633 400.039 56.7127 400.75 57.302 401.686C57.9087 402.605 58.212 403.723 58.212 405.04C58.212 406.323 57.9087 407.432 57.302 408.368C56.7127 409.287 55.8633 409.997 54.754 410.5C53.6447 411.003 52.3187 411.254 50.776 411.254H45.03L45.888 410.344V417H43.964ZM45.888 410.5L45.03 409.564H50.724C52.544 409.564 53.922 409.174 54.858 408.394C55.8113 407.597 56.288 406.479 56.288 405.04C56.288 403.584 55.8113 402.457 54.858 401.66C53.922 400.863 52.544 400.464 50.724 400.464H45.03L45.888 399.554V410.5ZM61.6521 417V403.35H63.4201V407.068L63.2381 406.418C63.6195 405.378 64.2608 404.589 65.1621 404.052C66.0635 403.497 67.1815 403.22 68.5161 403.22V405.014C68.4468 405.014 68.3775 405.014 68.3081 405.014C68.2388 404.997 68.1695 404.988 68.1001 404.988C66.6615 404.988 65.5348 405.43 64.7201 406.314C63.9055 407.181 63.4981 408.42 63.4981 410.032V417H61.6521ZM77.3216 417.13C76.0043 417.13 74.8169 416.835 73.7596 416.246C72.7196 415.639 71.8963 414.816 71.2896 413.776C70.6829 412.719 70.3796 411.514 70.3796 410.162C70.3796 408.793 70.6829 407.588 71.2896 406.548C71.8963 405.508 72.7196 404.693 73.7596 404.104C74.7996 403.515 75.9869 403.22 77.3216 403.22C78.6736 403.22 79.8696 403.515 80.9096 404.104C81.9669 404.693 82.7903 405.508 83.3796 406.548C83.9863 407.588 84.2896 408.793 84.2896 410.162C84.2896 411.514 83.9863 412.719 83.3796 413.776C82.7903 414.816 81.9669 415.639 80.9096 416.246C79.8523 416.835 78.6563 417.13 77.3216 417.13ZM77.3216 415.492C78.3096 415.492 79.1849 415.275 79.9476 414.842C80.7103 414.391 81.3083 413.767 81.7416 412.97C82.1923 412.155 82.4176 411.219 82.4176 410.162C82.4176 409.087 82.1923 408.151 81.7416 407.354C81.3083 406.557 80.7103 405.941 79.9476 405.508C79.1849 405.057 78.3183 404.832 77.3476 404.832C76.3769 404.832 75.5103 405.057 74.7476 405.508C73.9849 405.941 73.3783 406.557 72.9276 407.354C72.4769 408.151 72.2516 409.087 72.2516 410.162C72.2516 411.219 72.4769 412.155 72.9276 412.97C73.3783 413.767 73.9849 414.391 74.7476 414.842C75.5103 415.275 76.3683 415.492 77.3216 415.492ZM86.0304 422.174C85.4757 422.174 84.947 422.096 84.4444 421.94C83.9244 421.801 83.491 421.585 83.1444 421.29L83.7944 419.886C84.349 420.354 85.0597 420.588 85.9264 420.588C86.6544 420.588 87.209 420.371 87.5904 419.938C87.989 419.505 88.1884 418.863 88.1884 418.014V403.35H90.0344V418.014C90.0344 419.279 89.6877 420.285 88.9944 421.03C88.3184 421.793 87.3304 422.174 86.0304 422.174ZM89.1244 400.334C88.743 400.334 88.4224 400.204 88.1624 399.944C87.9024 399.684 87.7724 399.372 87.7724 399.008C87.7724 398.644 87.9024 398.341 88.1624 398.098C88.4224 397.838 88.743 397.708 89.1244 397.708C89.5057 397.708 89.8264 397.829 90.0864 398.072C90.3464 398.315 90.4764 398.618 90.4764 398.982C90.4764 399.363 90.3464 399.684 90.0864 399.944C89.8437 400.204 89.523 400.334 89.1244 400.334ZM100.991 417.13C99.5698 417.13 98.3218 416.835 97.2471 416.246C96.1725 415.639 95.3318 414.816 94.7251 413.776C94.1185 412.719 93.8151 411.514 93.8151 410.162C93.8151 408.81 94.1011 407.614 94.6731 406.574C95.2625 405.534 96.0598 404.719 97.0651 404.13C98.0878 403.523 99.2318 403.22 100.497 403.22C101.78 403.22 102.915 403.515 103.903 404.104C104.908 404.676 105.697 405.491 106.269 406.548C106.841 407.588 107.127 408.793 107.127 410.162C107.127 410.249 107.118 410.344 107.101 410.448C107.101 410.535 107.101 410.63 107.101 410.734H95.2191V409.356H106.113L105.385 409.902C105.385 408.914 105.168 408.039 104.735 407.276C104.319 406.496 103.747 405.889 103.019 405.456C102.291 405.023 101.45 404.806 100.497 404.806C99.5611 404.806 98.7205 405.023 97.9751 405.456C97.2298 405.889 96.6491 406.496 96.2331 407.276C95.8171 408.056 95.6091 408.949 95.6091 409.954V410.24C95.6091 411.28 95.8345 412.199 96.2851 412.996C96.7531 413.776 97.3945 414.391 98.2091 414.842C99.0411 415.275 99.9858 415.492 101.043 415.492C101.875 415.492 102.646 415.345 103.357 415.05C104.085 414.755 104.709 414.305 105.229 413.698L106.269 414.894C105.662 415.622 104.9 416.177 103.981 416.558C103.08 416.939 102.083 417.13 100.991 417.13ZM116.553 417.13C115.201 417.13 113.987 416.835 112.913 416.246C111.855 415.639 111.023 414.816 110.417 413.776C109.81 412.719 109.507 411.514 109.507 410.162C109.507 408.793 109.81 407.588 110.417 406.548C111.023 405.508 111.855 404.693 112.913 404.104C113.987 403.515 115.201 403.22 116.553 403.22C117.714 403.22 118.763 403.445 119.699 403.896C120.635 404.347 121.371 405.023 121.909 405.924L120.531 406.86C120.063 406.167 119.482 405.655 118.789 405.326C118.095 404.997 117.341 404.832 116.527 404.832C115.556 404.832 114.681 405.057 113.901 405.508C113.121 405.941 112.505 406.557 112.055 407.354C111.604 408.151 111.379 409.087 111.379 410.162C111.379 411.237 111.604 412.173 112.055 412.97C112.505 413.767 113.121 414.391 113.901 414.842C114.681 415.275 115.556 415.492 116.527 415.492C117.341 415.492 118.095 415.327 118.789 414.998C119.482 414.669 120.063 414.166 120.531 413.49L121.909 414.426C121.371 415.31 120.635 415.986 119.699 416.454C118.763 416.905 117.714 417.13 116.553 417.13ZM130.003 417.13C128.721 417.13 127.733 416.783 127.039 416.09C126.346 415.397 125.999 414.417 125.999 413.152V400.334H127.845V413.048C127.845 413.845 128.045 414.461 128.443 414.894C128.859 415.327 129.449 415.544 130.211 415.544C131.026 415.544 131.702 415.31 132.239 414.842L132.889 416.168C132.525 416.497 132.083 416.74 131.563 416.896C131.061 417.052 130.541 417.13 130.003 417.13ZM123.555 404.884V403.35H132.005V404.884H123.555ZM160.11 403.22C161.22 403.22 162.182 403.437 162.996 403.87C163.828 404.286 164.47 404.927 164.92 405.794C165.388 406.661 165.622 407.753 165.622 409.07V417H163.776V409.252C163.776 407.813 163.43 406.73 162.736 406.002C162.06 405.257 161.098 404.884 159.85 404.884C158.914 404.884 158.1 405.083 157.406 405.482C156.73 405.863 156.202 406.427 155.82 407.172C155.456 407.9 155.274 408.784 155.274 409.824V417H153.428V409.252C153.428 407.813 153.082 406.73 152.388 406.002C151.695 405.257 150.724 404.884 149.476 404.884C148.558 404.884 147.752 405.083 147.058 405.482C146.365 405.863 145.828 406.427 145.446 407.172C145.082 407.9 144.9 408.784 144.9 409.824V417H143.054V403.35H144.822V407.042L144.536 406.392C144.952 405.404 145.62 404.633 146.538 404.078C147.474 403.506 148.575 403.22 149.84 403.22C151.175 403.22 152.31 403.558 153.246 404.234C154.182 404.893 154.789 405.889 155.066 407.224L154.338 406.938C154.737 405.829 155.439 404.936 156.444 404.26C157.467 403.567 158.689 403.22 160.11 403.22ZM176.427 417.13C175.005 417.13 173.757 416.835 172.683 416.246C171.608 415.639 170.767 414.816 170.161 413.776C169.554 412.719 169.251 411.514 169.251 410.162C169.251 408.81 169.537 407.614 170.109 406.574C170.698 405.534 171.495 404.719 172.501 404.13C173.523 403.523 174.667 403.22 175.933 403.22C177.215 403.22 178.351 403.515 179.339 404.104C180.344 404.676 181.133 405.491 181.705 406.548C182.277 407.588 182.563 408.793 182.563 410.162C182.563 410.249 182.554 410.344 182.537 410.448C182.537 410.535 182.537 410.63 182.537 410.734H170.655V409.356H181.549L180.821 409.902C180.821 408.914 180.604 408.039 180.171 407.276C179.755 406.496 179.183 405.889 178.455 405.456C177.727 405.023 176.886 404.806 175.933 404.806C174.997 404.806 174.156 405.023 173.411 405.456C172.665 405.889 172.085 406.496 171.669 407.276C171.253 408.056 171.045 408.949 171.045 409.954V410.24C171.045 411.28 171.27 412.199 171.721 412.996C172.189 413.776 172.83 414.391 173.645 414.842C174.477 415.275 175.421 415.492 176.479 415.492C177.311 415.492 178.082 415.345 178.793 415.05C179.521 414.755 180.145 414.305 180.665 413.698L181.705 414.894C181.098 415.622 180.335 416.177 179.417 416.558C178.515 416.939 177.519 417.13 176.427 417.13ZM203.376 403.22C204.485 403.22 205.447 403.437 206.262 403.87C207.094 404.286 207.735 404.927 208.186 405.794C208.654 406.661 208.888 407.753 208.888 409.07V417H207.042V409.252C207.042 407.813 206.695 406.73 206.002 406.002C205.326 405.257 204.364 404.884 203.116 404.884C202.18 404.884 201.365 405.083 200.672 405.482C199.996 405.863 199.467 406.427 199.086 407.172C198.722 407.9 198.54 408.784 198.54 409.824V417H196.694V409.252C196.694 407.813 196.347 406.73 195.654 406.002C194.961 405.257 193.99 404.884 192.742 404.884C191.823 404.884 191.017 405.083 190.324 405.482C189.631 405.863 189.093 406.427 188.712 407.172C188.348 407.9 188.166 408.784 188.166 409.824V417H186.32V403.35H188.088V407.042L187.802 406.392C188.218 405.404 188.885 404.633 189.804 404.078C190.74 403.506 191.841 403.22 193.106 403.22C194.441 403.22 195.576 403.558 196.512 404.234C197.448 404.893 198.055 405.889 198.332 407.224L197.604 406.938C198.003 405.829 198.705 404.936 199.71 404.26C200.733 403.567 201.955 403.22 203.376 403.22ZM220.94 417.13C219.744 417.13 218.67 416.861 217.716 416.324C216.763 415.769 216.009 414.972 215.454 413.932C214.9 412.892 214.622 411.635 214.622 410.162C214.622 408.671 214.9 407.415 215.454 406.392C216.026 405.352 216.789 404.563 217.742 404.026C218.696 403.489 219.762 403.22 220.94 403.22C222.24 403.22 223.402 403.515 224.424 404.104C225.464 404.676 226.279 405.482 226.868 406.522C227.458 407.562 227.752 408.775 227.752 410.162C227.752 411.531 227.458 412.745 226.868 413.802C226.279 414.842 225.464 415.657 224.424 416.246C223.402 416.835 222.24 417.13 220.94 417.13ZM213.894 417V397.708H215.74V407.38L215.48 410.136L215.662 412.892V417H213.894ZM220.81 415.492C221.781 415.492 222.648 415.275 223.41 414.842C224.173 414.391 224.78 413.767 225.23 412.97C225.681 412.155 225.906 411.219 225.906 410.162C225.906 409.087 225.681 408.151 225.23 407.354C224.78 406.557 224.173 405.941 223.41 405.508C222.648 405.057 221.781 404.832 220.81 404.832C219.84 404.832 218.964 405.057 218.184 405.508C217.422 405.941 216.815 406.557 216.364 407.354C215.931 408.151 215.714 409.087 215.714 410.162C215.714 411.219 215.931 412.155 216.364 412.97C216.815 413.767 217.422 414.391 218.184 414.842C218.964 415.275 219.84 415.492 220.81 415.492ZM237.313 417.13C235.892 417.13 234.644 416.835 233.569 416.246C232.495 415.639 231.654 414.816 231.047 413.776C230.441 412.719 230.137 411.514 230.137 410.162C230.137 408.81 230.423 407.614 230.995 406.574C231.585 405.534 232.382 404.719 233.387 404.13C234.41 403.523 235.554 403.22 236.819 403.22C238.102 403.22 239.237 403.515 240.225 404.104C241.231 404.676 242.019 405.491 242.591 406.548C243.163 407.588 243.449 408.793 243.449 410.162C243.449 410.249 243.441 410.344 243.423 410.448C243.423 410.535 243.423 410.63 243.423 410.734H231.541V409.356H242.435L241.707 409.902C241.707 408.914 241.491 408.039 241.057 407.276C240.641 406.496 240.069 405.889 239.341 405.456C238.613 405.023 237.773 404.806 236.819 404.806C235.883 404.806 235.043 405.023 234.297 405.456C233.552 405.889 232.971 406.496 232.555 407.276C232.139 408.056 231.931 408.949 231.931 409.954V410.24C231.931 411.28 232.157 412.199 232.607 412.996C233.075 413.776 233.717 414.391 234.531 414.842C235.363 415.275 236.308 415.492 237.365 415.492C238.197 415.492 238.969 415.345 239.679 415.05C240.407 414.755 241.031 414.305 241.551 413.698L242.591 414.894C241.985 415.622 241.222 416.177 240.303 416.558C239.402 416.939 238.405 417.13 237.313 417.13ZM247.207 417V403.35H248.975V407.068L248.793 406.418C249.174 405.378 249.815 404.589 250.717 404.052C251.618 403.497 252.736 403.22 254.071 403.22V405.014C254.001 405.014 253.932 405.014 253.863 405.014C253.793 404.997 253.724 404.988 253.655 404.988C252.216 404.988 251.089 405.43 250.275 406.314C249.46 407.181 249.053 408.42 249.053 410.032V417H247.207ZM261.258 417.13C260.131 417.13 259.065 416.974 258.06 416.662C257.054 416.333 256.266 415.925 255.694 415.44L256.526 413.984C257.08 414.4 257.791 414.764 258.658 415.076C259.524 415.371 260.434 415.518 261.388 415.518C262.688 415.518 263.624 415.319 264.196 414.92C264.768 414.504 265.054 413.958 265.054 413.282C265.054 412.779 264.889 412.389 264.56 412.112C264.248 411.817 263.832 411.601 263.312 411.462C262.792 411.306 262.211 411.176 261.57 411.072C260.928 410.968 260.287 410.847 259.646 410.708C259.022 410.569 258.45 410.37 257.93 410.11C257.41 409.833 256.985 409.46 256.656 408.992C256.344 408.524 256.188 407.9 256.188 407.12C256.188 406.375 256.396 405.707 256.812 405.118C257.228 404.529 257.834 404.069 258.632 403.74C259.446 403.393 260.434 403.22 261.596 403.22C262.48 403.22 263.364 403.341 264.248 403.584C265.132 403.809 265.86 404.113 266.432 404.494L265.626 405.976C265.019 405.56 264.369 405.265 263.676 405.092C262.982 404.901 262.289 404.806 261.596 404.806C260.365 404.806 259.455 405.023 258.866 405.456C258.294 405.872 258.008 406.409 258.008 407.068C258.008 407.588 258.164 407.995 258.476 408.29C258.805 408.585 259.23 408.819 259.75 408.992C260.287 409.148 260.868 409.278 261.492 409.382C262.133 409.486 262.766 409.616 263.39 409.772C264.031 409.911 264.612 410.11 265.132 410.37C265.669 410.613 266.094 410.968 266.406 411.436C266.735 411.887 266.9 412.485 266.9 413.23C266.9 414.027 266.674 414.721 266.224 415.31C265.79 415.882 265.149 416.333 264.3 416.662C263.468 416.974 262.454 417.13 261.258 417.13ZM270.469 406.054C270.088 406.054 269.758 405.915 269.481 405.638C269.221 405.361 269.091 405.023 269.091 404.624C269.091 404.208 269.221 403.87 269.481 403.61C269.758 403.35 270.088 403.22 270.469 403.22C270.85 403.22 271.171 403.35 271.431 403.61C271.708 403.87 271.847 404.208 271.847 404.624C271.847 405.023 271.708 405.361 271.431 405.638C271.171 405.915 270.85 406.054 270.469 406.054ZM270.469 417.13C270.088 417.13 269.758 416.991 269.481 416.714C269.221 416.437 269.091 416.099 269.091 415.7C269.091 415.284 269.221 414.946 269.481 414.686C269.758 414.426 270.088 414.296 270.469 414.296C270.85 414.296 271.171 414.426 271.431 414.686C271.708 414.946 271.847 415.284 271.847 415.7C271.847 416.099 271.708 416.437 271.431 416.714C271.171 416.991 270.85 417.13 270.469 417.13Z" fill="#776A6A"/>
<path d="M43.964 541V522.8H51.374C53.3153 522.8 55.014 523.19 56.47 523.97C57.9433 524.733 59.0873 525.799 59.902 527.168C60.7167 528.537 61.124 530.115 61.124 531.9C61.124 533.685 60.7167 535.263 59.902 536.632C59.0873 538.001 57.9433 539.076 56.47 539.856C55.014 540.619 53.3153 541 51.374 541H43.964ZM45.888 539.336H51.27C52.882 539.336 54.2773 539.024 55.456 538.4C56.652 537.759 57.5793 536.883 58.238 535.774C58.8967 534.647 59.226 533.356 59.226 531.9C59.226 530.427 58.8967 529.135 58.238 528.026C57.5793 526.917 56.652 526.05 55.456 525.426C54.2773 524.785 52.882 524.464 51.27 524.464H45.888V539.336ZM70.8525 541.13C69.4311 541.13 68.1831 540.835 67.1085 540.246C66.0338 539.639 65.1931 538.816 64.5865 537.776C63.9798 536.719 63.6765 535.514 63.6765 534.162C63.6765 532.81 63.9625 531.614 64.5345 530.574C65.1238 529.534 65.9211 528.719 66.9265 528.13C67.9491 527.523 69.0931 527.22 70.3585 527.22C71.6411 527.22 72.7765 527.515 73.7645 528.104C74.7698 528.676 75.5585 529.491 76.1305 530.548C76.7025 531.588 76.9885 532.793 76.9885 534.162C76.9885 534.249 76.9798 534.344 76.9625 534.448C76.9625 534.535 76.9625 534.63 76.9625 534.734H65.0805V533.356H75.9745L75.2465 533.902C75.2465 532.914 75.0298 532.039 74.5965 531.276C74.1805 530.496 73.6085 529.889 72.8805 529.456C72.1525 529.023 71.3118 528.806 70.3585 528.806C69.4225 528.806 68.5818 529.023 67.8365 529.456C67.0911 529.889 66.5105 530.496 66.0945 531.276C65.6785 532.056 65.4705 532.949 65.4705 533.954V534.24C65.4705 535.28 65.6958 536.199 66.1465 536.996C66.6145 537.776 67.2558 538.391 68.0705 538.842C68.9025 539.275 69.8471 539.492 70.9045 539.492C71.7365 539.492 72.5078 539.345 73.2185 539.05C73.9465 538.755 74.5705 538.305 75.0905 537.698L76.1305 538.894C75.5238 539.622 74.7611 540.177 73.8425 540.558C72.9411 540.939 71.9445 541.13 70.8525 541.13ZM84.4119 541.13C83.2852 541.13 82.2192 540.974 81.2139 540.662C80.2085 540.333 79.4199 539.925 78.8479 539.44L79.6799 537.984C80.2345 538.4 80.9452 538.764 81.8119 539.076C82.6785 539.371 83.5885 539.518 84.5419 539.518C85.8419 539.518 86.7779 539.319 87.3499 538.92C87.9219 538.504 88.2079 537.958 88.2079 537.282C88.2079 536.779 88.0432 536.389 87.7139 536.112C87.4019 535.817 86.9859 535.601 86.4659 535.462C85.9459 535.306 85.3652 535.176 84.7239 535.072C84.0825 534.968 83.4412 534.847 82.7999 534.708C82.1759 534.569 81.6039 534.37 81.0839 534.11C80.5639 533.833 80.1392 533.46 79.8099 532.992C79.4979 532.524 79.3419 531.9 79.3419 531.12C79.3419 530.375 79.5499 529.707 79.9659 529.118C80.3819 528.529 80.9885 528.069 81.7859 527.74C82.6005 527.393 83.5885 527.22 84.7499 527.22C85.6339 527.22 86.5179 527.341 87.4019 527.584C88.2859 527.809 89.0139 528.113 89.5859 528.494L88.7799 529.976C88.1732 529.56 87.5232 529.265 86.8299 529.092C86.1365 528.901 85.4432 528.806 84.7499 528.806C83.5192 528.806 82.6092 529.023 82.0199 529.456C81.4479 529.872 81.1619 530.409 81.1619 531.068C81.1619 531.588 81.3179 531.995 81.6299 532.29C81.9592 532.585 82.3839 532.819 82.9039 532.992C83.4412 533.148 84.0219 533.278 84.6459 533.382C85.2872 533.486 85.9199 533.616 86.5439 533.772C87.1852 533.911 87.7659 534.11 88.2859 534.37C88.8232 534.613 89.2479 534.968 89.5599 535.436C89.8892 535.887 90.0539 536.485 90.0539 537.23C90.0539 538.027 89.8285 538.721 89.3779 539.31C88.9445 539.882 88.3032 540.333 87.4539 540.662C86.6219 540.974 85.6079 541.13 84.4119 541.13ZM99.1092 541.13C97.7572 541.13 96.5439 540.835 95.4692 540.246C94.4119 539.639 93.5799 538.816 92.9732 537.776C92.3665 536.719 92.0632 535.514 92.0632 534.162C92.0632 532.793 92.3665 531.588 92.9732 530.548C93.5799 529.508 94.4119 528.693 95.4692 528.104C96.5439 527.515 97.7572 527.22 99.1092 527.22C100.271 527.22 101.319 527.445 102.255 527.896C103.191 528.347 103.928 529.023 104.465 529.924L103.087 530.86C102.619 530.167 102.039 529.655 101.345 529.326C100.652 528.997 99.8979 528.832 99.0832 528.832C98.1125 528.832 97.2372 529.057 96.4572 529.508C95.6772 529.941 95.0619 530.557 94.6112 531.354C94.1605 532.151 93.9352 533.087 93.9352 534.162C93.9352 535.237 94.1605 536.173 94.6112 536.97C95.0619 537.767 95.6772 538.391 96.4572 538.842C97.2372 539.275 98.1125 539.492 99.0832 539.492C99.8979 539.492 100.652 539.327 101.345 538.998C102.039 538.669 102.619 538.166 103.087 537.49L104.465 538.426C103.928 539.31 103.191 539.986 102.255 540.454C101.319 540.905 100.271 541.13 99.1092 541.13ZM108.092 541V527.35H109.86V531.068L109.678 530.418C110.059 529.378 110.7 528.589 111.602 528.052C112.503 527.497 113.621 527.22 114.956 527.22V529.014C114.886 529.014 114.817 529.014 114.748 529.014C114.678 528.997 114.609 528.988 114.54 528.988C113.101 528.988 111.974 529.43 111.16 530.314C110.345 531.181 109.938 532.42 109.938 534.032V541H108.092ZM118.324 541V527.35H120.17V541H118.324ZM119.26 524.334C118.879 524.334 118.558 524.204 118.298 523.944C118.038 523.684 117.908 523.372 117.908 523.008C117.908 522.644 118.038 522.341 118.298 522.098C118.558 521.838 118.879 521.708 119.26 521.708C119.641 521.708 119.962 521.829 120.222 522.072C120.482 522.315 120.612 522.618 120.612 522.982C120.612 523.363 120.482 523.684 120.222 523.944C119.979 524.204 119.659 524.334 119.26 524.334ZM132.352 541.13C131.174 541.13 130.108 540.861 129.154 540.324C128.201 539.769 127.438 538.981 126.866 537.958C126.312 536.918 126.034 535.653 126.034 534.162C126.034 532.671 126.312 531.415 126.866 530.392C127.421 529.352 128.175 528.563 129.128 528.026C130.082 527.489 131.156 527.22 132.352 527.22C133.652 527.22 134.814 527.515 135.836 528.104C136.876 528.676 137.691 529.491 138.28 530.548C138.87 531.588 139.164 532.793 139.164 534.162C139.164 535.549 138.87 536.762 138.28 537.802C137.691 538.842 136.876 539.657 135.836 540.246C134.814 540.835 133.652 541.13 132.352 541.13ZM125.306 546.044V527.35H127.074V531.458L126.892 534.188L127.152 536.944V546.044H125.306ZM132.222 539.492C133.193 539.492 134.06 539.275 134.822 538.842C135.585 538.391 136.192 537.767 136.642 536.97C137.093 536.155 137.318 535.219 137.318 534.162C137.318 533.105 137.093 532.177 136.642 531.38C136.192 530.583 135.585 529.959 134.822 529.508C134.06 529.057 133.193 528.832 132.222 528.832C131.252 528.832 130.376 529.057 129.596 529.508C128.834 529.959 128.227 530.583 127.776 531.38C127.343 532.177 127.126 533.105 127.126 534.162C127.126 535.219 127.343 536.155 127.776 536.97C128.227 537.767 128.834 538.391 129.596 538.842C130.376 539.275 131.252 539.492 132.222 539.492ZM147.244 541.13C145.961 541.13 144.973 540.783 144.28 540.09C143.586 539.397 143.24 538.417 143.24 537.152V524.334H145.086V537.048C145.086 537.845 145.285 538.461 145.684 538.894C146.1 539.327 146.689 539.544 147.452 539.544C148.266 539.544 148.942 539.31 149.48 538.842L150.13 540.168C149.766 540.497 149.324 540.74 148.804 540.896C148.301 541.052 147.781 541.13 147.244 541.13ZM140.796 528.884V527.35H149.246V528.884H140.796ZM153.49 541V527.35H155.336V541H153.49ZM154.426 524.334C154.045 524.334 153.724 524.204 153.464 523.944C153.204 523.684 153.074 523.372 153.074 523.008C153.074 522.644 153.204 522.341 153.464 522.098C153.724 521.838 154.045 521.708 154.426 521.708C154.807 521.708 155.128 521.829 155.388 522.072C155.648 522.315 155.778 522.618 155.778 522.982C155.778 523.363 155.648 523.684 155.388 523.944C155.145 524.204 154.825 524.334 154.426 524.334ZM166.036 541.13C164.719 541.13 163.532 540.835 162.474 540.246C161.434 539.639 160.611 538.816 160.004 537.776C159.398 536.719 159.094 535.514 159.094 534.162C159.094 532.793 159.398 531.588 160.004 530.548C160.611 529.508 161.434 528.693 162.474 528.104C163.514 527.515 164.702 527.22 166.036 527.22C167.388 527.22 168.584 527.515 169.624 528.104C170.682 528.693 171.505 529.508 172.094 530.548C172.701 531.588 173.004 532.793 173.004 534.162C173.004 535.514 172.701 536.719 172.094 537.776C171.505 538.816 170.682 539.639 169.624 540.246C168.567 540.835 167.371 541.13 166.036 541.13ZM166.036 539.492C167.024 539.492 167.9 539.275 168.662 538.842C169.425 538.391 170.023 537.767 170.456 536.97C170.907 536.155 171.132 535.219 171.132 534.162C171.132 533.087 170.907 532.151 170.456 531.354C170.023 530.557 169.425 529.941 168.662 529.508C167.9 529.057 167.033 528.832 166.062 528.832C165.092 528.832 164.225 529.057 163.462 529.508C162.7 529.941 162.093 530.557 161.642 531.354C161.192 532.151 160.966 533.087 160.966 534.162C160.966 535.219 161.192 536.155 161.642 536.97C162.093 537.767 162.7 538.391 163.462 538.842C164.225 539.275 165.083 539.492 166.036 539.492ZM183.741 527.22C184.851 527.22 185.821 527.437 186.653 527.87C187.503 528.286 188.161 528.927 188.629 529.794C189.115 530.661 189.357 531.753 189.357 533.07V541H187.511V533.252C187.511 531.813 187.147 530.73 186.419 530.002C185.709 529.257 184.703 528.884 183.403 528.884C182.433 528.884 181.583 529.083 180.855 529.482C180.145 529.863 179.59 530.427 179.191 531.172C178.81 531.9 178.619 532.784 178.619 533.824V541H176.773V527.35H178.541V531.094L178.255 530.392C178.689 529.404 179.382 528.633 180.335 528.078C181.289 527.506 182.424 527.22 183.741 527.22ZM194.526 530.054C194.144 530.054 193.815 529.915 193.538 529.638C193.278 529.361 193.148 529.023 193.148 528.624C193.148 528.208 193.278 527.87 193.538 527.61C193.815 527.35 194.144 527.22 194.526 527.22C194.907 527.22 195.228 527.35 195.488 527.61C195.765 527.87 195.904 528.208 195.904 528.624C195.904 529.023 195.765 529.361 195.488 529.638C195.228 529.915 194.907 530.054 194.526 530.054ZM194.526 541.13C194.144 541.13 193.815 540.991 193.538 540.714C193.278 540.437 193.148 540.099 193.148 539.7C193.148 539.284 193.278 538.946 193.538 538.686C193.815 538.426 194.144 538.296 194.526 538.296C194.907 538.296 195.228 538.426 195.488 538.686C195.765 538.946 195.904 539.284 195.904 539.7C195.904 540.099 195.765 540.437 195.488 540.714C195.228 540.991 194.907 541.13 194.526 541.13Z" fill="#776A6A"/>
<g filter="url(#filter0_d_309_923)">
<rect x="46" y="308" width="252" height="49" rx="4" fill="white"/>
<rect x="46.1" y="308.1" width="251.8" height="48.8" rx="3.9" stroke="black" stroke-width="0.2"/>
</g>
<path d="M63.25 340H58.7614V325.455H63.4489C64.8598 325.455 66.0672 325.746 67.071 326.328C68.0748 326.906 68.8442 327.737 69.3793 328.821C69.9143 329.901 70.1818 331.193 70.1818 332.699C70.1818 334.214 69.9119 335.518 69.3722 336.612C68.8324 337.701 68.0464 338.539 67.0142 339.126C65.982 339.709 64.7273 340 63.25 340ZM60.5227 338.438H63.1364C64.339 338.438 65.3357 338.205 66.1264 337.741C66.9171 337.277 67.5066 336.617 67.8949 335.76C68.2831 334.903 68.4773 333.883 68.4773 332.699C68.4773 331.525 68.2855 330.514 67.902 329.666C67.5185 328.814 66.9455 328.161 66.1832 327.706C65.4209 327.247 64.4716 327.017 63.3352 327.017H60.5227V338.438ZM77.625 340H73.1364V325.455H77.8239C79.2348 325.455 80.4422 325.746 81.446 326.328C82.4498 326.906 83.2192 327.737 83.7543 328.821C84.2893 329.901 84.5568 331.193 84.5568 332.699C84.5568 334.214 84.2869 335.518 83.7472 336.612C83.2074 337.701 82.4214 338.539 81.3892 339.126C80.357 339.709 79.1023 340 77.625 340ZM74.8977 338.438H77.5114C78.714 338.438 79.7107 338.205 80.5014 337.741C81.2921 337.277 81.8816 336.617 82.2699 335.76C82.6581 334.903 82.8523 333.883 82.8523 332.699C82.8523 331.525 82.6605 330.514 82.277 329.666C81.8935 328.814 81.3205 328.161 80.5582 327.706C79.7959 327.247 78.8466 327.017 77.7102 327.017H74.8977V338.438ZM93.5341 331.946V333.509H87.1705V331.946H93.5341ZM96.7106 325.455H98.8129L103.756 337.528H103.926L108.87 325.455H110.972V340H109.324V328.949H109.182L104.637 340H103.046L98.5004 328.949H98.3583V340H96.7106V325.455ZM114.504 325.455H116.606L121.549 337.528H121.719L126.663 325.455H128.765V340H127.117V328.949H126.975L122.43 340H120.839L116.293 328.949H116.151V340H114.504V325.455ZM138.319 331.946V333.509H131.956V331.946H138.319ZM138.664 325.455H140.681L144.715 332.244H144.885L148.919 325.455H150.936L145.681 334.006V340H143.919V334.006L138.664 325.455ZM151.964 325.455H153.982L158.016 332.244H158.186L162.22 325.455H164.237L158.982 334.006V340H157.22V334.006L151.964 325.455ZM165.265 325.455H167.282L171.316 332.244H171.487L175.521 325.455H177.538L172.282 334.006V340H170.521V334.006L165.265 325.455ZM178.566 325.455H180.583L184.617 332.244H184.788L188.822 325.455H190.839L185.583 334.006V340H183.822V334.006L178.566 325.455Z" fill="black"/>
<g filter="url(#filter1_d_309_923)">
<rect x="408" y="308" width="252" height="49" rx="4" fill="white"/>
<rect x="408.1" y="308.1" width="251.8" height="48.8" rx="3.9" stroke="black" stroke-width="0.2"/>
</g>
<path d="M425.25 340H420.761V325.455H425.449C426.86 325.455 428.067 325.746 429.071 326.328C430.075 326.906 430.844 327.737 431.379 328.821C431.914 329.901 432.182 331.193 432.182 332.699C432.182 334.214 431.912 335.518 431.372 336.612C430.832 337.701 430.046 338.539 429.014 339.126C427.982 339.709 426.727 340 425.25 340ZM422.523 338.438H425.136C426.339 338.438 427.336 338.205 428.126 337.741C428.917 337.277 429.507 336.617 429.895 335.76C430.283 334.903 430.477 333.883 430.477 332.699C430.477 331.525 430.286 330.514 429.902 329.666C429.518 328.814 428.946 328.161 428.183 327.706C427.421 327.247 426.472 327.017 425.335 327.017H422.523V338.438ZM439.625 340H435.136V325.455H439.824C441.235 325.455 442.442 325.746 443.446 326.328C444.45 326.906 445.219 327.737 445.754 328.821C446.289 329.901 446.557 331.193 446.557 332.699C446.557 334.214 446.287 335.518 445.747 336.612C445.207 337.701 444.421 338.539 443.389 339.126C442.357 339.709 441.102 340 439.625 340ZM436.898 338.438H439.511C440.714 338.438 441.711 338.205 442.501 337.741C443.292 337.277 443.882 336.617 444.27 335.76C444.658 334.903 444.852 333.883 444.852 332.699C444.852 331.525 444.661 330.514 444.277 329.666C443.893 328.814 443.321 328.161 442.558 327.706C441.796 327.247 440.847 327.017 439.71 327.017H436.898V338.438ZM455.534 331.946V333.509H449.17V331.946H455.534ZM458.711 325.455H460.813L465.756 337.528H465.926L470.87 325.455H472.972V340H471.324V328.949H471.182L466.637 340H465.046L460.5 328.949H460.358V340H458.711V325.455ZM476.504 325.455H478.606L483.549 337.528H483.719L488.663 325.455H490.765V340H489.117V328.949H488.975L484.43 340H482.839L478.293 328.949H478.151V340H476.504V325.455ZM500.319 331.946V333.509H493.956V331.946H500.319ZM500.664 325.455H502.681L506.715 332.244H506.885L510.919 325.455H512.936L507.681 334.006V340H505.919V334.006L500.664 325.455ZM513.964 325.455H515.982L520.016 332.244H520.186L524.22 325.455H526.237L520.982 334.006V340H519.22V334.006L513.964 325.455ZM527.265 325.455H529.282L533.316 332.244H533.487L537.521 325.455H539.538L534.282 334.006V340H532.521V334.006L527.265 325.455ZM540.566 325.455H542.583L546.617 332.244H546.788L550.822 325.455H552.839L547.583 334.006V340H545.822V334.006L540.566 325.455Z" fill="black"/>
<path d="M53.982 278.156C52.63 278.156 51.33 277.939 50.082 277.506C48.8513 277.055 47.898 276.483 47.222 275.79L47.976 274.308C48.6173 274.932 49.4753 275.461 50.55 275.894C51.642 276.31 52.786 276.518 53.982 276.518C55.126 276.518 56.0533 276.379 56.764 276.102C57.492 275.807 58.0207 275.417 58.35 274.932C58.6967 274.447 58.87 273.909 58.87 273.32C58.87 272.609 58.662 272.037 58.246 271.604C57.8473 271.171 57.3187 270.833 56.66 270.59C56.0013 270.33 55.2733 270.105 54.476 269.914C53.6787 269.723 52.8813 269.524 52.084 269.316C51.2867 269.091 50.55 268.796 49.874 268.432C49.2153 268.068 48.678 267.591 48.262 267.002C47.8633 266.395 47.664 265.607 47.664 264.636C47.664 263.735 47.898 262.911 48.366 262.166C48.8513 261.403 49.588 260.797 50.576 260.346C51.564 259.878 52.8293 259.644 54.372 259.644C55.3947 259.644 56.4087 259.791 57.414 260.086C58.4193 260.363 59.286 260.753 60.014 261.256L59.364 262.79C58.584 262.27 57.752 261.889 56.868 261.646C56.0013 261.403 55.1607 261.282 54.346 261.282C53.254 261.282 52.3527 261.429 51.642 261.724C50.9313 262.019 50.4027 262.417 50.056 262.92C49.7267 263.405 49.562 263.96 49.562 264.584C49.562 265.295 49.7613 265.867 50.16 266.3C50.576 266.733 51.1133 267.071 51.772 267.314C52.448 267.557 53.1847 267.773 53.982 267.964C54.7793 268.155 55.568 268.363 56.348 268.588C57.1453 268.813 57.8733 269.108 58.532 269.472C59.208 269.819 59.7453 270.287 60.144 270.876C60.56 271.465 60.768 272.237 60.768 273.19C60.768 274.074 60.5253 274.897 60.04 275.66C59.5547 276.405 58.8093 277.012 57.804 277.48C56.816 277.931 55.542 278.156 53.982 278.156ZM68.8861 278.13C67.6034 278.13 66.6154 277.783 65.9221 277.09C65.2288 276.397 64.8821 275.417 64.8821 274.152V261.334H66.7281V274.048C66.7281 274.845 66.9274 275.461 67.3261 275.894C67.7421 276.327 68.3314 276.544 69.0941 276.544C69.9088 276.544 70.5848 276.31 71.1221 275.842L71.7721 277.168C71.4081 277.497 70.9661 277.74 70.4461 277.896C69.9434 278.052 69.4234 278.13 68.8861 278.13ZM62.4381 265.884V264.35H70.8881V265.884H62.4381ZM83.6866 278V274.984L83.6086 274.49V269.446C83.6086 268.285 83.2793 267.392 82.6206 266.768C81.9793 266.144 81.0173 265.832 79.7346 265.832C78.8506 265.832 78.0099 265.979 77.2126 266.274C76.4153 266.569 75.7393 266.959 75.1846 267.444L74.3526 266.066C75.0459 265.477 75.8779 265.026 76.8486 264.714C77.8193 264.385 78.8419 264.22 79.9166 264.22C81.6846 264.22 83.0453 264.662 83.9986 265.546C84.9693 266.413 85.4546 267.739 85.4546 269.524V278H83.6866ZM78.9806 278.13C77.9579 278.13 77.0653 277.965 76.3026 277.636C75.5573 277.289 74.9853 276.821 74.5866 276.232C74.1879 275.625 73.9886 274.932 73.9886 274.152C73.9886 273.441 74.1533 272.8 74.4826 272.228C74.8293 271.639 75.3839 271.171 76.1466 270.824C76.9266 270.46 77.9666 270.278 79.2666 270.278H83.9726V271.656H79.3186C78.0013 271.656 77.0826 271.89 76.5626 272.358C76.0599 272.826 75.8086 273.407 75.8086 274.1C75.8086 274.88 76.1119 275.504 76.7186 275.972C77.3253 276.44 78.1746 276.674 79.2666 276.674C80.3066 276.674 81.1993 276.44 81.9446 275.972C82.7073 275.487 83.2619 274.793 83.6086 273.892L84.0246 275.166C83.6779 276.067 83.0713 276.787 82.2046 277.324C81.3553 277.861 80.2806 278.13 78.9806 278.13ZM90.4685 278V264.35H92.2365V268.068L92.0545 267.418C92.4359 266.378 93.0772 265.589 93.9785 265.052C94.8799 264.497 95.9979 264.22 97.3325 264.22V266.014C97.2632 266.014 97.1939 266.014 97.1245 266.014C97.0552 265.997 96.9859 265.988 96.9165 265.988C95.4779 265.988 94.3512 266.43 93.5365 267.314C92.7219 268.181 92.3145 269.42 92.3145 271.032V278H90.4685ZM105.601 278.13C104.318 278.13 103.33 277.783 102.637 277.09C101.944 276.397 101.597 275.417 101.597 274.152V261.334H103.443V274.048C103.443 274.845 103.642 275.461 104.041 275.894C104.457 276.327 105.046 276.544 105.809 276.544C106.624 276.544 107.3 276.31 107.837 275.842L108.487 277.168C108.123 277.497 107.681 277.74 107.161 277.896C106.658 278.052 106.138 278.13 105.601 278.13ZM99.1529 265.884V264.35H107.603V265.884H99.1529ZM124.086 278.13C122.786 278.13 121.616 277.835 120.576 277.246C119.553 276.657 118.747 275.842 118.158 274.802C117.569 273.745 117.274 272.531 117.274 271.162C117.274 269.775 117.569 268.562 118.158 267.522C118.747 266.482 119.553 265.676 120.576 265.104C121.616 264.515 122.786 264.22 124.086 264.22C125.282 264.22 126.348 264.489 127.284 265.026C128.237 265.563 128.991 266.352 129.546 267.392C130.118 268.415 130.404 269.671 130.404 271.162C130.404 272.635 130.127 273.892 129.572 274.932C129.017 275.972 128.263 276.769 127.31 277.324C126.374 277.861 125.299 278.13 124.086 278.13ZM124.216 276.492C125.187 276.492 126.053 276.275 126.816 275.842C127.596 275.391 128.203 274.767 128.636 273.97C129.087 273.155 129.312 272.219 129.312 271.162C129.312 270.087 129.087 269.151 128.636 268.354C128.203 267.557 127.596 266.941 126.816 266.508C126.053 266.057 125.187 265.832 124.216 265.832C123.263 265.832 122.405 266.057 121.642 266.508C120.879 266.941 120.273 267.557 119.822 268.354C119.371 269.151 119.146 270.087 119.146 271.162C119.146 272.219 119.371 273.155 119.822 273.97C120.273 274.767 120.879 275.391 121.642 275.842C122.405 276.275 123.263 276.492 124.216 276.492ZM129.364 278V273.892L129.546 271.136L129.286 268.38V258.708H131.132V278H129.364ZM144.827 278V274.984L144.749 274.49V269.446C144.749 268.285 144.42 267.392 143.761 266.768C143.12 266.144 142.158 265.832 140.875 265.832C139.991 265.832 139.151 265.979 138.353 266.274C137.556 266.569 136.88 266.959 136.325 267.444L135.493 266.066C136.187 265.477 137.019 265.026 137.989 264.714C138.96 264.385 139.983 264.22 141.057 264.22C142.825 264.22 144.186 264.662 145.139 265.546C146.11 266.413 146.595 267.739 146.595 269.524V278H144.827ZM140.121 278.13C139.099 278.13 138.206 277.965 137.443 277.636C136.698 277.289 136.126 276.821 135.727 276.232C135.329 275.625 135.129 274.932 135.129 274.152C135.129 273.441 135.294 272.8 135.623 272.228C135.97 271.639 136.525 271.171 137.287 270.824C138.067 270.46 139.107 270.278 140.407 270.278H145.113V271.656H140.459C139.142 271.656 138.223 271.89 137.703 272.358C137.201 272.826 136.949 273.407 136.949 274.1C136.949 274.88 137.253 275.504 137.859 275.972C138.466 276.44 139.315 276.674 140.407 276.674C141.447 276.674 142.34 276.44 143.085 275.972C143.848 275.487 144.403 274.793 144.749 273.892L145.165 275.166C144.819 276.067 144.212 276.787 143.345 277.324C142.496 277.861 141.421 278.13 140.121 278.13ZM155.925 278.13C154.642 278.13 153.654 277.783 152.961 277.09C152.268 276.397 151.921 275.417 151.921 274.152V261.334H153.767V274.048C153.767 274.845 153.966 275.461 154.365 275.894C154.781 276.327 155.37 276.544 156.133 276.544C156.948 276.544 157.624 276.31 158.161 275.842L158.811 277.168C158.447 277.497 158.005 277.74 157.485 277.896C156.982 278.052 156.462 278.13 155.925 278.13ZM149.477 265.884V264.35H157.927V265.884H149.477ZM167.487 278.13C166.066 278.13 164.818 277.835 163.743 277.246C162.669 276.639 161.828 275.816 161.221 274.776C160.615 273.719 160.311 272.514 160.311 271.162C160.311 269.81 160.597 268.614 161.169 267.574C161.759 266.534 162.556 265.719 163.561 265.13C164.584 264.523 165.728 264.22 166.993 264.22C168.276 264.22 169.411 264.515 170.399 265.104C171.405 265.676 172.193 266.491 172.765 267.548C173.337 268.588 173.623 269.793 173.623 271.162C173.623 271.249 173.615 271.344 173.597 271.448C173.597 271.535 173.597 271.63 173.597 271.734H161.715V270.356H172.609L171.881 270.902C171.881 269.914 171.665 269.039 171.231 268.276C170.815 267.496 170.243 266.889 169.515 266.456C168.787 266.023 167.947 265.806 166.993 265.806C166.057 265.806 165.217 266.023 164.471 266.456C163.726 266.889 163.145 267.496 162.729 268.276C162.313 269.056 162.105 269.949 162.105 270.954V271.24C162.105 272.28 162.331 273.199 162.781 273.996C163.249 274.776 163.891 275.391 164.705 275.842C165.537 276.275 166.482 276.492 167.539 276.492C168.371 276.492 169.143 276.345 169.853 276.05C170.581 275.755 171.205 275.305 171.725 274.698L172.765 275.894C172.159 276.622 171.396 277.177 170.477 277.558C169.576 277.939 168.579 278.13 167.487 278.13ZM177.563 267.054C177.181 267.054 176.852 266.915 176.575 266.638C176.315 266.361 176.185 266.023 176.185 265.624C176.185 265.208 176.315 264.87 176.575 264.61C176.852 264.35 177.181 264.22 177.563 264.22C177.944 264.22 178.265 264.35 178.525 264.61C178.802 264.87 178.941 265.208 178.941 265.624C178.941 266.023 178.802 266.361 178.525 266.638C178.265 266.915 177.944 267.054 177.563 267.054ZM177.563 278.13C177.181 278.13 176.852 277.991 176.575 277.714C176.315 277.437 176.185 277.099 176.185 276.7C176.185 276.284 176.315 275.946 176.575 275.686C176.852 275.426 177.181 275.296 177.563 275.296C177.944 275.296 178.265 275.426 178.525 275.686C178.802 275.946 178.941 276.284 178.941 276.7C178.941 277.099 178.802 277.437 178.525 277.714C178.265 277.991 177.944 278.13 177.563 278.13Z" fill="#776A6A"/>
<path d="M46.6729 183.017V181.455H57.582V183.017H53.0082V196H51.2468V183.017H46.6729ZM61.799 196.256C61.1077 196.256 60.4804 196.125 59.9169 195.865C59.3535 195.6 58.906 195.219 58.5746 194.722C58.2431 194.22 58.0774 193.614 58.0774 192.903C58.0774 192.278 58.2005 191.772 58.4467 191.384C58.6929 190.991 59.022 190.683 59.4339 190.46C59.8459 190.238 60.3004 190.072 60.7976 189.963C61.2995 189.849 61.8037 189.759 62.3104 189.693C62.9732 189.608 63.5107 189.544 63.9226 189.501C64.3393 189.454 64.6423 189.376 64.8317 189.267C65.0258 189.158 65.1229 188.969 65.1229 188.699V188.642C65.1229 187.941 64.9311 187.397 64.5476 187.009C64.1688 186.62 63.5935 186.426 62.8217 186.426C62.0215 186.426 61.3942 186.601 60.9396 186.952C60.4851 187.302 60.1655 187.676 59.9808 188.074L58.3899 187.506C58.674 186.843 59.0528 186.327 59.5263 185.957C60.0045 185.583 60.5253 185.323 61.0888 185.176C61.657 185.025 62.2157 184.949 62.7649 184.949C63.1153 184.949 63.5178 184.991 63.9723 185.077C64.4316 185.157 64.8743 185.325 65.3004 185.581C65.7313 185.837 66.0888 186.223 66.3729 186.739C66.657 187.255 66.799 187.946 66.799 188.812V196H65.1229V194.523H65.0376C64.924 194.759 64.7346 195.013 64.4695 195.283C64.2043 195.553 63.8516 195.782 63.4112 195.972C62.9709 196.161 62.4335 196.256 61.799 196.256ZM62.0547 194.75C62.7176 194.75 63.2763 194.62 63.7308 194.359C64.1901 194.099 64.5357 193.763 64.7678 193.351C65.0045 192.939 65.1229 192.506 65.1229 192.051V190.517C65.0518 190.602 64.8956 190.68 64.6541 190.751C64.4174 190.818 64.1428 190.877 63.8303 190.929C63.5225 190.976 63.2218 191.019 62.9283 191.057C62.6394 191.09 62.4051 191.118 62.2251 191.142C61.7895 191.199 61.3823 191.291 61.0036 191.419C60.6295 191.542 60.3265 191.729 60.0945 191.98C59.8672 192.226 59.7536 192.562 59.7536 192.989C59.7536 193.571 59.969 194.011 60.3999 194.31C60.8355 194.603 61.3871 194.75 62.0547 194.75ZM77.5856 187.534L76.0799 187.96C75.9852 187.709 75.8455 187.465 75.6609 187.229C75.4809 186.987 75.2347 186.788 74.9222 186.632C74.6097 186.476 74.2096 186.398 73.7219 186.398C73.0543 186.398 72.498 186.552 72.0529 186.859C71.6126 187.162 71.3924 187.548 71.3924 188.017C71.3924 188.434 71.5439 188.763 71.8469 189.004C72.15 189.246 72.6235 189.447 73.2674 189.608L74.8867 190.006C75.8621 190.242 76.5889 190.605 77.0671 191.092C77.5453 191.575 77.7844 192.198 77.7844 192.96C77.7844 193.585 77.6045 194.144 77.2447 194.636C76.8896 195.129 76.3924 195.517 75.7532 195.801C75.114 196.085 74.3706 196.227 73.5231 196.227C72.4104 196.227 71.4895 195.986 70.7603 195.503C70.0311 195.02 69.5695 194.314 69.3754 193.386L70.9663 192.989C71.1178 193.576 71.4042 194.016 71.8256 194.31C72.2518 194.603 72.8081 194.75 73.4947 194.75C74.2759 194.75 74.8962 194.584 75.3555 194.253C75.8195 193.917 76.0515 193.514 76.0515 193.045C76.0515 192.667 75.9189 192.349 75.6538 192.094C75.3886 191.833 74.9814 191.639 74.4322 191.511L72.614 191.085C71.6149 190.848 70.881 190.482 70.4123 189.984C69.9483 189.482 69.7163 188.855 69.7163 188.102C69.7163 187.487 69.8891 186.942 70.2347 186.469C70.5851 185.995 71.061 185.624 71.6623 185.354C72.2683 185.084 72.9549 184.949 73.7219 184.949C74.8015 184.949 75.649 185.186 76.2646 185.659C76.8848 186.133 77.3252 186.758 77.5856 187.534ZM81.87 192.023L81.8416 189.949H82.1825L86.9553 185.091H89.0291L83.9439 190.233H83.8018L81.87 192.023ZM80.3075 196V181.455H81.9837V196H80.3075ZM87.2393 196L82.978 190.602L84.1712 189.438L89.37 196H87.2393ZM98.4876 189.438V196H96.8114V185.091H98.4308V186.795H98.5728C98.8285 186.241 99.2167 185.796 99.7376 185.46C100.258 185.119 100.931 184.949 101.755 184.949C102.493 184.949 103.14 185.1 103.694 185.403C104.248 185.702 104.678 186.156 104.986 186.767C105.294 187.373 105.448 188.14 105.448 189.068V196H103.772V189.182C103.772 188.325 103.549 187.657 103.104 187.179C102.659 186.696 102.048 186.455 101.272 186.455C100.737 186.455 100.258 186.571 99.837 186.803C99.4203 187.035 99.0913 187.373 98.8498 187.818C98.6083 188.263 98.4876 188.803 98.4876 189.438ZM111.721 196.256C111.03 196.256 110.402 196.125 109.839 195.865C109.275 195.6 108.828 195.219 108.496 194.722C108.165 194.22 107.999 193.614 107.999 192.903C107.999 192.278 108.122 191.772 108.369 191.384C108.615 190.991 108.944 190.683 109.356 190.46C109.768 190.238 110.222 190.072 110.719 189.963C111.221 189.849 111.726 189.759 112.232 189.693C112.895 189.608 113.433 189.544 113.844 189.501C114.261 189.454 114.564 189.376 114.754 189.267C114.948 189.158 115.045 188.969 115.045 188.699V188.642C115.045 187.941 114.853 187.397 114.469 187.009C114.091 186.62 113.515 186.426 112.744 186.426C111.943 186.426 111.316 186.601 110.862 186.952C110.407 187.302 110.087 187.676 109.903 188.074L108.312 187.506C108.596 186.843 108.975 186.327 109.448 185.957C109.926 185.583 110.447 185.323 111.011 185.176C111.579 185.025 112.138 184.949 112.687 184.949C113.037 184.949 113.44 184.991 113.894 185.077C114.353 185.157 114.796 185.325 115.222 185.581C115.653 185.837 116.011 186.223 116.295 186.739C116.579 187.255 116.721 187.946 116.721 188.812V196H115.045V194.523H114.96C114.846 194.759 114.656 195.013 114.391 195.283C114.126 195.553 113.773 195.782 113.333 195.972C112.893 196.161 112.355 196.256 111.721 196.256ZM111.977 194.75C112.639 194.75 113.198 194.62 113.653 194.359C114.112 194.099 114.458 193.763 114.69 193.351C114.926 192.939 115.045 192.506 115.045 192.051V190.517C114.974 190.602 114.817 190.68 114.576 190.751C114.339 190.818 114.065 190.877 113.752 190.929C113.444 190.976 113.144 191.019 112.85 191.057C112.561 191.09 112.327 191.118 112.147 191.142C111.711 191.199 111.304 191.291 110.925 191.419C110.551 191.542 110.248 191.729 110.016 191.98C109.789 192.226 109.675 192.562 109.675 192.989C109.675 193.571 109.891 194.011 110.322 194.31C110.757 194.603 111.309 194.75 111.977 194.75ZM119.78 196V185.091H121.4V186.795H121.542C121.769 186.213 122.136 185.761 122.642 185.439C123.149 185.112 123.757 184.949 124.468 184.949C125.187 184.949 125.786 185.112 126.265 185.439C126.748 185.761 127.124 186.213 127.394 186.795H127.507C127.787 186.232 128.206 185.785 128.765 185.453C129.323 185.117 129.993 184.949 130.775 184.949C131.75 184.949 132.548 185.254 133.168 185.865C133.788 186.471 134.098 187.416 134.098 188.699V196H132.422V188.699C132.422 187.894 132.202 187.319 131.762 186.973C131.321 186.627 130.803 186.455 130.206 186.455C129.439 186.455 128.845 186.687 128.424 187.151C128.002 187.61 127.792 188.192 127.792 188.898V196H126.087V188.528C126.087 187.908 125.886 187.409 125.483 187.03C125.081 186.646 124.562 186.455 123.928 186.455C123.492 186.455 123.085 186.571 122.706 186.803C122.332 187.035 122.029 187.357 121.797 187.768C121.57 188.176 121.456 188.647 121.456 189.182V196H119.78ZM141.737 196.227C140.686 196.227 139.779 195.995 139.017 195.531C138.259 195.062 137.674 194.409 137.262 193.571C136.855 192.728 136.652 191.748 136.652 190.631C136.652 189.513 136.855 188.528 137.262 187.676C137.674 186.819 138.247 186.152 138.981 185.673C139.72 185.19 140.582 184.949 141.566 184.949C142.135 184.949 142.696 185.044 143.25 185.233C143.804 185.422 144.308 185.73 144.762 186.156C145.217 186.578 145.579 187.136 145.849 187.832C146.119 188.528 146.254 189.385 146.254 190.403V191.114H137.845V189.665H144.549C144.549 189.049 144.426 188.5 144.18 188.017C143.939 187.534 143.593 187.153 143.143 186.874C142.698 186.594 142.172 186.455 141.566 186.455C140.899 186.455 140.321 186.62 139.833 186.952C139.35 187.278 138.979 187.705 138.718 188.23C138.458 188.756 138.328 189.319 138.328 189.92V190.886C138.328 191.71 138.47 192.409 138.754 192.982C139.043 193.55 139.443 193.983 139.954 194.281C140.466 194.575 141.06 194.722 141.737 194.722C142.177 194.722 142.575 194.66 142.93 194.537C143.29 194.409 143.6 194.22 143.86 193.969C144.121 193.713 144.322 193.396 144.464 193.017L146.083 193.472C145.913 194.021 145.627 194.504 145.224 194.92C144.822 195.332 144.324 195.654 143.733 195.886C143.141 196.114 142.475 196.227 141.737 196.227Z" fill="#050505"/>
<line x1="41" y1="208.75" x2="367" y2="208.75" stroke="url(#paint0_linear_309_923)" stroke-width="2.5"/>
<g clip-path="url(#clip0_309_923)">
<path d="M641 323.25H637.75V321.75C637.75 321.551 637.671 321.36 637.531 321.22C637.39 321.079 637.199 321 637 321C636.802 320.999 636.611 321.078 636.47 321.219C636.329 321.359 636.25 321.55 636.25 321.749V323.25H631.75V321.75C631.75 321.652 631.731 321.554 631.693 321.463C631.655 321.372 631.6 321.289 631.531 321.22C631.461 321.15 631.378 321.095 631.287 321.057C631.197 321.019 631.099 321 631 321C630.802 320.999 630.611 321.078 630.47 321.219C630.329 321.359 630.25 321.55 630.25 321.749V323.25H625.75V321.75C625.75 321.652 625.731 321.554 625.693 321.463C625.655 321.372 625.6 321.289 625.531 321.22C625.461 321.15 625.378 321.095 625.287 321.057C625.197 321.019 625.099 321 625.001 321C624.802 320.999 624.611 321.078 624.47 321.219C624.329 321.359 624.25 321.55 624.25 321.749V323.25H621C620.47 323.25 619.961 323.461 619.586 323.835C619.211 324.21 619 324.719 619 325.249V342.999C619 343.529 619.211 344.038 619.586 344.413C619.961 344.788 620.47 344.999 621 344.999H641C641.53 344.999 642.039 344.788 642.414 344.413C642.789 344.038 643 343.529 643 342.999V325.249C643 324.719 642.789 324.21 642.414 323.835C642.039 323.461 641.53 323.25 641 323.25ZM641.5 343C641.5 343.132 641.447 343.259 641.354 343.353C641.26 343.447 641.133 343.5 641.001 343.5H621C620.867 343.5 620.74 343.447 620.646 343.354C620.553 343.26 620.5 343.133 620.5 343V325.25C620.5 325.118 620.553 324.991 620.647 324.897C620.741 324.804 620.868 324.751 621 324.751H624.25V326.251C624.25 326.45 624.329 326.641 624.469 326.781C624.61 326.922 624.801 327.001 624.999 327.002C625.198 327.002 625.389 326.923 625.53 326.782C625.671 326.642 625.75 326.451 625.75 326.252V324.751H630.25V326.251C630.25 326.45 630.329 326.641 630.469 326.781C630.61 326.922 630.801 327.001 631 327.002C631.198 327.002 631.389 326.923 631.53 326.782C631.671 326.642 631.75 326.451 631.75 326.252V324.751H636.25V326.251C636.25 326.45 636.329 326.641 636.469 326.781C636.61 326.922 636.801 327.001 637 327.002C637.198 327.002 637.389 326.923 637.53 326.782C637.671 326.642 637.75 326.451 637.75 326.252V324.751H641C641.132 324.751 641.259 324.804 641.353 324.897C641.446 324.991 641.499 325.118 641.499 325.25L641.5 343Z" fill="black"/>
<path d="M624.25 330H627.25V332.25H624.25V330ZM624.25 333.75H627.25V336H624.25V333.75ZM624.25 337.5H627.25V339.75H624.25V337.5ZM629.5 337.5H632.5V339.75H629.5V337.5ZM629.5 333.75H632.5V336H629.5V333.75ZM629.5 330H632.5V332.25H629.5V330ZM634.75 337.5H637.75V339.75H634.75V337.5ZM634.75 333.75H637.75V336H634.75V333.75ZM634.75 330H637.75V332.25H634.75V330Z" fill="black"/>
</g>
<g clip-path="url(#clip1_309_923)">
<path d="M285 323.25H281.75V321.75C281.75 321.551 281.671 321.36 281.531 321.22C281.39 321.079 281.199 321 281 321C280.802 320.999 280.611 321.078 280.47 321.219C280.329 321.359 280.25 321.55 280.25 321.749V323.25H275.75V321.75C275.75 321.652 275.731 321.554 275.693 321.463C275.655 321.372 275.6 321.289 275.531 321.22C275.461 321.15 275.378 321.095 275.287 321.057C275.197 321.019 275.099 321 275 321C274.802 320.999 274.611 321.078 274.47 321.219C274.329 321.359 274.25 321.55 274.25 321.749V323.25H269.75V321.75C269.75 321.652 269.731 321.554 269.693 321.463C269.655 321.372 269.6 321.289 269.531 321.22C269.461 321.15 269.378 321.095 269.287 321.057C269.197 321.019 269.099 321 269.001 321C268.802 320.999 268.611 321.078 268.47 321.219C268.329 321.359 268.25 321.55 268.25 321.749V323.25H265C264.47 323.25 263.961 323.461 263.586 323.835C263.211 324.21 263 324.719 263 325.249V342.999C263 343.529 263.211 344.038 263.586 344.413C263.961 344.788 264.47 344.999 265 344.999H285C285.53 344.999 286.039 344.788 286.414 344.413C286.789 344.038 287 343.529 287 342.999V325.249C287 324.719 286.789 324.21 286.414 323.835C286.039 323.461 285.53 323.25 285 323.25ZM285.5 343C285.5 343.132 285.447 343.259 285.354 343.353C285.26 343.447 285.133 343.5 285.001 343.5H265C264.867 343.5 264.74 343.447 264.646 343.354C264.553 343.26 264.5 343.133 264.5 343V325.25C264.5 325.118 264.553 324.991 264.647 324.897C264.741 324.804 264.868 324.751 265 324.751H268.25V326.251C268.25 326.45 268.329 326.641 268.469 326.781C268.61 326.922 268.801 327.001 268.999 327.002C269.198 327.002 269.389 326.923 269.53 326.782C269.671 326.642 269.75 326.451 269.75 326.252V324.751H274.25V326.251C274.25 326.45 274.329 326.641 274.469 326.781C274.61 326.922 274.801 327.001 275 327.002C275.198 327.002 275.389 326.923 275.53 326.782C275.671 326.642 275.75 326.451 275.75 326.252V324.751H280.25V326.251C280.25 326.45 280.329 326.641 280.469 326.781C280.61 326.922 280.801 327.001 281 327.002C281.198 327.002 281.389 326.923 281.53 326.782C281.671 326.642 281.75 326.451 281.75 326.252V324.751H285C285.132 324.751 285.259 324.804 285.353 324.897C285.446 324.991 285.499 325.118 285.499 325.25L285.5 343Z" fill="black"/>
<path d="M268.25 330H271.25V332.25H268.25V330ZM268.25 333.75H271.25V336H268.25V333.75ZM268.25 337.5H271.25V339.75H268.25V337.5ZM273.5 337.5H276.5V339.75H273.5V337.5ZM273.5 333.75H276.5V336H273.5V333.75ZM273.5 330H276.5V332.25H273.5V330ZM278.75 337.5H281.75V339.75H278.75V337.5ZM278.75 333.75H281.75V336H278.75V333.75ZM278.75 330H281.75V332.25H278.75V330Z" fill="black"/>
</g>
<circle cx="58" cy="464" r="17" fill="url(#paint1_linear_309_923)"/>
<circle cx="58" cy="464" r="17" fill="#28B4E1"/>
<path d="M65 464.998H59V470.998H57V464.998H51V462.998H57V456.998H59V462.998H65V464.998Z" fill="black"/>
<g filter="url(#filter2_d_309_923)">
<g filter="url(#filter3_d_309_923)">
<rect x="227.5" y="844.5" width="193" height="59" rx="16.5" stroke="#28B4E1" shape-rendering="crispEdges"/>
</g>
<path d="M300.159 870H298.045C297.92 869.392 297.702 868.858 297.389 868.398C297.082 867.938 296.707 867.551 296.264 867.239C295.827 866.92 295.341 866.682 294.807 866.523C294.273 866.364 293.716 866.284 293.136 866.284C292.08 866.284 291.122 866.551 290.264 867.085C289.412 867.619 288.733 868.406 288.227 869.446C287.727 870.486 287.477 871.761 287.477 873.273C287.477 874.784 287.727 876.06 288.227 877.099C288.733 878.139 289.412 878.926 290.264 879.46C291.122 879.994 292.08 880.261 293.136 880.261C293.716 880.261 294.273 880.182 294.807 880.023C295.341 879.864 295.827 879.628 296.264 879.315C296.707 878.997 297.082 878.608 297.389 878.148C297.702 877.682 297.92 877.148 298.045 876.545H300.159C300 877.437 299.71 878.236 299.29 878.94C298.869 879.645 298.347 880.244 297.722 880.739C297.097 881.227 296.395 881.599 295.616 881.855C294.844 882.111 294.017 882.239 293.136 882.239C291.648 882.239 290.324 881.875 289.165 881.148C288.006 880.42 287.094 879.386 286.429 878.045C285.764 876.705 285.432 875.114 285.432 873.273C285.432 871.432 285.764 869.841 286.429 868.5C287.094 867.159 288.006 866.125 289.165 865.398C290.324 864.67 291.648 864.307 293.136 864.307C294.017 864.307 294.844 864.435 295.616 864.69C296.395 864.946 297.097 865.321 297.722 865.815C298.347 866.304 298.869 866.901 299.29 867.605C299.71 868.304 300 869.102 300.159 870ZM307.154 882.307C306.325 882.307 305.572 882.151 304.896 881.838C304.219 881.52 303.683 881.062 303.285 880.466C302.887 879.864 302.688 879.136 302.688 878.284C302.688 877.534 302.836 876.926 303.131 876.46C303.427 875.989 303.822 875.619 304.316 875.352C304.81 875.085 305.356 874.886 305.952 874.756C306.555 874.619 307.16 874.511 307.768 874.432C308.563 874.33 309.208 874.253 309.702 874.202C310.202 874.145 310.566 874.051 310.793 873.92C311.026 873.79 311.143 873.562 311.143 873.239V873.17C311.143 872.33 310.913 871.676 310.452 871.21C309.998 870.744 309.308 870.511 308.381 870.511C307.421 870.511 306.668 870.722 306.123 871.142C305.577 871.562 305.194 872.011 304.972 872.489L303.063 871.807C303.404 871.011 303.859 870.392 304.427 869.949C305.001 869.5 305.626 869.187 306.302 869.011C306.984 868.83 307.654 868.739 308.313 868.739C308.734 868.739 309.217 868.79 309.762 868.892C310.313 868.989 310.844 869.19 311.356 869.497C311.873 869.804 312.302 870.267 312.643 870.886C312.984 871.506 313.154 872.335 313.154 873.375V882H311.143V880.227H311.04C310.904 880.511 310.677 880.815 310.359 881.139C310.04 881.463 309.617 881.739 309.089 881.966C308.56 882.193 307.915 882.307 307.154 882.307ZM307.461 880.5C308.256 880.5 308.927 880.344 309.472 880.031C310.023 879.719 310.438 879.315 310.717 878.821C311.001 878.327 311.143 877.807 311.143 877.261V875.42C311.058 875.523 310.87 875.616 310.58 875.702C310.296 875.781 309.967 875.852 309.592 875.915C309.222 875.972 308.862 876.023 308.509 876.068C308.163 876.108 307.881 876.142 307.665 876.17C307.143 876.239 306.654 876.349 306.2 876.503C305.751 876.651 305.387 876.875 305.109 877.176C304.836 877.472 304.7 877.875 304.7 878.386C304.7 879.085 304.958 879.614 305.475 879.972C305.998 880.324 306.66 880.5 307.461 880.5ZM318.837 874.125V882H316.825V868.909H318.768V870.955H318.939C319.246 870.29 319.712 869.756 320.337 869.352C320.962 868.943 321.768 868.739 322.757 868.739C323.643 868.739 324.419 868.92 325.084 869.284C325.749 869.642 326.266 870.188 326.635 870.92C327.004 871.648 327.189 872.568 327.189 873.682V882H325.178V873.818C325.178 872.79 324.911 871.989 324.376 871.415C323.842 870.835 323.109 870.545 322.178 870.545C321.536 870.545 320.962 870.685 320.456 870.963C319.956 871.241 319.561 871.648 319.271 872.182C318.982 872.716 318.837 873.364 318.837 874.125ZM336.183 882.273C334.955 882.273 333.898 881.983 333.012 881.403C332.126 880.824 331.444 880.026 330.967 879.009C330.489 877.991 330.251 876.83 330.251 875.523C330.251 874.193 330.495 873.02 330.984 872.003C331.478 870.98 332.165 870.182 333.046 869.608C333.933 869.028 334.967 868.739 336.148 868.739C337.069 868.739 337.898 868.909 338.637 869.25C339.376 869.591 339.981 870.068 340.452 870.682C340.924 871.295 341.217 872.011 341.33 872.83H339.319C339.165 872.233 338.825 871.705 338.296 871.244C337.773 870.778 337.069 870.545 336.183 870.545C335.398 870.545 334.711 870.75 334.12 871.159C333.535 871.562 333.077 872.134 332.748 872.872C332.424 873.605 332.262 874.466 332.262 875.455C332.262 876.466 332.421 877.347 332.739 878.097C333.063 878.847 333.518 879.429 334.103 879.844C334.694 880.259 335.387 880.466 336.183 880.466C336.705 880.466 337.18 880.375 337.606 880.193C338.032 880.011 338.393 879.75 338.688 879.409C338.984 879.068 339.194 878.659 339.319 878.182H341.33C341.217 878.955 340.935 879.651 340.487 880.27C340.043 880.884 339.455 881.372 338.722 881.736C337.995 882.094 337.148 882.273 336.183 882.273ZM349.759 882.273C348.498 882.273 347.41 881.994 346.495 881.438C345.586 880.875 344.884 880.091 344.39 879.085C343.901 878.074 343.657 876.898 343.657 875.557C343.657 874.216 343.901 873.034 344.39 872.011C344.884 870.983 345.572 870.182 346.452 869.608C347.339 869.028 348.373 868.739 349.555 868.739C350.237 868.739 350.91 868.852 351.575 869.08C352.239 869.307 352.844 869.676 353.39 870.188C353.935 870.693 354.37 871.364 354.694 872.199C355.018 873.034 355.18 874.062 355.18 875.284V876.136H345.089V874.398H353.134C353.134 873.659 352.987 873 352.691 872.42C352.401 871.841 351.987 871.384 351.447 871.048C350.913 870.713 350.282 870.545 349.555 870.545C348.754 870.545 348.06 870.744 347.475 871.142C346.896 871.534 346.45 872.045 346.137 872.676C345.825 873.307 345.668 873.983 345.668 874.705V875.864C345.668 876.852 345.839 877.69 346.18 878.378C346.526 879.06 347.006 879.58 347.62 879.938C348.234 880.29 348.947 880.466 349.759 880.466C350.288 880.466 350.765 880.392 351.191 880.244C351.623 880.091 351.995 879.864 352.308 879.562C352.62 879.256 352.862 878.875 353.032 878.42L354.975 878.966C354.771 879.625 354.427 880.205 353.944 880.705C353.461 881.199 352.864 881.585 352.154 881.864C351.444 882.136 350.646 882.273 349.759 882.273ZM360.251 864.545V882H358.239V864.545H360.251Z" fill="#28B4E1"/>
</g>
<g filter="url(#filter4_d_309_923)">
<rect x="466" y="844" width="194" height="60" rx="17" fill="#28B4E1"/>
<rect x="466.5" y="844.5" width="193" height="59" rx="16.5" stroke="#CCCCCC"/>
</g>
<path d="M540.159 870H538.045C537.92 869.392 537.702 868.858 537.389 868.398C537.082 867.938 536.707 867.551 536.264 867.239C535.827 866.92 535.341 866.682 534.807 866.523C534.273 866.364 533.716 866.284 533.136 866.284C532.08 866.284 531.122 866.551 530.264 867.085C529.412 867.619 528.733 868.406 528.227 869.446C527.727 870.486 527.477 871.761 527.477 873.273C527.477 874.784 527.727 876.06 528.227 877.099C528.733 878.139 529.412 878.926 530.264 879.46C531.122 879.994 532.08 880.261 533.136 880.261C533.716 880.261 534.273 880.182 534.807 880.023C535.341 879.864 535.827 879.628 536.264 879.315C536.707 878.997 537.082 878.608 537.389 878.148C537.702 877.682 537.92 877.148 538.045 876.545H540.159C540 877.437 539.71 878.236 539.29 878.94C538.869 879.645 538.347 880.244 537.722 880.739C537.097 881.227 536.395 881.599 535.616 881.855C534.844 882.111 534.017 882.239 533.136 882.239C531.648 882.239 530.324 881.875 529.165 881.148C528.006 880.42 527.094 879.386 526.429 878.045C525.764 876.705 525.432 875.114 525.432 873.273C525.432 871.432 525.764 869.841 526.429 868.5C527.094 867.159 528.006 866.125 529.165 865.398C530.324 864.67 531.648 864.307 533.136 864.307C534.017 864.307 534.844 864.435 535.616 864.69C536.395 864.946 537.097 865.321 537.722 865.815C538.347 866.304 538.869 866.901 539.29 867.605C539.71 868.304 540 869.102 540.159 870ZM543.302 882V868.909H545.245V870.886H545.381C545.62 870.239 546.052 869.713 546.677 869.31C547.302 868.906 548.006 868.705 548.79 868.705C548.938 868.705 549.123 868.707 549.344 868.713C549.566 868.719 549.734 868.727 549.847 868.739V870.784C549.779 870.767 549.623 870.741 549.379 870.707C549.14 870.668 548.887 870.648 548.62 870.648C547.984 870.648 547.415 870.781 546.915 871.048C546.421 871.31 546.029 871.673 545.739 872.139C545.455 872.599 545.313 873.125 545.313 873.716V882H543.302ZM557.322 882.273C556.06 882.273 554.972 881.994 554.058 881.438C553.148 880.875 552.447 880.091 551.952 879.085C551.464 878.074 551.219 876.898 551.219 875.557C551.219 874.216 551.464 873.034 551.952 872.011C552.447 870.983 553.134 870.182 554.015 869.608C554.901 869.028 555.935 868.739 557.117 868.739C557.799 868.739 558.472 868.852 559.137 869.08C559.802 869.307 560.407 869.676 560.952 870.188C561.498 870.693 561.933 871.364 562.256 872.199C562.58 873.034 562.742 874.062 562.742 875.284V876.136H552.651V874.398H560.697C560.697 873.659 560.549 873 560.254 872.42C559.964 871.841 559.549 871.384 559.009 871.048C558.475 870.713 557.844 870.545 557.117 870.545C556.316 870.545 555.623 870.744 555.038 871.142C554.458 871.534 554.012 872.045 553.7 872.676C553.387 873.307 553.231 873.983 553.231 874.705V875.864C553.231 876.852 553.401 877.69 553.742 878.378C554.089 879.06 554.569 879.58 555.183 879.938C555.796 880.29 556.509 880.466 557.322 880.466C557.85 880.466 558.327 880.392 558.754 880.244C559.185 880.091 559.558 879.864 559.87 879.562C560.183 879.256 560.424 878.875 560.594 878.42L562.538 878.966C562.333 879.625 561.989 880.205 561.506 880.705C561.023 881.199 560.427 881.585 559.717 881.864C559.006 882.136 558.208 882.273 557.322 882.273ZM569.654 882.307C568.825 882.307 568.072 882.151 567.396 881.838C566.719 881.52 566.183 881.062 565.785 880.466C565.387 879.864 565.188 879.136 565.188 878.284C565.188 877.534 565.336 876.926 565.631 876.46C565.927 875.989 566.322 875.619 566.816 875.352C567.31 875.085 567.856 874.886 568.452 874.756C569.055 874.619 569.66 874.511 570.268 874.432C571.063 874.33 571.708 874.253 572.202 874.202C572.702 874.145 573.066 874.051 573.293 873.92C573.526 873.79 573.643 873.562 573.643 873.239V873.17C573.643 872.33 573.413 871.676 572.952 871.21C572.498 870.744 571.808 870.511 570.881 870.511C569.921 870.511 569.168 870.722 568.623 871.142C568.077 871.562 567.694 872.011 567.472 872.489L565.563 871.807C565.904 871.011 566.359 870.392 566.927 869.949C567.501 869.5 568.126 869.187 568.802 869.011C569.484 868.83 570.154 868.739 570.813 868.739C571.234 868.739 571.717 868.79 572.262 868.892C572.813 868.989 573.344 869.19 573.856 869.497C574.373 869.804 574.802 870.267 575.143 870.886C575.484 871.506 575.654 872.335 575.654 873.375V882H573.643V880.227H573.54C573.404 880.511 573.177 880.815 572.859 881.139C572.54 881.463 572.117 881.739 571.589 881.966C571.06 882.193 570.415 882.307 569.654 882.307ZM569.961 880.5C570.756 880.5 571.427 880.344 571.972 880.031C572.523 879.719 572.938 879.315 573.217 878.821C573.501 878.327 573.643 877.807 573.643 877.261V875.42C573.558 875.523 573.37 875.616 573.08 875.702C572.796 875.781 572.467 875.852 572.092 875.915C571.722 875.972 571.362 876.023 571.009 876.068C570.663 876.108 570.381 876.142 570.165 876.17C569.643 876.239 569.154 876.349 568.7 876.503C568.251 876.651 567.887 876.875 567.609 877.176C567.336 877.472 567.2 877.875 567.2 878.386C567.2 879.085 567.458 879.614 567.975 879.972C568.498 880.324 569.16 880.5 569.961 880.5ZM585.018 868.909V870.614H578.234V868.909H585.018ZM580.212 865.773H582.223V878.25C582.223 878.818 582.305 879.244 582.47 879.528C582.641 879.807 582.857 879.994 583.118 880.091C583.385 880.182 583.666 880.227 583.962 880.227C584.183 880.227 584.365 880.216 584.507 880.193C584.649 880.165 584.763 880.142 584.848 880.125L585.257 881.932C585.121 881.983 584.93 882.034 584.686 882.085C584.442 882.142 584.132 882.17 583.757 882.17C583.189 882.17 582.632 882.048 582.087 881.804C581.547 881.56 581.098 881.188 580.74 880.688C580.388 880.188 580.212 879.557 580.212 878.795V865.773ZM593.392 882.273C592.131 882.273 591.043 881.994 590.128 881.438C589.219 880.875 588.517 880.091 588.023 879.085C587.534 878.074 587.29 876.898 587.29 875.557C587.29 874.216 587.534 873.034 588.023 872.011C588.517 870.983 589.205 870.182 590.085 869.608C590.972 869.028 592.006 868.739 593.188 868.739C593.869 868.739 594.543 868.852 595.207 869.08C595.872 869.307 596.477 869.676 597.023 870.188C597.568 870.693 598.003 871.364 598.327 872.199C598.651 873.034 598.812 874.062 598.812 875.284V876.136H588.722V874.398H596.767C596.767 873.659 596.619 873 596.324 872.42C596.034 871.841 595.619 871.384 595.08 871.048C594.545 870.713 593.915 870.545 593.188 870.545C592.386 870.545 591.693 870.744 591.108 871.142C590.528 871.534 590.082 872.045 589.77 872.676C589.457 873.307 589.301 873.983 589.301 874.705V875.864C589.301 876.852 589.472 877.69 589.812 878.378C590.159 879.06 590.639 879.58 591.253 879.938C591.866 880.29 592.58 880.466 593.392 880.466C593.92 880.466 594.398 880.392 594.824 880.244C595.256 880.091 595.628 879.864 595.94 879.562C596.253 879.256 596.494 878.875 596.665 878.42L598.608 878.966C598.403 879.625 598.06 880.205 597.577 880.705C597.094 881.199 596.497 881.585 595.787 881.864C595.077 882.136 594.278 882.273 593.392 882.273Z" fill="white"/>
<rect x="47.5" y="573.5" width="611" height="234" rx="15.5" stroke="#28B4E1" stroke-width="3"/>
<rect width="702" height="80" fill="url(#paint2_linear_309_923)"/>
<path d="M678.494 43.0697C678.816 43.3916 678.997 43.8282 678.997 44.2835C678.997 44.7387 678.816 45.1753 678.494 45.4972C678.172 45.8192 677.736 46 677.281 46C676.825 46 676.389 45.8192 676.067 45.4972L667 36.4283L657.93 45.4944C657.609 45.8163 657.172 45.9971 656.717 45.9971C656.261 45.9971 655.825 45.8163 655.503 45.4944C655.181 45.1725 655 44.7359 655 44.2806C655 43.8254 655.181 43.3888 655.503 43.0669L664.572 34.0007L655.506 24.9317C655.184 24.6098 655.003 24.1732 655.003 23.718C655.003 23.2627 655.184 22.8261 655.506 22.5042C655.828 22.1823 656.264 22.0014 656.719 22.0014C657.175 22.0014 657.611 22.1823 657.933 22.5042L667 31.5732L676.07 22.5028C676.391 22.1808 676.828 22 677.283 22C677.739 22 678.175 22.1808 678.497 22.5028C678.819 22.8247 679 23.2613 679 23.7165C679 24.1718 678.819 24.6084 678.497 24.9303L669.428 34.0007L678.494 43.0697Z" fill="#181C7A"/>
<path d="M48.676 56L59.908 30.8H65.668L76.936 56H70.816L61.6 33.752H63.904L54.652 56H48.676ZM54.292 50.6L55.84 46.172H68.8L70.384 50.6H54.292ZM87.2947 56.288C85.4707 56.288 83.8267 55.88 82.3627 55.064C80.8987 54.224 79.7347 53.06 78.8707 51.572C78.0307 50.084 77.6107 48.332 77.6107 46.316C77.6107 44.276 78.0307 42.512 78.8707 41.024C79.7347 39.536 80.8987 38.384 82.3627 37.568C83.8267 36.752 85.4707 36.344 87.2947 36.344C88.9267 36.344 90.3547 36.704 91.5787 37.424C92.8027 38.144 93.7507 39.236 94.4227 40.7C95.0947 42.164 95.4307 44.036 95.4307 46.316C95.4307 48.572 95.1067 50.444 94.4587 51.932C93.8107 53.396 92.8747 54.488 91.6507 55.208C90.4507 55.928 88.9987 56.288 87.2947 56.288ZM88.2667 51.68C89.1787 51.68 90.0067 51.464 90.7507 51.032C91.4947 50.6 92.0827 49.988 92.5147 49.196C92.9707 48.38 93.1987 47.42 93.1987 46.316C93.1987 45.188 92.9707 44.228 92.5147 43.436C92.0827 42.644 91.4947 42.032 90.7507 41.6C90.0067 41.168 89.1787 40.952 88.2667 40.952C87.3307 40.952 86.4907 41.168 85.7467 41.6C85.0027 42.032 84.4027 42.644 83.9467 43.436C83.5147 44.228 83.2987 45.188 83.2987 46.316C83.2987 47.42 83.5147 48.38 83.9467 49.196C84.4027 49.988 85.0027 50.6 85.7467 51.032C86.4907 51.464 87.3307 51.68 88.2667 51.68ZM93.3427 56V52.04L93.4507 46.28L93.0907 40.556V29.288H98.7067V56H93.3427ZM112.221 56.288C110.397 56.288 108.753 55.88 107.289 55.064C105.825 54.224 104.661 53.06 103.797 51.572C102.957 50.084 102.537 48.332 102.537 46.316C102.537 44.276 102.957 42.512 103.797 41.024C104.661 39.536 105.825 38.384 107.289 37.568C108.753 36.752 110.397 36.344 112.221 36.344C113.853 36.344 115.281 36.704 116.505 37.424C117.729 38.144 118.677 39.236 119.349 40.7C120.021 42.164 120.357 44.036 120.357 46.316C120.357 48.572 120.033 50.444 119.385 51.932C118.737 53.396 117.801 54.488 116.577 55.208C115.377 55.928 113.925 56.288 112.221 56.288ZM113.193 51.68C114.105 51.68 114.933 51.464 115.677 51.032C116.421 50.6 117.009 49.988 117.441 49.196C117.897 48.38 118.125 47.42 118.125 46.316C118.125 45.188 117.897 44.228 117.441 43.436C117.009 42.644 116.421 42.032 115.677 41.6C114.933 41.168 114.105 40.952 113.193 40.952C112.257 40.952 111.417 41.168 110.673 41.6C109.929 42.032 109.329 42.644 108.873 43.436C108.441 44.228 108.225 45.188 108.225 46.316C108.225 47.42 108.441 48.38 108.873 49.196C109.329 49.988 109.929 50.6 110.673 51.032C111.417 51.464 112.257 51.68 113.193 51.68ZM118.269 56V52.04L118.377 46.28L118.017 40.556V29.288H123.633V56H118.269ZM139.422 56V30.8H150.33C152.586 30.8 154.53 31.172 156.162 31.916C157.794 32.636 159.054 33.68 159.942 35.048C160.83 36.416 161.274 38.048 161.274 39.944C161.274 41.816 160.83 43.436 159.942 44.804C159.054 46.172 157.794 47.228 156.162 47.972C154.53 48.692 152.586 49.052 150.33 49.052H142.662L145.254 46.424V56H139.422ZM145.254 47.072L142.662 44.3H150.006C151.806 44.3 153.15 43.916 154.038 43.148C154.926 42.38 155.37 41.312 155.37 39.944C155.37 38.552 154.926 37.472 154.038 36.704C153.15 35.936 151.806 35.552 150.006 35.552H142.662L145.254 32.78V47.072ZM165.006 56V36.632H170.37V42.104L169.614 40.52C170.19 39.152 171.114 38.12 172.386 37.424C173.658 36.704 175.206 36.344 177.03 36.344V41.528C176.79 41.504 176.574 41.492 176.382 41.492C176.19 41.468 175.986 41.456 175.77 41.456C174.234 41.456 172.986 41.9 172.026 42.788C171.09 43.652 170.622 45.008 170.622 46.856V56H165.006ZM189.445 56.288C187.381 56.288 185.545 55.856 183.937 54.992C182.353 54.128 181.093 52.952 180.157 51.464C179.245 49.952 178.789 48.236 178.789 46.316C178.789 44.372 179.245 42.656 180.157 41.168C181.093 39.656 182.353 38.48 183.937 37.64C185.545 36.776 187.381 36.344 189.445 36.344C191.485 36.344 193.309 36.776 194.917 37.64C196.525 38.48 197.785 39.644 198.697 41.132C199.609 42.62 200.065 44.348 200.065 46.316C200.065 48.236 199.609 49.952 198.697 51.464C197.785 52.952 196.525 54.128 194.917 54.992C193.309 55.856 191.485 56.288 189.445 56.288ZM189.445 51.68C190.381 51.68 191.221 51.464 191.965 51.032C192.709 50.6 193.297 49.988 193.729 49.196C194.161 48.38 194.377 47.42 194.377 46.316C194.377 45.188 194.161 44.228 193.729 43.436C193.297 42.644 192.709 42.032 191.965 41.6C191.221 41.168 190.381 40.952 189.445 40.952C188.509 40.952 187.669 41.168 186.925 41.6C186.181 42.032 185.581 42.644 185.125 43.436C184.693 44.228 184.477 45.188 184.477 46.316C184.477 47.42 184.693 48.38 185.125 49.196C185.581 49.988 186.181 50.6 186.925 51.032C187.669 51.464 188.509 51.68 189.445 51.68ZM202.379 63.272C201.515 63.272 200.687 63.176 199.895 62.984C199.103 62.816 198.431 62.552 197.879 62.192L199.391 58.124C200.039 58.58 200.831 58.808 201.767 58.808C202.463 58.808 203.015 58.568 203.423 58.088C203.855 57.632 204.071 56.936 204.071 56V36.632H209.687V55.964C209.687 58.196 209.051 59.972 207.779 61.292C206.507 62.612 204.707 63.272 202.379 63.272ZM206.879 33.932C205.847 33.932 205.007 33.632 204.359 33.032C203.711 32.432 203.387 31.688 203.387 30.8C203.387 29.912 203.711 29.168 204.359 28.568C205.007 27.968 205.847 27.668 206.879 27.668C207.911 27.668 208.751 27.956 209.399 28.532C210.047 29.084 210.371 29.804 210.371 30.692C210.371 31.628 210.047 32.408 209.399 33.032C208.775 33.632 207.935 33.932 206.879 33.932ZM224.47 56.288C222.262 56.288 220.318 55.856 218.638 54.992C216.982 54.128 215.698 52.952 214.786 51.464C213.874 49.952 213.418 48.236 213.418 46.316C213.418 44.372 213.862 42.656 214.75 41.168C215.662 39.656 216.898 38.48 218.458 37.64C220.018 36.776 221.782 36.344 223.75 36.344C225.646 36.344 227.35 36.752 228.862 37.568C230.398 38.36 231.61 39.512 232.498 41.024C233.386 42.512 233.83 44.3 233.83 46.388C233.83 46.604 233.818 46.856 233.794 47.144C233.77 47.408 233.746 47.66 233.722 47.9H217.99V44.624H230.77L228.61 45.596C228.61 44.588 228.406 43.712 227.998 42.968C227.59 42.224 227.026 41.648 226.306 41.24C225.586 40.808 224.746 40.592 223.786 40.592C222.826 40.592 221.974 40.808 221.23 41.24C220.51 41.648 219.946 42.236 219.538 43.004C219.13 43.748 218.926 44.636 218.926 45.668V46.532C218.926 47.588 219.154 48.524 219.61 49.34C220.09 50.132 220.75 50.744 221.59 51.176C222.454 51.584 223.462 51.788 224.614 51.788C225.646 51.788 226.546 51.632 227.314 51.32C228.106 51.008 228.826 50.54 229.474 49.916L232.462 53.156C231.574 54.164 230.458 54.944 229.114 55.496C227.77 56.024 226.222 56.288 224.47 56.288ZM246.929 56.288C244.841 56.288 242.981 55.868 241.349 55.028C239.717 54.164 238.433 52.976 237.497 51.464C236.585 49.952 236.129 48.236 236.129 46.316C236.129 44.372 236.585 42.656 237.497 41.168C238.433 39.656 239.717 38.48 241.349 37.64C242.981 36.776 244.841 36.344 246.929 36.344C248.969 36.344 250.745 36.776 252.257 37.64C253.769 38.48 254.885 39.692 255.605 41.276L251.249 43.616C250.745 42.704 250.109 42.032 249.341 41.6C248.597 41.168 247.781 40.952 246.893 40.952C245.933 40.952 245.069 41.168 244.301 41.6C243.533 42.032 242.921 42.644 242.465 43.436C242.033 44.228 241.817 45.188 241.817 46.316C241.817 47.444 242.033 48.404 242.465 49.196C242.921 49.988 243.533 50.6 244.301 51.032C245.069 51.464 245.933 51.68 246.893 51.68C247.781 51.68 248.597 51.476 249.341 51.068C250.109 50.636 250.745 49.952 251.249 49.016L255.605 51.392C254.885 52.952 253.769 54.164 252.257 55.028C250.745 55.868 248.969 56.288 246.929 56.288ZM267.039 56.288C264.759 56.288 262.983 55.712 261.711 54.56C260.439 53.384 259.803 51.644 259.803 49.34V32.348H265.419V49.268C265.419 50.084 265.635 50.72 266.067 51.176C266.499 51.608 267.087 51.824 267.831 51.824C268.719 51.824 269.475 51.584 270.099 51.104L271.611 55.064C271.035 55.472 270.339 55.784 269.523 56C268.731 56.192 267.903 56.288 267.039 56.288ZM256.815 41.384V37.064H270.243V41.384H256.815Z" fill="white"/>
<defs>
<filter id="filter0_d_309_923" x="43" y="306" width="260" height="57" filterUnits="userSpaceOnUse" color-interpolation-filters="sRGB">
<feFlood flood-opacity="0" result="BackgroundImageFix"/>
<feColorMatrix in="SourceAlpha" type="matrix" values="0 0 0 0 0 0 0 0 0 0 0 0 0 0 0 0 0 0 127 0" result="hardAlpha"/>
<feOffset dx="1" dy="2"/>
<feGaussianBlur stdDeviation="2"/>
<feComposite in2="hardAlpha" operator="out"/>
<feColorMatrix type="matrix" values="0 0 0 0 0 0 0 0 0 0 0 0 0 0 0 0 0 0 0.25 0"/>
<feBlend mode="normal" in2="BackgroundImageFix" result="effect1_dropShadow_309_923"/>
<feBlend mode="normal" in="SourceGraphic" in2="effect1_dropShadow_309_923" result="shape"/>
</filter>
<filter id="filter1_d_309_923" x="405" y="306" width="260" height="57" filterUnits="userSpaceOnUse" color-interpolation-filters="sRGB">
<feFlood flood-opacity="0" result="BackgroundImageFix"/>
<feColorMatrix in="SourceAlpha" type="matrix" values="0 0 0 0 0 0 0 0 0 0 0 0 0 0 0 0 0 0 127 0" result="hardAlpha"/>
<feOffset dx="1" dy="2"/>
<feGaussianBlur stdDeviation="2"/>
<feComposite in2="hardAlpha" operator="out"/>
<feColorMatrix type="matrix" values="0 0 0 0 0 0 0 0 0 0 0 0 0 0 0 0 0 0 0.25 0"/>
<feBlend mode="normal" in2="BackgroundImageFix" result="effect1_dropShadow_309_923"/>
<feBlend mode="normal" in="SourceGraphic" in2="effect1_dropShadow_309_923" result="shape"/>
</filter>
<filter id="filter2_d_309_923" x="223" y="839" width="206" height="72" filterUnits="userSpaceOnUse" color-interpolation-filters="sRGB">
<feFlood flood-opacity="0" result="BackgroundImageFix"/>
<feColorMatrix in="SourceAlpha" type="matrix" values="0 0 0 0 0 0 0 0 0 0 0 0 0 0 0 0 0 0 127 0" result="hardAlpha"/>
<feOffset dx="2" dy="1"/>
<feGaussianBlur stdDeviation="3"/>
<feComposite in2="hardAlpha" operator="out"/>
<feColorMatrix type="matrix" values="0 0 0 0 0 0 0 0 0 0 0 0 0 0 0 0 0 0 0.25 0"/>
<feBlend mode="normal" in2="BackgroundImageFix" result="effect1_dropShadow_309_923"/>
<feBlend mode="normal" in="SourceGraphic" in2="effect1_dropShadow_309_923" result="shape"/>
</filter>
<filter id="filter3_d_309_923" x="227" y="844" width="194" height="61" filterUnits="userSpaceOnUse" color-interpolation-filters="sRGB">
<feFlood flood-opacity="0" result="BackgroundImageFix"/>
<feColorMatrix in="SourceAlpha" type="matrix" values="0 0 0 0 0 0 0 0 0 0 0 0 0 0 0 0 0 0 127 0" result="hardAlpha"/>
<feOffset dy="1"/>
<feComposite in2="hardAlpha" operator="out"/>
<feColorMatrix type="matrix" values="0 0 0 0 0 0 0 0 0 0 0 0 0 0 0 0 0 0 0.25 0"/>
<feBlend mode="normal" in2="BackgroundImageFix" result="effect1_dropShadow_309_923"/>
<feBlend mode="normal" in="SourceGraphic" in2="effect1_dropShadow_309_923" result="shape"/>
</filter>
<filter id="filter4_d_309_923" x="462" y="839" width="206" height="72" filterUnits="userSpaceOnUse" color-interpolation-filters="sRGB">
<feFlood flood-opacity="0" result="BackgroundImageFix"/>
<feColorMatrix in="SourceAlpha" type="matrix" values="0 0 0 0 0 0 0 0 0 0 0 0 0 0 0 0 0 0 127 0" result="hardAlpha"/>
<feOffset dx="2" dy="1"/>
<feGaussianBlur stdDeviation="3"/>
<feComposite in2="hardAlpha" operator="out"/>
<feColorMatrix type="matrix" values="0 0 0 0 0 0 0 0 0 0 0 0 0 0 0 0 0 0 0.25 0"/>
<feBlend mode="normal" in2="BackgroundImageFix" result="effect1_dropShadow_309_923"/>
<feBlend mode="normal" in="SourceGraphic" in2="effect1_dropShadow_309_923" result="shape"/>
</filter>
<linearGradient id="paint0_linear_309_923" x1="41" y1="210.5" x2="367" y2="210.5" gradientUnits="userSpaceOnUse">
<stop stop-color="#7EBCEC"/>
<stop offset="1" stop-color="#3F88C0"/>
</linearGradient>
<linearGradient id="paint1_linear_309_923" x1="58" y1="447" x2="58" y2="481" gradientUnits="userSpaceOnUse">
<stop stop-color="#28B4E1"/>
<stop offset="1" stop-color="#B8E9F9"/>
</linearGradient>
<linearGradient id="paint2_linear_309_923" x1="0" y1="40" x2="702" y2="40" gradientUnits="userSpaceOnUse">
<stop stop-color="#22719C"/>
<stop offset="1" stop-color="#B8E9F9"/>
</linearGradient>
<clipPath id="clip0_309_923">
<rect width="24" height="24" fill="white" transform="translate(619 321)"/>
</clipPath>
<clipPath id="clip1_309_923">
<rect width="24" height="24" fill="white" transform="translate(263 321)"/>
</clipPath>
</defs>
</svg>
