<svg width="1920" height="1080" viewBox="0 0 1920 1080" fill="none" xmlns="http://www.w3.org/2000/svg">
<rect width="1920" height="1080" fill="url(#paint0_linear_211_374)"/>
<g filter="url(#filter0_d_211_374)">
<rect x="160" y="45.5803" width="1600" height="994.42" rx="14" fill="white"/>
<path d="M339.435 347.023L160 212.117V53C160 46.3726 165.373 41 172 41H1746C1753.73 41 1760 47.268 1760 55V178.89L508.73 388.347C449.02 398.342 387.824 383.404 339.435 347.023Z" fill="url(#paint1_linear_211_374)"/>
</g>
<rect x="1632.9" y="93.8447" width="5.78194" height="28.9811" fill="black"/>
<rect x="1690.2" y="93.8447" width="5.78194" height="28.9811" fill="black"/>
<rect x="1707.28" y="93.8447" width="5.78194" height="28.9811" fill="black"/>
<rect x="1698.34" y="93.8447" width="23.9162" height="5.11432" fill="black"/>
<rect x="1607.67" y="93.845" width="5.25631" height="28.9811" fill="black"/>
<path fill-rule="evenodd" clip-rule="evenodd" d="M1614.77 114.789H1619.81C1625.59 114.789 1630.28 110.1 1630.28 104.317C1630.28 98.533 1625.59 93.8445 1619.81 93.8445H1612.67V98.7728H1619.4C1622.46 98.7728 1624.94 101.255 1624.94 104.317C1624.94 107.379 1622.46 109.861 1619.4 109.861H1616.91L1614.77 114.789Z" fill="black"/>
<path fill-rule="evenodd" clip-rule="evenodd" d="M1672.59 122.825V122.826H1667.07V101.881H1672.59V103.888C1674.26 102.484 1676.41 101.638 1678.76 101.638C1684.06 101.638 1688.36 105.933 1688.36 111.23V122.825H1682.74C1682.81 122.507 1682.84 122.178 1682.84 121.841V111.877C1682.84 109.047 1680.54 106.752 1677.71 106.752C1674.94 106.752 1672.67 108.962 1672.59 111.719V121.999C1672.6 122.281 1672.63 122.557 1672.68 122.825H1672.59Z" fill="black"/>
<path fill-rule="evenodd" clip-rule="evenodd" d="M1640.88 112.318C1640.66 118.331 1645.5 123.36 1651.68 123.551C1654.4 123.636 1656.93 122.767 1658.92 121.254V122.826H1664.44V122.919H1664.44V101.882H1658.92V104.035C1657.13 102.685 1654.9 101.854 1652.46 101.778C1646.28 101.587 1641.09 106.306 1640.88 112.318ZM1652.62 118.516C1655.6 118.516 1658.13 116.698 1658.92 114.209V110.836C1658.13 108.347 1655.6 106.53 1652.62 106.53C1648.99 106.53 1646.05 109.213 1646.05 112.523C1646.05 115.833 1648.99 118.516 1652.62 118.516Z" fill="black"/>
<rect x="1558" y="88" width="13.4036" height="7.54971" rx="3.77486" fill="#E54C41"/>
<rect x="1569.04" y="99.2029" width="11.5639" height="7.54971" rx="3.77486" fill="#F9BE15"/>
<rect x="1570.09" y="121.852" width="13.1408" height="7.54971" rx="3.77486" fill="#4C88EF"/>
<rect x="1558" y="121.852" width="8.4101" height="7.54971" rx="3.77486" fill="#4C88EF"/>
<rect x="1558" y="99.2029" width="7.88447" height="7.54971" rx="3.77486" fill="#F9BE15"/>
<rect x="1572.98" y="110.406" width="8.4101" height="7.54971" rx="3.77486" fill="#3FA95B"/>
<rect x="1584.81" y="110.406" width="7.88447" height="7.54971" rx="3.77486" fill="#3FA95B"/>
<rect x="1586.91" y="121.852" width="15.2433" height="7.54971" rx="3.77486" fill="#4C88EF"/>
<rect x="1558" y="110.406" width="11.5639" height="7.54971" rx="3.77486" fill="#3FA95B"/>
<path d="M341.793 205V161.364H371.196V168.97H351.018V179.368H369.683V186.974H351.018V197.393H371.281V205H341.793ZM390.42 205.533C387.934 205.533 385.683 204.893 383.666 203.615C381.663 202.322 380.072 200.426 378.893 197.926C377.728 195.412 377.146 192.33 377.146 188.679C377.146 184.929 377.75 181.811 378.957 179.325C380.164 176.825 381.77 174.957 383.772 173.722C385.789 172.472 387.998 171.847 390.399 171.847C392.231 171.847 393.758 172.159 394.98 172.784C396.216 173.395 397.21 174.162 397.963 175.085C398.73 175.994 399.312 176.889 399.71 177.77H399.987V161.364H409.042V205H400.093V199.759H399.71C399.284 200.668 398.68 201.57 397.899 202.464C397.132 203.345 396.13 204.077 394.895 204.659C393.673 205.241 392.181 205.533 390.42 205.533ZM393.297 198.31C394.76 198.31 395.995 197.912 397.004 197.116C398.027 196.307 398.808 195.178 399.348 193.729C399.902 192.28 400.179 190.582 400.179 188.636C400.179 186.69 399.909 185 399.369 183.565C398.829 182.131 398.048 181.023 397.025 180.241C396.002 179.46 394.76 179.07 393.297 179.07C391.805 179.07 390.548 179.474 389.525 180.284C388.502 181.094 387.728 182.216 387.203 183.651C386.677 185.085 386.414 186.747 386.414 188.636C386.414 190.54 386.677 192.223 387.203 193.686C387.743 195.135 388.517 196.271 389.525 197.095C390.548 197.905 391.805 198.31 393.297 198.31ZM416.505 205V172.273H425.582V205H416.505ZM421.065 168.054C419.715 168.054 418.558 167.607 417.592 166.712C416.64 165.803 416.164 164.716 416.164 163.452C416.164 162.202 416.64 161.129 417.592 160.234C418.558 159.325 419.715 158.871 421.065 158.871C422.414 158.871 423.565 159.325 424.516 160.234C425.482 161.129 425.965 162.202 425.965 163.452C425.965 164.716 425.482 165.803 424.516 166.712C423.565 167.607 422.414 168.054 421.065 168.054ZM450.26 172.273V179.091H430.551V172.273H450.26ZM435.026 164.432H444.103V194.943C444.103 195.781 444.23 196.435 444.486 196.903C444.742 197.358 445.097 197.678 445.551 197.862C446.02 198.047 446.56 198.139 447.171 198.139C447.597 198.139 448.023 198.104 448.449 198.033C448.875 197.947 449.202 197.884 449.429 197.841L450.857 204.595C450.402 204.737 449.763 204.901 448.939 205.085C448.115 205.284 447.114 205.405 445.935 205.447C443.748 205.533 441.83 205.241 440.182 204.574C438.549 203.906 437.277 202.869 436.368 201.463C435.459 200.057 435.012 198.281 435.026 196.136V164.432ZM470.23 205V161.364H487.446C490.756 161.364 493.575 161.996 495.905 163.26C498.234 164.51 500.01 166.25 501.232 168.48C502.467 170.696 503.085 173.253 503.085 176.151C503.085 179.048 502.46 181.605 501.21 183.821C499.96 186.037 498.149 187.763 495.777 188.999C493.419 190.234 490.564 190.852 487.212 190.852H476.239V183.459H485.72C487.496 183.459 488.959 183.153 490.109 182.543C491.274 181.918 492.141 181.058 492.709 179.964C493.291 178.857 493.582 177.585 493.582 176.151C493.582 174.702 493.291 173.437 492.709 172.358C492.141 171.264 491.274 170.419 490.109 169.822C488.945 169.212 487.467 168.906 485.678 168.906H479.456V205H470.23ZM508.907 205V172.273H517.707V177.983H518.048C518.645 175.952 519.646 174.418 521.052 173.381C522.458 172.33 524.078 171.804 525.91 171.804C526.365 171.804 526.855 171.832 527.38 171.889C527.906 171.946 528.368 172.024 528.765 172.124V180.178C528.339 180.05 527.75 179.936 526.997 179.837C526.244 179.737 525.555 179.688 524.93 179.688C523.595 179.688 522.402 179.979 521.35 180.561C520.314 181.129 519.49 181.925 518.879 182.947C518.282 183.97 517.984 185.149 517.984 186.484V205H508.907ZM546.722 205.639C543.412 205.639 540.55 204.936 538.135 203.53C535.734 202.109 533.881 200.135 532.574 197.607C531.267 195.064 530.614 192.116 530.614 188.764C530.614 185.384 531.267 182.429 532.574 179.901C533.881 177.358 535.734 175.384 538.135 173.977C540.55 172.557 543.412 171.847 546.722 171.847C550.031 171.847 552.886 172.557 555.287 173.977C557.702 175.384 559.562 177.358 560.869 179.901C562.176 182.429 562.83 185.384 562.83 188.764C562.83 192.116 562.176 195.064 560.869 197.607C559.562 200.135 557.702 202.109 555.287 203.53C552.886 204.936 550.031 205.639 546.722 205.639ZM546.764 198.608C548.27 198.608 549.527 198.182 550.536 197.33C551.544 196.463 552.304 195.284 552.815 193.793C553.341 192.301 553.604 190.604 553.604 188.7C553.604 186.797 553.341 185.099 552.815 183.608C552.304 182.116 551.544 180.937 550.536 180.071C549.527 179.205 548.27 178.771 546.764 178.771C545.244 178.771 543.966 179.205 542.929 180.071C541.906 180.937 541.132 182.116 540.607 183.608C540.095 185.099 539.839 186.797 539.839 188.7C539.839 190.604 540.095 192.301 540.607 193.793C541.132 195.284 541.906 196.463 542.929 197.33C543.966 198.182 545.244 198.608 546.764 198.608ZM586.331 172.273V179.091H566.132V172.273H586.331ZM570.756 205V169.908C570.756 167.536 571.217 165.568 572.141 164.006C573.078 162.443 574.357 161.271 575.976 160.49C577.595 159.709 579.435 159.318 581.494 159.318C582.886 159.318 584.158 159.425 585.308 159.638C586.473 159.851 587.339 160.043 587.908 160.213L586.288 167.031C585.933 166.918 585.493 166.811 584.967 166.712C584.456 166.612 583.93 166.562 583.391 166.562C582.055 166.562 581.125 166.875 580.599 167.5C580.074 168.111 579.811 168.97 579.811 170.078V205H570.756ZM591.876 205V172.273H600.953V205H591.876ZM596.436 168.054C595.086 168.054 593.929 167.607 592.963 166.712C592.011 165.803 591.535 164.716 591.535 163.452C591.535 162.202 592.011 161.129 592.963 160.234C593.929 159.325 595.086 158.871 596.436 158.871C597.785 158.871 598.936 159.325 599.887 160.234C600.853 161.129 601.336 162.202 601.336 163.452C601.336 164.716 600.853 165.803 599.887 166.712C598.936 167.607 597.785 168.054 596.436 168.054ZM617.3 161.364V205H608.224V161.364H617.3ZM639.486 205.639C636.12 205.639 633.222 204.957 630.793 203.594C628.378 202.216 626.517 200.27 625.211 197.756C623.904 195.227 623.25 192.237 623.25 188.786C623.25 185.419 623.904 182.464 625.211 179.922C626.517 177.379 628.357 175.398 630.729 173.977C633.115 172.557 635.914 171.847 639.124 171.847C641.283 171.847 643.293 172.195 645.154 172.891C647.029 173.572 648.662 174.602 650.054 175.98C651.461 177.358 652.554 179.091 653.336 181.179C654.117 183.253 654.507 185.682 654.507 188.466V190.959H626.873V185.334H645.963C645.963 184.027 645.679 182.869 645.111 181.861C644.543 180.852 643.755 180.064 642.746 179.496C641.752 178.913 640.594 178.622 639.273 178.622C637.895 178.622 636.674 178.942 635.608 179.581C634.557 180.206 633.733 181.051 633.137 182.116C632.54 183.168 632.235 184.339 632.221 185.632V190.98C632.221 192.599 632.519 193.999 633.115 195.178C633.726 196.357 634.586 197.266 635.694 197.905C636.801 198.544 638.115 198.864 639.635 198.864C640.644 198.864 641.567 198.722 642.405 198.438C643.243 198.153 643.961 197.727 644.557 197.159C645.154 196.591 645.608 195.895 645.921 195.071L654.316 195.625C653.89 197.642 653.016 199.403 651.695 200.909C650.388 202.401 648.698 203.565 646.624 204.403C644.564 205.227 642.185 205.639 639.486 205.639Z" fill="white"/>
<path d="M226.833 115.708H205.028L215.044 105.693L212.499 103.167L198.166 117.5L212.499 131.833L215.026 129.307L205.028 119.292H226.833V115.708Z" fill="white"/>
<g filter="url(#filter1_d_211_374)">
<circle cx="960" cy="263" r="104" fill="#1F4768"/>
</g>
<path d="M939.284 244.364H945.591L960.42 280.585H960.932L975.761 244.364H982.068V288H977.125V254.847H976.699L963.062 288H958.29L944.653 254.847H944.227V288H939.284V244.364Z" fill="white"/>
<circle cx="1009.38" cy="356.375" r="22.375" fill="#28B4E1"/>
<path d="M1018.05 347.242H1015.13L1013.71 345.112C1013.58 344.924 1013.41 344.771 1013.22 344.664C1013.02 344.558 1012.79 344.502 1012.57 344.503H1005.26C1005.04 344.502 1004.81 344.558 1004.61 344.664C1004.42 344.771 1004.25 344.924 1004.12 345.112L1002.7 347.242H999.782C998.935 347.242 998.122 347.579 997.522 348.179C996.923 348.778 996.586 349.591 996.586 350.439V363.225C996.586 364.072 996.923 364.885 997.522 365.485C998.122 366.084 998.935 366.421 999.782 366.421H1018.05C1018.47 366.421 1018.88 366.338 1019.27 366.178C1019.66 366.017 1020.01 365.782 1020.31 365.485C1020.6 365.188 1020.84 364.836 1021 364.448C1021.16 364.06 1021.24 363.644 1021.24 363.225V350.439C1021.24 350.019 1021.16 349.604 1021 349.216C1020.84 348.828 1020.6 348.476 1020.31 348.179C1020.01 347.882 1019.66 347.646 1019.27 347.486C1018.88 347.325 1018.47 347.242 1018.05 347.242ZM1018.5 363.225C1018.5 363.346 1018.46 363.462 1018.37 363.548C1018.28 363.633 1018.17 363.681 1018.05 363.681H999.782C999.661 363.681 999.545 363.633 999.459 363.548C999.374 363.462 999.326 363.346 999.326 363.225V350.439C999.326 350.318 999.374 350.202 999.459 350.116C999.545 350.03 999.661 349.982 999.782 349.982H1003.44C1003.66 349.983 1003.88 349.927 1004.08 349.821C1004.28 349.714 1004.45 349.56 1004.58 349.373L1005.99 347.242H1011.83L1013.25 349.373C1013.38 349.56 1013.55 349.714 1013.75 349.821C1013.95 349.927 1014.17 349.983 1014.39 349.982H1018.05C1018.17 349.982 1018.28 350.03 1018.37 350.116C1018.46 350.202 1018.5 350.318 1018.5 350.439V363.225ZM1008.92 350.896C1007.83 350.896 1006.77 351.217 1005.87 351.819C1004.97 352.421 1004.27 353.277 1003.85 354.278C1003.44 355.279 1003.33 356.381 1003.54 357.444C1003.75 358.507 1004.27 359.483 1005.04 360.25C1005.81 361.016 1006.78 361.538 1007.85 361.749C1008.91 361.961 1010.01 361.852 1011.01 361.438C1012.01 361.023 1012.87 360.321 1013.47 359.419C1014.07 358.518 1014.39 357.459 1014.39 356.375C1014.39 354.922 1013.82 353.529 1012.79 352.502C1011.76 351.475 1010.37 350.897 1008.92 350.896ZM1008.92 359.115C1008.37 359.115 1007.84 358.954 1007.39 358.653C1006.94 358.352 1006.59 357.924 1006.38 357.424C1006.18 356.923 1006.12 356.372 1006.23 355.841C1006.33 355.309 1006.59 354.821 1006.98 354.438C1007.36 354.055 1007.85 353.794 1008.38 353.688C1008.91 353.582 1009.46 353.637 1009.96 353.844C1010.46 354.051 1010.89 354.402 1011.19 354.853C1011.49 355.304 1011.65 355.833 1011.65 356.375C1011.65 357.102 1011.37 357.799 1010.85 358.312C1010.34 358.826 1009.64 359.115 1008.92 359.115Z" fill="white"/>
<path d="M701.296 404.156C698.973 404.156 697.145 403.489 695.81 402.154C694.475 400.819 693.808 398.843 693.808 396.226V385.8H695.732V396.148C695.732 398.297 696.217 399.883 697.188 400.906C698.159 401.929 699.528 402.44 701.296 402.44C703.081 402.44 704.459 401.929 705.43 400.906C706.401 399.883 706.886 398.297 706.886 396.148V385.8H708.758V396.226C708.758 398.843 708.091 400.819 706.756 402.154C705.439 403.489 703.619 404.156 701.296 404.156ZM717.832 404.13C716.705 404.13 715.639 403.974 714.634 403.662C713.628 403.333 712.84 402.925 712.268 402.44L713.1 400.984C713.654 401.4 714.365 401.764 715.232 402.076C716.098 402.371 717.008 402.518 717.962 402.518C719.262 402.518 720.198 402.319 720.77 401.92C721.342 401.504 721.628 400.958 721.628 400.282C721.628 399.779 721.463 399.389 721.134 399.112C720.822 398.817 720.406 398.601 719.886 398.462C719.366 398.306 718.785 398.176 718.144 398.072C717.502 397.968 716.861 397.847 716.22 397.708C715.596 397.569 715.024 397.37 714.504 397.11C713.984 396.833 713.559 396.46 713.23 395.992C712.918 395.524 712.762 394.9 712.762 394.12C712.762 393.375 712.97 392.707 713.386 392.118C713.802 391.529 714.408 391.069 715.206 390.74C716.02 390.393 717.008 390.22 718.17 390.22C719.054 390.22 719.938 390.341 720.822 390.584C721.706 390.809 722.434 391.113 723.006 391.494L722.2 392.976C721.593 392.56 720.943 392.265 720.25 392.092C719.556 391.901 718.863 391.806 718.17 391.806C716.939 391.806 716.029 392.023 715.44 392.456C714.868 392.872 714.582 393.409 714.582 394.068C714.582 394.588 714.738 394.995 715.05 395.29C715.379 395.585 715.804 395.819 716.324 395.992C716.861 396.148 717.442 396.278 718.066 396.382C718.707 396.486 719.34 396.616 719.964 396.772C720.605 396.911 721.186 397.11 721.706 397.37C722.243 397.613 722.668 397.968 722.98 398.436C723.309 398.887 723.474 399.485 723.474 400.23C723.474 401.027 723.248 401.721 722.798 402.31C722.364 402.882 721.723 403.333 720.874 403.662C720.042 403.974 719.028 404.13 717.832 404.13ZM732.659 404.13C731.238 404.13 729.99 403.835 728.915 403.246C727.84 402.639 727 401.816 726.393 400.776C725.786 399.719 725.483 398.514 725.483 397.162C725.483 395.81 725.769 394.614 726.341 393.574C726.93 392.534 727.728 391.719 728.733 391.13C729.756 390.523 730.9 390.22 732.165 390.22C733.448 390.22 734.583 390.515 735.571 391.104C736.576 391.676 737.365 392.491 737.937 393.548C738.509 394.588 738.795 395.793 738.795 397.162C738.795 397.249 738.786 397.344 738.769 397.448C738.769 397.535 738.769 397.63 738.769 397.734H726.887V396.356H737.781L737.053 396.902C737.053 395.914 736.836 395.039 736.403 394.276C735.987 393.496 735.415 392.889 734.687 392.456C733.959 392.023 733.118 391.806 732.165 391.806C731.229 391.806 730.388 392.023 729.643 392.456C728.898 392.889 728.317 393.496 727.901 394.276C727.485 395.056 727.277 395.949 727.277 396.954V397.24C727.277 398.28 727.502 399.199 727.953 399.996C728.421 400.776 729.062 401.391 729.877 401.842C730.709 402.275 731.654 402.492 732.711 402.492C733.543 402.492 734.314 402.345 735.025 402.05C735.753 401.755 736.377 401.305 736.897 400.698L737.937 401.894C737.33 402.622 736.568 403.177 735.649 403.558C734.748 403.939 733.751 404.13 732.659 404.13ZM742.553 404V390.35H744.321V394.068L744.139 393.418C744.52 392.378 745.161 391.589 746.063 391.052C746.964 390.497 748.082 390.22 749.417 390.22V392.014C749.347 392.014 749.278 392.014 749.209 392.014C749.139 391.997 749.07 391.988 749.001 391.988C747.562 391.988 746.435 392.43 745.621 393.314C744.806 394.181 744.399 395.42 744.399 397.032V404H742.553ZM759.753 390.22C760.862 390.22 761.833 390.437 762.665 390.87C763.514 391.286 764.173 391.927 764.641 392.794C765.126 393.661 765.369 394.753 765.369 396.07V404H763.523V396.252C763.523 394.813 763.159 393.73 762.431 393.002C761.72 392.257 760.715 391.884 759.415 391.884C758.444 391.884 757.595 392.083 756.867 392.482C756.156 392.863 755.602 393.427 755.203 394.172C754.822 394.9 754.631 395.784 754.631 396.824V404H752.785V390.35H754.553V394.094L754.267 393.392C754.7 392.404 755.394 391.633 756.347 391.078C757.3 390.506 758.436 390.22 759.753 390.22ZM778.909 404V400.984L778.831 400.49V395.446C778.831 394.285 778.502 393.392 777.843 392.768C777.202 392.144 776.24 391.832 774.957 391.832C774.073 391.832 773.233 391.979 772.435 392.274C771.638 392.569 770.962 392.959 770.407 393.444L769.575 392.066C770.269 391.477 771.101 391.026 772.071 390.714C773.042 390.385 774.065 390.22 775.139 390.22C776.907 390.22 778.268 390.662 779.221 391.546C780.192 392.413 780.677 393.739 780.677 395.524V404H778.909ZM774.203 404.13C773.181 404.13 772.288 403.965 771.525 403.636C770.78 403.289 770.208 402.821 769.809 402.232C769.411 401.625 769.211 400.932 769.211 400.152C769.211 399.441 769.376 398.8 769.705 398.228C770.052 397.639 770.607 397.171 771.369 396.824C772.149 396.46 773.189 396.278 774.489 396.278H779.195V397.656H774.541C773.224 397.656 772.305 397.89 771.785 398.358C771.283 398.826 771.031 399.407 771.031 400.1C771.031 400.88 771.335 401.504 771.941 401.972C772.548 402.44 773.397 402.674 774.489 402.674C775.529 402.674 776.422 402.44 777.167 401.972C777.93 401.487 778.485 400.793 778.831 399.892L779.247 401.166C778.901 402.067 778.294 402.787 777.427 403.324C776.578 403.861 775.503 404.13 774.203 404.13ZM802.747 390.22C803.857 390.22 804.819 390.437 805.633 390.87C806.465 391.286 807.107 391.927 807.557 392.794C808.025 393.661 808.259 394.753 808.259 396.07V404H806.413V396.252C806.413 394.813 806.067 393.73 805.373 393.002C804.697 392.257 803.735 391.884 802.487 391.884C801.551 391.884 800.737 392.083 800.043 392.482C799.367 392.863 798.839 393.427 798.457 394.172C798.093 394.9 797.911 395.784 797.911 396.824V404H796.065V396.252C796.065 394.813 795.719 393.73 795.025 393.002C794.332 392.257 793.361 391.884 792.113 391.884C791.195 391.884 790.389 392.083 789.695 392.482C789.002 392.863 788.465 393.427 788.083 394.172C787.719 394.9 787.537 395.784 787.537 396.824V404H785.691V390.35H787.459V394.042L787.173 393.392C787.589 392.404 788.257 391.633 789.175 391.078C790.111 390.506 791.212 390.22 792.477 390.22C793.812 390.22 794.947 390.558 795.883 391.234C796.819 391.893 797.426 392.889 797.703 394.224L796.975 393.938C797.374 392.829 798.076 391.936 799.081 391.26C800.104 390.567 801.326 390.22 802.747 390.22ZM819.063 404.13C817.642 404.13 816.394 403.835 815.319 403.246C814.245 402.639 813.404 401.816 812.797 400.776C812.191 399.719 811.887 398.514 811.887 397.162C811.887 395.81 812.173 394.614 812.745 393.574C813.335 392.534 814.132 391.719 815.137 391.13C816.16 390.523 817.304 390.22 818.569 390.22C819.852 390.22 820.987 390.515 821.975 391.104C822.981 391.676 823.769 392.491 824.341 393.548C824.913 394.588 825.199 395.793 825.199 397.162C825.199 397.249 825.191 397.344 825.173 397.448C825.173 397.535 825.173 397.63 825.173 397.734H813.291V396.356H824.185L823.457 396.902C823.457 395.914 823.241 395.039 822.807 394.276C822.391 393.496 821.819 392.889 821.091 392.456C820.363 392.023 819.523 391.806 818.569 391.806C817.633 391.806 816.793 392.023 816.047 392.456C815.302 392.889 814.721 393.496 814.305 394.276C813.889 395.056 813.681 395.949 813.681 396.954V397.24C813.681 398.28 813.907 399.199 814.357 399.996C814.825 400.776 815.467 401.391 816.281 401.842C817.113 402.275 818.058 402.492 819.115 402.492C819.947 402.492 820.719 402.345 821.429 402.05C822.157 401.755 822.781 401.305 823.301 400.698L824.341 401.894C823.735 402.622 822.972 403.177 822.053 403.558C821.152 403.939 820.155 404.13 819.063 404.13ZM829.139 393.054C828.757 393.054 828.428 392.915 828.151 392.638C827.891 392.361 827.761 392.023 827.761 391.624C827.761 391.208 827.891 390.87 828.151 390.61C828.428 390.35 828.757 390.22 829.139 390.22C829.52 390.22 829.841 390.35 830.101 390.61C830.378 390.87 830.517 391.208 830.517 391.624C830.517 392.023 830.378 392.361 830.101 392.638C829.841 392.915 829.52 393.054 829.139 393.054ZM829.139 404.13C828.757 404.13 828.428 403.991 828.151 403.714C827.891 403.437 827.761 403.099 827.761 402.7C827.761 402.284 827.891 401.946 828.151 401.686C828.428 401.426 828.757 401.296 829.139 401.296C829.52 401.296 829.841 401.426 830.101 401.686C830.378 401.946 830.517 402.284 830.517 402.7C830.517 403.099 830.378 403.437 830.101 403.714C829.841 403.991 829.52 404.13 829.139 404.13Z" fill="#776A6A"/>
<path d="M700.289 512.938H709.909V514.576H700.289V512.938ZM700.497 521.336H711.443V523H698.573V504.8H711.053V506.464H700.497V521.336ZM732.632 509.22C733.741 509.22 734.703 509.437 735.518 509.87C736.35 510.286 736.991 510.927 737.442 511.794C737.91 512.661 738.144 513.753 738.144 515.07V523H736.298V515.252C736.298 513.813 735.951 512.73 735.258 512.002C734.582 511.257 733.62 510.884 732.372 510.884C731.436 510.884 730.621 511.083 729.928 511.482C729.252 511.863 728.723 512.427 728.342 513.172C727.978 513.9 727.796 514.784 727.796 515.824V523H725.95V515.252C725.95 513.813 725.603 512.73 724.91 512.002C724.217 511.257 723.246 510.884 721.998 510.884C721.079 510.884 720.273 511.083 719.58 511.482C718.887 511.863 718.349 512.427 717.968 513.172C717.604 513.9 717.422 514.784 717.422 515.824V523H715.576V509.35H717.344V513.042L717.058 512.392C717.474 511.404 718.141 510.633 719.06 510.078C719.996 509.506 721.097 509.22 722.362 509.22C723.697 509.22 724.832 509.558 725.768 510.234C726.704 510.893 727.311 511.889 727.588 513.224L726.86 512.938C727.259 511.829 727.961 510.936 728.966 510.26C729.989 509.567 731.211 509.22 732.632 509.22ZM751.704 523V519.984L751.626 519.49V514.446C751.626 513.285 751.297 512.392 750.638 511.768C749.997 511.144 749.035 510.832 747.752 510.832C746.868 510.832 746.028 510.979 745.23 511.274C744.433 511.569 743.757 511.959 743.202 512.444L742.37 511.066C743.064 510.477 743.896 510.026 744.866 509.714C745.837 509.385 746.86 509.22 747.934 509.22C749.702 509.22 751.063 509.662 752.016 510.546C752.987 511.413 753.472 512.739 753.472 514.524V523H751.704ZM746.998 523.13C745.976 523.13 745.083 522.965 744.32 522.636C743.575 522.289 743.003 521.821 742.604 521.232C742.206 520.625 742.006 519.932 742.006 519.152C742.006 518.441 742.171 517.8 742.5 517.228C742.847 516.639 743.402 516.171 744.164 515.824C744.944 515.46 745.984 515.278 747.284 515.278H751.99V516.656H747.336C746.019 516.656 745.1 516.89 744.58 517.358C744.078 517.826 743.826 518.407 743.826 519.1C743.826 519.88 744.13 520.504 744.736 520.972C745.343 521.44 746.192 521.674 747.284 521.674C748.324 521.674 749.217 521.44 749.962 520.972C750.725 520.487 751.28 519.793 751.626 518.892L752.042 520.166C751.696 521.067 751.089 521.787 750.222 522.324C749.373 522.861 748.298 523.13 746.998 523.13ZM758.486 523V509.35H760.332V523H758.486ZM759.422 506.334C759.041 506.334 758.72 506.204 758.46 505.944C758.2 505.684 758.07 505.372 758.07 505.008C758.07 504.644 758.2 504.341 758.46 504.098C758.72 503.838 759.041 503.708 759.422 503.708C759.803 503.708 760.124 503.829 760.384 504.072C760.644 504.315 760.774 504.618 760.774 504.982C760.774 505.363 760.644 505.684 760.384 505.944C760.141 506.204 759.821 506.334 759.422 506.334ZM765.469 523V503.708H767.315V523H765.469Z" fill="#776A6A"/>
<path d="M697.765 628.614H707.385V630.278H697.765V628.614ZM697.973 638H696.049V619.8H708.529V621.464H697.973V638ZM712.112 638V624.35H713.958V638H712.112ZM713.048 621.334C712.667 621.334 712.346 621.204 712.086 620.944C711.826 620.684 711.696 620.372 711.696 620.008C711.696 619.644 711.826 619.341 712.086 619.098C712.346 618.838 712.667 618.708 713.048 618.708C713.429 618.708 713.75 618.829 714.01 619.072C714.27 619.315 714.4 619.618 714.4 619.982C714.4 620.363 714.27 620.684 714.01 620.944C713.767 621.204 713.447 621.334 713.048 621.334ZM719.095 638V624.35H720.863V628.068L720.681 627.418C721.062 626.378 721.703 625.589 722.605 625.052C723.506 624.497 724.624 624.22 725.959 624.22V626.014C725.889 626.014 725.82 626.014 725.751 626.014C725.681 625.997 725.612 625.988 725.543 625.988C724.104 625.988 722.977 626.43 722.163 627.314C721.348 628.181 720.941 629.42 720.941 631.032V638H719.095ZM733.145 638.13C732.019 638.13 730.953 637.974 729.947 637.662C728.942 637.333 728.153 636.925 727.581 636.44L728.413 634.984C728.968 635.4 729.679 635.764 730.545 636.076C731.412 636.371 732.322 636.518 733.275 636.518C734.575 636.518 735.511 636.319 736.083 635.92C736.655 635.504 736.941 634.958 736.941 634.282C736.941 633.779 736.777 633.389 736.447 633.112C736.135 632.817 735.719 632.601 735.199 632.462C734.679 632.306 734.099 632.176 733.457 632.072C732.816 631.968 732.175 631.847 731.533 631.708C730.909 631.569 730.337 631.37 729.817 631.11C729.297 630.833 728.873 630.46 728.543 629.992C728.231 629.524 728.075 628.9 728.075 628.12C728.075 627.375 728.283 626.707 728.699 626.118C729.115 625.529 729.722 625.069 730.519 624.74C731.334 624.393 732.322 624.22 733.483 624.22C734.367 624.22 735.251 624.341 736.135 624.584C737.019 624.809 737.747 625.113 738.319 625.494L737.513 626.976C736.907 626.56 736.257 626.265 735.563 626.092C734.87 625.901 734.177 625.806 733.483 625.806C732.253 625.806 731.343 626.023 730.753 626.456C730.181 626.872 729.895 627.409 729.895 628.068C729.895 628.588 730.051 628.995 730.363 629.29C730.693 629.585 731.117 629.819 731.637 629.992C732.175 630.148 732.755 630.278 733.379 630.382C734.021 630.486 734.653 630.616 735.277 630.772C735.919 630.911 736.499 631.11 737.019 631.37C737.557 631.613 737.981 631.968 738.293 632.436C738.623 632.887 738.787 633.485 738.787 634.23C738.787 635.027 738.562 635.721 738.111 636.31C737.678 636.882 737.037 637.333 736.187 637.662C735.355 637.974 734.341 638.13 733.145 638.13ZM746.491 638.13C745.208 638.13 744.22 637.783 743.527 637.09C742.833 636.397 742.487 635.417 742.487 634.152V621.334H744.333V634.048C744.333 634.845 744.532 635.461 744.931 635.894C745.347 636.327 745.936 636.544 746.699 636.544C747.513 636.544 748.189 636.31 748.727 635.842L749.377 637.168C749.013 637.497 748.571 637.74 748.051 637.896C747.548 638.052 747.028 638.13 746.491 638.13ZM740.043 625.884V624.35H748.493V625.884H740.043ZM753.127 638V619.8H754.713L767.271 635.608H766.439V619.8H768.337V638H766.751L754.219 622.192H755.051V638H753.127ZM782.441 638V634.984L782.363 634.49V629.446C782.363 628.285 782.034 627.392 781.375 626.768C780.734 626.144 779.772 625.832 778.489 625.832C777.605 625.832 776.765 625.979 775.967 626.274C775.17 626.569 774.494 626.959 773.939 627.444L773.107 626.066C773.801 625.477 774.633 625.026 775.603 624.714C776.574 624.385 777.597 624.22 778.671 624.22C780.439 624.22 781.8 624.662 782.753 625.546C783.724 626.413 784.209 627.739 784.209 629.524V638H782.441ZM777.735 638.13C776.713 638.13 775.82 637.965 775.057 637.636C774.312 637.289 773.74 636.821 773.341 636.232C772.943 635.625 772.743 634.932 772.743 634.152C772.743 633.441 772.908 632.8 773.237 632.228C773.584 631.639 774.139 631.171 774.901 630.824C775.681 630.46 776.721 630.278 778.021 630.278H782.727V631.656H778.073C776.756 631.656 775.837 631.89 775.317 632.358C774.815 632.826 774.563 633.407 774.563 634.1C774.563 634.88 774.867 635.504 775.473 635.972C776.08 636.44 776.929 636.674 778.021 636.674C779.061 636.674 779.954 636.44 780.699 635.972C781.462 635.487 782.017 634.793 782.363 633.892L782.779 635.166C782.433 636.067 781.826 636.787 780.959 637.324C780.11 637.861 779.035 638.13 777.735 638.13ZM806.279 624.22C807.389 624.22 808.351 624.437 809.165 624.87C809.997 625.286 810.639 625.927 811.089 626.794C811.557 627.661 811.791 628.753 811.791 630.07V638H809.945V630.252C809.945 628.813 809.599 627.73 808.905 627.002C808.229 626.257 807.267 625.884 806.019 625.884C805.083 625.884 804.269 626.083 803.575 626.482C802.899 626.863 802.371 627.427 801.989 628.172C801.625 628.9 801.443 629.784 801.443 630.824V638H799.597V630.252C799.597 628.813 799.251 627.73 798.557 627.002C797.864 626.257 796.893 625.884 795.645 625.884C794.727 625.884 793.921 626.083 793.227 626.482C792.534 626.863 791.997 627.427 791.615 628.172C791.251 628.9 791.069 629.784 791.069 630.824V638H789.223V624.35H790.991V628.042L790.705 627.392C791.121 626.404 791.789 625.633 792.707 625.078C793.643 624.506 794.744 624.22 796.009 624.22C797.344 624.22 798.479 624.558 799.415 625.234C800.351 625.893 800.958 626.889 801.235 628.224L800.507 627.938C800.906 626.829 801.608 625.936 802.613 625.26C803.636 624.567 804.858 624.22 806.279 624.22ZM822.596 638.13C821.174 638.13 819.926 637.835 818.852 637.246C817.777 636.639 816.936 635.816 816.33 634.776C815.723 633.719 815.42 632.514 815.42 631.162C815.42 629.81 815.706 628.614 816.278 627.574C816.867 626.534 817.664 625.719 818.67 625.13C819.692 624.523 820.836 624.22 822.102 624.22C823.384 624.22 824.52 624.515 825.508 625.104C826.513 625.676 827.302 626.491 827.874 627.548C828.446 628.588 828.732 629.793 828.732 631.162C828.732 631.249 828.723 631.344 828.706 631.448C828.706 631.535 828.706 631.63 828.706 631.734H816.824V630.356H827.718L826.99 630.902C826.99 629.914 826.773 629.039 826.34 628.276C825.924 627.496 825.352 626.889 824.624 626.456C823.896 626.023 823.055 625.806 822.102 625.806C821.166 625.806 820.325 626.023 819.58 626.456C818.834 626.889 818.254 627.496 817.838 628.276C817.422 629.056 817.214 629.949 817.214 630.954V631.24C817.214 632.28 817.439 633.199 817.89 633.996C818.358 634.776 818.999 635.391 819.814 635.842C820.646 636.275 821.59 636.492 822.648 636.492C823.48 636.492 824.251 636.345 824.962 636.05C825.69 635.755 826.314 635.305 826.834 634.698L827.874 635.894C827.267 636.622 826.504 637.177 825.586 637.558C824.684 637.939 823.688 638.13 822.596 638.13Z" fill="#776A6A"/>
<path d="M697.636 748V729.8H699.56V746.336H709.752V748H697.636ZM721.11 748V744.984L721.032 744.49V739.446C721.032 738.285 720.703 737.392 720.044 736.768C719.403 736.144 718.441 735.832 717.158 735.832C716.274 735.832 715.434 735.979 714.636 736.274C713.839 736.569 713.163 736.959 712.608 737.444L711.776 736.066C712.47 735.477 713.302 735.026 714.272 734.714C715.243 734.385 716.266 734.22 717.34 734.22C719.108 734.22 720.469 734.662 721.422 735.546C722.393 736.413 722.878 737.739 722.878 739.524V748H721.11ZM716.404 748.13C715.382 748.13 714.489 747.965 713.726 747.636C712.981 747.289 712.409 746.821 712.01 746.232C711.612 745.625 711.412 744.932 711.412 744.152C711.412 743.441 711.577 742.8 711.906 742.228C712.253 741.639 712.808 741.171 713.57 740.824C714.35 740.46 715.39 740.278 716.69 740.278H721.396V741.656H716.742C715.425 741.656 714.506 741.89 713.986 742.358C713.484 742.826 713.232 743.407 713.232 744.1C713.232 744.88 713.536 745.504 714.142 745.972C714.749 746.44 715.598 746.674 716.69 746.674C717.73 746.674 718.623 746.44 719.368 745.972C720.131 745.487 720.686 744.793 721.032 743.892L721.448 745.166C721.102 746.067 720.495 746.787 719.628 747.324C718.779 747.861 717.704 748.13 716.404 748.13ZM731.558 748.13C730.432 748.13 729.366 747.974 728.36 747.662C727.355 747.333 726.566 746.925 725.994 746.44L726.826 744.984C727.381 745.4 728.092 745.764 728.958 746.076C729.825 746.371 730.735 746.518 731.688 746.518C732.988 746.518 733.924 746.319 734.496 745.92C735.068 745.504 735.354 744.958 735.354 744.282C735.354 743.779 735.19 743.389 734.86 743.112C734.548 742.817 734.132 742.601 733.612 742.462C733.092 742.306 732.512 742.176 731.87 742.072C731.229 741.968 730.588 741.847 729.946 741.708C729.322 741.569 728.75 741.37 728.23 741.11C727.71 740.833 727.286 740.46 726.956 739.992C726.644 739.524 726.488 738.9 726.488 738.12C726.488 737.375 726.696 736.707 727.112 736.118C727.528 735.529 728.135 735.069 728.932 734.74C729.747 734.393 730.735 734.22 731.896 734.22C732.78 734.22 733.664 734.341 734.548 734.584C735.432 734.809 736.16 735.113 736.732 735.494L735.926 736.976C735.32 736.56 734.67 736.265 733.976 736.092C733.283 735.901 732.59 735.806 731.896 735.806C730.666 735.806 729.756 736.023 729.166 736.456C728.594 736.872 728.308 737.409 728.308 738.068C728.308 738.588 728.464 738.995 728.776 739.29C729.106 739.585 729.53 739.819 730.05 739.992C730.588 740.148 731.168 740.278 731.792 740.382C732.434 740.486 733.066 740.616 733.69 740.772C734.332 740.911 734.912 741.11 735.432 741.37C735.97 741.613 736.394 741.968 736.706 742.436C737.036 742.887 737.2 743.485 737.2 744.23C737.2 745.027 736.975 745.721 736.524 746.31C736.091 746.882 735.45 747.333 734.6 747.662C733.768 747.974 732.754 748.13 731.558 748.13ZM744.904 748.13C743.621 748.13 742.633 747.783 741.94 747.09C741.246 746.397 740.9 745.417 740.9 744.152V731.334H742.746V744.048C742.746 744.845 742.945 745.461 743.344 745.894C743.76 746.327 744.349 746.544 745.112 746.544C745.926 746.544 746.602 746.31 747.14 745.842L747.79 747.168C747.426 747.497 746.984 747.74 746.464 747.896C745.961 748.052 745.441 748.13 744.904 748.13ZM738.456 735.884V734.35H746.906V735.884H738.456ZM751.54 748V729.8H753.126L765.684 745.608H764.852V729.8H766.75V748H765.164L752.632 732.192H753.464V748H751.54ZM780.855 748V744.984L780.777 744.49V739.446C780.777 738.285 780.447 737.392 779.789 736.768C779.147 736.144 778.185 735.832 776.903 735.832C776.019 735.832 775.178 735.979 774.381 736.274C773.583 736.569 772.907 736.959 772.353 737.444L771.521 736.066C772.214 735.477 773.046 735.026 774.017 734.714C774.987 734.385 776.01 734.22 777.085 734.22C778.853 734.22 780.213 734.662 781.167 735.546C782.137 736.413 782.623 737.739 782.623 739.524V748H780.855ZM776.149 748.13C775.126 748.13 774.233 747.965 773.471 747.636C772.725 747.289 772.153 746.821 771.755 746.232C771.356 745.625 771.157 744.932 771.157 744.152C771.157 743.441 771.321 742.8 771.651 742.228C771.997 741.639 772.552 741.171 773.315 740.824C774.095 740.46 775.135 740.278 776.435 740.278H781.141V741.656H776.487C775.169 741.656 774.251 741.89 773.731 742.358C773.228 742.826 772.977 743.407 772.977 744.1C772.977 744.88 773.28 745.504 773.887 745.972C774.493 746.44 775.343 746.674 776.435 746.674C777.475 746.674 778.367 746.44 779.113 745.972C779.875 745.487 780.43 744.793 780.777 743.892L781.193 745.166C780.846 746.067 780.239 746.787 779.373 747.324C778.523 747.861 777.449 748.13 776.149 748.13ZM804.693 734.22C805.802 734.22 806.764 734.437 807.579 734.87C808.411 735.286 809.052 735.927 809.503 736.794C809.971 737.661 810.205 738.753 810.205 740.07V748H808.359V740.252C808.359 738.813 808.012 737.73 807.319 737.002C806.643 736.257 805.681 735.884 804.433 735.884C803.497 735.884 802.682 736.083 801.989 736.482C801.313 736.863 800.784 737.427 800.403 738.172C800.039 738.9 799.857 739.784 799.857 740.824V748H798.011V740.252C798.011 738.813 797.664 737.73 796.971 737.002C796.277 736.257 795.307 735.884 794.059 735.884C793.14 735.884 792.334 736.083 791.641 736.482C790.947 736.863 790.41 737.427 790.029 738.172C789.665 738.9 789.483 739.784 789.483 740.824V748H787.637V734.35H789.405V738.042L789.119 737.392C789.535 736.404 790.202 735.633 791.121 735.078C792.057 734.506 793.157 734.22 794.423 734.22C795.757 734.22 796.893 734.558 797.829 735.234C798.765 735.893 799.371 736.889 799.649 738.224L798.921 737.938C799.319 736.829 800.021 735.936 801.027 735.26C802.049 734.567 803.271 734.22 804.693 734.22ZM821.009 748.13C819.587 748.13 818.339 747.835 817.265 747.246C816.19 746.639 815.349 745.816 814.743 744.776C814.136 743.719 813.833 742.514 813.833 741.162C813.833 739.81 814.119 738.614 814.691 737.574C815.28 736.534 816.077 735.719 817.083 735.13C818.105 734.523 819.249 734.22 820.515 734.22C821.797 734.22 822.933 734.515 823.921 735.104C824.926 735.676 825.715 736.491 826.287 737.548C826.859 738.588 827.145 739.793 827.145 741.162C827.145 741.249 827.136 741.344 827.119 741.448C827.119 741.535 827.119 741.63 827.119 741.734H815.237V740.356H826.131L825.403 740.902C825.403 739.914 825.186 739.039 824.753 738.276C824.337 737.496 823.765 736.889 823.037 736.456C822.309 736.023 821.468 735.806 820.515 735.806C819.579 735.806 818.738 736.023 817.993 736.456C817.247 736.889 816.667 737.496 816.251 738.276C815.835 739.056 815.627 739.949 815.627 740.954V741.24C815.627 742.28 815.852 743.199 816.303 743.996C816.771 744.776 817.412 745.391 818.227 745.842C819.059 746.275 820.003 746.492 821.061 746.492C821.893 746.492 822.664 746.345 823.375 746.05C824.103 745.755 824.727 745.305 825.247 744.698L826.287 745.894C825.68 746.622 824.917 747.177 823.999 747.558C823.097 747.939 822.101 748.13 821.009 748.13Z" fill="#776A6A"/>
<path d="M695.193 858V839.8H702.005C703.548 839.8 704.874 840.051 705.983 840.554C707.093 841.039 707.942 841.75 708.531 842.686C709.138 843.605 709.441 844.723 709.441 846.04C709.441 847.323 709.138 848.432 708.531 849.368C707.942 850.287 707.093 850.997 705.983 851.5C704.874 852.003 703.548 852.254 702.005 852.254H696.259L697.117 851.344V858H695.193ZM697.117 851.5L696.259 850.564H701.953C703.773 850.564 705.151 850.174 706.087 849.394C707.041 848.597 707.517 847.479 707.517 846.04C707.517 844.584 707.041 843.457 706.087 842.66C705.151 841.863 703.773 841.464 701.953 841.464H696.259L697.117 840.554V851.5ZM720.434 844.22C721.543 844.22 722.514 844.437 723.346 844.87C724.195 845.286 724.854 845.927 725.322 846.794C725.807 847.661 726.05 848.753 726.05 850.07V858H724.204V850.252C724.204 848.813 723.84 847.73 723.112 847.002C722.401 846.257 721.396 845.884 720.096 845.884C719.125 845.884 718.276 846.083 717.548 846.482C716.837 846.863 716.282 847.427 715.884 848.172C715.502 848.9 715.312 849.784 715.312 850.824V858H713.466V838.708H715.312V848.094L714.948 847.392C715.381 846.404 716.074 845.633 717.028 845.078C717.981 844.506 719.116 844.22 720.434 844.22ZM736.6 858.13C735.283 858.13 734.095 857.835 733.038 857.246C731.998 856.639 731.175 855.816 730.568 854.776C729.961 853.719 729.658 852.514 729.658 851.162C729.658 849.793 729.961 848.588 730.568 847.548C731.175 846.508 731.998 845.693 733.038 845.104C734.078 844.515 735.265 844.22 736.6 844.22C737.952 844.22 739.148 844.515 740.188 845.104C741.245 845.693 742.069 846.508 742.658 847.548C743.265 848.588 743.568 849.793 743.568 851.162C743.568 852.514 743.265 853.719 742.658 854.776C742.069 855.816 741.245 856.639 740.188 857.246C739.131 857.835 737.935 858.13 736.6 858.13ZM736.6 856.492C737.588 856.492 738.463 856.275 739.226 855.842C739.989 855.391 740.587 854.767 741.02 853.97C741.471 853.155 741.696 852.219 741.696 851.162C741.696 850.087 741.471 849.151 741.02 848.354C740.587 847.557 739.989 846.941 739.226 846.508C738.463 846.057 737.597 845.832 736.626 845.832C735.655 845.832 734.789 846.057 734.026 846.508C733.263 846.941 732.657 847.557 732.206 848.354C731.755 849.151 731.53 850.087 731.53 851.162C731.53 852.219 731.755 853.155 732.206 853.97C732.657 854.767 733.263 855.391 734.026 855.842C734.789 856.275 735.647 856.492 736.6 856.492ZM754.305 844.22C755.414 844.22 756.385 844.437 757.217 844.87C758.066 845.286 758.725 845.927 759.193 846.794C759.678 847.661 759.921 848.753 759.921 850.07V858H758.075V850.252C758.075 848.813 757.711 847.73 756.983 847.002C756.272 846.257 755.267 845.884 753.967 845.884C752.996 845.884 752.147 846.083 751.419 846.482C750.708 846.863 750.153 847.427 749.755 848.172C749.373 848.9 749.183 849.784 749.183 850.824V858H747.337V844.35H749.105V848.094L748.819 847.392C749.252 846.404 749.945 845.633 750.899 845.078C751.852 844.506 752.987 844.22 754.305 844.22ZM770.705 858.13C769.284 858.13 768.036 857.835 766.961 857.246C765.886 856.639 765.046 855.816 764.439 854.776C763.832 853.719 763.529 852.514 763.529 851.162C763.529 849.81 763.815 848.614 764.387 847.574C764.976 846.534 765.774 845.719 766.779 845.13C767.802 844.523 768.946 844.22 770.211 844.22C771.494 844.22 772.629 844.515 773.617 845.104C774.622 845.676 775.411 846.491 775.983 847.548C776.555 848.588 776.841 849.793 776.841 851.162C776.841 851.249 776.832 851.344 776.815 851.448C776.815 851.535 776.815 851.63 776.815 851.734H764.933V850.356H775.827L775.099 850.902C775.099 849.914 774.882 849.039 774.449 848.276C774.033 847.496 773.461 846.889 772.733 846.456C772.005 846.023 771.164 845.806 770.211 845.806C769.275 845.806 768.434 846.023 767.689 846.456C766.944 846.889 766.363 847.496 765.947 848.276C765.531 849.056 765.323 849.949 765.323 850.954V851.24C765.323 852.28 765.548 853.199 765.999 853.996C766.467 854.776 767.108 855.391 767.923 855.842C768.755 856.275 769.7 856.492 770.757 856.492C771.589 856.492 772.36 856.345 773.071 856.05C773.799 855.755 774.423 855.305 774.943 854.698L775.983 855.894C775.376 856.622 774.614 857.177 773.695 857.558C772.794 857.939 771.797 858.13 770.705 858.13ZM787.793 858V839.8H789.379L801.937 855.608H801.105V839.8H803.003V858H801.417L788.885 842.192H789.717V858H787.793ZM814.195 858.13C813.034 858.13 812.02 857.913 811.153 857.48C810.287 857.047 809.611 856.397 809.125 855.53C808.657 854.663 808.423 853.58 808.423 852.28V844.35H810.269V852.072C810.269 853.528 810.625 854.629 811.335 855.374C812.063 856.102 813.077 856.466 814.377 856.466C815.331 856.466 816.154 856.275 816.847 855.894C817.558 855.495 818.095 854.923 818.459 854.178C818.841 853.433 819.031 852.54 819.031 851.5V844.35H820.877V858H819.109V854.256L819.395 854.932C818.962 855.937 818.286 856.726 817.367 857.298C816.466 857.853 815.409 858.13 814.195 858.13ZM843.078 844.22C844.188 844.22 845.15 844.437 845.964 844.87C846.796 845.286 847.438 845.927 847.888 846.794C848.356 847.661 848.59 848.753 848.59 850.07V858H846.744V850.252C846.744 848.813 846.398 847.73 845.704 847.002C845.028 846.257 844.066 845.884 842.818 845.884C841.882 845.884 841.068 846.083 840.374 846.482C839.698 846.863 839.17 847.427 838.788 848.172C838.424 848.9 838.242 849.784 838.242 850.824V858H836.396V850.252C836.396 848.813 836.05 847.73 835.356 847.002C834.663 846.257 833.692 845.884 832.444 845.884C831.526 845.884 830.72 846.083 830.026 846.482C829.333 846.863 828.796 847.427 828.414 848.172C828.05 848.9 827.868 849.784 827.868 850.824V858H826.022V844.35H827.79V848.042L827.504 847.392C827.92 846.404 828.588 845.633 829.506 845.078C830.442 844.506 831.543 844.22 832.808 844.22C834.143 844.22 835.278 844.558 836.214 845.234C837.15 845.893 837.757 846.889 838.034 848.224L837.306 847.938C837.705 846.829 838.407 845.936 839.412 845.26C840.435 844.567 841.657 844.22 843.078 844.22ZM860.642 858.13C859.446 858.13 858.372 857.861 857.418 857.324C856.465 856.769 855.711 855.972 855.156 854.932C854.602 853.892 854.324 852.635 854.324 851.162C854.324 849.671 854.602 848.415 855.156 847.392C855.728 846.352 856.491 845.563 857.444 845.026C858.398 844.489 859.464 844.22 860.642 844.22C861.942 844.22 863.104 844.515 864.126 845.104C865.166 845.676 865.981 846.482 866.57 847.522C867.16 848.562 867.454 849.775 867.454 851.162C867.454 852.531 867.16 853.745 866.57 854.802C865.981 855.842 865.166 856.657 864.126 857.246C863.104 857.835 861.942 858.13 860.642 858.13ZM853.596 858V838.708H855.442V848.38L855.182 851.136L855.364 853.892V858H853.596ZM860.512 856.492C861.483 856.492 862.35 856.275 863.112 855.842C863.875 855.391 864.482 854.767 864.932 853.97C865.383 853.155 865.608 852.219 865.608 851.162C865.608 850.087 865.383 849.151 864.932 848.354C864.482 847.557 863.875 846.941 863.112 846.508C862.35 846.057 861.483 845.832 860.512 845.832C859.542 845.832 858.666 846.057 857.886 846.508C857.124 846.941 856.517 847.557 856.066 848.354C855.633 849.151 855.416 850.087 855.416 851.162C855.416 852.219 855.633 853.155 856.066 853.97C856.517 854.767 857.124 855.391 857.886 855.842C858.666 856.275 859.542 856.492 860.512 856.492ZM877.016 858.13C875.594 858.13 874.346 857.835 873.272 857.246C872.197 856.639 871.356 855.816 870.75 854.776C870.143 853.719 869.84 852.514 869.84 851.162C869.84 849.81 870.126 848.614 870.698 847.574C871.287 846.534 872.084 845.719 873.09 845.13C874.112 844.523 875.256 844.22 876.522 844.22C877.804 844.22 878.94 844.515 879.928 845.104C880.933 845.676 881.722 846.491 882.294 847.548C882.866 848.588 883.152 849.793 883.152 851.162C883.152 851.249 883.143 851.344 883.126 851.448C883.126 851.535 883.126 851.63 883.126 851.734H871.244V850.356H882.138L881.41 850.902C881.41 849.914 881.193 849.039 880.76 848.276C880.344 847.496 879.772 846.889 879.044 846.456C878.316 846.023 877.475 845.806 876.522 845.806C875.586 845.806 874.745 846.023 874 846.456C873.254 846.889 872.674 847.496 872.258 848.276C871.842 849.056 871.634 849.949 871.634 850.954V851.24C871.634 852.28 871.859 853.199 872.31 853.996C872.778 854.776 873.419 855.391 874.234 855.842C875.066 856.275 876.01 856.492 877.068 856.492C877.9 856.492 878.671 856.345 879.382 856.05C880.11 855.755 880.734 855.305 881.254 854.698L882.294 855.894C881.687 856.622 880.924 857.177 880.006 857.558C879.104 857.939 878.108 858.13 877.016 858.13ZM886.909 858V844.35H888.677V848.068L888.495 847.418C888.876 846.378 889.518 845.589 890.419 845.052C891.32 844.497 892.438 844.22 893.773 844.22V846.014C893.704 846.014 893.634 846.014 893.565 846.014C893.496 845.997 893.426 845.988 893.357 845.988C891.918 845.988 890.792 846.43 889.977 847.314C889.162 848.181 888.755 849.42 888.755 851.032V858H886.909Z" fill="#7F7373"/>
<g filter="url(#filter2_d_211_374)">
<rect x="687" y="432" width="550" height="49" rx="18" fill="white"/>
</g>
<path d="M710.6 465.56V464C711.133 464.347 711.693 464.52 712.28 464.52C713.44 464.52 714.02 463.907 714.02 462.68V452.52H715.64V462.54C715.64 464.847 714.593 466 712.5 466C711.753 466 711.12 465.853 710.6 465.56ZM720.188 451.86V457.62C720.788 456.353 721.855 455.72 723.388 455.72C724.361 455.72 725.141 456.02 725.728 456.62C726.328 457.22 726.628 458.033 726.628 459.06V466H725.048V459.44C725.048 458.707 724.855 458.14 724.468 457.74C724.095 457.34 723.601 457.14 722.988 457.14C722.241 457.14 721.588 457.427 721.028 458C720.468 458.573 720.188 459.393 720.188 460.46V466H718.628V451.86H720.188ZM733.549 466.18C732.095 466.18 730.942 465.693 730.089 464.72C729.249 463.733 728.829 462.493 728.829 461C728.829 459.493 729.262 458.24 730.129 457.24C731.009 456.227 732.149 455.72 733.549 455.72C735.082 455.72 736.262 456.213 737.089 457.2C737.929 458.187 738.349 459.44 738.349 460.96C738.349 462.467 737.922 463.713 737.069 464.7C736.215 465.687 735.042 466.18 733.549 466.18ZM733.549 457.12C732.589 457.12 731.835 457.493 731.289 458.24C730.742 458.987 730.469 459.9 730.469 460.98C730.469 462.033 730.749 462.933 731.309 463.68C731.869 464.413 732.615 464.78 733.549 464.78C734.562 464.78 735.342 464.42 735.889 463.7C736.435 462.967 736.709 462.06 736.709 460.98C736.709 459.86 736.449 458.94 735.929 458.22C735.409 457.487 734.615 457.12 733.549 457.12ZM742.219 455.86V457.62C742.819 456.353 743.886 455.72 745.419 455.72C746.406 455.72 747.193 456.02 747.779 456.62C748.366 457.22 748.659 458.02 748.659 459.02V466H747.079V459.44C747.079 458.693 746.886 458.127 746.499 457.74C746.126 457.34 745.633 457.14 745.019 457.14C744.259 457.14 743.599 457.433 743.039 458.02C742.493 458.607 742.219 459.42 742.219 460.46V466H740.659V455.86H742.219ZM753.02 455.86V457.62C753.62 456.353 754.687 455.72 756.22 455.72C757.207 455.72 757.993 456.02 758.58 456.62C759.167 457.22 759.46 458.02 759.46 459.02V466H757.88V459.44C757.88 458.693 757.687 458.127 757.3 457.74C756.927 457.34 756.433 457.14 755.82 457.14C755.06 457.14 754.4 457.433 753.84 458.02C753.293 458.607 753.02 459.42 753.02 460.46V466H751.46V455.86H753.02ZM765.061 465.74L760.961 455.86H762.741L764.061 459.2L765.841 463.8C765.947 463.453 766.481 461.92 767.441 459.2L768.621 455.86H770.321L766.661 465.74C766.141 467.113 765.521 468.08 764.801 468.64C764.094 469.2 763.281 469.48 762.361 469.48C762.014 469.48 761.734 469.447 761.521 469.38V467.96C761.721 468.013 761.947 468.04 762.201 468.04C763.547 468.04 764.501 467.273 765.061 465.74ZM774.044 454.3V458.22C774.644 458.087 775.164 458.02 775.604 458.02C776.937 458.02 777.991 458.373 778.764 459.08C779.551 459.787 779.944 460.733 779.944 461.92C779.944 463.213 779.517 464.247 778.664 465.02C777.824 465.78 776.671 466.16 775.204 466.16C773.884 466.16 772.764 465.933 771.844 465.48V463.92C772.697 464.427 773.731 464.68 774.944 464.68C777.184 464.68 778.304 463.74 778.304 461.86C778.304 461.1 778.044 460.513 777.524 460.1C777.004 459.673 776.331 459.46 775.504 459.46C774.531 459.46 773.524 459.693 772.484 460.16V452.92H779.044V454.3H774.044ZM786.52 464.76C787.28 464.76 787.88 464.48 788.32 463.92C788.773 463.36 789 462.627 789 461.72C789 460.893 788.773 460.233 788.32 459.74C787.88 459.247 787.3 459 786.58 459C785.38 459 784.34 459.487 783.46 460.46C783.513 461.873 783.813 462.947 784.36 463.68C784.92 464.4 785.64 464.76 786.52 464.76ZM789.72 452.84V454.38C789.147 454.127 788.54 454 787.9 454C786.647 454 785.647 454.473 784.9 455.42C784.153 456.353 783.693 457.533 783.52 458.96C784.4 458.04 785.487 457.58 786.78 457.58C787.98 457.58 788.92 457.96 789.6 458.72C790.293 459.48 790.64 460.487 790.64 461.74C790.64 463.073 790.26 464.153 789.5 464.98C788.753 465.807 787.76 466.22 786.52 466.22C785.027 466.22 783.88 465.653 783.08 464.52C782.28 463.387 781.88 461.907 781.88 460.08C781.88 457.907 782.413 456.107 783.48 454.68C784.547 453.253 786.013 452.54 787.88 452.54C788.48 452.54 789.093 452.64 789.72 452.84ZM796.667 464.76C797.561 464.76 798.247 464.54 798.727 464.1C799.207 463.66 799.447 463.113 799.447 462.46C799.447 461.82 799.214 461.28 798.747 460.84C798.281 460.4 797.587 460.187 796.667 460.2C795.774 460.213 795.101 460.453 794.647 460.92C794.207 461.373 793.987 461.94 793.987 462.62C793.987 463.233 794.221 463.747 794.687 464.16C795.154 464.56 795.814 464.76 796.667 464.76ZM796.647 454.18C795.901 454.18 795.307 454.4 794.867 454.84C794.427 455.28 794.207 455.813 794.207 456.44C794.207 457.2 794.441 457.773 794.907 458.16C795.387 458.547 795.994 458.74 796.727 458.74C797.434 458.74 798.014 458.54 798.467 458.14C798.921 457.727 799.147 457.153 799.147 456.42C799.147 455.78 798.934 455.247 798.507 454.82C798.081 454.393 797.461 454.18 796.647 454.18ZM798.647 459.44C800.261 459.933 801.067 460.987 801.067 462.6C801.067 463.68 800.647 464.547 799.807 465.2C798.967 465.84 797.914 466.16 796.647 466.16C795.434 466.16 794.421 465.847 793.607 465.22C792.794 464.593 792.387 463.753 792.387 462.7C792.387 461.913 792.594 461.247 793.007 460.7C793.434 460.14 794.014 459.733 794.747 459.48C793.321 458.933 792.607 457.927 792.607 456.46C792.607 455.3 793.007 454.4 793.807 453.76C794.607 453.107 795.554 452.78 796.647 452.78C797.781 452.78 798.747 453.1 799.547 453.74C800.347 454.367 800.747 455.28 800.747 456.48C800.747 457.16 800.561 457.76 800.187 458.28C799.814 458.787 799.301 459.173 798.647 459.44Z" fill="black"/>
<g filter="url(#filter3_d_211_374)">
<rect x="687" y="547" width="550" height="49" rx="18" fill="white"/>
</g>
<path d="M709.08 584.6V583.2C709.587 583.413 710.04 583.52 710.44 583.52C711.187 583.52 711.56 583.033 711.56 582.06V570.86H713.12V582.1C713.12 582.98 712.887 583.667 712.42 584.16C711.967 584.653 711.333 584.9 710.52 584.9C710.08 584.9 709.6 584.8 709.08 584.6ZM711.58 568.42C711.393 568.22 711.3 567.973 711.3 567.68C711.3 567.387 711.393 567.14 711.58 566.94C711.78 566.74 712.027 566.64 712.32 566.64C712.613 566.64 712.86 566.74 713.06 566.94C713.26 567.14 713.36 567.387 713.36 567.68C713.36 567.973 713.26 568.22 713.06 568.42C712.86 568.607 712.613 568.7 712.32 568.7C712.027 568.7 711.78 568.607 711.58 568.42ZM717.571 566.86V572.62C718.171 571.353 719.237 570.72 720.771 570.72C721.744 570.72 722.524 571.02 723.111 571.62C723.711 572.22 724.011 573.033 724.011 574.06V581H722.431V574.44C722.431 573.707 722.237 573.14 721.851 572.74C721.477 572.34 720.984 572.14 720.371 572.14C719.624 572.14 718.971 572.427 718.411 573C717.851 573.573 717.571 574.393 717.571 575.46V581H716.011V566.86H717.571ZM730.932 581.18C729.478 581.18 728.325 580.693 727.472 579.72C726.632 578.733 726.212 577.493 726.212 576C726.212 574.493 726.645 573.24 727.512 572.24C728.392 571.227 729.532 570.72 730.932 570.72C732.465 570.72 733.645 571.213 734.472 572.2C735.312 573.187 735.732 574.44 735.732 575.96C735.732 577.467 735.305 578.713 734.452 579.7C733.598 580.687 732.425 581.18 730.932 581.18ZM730.932 572.12C729.972 572.12 729.218 572.493 728.672 573.24C728.125 573.987 727.852 574.9 727.852 575.98C727.852 577.033 728.132 577.933 728.692 578.68C729.252 579.413 729.998 579.78 730.932 579.78C731.945 579.78 732.725 579.42 733.272 578.7C733.818 577.967 734.092 577.06 734.092 575.98C734.092 574.86 733.832 573.94 733.312 573.22C732.792 572.487 731.998 572.12 730.932 572.12ZM739.602 570.86V572.62C740.202 571.353 741.269 570.72 742.802 570.72C743.789 570.72 744.575 571.02 745.162 571.62C745.749 572.22 746.042 573.02 746.042 574.02V581H744.462V574.44C744.462 573.693 744.269 573.127 743.882 572.74C743.509 572.34 743.015 572.14 742.402 572.14C741.642 572.14 740.982 572.433 740.422 573.02C739.875 573.607 739.602 574.42 739.602 575.46V581H738.042V570.86H739.602ZM752.703 579.72C753.529 579.72 754.229 579.413 754.803 578.8C755.389 578.187 755.683 577.207 755.683 575.86C755.683 574.58 755.383 573.64 754.783 573.04C754.183 572.44 753.523 572.14 752.803 572.14C751.963 572.14 751.263 572.48 750.703 573.16C750.156 573.827 749.883 574.787 749.883 576.04C749.883 577.133 750.149 578.02 750.683 578.7C751.216 579.38 751.889 579.72 752.703 579.72ZM755.683 566.86H757.263V581H755.683V579.5C754.963 580.607 753.923 581.16 752.563 581.16C751.216 581.16 750.156 580.66 749.383 579.66C748.623 578.66 748.243 577.447 748.243 576.02C748.243 574.433 748.649 573.153 749.463 572.18C750.276 571.193 751.323 570.7 752.603 570.7C753.923 570.7 754.949 571.267 755.683 572.4V566.86ZM764.31 581.18C762.857 581.18 761.704 580.693 760.85 579.72C760.01 578.733 759.59 577.493 759.59 576C759.59 574.493 760.024 573.24 760.89 572.24C761.77 571.227 762.91 570.72 764.31 570.72C765.844 570.72 767.024 571.213 767.85 572.2C768.69 573.187 769.11 574.44 769.11 575.96C769.11 577.467 768.684 578.713 767.83 579.7C766.977 580.687 765.804 581.18 764.31 581.18ZM764.31 572.12C763.35 572.12 762.597 572.493 762.05 573.24C761.504 573.987 761.23 574.9 761.23 575.98C761.23 577.033 761.51 577.933 762.07 578.68C762.63 579.413 763.377 579.78 764.31 579.78C765.324 579.78 766.104 579.42 766.65 578.7C767.197 577.967 767.47 577.06 767.47 575.98C767.47 574.86 767.21 573.94 766.69 573.22C766.17 572.487 765.377 572.12 764.31 572.12ZM777.881 575.28V574.88C777.881 574.04 777.654 573.373 777.201 572.88C776.748 572.373 776.121 572.12 775.321 572.12C774.561 572.12 773.914 572.393 773.381 572.94C772.848 573.487 772.534 574.267 772.441 575.28H777.881ZM778.821 579V580.48C778.034 580.893 777.074 581.1 775.941 581.1C774.408 581.1 773.168 580.633 772.221 579.7C771.288 578.753 770.821 577.507 770.821 575.96C770.821 574.347 771.241 573.073 772.081 572.14C772.921 571.207 774.001 570.74 775.321 570.74C776.588 570.74 777.594 571.147 778.341 571.96C779.088 572.773 779.461 573.927 779.461 575.42C779.461 575.847 779.428 576.24 779.361 576.6H772.441C772.561 577.6 772.941 578.367 773.581 578.9C774.221 579.433 775.061 579.7 776.101 579.7C777.234 579.7 778.141 579.467 778.821 579ZM788.99 579.34C789.523 579.34 790.023 579.153 790.49 578.78C790.97 578.407 791.317 577.887 791.53 577.22C791.557 576.74 791.583 576.373 791.61 576.12C791.397 574.72 790.677 574.02 789.45 574.02C788.757 574.02 788.183 574.313 787.73 574.9C787.277 575.487 787.05 576.2 787.05 577.04C787.05 577.733 787.23 578.293 787.59 578.72C787.95 579.133 788.417 579.34 788.99 579.34ZM792.29 582.14L792.21 583.68C791.317 584.133 790.143 584.36 788.69 584.36C786.517 584.36 784.79 583.673 783.51 582.3C782.243 580.94 781.61 579.2 781.61 577.08C781.61 574.693 782.45 572.707 784.13 571.12C785.81 569.533 787.843 568.74 790.23 568.74C792.283 568.74 794.017 569.38 795.43 570.66C796.857 571.94 797.57 573.627 797.57 575.72C797.57 577.253 797.21 578.447 796.49 579.3C795.77 580.153 794.95 580.58 794.03 580.58C792.803 580.58 792.023 580.007 791.69 578.86C790.983 580.047 789.997 580.64 788.73 580.64C787.743 580.64 786.963 580.293 786.39 579.6C785.83 578.893 785.55 578.013 785.55 576.96C785.55 575.76 785.917 574.753 786.65 573.94C787.397 573.113 788.317 572.7 789.41 572.7C790.477 572.7 791.263 573.127 791.77 573.98C791.77 573.873 791.777 573.693 791.79 573.44C791.817 573.173 791.837 572.96 791.85 572.8H793.17L792.87 575.56C792.817 576.267 792.79 576.84 792.79 577.28C792.79 578.627 793.23 579.3 794.11 579.3C794.697 579.3 795.183 578.98 795.57 578.34C795.97 577.687 796.17 576.847 796.17 575.82C796.17 574.007 795.603 572.6 794.47 571.6C793.35 570.587 791.923 570.08 790.19 570.08C788.27 570.08 786.61 570.753 785.21 572.1C783.823 573.433 783.13 575.093 783.13 577.08C783.13 578.973 783.67 580.433 784.75 581.46C785.843 582.487 787.17 583 788.73 583C790.063 583 791.25 582.713 792.29 582.14ZM803.776 579.34C804.509 579.34 805.156 579.06 805.716 578.5C806.289 577.927 806.576 577.08 806.576 575.96C806.576 574.667 806.302 573.707 805.756 573.08C805.209 572.453 804.576 572.14 803.856 572.14C802.989 572.14 802.302 572.487 801.796 573.18C801.289 573.86 801.036 574.753 801.036 575.86C801.036 576.993 801.316 577.86 801.876 578.46C802.436 579.047 803.069 579.34 803.776 579.34ZM806.576 570.86H808.156V580.18C808.156 581.727 807.729 582.887 806.876 583.66C806.022 584.447 804.922 584.84 803.576 584.84C802.349 584.84 801.302 584.633 800.436 584.22V582.64C801.289 583.133 802.289 583.38 803.436 583.38C804.409 583.38 805.176 583.12 805.736 582.6C806.296 582.08 806.576 581.267 806.576 580.16V579.02C805.909 580.167 804.916 580.74 803.596 580.74C802.436 580.74 801.442 580.313 800.616 579.46C799.802 578.607 799.396 577.42 799.396 575.9C799.396 574.393 799.776 573.153 800.536 572.18C801.296 571.207 802.289 570.72 803.516 570.72C804.902 570.72 805.922 571.327 806.576 572.54V570.86ZM812.512 570.86V572.5C813.072 571.313 814.026 570.72 815.372 570.72C816.932 570.72 817.919 571.38 818.332 572.7C818.626 572.06 819.032 571.573 819.552 571.24C820.086 570.893 820.679 570.72 821.332 570.72C822.386 570.72 823.179 571.02 823.712 571.62C824.246 572.22 824.512 573.027 824.512 574.04V581H822.932V574.44C822.932 572.907 822.286 572.14 820.992 572.14C820.352 572.14 819.779 572.433 819.272 573.02C818.766 573.593 818.512 574.407 818.512 575.46V581H816.932V574.44C816.932 572.907 816.286 572.14 814.992 572.14C814.352 572.14 813.779 572.433 813.272 573.02C812.766 573.593 812.512 574.407 812.512 575.46V581H810.952V570.86H812.512ZM832.779 576.32H831.019C830.166 576.32 829.526 576.487 829.099 576.82C828.673 577.153 828.459 577.573 828.459 578.08C828.459 578.587 828.626 579 828.959 579.32C829.293 579.627 829.779 579.78 830.419 579.78C831.139 579.78 831.713 579.58 832.139 579.18C832.566 578.767 832.779 578.247 832.779 577.62V576.32ZM827.539 572.98V571.4C828.299 570.933 829.299 570.7 830.539 570.7C833.086 570.7 834.359 571.993 834.359 574.58V581H832.799V579.8C832.279 580.667 831.333 581.1 829.959 581.1C829.013 581.1 828.246 580.82 827.659 580.26C827.086 579.7 826.799 578.993 826.799 578.14C826.799 577.167 827.166 576.413 827.899 575.88C828.646 575.333 829.659 575.06 830.939 575.06H832.779V574.54C832.779 573.74 832.599 573.14 832.239 572.74C831.879 572.327 831.273 572.12 830.419 572.12C829.339 572.12 828.379 572.407 827.539 572.98ZM837.243 581V570.86H838.823V581H837.243ZM837.283 568.42C837.096 568.22 837.003 567.973 837.003 567.68C837.003 567.387 837.096 567.14 837.283 566.94C837.483 566.74 837.73 566.64 838.023 566.64C838.316 566.64 838.563 566.74 838.763 566.94C838.963 567.14 839.063 567.387 839.063 567.68C839.063 567.973 838.963 568.22 838.763 568.42C838.563 568.607 838.316 568.7 838.023 568.7C837.73 568.7 837.483 568.607 837.283 568.42ZM841.911 581V566.86H843.491V581H841.911ZM845.859 580.82C845.632 580.593 845.519 580.313 845.519 579.98C845.519 579.647 845.632 579.367 845.859 579.14C846.086 578.913 846.366 578.8 846.699 578.8C847.032 578.8 847.312 578.913 847.539 579.14C847.766 579.367 847.879 579.647 847.879 579.98C847.879 580.313 847.766 580.593 847.539 580.82C847.312 581.047 847.032 581.16 846.699 581.16C846.366 581.16 846.086 581.047 845.859 580.82ZM850.859 575.98C850.873 577.073 851.206 577.987 851.859 578.72C852.513 579.44 853.439 579.8 854.639 579.8C855.413 579.8 856.133 579.58 856.799 579.14V580.64C856.159 581.027 855.373 581.22 854.439 581.22C852.839 581.22 851.566 580.713 850.619 579.7C849.686 578.673 849.219 577.427 849.219 575.96C849.219 574.52 849.686 573.28 850.619 572.24C851.566 571.2 852.853 570.68 854.479 570.68C855.346 570.68 856.119 570.867 856.799 571.24V572.74C856.186 572.327 855.466 572.12 854.639 572.12C853.493 572.12 852.573 572.493 851.879 573.24C851.199 573.973 850.859 574.887 850.859 575.98ZM863.353 581.18C861.9 581.18 860.747 580.693 859.893 579.72C859.053 578.733 858.633 577.493 858.633 576C858.633 574.493 859.067 573.24 859.933 572.24C860.813 571.227 861.953 570.72 863.353 570.72C864.887 570.72 866.067 571.213 866.893 572.2C867.733 573.187 868.153 574.44 868.153 575.96C868.153 577.467 867.727 578.713 866.873 579.7C866.02 580.687 864.847 581.18 863.353 581.18ZM863.353 572.12C862.393 572.12 861.64 572.493 861.093 573.24C860.547 573.987 860.273 574.9 860.273 575.98C860.273 577.033 860.553 577.933 861.113 578.68C861.673 579.413 862.42 579.78 863.353 579.78C864.367 579.78 865.147 579.42 865.693 578.7C866.24 577.967 866.513 577.06 866.513 575.98C866.513 574.86 866.253 573.94 865.733 573.22C865.213 572.487 864.42 572.12 863.353 572.12ZM872.024 570.86V572.5C872.584 571.313 873.537 570.72 874.884 570.72C876.444 570.72 877.431 571.38 877.844 572.7C878.137 572.06 878.544 571.573 879.064 571.24C879.597 570.893 880.191 570.72 880.844 570.72C881.897 570.72 882.691 571.02 883.224 571.62C883.757 572.22 884.024 573.027 884.024 574.04V581H882.444V574.44C882.444 572.907 881.797 572.14 880.504 572.14C879.864 572.14 879.291 572.433 878.784 573.02C878.277 573.593 878.024 574.407 878.024 575.46V581H876.444V574.44C876.444 572.907 875.797 572.14 874.504 572.14C873.864 572.14 873.291 572.433 872.784 573.02C872.277 573.593 872.024 574.407 872.024 575.46V581H870.464V570.86H872.024Z" fill="black"/>
<g filter="url(#filter4_d_211_374)">
<rect x="687" y="657" width="550" height="49" rx="18" fill="white"/>
</g>
<path d="M710.6 690.56V689C711.133 689.347 711.693 689.52 712.28 689.52C713.44 689.52 714.02 688.907 714.02 687.68V677.52H715.64V687.54C715.64 689.847 714.593 691 712.5 691C711.753 691 711.12 690.853 710.6 690.56ZM720.188 676.86V682.62C720.788 681.353 721.855 680.72 723.388 680.72C724.361 680.72 725.141 681.02 725.728 681.62C726.328 682.22 726.628 683.033 726.628 684.06V691H725.048V684.44C725.048 683.707 724.855 683.14 724.468 682.74C724.095 682.34 723.601 682.14 722.988 682.14C722.241 682.14 721.588 682.427 721.028 683C720.468 683.573 720.188 684.393 720.188 685.46V691H718.628V676.86H720.188ZM733.549 691.18C732.095 691.18 730.942 690.693 730.089 689.72C729.249 688.733 728.829 687.493 728.829 686C728.829 684.493 729.262 683.24 730.129 682.24C731.009 681.227 732.149 680.72 733.549 680.72C735.082 680.72 736.262 681.213 737.089 682.2C737.929 683.187 738.349 684.44 738.349 685.96C738.349 687.467 737.922 688.713 737.069 689.7C736.215 690.687 735.042 691.18 733.549 691.18ZM733.549 682.12C732.589 682.12 731.835 682.493 731.289 683.24C730.742 683.987 730.469 684.9 730.469 685.98C730.469 687.033 730.749 687.933 731.309 688.68C731.869 689.413 732.615 689.78 733.549 689.78C734.562 689.78 735.342 689.42 735.889 688.7C736.435 687.967 736.709 687.06 736.709 685.98C736.709 684.86 736.449 683.94 735.929 683.22C735.409 682.487 734.615 682.12 733.549 682.12ZM742.219 680.86V682.62C742.819 681.353 743.886 680.72 745.419 680.72C746.406 680.72 747.193 681.02 747.779 681.62C748.366 682.22 748.659 683.02 748.659 684.02V691H747.079V684.44C747.079 683.693 746.886 683.127 746.499 682.74C746.126 682.34 745.633 682.14 745.019 682.14C744.259 682.14 743.599 682.433 743.039 683.02C742.493 683.607 742.219 684.42 742.219 685.46V691H740.659V680.86H742.219Z" fill="black"/>
<g filter="url(#filter5_d_211_374)">
<rect x="687" y="767" width="550" height="49" rx="18" fill="white"/>
</g>
<path d="M713.18 799.58H715.6C717.267 799.58 718.527 799.067 719.38 798.04C720.233 797 720.66 795.707 720.66 794.16C720.66 792.693 720.18 791.46 719.22 790.46C718.273 789.46 717.04 788.96 715.52 788.96H713.18V799.58ZM711.54 787.52H715.54C717.527 787.52 719.153 788.14 720.42 789.38C721.7 790.607 722.34 792.2 722.34 794.16C722.34 796.107 721.747 797.733 720.56 799.04C719.387 800.347 717.74 801 715.62 801H711.54V787.52ZM728.803 801.18C727.349 801.18 726.196 800.693 725.343 799.72C724.503 798.733 724.083 797.493 724.083 796C724.083 794.493 724.516 793.24 725.383 792.24C726.263 791.227 727.403 790.72 728.803 790.72C730.336 790.72 731.516 791.213 732.343 792.2C733.183 793.187 733.603 794.44 733.603 795.96C733.603 797.467 733.176 798.713 732.323 799.7C731.469 800.687 730.296 801.18 728.803 801.18ZM728.803 792.12C727.843 792.12 727.089 792.493 726.543 793.24C725.996 793.987 725.723 794.9 725.723 795.98C725.723 797.033 726.003 797.933 726.563 798.68C727.123 799.413 727.869 799.78 728.803 799.78C729.816 799.78 730.596 799.42 731.143 798.7C731.689 797.967 731.963 797.06 731.963 795.98C731.963 794.86 731.703 793.94 731.183 793.22C730.663 792.487 729.869 792.12 728.803 792.12ZM742.373 795.28V794.88C742.373 794.04 742.146 793.373 741.693 792.88C741.24 792.373 740.613 792.12 739.813 792.12C739.053 792.12 738.406 792.393 737.873 792.94C737.34 793.487 737.026 794.267 736.933 795.28H742.373ZM743.313 799V800.48C742.526 800.893 741.566 801.1 740.433 801.1C738.9 801.1 737.66 800.633 736.713 799.7C735.78 798.753 735.313 797.507 735.313 795.96C735.313 794.347 735.733 793.073 736.573 792.14C737.413 791.207 738.493 790.74 739.813 790.74C741.08 790.74 742.086 791.147 742.833 791.96C743.58 792.773 743.953 793.927 743.953 795.42C743.953 795.847 743.92 796.24 743.853 796.6H736.933C737.053 797.6 737.433 798.367 738.073 798.9C738.713 799.433 739.553 799.7 740.593 799.7C741.726 799.7 742.633 799.467 743.313 799Z" fill="black"/>
<g filter="url(#filter6_d_211_374)">
<rect x="687" y="882" width="550" height="49" rx="18" fill="white"/>
</g>
<path d="M721.431 910.352V912.008H717.13V916.355H715.428V912.008H711.311V910.352H715.428V906.005H717.13V910.352H721.431ZM723.127 908.075V906.12L726.692 903.958H728.394V919H726.6V905.936L723.127 908.075ZM731.458 913.618V912.031H736.84V913.618H731.458ZM746.976 910.536V910.421C746.976 908.964 746.715 907.776 746.194 906.856C745.688 905.921 744.867 905.453 743.733 905.453C742.859 905.453 742.161 905.744 741.64 906.327C741.118 906.91 740.858 907.707 740.858 908.719C740.858 909.777 741.134 910.59 741.686 911.157C742.238 911.724 742.989 912.008 743.94 912.008C745.197 912.008 746.209 911.517 746.976 910.536ZM739.616 918.747V916.953C740.413 917.306 741.256 917.482 742.146 917.482C744.921 917.482 746.5 915.742 746.884 912.261C746.117 913.166 744.982 913.618 743.48 913.618C742.253 913.618 741.195 913.173 740.306 912.284C739.416 911.379 738.972 910.191 738.972 908.719C738.972 907.293 739.393 906.112 740.237 905.177C741.08 904.242 742.23 903.774 743.687 903.774C745.373 903.774 746.638 904.403 747.482 905.66C748.34 906.917 748.77 908.504 748.77 910.421C748.77 913.15 748.218 915.297 747.114 916.861C746.025 918.41 744.392 919.184 742.215 919.184C741.325 919.184 740.459 919.038 739.616 918.747ZM755.828 917.574C756.856 917.574 757.645 917.321 758.197 916.815C758.749 916.309 759.025 915.68 759.025 914.929C759.025 914.193 758.757 913.572 758.22 913.066C757.684 912.56 756.886 912.315 755.828 912.33C754.801 912.345 754.027 912.621 753.505 913.158C752.999 913.679 752.746 914.331 752.746 915.113C752.746 915.818 753.015 916.409 753.551 916.884C754.088 917.344 754.847 917.574 755.828 917.574ZM755.805 905.407C754.947 905.407 754.264 905.66 753.758 906.166C753.252 906.672 752.999 907.285 752.999 908.006C752.999 908.88 753.268 909.539 753.804 909.984C754.356 910.429 755.054 910.651 755.897 910.651C756.71 910.651 757.377 910.421 757.898 909.961C758.42 909.486 758.68 908.826 758.68 907.983C758.68 907.247 758.435 906.634 757.944 906.143C757.454 905.652 756.741 905.407 755.805 905.407ZM758.105 911.456C759.961 912.023 760.888 913.235 760.888 915.09C760.888 916.332 760.405 917.329 759.439 918.08C758.473 918.816 757.262 919.184 755.805 919.184C754.41 919.184 753.245 918.824 752.309 918.103C751.374 917.382 750.906 916.416 750.906 915.205C750.906 914.3 751.144 913.534 751.619 912.905C752.11 912.261 752.777 911.793 753.62 911.502C751.98 910.873 751.159 909.716 751.159 908.029C751.159 906.695 751.619 905.66 752.539 904.924C753.459 904.173 754.548 903.797 755.805 903.797C757.109 903.797 758.22 904.165 759.14 904.901C760.06 905.622 760.52 906.672 760.52 908.052C760.52 908.834 760.306 909.524 759.876 910.122C759.447 910.705 758.857 911.149 758.105 911.456ZM762.34 903.958H772.161V905.545L765.928 919H763.996L770.229 905.545H762.34V903.958ZM778.973 917.574C779.847 917.574 780.537 917.252 781.043 916.608C781.565 915.964 781.825 915.121 781.825 914.078C781.825 913.127 781.565 912.368 781.043 911.801C780.537 911.234 779.87 910.95 779.042 910.95C777.662 910.95 776.466 911.51 775.454 912.629C775.516 914.254 775.861 915.489 776.489 916.332C777.133 917.16 777.961 917.574 778.973 917.574ZM782.653 903.866V905.637C781.994 905.346 781.296 905.2 780.56 905.2C779.119 905.2 777.969 905.744 777.11 906.833C776.252 907.906 775.723 909.263 775.523 910.904C776.535 909.846 777.785 909.317 779.272 909.317C780.652 909.317 781.733 909.754 782.515 910.628C783.313 911.502 783.711 912.66 783.711 914.101C783.711 915.634 783.274 916.876 782.4 917.827C781.542 918.778 780.399 919.253 778.973 919.253C777.256 919.253 775.937 918.601 775.017 917.298C774.097 915.995 773.637 914.293 773.637 912.192C773.637 909.693 774.251 907.623 775.477 905.982C776.704 904.341 778.391 903.521 780.537 903.521C781.227 903.521 781.933 903.636 782.653 903.866ZM788.435 905.545V910.053C789.125 909.9 789.723 909.823 790.229 909.823C791.762 909.823 792.974 910.229 793.863 911.042C794.768 911.855 795.22 912.943 795.22 914.308C795.22 915.795 794.729 916.984 793.748 917.873C792.782 918.747 791.456 919.184 789.769 919.184C788.251 919.184 786.963 918.923 785.905 918.402V916.608C786.886 917.191 788.075 917.482 789.47 917.482C792.046 917.482 793.334 916.401 793.334 914.239C793.334 913.365 793.035 912.69 792.437 912.215C791.839 911.724 791.065 911.479 790.114 911.479C788.995 911.479 787.837 911.747 786.641 912.284V903.958H794.185V905.545H788.435ZM799.056 913.756H804.093V905.039L799.056 913.756ZM808.118 913.756V915.343H805.887V919H804.093V915.343H797.216V913.756L802.943 903.958H805.887V913.756H808.118ZM810.005 906.419V904.648C810.894 904.081 811.922 903.797 813.087 903.797C814.574 903.797 815.724 904.18 816.537 904.947C817.365 905.698 817.779 906.634 817.779 907.753C817.779 908.566 817.572 909.294 817.158 909.938C816.759 910.582 816.161 911.065 815.364 911.387C816.238 911.586 816.928 911.993 817.434 912.606C817.955 913.204 818.216 913.955 818.216 914.86C818.216 916.087 817.787 917.106 816.928 917.919C816.069 918.732 814.858 919.138 813.294 919.138C811.853 919.138 810.603 918.885 809.545 918.379V916.562C810.68 917.16 811.914 917.459 813.248 917.459C814.229 917.459 814.988 917.206 815.525 916.7C816.077 916.194 816.353 915.535 816.353 914.722C816.353 913.909 816.046 913.288 815.433 912.859C814.835 912.414 813.969 912.192 812.834 912.192H811.868V910.605H812.834C813.693 910.605 814.413 910.367 814.996 909.892C815.594 909.401 815.893 908.75 815.893 907.937C815.893 907.124 815.64 906.511 815.134 906.097C814.628 905.683 813.93 905.476 813.041 905.476C811.983 905.476 810.971 905.79 810.005 906.419ZM822.766 917.413H829.758V919H820.259V917.459C825.012 913.871 827.389 910.881 827.389 908.489C827.389 907.538 827.113 906.81 826.561 906.304C826.009 905.783 825.265 905.522 824.33 905.522C823.118 905.522 821.922 905.974 820.742 906.879V905.062C821.83 904.219 823.08 903.797 824.491 903.797C825.84 903.797 826.975 904.188 827.895 904.97C828.815 905.752 829.275 906.864 829.275 908.305C829.275 911.019 827.105 914.055 822.766 917.413ZM831.164 908.075V906.12L834.729 903.958H836.431V919H834.637V905.936L831.164 908.075Z" fill="black"/>
<rect x="786" y="959" width="324" height="54" rx="27" fill="#1F4768"/>
<path d="M882.239 983.674C882.188 983.158 881.969 982.758 881.581 982.472C881.193 982.187 880.667 982.044 880.002 982.044C879.55 982.044 879.169 982.108 878.858 982.236C878.547 982.359 878.308 982.532 878.142 982.754C877.98 982.975 877.899 983.227 877.899 983.508C877.891 983.742 877.94 983.947 878.046 984.121C878.157 984.296 878.308 984.447 878.5 984.575C878.692 984.699 878.913 984.808 879.165 984.901C879.416 984.991 879.685 985.067 879.97 985.131L881.146 985.413C881.717 985.54 882.241 985.711 882.719 985.924C883.196 986.137 883.609 986.399 883.959 986.71C884.308 987.021 884.579 987.388 884.771 987.81C884.967 988.232 885.067 988.715 885.071 989.261C885.067 990.062 884.862 990.756 884.457 991.344C884.057 991.928 883.477 992.382 882.719 992.706C881.964 993.026 881.055 993.185 879.989 993.185C878.933 993.185 878.012 993.023 877.228 992.7C876.448 992.376 875.839 991.896 875.4 991.261C874.965 990.622 874.737 989.832 874.716 988.89H877.394C877.424 989.329 877.55 989.695 877.771 989.989C877.997 990.279 878.298 990.499 878.673 990.648C879.052 990.793 879.48 990.865 879.957 990.865C880.426 990.865 880.833 990.797 881.178 990.661C881.528 990.524 881.798 990.335 881.99 990.092C882.182 989.849 882.278 989.57 882.278 989.254C882.278 988.96 882.19 988.713 882.016 988.513C881.845 988.312 881.594 988.142 881.261 988.001C880.933 987.861 880.531 987.733 880.053 987.618L878.628 987.26C877.524 986.991 876.653 986.572 876.013 986.001C875.374 985.43 875.057 984.661 875.061 983.693C875.057 982.901 875.268 982.208 875.694 981.616C876.124 981.023 876.714 980.561 877.464 980.229C878.214 979.896 879.067 979.73 880.021 979.73C880.993 979.73 881.841 979.896 882.565 980.229C883.294 980.561 883.861 981.023 884.266 981.616C884.67 982.208 884.879 982.894 884.892 983.674H882.239ZM893.178 988.82V983.182H895.901V993H893.286V991.217H893.184C892.963 991.792 892.594 992.254 892.078 992.604C891.567 992.953 890.943 993.128 890.205 993.128C889.549 993.128 888.972 992.979 888.473 992.68C887.975 992.382 887.585 991.958 887.303 991.408C887.026 990.859 886.886 990.2 886.882 989.433V983.182H889.605V988.947C889.609 989.527 889.764 989.985 890.071 990.322C890.378 990.658 890.789 990.827 891.305 990.827C891.633 990.827 891.94 990.752 892.225 990.603C892.511 990.45 892.741 990.224 892.916 989.925C893.095 989.627 893.182 989.259 893.178 988.82ZM898.13 993V979.909H900.853V984.831H900.936C901.055 984.567 901.228 984.298 901.454 984.026C901.684 983.749 901.982 983.518 902.349 983.335C902.719 983.148 903.18 983.054 903.729 983.054C904.445 983.054 905.106 983.241 905.711 983.616C906.316 983.987 906.8 984.548 907.162 985.298C907.524 986.043 907.705 986.979 907.705 988.104C907.705 989.199 907.528 990.124 907.175 990.878C906.825 991.628 906.348 992.197 905.743 992.585C905.142 992.968 904.469 993.16 903.723 993.16C903.195 993.16 902.745 993.072 902.374 992.898C902.008 992.723 901.707 992.504 901.473 992.239C901.239 991.971 901.06 991.7 900.936 991.428H900.815V993H898.13ZM900.795 988.091C900.795 988.675 900.876 989.184 901.038 989.619C901.2 990.053 901.435 990.392 901.741 990.635C902.048 990.874 902.421 990.993 902.86 990.993C903.303 990.993 903.678 990.871 903.985 990.629C904.292 990.381 904.524 990.04 904.682 989.606C904.844 989.167 904.925 988.662 904.925 988.091C904.925 987.524 904.846 987.026 904.688 986.595C904.531 986.165 904.298 985.828 903.991 985.585C903.685 985.342 903.308 985.221 902.86 985.221C902.417 985.221 902.042 985.338 901.735 985.572C901.433 985.807 901.2 986.139 901.038 986.57C900.876 987 900.795 987.507 900.795 988.091ZM909.522 993V983.182H912.117V984.914H912.232C912.437 984.339 912.778 983.885 913.255 983.553C913.732 983.22 914.303 983.054 914.968 983.054C915.642 983.054 916.215 983.222 916.688 983.559C917.161 983.891 917.476 984.343 917.634 984.914H917.736C917.936 984.352 918.298 983.902 918.823 983.565C919.351 983.224 919.975 983.054 920.695 983.054C921.612 983.054 922.355 983.346 922.926 983.93C923.502 984.509 923.789 985.332 923.789 986.397V993H921.073V986.934C921.073 986.388 920.928 985.979 920.638 985.707C920.348 985.434 919.986 985.298 919.551 985.298C919.057 985.298 918.671 985.455 918.394 985.771C918.117 986.082 917.979 986.493 917.979 987.004V993H915.339V986.876C915.339 986.395 915.2 986.011 914.923 985.726C914.651 985.44 914.291 985.298 913.843 985.298C913.541 985.298 913.268 985.374 913.025 985.528C912.786 985.677 912.597 985.888 912.456 986.161C912.316 986.429 912.245 986.744 912.245 987.107V993H909.522ZM925.94 993V983.182H928.663V993H925.94ZM927.308 981.916C926.903 981.916 926.556 981.782 926.266 981.513C925.981 981.241 925.838 980.915 925.838 980.536C925.838 980.161 925.981 979.839 926.266 979.57C926.556 979.298 926.903 979.161 927.308 979.161C927.713 979.161 928.058 979.298 928.344 979.57C928.633 979.839 928.778 980.161 928.778 980.536C928.778 980.915 928.633 981.241 928.344 981.513C928.058 981.782 927.713 981.916 927.308 981.916ZM936.067 983.182V985.227H930.154V983.182H936.067ZM931.496 980.83H934.219V989.983C934.219 990.234 934.258 990.43 934.335 990.571C934.411 990.707 934.518 990.803 934.654 990.859C934.795 990.914 934.957 990.942 935.14 990.942C935.268 990.942 935.396 990.931 935.523 990.91C935.651 990.884 935.749 990.865 935.817 990.852L936.246 992.879C936.109 992.921 935.918 992.97 935.67 993.026C935.423 993.085 935.123 993.121 934.769 993.134C934.113 993.16 933.538 993.072 933.043 992.872C932.553 992.672 932.172 992.361 931.899 991.939C931.626 991.517 931.492 990.984 931.496 990.341V980.83ZM946.443 993.192C945.437 993.192 944.572 992.979 943.847 992.553C943.127 992.122 942.573 991.526 942.186 990.763C941.802 990 941.61 989.122 941.61 988.129C941.61 987.124 941.804 986.241 942.192 985.483C942.584 984.72 943.14 984.126 943.86 983.7C944.58 983.269 945.437 983.054 946.43 983.054C947.286 983.054 948.036 983.21 948.68 983.521C949.323 983.832 949.833 984.268 950.208 984.831C950.583 985.393 950.789 986.054 950.828 986.812H948.258C948.186 986.322 947.994 985.928 947.683 985.63C947.376 985.327 946.973 985.176 946.475 985.176C946.053 985.176 945.684 985.291 945.369 985.521C945.058 985.747 944.815 986.077 944.64 986.512C944.465 986.947 944.378 987.473 944.378 988.091C944.378 988.717 944.463 989.25 944.634 989.689C944.808 990.128 945.053 990.462 945.369 990.692C945.684 990.923 946.053 991.038 946.475 991.038C946.786 991.038 947.065 990.974 947.312 990.846C947.563 990.718 947.77 990.533 947.932 990.29C948.098 990.043 948.207 989.746 948.258 989.401H950.828C950.785 990.151 950.58 990.812 950.214 991.383C949.852 991.95 949.351 992.393 948.712 992.712C948.073 993.032 947.316 993.192 946.443 993.192ZM955.294 987.324V993H952.571V979.909H955.217V984.914H955.332C955.554 984.335 955.912 983.881 956.406 983.553C956.901 983.22 957.521 983.054 958.266 983.054C958.948 983.054 959.543 983.203 960.05 983.501C960.561 983.795 960.957 984.219 961.239 984.773C961.524 985.323 961.665 985.982 961.661 986.749V993H958.938V987.234C958.942 986.629 958.788 986.158 958.477 985.822C958.17 985.485 957.74 985.317 957.186 985.317C956.815 985.317 956.487 985.396 956.202 985.553C955.92 985.711 955.699 985.941 955.537 986.244C955.379 986.542 955.298 986.902 955.294 987.324ZM966.603 993.185C965.977 993.185 965.419 993.077 964.928 992.859C964.438 992.638 964.051 992.312 963.765 991.881C963.484 991.447 963.343 990.906 963.343 990.258C963.343 989.712 963.443 989.254 963.644 988.884C963.844 988.513 964.117 988.214 964.462 987.989C964.807 987.763 965.199 987.592 965.638 987.477C966.081 987.362 966.546 987.281 967.031 987.234C967.602 987.175 968.063 987.119 968.412 987.068C968.762 987.013 969.015 986.932 969.173 986.825C969.33 986.719 969.409 986.561 969.409 986.352V986.314C969.409 985.909 969.281 985.596 969.026 985.374C968.774 985.153 968.416 985.042 967.952 985.042C967.462 985.042 967.072 985.151 966.782 985.368C966.492 985.581 966.301 985.849 966.207 986.173L963.688 985.969C963.816 985.372 964.068 984.857 964.443 984.422C964.818 983.983 965.301 983.646 965.894 983.412C966.49 983.173 967.181 983.054 967.965 983.054C968.51 983.054 969.032 983.118 969.531 983.246C970.034 983.374 970.479 983.572 970.867 983.84C971.259 984.109 971.568 984.454 971.794 984.876C972.019 985.293 972.132 985.794 972.132 986.378V993H969.55V991.638H969.473C969.316 991.945 969.105 992.216 968.84 992.45C968.576 992.68 968.259 992.862 967.888 992.994C967.517 993.121 967.089 993.185 966.603 993.185ZM967.383 991.306C967.784 991.306 968.137 991.227 968.444 991.07C968.751 990.908 968.992 990.69 969.166 990.418C969.341 990.145 969.428 989.836 969.428 989.491V988.449C969.343 988.504 969.226 988.555 969.077 988.602C968.932 988.645 968.768 988.685 968.585 988.724C968.401 988.758 968.218 988.79 968.035 988.82C967.852 988.845 967.686 988.869 967.536 988.89C967.217 988.937 966.938 989.011 966.699 989.114C966.46 989.216 966.275 989.354 966.143 989.529C966.011 989.7 965.945 989.913 965.945 990.168C965.945 990.539 966.079 990.822 966.347 991.018C966.62 991.21 966.965 991.306 967.383 991.306ZM976.968 987.324V993H974.245V983.182H976.84V984.914H976.955C977.172 984.343 977.537 983.891 978.048 983.559C978.559 983.222 979.18 983.054 979.908 983.054C980.59 983.054 981.184 983.203 981.692 983.501C982.199 983.8 982.593 984.226 982.874 984.78C983.155 985.33 983.296 985.986 983.296 986.749V993H980.573V987.234C980.577 986.634 980.424 986.165 980.113 985.828C979.802 985.487 979.373 985.317 978.828 985.317C978.461 985.317 978.138 985.396 977.856 985.553C977.579 985.711 977.362 985.941 977.204 986.244C977.051 986.542 976.972 986.902 976.968 987.324ZM989.865 996.886C988.983 996.886 988.227 996.765 987.596 996.522C986.97 996.283 986.471 995.957 986.1 995.544C985.73 995.131 985.489 994.666 985.378 994.151L987.897 993.812C987.973 994.008 988.095 994.191 988.261 994.362C988.427 994.532 988.647 994.668 988.919 994.771C989.196 994.877 989.533 994.93 989.929 994.93C990.522 994.93 991.01 994.786 991.393 994.496C991.781 994.21 991.975 993.731 991.975 993.058V991.261H991.86C991.74 991.534 991.561 991.792 991.323 992.035C991.084 992.278 990.777 992.476 990.402 992.629C990.027 992.783 989.58 992.859 989.06 992.859C988.323 992.859 987.652 992.689 987.047 992.348C986.446 992.003 985.966 991.477 985.608 990.769C985.255 990.058 985.078 989.158 985.078 988.072C985.078 986.96 985.259 986.031 985.621 985.285C985.983 984.539 986.465 983.981 987.066 983.61C987.671 983.239 988.333 983.054 989.054 983.054C989.603 983.054 990.064 983.148 990.434 983.335C990.805 983.518 991.103 983.749 991.329 984.026C991.559 984.298 991.736 984.567 991.86 984.831H991.962V983.182H994.666V993.096C994.666 993.931 994.461 994.63 994.052 995.192C993.643 995.755 993.076 996.177 992.352 996.458C991.632 996.744 990.803 996.886 989.865 996.886ZM989.923 990.814C990.362 990.814 990.733 990.705 991.035 990.488C991.342 990.266 991.576 989.951 991.738 989.542C991.904 989.129 991.988 988.634 991.988 988.059C991.988 987.484 991.907 986.985 991.745 986.563C991.583 986.137 991.348 985.807 991.042 985.572C990.735 985.338 990.362 985.221 989.923 985.221C989.475 985.221 989.098 985.342 988.792 985.585C988.485 985.824 988.252 986.156 988.095 986.582C987.937 987.009 987.858 987.501 987.858 988.059C987.858 988.626 987.937 989.116 988.095 989.529C988.257 989.938 988.489 990.256 988.792 990.482C989.098 990.703 989.475 990.814 989.923 990.814ZM1001.31 993.192C1000.3 993.192 999.428 992.987 998.699 992.578C997.975 992.165 997.417 991.581 997.025 990.827C996.632 990.068 996.436 989.171 996.436 988.136C996.436 987.126 996.632 986.239 997.025 985.477C997.417 984.714 997.968 984.119 998.68 983.693C999.396 983.267 1000.24 983.054 1001.2 983.054C1001.85 983.054 1002.45 983.158 1003.01 983.367C1003.57 983.572 1004.06 983.881 1004.48 984.294C1004.9 984.707 1005.23 985.227 1005.46 985.854C1005.7 986.476 1005.81 987.205 1005.81 988.04V988.788H997.523V987.1H1003.25C1003.25 986.708 1003.17 986.361 1002.99 986.058C1002.82 985.756 1002.59 985.519 1002.29 985.349C1001.99 985.174 1001.64 985.087 1001.24 985.087C1000.83 985.087 1000.46 985.183 1000.14 985.374C999.828 985.562 999.581 985.815 999.402 986.135C999.223 986.45 999.132 986.802 999.127 987.19V988.794C999.127 989.28 999.217 989.7 999.396 990.053C999.579 990.407 999.837 990.68 1000.17 990.871C1000.5 991.063 1000.9 991.159 1001.35 991.159C1001.65 991.159 1001.93 991.116 1002.18 991.031C1002.43 990.946 1002.65 990.818 1002.83 990.648C1003.01 990.477 1003.14 990.268 1003.24 990.021L1005.76 990.188C1005.63 990.793 1005.37 991.321 1004.97 991.773C1004.58 992.22 1004.07 992.57 1003.45 992.821C1002.83 993.068 1002.12 993.192 1001.31 993.192ZM1015.76 985.982L1013.27 986.135C1013.22 985.922 1013.13 985.73 1012.99 985.56C1012.85 985.385 1012.67 985.246 1012.44 985.144C1012.21 985.038 1011.94 984.984 1011.62 984.984C1011.2 984.984 1010.85 985.074 1010.56 985.253C1010.27 985.428 1010.12 985.662 1010.12 985.956C1010.12 986.19 1010.22 986.388 1010.4 986.55C1010.59 986.712 1010.91 986.842 1011.37 986.94L1013.15 987.298C1014.1 987.494 1014.81 987.81 1015.28 988.244C1015.75 988.679 1015.98 989.25 1015.98 989.957C1015.98 990.601 1015.79 991.165 1015.41 991.651C1015.04 992.137 1014.52 992.516 1013.87 992.789C1013.22 993.058 1012.46 993.192 1011.61 993.192C1010.31 993.192 1009.28 992.921 1008.5 992.38C1007.74 991.835 1007.29 991.093 1007.16 990.156L1009.83 990.015C1009.92 990.411 1010.11 990.714 1010.42 990.923C1010.73 991.127 1011.13 991.229 1011.62 991.229C1012.09 991.229 1012.48 991.138 1012.77 990.955C1013.06 990.767 1013.21 990.526 1013.22 990.232C1013.21 989.985 1013.11 989.783 1012.9 989.625C1012.7 989.463 1012.38 989.339 1011.96 989.254L1010.26 988.915C1009.3 988.724 1008.58 988.391 1008.11 987.918C1007.65 987.445 1007.42 986.842 1007.42 986.109C1007.42 985.479 1007.59 984.935 1007.93 984.479C1008.27 984.023 1008.76 983.672 1009.38 983.425C1010.01 983.178 1010.74 983.054 1011.58 983.054C1012.82 983.054 1013.8 983.316 1014.51 983.84C1015.22 984.364 1015.64 985.078 1015.76 985.982Z" fill="white"/>
<defs>
<filter id="filter0_d_211_374" x="147" y="35" width="1632" height="1031" filterUnits="userSpaceOnUse" color-interpolation-filters="sRGB">
<feFlood flood-opacity="0" result="BackgroundImageFix"/>
<feColorMatrix in="SourceAlpha" type="matrix" values="0 0 0 0 0 0 0 0 0 0 0 0 0 0 0 0 0 0 127 0" result="hardAlpha"/>
<feOffset dx="3" dy="10"/>
<feGaussianBlur stdDeviation="8"/>
<feComposite in2="hardAlpha" operator="out"/>
<feColorMatrix type="matrix" values="0 0 0 0 0 0 0 0 0 0 0 0 0 0 0 0 0 0 0.25 0"/>
<feBlend mode="normal" in2="BackgroundImageFix" result="effect1_dropShadow_211_374"/>
<feBlend mode="normal" in="SourceGraphic" in2="effect1_dropShadow_211_374" result="shape"/>
</filter>
<filter id="filter1_d_211_374" x="839" y="145" width="248" height="248" filterUnits="userSpaceOnUse" color-interpolation-filters="sRGB">
<feFlood flood-opacity="0" result="BackgroundImageFix"/>
<feColorMatrix in="SourceAlpha" type="matrix" values="0 0 0 0 0 0 0 0 0 0 0 0 0 0 0 0 0 0 127 0" result="hardAlpha"/>
<feOffset dx="3" dy="6"/>
<feGaussianBlur stdDeviation="10"/>
<feComposite in2="hardAlpha" operator="out"/>
<feColorMatrix type="matrix" values="0 0 0 0 0 0 0 0 0 0 0 0 0 0 0 0 0 0 0.25 0"/>
<feBlend mode="normal" in2="BackgroundImageFix" result="effect1_dropShadow_211_374"/>
<feBlend mode="normal" in="SourceGraphic" in2="effect1_dropShadow_211_374" result="shape"/>
</filter>
<filter id="filter2_d_211_374" x="679" y="426" width="570" height="69" filterUnits="userSpaceOnUse" color-interpolation-filters="sRGB">
<feFlood flood-opacity="0" result="BackgroundImageFix"/>
<feColorMatrix in="SourceAlpha" type="matrix" values="0 0 0 0 0 0 0 0 0 0 0 0 0 0 0 0 0 0 127 0" result="hardAlpha"/>
<feOffset dx="2" dy="4"/>
<feGaussianBlur stdDeviation="5"/>
<feComposite in2="hardAlpha" operator="out"/>
<feColorMatrix type="matrix" values="0 0 0 0 0 0 0 0 0 0 0 0 0 0 0 0 0 0 0.25 0"/>
<feBlend mode="normal" in2="BackgroundImageFix" result="effect1_dropShadow_211_374"/>
<feBlend mode="normal" in="SourceGraphic" in2="effect1_dropShadow_211_374" result="shape"/>
</filter>
<filter id="filter3_d_211_374" x="675" y="536" width="580" height="79" filterUnits="userSpaceOnUse" color-interpolation-filters="sRGB">
<feFlood flood-opacity="0" result="BackgroundImageFix"/>
<feColorMatrix in="SourceAlpha" type="matrix" values="0 0 0 0 0 0 0 0 0 0 0 0 0 0 0 0 0 0 127 0" result="hardAlpha"/>
<feOffset dx="3" dy="4"/>
<feGaussianBlur stdDeviation="7.5"/>
<feComposite in2="hardAlpha" operator="out"/>
<feColorMatrix type="matrix" values="0 0 0 0 0 0 0 0 0 0 0 0 0 0 0 0 0 0 0.25 0"/>
<feBlend mode="normal" in2="BackgroundImageFix" result="effect1_dropShadow_211_374"/>
<feBlend mode="normal" in="SourceGraphic" in2="effect1_dropShadow_211_374" result="shape"/>
</filter>
<filter id="filter4_d_211_374" x="675" y="646" width="580" height="79" filterUnits="userSpaceOnUse" color-interpolation-filters="sRGB">
<feFlood flood-opacity="0" result="BackgroundImageFix"/>
<feColorMatrix in="SourceAlpha" type="matrix" values="0 0 0 0 0 0 0 0 0 0 0 0 0 0 0 0 0 0 127 0" result="hardAlpha"/>
<feOffset dx="3" dy="4"/>
<feGaussianBlur stdDeviation="7.5"/>
<feComposite in2="hardAlpha" operator="out"/>
<feColorMatrix type="matrix" values="0 0 0 0 0 0 0 0 0 0 0 0 0 0 0 0 0 0 0.25 0"/>
<feBlend mode="normal" in2="BackgroundImageFix" result="effect1_dropShadow_211_374"/>
<feBlend mode="normal" in="SourceGraphic" in2="effect1_dropShadow_211_374" result="shape"/>
</filter>
<filter id="filter5_d_211_374" x="675" y="756" width="580" height="79" filterUnits="userSpaceOnUse" color-interpolation-filters="sRGB">
<feFlood flood-opacity="0" result="BackgroundImageFix"/>
<feColorMatrix in="SourceAlpha" type="matrix" values="0 0 0 0 0 0 0 0 0 0 0 0 0 0 0 0 0 0 127 0" result="hardAlpha"/>
<feOffset dx="3" dy="4"/>
<feGaussianBlur stdDeviation="7.5"/>
<feComposite in2="hardAlpha" operator="out"/>
<feColorMatrix type="matrix" values="0 0 0 0 0 0 0 0 0 0 0 0 0 0 0 0 0 0 0.25 0"/>
<feBlend mode="normal" in2="BackgroundImageFix" result="effect1_dropShadow_211_374"/>
<feBlend mode="normal" in="SourceGraphic" in2="effect1_dropShadow_211_374" result="shape"/>
</filter>
<filter id="filter6_d_211_374" x="675" y="871" width="580" height="79" filterUnits="userSpaceOnUse" color-interpolation-filters="sRGB">
<feFlood flood-opacity="0" result="BackgroundImageFix"/>
<feColorMatrix in="SourceAlpha" type="matrix" values="0 0 0 0 0 0 0 0 0 0 0 0 0 0 0 0 0 0 127 0" result="hardAlpha"/>
<feOffset dx="3" dy="4"/>
<feGaussianBlur stdDeviation="7.5"/>
<feComposite in2="hardAlpha" operator="out"/>
<feColorMatrix type="matrix" values="0 0 0 0 0 0 0 0 0 0 0 0 0 0 0 0 0 0 0.25 0"/>
<feBlend mode="normal" in2="BackgroundImageFix" result="effect1_dropShadow_211_374"/>
<feBlend mode="normal" in="SourceGraphic" in2="effect1_dropShadow_211_374" result="shape"/>
</filter>
<linearGradient id="paint0_linear_211_374" x1="960" y1="0" x2="960" y2="1080" gradientUnits="userSpaceOnUse">
<stop stop-color="#F5A40D"/>
<stop offset="1" stop-color="#A84A13"/>
</linearGradient>
<linearGradient id="paint1_linear_211_374" x1="160" y1="222.5" x2="1760" y2="222.5" gradientUnits="userSpaceOnUse">
<stop stop-color="#22719C"/>
<stop offset="1" stop-color="#B8E9F9"/>
</linearGradient>
</defs>
</svg>
