<svg width="1920" height="1080" viewBox="0 0 1920 1080" fill="none" xmlns="http://www.w3.org/2000/svg">
<rect width="1920" height="1080" fill="url(#paint0_linear_211_188)"/>
<g filter="url(#filter0_d_211_188)">
<rect x="160" y="40" width="1600" height="1000" rx="14" fill="white"/>
</g>
<path d="M333.078 397.137L160 242.866V52C160 45.3726 165.373 40 172 40H1746C1753.73 40 1760 46.268 1760 54V203.474L523.147 448.933C455.174 462.422 384.809 443.247 333.078 397.137Z" fill="url(#paint1_linear_211_188)"/>
<g filter="url(#filter1_d_211_188)">
<circle cx="1269.02" cy="291.718" r="104" fill="#1F4768"/>
</g>
<path d="M1246.59 268.482H1252.9L1267.73 304.704H1268.24L1283.07 268.482H1289.38V312.119H1284.43V278.965H1284.01L1270.37 312.119H1265.6L1251.96 278.965H1251.54V312.119H1246.59V268.482Z" fill="white"/>
<path d="M296.068 153.129H305.187V183.555C305.187 186.368 304.555 188.811 303.291 190.885C302.041 192.959 300.301 194.557 298.071 195.679C295.841 196.801 293.248 197.362 290.294 197.362C287.666 197.362 285.28 196.9 283.135 195.977C281.004 195.04 279.314 193.619 278.064 191.716C276.814 189.798 276.196 187.39 276.21 184.493H285.393C285.422 185.643 285.656 186.63 286.096 187.454C286.551 188.264 287.169 188.889 287.95 189.329C288.745 189.755 289.683 189.969 290.763 189.969C291.899 189.969 292.858 189.727 293.639 189.244C294.434 188.747 295.038 188.022 295.45 187.071C295.862 186.119 296.068 184.947 296.068 183.555V153.129ZM321.721 177.845V196.765H312.645V153.129H321.466V169.812H321.849C322.588 167.88 323.781 166.368 325.429 165.274C327.076 164.166 329.143 163.612 331.629 163.612C333.902 163.612 335.883 164.109 337.574 165.103C339.278 166.084 340.599 167.497 341.537 169.344C342.488 171.176 342.957 173.37 342.943 175.927V196.765H333.866V177.547C333.88 175.53 333.369 173.96 332.332 172.838C331.309 171.716 329.875 171.155 328.028 171.155C326.792 171.155 325.699 171.417 324.747 171.943C323.809 172.469 323.071 173.236 322.531 174.244C322.005 175.238 321.736 176.439 321.721 177.845ZM364.873 197.405C361.563 197.405 358.701 196.701 356.286 195.295C353.886 193.875 352.032 191.9 350.725 189.372C349.418 186.829 348.765 183.882 348.765 180.53C348.765 177.149 349.418 174.194 350.725 171.666C352.032 169.123 353.886 167.149 356.286 165.743C358.701 164.322 361.563 163.612 364.873 163.612C368.183 163.612 371.038 164.322 373.438 165.743C375.853 167.149 377.714 169.123 379.021 171.666C380.328 174.194 380.981 177.149 380.981 180.53C380.981 183.882 380.328 186.829 379.021 189.372C377.714 191.9 375.853 193.875 373.438 195.295C371.038 196.701 368.183 197.405 364.873 197.405ZM364.916 190.373C366.421 190.373 367.678 189.947 368.687 189.095C369.695 188.228 370.455 187.049 370.967 185.558C371.492 184.067 371.755 182.369 371.755 180.466C371.755 178.562 371.492 176.865 370.967 175.373C370.455 173.882 369.695 172.703 368.687 171.836C367.678 170.97 366.421 170.537 364.916 170.537C363.396 170.537 362.117 170.97 361.08 171.836C360.058 172.703 359.283 173.882 358.758 175.373C358.247 176.865 357.991 178.562 357.991 180.466C357.991 182.369 358.247 184.067 358.758 185.558C359.283 187.049 360.058 188.228 361.08 189.095C362.117 189.947 363.396 190.373 364.916 190.373ZM395.96 177.845V196.765H386.883V164.038H395.533V169.812H395.917C396.641 167.909 397.856 166.403 399.56 165.295C401.265 164.173 403.332 163.612 405.761 163.612C408.033 163.612 410.015 164.109 411.705 165.103C413.396 166.098 414.71 167.518 415.647 169.365C416.585 171.197 417.053 173.385 417.053 175.927V196.765H407.977V177.547C407.991 175.544 407.479 173.981 406.443 172.859C405.406 171.723 403.978 171.155 402.16 171.155C400.938 171.155 399.859 171.417 398.921 171.943C397.998 172.469 397.274 173.236 396.748 174.244C396.237 175.238 395.974 176.439 395.96 177.845ZM453.733 196.765H438.264V153.129H453.861C458.25 153.129 462.028 154.003 465.196 155.75C468.364 157.483 470.8 159.976 472.504 163.228C474.223 166.481 475.082 170.373 475.082 174.905C475.082 179.45 474.223 183.356 472.504 186.623C470.8 189.89 468.35 192.397 465.153 194.145C461.972 195.892 458.165 196.765 453.733 196.765ZM447.49 188.861H453.35C456.077 188.861 458.371 188.378 460.232 187.412C462.107 186.432 463.513 184.919 464.45 182.873C465.402 180.814 465.878 178.157 465.878 174.905C465.878 171.68 465.402 169.045 464.45 167C463.513 164.954 462.114 163.449 460.253 162.483C458.392 161.517 456.098 161.034 453.371 161.034H447.49V188.861ZM496.533 197.405C493.223 197.405 490.361 196.701 487.946 195.295C485.546 193.875 483.692 191.9 482.385 189.372C481.079 186.829 480.425 183.882 480.425 180.53C480.425 177.149 481.079 174.194 482.385 171.666C483.692 169.123 485.546 167.149 487.946 165.743C490.361 164.322 493.223 163.612 496.533 163.612C499.843 163.612 502.698 164.322 505.098 165.743C507.513 167.149 509.374 169.123 510.681 171.666C511.988 174.194 512.641 177.149 512.641 180.53C512.641 183.882 511.988 186.829 510.681 189.372C509.374 191.9 507.513 193.875 505.098 195.295C502.698 196.701 499.843 197.405 496.533 197.405ZM496.576 190.373C498.081 190.373 499.339 189.947 500.347 189.095C501.356 188.228 502.116 187.049 502.627 185.558C503.152 184.067 503.415 182.369 503.415 180.466C503.415 178.562 503.152 176.865 502.627 175.373C502.116 173.882 501.356 172.703 500.347 171.836C499.339 170.97 498.081 170.537 496.576 170.537C495.056 170.537 493.777 170.97 492.741 171.836C491.718 172.703 490.944 173.882 490.418 175.373C489.907 176.865 489.651 178.562 489.651 180.466C489.651 182.369 489.907 184.067 490.418 185.558C490.944 187.049 491.718 188.228 492.741 189.095C493.777 189.947 495.056 190.373 496.576 190.373ZM533.458 197.405C530.091 197.405 527.194 196.723 524.765 195.359C522.35 193.981 520.489 192.035 519.182 189.521C517.875 186.993 517.222 184.003 517.222 180.551C517.222 177.184 517.875 174.23 519.182 171.687C520.489 169.145 522.329 167.163 524.701 165.743C527.087 164.322 529.885 163.612 533.096 163.612C535.255 163.612 537.265 163.96 539.125 164.656C541 165.338 542.634 166.368 544.026 167.745C545.432 169.123 546.526 170.856 547.307 172.944C548.089 175.018 548.479 177.447 548.479 180.231V182.724H520.844V177.099H539.935C539.935 175.792 539.651 174.635 539.083 173.626C538.515 172.618 537.726 171.829 536.718 171.261C535.723 170.679 534.566 170.388 533.245 170.388C531.867 170.388 530.645 170.707 529.58 171.346C528.529 171.971 527.705 172.817 527.108 173.882C526.512 174.933 526.206 176.105 526.192 177.397V182.745C526.192 184.365 526.491 185.764 527.087 186.943C527.698 188.122 528.557 189.031 529.665 189.67C530.773 190.309 532.087 190.629 533.607 190.629C534.616 190.629 535.539 190.487 536.377 190.203C537.215 189.919 537.932 189.493 538.529 188.924C539.125 188.356 539.58 187.66 539.892 186.836L548.287 187.39C547.861 189.407 546.988 191.169 545.667 192.674C544.36 194.166 542.669 195.331 540.596 196.169C538.536 196.993 536.157 197.405 533.458 197.405Z" fill="white"/>
<path d="M291.069 220.049H292.996V233.509C292.996 234.283 292.863 234.952 292.596 235.519C292.335 236.085 291.937 236.523 291.404 236.834C290.876 237.144 290.209 237.299 289.403 237.299C289.337 237.299 289.272 237.299 289.207 237.299C289.141 237.299 289.076 237.299 289.011 237.299V235.502C289.076 235.502 289.136 235.502 289.19 235.502C289.245 235.502 289.305 235.502 289.37 235.502C289.958 235.502 290.388 235.328 290.661 234.98C290.933 234.637 291.069 234.147 291.069 233.509V220.049ZM292.016 217.958C291.641 217.958 291.317 217.83 291.044 217.574C290.778 217.319 290.644 217.011 290.644 216.652C290.644 216.292 290.778 215.985 291.044 215.729C291.317 215.473 291.641 215.345 292.016 215.345C292.392 215.345 292.713 215.473 292.98 215.729C293.252 215.985 293.388 216.292 293.388 216.652C293.388 217.011 293.252 217.319 292.98 217.574C292.713 217.83 292.392 217.958 292.016 217.958ZM298.454 225.048V232.595H296.527V215.867H298.454V222.009H298.618C298.912 221.362 299.353 220.847 299.941 220.466C300.534 220.079 301.324 219.886 302.31 219.886C303.164 219.886 303.913 220.057 304.556 220.4C305.198 220.738 305.696 221.258 306.05 221.96C306.41 222.657 306.589 223.545 306.589 224.623V232.595H304.662V224.754C304.662 223.757 304.403 222.987 303.886 222.442C303.374 221.892 302.664 221.617 301.754 221.617C301.123 221.617 300.556 221.751 300.055 222.018C299.56 222.284 299.168 222.674 298.879 223.186C298.596 223.697 298.454 224.318 298.454 225.048ZM315.212 232.856C314.08 232.856 313.086 232.587 312.231 232.047C311.382 231.508 310.717 230.754 310.238 229.785C309.765 228.816 309.528 227.683 309.528 226.387C309.528 225.081 309.765 223.94 310.238 222.965C310.717 221.99 311.382 221.234 312.231 220.695C313.086 220.155 314.08 219.886 315.212 219.886C316.345 219.886 317.336 220.155 318.185 220.695C319.04 221.234 319.705 221.99 320.178 222.965C320.657 223.94 320.897 225.081 320.897 226.387C320.897 227.683 320.657 228.816 320.178 229.785C319.705 230.754 319.04 231.508 318.185 232.047C317.336 232.587 316.345 232.856 315.212 232.856ZM315.212 231.125C316.073 231.125 316.781 230.904 317.336 230.463C317.891 230.022 318.302 229.442 318.569 228.723C318.836 228.005 318.969 227.226 318.969 226.387C318.969 225.549 318.836 224.767 318.569 224.043C318.302 223.319 317.891 222.734 317.336 222.287C316.781 221.841 316.073 221.617 315.212 221.617C314.352 221.617 313.644 221.841 313.089 222.287C312.533 222.734 312.122 223.319 311.855 224.043C311.589 224.767 311.455 225.549 311.455 226.387C311.455 227.226 311.589 228.005 311.855 228.723C312.122 229.442 312.533 230.022 313.089 230.463C313.644 230.904 314.352 231.125 315.212 231.125ZM325.767 225.048V232.595H323.839V220.049H325.702V222.009H325.865C326.159 221.372 326.605 220.861 327.204 220.474C327.803 220.082 328.577 219.886 329.524 219.886C330.373 219.886 331.117 220.06 331.754 220.409C332.391 220.752 332.886 221.274 333.24 221.977C333.594 222.674 333.771 223.556 333.771 224.623V232.595H331.844V224.754C331.844 223.768 331.588 223.001 331.076 222.451C330.564 221.895 329.862 221.617 328.969 221.617C328.353 221.617 327.803 221.751 327.319 222.018C326.84 222.284 326.461 222.674 326.184 223.186C325.906 223.697 325.767 224.318 325.767 225.048ZM342.031 232.856C340.985 232.856 340.062 232.592 339.262 232.064C338.461 231.53 337.835 230.779 337.383 229.81C336.931 228.835 336.705 227.683 336.705 226.355C336.705 225.037 336.931 223.893 337.383 222.924C337.835 221.955 338.464 221.206 339.27 220.678C340.076 220.15 341.007 219.886 342.063 219.886C342.88 219.886 343.525 220.022 343.999 220.294C344.478 220.561 344.843 220.866 345.094 221.209C345.349 221.547 345.548 221.824 345.69 222.042H345.853V215.867H347.781V232.595H345.919V230.667H345.69C345.548 230.896 345.347 231.184 345.085 231.533C344.824 231.876 344.451 232.184 343.966 232.456C343.482 232.723 342.837 232.856 342.031 232.856ZM342.292 231.125C343.065 231.125 343.719 230.923 344.252 230.52C344.786 230.112 345.192 229.548 345.469 228.829C345.747 228.105 345.886 227.269 345.886 226.322C345.886 225.385 345.75 224.566 345.477 223.864C345.205 223.156 344.802 222.606 344.269 222.214C343.735 221.816 343.076 221.617 342.292 221.617C341.475 221.617 340.795 221.827 340.25 222.246C339.711 222.66 339.305 223.224 339.033 223.937C338.766 224.645 338.633 225.44 338.633 226.322C338.633 227.215 338.769 228.026 339.041 228.756C339.319 229.48 339.727 230.057 340.267 230.487C340.811 230.912 341.486 231.125 342.292 231.125ZM356.675 232.856C355.543 232.856 354.549 232.587 353.694 232.047C352.845 231.508 352.18 230.754 351.701 229.785C351.227 228.816 350.991 227.683 350.991 226.387C350.991 225.081 351.227 223.94 351.701 222.965C352.18 221.99 352.845 221.234 353.694 220.695C354.549 220.155 355.543 219.886 356.675 219.886C357.808 219.886 358.799 220.155 359.648 220.695C360.503 221.234 361.167 221.99 361.641 222.965C362.12 223.94 362.36 225.081 362.36 226.387C362.36 227.683 362.12 228.816 361.641 229.785C361.167 230.754 360.503 231.508 359.648 232.047C358.799 232.587 357.808 232.856 356.675 232.856ZM356.675 231.125C357.536 231.125 358.243 230.904 358.799 230.463C359.354 230.022 359.765 229.442 360.032 228.723C360.299 228.005 360.432 227.226 360.432 226.387C360.432 225.549 360.299 224.767 360.032 224.043C359.765 223.319 359.354 222.734 358.799 222.287C358.243 221.841 357.536 221.617 356.675 221.617C355.815 221.617 355.107 221.841 354.552 222.287C353.996 222.734 353.585 223.319 353.318 224.043C353.052 224.767 352.918 225.549 352.918 226.387C352.918 227.226 353.052 228.005 353.318 228.723C353.585 229.442 353.996 230.022 354.552 230.463C355.107 230.904 355.815 231.125 356.675 231.125ZM370.562 232.856C369.353 232.856 368.311 232.589 367.434 232.056C366.563 231.517 365.89 230.765 365.417 229.801C364.948 228.832 364.714 227.705 364.714 226.42C364.714 225.135 364.948 224.002 365.417 223.022C365.89 222.037 366.549 221.269 367.393 220.719C368.243 220.164 369.234 219.886 370.366 219.886C371.02 219.886 371.665 219.995 372.302 220.213C372.939 220.43 373.519 220.784 374.042 221.274C374.564 221.759 374.981 222.402 375.291 223.202C375.602 224.002 375.757 224.988 375.757 226.159V226.975H366.086V225.309H373.797C373.797 224.601 373.655 223.97 373.372 223.414C373.094 222.859 372.697 222.421 372.179 222.099C371.668 221.778 371.063 221.617 370.366 221.617C369.598 221.617 368.934 221.808 368.373 222.189C367.818 222.565 367.39 223.055 367.091 223.659C366.792 224.264 366.642 224.912 366.642 225.603V226.714C366.642 227.661 366.805 228.465 367.132 229.123C367.464 229.777 367.924 230.275 368.512 230.618C369.1 230.956 369.784 231.125 370.562 231.125C371.069 231.125 371.526 231.054 371.934 230.912C372.348 230.765 372.705 230.547 373.004 230.259C373.304 229.965 373.535 229.6 373.699 229.164L375.561 229.687C375.365 230.319 375.035 230.874 374.573 231.353C374.11 231.827 373.538 232.197 372.857 232.464C372.177 232.725 371.412 232.856 370.562 232.856ZM388.327 237.005C386.661 237.005 385.188 236.777 383.908 236.319C382.629 235.867 381.553 235.2 380.682 234.318C379.811 233.436 379.152 232.355 378.705 231.076C378.259 229.796 378.036 228.331 378.036 226.681C378.036 225.086 378.262 223.659 378.714 222.402C379.171 221.144 379.832 220.076 380.698 219.2C381.569 218.318 382.626 217.645 383.867 217.182C385.114 216.72 386.524 216.488 388.098 216.488C389.628 216.488 390.968 216.739 392.117 217.24C393.271 217.735 394.235 218.408 395.008 219.257C395.787 220.101 396.369 221.051 396.756 222.108C397.148 223.164 397.344 224.253 397.344 225.375C397.344 226.164 397.306 226.965 397.229 227.776C397.153 228.587 396.993 229.333 396.748 230.014C396.503 230.689 396.124 231.233 395.612 231.647C395.106 232.061 394.42 232.268 393.554 232.268C393.173 232.268 392.754 232.208 392.296 232.088C391.839 231.969 391.433 231.77 391.079 231.492C390.725 231.214 390.516 230.841 390.45 230.373H390.352C390.222 230.689 390.02 230.988 389.748 231.272C389.481 231.555 389.13 231.781 388.694 231.949C388.264 232.118 387.739 232.192 387.118 232.17C386.41 232.143 385.787 231.985 385.248 231.696C384.709 231.402 384.257 231.005 383.892 230.504C383.532 229.997 383.26 229.412 383.075 228.748C382.895 228.078 382.805 227.357 382.805 226.583C382.805 225.848 382.914 225.176 383.132 224.566C383.35 223.956 383.652 223.422 384.039 222.965C384.431 222.508 384.888 222.143 385.411 221.871C385.939 221.593 386.508 221.421 387.118 221.356C387.662 221.302 388.158 221.326 388.604 221.43C389.051 221.528 389.419 221.677 389.707 221.879C389.996 222.075 390.178 222.293 390.254 222.532H390.352V221.617H392.084V229.001C392.084 229.458 392.212 229.861 392.468 230.21C392.724 230.558 393.097 230.733 393.587 230.733C394.142 230.733 394.567 230.542 394.861 230.161C395.16 229.78 395.365 229.192 395.473 228.397C395.588 227.602 395.645 226.583 395.645 225.342C395.645 224.612 395.544 223.893 395.343 223.186C395.147 222.472 394.847 221.805 394.444 221.185C394.047 220.564 393.543 220.017 392.933 219.543C392.323 219.069 391.607 218.699 390.785 218.432C389.968 218.16 389.04 218.024 388 218.024C386.72 218.024 385.574 218.222 384.562 218.62C383.554 219.012 382.697 219.586 381.989 220.343C381.286 221.095 380.75 222.009 380.38 223.088C380.015 224.16 379.832 225.38 379.832 226.747C379.832 228.135 380.015 229.369 380.38 230.447C380.75 231.525 381.294 232.434 382.013 233.175C382.737 233.915 383.633 234.476 384.7 234.857C385.768 235.244 386.998 235.437 388.392 235.437C388.991 235.437 389.582 235.38 390.165 235.266C390.747 235.151 391.262 235.026 391.708 234.89C392.155 234.754 392.476 234.653 392.672 234.588L393.129 236.09C392.792 236.232 392.351 236.374 391.806 236.515C391.267 236.657 390.69 236.774 390.075 236.866C389.465 236.959 388.882 237.005 388.327 237.005ZM387.379 230.504C388.109 230.504 388.7 230.357 389.152 230.063C389.604 229.769 389.933 229.325 390.14 228.731C390.347 228.138 390.45 227.389 390.45 226.485C390.45 225.571 390.336 224.857 390.107 224.345C389.879 223.834 389.541 223.474 389.095 223.267C388.648 223.06 388.098 222.957 387.445 222.957C386.824 222.957 386.293 223.12 385.852 223.447C385.416 223.768 385.082 224.198 384.847 224.737C384.619 225.271 384.504 225.854 384.504 226.485C384.504 227.182 384.597 227.838 384.782 228.454C384.967 229.064 385.269 229.559 385.689 229.94C386.108 230.316 386.671 230.504 387.379 230.504ZM405.293 237.561C404.362 237.561 403.561 237.441 402.892 237.201C402.222 236.967 401.664 236.657 401.217 236.27C400.776 235.889 400.425 235.481 400.164 235.045L401.699 233.967C401.873 234.196 402.094 234.457 402.361 234.751C402.628 235.05 402.992 235.309 403.455 235.527C403.924 235.75 404.536 235.862 405.293 235.862C406.306 235.862 407.142 235.617 407.8 235.127C408.459 234.637 408.789 233.869 408.789 232.823V230.275H408.625C408.484 230.504 408.282 230.787 408.021 231.125C407.765 231.457 407.395 231.753 406.91 232.015C406.431 232.271 405.783 232.399 404.966 232.399C403.953 232.399 403.044 232.159 402.238 231.68C401.438 231.201 400.804 230.504 400.335 229.589C399.872 228.674 399.641 227.563 399.641 226.257C399.641 224.972 399.867 223.853 400.319 222.9C400.771 221.941 401.4 221.201 402.206 220.678C403.011 220.15 403.943 219.886 404.999 219.886C405.816 219.886 406.464 220.022 406.943 220.294C407.427 220.561 407.798 220.866 408.054 221.209C408.315 221.547 408.516 221.824 408.658 222.042H408.854V220.049H410.716V232.954C410.716 234.032 410.471 234.909 409.981 235.584C409.497 236.265 408.843 236.763 408.021 237.079C407.204 237.4 406.295 237.561 405.293 237.561ZM405.228 230.667C406.001 230.667 406.654 230.49 407.188 230.136C407.721 229.782 408.127 229.273 408.405 228.609C408.683 227.945 408.821 227.15 408.821 226.224C408.821 225.32 408.685 224.522 408.413 223.831C408.141 223.139 407.738 222.598 407.204 222.206C406.671 221.813 406.012 221.617 405.228 221.617C404.411 221.617 403.73 221.824 403.186 222.238C402.647 222.652 402.241 223.207 401.969 223.904C401.702 224.601 401.569 225.375 401.569 226.224C401.569 227.095 401.705 227.866 401.977 228.535C402.255 229.2 402.663 229.722 403.202 230.104C403.747 230.479 404.422 230.667 405.228 230.667ZM414.245 232.595V220.049H416.107V222.009H416.27C416.532 221.34 416.954 220.82 417.536 220.449C418.119 220.074 418.819 219.886 419.635 219.886C420.463 219.886 421.152 220.074 421.702 220.449C422.257 220.82 422.69 221.34 423 222.009H423.131C423.452 221.362 423.934 220.847 424.577 220.466C425.219 220.079 425.99 219.886 426.888 219.886C428.01 219.886 428.927 220.237 429.641 220.94C430.354 221.637 430.711 222.723 430.711 224.198V232.595H428.783V224.198C428.783 223.273 428.53 222.611 428.023 222.214C427.517 221.816 426.921 221.617 426.235 221.617C425.353 221.617 424.669 221.884 424.185 222.418C423.7 222.946 423.458 223.616 423.458 224.427V232.595H421.498V224.002C421.498 223.289 421.266 222.715 420.803 222.279C420.34 221.838 419.744 221.617 419.015 221.617C418.514 221.617 418.045 221.751 417.61 222.018C417.18 222.284 416.831 222.655 416.564 223.128C416.303 223.597 416.172 224.139 416.172 224.754V232.595H414.245ZM437.927 232.889C437.132 232.889 436.41 232.739 435.762 232.44C435.114 232.135 434.6 231.696 434.219 231.125C433.837 230.547 433.647 229.85 433.647 229.034C433.647 228.315 433.788 227.732 434.072 227.286C434.355 226.834 434.733 226.48 435.207 226.224C435.681 225.968 436.203 225.777 436.775 225.652C437.352 225.522 437.932 225.418 438.515 225.342C439.277 225.244 439.895 225.17 440.369 225.121C440.848 225.067 441.196 224.977 441.414 224.852C441.637 224.727 441.749 224.509 441.749 224.198V224.133C441.749 223.327 441.529 222.701 441.088 222.255C440.652 221.808 439.99 221.585 439.103 221.585C438.183 221.585 437.461 221.786 436.938 222.189C436.416 222.592 436.048 223.022 435.836 223.48L434.006 222.826C434.333 222.064 434.769 221.47 435.313 221.046C435.863 220.616 436.462 220.316 437.11 220.147C437.763 219.973 438.406 219.886 439.037 219.886C439.44 219.886 439.903 219.935 440.426 220.033C440.954 220.126 441.463 220.319 441.953 220.613C442.449 220.907 442.86 221.351 443.187 221.944C443.513 222.538 443.677 223.333 443.677 224.329V232.595H441.749V230.896H441.651C441.52 231.168 441.303 231.459 440.998 231.77C440.693 232.08 440.287 232.344 439.781 232.562C439.274 232.78 438.656 232.889 437.927 232.889ZM438.221 231.157C438.983 231.157 439.626 231.007 440.148 230.708C440.676 230.409 441.074 230.022 441.341 229.548C441.613 229.074 441.749 228.576 441.749 228.054V226.289C441.667 226.387 441.488 226.477 441.21 226.559C440.938 226.635 440.622 226.703 440.263 226.763C439.909 226.818 439.563 226.867 439.225 226.91C438.893 226.948 438.624 226.981 438.417 227.008C437.916 227.073 437.448 227.18 437.012 227.327C436.582 227.468 436.233 227.683 435.966 227.972C435.705 228.255 435.574 228.642 435.574 229.132C435.574 229.801 435.822 230.308 436.318 230.651C436.819 230.988 437.453 231.157 438.221 231.157ZM447.195 232.595V220.049H449.122V232.595H447.195ZM448.175 217.958C447.799 217.958 447.475 217.83 447.203 217.574C446.936 217.319 446.803 217.011 446.803 216.652C446.803 216.292 446.936 215.985 447.203 215.729C447.475 215.473 447.799 215.345 448.175 215.345C448.551 215.345 448.872 215.473 449.139 215.729C449.411 215.985 449.547 216.292 449.547 216.652C449.547 217.011 449.411 217.319 449.139 217.574C448.872 217.83 448.551 217.958 448.175 217.958ZM454.58 215.867V232.595H452.653V215.867H454.58ZM459.516 232.725C459.113 232.725 458.767 232.581 458.478 232.293C458.19 232.004 458.046 231.658 458.046 231.255C458.046 230.852 458.19 230.507 458.478 230.218C458.767 229.929 459.113 229.785 459.516 229.785C459.919 229.785 460.264 229.929 460.553 230.218C460.842 230.507 460.986 230.852 460.986 231.255C460.986 231.522 460.918 231.767 460.782 231.99C460.651 232.214 460.474 232.393 460.251 232.529C460.033 232.66 459.788 232.725 459.516 232.725ZM469.541 232.856C468.365 232.856 467.353 232.578 466.503 232.023C465.654 231.468 465 230.703 464.543 229.728C464.085 228.753 463.857 227.64 463.857 226.387C463.857 225.113 464.091 223.989 464.559 223.014C465.033 222.034 465.692 221.269 466.536 220.719C467.385 220.164 468.376 219.886 469.509 219.886C470.391 219.886 471.186 220.049 471.894 220.376C472.602 220.703 473.181 221.16 473.633 221.748C474.085 222.336 474.366 223.022 474.475 223.806H472.547C472.4 223.235 472.073 222.728 471.567 222.287C471.066 221.841 470.391 221.617 469.541 221.617C468.79 221.617 468.131 221.813 467.565 222.206C467.004 222.592 466.566 223.139 466.25 223.847C465.94 224.55 465.784 225.375 465.784 226.322C465.784 227.291 465.937 228.135 466.242 228.854C466.552 229.573 466.988 230.131 467.549 230.528C468.115 230.926 468.779 231.125 469.541 231.125C470.042 231.125 470.497 231.037 470.905 230.863C471.314 230.689 471.66 230.438 471.943 230.112C472.226 229.785 472.427 229.393 472.547 228.936H474.475C474.366 229.676 474.096 230.343 473.666 230.937C473.241 231.525 472.678 231.993 471.975 232.342C471.278 232.685 470.467 232.856 469.541 232.856ZM482.389 232.856C481.257 232.856 480.263 232.587 479.408 232.047C478.559 231.508 477.894 230.754 477.415 229.785C476.941 228.816 476.704 227.683 476.704 226.387C476.704 225.081 476.941 223.94 477.415 222.965C477.894 221.99 478.559 221.234 479.408 220.695C480.263 220.155 481.257 219.886 482.389 219.886C483.522 219.886 484.513 220.155 485.362 220.695C486.217 221.234 486.881 221.99 487.355 222.965C487.834 223.94 488.074 225.081 488.074 226.387C488.074 227.683 487.834 228.816 487.355 229.785C486.881 230.754 486.217 231.508 485.362 232.047C484.513 232.587 483.522 232.856 482.389 232.856ZM482.389 231.125C483.249 231.125 483.957 230.904 484.513 230.463C485.068 230.022 485.479 229.442 485.746 228.723C486.013 228.005 486.146 227.226 486.146 226.387C486.146 225.549 486.013 224.767 485.746 224.043C485.479 223.319 485.068 222.734 484.513 222.287C483.957 221.841 483.249 221.617 482.389 221.617C481.529 221.617 480.821 221.841 480.266 222.287C479.71 222.734 479.299 223.319 479.032 224.043C478.765 224.767 478.632 225.549 478.632 226.387C478.632 227.226 478.765 228.005 479.032 228.723C479.299 229.442 479.71 230.022 480.266 230.463C480.821 230.904 481.529 231.125 482.389 231.125ZM491.016 232.595V220.049H492.878V222.009H493.042C493.303 221.34 493.725 220.82 494.308 220.449C494.89 220.074 495.59 219.886 496.407 219.886C497.234 219.886 497.923 220.074 498.473 220.449C499.029 220.82 499.461 221.34 499.772 222.009H499.903C500.224 221.362 500.706 220.847 501.348 220.466C501.991 220.079 502.761 219.886 503.66 219.886C504.781 219.886 505.699 220.237 506.412 220.94C507.125 221.637 507.482 222.723 507.482 224.198V232.595H505.555V224.198C505.555 223.273 505.301 222.611 504.795 222.214C504.289 221.816 503.692 221.617 503.006 221.617C502.124 221.617 501.441 221.884 500.956 222.418C500.472 222.946 500.229 223.616 500.229 224.427V232.595H498.269V224.002C498.269 223.289 498.038 222.715 497.575 222.279C497.112 221.838 496.516 221.617 495.786 221.617C495.285 221.617 494.817 221.751 494.381 222.018C493.951 222.284 493.603 222.655 493.336 223.128C493.074 223.597 492.944 224.139 492.944 224.754V232.595H491.016Z" fill="white"/>
<path d="M1691.57 96.133C1691.57 95.7086 1691.75 95.3016 1692.08 95.0014C1692.4 94.7013 1692.83 94.5327 1693.29 94.5327C1693.75 94.5327 1694.18 94.7013 1694.5 95.0014C1694.83 95.3016 1695.01 95.7086 1695.01 96.133V113.736C1695.01 114.16 1694.83 114.568 1694.5 114.868C1694.18 115.168 1693.75 115.336 1693.29 115.336H1655.51C1655.05 115.336 1654.62 115.168 1654.29 114.868C1653.97 114.568 1653.79 114.16 1653.79 113.736V78.53C1653.79 78.1055 1653.97 77.6985 1654.29 77.3984C1654.62 77.0983 1655.05 76.9297 1655.51 76.9297H1674.4C1674.86 76.9297 1675.29 77.0983 1675.61 77.3984C1675.94 77.6985 1676.12 78.1055 1676.12 78.53C1676.12 78.9544 1675.94 79.3614 1675.61 79.6615C1675.29 79.9616 1674.86 80.1302 1674.4 80.1302H1657.23V112.136H1691.57V96.133Z" fill="#1F4768"/>
<path d="M1672.14 98.2453L1674.98 97.8677L1692.38 81.6504C1692.55 81.5028 1692.68 81.3262 1692.77 81.131C1692.86 80.9358 1692.91 80.7258 1692.91 80.5133C1692.91 80.3008 1692.87 80.0901 1692.78 79.8934C1692.69 79.6967 1692.57 79.5181 1692.4 79.3678C1692.24 79.2176 1692.05 79.0987 1691.84 79.0183C1691.63 78.9378 1691.4 78.8973 1691.18 78.8992C1690.95 78.901 1690.72 78.9452 1690.51 79.029C1690.3 79.1129 1690.11 79.2348 1689.95 79.3876L1672.54 95.6049L1672.14 98.2453H1672.14ZM1694.81 77.1217C1695.29 77.5675 1695.67 78.0969 1695.93 78.6795C1696.19 79.2622 1696.32 79.8867 1696.32 80.5174C1696.32 81.1482 1696.19 81.7727 1695.93 82.3554C1695.67 82.938 1695.29 83.4674 1694.81 83.9132L1677 100.508C1676.74 100.754 1676.4 100.913 1676.03 100.963L1670.36 101.718C1670.1 101.753 1669.83 101.731 1669.58 101.652C1669.32 101.574 1669.09 101.441 1668.91 101.265C1668.72 101.09 1668.57 100.875 1668.49 100.639C1668.41 100.403 1668.38 100.153 1668.42 99.9064L1669.23 94.6255C1669.28 94.2827 1669.45 93.9649 1669.71 93.7197L1687.53 77.1249C1688.49 76.2248 1689.8 75.7192 1691.17 75.7192C1692.54 75.7192 1693.85 76.2248 1694.81 77.1249V77.1217Z" fill="#1F4768"/>
<path d="M311.631 590.498C309.113 590.498 306.958 589.601 305.165 587.808C303.372 586.015 302.475 583.859 302.475 581.341C302.475 578.823 303.372 576.667 305.165 574.874C306.958 573.081 309.113 572.185 311.631 572.185C314.15 572.185 316.305 573.081 318.098 574.874C319.891 576.667 320.788 578.823 320.788 581.341C320.788 583.859 319.891 586.015 318.098 587.808C316.305 589.601 314.15 590.498 311.631 590.498ZM293.318 608.811V602.401C293.318 601.104 293.653 599.912 294.321 598.826C294.989 597.739 295.876 596.909 296.981 596.335C299.346 595.152 301.75 594.266 304.192 593.675C306.634 593.084 309.113 592.788 311.631 592.787C314.15 592.787 316.629 593.083 319.071 593.675C321.513 594.267 323.917 595.154 326.282 596.335C327.388 596.907 328.276 597.737 328.944 598.826C329.613 599.914 329.946 601.106 329.945 602.401V608.811H293.318Z" fill="#AEE1F2"/>
<path d="M348.191 591.058C348.191 610.94 332.074 627.058 312.191 627.058C292.309 627.058 276.191 610.94 276.191 591.058C276.191 571.176 292.309 555.058 312.191 555.058C332.074 555.058 348.191 571.176 348.191 591.058Z" stroke="#776A6A" stroke-width="2"/>
<path d="M384.636 574.152V560.152H389.876C391.063 560.152 392.083 560.345 392.936 560.732C393.79 561.105 394.443 561.652 394.896 562.372C395.363 563.078 395.596 563.938 395.596 564.952C395.596 565.938 395.363 566.792 394.896 567.512C394.443 568.218 393.79 568.765 392.936 569.152C392.083 569.538 391.063 569.732 389.876 569.732H385.456L386.116 569.032V574.152H384.636ZM386.116 569.152L385.456 568.432H389.836C391.236 568.432 392.296 568.132 393.016 567.532C393.75 566.918 394.116 566.058 394.116 564.952C394.116 563.832 393.75 562.965 393.016 562.352C392.296 561.738 391.236 561.432 389.836 561.432H385.456L386.116 560.732V569.152ZM402.718 574.252C401.705 574.252 400.791 574.025 399.978 573.572C399.178 573.105 398.545 572.472 398.078 571.672C397.611 570.858 397.378 569.932 397.378 568.892C397.378 567.838 397.611 566.912 398.078 566.112C398.545 565.312 399.178 564.685 399.978 564.232C400.778 563.778 401.691 563.552 402.718 563.552C403.758 563.552 404.678 563.778 405.478 564.232C406.291 564.685 406.925 565.312 407.378 566.112C407.845 566.912 408.078 567.838 408.078 568.892C408.078 569.932 407.845 570.858 407.378 571.672C406.925 572.472 406.291 573.105 405.478 573.572C404.665 574.025 403.745 574.252 402.718 574.252ZM402.718 572.992C403.478 572.992 404.151 572.825 404.738 572.492C405.325 572.145 405.785 571.665 406.118 571.052C406.465 570.425 406.638 569.705 406.638 568.892C406.638 568.065 406.465 567.345 406.118 566.732C405.785 566.118 405.325 565.645 404.738 565.312C404.151 564.965 403.485 564.792 402.738 564.792C401.991 564.792 401.325 564.965 400.738 565.312C400.151 565.645 399.685 566.118 399.338 566.732C398.991 567.345 398.818 568.065 398.818 568.892C398.818 569.705 398.991 570.425 399.338 571.052C399.685 571.665 400.151 572.145 400.738 572.492C401.325 572.825 401.985 572.992 402.718 572.992ZM413.797 574.252C412.93 574.252 412.11 574.132 411.337 573.892C410.564 573.638 409.957 573.325 409.517 572.952L410.157 571.832C410.584 572.152 411.13 572.432 411.797 572.672C412.464 572.898 413.164 573.012 413.897 573.012C414.897 573.012 415.617 572.858 416.057 572.552C416.497 572.232 416.717 571.812 416.717 571.292C416.717 570.905 416.59 570.605 416.337 570.392C416.097 570.165 415.777 569.998 415.377 569.892C414.977 569.772 414.53 569.672 414.037 569.592C413.544 569.512 413.05 569.418 412.557 569.312C412.077 569.205 411.637 569.052 411.237 568.852C410.837 568.638 410.51 568.352 410.257 567.992C410.017 567.632 409.897 567.152 409.897 566.552C409.897 565.978 410.057 565.465 410.377 565.012C410.697 564.558 411.164 564.205 411.777 563.952C412.404 563.685 413.164 563.552 414.057 563.552C414.737 563.552 415.417 563.645 416.097 563.832C416.777 564.005 417.337 564.238 417.777 564.532L417.157 565.672C416.69 565.352 416.19 565.125 415.657 564.992C415.124 564.845 414.59 564.772 414.057 564.772C413.11 564.772 412.41 564.938 411.957 565.272C411.517 565.592 411.297 566.005 411.297 566.512C411.297 566.912 411.417 567.225 411.657 567.452C411.91 567.678 412.237 567.858 412.637 567.992C413.05 568.112 413.497 568.212 413.977 568.292C414.47 568.372 414.957 568.472 415.437 568.592C415.93 568.698 416.377 568.852 416.777 569.052C417.19 569.238 417.517 569.512 417.757 569.872C418.01 570.218 418.137 570.678 418.137 571.252C418.137 571.865 417.964 572.398 417.617 572.852C417.284 573.292 416.79 573.638 416.137 573.892C415.497 574.132 414.717 574.252 413.797 574.252ZM420.743 574.152V563.652H422.163V574.152H420.743ZM421.463 561.332C421.169 561.332 420.923 561.232 420.723 561.032C420.523 560.832 420.423 560.592 420.423 560.312C420.423 560.032 420.523 559.798 420.723 559.612C420.923 559.412 421.169 559.312 421.463 559.312C421.756 559.312 422.003 559.405 422.203 559.592C422.403 559.778 422.503 560.012 422.503 560.292C422.503 560.585 422.403 560.832 422.203 561.032C422.016 561.232 421.769 561.332 421.463 561.332ZM429.434 574.252C428.447 574.252 427.687 573.985 427.154 573.452C426.62 572.918 426.354 572.165 426.354 571.192V561.332H427.774V571.112C427.774 571.725 427.927 572.198 428.234 572.532C428.554 572.865 429.007 573.032 429.594 573.032C430.22 573.032 430.74 572.852 431.154 572.492L431.654 573.512C431.374 573.765 431.034 573.952 430.634 574.072C430.247 574.192 429.847 574.252 429.434 574.252ZM424.474 564.832V563.652H430.974V564.832H424.474ZM434.239 574.152V563.652H435.659V574.152H434.239ZM434.959 561.332C434.665 561.332 434.419 561.232 434.219 561.032C434.019 560.832 433.919 560.592 433.919 560.312C433.919 560.032 434.019 559.798 434.219 559.612C434.419 559.412 434.665 559.312 434.959 559.312C435.252 559.312 435.499 559.405 435.699 559.592C435.899 559.778 435.999 560.012 435.999 560.292C435.999 560.585 435.899 560.832 435.699 561.032C435.512 561.232 435.265 561.332 434.959 561.332ZM443.89 574.252C442.877 574.252 441.963 574.025 441.15 573.572C440.35 573.105 439.717 572.472 439.25 571.672C438.783 570.858 438.55 569.932 438.55 568.892C438.55 567.838 438.783 566.912 439.25 566.112C439.717 565.312 440.35 564.685 441.15 564.232C441.95 563.778 442.863 563.552 443.89 563.552C444.93 563.552 445.85 563.778 446.65 564.232C447.463 564.685 448.097 565.312 448.55 566.112C449.017 566.912 449.25 567.838 449.25 568.892C449.25 569.932 449.017 570.858 448.55 571.672C448.097 572.472 447.463 573.105 446.65 573.572C445.837 574.025 444.917 574.252 443.89 574.252ZM443.89 572.992C444.65 572.992 445.323 572.825 445.91 572.492C446.497 572.145 446.957 571.665 447.29 571.052C447.637 570.425 447.81 569.705 447.81 568.892C447.81 568.065 447.637 567.345 447.29 566.732C446.957 566.118 446.497 565.645 445.91 565.312C445.323 564.965 444.657 564.792 443.91 564.792C443.163 564.792 442.497 564.965 441.91 565.312C441.323 565.645 440.857 566.118 440.51 566.732C440.163 567.345 439.99 568.065 439.99 568.892C439.99 569.705 440.163 570.425 440.51 571.052C440.857 571.665 441.323 572.145 441.91 572.492C442.497 572.825 443.157 572.992 443.89 572.992ZM457.509 563.552C458.362 563.552 459.109 563.718 459.749 564.052C460.402 564.372 460.909 564.865 461.269 565.532C461.642 566.198 461.829 567.038 461.829 568.052V574.152H460.409V568.192C460.409 567.085 460.129 566.252 459.569 565.692C459.022 565.118 458.249 564.832 457.249 564.832C456.502 564.832 455.849 564.985 455.289 565.292C454.742 565.585 454.316 566.018 454.009 566.592C453.716 567.152 453.569 567.832 453.569 568.632V574.152H452.149V563.652H453.509V566.532L453.289 565.992C453.622 565.232 454.156 564.638 454.889 564.212C455.622 563.772 456.496 563.552 457.509 563.552Z" fill="#776A6A"/>
<path d="M384.636 607.822V593.822H385.856L392.256 604.742H391.616L397.956 593.822H399.176V607.822H397.756V596.042H398.096L392.256 606.042H391.556L385.676 596.042H386.056V607.822H384.636ZM410.018 607.822V605.502L409.958 605.122V601.242C409.958 600.348 409.705 599.662 409.198 599.182C408.705 598.702 407.965 598.462 406.978 598.462C406.298 598.462 405.651 598.575 405.038 598.802C404.425 599.028 403.905 599.328 403.478 599.702L402.838 598.642C403.371 598.188 404.011 597.842 404.758 597.602C405.505 597.348 406.291 597.222 407.118 597.222C408.478 597.222 409.525 597.562 410.258 598.242C411.005 598.908 411.378 599.928 411.378 601.302V607.822H410.018ZM406.398 607.922C405.611 607.922 404.925 607.795 404.338 607.542C403.765 607.275 403.325 606.915 403.018 606.462C402.711 605.995 402.558 605.462 402.558 604.862C402.558 604.315 402.685 603.822 402.938 603.382C403.205 602.928 403.631 602.568 404.218 602.302C404.818 602.022 405.618 601.882 406.618 601.882H410.238V602.942H406.658C405.645 602.942 404.938 603.122 404.538 603.482C404.151 603.842 403.958 604.288 403.958 604.822C403.958 605.422 404.191 605.902 404.658 606.262C405.125 606.622 405.778 606.802 406.618 606.802C407.418 606.802 408.105 606.622 408.678 606.262C409.265 605.888 409.691 605.355 409.958 604.662L410.278 605.642C410.011 606.335 409.545 606.888 408.878 607.302C408.225 607.715 407.398 607.922 406.398 607.922ZM415.235 607.822V597.322H416.595V600.182L416.455 599.682C416.748 598.882 417.242 598.275 417.935 597.862C418.628 597.435 419.488 597.222 420.515 597.222V598.602C420.462 598.602 420.408 598.602 420.355 598.602C420.302 598.588 420.248 598.582 420.195 598.582C419.088 598.582 418.222 598.922 417.595 599.602C416.968 600.268 416.655 601.222 416.655 602.462V607.822H415.235ZM424.226 605.102L424.266 603.282L430.806 597.322H432.546L427.926 601.742L427.126 602.422L424.226 605.102ZM423.106 607.822V592.982H424.526V607.822H423.106ZM431.246 607.822L426.866 602.362L427.786 601.262L432.986 607.822H431.246ZM439.168 607.922C438.074 607.922 437.114 607.695 436.288 607.242C435.461 606.775 434.814 606.142 434.348 605.342C433.881 604.528 433.648 603.602 433.648 602.562C433.648 601.522 433.868 600.602 434.308 599.802C434.761 599.002 435.374 598.375 436.148 597.922C436.934 597.455 437.814 597.222 438.788 597.222C439.774 597.222 440.648 597.448 441.408 597.902C442.181 598.342 442.788 598.968 443.228 599.782C443.668 600.582 443.888 601.508 443.888 602.562C443.888 602.628 443.881 602.702 443.868 602.782C443.868 602.848 443.868 602.922 443.868 603.002H434.728V601.942H443.108L442.548 602.362C442.548 601.602 442.381 600.928 442.048 600.342C441.728 599.742 441.288 599.275 440.728 598.942C440.168 598.608 439.521 598.442 438.788 598.442C438.068 598.442 437.421 598.608 436.848 598.942C436.274 599.275 435.828 599.742 435.508 600.342C435.188 600.942 435.028 601.628 435.028 602.402V602.622C435.028 603.422 435.201 604.128 435.548 604.742C435.908 605.342 436.401 605.815 437.028 606.162C437.668 606.495 438.394 606.662 439.208 606.662C439.848 606.662 440.441 606.548 440.988 606.322C441.548 606.095 442.028 605.748 442.428 605.282L443.228 606.202C442.761 606.762 442.174 607.188 441.468 607.482C440.774 607.775 440.008 607.922 439.168 607.922ZM450.098 607.922C449.111 607.922 448.351 607.655 447.818 607.122C447.285 606.588 447.018 605.835 447.018 604.862V595.002H448.438V604.782C448.438 605.395 448.591 605.868 448.898 606.202C449.218 606.535 449.671 606.702 450.258 606.702C450.885 606.702 451.405 606.522 451.818 606.162L452.318 607.182C452.038 607.435 451.698 607.622 451.298 607.742C450.911 607.862 450.511 607.922 450.098 607.922ZM445.138 598.502V597.322H451.638V598.502H445.138ZM454.903 607.822V597.322H456.323V607.822H454.903ZM455.623 595.002C455.33 595.002 455.083 594.902 454.883 594.702C454.683 594.502 454.583 594.262 454.583 593.982C454.583 593.702 454.683 593.468 454.883 593.282C455.083 593.082 455.33 592.982 455.623 592.982C455.916 592.982 456.163 593.075 456.363 593.262C456.563 593.448 456.663 593.682 456.663 593.962C456.663 594.255 456.563 594.502 456.363 594.702C456.176 594.902 455.93 595.002 455.623 595.002ZM465.634 597.222C466.487 597.222 467.234 597.388 467.874 597.722C468.527 598.042 469.034 598.535 469.394 599.202C469.767 599.868 469.954 600.708 469.954 601.722V607.822H468.534V601.862C468.534 600.755 468.254 599.922 467.694 599.362C467.147 598.788 466.374 598.502 465.374 598.502C464.627 598.502 463.974 598.655 463.414 598.962C462.867 599.255 462.441 599.688 462.134 600.262C461.841 600.822 461.694 601.502 461.694 602.302V607.822H460.274V597.322H461.634V600.202L461.414 599.662C461.747 598.902 462.281 598.308 463.014 597.882C463.747 597.442 464.621 597.222 465.634 597.222ZM478.27 611.802C477.31 611.802 476.39 611.662 475.51 611.382C474.63 611.102 473.916 610.702 473.37 610.182L474.09 609.102C474.583 609.542 475.19 609.888 475.91 610.142C476.643 610.408 477.416 610.542 478.23 610.542C479.563 610.542 480.543 610.228 481.17 609.602C481.796 608.988 482.11 608.028 482.11 606.722V604.102L482.31 602.302L482.17 600.502V597.322H483.53V606.542C483.53 608.355 483.083 609.682 482.19 610.522C481.31 611.375 480.003 611.802 478.27 611.802ZM478.01 607.422C477.01 607.422 476.11 607.208 475.31 606.782C474.51 606.342 473.876 605.735 473.41 604.962C472.956 604.188 472.73 603.302 472.73 602.302C472.73 601.302 472.956 600.422 473.41 599.662C473.876 598.888 474.51 598.288 475.31 597.862C476.11 597.435 477.01 597.222 478.01 597.222C478.943 597.222 479.783 597.415 480.53 597.802C481.276 598.188 481.87 598.762 482.31 599.522C482.75 600.282 482.97 601.208 482.97 602.302C482.97 603.395 482.75 604.322 482.31 605.082C481.87 605.842 481.276 606.422 480.53 606.822C479.783 607.222 478.943 607.422 478.01 607.422ZM478.15 606.162C478.923 606.162 479.61 606.002 480.21 605.682C480.81 605.348 481.283 604.895 481.63 604.322C481.976 603.735 482.15 603.062 482.15 602.302C482.15 601.542 481.976 600.875 481.63 600.302C481.283 599.728 480.81 599.282 480.21 598.962C479.61 598.628 478.923 598.462 478.15 598.462C477.39 598.462 476.703 598.628 476.09 598.962C475.49 599.282 475.016 599.728 474.67 600.302C474.336 600.875 474.17 601.542 474.17 602.302C474.17 603.062 474.336 603.735 474.67 604.322C475.016 604.895 475.49 605.348 476.09 605.682C476.703 606.002 477.39 606.162 478.15 606.162ZM493.015 607.822V593.822H494.235L500.635 604.742H499.995L506.335 593.822H507.555V607.822H506.135V596.042H506.475L500.635 606.042H499.935L494.055 596.042H494.435V607.822H493.015ZM516.277 607.922C515.184 607.922 514.224 607.695 513.397 607.242C512.57 606.775 511.924 606.142 511.457 605.342C510.99 604.528 510.757 603.602 510.757 602.562C510.757 601.522 510.977 600.602 511.417 599.802C511.87 599.002 512.484 598.375 513.257 597.922C514.044 597.455 514.924 597.222 515.897 597.222C516.884 597.222 517.757 597.448 518.517 597.902C519.29 598.342 519.897 598.968 520.337 599.782C520.777 600.582 520.997 601.508 520.997 602.562C520.997 602.628 520.99 602.702 520.977 602.782C520.977 602.848 520.977 602.922 520.977 603.002H511.837V601.942H520.217L519.657 602.362C519.657 601.602 519.49 600.928 519.157 600.342C518.837 599.742 518.397 599.275 517.837 598.942C517.277 598.608 516.63 598.442 515.897 598.442C515.177 598.442 514.53 598.608 513.957 598.942C513.384 599.275 512.937 599.742 512.617 600.342C512.297 600.942 512.137 601.628 512.137 602.402V602.622C512.137 603.422 512.31 604.128 512.657 604.742C513.017 605.342 513.51 605.815 514.137 606.162C514.777 606.495 515.504 606.662 516.317 606.662C516.957 606.662 517.55 606.548 518.097 606.322C518.657 606.095 519.137 605.748 519.537 605.282L520.337 606.202C519.87 606.762 519.284 607.188 518.577 607.482C517.884 607.775 517.117 607.922 516.277 607.922ZM529.247 597.222C530.101 597.222 530.847 597.388 531.487 597.722C532.141 598.042 532.647 598.535 533.007 599.202C533.381 599.868 533.567 600.708 533.567 601.722V607.822H532.147V601.862C532.147 600.755 531.867 599.922 531.307 599.362C530.761 598.788 529.987 598.502 528.987 598.502C528.241 598.502 527.587 598.655 527.027 598.962C526.481 599.255 526.054 599.688 525.747 600.262C525.454 600.822 525.307 601.502 525.307 602.302V607.822H523.887V597.322H525.247V600.202L525.027 599.662C525.361 598.902 525.894 598.308 526.627 597.882C527.361 597.442 528.234 597.222 529.247 597.222ZM543.983 607.822V605.502L543.923 605.122V601.242C543.923 600.348 543.67 599.662 543.163 599.182C542.67 598.702 541.93 598.462 540.943 598.462C540.263 598.462 539.616 598.575 539.003 598.802C538.39 599.028 537.87 599.328 537.443 599.702L536.803 598.642C537.336 598.188 537.976 597.842 538.723 597.602C539.47 597.348 540.256 597.222 541.083 597.222C542.443 597.222 543.49 597.562 544.223 598.242C544.97 598.908 545.343 599.928 545.343 601.302V607.822H543.983ZM540.363 607.922C539.576 607.922 538.89 607.795 538.303 607.542C537.73 607.275 537.29 606.915 536.983 606.462C536.676 605.995 536.523 605.462 536.523 604.862C536.523 604.315 536.65 603.822 536.903 603.382C537.17 602.928 537.596 602.568 538.183 602.302C538.783 602.022 539.583 601.882 540.583 601.882H544.203V602.942H540.623C539.61 602.942 538.903 603.122 538.503 603.482C538.116 603.842 537.923 604.288 537.923 604.822C537.923 605.422 538.156 605.902 538.623 606.262C539.09 606.622 539.743 606.802 540.583 606.802C541.383 606.802 542.07 606.622 542.643 606.262C543.23 605.888 543.656 605.355 543.923 604.662L544.243 605.642C543.976 606.335 543.51 606.888 542.843 607.302C542.19 607.715 541.363 607.922 540.363 607.922ZM553.68 611.802C552.72 611.802 551.8 611.662 550.92 611.382C550.04 611.102 549.326 610.702 548.78 610.182L549.5 609.102C549.993 609.542 550.6 609.888 551.32 610.142C552.053 610.408 552.826 610.542 553.64 610.542C554.973 610.542 555.953 610.228 556.58 609.602C557.206 608.988 557.52 608.028 557.52 606.722V604.102L557.72 602.302L557.58 600.502V597.322H558.94V606.542C558.94 608.355 558.493 609.682 557.6 610.522C556.72 611.375 555.413 611.802 553.68 611.802ZM553.42 607.422C552.42 607.422 551.52 607.208 550.72 606.782C549.92 606.342 549.286 605.735 548.82 604.962C548.366 604.188 548.14 603.302 548.14 602.302C548.14 601.302 548.366 600.422 548.82 599.662C549.286 598.888 549.92 598.288 550.72 597.862C551.52 597.435 552.42 597.222 553.42 597.222C554.353 597.222 555.193 597.415 555.94 597.802C556.686 598.188 557.28 598.762 557.72 599.522C558.16 600.282 558.38 601.208 558.38 602.302C558.38 603.395 558.16 604.322 557.72 605.082C557.28 605.842 556.686 606.422 555.94 606.822C555.193 607.222 554.353 607.422 553.42 607.422ZM553.56 606.162C554.333 606.162 555.02 606.002 555.62 605.682C556.22 605.348 556.693 604.895 557.04 604.322C557.386 603.735 557.56 603.062 557.56 602.302C557.56 601.542 557.386 600.875 557.04 600.302C556.693 599.728 556.22 599.282 555.62 598.962C555.02 598.628 554.333 598.462 553.56 598.462C552.8 598.462 552.113 598.628 551.5 598.962C550.9 599.282 550.426 599.728 550.08 600.302C549.746 600.875 549.58 601.542 549.58 602.302C549.58 603.062 549.746 603.735 550.08 604.322C550.426 604.895 550.9 605.348 551.5 605.682C552.113 606.002 552.8 606.162 553.56 606.162ZM567.351 607.922C566.258 607.922 565.298 607.695 564.471 607.242C563.644 606.775 562.998 606.142 562.531 605.342C562.064 604.528 561.831 603.602 561.831 602.562C561.831 601.522 562.051 600.602 562.491 599.802C562.944 599.002 563.558 598.375 564.331 597.922C565.118 597.455 565.998 597.222 566.971 597.222C567.958 597.222 568.831 597.448 569.591 597.902C570.364 598.342 570.971 598.968 571.411 599.782C571.851 600.582 572.071 601.508 572.071 602.562C572.071 602.628 572.064 602.702 572.051 602.782C572.051 602.848 572.051 602.922 572.051 603.002H562.911V601.942H571.291L570.731 602.362C570.731 601.602 570.564 600.928 570.231 600.342C569.911 599.742 569.471 599.275 568.911 598.942C568.351 598.608 567.704 598.442 566.971 598.442C566.251 598.442 565.604 598.608 565.031 598.942C564.458 599.275 564.011 599.742 563.691 600.342C563.371 600.942 563.211 601.628 563.211 602.402V602.622C563.211 603.422 563.384 604.128 563.731 604.742C564.091 605.342 564.584 605.815 565.211 606.162C565.851 606.495 566.578 606.662 567.391 606.662C568.031 606.662 568.624 606.548 569.171 606.322C569.731 606.095 570.211 605.748 570.611 605.282L571.411 606.202C570.944 606.762 570.358 607.188 569.651 607.482C568.958 607.775 568.191 607.922 567.351 607.922ZM574.961 607.822V597.322H576.321V600.182L576.181 599.682C576.475 598.882 576.968 598.275 577.661 597.862C578.355 597.435 579.215 597.222 580.241 597.222V598.602C580.188 598.602 580.135 598.602 580.081 598.602C580.028 598.588 579.975 598.582 579.921 598.582C578.815 598.582 577.948 598.922 577.321 599.602C576.695 600.268 576.381 601.222 576.381 602.462V607.822H574.961Z" fill="black"/>
<path d="M384.636 691.997V677.997H389.876C391.063 677.997 392.083 678.19 392.936 678.577C393.79 678.95 394.443 679.497 394.896 680.217C395.363 680.923 395.596 681.783 395.596 682.797C395.596 683.783 395.363 684.637 394.896 685.357C394.443 686.063 393.79 686.61 392.936 686.997C392.083 687.383 391.063 687.577 389.876 687.577H385.456L386.116 686.877V691.997H384.636ZM386.116 686.997L385.456 686.277H389.836C391.236 686.277 392.296 685.977 393.016 685.377C393.75 684.763 394.116 683.903 394.116 682.797C394.116 681.677 393.75 680.81 393.016 680.197C392.296 679.583 391.236 679.277 389.836 679.277H385.456L386.116 678.577V686.997ZM404.052 681.397C404.905 681.397 405.652 681.563 406.292 681.897C406.945 682.217 407.452 682.71 407.812 683.377C408.185 684.043 408.372 684.883 408.372 685.897V691.997H406.952V686.037C406.952 684.93 406.672 684.097 406.112 683.537C405.565 682.963 404.792 682.677 403.792 682.677C403.045 682.677 402.392 682.83 401.832 683.137C401.285 683.43 400.859 683.863 400.552 684.437C400.259 684.997 400.112 685.677 400.112 686.477V691.997H398.692V677.157H400.112V684.377L399.832 683.837C400.165 683.077 400.699 682.483 401.432 682.057C402.165 681.617 403.039 681.397 404.052 681.397ZM416.488 692.097C415.474 692.097 414.561 691.87 413.748 691.417C412.948 690.95 412.314 690.317 411.848 689.517C411.381 688.703 411.148 687.777 411.148 686.737C411.148 685.683 411.381 684.757 411.848 683.957C412.314 683.157 412.948 682.53 413.748 682.077C414.548 681.623 415.461 681.397 416.488 681.397C417.528 681.397 418.448 681.623 419.248 682.077C420.061 682.53 420.694 683.157 421.148 683.957C421.614 684.757 421.848 685.683 421.848 686.737C421.848 687.777 421.614 688.703 421.148 689.517C420.694 690.317 420.061 690.95 419.248 691.417C418.434 691.87 417.514 692.097 416.488 692.097ZM416.488 690.837C417.248 690.837 417.921 690.67 418.508 690.337C419.094 689.99 419.554 689.51 419.888 688.897C420.234 688.27 420.408 687.55 420.408 686.737C420.408 685.91 420.234 685.19 419.888 684.577C419.554 683.963 419.094 683.49 418.508 683.157C417.921 682.81 417.254 682.637 416.508 682.637C415.761 682.637 415.094 682.81 414.508 683.157C413.921 683.49 413.454 683.963 413.108 684.577C412.761 685.19 412.588 685.91 412.588 686.737C412.588 687.55 412.761 688.27 413.108 688.897C413.454 689.51 413.921 689.99 414.508 690.337C415.094 690.67 415.754 690.837 416.488 690.837ZM430.107 681.397C430.96 681.397 431.707 681.563 432.347 681.897C433 682.217 433.507 682.71 433.867 683.377C434.24 684.043 434.427 684.883 434.427 685.897V691.997H433.007V686.037C433.007 684.93 432.727 684.097 432.167 683.537C431.62 682.963 430.847 682.677 429.847 682.677C429.1 682.677 428.447 682.83 427.887 683.137C427.34 683.43 426.913 683.863 426.607 684.437C426.313 684.997 426.167 685.677 426.167 686.477V691.997H424.747V681.497H426.107V684.377L425.887 683.837C426.22 683.077 426.753 682.483 427.487 682.057C428.22 681.617 429.093 681.397 430.107 681.397ZM442.722 692.097C441.629 692.097 440.669 691.87 439.842 691.417C439.016 690.95 438.369 690.317 437.902 689.517C437.436 688.703 437.202 687.777 437.202 686.737C437.202 685.697 437.422 684.777 437.862 683.977C438.316 683.177 438.929 682.55 439.702 682.097C440.489 681.63 441.369 681.397 442.342 681.397C443.329 681.397 444.202 681.623 444.962 682.077C445.736 682.517 446.342 683.143 446.782 683.957C447.222 684.757 447.442 685.683 447.442 686.737C447.442 686.803 447.436 686.877 447.422 686.957C447.422 687.023 447.422 687.097 447.422 687.177H438.282V686.117H446.662L446.102 686.537C446.102 685.777 445.936 685.103 445.602 684.517C445.282 683.917 444.842 683.45 444.282 683.117C443.722 682.783 443.076 682.617 442.342 682.617C441.622 682.617 440.976 682.783 440.402 683.117C439.829 683.45 439.382 683.917 439.062 684.517C438.742 685.117 438.582 685.803 438.582 686.577V686.797C438.582 687.597 438.756 688.303 439.102 688.917C439.462 689.517 439.956 689.99 440.582 690.337C441.222 690.67 441.949 690.837 442.762 690.837C443.402 690.837 443.996 690.723 444.542 690.497C445.102 690.27 445.582 689.923 445.982 689.457L446.782 690.377C446.316 690.937 445.729 691.363 445.022 691.657C444.329 691.95 443.562 692.097 442.722 692.097ZM455.867 691.997V677.997H457.087L466.747 690.157H466.107V677.997H467.567V691.997H466.347L456.707 679.837H457.347V691.997H455.867ZM476.176 692.097C475.283 692.097 474.503 691.93 473.836 691.597C473.17 691.263 472.65 690.763 472.276 690.097C471.916 689.43 471.736 688.597 471.736 687.597V681.497H473.156V687.437C473.156 688.557 473.43 689.403 473.976 689.977C474.536 690.537 475.316 690.817 476.316 690.817C477.05 690.817 477.683 690.67 478.216 690.377C478.763 690.07 479.176 689.63 479.456 689.057C479.75 688.483 479.896 687.797 479.896 686.997V681.497H481.316V691.997H479.956V689.117L480.176 689.637C479.843 690.41 479.323 691.017 478.616 691.457C477.923 691.883 477.11 692.097 476.176 692.097ZM498.394 681.397C499.247 681.397 499.987 681.563 500.614 681.897C501.254 682.217 501.747 682.71 502.094 683.377C502.454 684.043 502.634 684.883 502.634 685.897V691.997H501.214V686.037C501.214 684.93 500.947 684.097 500.414 683.537C499.894 682.963 499.154 682.677 498.194 682.677C497.474 682.677 496.847 682.83 496.314 683.137C495.794 683.43 495.387 683.863 495.094 684.437C494.814 684.997 494.674 685.677 494.674 686.477V691.997H493.254V686.037C493.254 684.93 492.987 684.097 492.454 683.537C491.921 682.963 491.174 682.677 490.214 682.677C489.507 682.677 488.887 682.83 488.354 683.137C487.821 683.43 487.407 683.863 487.114 684.437C486.834 684.997 486.694 685.677 486.694 686.477V691.997H485.274V681.497H486.634V684.337L486.414 683.837C486.734 683.077 487.247 682.483 487.954 682.057C488.674 681.617 489.521 681.397 490.494 681.397C491.521 681.397 492.394 681.657 493.114 682.177C493.834 682.683 494.301 683.45 494.514 684.477L493.954 684.257C494.261 683.403 494.801 682.717 495.574 682.197C496.361 681.663 497.301 681.397 498.394 681.397ZM511.905 692.097C510.985 692.097 510.158 691.89 509.425 691.477C508.692 691.05 508.112 690.437 507.685 689.637C507.258 688.837 507.045 687.87 507.045 686.737C507.045 685.59 507.258 684.623 507.685 683.837C508.125 683.037 508.712 682.43 509.445 682.017C510.178 681.603 510.998 681.397 511.905 681.397C512.905 681.397 513.798 681.623 514.585 682.077C515.385 682.517 516.012 683.137 516.465 683.937C516.918 684.737 517.145 685.67 517.145 686.737C517.145 687.79 516.918 688.723 516.465 689.537C516.012 690.337 515.385 690.963 514.585 691.417C513.798 691.87 512.905 692.097 511.905 692.097ZM506.485 691.997V677.157H507.905V684.597L507.705 686.717L507.845 688.837V691.997H506.485ZM511.805 690.837C512.552 690.837 513.218 690.67 513.805 690.337C514.392 689.99 514.858 689.51 515.205 688.897C515.552 688.27 515.725 687.55 515.725 686.737C515.725 685.91 515.552 685.19 515.205 684.577C514.858 683.963 514.392 683.49 513.805 683.157C513.218 682.81 512.552 682.637 511.805 682.637C511.058 682.637 510.385 682.81 509.785 683.157C509.198 683.49 508.732 683.963 508.385 684.577C508.052 685.19 507.885 685.91 507.885 686.737C507.885 687.55 508.052 688.27 508.385 688.897C508.732 689.51 509.198 689.99 509.785 690.337C510.385 690.67 511.058 690.837 511.805 690.837ZM524.5 692.097C523.406 692.097 522.446 691.87 521.62 691.417C520.793 690.95 520.146 690.317 519.68 689.517C519.213 688.703 518.98 687.777 518.98 686.737C518.98 685.697 519.2 684.777 519.64 683.977C520.093 683.177 520.706 682.55 521.48 682.097C522.266 681.63 523.146 681.397 524.12 681.397C525.106 681.397 525.98 681.623 526.74 682.077C527.513 682.517 528.12 683.143 528.56 683.957C529 684.757 529.22 685.683 529.22 686.737C529.22 686.803 529.213 686.877 529.2 686.957C529.2 687.023 529.2 687.097 529.2 687.177H520.06V686.117H528.44L527.88 686.537C527.88 685.777 527.713 685.103 527.38 684.517C527.06 683.917 526.62 683.45 526.06 683.117C525.5 682.783 524.853 682.617 524.12 682.617C523.4 682.617 522.753 682.783 522.18 683.117C521.606 683.45 521.16 683.917 520.84 684.517C520.52 685.117 520.36 685.803 520.36 686.577V686.797C520.36 687.597 520.533 688.303 520.88 688.917C521.24 689.517 521.733 689.99 522.36 690.337C523 690.67 523.726 690.837 524.54 690.837C525.18 690.837 525.773 690.723 526.32 690.497C526.88 690.27 527.36 689.923 527.76 689.457L528.56 690.377C528.093 690.937 527.506 691.363 526.8 691.657C526.106 691.95 525.34 692.097 524.5 692.097ZM532.11 691.997V681.497H533.47V684.357L533.33 683.857C533.623 683.057 534.117 682.45 534.81 682.037C535.503 681.61 536.363 681.397 537.39 681.397V682.777C537.337 682.777 537.283 682.777 537.23 682.777C537.177 682.763 537.123 682.757 537.07 682.757C535.963 682.757 535.097 683.097 534.47 683.777C533.843 684.443 533.53 685.397 533.53 686.637V691.997H532.11Z" fill="#776A6A"/>
<path d="M301.325 711.414C304.084 716.834 308.527 721.259 313.948 724.036L318.162 719.822C318.679 719.305 319.445 719.133 320.115 719.363C322.261 720.071 324.578 720.454 326.953 720.454C328.007 720.454 328.869 721.316 328.869 722.37V729.055C328.869 730.108 328.007 730.97 326.953 730.97C308.968 730.97 294.392 716.394 294.392 698.408C294.392 697.355 295.254 696.493 296.307 696.493H303.011C304.064 696.493 304.926 697.355 304.926 698.408C304.926 700.802 305.309 703.101 306.018 705.246C306.229 705.916 306.076 706.663 305.539 707.2L301.325 711.414Z" fill="#0ABF73"/>
<path d="M348.191 714.292C348.191 734.174 332.074 750.292 312.191 750.292C292.309 750.292 276.191 734.174 276.191 714.292C276.191 694.41 292.309 678.292 312.191 678.292C332.074 678.292 348.191 694.41 348.191 714.292Z" stroke="#776A6A" stroke-width="2"/>
<path d="M388.244 725.493V715.741H389.693V725.493H388.244ZM383.966 721.307V719.95H393.971V721.307H383.966ZM399.206 728.667V713.257L399.942 714.039H395.411V712.567H400.862V728.667H399.206ZM404.895 723.147V721.721H410.921V723.147H404.895ZM418.507 712.429C419.933 712.429 421.137 712.751 422.118 713.395C423.099 714.023 423.843 714.936 424.349 716.132C424.855 717.328 425.108 718.777 425.108 720.479C425.108 722.288 424.794 723.814 424.165 725.056C423.552 726.298 422.693 727.233 421.589 727.862C420.485 728.49 419.205 728.805 417.748 728.805C417.027 728.805 416.337 728.736 415.678 728.598C415.034 728.46 414.451 728.237 413.93 727.931L414.597 726.597C415.011 726.873 415.486 727.072 416.023 727.195C416.575 727.302 417.142 727.356 417.725 727.356C419.458 727.356 420.838 726.804 421.865 725.7C422.908 724.596 423.429 722.947 423.429 720.755C423.429 720.402 423.406 719.98 423.36 719.49C423.329 718.999 423.245 718.508 423.107 718.018L423.682 718.455C423.529 719.252 423.199 719.934 422.693 720.502C422.202 721.054 421.589 721.475 420.853 721.767C420.132 722.058 419.327 722.204 418.438 722.204C417.38 722.204 416.437 722.004 415.609 721.606C414.796 721.207 414.16 720.647 413.7 719.927C413.24 719.206 413.01 718.355 413.01 717.374C413.01 716.362 413.248 715.488 413.723 714.752C414.198 714.016 414.85 713.448 415.678 713.05C416.521 712.636 417.464 712.429 418.507 712.429ZM418.576 713.832C417.809 713.832 417.127 713.977 416.529 714.269C415.946 714.545 415.486 714.943 415.149 715.465C414.812 715.986 414.643 716.607 414.643 717.328C414.643 718.386 415.003 719.229 415.724 719.858C416.46 720.486 417.449 720.801 418.691 720.801C419.519 720.801 420.24 720.647 420.853 720.341C421.482 720.034 421.965 719.612 422.302 719.076C422.655 718.539 422.831 717.941 422.831 717.282C422.831 716.684 422.67 716.124 422.348 715.603C422.026 715.081 421.551 714.66 420.922 714.338C420.293 714 419.511 713.832 418.576 713.832ZM433.627 728.805C432.339 728.805 431.227 728.621 430.292 728.253C429.372 727.885 428.659 727.356 428.153 726.666C427.662 725.96 427.417 725.132 427.417 724.182C427.417 723.262 427.654 722.48 428.13 721.836C428.62 721.176 429.326 720.67 430.246 720.318C431.181 719.965 432.308 719.789 433.627 719.789C434.93 719.789 436.049 719.965 436.985 720.318C437.92 720.67 438.633 721.176 439.124 721.836C439.63 722.48 439.883 723.262 439.883 724.182C439.883 725.132 439.63 725.96 439.124 726.666C438.618 727.356 437.897 727.885 436.962 728.253C436.026 728.621 434.915 728.805 433.627 728.805ZM433.627 727.402C435.053 727.402 436.164 727.11 436.962 726.528C437.774 725.945 438.181 725.155 438.181 724.159C438.181 723.162 437.774 722.38 436.962 721.813C436.164 721.23 435.053 720.939 433.627 720.939C432.201 720.939 431.089 721.23 430.292 721.813C429.494 722.38 429.096 723.162 429.096 724.159C429.096 725.155 429.494 725.945 430.292 726.528C431.089 727.11 432.201 727.402 433.627 727.402ZM433.627 720.732C432.431 720.732 431.411 720.571 430.568 720.249C429.74 719.927 429.103 719.467 428.659 718.869C428.214 718.255 427.992 717.527 427.992 716.684C427.992 715.794 428.222 715.035 428.682 714.407C429.157 713.763 429.816 713.272 430.66 712.935C431.503 712.597 432.492 712.429 433.627 712.429C434.761 712.429 435.75 712.597 436.594 712.935C437.452 713.272 438.119 713.763 438.595 714.407C439.07 715.035 439.307 715.794 439.307 716.684C439.307 717.527 439.085 718.255 438.641 718.869C438.196 719.467 437.544 719.927 436.686 720.249C435.842 720.571 434.823 720.732 433.627 720.732ZM433.627 719.628C434.884 719.628 435.865 719.367 436.571 718.846C437.276 718.324 437.629 717.627 437.629 716.753C437.629 715.833 437.261 715.12 436.525 714.614C435.804 714.092 434.838 713.832 433.627 713.832C432.415 713.832 431.449 714.092 430.729 714.614C430.008 715.12 429.648 715.825 429.648 716.73C429.648 717.619 429.993 718.324 430.683 718.846C431.388 719.367 432.369 719.628 433.627 719.628ZM445.004 728.667L451.95 713.303L452.456 714.039H442.497L443.348 713.234V717.052H441.715V712.567H453.537V713.74L446.798 728.667H445.004ZM461.871 728.805C460.445 728.805 459.242 728.49 458.26 727.862C457.279 727.218 456.535 726.298 456.029 725.102C455.523 723.89 455.27 722.441 455.27 720.755C455.27 718.93 455.577 717.404 456.19 716.178C456.819 714.936 457.685 714 458.789 713.372C459.893 712.743 461.174 712.429 462.63 712.429C463.351 712.429 464.041 712.498 464.7 712.636C465.36 712.774 465.942 712.996 466.448 713.303L465.781 714.637C465.367 714.361 464.892 714.169 464.355 714.062C463.819 713.939 463.251 713.878 462.653 713.878C460.921 713.878 459.533 714.43 458.49 715.534C457.463 716.638 456.949 718.286 456.949 720.479C456.949 720.816 456.965 721.238 456.995 721.744C457.041 722.234 457.133 722.725 457.271 723.216L456.696 722.779C456.865 721.981 457.195 721.307 457.685 720.755C458.176 720.187 458.789 719.758 459.525 719.467C460.261 719.175 461.066 719.03 461.94 719.03C463.014 719.03 463.957 719.229 464.769 719.628C465.582 720.026 466.218 720.586 466.678 721.307C467.138 722.027 467.368 722.878 467.368 723.86C467.368 724.856 467.131 725.73 466.655 726.482C466.18 727.218 465.521 727.793 464.677 728.207C463.849 728.605 462.914 728.805 461.871 728.805ZM461.802 727.402C462.569 727.402 463.244 727.264 463.826 726.988C464.424 726.696 464.892 726.29 465.229 725.769C465.567 725.232 465.735 724.611 465.735 723.906C465.735 722.848 465.367 722.004 464.631 721.376C463.911 720.747 462.929 720.433 461.687 720.433C460.859 720.433 460.139 720.586 459.525 720.893C458.912 721.199 458.429 721.621 458.076 722.158C457.724 722.679 457.547 723.277 457.547 723.952C457.547 724.534 457.708 725.094 458.03 725.631C458.352 726.152 458.828 726.581 459.456 726.919C460.1 727.241 460.882 727.402 461.802 727.402ZM474.369 728.805C473.219 728.805 472.123 728.621 471.08 728.253C470.037 727.869 469.209 727.363 468.596 726.735L469.401 725.424C469.907 725.96 470.597 726.405 471.471 726.758C472.36 727.11 473.319 727.287 474.346 727.287C475.711 727.287 476.746 726.988 477.451 726.39C478.172 725.776 478.532 724.979 478.532 723.998C478.532 723.308 478.363 722.717 478.026 722.227C477.704 721.721 477.152 721.33 476.37 721.054C475.588 720.778 474.515 720.64 473.15 720.64H469.723L470.551 712.567H479.36V714.039H471.218L472.069 713.234L471.356 719.996L470.505 719.168H473.518C475.143 719.168 476.447 719.367 477.428 719.766C478.409 720.164 479.115 720.724 479.544 721.445C479.989 722.15 480.211 722.978 480.211 723.929C480.211 724.833 479.996 725.661 479.567 726.413C479.138 727.149 478.494 727.731 477.635 728.161C476.776 728.59 475.688 728.805 474.369 728.805ZM482.037 724.435V723.239L490.57 712.567H492.41L483.946 723.239L483.049 722.963H495.998V724.435H482.037ZM491.122 728.667V724.435L491.168 722.963V719.237H492.778V728.667H491.122ZM501.989 728.805C500.824 728.805 499.72 728.621 498.677 728.253C497.65 727.869 496.822 727.363 496.193 726.735L496.998 725.424C497.52 725.96 498.217 726.405 499.091 726.758C499.981 727.11 500.947 727.287 501.989 727.287C503.323 727.287 504.343 726.995 505.048 726.413C505.769 725.83 506.129 725.048 506.129 724.067C506.129 723.085 505.777 722.303 505.071 721.721C504.381 721.138 503.285 720.847 501.782 720.847H500.632V719.628L505.6 713.395L505.83 714.039H496.86V712.567H507.21V713.74L502.242 719.973L501.437 719.444H502.058C503.99 719.444 505.432 719.873 506.382 720.732C507.348 721.59 507.831 722.694 507.831 724.044C507.831 724.948 507.617 725.761 507.187 726.482C506.758 727.202 506.106 727.77 505.232 728.184C504.374 728.598 503.293 728.805 501.989 728.805ZM509.753 728.667V727.494L516.446 720.939C517.06 720.341 517.52 719.819 517.826 719.375C518.133 718.915 518.34 718.485 518.447 718.087C518.555 717.688 518.608 717.312 518.608 716.96C518.608 716.024 518.286 715.288 517.642 714.752C517.014 714.215 516.078 713.947 514.836 713.947C513.886 713.947 513.042 714.092 512.306 714.384C511.586 714.675 510.965 715.127 510.443 715.741L509.27 714.729C509.899 713.993 510.704 713.425 511.685 713.027C512.667 712.628 513.763 712.429 514.974 712.429C516.063 712.429 517.006 712.605 517.803 712.958C518.601 713.295 519.214 713.793 519.643 714.453C520.088 715.112 520.31 715.886 520.31 716.776C520.31 717.297 520.234 717.811 520.08 718.317C519.942 718.823 519.682 719.359 519.298 719.927C518.93 720.479 518.386 721.107 517.665 721.813L511.524 727.839L511.064 727.195H521.046V728.667H509.753ZM525.931 728.667V713.257L526.667 714.039H522.136V712.567H527.587V728.667H525.931Z" fill="black"/>
<rect x="1517.17" y="910.606" width="10.6656" height="56.1612" fill="black"/>
<rect x="1622.85" y="910.606" width="10.6656" height="56.1612" fill="black"/>
<rect x="1654.37" y="910.606" width="10.6656" height="56.1612" fill="black"/>
<rect x="1637.88" y="910.606" width="44.1168" height="9.9108" fill="black"/>
<rect x="1470.63" y="910.606" width="9.69601" height="56.1612" fill="black"/>
<path fill-rule="evenodd" clip-rule="evenodd" d="M1483.71 951.193H1492.03C1503.24 951.193 1512.32 942.107 1512.32 930.899C1512.32 919.691 1503.24 910.605 1492.03 910.605H1479.84V920.156H1491.74C1497.67 920.156 1502.48 924.966 1502.48 930.899C1502.48 936.833 1497.67 941.643 1491.74 941.643H1487.67L1483.71 951.193Z" fill="black"/>
<path fill-rule="evenodd" clip-rule="evenodd" d="M1590.37 966.767V966.767H1580.19V926.18H1590.37V929.864C1593.45 927.271 1597.43 925.708 1601.77 925.708C1611.54 925.708 1619.46 933.63 1619.46 943.403V966.767H1609.17C1609.24 966.3 1609.28 965.823 1609.28 965.336V945.072C1609.28 939.851 1605.05 935.619 1599.83 935.619C1594.61 935.619 1590.37 939.851 1590.37 945.072V965.336C1590.37 965.823 1590.41 966.3 1590.48 966.767H1590.37Z" fill="black"/>
<path fill-rule="evenodd" clip-rule="evenodd" d="M1531.88 946.404C1531.48 958.055 1540.4 967.801 1551.8 968.172C1556.82 968.336 1561.48 966.653 1565.16 963.722V966.767H1575.34V966.948H1575.34V926.181H1565.16V930.351C1561.85 927.737 1557.74 926.126 1553.23 925.979C1541.83 925.608 1532.27 934.753 1531.88 946.404ZM1553.53 958.415C1559.04 958.415 1563.69 954.887 1565.16 950.059V943.544C1563.69 938.715 1559.04 935.188 1553.53 935.188C1546.83 935.188 1541.41 940.387 1541.41 946.801C1541.41 953.215 1546.83 958.415 1553.53 958.415Z" fill="black"/>
<rect x="1379" y="899.279" width="24.7248" height="14.6302" rx="7.31512" fill="#E54C41"/>
<rect x="1399.36" y="920.989" width="21.3312" height="14.6302" rx="7.31512" fill="#F9BE15"/>
<rect x="1401.3" y="964.879" width="24.24" height="14.6302" rx="7.31512" fill="#4C88EF"/>
<rect x="1379" y="964.879" width="15.5136" height="14.6302" rx="7.31512" fill="#4C88EF"/>
<rect x="1379" y="920.989" width="14.544" height="14.6302" rx="7.27201" fill="#F9BE15"/>
<rect x="1406.63" y="942.698" width="15.5136" height="14.6302" rx="7.31512" fill="#3FA95B"/>
<rect x="1428.45" y="942.698" width="14.544" height="14.6302" rx="7.27201" fill="#3FA95B"/>
<rect x="1432.33" y="964.879" width="28.1184" height="14.6302" rx="7.31512" fill="#4C88EF"/>
<rect x="1379" y="942.698" width="21.3312" height="14.6302" rx="7.31512" fill="#3FA95B"/>
<path d="M386.136 845.876C385.35 845.876 384.61 845.703 383.916 845.356C383.236 845.01 382.69 844.516 382.276 843.876L383.136 842.876C383.523 843.436 383.97 843.863 384.476 844.156C384.983 844.45 385.543 844.596 386.156 844.596C387.89 844.596 388.756 843.57 388.756 841.516V833.036H383.636V831.756H390.216V841.456C390.216 842.936 389.87 844.043 389.176 844.776C388.496 845.51 387.483 845.876 386.136 845.876ZM399.716 835.156C400.569 835.156 401.316 835.323 401.956 835.656C402.609 835.976 403.116 836.47 403.476 837.136C403.849 837.803 404.036 838.643 404.036 839.656V845.756H402.616V839.796C402.616 838.69 402.336 837.856 401.776 837.296C401.229 836.723 400.456 836.436 399.456 836.436C398.709 836.436 398.056 836.59 397.496 836.896C396.949 837.19 396.523 837.623 396.216 838.196C395.923 838.756 395.776 839.436 395.776 840.236V845.756H394.356V830.916H395.776V838.136L395.496 837.596C395.829 836.836 396.363 836.243 397.096 835.816C397.829 835.376 398.703 835.156 399.716 835.156ZM412.152 845.856C411.138 845.856 410.225 845.63 409.412 845.176C408.612 844.71 407.978 844.076 407.512 843.276C407.045 842.463 406.812 841.536 406.812 840.496C406.812 839.443 407.045 838.516 407.512 837.716C407.978 836.916 408.612 836.29 409.412 835.836C410.212 835.383 411.125 835.156 412.152 835.156C413.192 835.156 414.112 835.383 414.912 835.836C415.725 836.29 416.358 836.916 416.812 837.716C417.278 838.516 417.512 839.443 417.512 840.496C417.512 841.536 417.278 842.463 416.812 843.276C416.358 844.076 415.725 844.71 414.912 845.176C414.098 845.63 413.178 845.856 412.152 845.856ZM412.152 844.596C412.912 844.596 413.585 844.43 414.172 844.096C414.758 843.75 415.218 843.27 415.552 842.656C415.898 842.03 416.072 841.31 416.072 840.496C416.072 839.67 415.898 838.95 415.552 838.336C415.218 837.723 414.758 837.25 414.172 836.916C413.585 836.57 412.918 836.396 412.172 836.396C411.425 836.396 410.758 836.57 410.172 836.916C409.585 837.25 409.118 837.723 408.772 838.336C408.425 838.95 408.252 839.67 408.252 840.496C408.252 841.31 408.425 842.03 408.772 842.656C409.118 843.27 409.585 843.75 410.172 844.096C410.758 844.43 411.418 844.596 412.152 844.596ZM425.771 835.156C426.624 835.156 427.371 835.323 428.011 835.656C428.664 835.976 429.171 836.47 429.531 837.136C429.904 837.803 430.091 838.643 430.091 839.656V845.756H428.671V839.796C428.671 838.69 428.391 837.856 427.831 837.296C427.284 836.723 426.511 836.436 425.511 836.436C424.764 836.436 424.111 836.59 423.551 836.896C423.004 837.19 422.577 837.623 422.271 838.196C421.977 838.756 421.831 839.436 421.831 840.236V845.756H420.411V835.256H421.771V838.136L421.551 837.596C421.884 836.836 422.417 836.243 423.151 835.816C423.884 835.376 424.757 835.156 425.771 835.156ZM439.286 835.156C440.14 835.156 440.886 835.323 441.526 835.656C442.18 835.976 442.686 836.47 443.046 837.136C443.42 837.803 443.606 838.643 443.606 839.656V845.756H442.186V839.796C442.186 838.69 441.906 837.856 441.346 837.296C440.8 836.723 440.026 836.436 439.026 836.436C438.28 836.436 437.626 836.59 437.066 836.896C436.52 837.19 436.093 837.623 435.786 838.196C435.493 838.756 435.346 839.436 435.346 840.236V845.756H433.926V835.256H435.286V838.136L435.066 837.596C435.4 836.836 435.933 836.243 436.666 835.816C437.4 835.376 438.273 835.156 439.286 835.156ZM447.327 849.736C446.833 849.736 446.36 849.656 445.907 849.496C445.467 849.336 445.087 849.096 444.767 848.776L445.427 847.716C445.693 847.97 445.98 848.163 446.287 848.296C446.607 848.443 446.96 848.516 447.347 848.516C447.813 848.516 448.213 848.383 448.547 848.116C448.893 847.863 449.22 847.41 449.527 846.756L450.207 845.216L450.367 844.996L454.687 835.256H456.087L450.827 847.016C450.533 847.696 450.207 848.236 449.847 848.636C449.5 849.036 449.12 849.316 448.707 849.476C448.293 849.65 447.833 849.736 447.327 849.736ZM450.127 846.056L445.287 835.256H446.767L451.047 844.896L450.127 846.056ZM461.723 845.876C460.723 845.876 459.769 845.716 458.863 845.396C457.956 845.063 457.236 844.623 456.703 844.076L457.403 842.936C457.843 843.403 458.443 843.79 459.203 844.096C459.976 844.403 460.809 844.556 461.703 844.556C462.889 844.556 463.789 844.296 464.403 843.776C465.029 843.243 465.343 842.55 465.343 841.696C465.343 841.096 465.196 840.583 464.903 840.156C464.623 839.716 464.143 839.376 463.463 839.136C462.783 838.896 461.849 838.776 460.663 838.776H457.683L458.403 831.756H466.063V833.036H458.983L459.723 832.336L459.103 838.216L458.363 837.496H460.983C462.396 837.496 463.529 837.67 464.383 838.016C465.236 838.363 465.849 838.85 466.223 839.476C466.609 840.09 466.803 840.81 466.803 841.636C466.803 842.423 466.616 843.143 466.243 843.796C465.869 844.436 465.309 844.943 464.563 845.316C463.816 845.69 462.869 845.876 461.723 845.876ZM474.371 845.876C473.131 845.876 472.084 845.603 471.231 845.056C470.377 844.496 469.731 843.696 469.291 842.656C468.851 841.603 468.631 840.343 468.631 838.876C468.631 837.29 468.897 835.963 469.431 834.896C469.977 833.816 470.731 833.003 471.691 832.456C472.651 831.91 473.764 831.636 475.031 831.636C475.657 831.636 476.257 831.696 476.831 831.816C477.404 831.936 477.911 832.13 478.351 832.396L477.771 833.556C477.411 833.316 476.997 833.15 476.531 833.056C476.064 832.95 475.571 832.896 475.051 832.896C473.544 832.896 472.337 833.376 471.431 834.336C470.537 835.296 470.091 836.73 470.091 838.636C470.091 838.93 470.104 839.296 470.131 839.736C470.171 840.163 470.251 840.59 470.371 841.016L469.871 840.636C470.017 839.943 470.304 839.356 470.731 838.876C471.157 838.383 471.691 838.01 472.331 837.756C472.971 837.503 473.671 837.376 474.431 837.376C475.364 837.376 476.184 837.55 476.891 837.896C477.597 838.243 478.151 838.73 478.551 839.356C478.951 839.983 479.151 840.723 479.151 841.576C479.151 842.443 478.944 843.203 478.531 843.856C478.117 844.496 477.544 844.996 476.811 845.356C476.091 845.703 475.277 845.876 474.371 845.876ZM474.311 844.656C474.977 844.656 475.564 844.536 476.071 844.296C476.591 844.043 476.997 843.69 477.291 843.236C477.584 842.77 477.731 842.23 477.731 841.616C477.731 840.696 477.411 839.963 476.771 839.416C476.144 838.87 475.291 838.596 474.211 838.596C473.491 838.596 472.864 838.73 472.331 838.996C471.797 839.263 471.377 839.63 471.071 840.096C470.764 840.55 470.611 841.07 470.611 841.656C470.611 842.163 470.751 842.65 471.031 843.116C471.311 843.57 471.724 843.943 472.271 844.236C472.831 844.516 473.511 844.656 474.311 844.656ZM486.138 845.876C485.018 845.876 484.052 845.716 483.238 845.396C482.438 845.076 481.818 844.616 481.378 844.016C480.952 843.403 480.738 842.683 480.738 841.856C480.738 841.056 480.945 840.376 481.358 839.816C481.785 839.243 482.398 838.803 483.198 838.496C484.012 838.19 484.992 838.036 486.138 838.036C487.272 838.036 488.245 838.19 489.058 838.496C489.872 838.803 490.492 839.243 490.918 839.816C491.358 840.376 491.578 841.056 491.578 841.856C491.578 842.683 491.358 843.403 490.918 844.016C490.478 844.616 489.852 845.076 489.038 845.396C488.225 845.716 487.258 845.876 486.138 845.876ZM486.138 844.656C487.378 844.656 488.345 844.403 489.038 843.896C489.745 843.39 490.098 842.703 490.098 841.836C490.098 840.97 489.745 840.29 489.038 839.796C488.345 839.29 487.378 839.036 486.138 839.036C484.898 839.036 483.932 839.29 483.238 839.796C482.545 840.29 482.198 840.97 482.198 841.836C482.198 842.703 482.545 843.39 483.238 843.896C483.932 844.403 484.898 844.656 486.138 844.656ZM486.138 838.856C485.098 838.856 484.212 838.716 483.478 838.436C482.758 838.156 482.205 837.756 481.818 837.236C481.432 836.703 481.238 836.07 481.238 835.336C481.238 834.563 481.438 833.903 481.838 833.356C482.252 832.796 482.825 832.37 483.558 832.076C484.292 831.783 485.152 831.636 486.138 831.636C487.125 831.636 487.985 831.783 488.718 832.076C489.465 832.37 490.045 832.796 490.458 833.356C490.872 833.903 491.078 834.563 491.078 835.336C491.078 836.07 490.885 836.703 490.498 837.236C490.112 837.756 489.545 838.156 488.798 838.436C488.065 838.716 487.178 838.856 486.138 838.856ZM486.138 837.896C487.232 837.896 488.085 837.67 488.698 837.216C489.312 836.763 489.618 836.156 489.618 835.396C489.618 834.596 489.298 833.976 488.658 833.536C488.032 833.083 487.192 832.856 486.138 832.856C485.085 832.856 484.245 833.083 483.618 833.536C482.992 833.976 482.678 834.59 482.678 835.376C482.678 836.15 482.978 836.763 483.578 837.216C484.192 837.67 485.045 837.896 486.138 837.896Z" fill="black"/>
<path d="M389.92 812.206C388.133 812.206 386.727 811.693 385.7 810.666C384.673 809.64 384.16 808.12 384.16 806.106V798.086H385.64V806.046C385.64 807.7 386.013 808.92 386.76 809.706C387.507 810.493 388.56 810.886 389.92 810.886C391.293 810.886 392.353 810.493 393.1 809.706C393.847 808.92 394.22 807.7 394.22 806.046V798.086H395.66V806.106C395.66 808.12 395.147 809.64 394.12 810.666C393.107 811.693 391.707 812.206 389.92 812.206ZM402.64 812.186C401.773 812.186 400.953 812.066 400.18 811.826C399.407 811.573 398.8 811.26 398.36 810.886L399 809.766C399.427 810.086 399.973 810.366 400.64 810.606C401.307 810.833 402.007 810.946 402.74 810.946C403.74 810.946 404.46 810.793 404.9 810.486C405.34 810.166 405.56 809.746 405.56 809.226C405.56 808.84 405.433 808.54 405.18 808.326C404.94 808.1 404.62 807.933 404.22 807.826C403.82 807.706 403.373 807.606 402.88 807.526C402.387 807.446 401.893 807.353 401.4 807.246C400.92 807.14 400.48 806.986 400.08 806.786C399.68 806.573 399.353 806.286 399.1 805.926C398.86 805.566 398.74 805.086 398.74 804.486C398.74 803.913 398.9 803.4 399.22 802.946C399.54 802.493 400.007 802.14 400.62 801.886C401.247 801.62 402.007 801.486 402.9 801.486C403.58 801.486 404.26 801.58 404.94 801.766C405.62 801.94 406.18 802.173 406.62 802.466L406 803.606C405.533 803.286 405.033 803.06 404.5 802.926C403.967 802.78 403.433 802.706 402.9 802.706C401.953 802.706 401.253 802.873 400.8 803.206C400.36 803.526 400.14 803.94 400.14 804.446C400.14 804.846 400.26 805.16 400.5 805.386C400.753 805.613 401.08 805.793 401.48 805.926C401.893 806.046 402.34 806.146 402.82 806.226C403.313 806.306 403.8 806.406 404.28 806.526C404.773 806.633 405.22 806.786 405.62 806.986C406.033 807.173 406.36 807.446 406.6 807.806C406.853 808.153 406.98 808.613 406.98 809.186C406.98 809.8 406.807 810.333 406.46 810.786C406.127 811.226 405.633 811.573 404.98 811.826C404.34 812.066 403.56 812.186 402.64 812.186ZM414.045 812.186C412.952 812.186 411.992 811.96 411.165 811.506C410.339 811.04 409.692 810.406 409.225 809.606C408.759 808.793 408.525 807.866 408.525 806.826C408.525 805.786 408.745 804.866 409.185 804.066C409.639 803.266 410.252 802.64 411.025 802.186C411.812 801.72 412.692 801.486 413.665 801.486C414.652 801.486 415.525 801.713 416.285 802.166C417.059 802.606 417.665 803.233 418.105 804.046C418.545 804.846 418.765 805.773 418.765 806.826C418.765 806.893 418.759 806.966 418.745 807.046C418.745 807.113 418.745 807.186 418.745 807.266H409.605V806.206H417.985L417.425 806.626C417.425 805.866 417.259 805.193 416.925 804.606C416.605 804.006 416.165 803.54 415.605 803.206C415.045 802.873 414.399 802.706 413.665 802.706C412.945 802.706 412.299 802.873 411.725 803.206C411.152 803.54 410.705 804.006 410.385 804.606C410.065 805.206 409.905 805.893 409.905 806.666V806.886C409.905 807.686 410.079 808.393 410.425 809.006C410.785 809.606 411.279 810.08 411.905 810.426C412.545 810.76 413.272 810.926 414.085 810.926C414.725 810.926 415.319 810.813 415.865 810.586C416.425 810.36 416.905 810.013 417.305 809.546L418.105 810.466C417.639 811.026 417.052 811.453 416.345 811.746C415.652 812.04 414.885 812.186 414.045 812.186ZM421.656 812.086V801.586H423.016V804.446L422.876 803.946C423.169 803.146 423.662 802.54 424.356 802.126C425.049 801.7 425.909 801.486 426.936 801.486V802.866C426.882 802.866 426.829 802.866 426.776 802.866C426.722 802.853 426.669 802.846 426.616 802.846C425.509 802.846 424.642 803.186 424.016 803.866C423.389 804.533 423.076 805.486 423.076 806.726V812.086H421.656ZM434.887 801.486C435.74 801.486 436.487 801.653 437.127 801.986C437.78 802.306 438.287 802.8 438.647 803.466C439.02 804.133 439.207 804.973 439.207 805.986V812.086H437.787V806.126C437.787 805.02 437.507 804.186 436.947 803.626C436.4 803.053 435.627 802.766 434.627 802.766C433.88 802.766 433.227 802.92 432.667 803.226C432.12 803.52 431.694 803.953 431.387 804.526C431.094 805.086 430.947 805.766 430.947 806.566V812.086H429.527V801.586H430.887V804.466L430.667 803.926C431 803.166 431.534 802.573 432.267 802.146C433 801.706 433.874 801.486 434.887 801.486ZM449.623 812.086V809.766L449.563 809.386V805.506C449.563 804.613 449.309 803.926 448.803 803.446C448.309 802.966 447.569 802.726 446.583 802.726C445.903 802.726 445.256 802.84 444.643 803.066C444.029 803.293 443.509 803.593 443.083 803.966L442.443 802.906C442.976 802.453 443.616 802.106 444.363 801.866C445.109 801.613 445.896 801.486 446.723 801.486C448.083 801.486 449.129 801.826 449.863 802.506C450.609 803.173 450.983 804.193 450.983 805.566V812.086H449.623ZM446.003 812.186C445.216 812.186 444.529 812.06 443.943 811.806C443.369 811.54 442.929 811.18 442.623 810.726C442.316 810.26 442.163 809.726 442.163 809.126C442.163 808.58 442.289 808.086 442.543 807.646C442.809 807.193 443.236 806.833 443.823 806.566C444.423 806.286 445.223 806.146 446.223 806.146H449.843V807.206H446.263C445.249 807.206 444.543 807.386 444.143 807.746C443.756 808.106 443.562 808.553 443.562 809.086C443.562 809.686 443.796 810.166 444.263 810.526C444.729 810.886 445.383 811.066 446.223 811.066C447.023 811.066 447.709 810.886 448.283 810.526C448.869 810.153 449.296 809.62 449.563 808.926L449.883 809.906C449.616 810.6 449.149 811.153 448.483 811.566C447.829 811.98 447.003 812.186 446.003 812.186ZM467.959 801.486C468.813 801.486 469.553 801.653 470.179 801.986C470.819 802.306 471.313 802.8 471.659 803.466C472.019 804.133 472.199 804.973 472.199 805.986V812.086H470.779V806.126C470.779 805.02 470.513 804.186 469.979 803.626C469.459 803.053 468.719 802.766 467.759 802.766C467.039 802.766 466.413 802.92 465.879 803.226C465.359 803.52 464.953 803.953 464.659 804.526C464.379 805.086 464.239 805.766 464.239 806.566V812.086H462.819V806.126C462.819 805.02 462.553 804.186 462.019 803.626C461.486 803.053 460.739 802.766 459.779 802.766C459.073 802.766 458.453 802.92 457.919 803.226C457.386 803.52 456.973 803.953 456.679 804.526C456.399 805.086 456.259 805.766 456.259 806.566V812.086H454.839V801.586H456.199V804.426L455.979 803.926C456.299 803.166 456.813 802.573 457.519 802.146C458.239 801.706 459.086 801.486 460.059 801.486C461.086 801.486 461.959 801.746 462.679 802.266C463.399 802.773 463.866 803.54 464.079 804.566L463.519 804.346C463.826 803.493 464.366 802.806 465.139 802.286C465.926 801.753 466.866 801.486 467.959 801.486ZM480.51 812.186C479.417 812.186 478.457 811.96 477.63 811.506C476.804 811.04 476.157 810.406 475.69 809.606C475.224 808.793 474.99 807.866 474.99 806.826C474.99 805.786 475.21 804.866 475.65 804.066C476.104 803.266 476.717 802.64 477.49 802.186C478.277 801.72 479.157 801.486 480.13 801.486C481.117 801.486 481.99 801.713 482.75 802.166C483.524 802.606 484.13 803.233 484.57 804.046C485.01 804.846 485.23 805.773 485.23 806.826C485.23 806.893 485.224 806.966 485.21 807.046C485.21 807.113 485.21 807.186 485.21 807.266H476.07V806.206H484.45L483.89 806.626C483.89 805.866 483.724 805.193 483.39 804.606C483.07 804.006 482.63 803.54 482.07 803.206C481.51 802.873 480.864 802.706 480.13 802.706C479.41 802.706 478.764 802.873 478.19 803.206C477.617 803.54 477.17 804.006 476.85 804.606C476.53 805.206 476.37 805.893 476.37 806.666V806.886C476.37 807.686 476.544 808.393 476.89 809.006C477.25 809.606 477.744 810.08 478.37 810.426C479.01 810.76 479.737 810.926 480.55 810.926C481.19 810.926 481.784 810.813 482.33 810.586C482.89 810.36 483.37 810.013 483.77 809.546L484.57 810.466C484.104 811.026 483.517 811.453 482.81 811.746C482.117 812.04 481.35 812.186 480.51 812.186Z" fill="#776A6A"/>
<path d="M348.191 833.316C348.191 853.198 332.074 869.316 312.191 869.316C292.309 869.316 276.191 853.198 276.191 833.316C276.191 813.433 292.309 797.316 312.191 797.316C332.074 797.316 348.191 813.433 348.191 833.316Z" stroke="#776A6A" stroke-width="2"/>
<path d="M312.172 829.68C309.864 829.68 307.889 828.875 306.246 827.264C304.603 825.653 303.781 823.716 303.781 821.454C303.781 819.191 304.603 817.254 306.246 815.643C307.889 814.032 309.864 813.227 312.172 813.227C314.479 813.227 316.454 814.032 318.097 815.643C319.74 817.254 320.562 819.191 320.562 821.454C320.562 823.716 319.74 825.653 318.097 827.264C316.454 828.875 314.479 829.68 312.172 829.68ZM295.391 846.134V840.375C295.391 839.21 295.697 838.139 296.309 837.162C296.922 836.186 297.734 835.44 298.747 834.925C300.914 833.862 303.117 833.066 305.354 832.535C307.592 832.004 309.864 831.738 312.172 831.737C314.479 831.737 316.751 832.003 318.989 832.535C321.226 833.067 323.429 833.864 325.596 834.925C326.61 835.439 327.423 836.185 328.036 837.162C328.648 838.14 328.954 839.211 328.952 840.375V846.134H295.391Z" fill="#1F4768"/>
<defs>
<filter id="filter0_d_211_188" x="147" y="34" width="1632" height="1032" filterUnits="userSpaceOnUse" color-interpolation-filters="sRGB">
<feFlood flood-opacity="0" result="BackgroundImageFix"/>
<feColorMatrix in="SourceAlpha" type="matrix" values="0 0 0 0 0 0 0 0 0 0 0 0 0 0 0 0 0 0 127 0" result="hardAlpha"/>
<feOffset dx="3" dy="10"/>
<feGaussianBlur stdDeviation="8"/>
<feComposite in2="hardAlpha" operator="out"/>
<feColorMatrix type="matrix" values="0 0 0 0 0 0 0 0 0 0 0 0 0 0 0 0 0 0 0.25 0"/>
<feBlend mode="normal" in2="BackgroundImageFix" result="effect1_dropShadow_211_188"/>
<feBlend mode="normal" in="SourceGraphic" in2="effect1_dropShadow_211_188" result="shape"/>
</filter>
<filter id="filter1_d_211_188" x="1148.02" y="173.718" width="248" height="248" filterUnits="userSpaceOnUse" color-interpolation-filters="sRGB">
<feFlood flood-opacity="0" result="BackgroundImageFix"/>
<feColorMatrix in="SourceAlpha" type="matrix" values="0 0 0 0 0 0 0 0 0 0 0 0 0 0 0 0 0 0 127 0" result="hardAlpha"/>
<feOffset dx="3" dy="6"/>
<feGaussianBlur stdDeviation="10"/>
<feComposite in2="hardAlpha" operator="out"/>
<feColorMatrix type="matrix" values="0 0 0 0 0 0 0 0 0 0 0 0 0 0 0 0 0 0 0.25 0"/>
<feBlend mode="normal" in2="BackgroundImageFix" result="effect1_dropShadow_211_188"/>
<feBlend mode="normal" in="SourceGraphic" in2="effect1_dropShadow_211_188" result="shape"/>
</filter>
<linearGradient id="paint0_linear_211_188" x1="960" y1="0" x2="960" y2="1080" gradientUnits="userSpaceOnUse">
<stop stop-color="#F5A40D"/>
<stop offset="1" stop-color="#A84A13"/>
</linearGradient>
<linearGradient id="paint1_linear_211_188" x1="160" y1="255.176" x2="1760" y2="255.176" gradientUnits="userSpaceOnUse">
<stop stop-color="#22719C"/>
<stop offset="1" stop-color="#B8E9F9"/>
</linearGradient>
</defs>
</svg>
