<svg width="702" height="930" viewBox="0 0 702 930" fill="none" xmlns="http://www.w3.org/2000/svg">
<rect width="702" height="930" rx="17" fill="white"/>
<path d="M43.964 146V127.8H50.776C52.3187 127.8 53.6447 128.051 54.754 128.554C55.8633 129.039 56.7127 129.75 57.302 130.686C57.9087 131.605 58.212 132.723 58.212 134.04C58.212 135.323 57.9087 136.432 57.302 137.368C56.7127 138.287 55.8633 138.997 54.754 139.5C53.6447 140.003 52.3187 140.254 50.776 140.254H45.03L45.888 139.344V146H43.964ZM45.888 139.5L45.03 138.564H50.724C52.544 138.564 53.922 138.174 54.858 137.394C55.8113 136.597 56.288 135.479 56.288 134.04C56.288 132.584 55.8113 131.457 54.858 130.66C53.922 129.863 52.544 129.464 50.724 129.464H45.03L45.888 128.554V139.5ZM61.6521 146V132.35H63.4201V136.068L63.2381 135.418C63.6195 134.378 64.2608 133.589 65.1621 133.052C66.0635 132.497 67.1815 132.22 68.5161 132.22V134.014C68.4468 134.014 68.3775 134.014 68.3081 134.014C68.2388 133.997 68.1695 133.988 68.1001 133.988C66.6615 133.988 65.5348 134.43 64.7201 135.314C63.9055 136.181 63.4981 137.42 63.4981 139.032V146H61.6521ZM77.3216 146.13C76.0043 146.13 74.8169 145.835 73.7596 145.246C72.7196 144.639 71.8963 143.816 71.2896 142.776C70.6829 141.719 70.3796 140.514 70.3796 139.162C70.3796 137.793 70.6829 136.588 71.2896 135.548C71.8963 134.508 72.7196 133.693 73.7596 133.104C74.7996 132.515 75.9869 132.22 77.3216 132.22C78.6736 132.22 79.8696 132.515 80.9096 133.104C81.9669 133.693 82.7903 134.508 83.3796 135.548C83.9863 136.588 84.2896 137.793 84.2896 139.162C84.2896 140.514 83.9863 141.719 83.3796 142.776C82.7903 143.816 81.9669 144.639 80.9096 145.246C79.8523 145.835 78.6563 146.13 77.3216 146.13ZM77.3216 144.492C78.3096 144.492 79.1849 144.275 79.9476 143.842C80.7103 143.391 81.3083 142.767 81.7416 141.97C82.1923 141.155 82.4176 140.219 82.4176 139.162C82.4176 138.087 82.1923 137.151 81.7416 136.354C81.3083 135.557 80.7103 134.941 79.9476 134.508C79.1849 134.057 78.3183 133.832 77.3476 133.832C76.3769 133.832 75.5103 134.057 74.7476 134.508C73.9849 134.941 73.3783 135.557 72.9276 136.354C72.4769 137.151 72.2516 138.087 72.2516 139.162C72.2516 140.219 72.4769 141.155 72.9276 141.97C73.3783 142.767 73.9849 143.391 74.7476 143.842C75.5103 144.275 76.3683 144.492 77.3216 144.492ZM86.0304 151.174C85.4757 151.174 84.947 151.096 84.4444 150.94C83.9244 150.801 83.491 150.585 83.1444 150.29L83.7944 148.886C84.349 149.354 85.0597 149.588 85.9264 149.588C86.6544 149.588 87.209 149.371 87.5904 148.938C87.989 148.505 88.1884 147.863 88.1884 147.014V132.35H90.0344V147.014C90.0344 148.279 89.6877 149.285 88.9944 150.03C88.3184 150.793 87.3304 151.174 86.0304 151.174ZM89.1244 129.334C88.743 129.334 88.4224 129.204 88.1624 128.944C87.9024 128.684 87.7724 128.372 87.7724 128.008C87.7724 127.644 87.9024 127.341 88.1624 127.098C88.4224 126.838 88.743 126.708 89.1244 126.708C89.5057 126.708 89.8264 126.829 90.0864 127.072C90.3464 127.315 90.4764 127.618 90.4764 127.982C90.4764 128.363 90.3464 128.684 90.0864 128.944C89.8437 129.204 89.523 129.334 89.1244 129.334ZM100.991 146.13C99.5698 146.13 98.3218 145.835 97.2471 145.246C96.1725 144.639 95.3318 143.816 94.7251 142.776C94.1185 141.719 93.8151 140.514 93.8151 139.162C93.8151 137.81 94.1011 136.614 94.6731 135.574C95.2625 134.534 96.0598 133.719 97.0651 133.13C98.0878 132.523 99.2318 132.22 100.497 132.22C101.78 132.22 102.915 132.515 103.903 133.104C104.908 133.676 105.697 134.491 106.269 135.548C106.841 136.588 107.127 137.793 107.127 139.162C107.127 139.249 107.118 139.344 107.101 139.448C107.101 139.535 107.101 139.63 107.101 139.734H95.2191V138.356H106.113L105.385 138.902C105.385 137.914 105.168 137.039 104.735 136.276C104.319 135.496 103.747 134.889 103.019 134.456C102.291 134.023 101.45 133.806 100.497 133.806C99.5611 133.806 98.7205 134.023 97.9751 134.456C97.2298 134.889 96.6491 135.496 96.2331 136.276C95.8171 137.056 95.6091 137.949 95.6091 138.954V139.24C95.6091 140.28 95.8345 141.199 96.2851 141.996C96.7531 142.776 97.3945 143.391 98.2091 143.842C99.0411 144.275 99.9858 144.492 101.043 144.492C101.875 144.492 102.646 144.345 103.357 144.05C104.085 143.755 104.709 143.305 105.229 142.698L106.269 143.894C105.662 144.622 104.9 145.177 103.981 145.558C103.08 145.939 102.083 146.13 100.991 146.13ZM116.553 146.13C115.201 146.13 113.987 145.835 112.913 145.246C111.855 144.639 111.023 143.816 110.417 142.776C109.81 141.719 109.507 140.514 109.507 139.162C109.507 137.793 109.81 136.588 110.417 135.548C111.023 134.508 111.855 133.693 112.913 133.104C113.987 132.515 115.201 132.22 116.553 132.22C117.714 132.22 118.763 132.445 119.699 132.896C120.635 133.347 121.371 134.023 121.909 134.924L120.531 135.86C120.063 135.167 119.482 134.655 118.789 134.326C118.095 133.997 117.341 133.832 116.527 133.832C115.556 133.832 114.681 134.057 113.901 134.508C113.121 134.941 112.505 135.557 112.055 136.354C111.604 137.151 111.379 138.087 111.379 139.162C111.379 140.237 111.604 141.173 112.055 141.97C112.505 142.767 113.121 143.391 113.901 143.842C114.681 144.275 115.556 144.492 116.527 144.492C117.341 144.492 118.095 144.327 118.789 143.998C119.482 143.669 120.063 143.166 120.531 142.49L121.909 143.426C121.371 144.31 120.635 144.986 119.699 145.454C118.763 145.905 117.714 146.13 116.553 146.13ZM130.003 146.13C128.721 146.13 127.733 145.783 127.039 145.09C126.346 144.397 125.999 143.417 125.999 142.152V129.334H127.845V142.048C127.845 142.845 128.045 143.461 128.443 143.894C128.859 144.327 129.449 144.544 130.211 144.544C131.026 144.544 131.702 144.31 132.239 143.842L132.889 145.168C132.525 145.497 132.083 145.74 131.563 145.896C131.061 146.052 130.541 146.13 130.003 146.13ZM123.555 133.884V132.35H132.005V133.884H123.555ZM150.022 132.22C151.132 132.22 152.102 132.437 152.934 132.87C153.784 133.286 154.442 133.927 154.91 134.794C155.396 135.661 155.638 136.753 155.638 138.07V146H153.792V138.252C153.792 136.813 153.428 135.73 152.7 135.002C151.99 134.257 150.984 133.884 149.684 133.884C148.714 133.884 147.864 134.083 147.136 134.482C146.426 134.863 145.871 135.427 145.472 136.172C145.091 136.9 144.9 137.784 144.9 138.824V146H143.054V132.35H144.822V136.094L144.536 135.392C144.97 134.404 145.663 133.633 146.616 133.078C147.57 132.506 148.705 132.22 150.022 132.22ZM169.179 146V142.984L169.101 142.49V137.446C169.101 136.285 168.771 135.392 168.113 134.768C167.471 134.144 166.509 133.832 165.227 133.832C164.343 133.832 163.502 133.979 162.705 134.274C161.907 134.569 161.231 134.959 160.677 135.444L159.845 134.066C160.538 133.477 161.37 133.026 162.341 132.714C163.311 132.385 164.334 132.22 165.409 132.22C167.177 132.22 168.537 132.662 169.491 133.546C170.461 134.413 170.947 135.739 170.947 137.524V146H169.179ZM164.473 146.13C163.45 146.13 162.557 145.965 161.795 145.636C161.049 145.289 160.477 144.821 160.079 144.232C159.68 143.625 159.481 142.932 159.481 142.152C159.481 141.441 159.645 140.8 159.975 140.228C160.321 139.639 160.876 139.171 161.639 138.824C162.419 138.46 163.459 138.278 164.759 138.278H169.465V139.656H164.811C163.493 139.656 162.575 139.89 162.055 140.358C161.552 140.826 161.301 141.407 161.301 142.1C161.301 142.88 161.604 143.504 162.211 143.972C162.817 144.44 163.667 144.674 164.759 144.674C165.799 144.674 166.691 144.44 167.437 143.972C168.199 143.487 168.754 142.793 169.101 141.892L169.517 143.166C169.17 144.067 168.563 144.787 167.697 145.324C166.847 145.861 165.773 146.13 164.473 146.13ZM193.017 132.22C194.126 132.22 195.088 132.437 195.903 132.87C196.735 133.286 197.376 133.927 197.827 134.794C198.295 135.661 198.529 136.753 198.529 138.07V146H196.683V138.252C196.683 136.813 196.336 135.73 195.643 135.002C194.967 134.257 194.005 133.884 192.757 133.884C191.821 133.884 191.006 134.083 190.313 134.482C189.637 134.863 189.108 135.427 188.727 136.172C188.363 136.9 188.181 137.784 188.181 138.824V146H186.335V138.252C186.335 136.813 185.988 135.73 185.295 135.002C184.601 134.257 183.631 133.884 182.383 133.884C181.464 133.884 180.658 134.083 179.965 134.482C179.271 134.863 178.734 135.427 178.353 136.172C177.989 136.9 177.807 137.784 177.807 138.824V146H175.961V132.35H177.729V136.042L177.443 135.392C177.859 134.404 178.526 133.633 179.445 133.078C180.381 132.506 181.481 132.22 182.747 132.22C184.081 132.22 185.217 132.558 186.153 133.234C187.089 133.893 187.695 134.889 187.973 136.224L187.245 135.938C187.643 134.829 188.345 133.936 189.351 133.26C190.373 132.567 191.595 132.22 193.017 132.22ZM209.333 146.13C207.912 146.13 206.664 145.835 205.589 145.246C204.514 144.639 203.674 143.816 203.067 142.776C202.46 141.719 202.157 140.514 202.157 139.162C202.157 137.81 202.443 136.614 203.015 135.574C203.604 134.534 204.402 133.719 205.407 133.13C206.43 132.523 207.574 132.22 208.839 132.22C210.122 132.22 211.257 132.515 212.245 133.104C213.25 133.676 214.039 134.491 214.611 135.548C215.183 136.588 215.469 137.793 215.469 139.162C215.469 139.249 215.46 139.344 215.443 139.448C215.443 139.535 215.443 139.63 215.443 139.734H203.561V138.356H214.455L213.727 138.902C213.727 137.914 213.51 137.039 213.077 136.276C212.661 135.496 212.089 134.889 211.361 134.456C210.633 134.023 209.792 133.806 208.839 133.806C207.903 133.806 207.062 134.023 206.317 134.456C205.572 134.889 204.991 135.496 204.575 136.276C204.159 137.056 203.951 137.949 203.951 138.954V139.24C203.951 140.28 204.176 141.199 204.627 141.996C205.095 142.776 205.736 143.391 206.551 143.842C207.383 144.275 208.328 144.492 209.385 144.492C210.217 144.492 210.988 144.345 211.699 144.05C212.427 143.755 213.051 143.305 213.571 142.698L214.611 143.894C214.004 144.622 213.242 145.177 212.323 145.558C211.422 145.939 210.425 146.13 209.333 146.13ZM219.408 135.054C219.027 135.054 218.698 134.915 218.42 134.638C218.16 134.361 218.03 134.023 218.03 133.624C218.03 133.208 218.16 132.87 218.42 132.61C218.698 132.35 219.027 132.22 219.408 132.22C219.79 132.22 220.11 132.35 220.37 132.61C220.648 132.87 220.786 133.208 220.786 133.624C220.786 134.023 220.648 134.361 220.37 134.638C220.11 134.915 219.79 135.054 219.408 135.054ZM219.408 146.13C219.027 146.13 218.698 145.991 218.42 145.714C218.16 145.437 218.03 145.099 218.03 144.7C218.03 144.284 218.16 143.946 218.42 143.686C218.698 143.426 219.027 143.296 219.408 143.296C219.79 143.296 220.11 143.426 220.37 143.686C220.648 143.946 220.786 144.284 220.786 144.7C220.786 145.099 220.648 145.437 220.37 145.714C220.11 145.991 219.79 146.13 219.408 146.13Z" fill="#776A6A"/>
<path d="M43.964 417V398.8H50.776C52.3187 398.8 53.6447 399.051 54.754 399.554C55.8633 400.039 56.7127 400.75 57.302 401.686C57.9087 402.605 58.212 403.723 58.212 405.04C58.212 406.323 57.9087 407.432 57.302 408.368C56.7127 409.287 55.8633 409.997 54.754 410.5C53.6447 411.003 52.3187 411.254 50.776 411.254H45.03L45.888 410.344V417H43.964ZM45.888 410.5L45.03 409.564H50.724C52.544 409.564 53.922 409.174 54.858 408.394C55.8113 407.597 56.288 406.479 56.288 405.04C56.288 403.584 55.8113 402.457 54.858 401.66C53.922 400.863 52.544 400.464 50.724 400.464H45.03L45.888 399.554V410.5ZM61.6521 417V403.35H63.4201V407.068L63.2381 406.418C63.6195 405.378 64.2608 404.589 65.1621 404.052C66.0635 403.497 67.1815 403.22 68.5161 403.22V405.014C68.4468 405.014 68.3775 405.014 68.3081 405.014C68.2388 404.997 68.1695 404.988 68.1001 404.988C66.6615 404.988 65.5348 405.43 64.7201 406.314C63.9055 407.181 63.4981 408.42 63.4981 410.032V417H61.6521ZM77.3216 417.13C76.0043 417.13 74.8169 416.835 73.7596 416.246C72.7196 415.639 71.8963 414.816 71.2896 413.776C70.6829 412.719 70.3796 411.514 70.3796 410.162C70.3796 408.793 70.6829 407.588 71.2896 406.548C71.8963 405.508 72.7196 404.693 73.7596 404.104C74.7996 403.515 75.9869 403.22 77.3216 403.22C78.6736 403.22 79.8696 403.515 80.9096 404.104C81.9669 404.693 82.7903 405.508 83.3796 406.548C83.9863 407.588 84.2896 408.793 84.2896 410.162C84.2896 411.514 83.9863 412.719 83.3796 413.776C82.7903 414.816 81.9669 415.639 80.9096 416.246C79.8523 416.835 78.6563 417.13 77.3216 417.13ZM77.3216 415.492C78.3096 415.492 79.1849 415.275 79.9476 414.842C80.7103 414.391 81.3083 413.767 81.7416 412.97C82.1923 412.155 82.4176 411.219 82.4176 410.162C82.4176 409.087 82.1923 408.151 81.7416 407.354C81.3083 406.557 80.7103 405.941 79.9476 405.508C79.1849 405.057 78.3183 404.832 77.3476 404.832C76.3769 404.832 75.5103 405.057 74.7476 405.508C73.9849 405.941 73.3783 406.557 72.9276 407.354C72.4769 408.151 72.2516 409.087 72.2516 410.162C72.2516 411.219 72.4769 412.155 72.9276 412.97C73.3783 413.767 73.9849 414.391 74.7476 414.842C75.5103 415.275 76.3683 415.492 77.3216 415.492ZM86.0304 422.174C85.4757 422.174 84.947 422.096 84.4444 421.94C83.9244 421.801 83.491 421.585 83.1444 421.29L83.7944 419.886C84.349 420.354 85.0597 420.588 85.9264 420.588C86.6544 420.588 87.209 420.371 87.5904 419.938C87.989 419.505 88.1884 418.863 88.1884 418.014V403.35H90.0344V418.014C90.0344 419.279 89.6877 420.285 88.9944 421.03C88.3184 421.793 87.3304 422.174 86.0304 422.174ZM89.1244 400.334C88.743 400.334 88.4224 400.204 88.1624 399.944C87.9024 399.684 87.7724 399.372 87.7724 399.008C87.7724 398.644 87.9024 398.341 88.1624 398.098C88.4224 397.838 88.743 397.708 89.1244 397.708C89.5057 397.708 89.8264 397.829 90.0864 398.072C90.3464 398.315 90.4764 398.618 90.4764 398.982C90.4764 399.363 90.3464 399.684 90.0864 399.944C89.8437 400.204 89.523 400.334 89.1244 400.334ZM100.991 417.13C99.5698 417.13 98.3218 416.835 97.2471 416.246C96.1725 415.639 95.3318 414.816 94.7251 413.776C94.1185 412.719 93.8151 411.514 93.8151 410.162C93.8151 408.81 94.1011 407.614 94.6731 406.574C95.2625 405.534 96.0598 404.719 97.0651 404.13C98.0878 403.523 99.2318 403.22 100.497 403.22C101.78 403.22 102.915 403.515 103.903 404.104C104.908 404.676 105.697 405.491 106.269 406.548C106.841 407.588 107.127 408.793 107.127 410.162C107.127 410.249 107.118 410.344 107.101 410.448C107.101 410.535 107.101 410.63 107.101 410.734H95.2191V409.356H106.113L105.385 409.902C105.385 408.914 105.168 408.039 104.735 407.276C104.319 406.496 103.747 405.889 103.019 405.456C102.291 405.023 101.45 404.806 100.497 404.806C99.5611 404.806 98.7205 405.023 97.9751 405.456C97.2298 405.889 96.6491 406.496 96.2331 407.276C95.8171 408.056 95.6091 408.949 95.6091 409.954V410.24C95.6091 411.28 95.8345 412.199 96.2851 412.996C96.7531 413.776 97.3945 414.391 98.2091 414.842C99.0411 415.275 99.9858 415.492 101.043 415.492C101.875 415.492 102.646 415.345 103.357 415.05C104.085 414.755 104.709 414.305 105.229 413.698L106.269 414.894C105.662 415.622 104.9 416.177 103.981 416.558C103.08 416.939 102.083 417.13 100.991 417.13ZM116.553 417.13C115.201 417.13 113.987 416.835 112.913 416.246C111.855 415.639 111.023 414.816 110.417 413.776C109.81 412.719 109.507 411.514 109.507 410.162C109.507 408.793 109.81 407.588 110.417 406.548C111.023 405.508 111.855 404.693 112.913 404.104C113.987 403.515 115.201 403.22 116.553 403.22C117.714 403.22 118.763 403.445 119.699 403.896C120.635 404.347 121.371 405.023 121.909 405.924L120.531 406.86C120.063 406.167 119.482 405.655 118.789 405.326C118.095 404.997 117.341 404.832 116.527 404.832C115.556 404.832 114.681 405.057 113.901 405.508C113.121 405.941 112.505 406.557 112.055 407.354C111.604 408.151 111.379 409.087 111.379 410.162C111.379 411.237 111.604 412.173 112.055 412.97C112.505 413.767 113.121 414.391 113.901 414.842C114.681 415.275 115.556 415.492 116.527 415.492C117.341 415.492 118.095 415.327 118.789 414.998C119.482 414.669 120.063 414.166 120.531 413.49L121.909 414.426C121.371 415.31 120.635 415.986 119.699 416.454C118.763 416.905 117.714 417.13 116.553 417.13ZM130.003 417.13C128.721 417.13 127.733 416.783 127.039 416.09C126.346 415.397 125.999 414.417 125.999 413.152V400.334H127.845V413.048C127.845 413.845 128.045 414.461 128.443 414.894C128.859 415.327 129.449 415.544 130.211 415.544C131.026 415.544 131.702 415.31 132.239 414.842L132.889 416.168C132.525 416.497 132.083 416.74 131.563 416.896C131.061 417.052 130.541 417.13 130.003 417.13ZM123.555 404.884V403.35H132.005V404.884H123.555ZM160.11 403.22C161.22 403.22 162.182 403.437 162.996 403.87C163.828 404.286 164.47 404.927 164.92 405.794C165.388 406.661 165.622 407.753 165.622 409.07V417H163.776V409.252C163.776 407.813 163.43 406.73 162.736 406.002C162.06 405.257 161.098 404.884 159.85 404.884C158.914 404.884 158.1 405.083 157.406 405.482C156.73 405.863 156.202 406.427 155.82 407.172C155.456 407.9 155.274 408.784 155.274 409.824V417H153.428V409.252C153.428 407.813 153.082 406.73 152.388 406.002C151.695 405.257 150.724 404.884 149.476 404.884C148.558 404.884 147.752 405.083 147.058 405.482C146.365 405.863 145.828 406.427 145.446 407.172C145.082 407.9 144.9 408.784 144.9 409.824V417H143.054V403.35H144.822V407.042L144.536 406.392C144.952 405.404 145.62 404.633 146.538 404.078C147.474 403.506 148.575 403.22 149.84 403.22C151.175 403.22 152.31 403.558 153.246 404.234C154.182 404.893 154.789 405.889 155.066 407.224L154.338 406.938C154.737 405.829 155.439 404.936 156.444 404.26C157.467 403.567 158.689 403.22 160.11 403.22ZM176.427 417.13C175.005 417.13 173.757 416.835 172.683 416.246C171.608 415.639 170.767 414.816 170.161 413.776C169.554 412.719 169.251 411.514 169.251 410.162C169.251 408.81 169.537 407.614 170.109 406.574C170.698 405.534 171.495 404.719 172.501 404.13C173.523 403.523 174.667 403.22 175.933 403.22C177.215 403.22 178.351 403.515 179.339 404.104C180.344 404.676 181.133 405.491 181.705 406.548C182.277 407.588 182.563 408.793 182.563 410.162C182.563 410.249 182.554 410.344 182.537 410.448C182.537 410.535 182.537 410.63 182.537 410.734H170.655V409.356H181.549L180.821 409.902C180.821 408.914 180.604 408.039 180.171 407.276C179.755 406.496 179.183 405.889 178.455 405.456C177.727 405.023 176.886 404.806 175.933 404.806C174.997 404.806 174.156 405.023 173.411 405.456C172.665 405.889 172.085 406.496 171.669 407.276C171.253 408.056 171.045 408.949 171.045 409.954V410.24C171.045 411.28 171.27 412.199 171.721 412.996C172.189 413.776 172.83 414.391 173.645 414.842C174.477 415.275 175.421 415.492 176.479 415.492C177.311 415.492 178.082 415.345 178.793 415.05C179.521 414.755 180.145 414.305 180.665 413.698L181.705 414.894C181.098 415.622 180.335 416.177 179.417 416.558C178.515 416.939 177.519 417.13 176.427 417.13ZM203.376 403.22C204.485 403.22 205.447 403.437 206.262 403.87C207.094 404.286 207.735 404.927 208.186 405.794C208.654 406.661 208.888 407.753 208.888 409.07V417H207.042V409.252C207.042 407.813 206.695 406.73 206.002 406.002C205.326 405.257 204.364 404.884 203.116 404.884C202.18 404.884 201.365 405.083 200.672 405.482C199.996 405.863 199.467 406.427 199.086 407.172C198.722 407.9 198.54 408.784 198.54 409.824V417H196.694V409.252C196.694 407.813 196.347 406.73 195.654 406.002C194.961 405.257 193.99 404.884 192.742 404.884C191.823 404.884 191.017 405.083 190.324 405.482C189.631 405.863 189.093 406.427 188.712 407.172C188.348 407.9 188.166 408.784 188.166 409.824V417H186.32V403.35H188.088V407.042L187.802 406.392C188.218 405.404 188.885 404.633 189.804 404.078C190.74 403.506 191.841 403.22 193.106 403.22C194.441 403.22 195.576 403.558 196.512 404.234C197.448 404.893 198.055 405.889 198.332 407.224L197.604 406.938C198.003 405.829 198.705 404.936 199.71 404.26C200.733 403.567 201.955 403.22 203.376 403.22ZM220.94 417.13C219.744 417.13 218.67 416.861 217.716 416.324C216.763 415.769 216.009 414.972 215.454 413.932C214.9 412.892 214.622 411.635 214.622 410.162C214.622 408.671 214.9 407.415 215.454 406.392C216.026 405.352 216.789 404.563 217.742 404.026C218.696 403.489 219.762 403.22 220.94 403.22C222.24 403.22 223.402 403.515 224.424 404.104C225.464 404.676 226.279 405.482 226.868 406.522C227.458 407.562 227.752 408.775 227.752 410.162C227.752 411.531 227.458 412.745 226.868 413.802C226.279 414.842 225.464 415.657 224.424 416.246C223.402 416.835 222.24 417.13 220.94 417.13ZM213.894 417V397.708H215.74V407.38L215.48 410.136L215.662 412.892V417H213.894ZM220.81 415.492C221.781 415.492 222.648 415.275 223.41 414.842C224.173 414.391 224.78 413.767 225.23 412.97C225.681 412.155 225.906 411.219 225.906 410.162C225.906 409.087 225.681 408.151 225.23 407.354C224.78 406.557 224.173 405.941 223.41 405.508C222.648 405.057 221.781 404.832 220.81 404.832C219.84 404.832 218.964 405.057 218.184 405.508C217.422 405.941 216.815 406.557 216.364 407.354C215.931 408.151 215.714 409.087 215.714 410.162C215.714 411.219 215.931 412.155 216.364 412.97C216.815 413.767 217.422 414.391 218.184 414.842C218.964 415.275 219.84 415.492 220.81 415.492ZM237.313 417.13C235.892 417.13 234.644 416.835 233.569 416.246C232.495 415.639 231.654 414.816 231.047 413.776C230.441 412.719 230.137 411.514 230.137 410.162C230.137 408.81 230.423 407.614 230.995 406.574C231.585 405.534 232.382 404.719 233.387 404.13C234.41 403.523 235.554 403.22 236.819 403.22C238.102 403.22 239.237 403.515 240.225 404.104C241.231 404.676 242.019 405.491 242.591 406.548C243.163 407.588 243.449 408.793 243.449 410.162C243.449 410.249 243.441 410.344 243.423 410.448C243.423 410.535 243.423 410.63 243.423 410.734H231.541V409.356H242.435L241.707 409.902C241.707 408.914 241.491 408.039 241.057 407.276C240.641 406.496 240.069 405.889 239.341 405.456C238.613 405.023 237.773 404.806 236.819 404.806C235.883 404.806 235.043 405.023 234.297 405.456C233.552 405.889 232.971 406.496 232.555 407.276C232.139 408.056 231.931 408.949 231.931 409.954V410.24C231.931 411.28 232.157 412.199 232.607 412.996C233.075 413.776 233.717 414.391 234.531 414.842C235.363 415.275 236.308 415.492 237.365 415.492C238.197 415.492 238.969 415.345 239.679 415.05C240.407 414.755 241.031 414.305 241.551 413.698L242.591 414.894C241.985 415.622 241.222 416.177 240.303 416.558C239.402 416.939 238.405 417.13 237.313 417.13ZM247.207 417V403.35H248.975V407.068L248.793 406.418C249.174 405.378 249.815 404.589 250.717 404.052C251.618 403.497 252.736 403.22 254.071 403.22V405.014C254.001 405.014 253.932 405.014 253.863 405.014C253.793 404.997 253.724 404.988 253.655 404.988C252.216 404.988 251.089 405.43 250.275 406.314C249.46 407.181 249.053 408.42 249.053 410.032V417H247.207ZM261.258 417.13C260.131 417.13 259.065 416.974 258.06 416.662C257.054 416.333 256.266 415.925 255.694 415.44L256.526 413.984C257.08 414.4 257.791 414.764 258.658 415.076C259.524 415.371 260.434 415.518 261.388 415.518C262.688 415.518 263.624 415.319 264.196 414.92C264.768 414.504 265.054 413.958 265.054 413.282C265.054 412.779 264.889 412.389 264.56 412.112C264.248 411.817 263.832 411.601 263.312 411.462C262.792 411.306 262.211 411.176 261.57 411.072C260.928 410.968 260.287 410.847 259.646 410.708C259.022 410.569 258.45 410.37 257.93 410.11C257.41 409.833 256.985 409.46 256.656 408.992C256.344 408.524 256.188 407.9 256.188 407.12C256.188 406.375 256.396 405.707 256.812 405.118C257.228 404.529 257.834 404.069 258.632 403.74C259.446 403.393 260.434 403.22 261.596 403.22C262.48 403.22 263.364 403.341 264.248 403.584C265.132 403.809 265.86 404.113 266.432 404.494L265.626 405.976C265.019 405.56 264.369 405.265 263.676 405.092C262.982 404.901 262.289 404.806 261.596 404.806C260.365 404.806 259.455 405.023 258.866 405.456C258.294 405.872 258.008 406.409 258.008 407.068C258.008 407.588 258.164 407.995 258.476 408.29C258.805 408.585 259.23 408.819 259.75 408.992C260.287 409.148 260.868 409.278 261.492 409.382C262.133 409.486 262.766 409.616 263.39 409.772C264.031 409.911 264.612 410.11 265.132 410.37C265.669 410.613 266.094 410.968 266.406 411.436C266.735 411.887 266.9 412.485 266.9 413.23C266.9 414.027 266.674 414.721 266.224 415.31C265.79 415.882 265.149 416.333 264.3 416.662C263.468 416.974 262.454 417.13 261.258 417.13ZM270.469 406.054C270.088 406.054 269.758 405.915 269.481 405.638C269.221 405.361 269.091 405.023 269.091 404.624C269.091 404.208 269.221 403.87 269.481 403.61C269.758 403.35 270.088 403.22 270.469 403.22C270.85 403.22 271.171 403.35 271.431 403.61C271.708 403.87 271.847 404.208 271.847 404.624C271.847 405.023 271.708 405.361 271.431 405.638C271.171 405.915 270.85 406.054 270.469 406.054ZM270.469 417.13C270.088 417.13 269.758 416.991 269.481 416.714C269.221 416.437 269.091 416.099 269.091 415.7C269.091 415.284 269.221 414.946 269.481 414.686C269.758 414.426 270.088 414.296 270.469 414.296C270.85 414.296 271.171 414.426 271.431 414.686C271.708 414.946 271.847 415.284 271.847 415.7C271.847 416.099 271.708 416.437 271.431 416.714C271.171 416.991 270.85 417.13 270.469 417.13Z" fill="#776A6A"/>
<path d="M43.964 541V522.8H51.374C53.3153 522.8 55.014 523.19 56.47 523.97C57.9433 524.733 59.0873 525.799 59.902 527.168C60.7167 528.537 61.124 530.115 61.124 531.9C61.124 533.685 60.7167 535.263 59.902 536.632C59.0873 538.001 57.9433 539.076 56.47 539.856C55.014 540.619 53.3153 541 51.374 541H43.964ZM45.888 539.336H51.27C52.882 539.336 54.2773 539.024 55.456 538.4C56.652 537.759 57.5793 536.883 58.238 535.774C58.8967 534.647 59.226 533.356 59.226 531.9C59.226 530.427 58.8967 529.135 58.238 528.026C57.5793 526.917 56.652 526.05 55.456 525.426C54.2773 524.785 52.882 524.464 51.27 524.464H45.888V539.336ZM70.8525 541.13C69.4311 541.13 68.1831 540.835 67.1085 540.246C66.0338 539.639 65.1931 538.816 64.5865 537.776C63.9798 536.719 63.6765 535.514 63.6765 534.162C63.6765 532.81 63.9625 531.614 64.5345 530.574C65.1238 529.534 65.9211 528.719 66.9265 528.13C67.9491 527.523 69.0931 527.22 70.3585 527.22C71.6411 527.22 72.7765 527.515 73.7645 528.104C74.7698 528.676 75.5585 529.491 76.1305 530.548C76.7025 531.588 76.9885 532.793 76.9885 534.162C76.9885 534.249 76.9798 534.344 76.9625 534.448C76.9625 534.535 76.9625 534.63 76.9625 534.734H65.0805V533.356H75.9745L75.2465 533.902C75.2465 532.914 75.0298 532.039 74.5965 531.276C74.1805 530.496 73.6085 529.889 72.8805 529.456C72.1525 529.023 71.3118 528.806 70.3585 528.806C69.4225 528.806 68.5818 529.023 67.8365 529.456C67.0911 529.889 66.5105 530.496 66.0945 531.276C65.6785 532.056 65.4705 532.949 65.4705 533.954V534.24C65.4705 535.28 65.6958 536.199 66.1465 536.996C66.6145 537.776 67.2558 538.391 68.0705 538.842C68.9025 539.275 69.8471 539.492 70.9045 539.492C71.7365 539.492 72.5078 539.345 73.2185 539.05C73.9465 538.755 74.5705 538.305 75.0905 537.698L76.1305 538.894C75.5238 539.622 74.7611 540.177 73.8425 540.558C72.9411 540.939 71.9445 541.13 70.8525 541.13ZM84.4119 541.13C83.2852 541.13 82.2192 540.974 81.2139 540.662C80.2085 540.333 79.4199 539.925 78.8479 539.44L79.6799 537.984C80.2345 538.4 80.9452 538.764 81.8119 539.076C82.6785 539.371 83.5885 539.518 84.5419 539.518C85.8419 539.518 86.7779 539.319 87.3499 538.92C87.9219 538.504 88.2079 537.958 88.2079 537.282C88.2079 536.779 88.0432 536.389 87.7139 536.112C87.4019 535.817 86.9859 535.601 86.4659 535.462C85.9459 535.306 85.3652 535.176 84.7239 535.072C84.0825 534.968 83.4412 534.847 82.7999 534.708C82.1759 534.569 81.6039 534.37 81.0839 534.11C80.5639 533.833 80.1392 533.46 79.8099 532.992C79.4979 532.524 79.3419 531.9 79.3419 531.12C79.3419 530.375 79.5499 529.707 79.9659 529.118C80.3819 528.529 80.9885 528.069 81.7859 527.74C82.6005 527.393 83.5885 527.22 84.7499 527.22C85.6339 527.22 86.5179 527.341 87.4019 527.584C88.2859 527.809 89.0139 528.113 89.5859 528.494L88.7799 529.976C88.1732 529.56 87.5232 529.265 86.8299 529.092C86.1365 528.901 85.4432 528.806 84.7499 528.806C83.5192 528.806 82.6092 529.023 82.0199 529.456C81.4479 529.872 81.1619 530.409 81.1619 531.068C81.1619 531.588 81.3179 531.995 81.6299 532.29C81.9592 532.585 82.3839 532.819 82.9039 532.992C83.4412 533.148 84.0219 533.278 84.6459 533.382C85.2872 533.486 85.9199 533.616 86.5439 533.772C87.1852 533.911 87.7659 534.11 88.2859 534.37C88.8232 534.613 89.2479 534.968 89.5599 535.436C89.8892 535.887 90.0539 536.485 90.0539 537.23C90.0539 538.027 89.8285 538.721 89.3779 539.31C88.9445 539.882 88.3032 540.333 87.4539 540.662C86.6219 540.974 85.6079 541.13 84.4119 541.13ZM99.1092 541.13C97.7572 541.13 96.5439 540.835 95.4692 540.246C94.4119 539.639 93.5799 538.816 92.9732 537.776C92.3665 536.719 92.0632 535.514 92.0632 534.162C92.0632 532.793 92.3665 531.588 92.9732 530.548C93.5799 529.508 94.4119 528.693 95.4692 528.104C96.5439 527.515 97.7572 527.22 99.1092 527.22C100.271 527.22 101.319 527.445 102.255 527.896C103.191 528.347 103.928 529.023 104.465 529.924L103.087 530.86C102.619 530.167 102.039 529.655 101.345 529.326C100.652 528.997 99.8979 528.832 99.0832 528.832C98.1125 528.832 97.2372 529.057 96.4572 529.508C95.6772 529.941 95.0619 530.557 94.6112 531.354C94.1605 532.151 93.9352 533.087 93.9352 534.162C93.9352 535.237 94.1605 536.173 94.6112 536.97C95.0619 537.767 95.6772 538.391 96.4572 538.842C97.2372 539.275 98.1125 539.492 99.0832 539.492C99.8979 539.492 100.652 539.327 101.345 538.998C102.039 538.669 102.619 538.166 103.087 537.49L104.465 538.426C103.928 539.31 103.191 539.986 102.255 540.454C101.319 540.905 100.271 541.13 99.1092 541.13ZM108.092 541V527.35H109.86V531.068L109.678 530.418C110.059 529.378 110.7 528.589 111.602 528.052C112.503 527.497 113.621 527.22 114.956 527.22V529.014C114.886 529.014 114.817 529.014 114.748 529.014C114.678 528.997 114.609 528.988 114.54 528.988C113.101 528.988 111.974 529.43 111.16 530.314C110.345 531.181 109.938 532.42 109.938 534.032V541H108.092ZM118.324 541V527.35H120.17V541H118.324ZM119.26 524.334C118.879 524.334 118.558 524.204 118.298 523.944C118.038 523.684 117.908 523.372 117.908 523.008C117.908 522.644 118.038 522.341 118.298 522.098C118.558 521.838 118.879 521.708 119.26 521.708C119.641 521.708 119.962 521.829 120.222 522.072C120.482 522.315 120.612 522.618 120.612 522.982C120.612 523.363 120.482 523.684 120.222 523.944C119.979 524.204 119.659 524.334 119.26 524.334ZM132.352 541.13C131.174 541.13 130.108 540.861 129.154 540.324C128.201 539.769 127.438 538.981 126.866 537.958C126.312 536.918 126.034 535.653 126.034 534.162C126.034 532.671 126.312 531.415 126.866 530.392C127.421 529.352 128.175 528.563 129.128 528.026C130.082 527.489 131.156 527.22 132.352 527.22C133.652 527.22 134.814 527.515 135.836 528.104C136.876 528.676 137.691 529.491 138.28 530.548C138.87 531.588 139.164 532.793 139.164 534.162C139.164 535.549 138.87 536.762 138.28 537.802C137.691 538.842 136.876 539.657 135.836 540.246C134.814 540.835 133.652 541.13 132.352 541.13ZM125.306 546.044V527.35H127.074V531.458L126.892 534.188L127.152 536.944V546.044H125.306ZM132.222 539.492C133.193 539.492 134.06 539.275 134.822 538.842C135.585 538.391 136.192 537.767 136.642 536.97C137.093 536.155 137.318 535.219 137.318 534.162C137.318 533.105 137.093 532.177 136.642 531.38C136.192 530.583 135.585 529.959 134.822 529.508C134.06 529.057 133.193 528.832 132.222 528.832C131.252 528.832 130.376 529.057 129.596 529.508C128.834 529.959 128.227 530.583 127.776 531.38C127.343 532.177 127.126 533.105 127.126 534.162C127.126 535.219 127.343 536.155 127.776 536.97C128.227 537.767 128.834 538.391 129.596 538.842C130.376 539.275 131.252 539.492 132.222 539.492ZM147.244 541.13C145.961 541.13 144.973 540.783 144.28 540.09C143.586 539.397 143.24 538.417 143.24 537.152V524.334H145.086V537.048C145.086 537.845 145.285 538.461 145.684 538.894C146.1 539.327 146.689 539.544 147.452 539.544C148.266 539.544 148.942 539.31 149.48 538.842L150.13 540.168C149.766 540.497 149.324 540.74 148.804 540.896C148.301 541.052 147.781 541.13 147.244 541.13ZM140.796 528.884V527.35H149.246V528.884H140.796ZM153.49 541V527.35H155.336V541H153.49ZM154.426 524.334C154.045 524.334 153.724 524.204 153.464 523.944C153.204 523.684 153.074 523.372 153.074 523.008C153.074 522.644 153.204 522.341 153.464 522.098C153.724 521.838 154.045 521.708 154.426 521.708C154.807 521.708 155.128 521.829 155.388 522.072C155.648 522.315 155.778 522.618 155.778 522.982C155.778 523.363 155.648 523.684 155.388 523.944C155.145 524.204 154.825 524.334 154.426 524.334ZM166.036 541.13C164.719 541.13 163.532 540.835 162.474 540.246C161.434 539.639 160.611 538.816 160.004 537.776C159.398 536.719 159.094 535.514 159.094 534.162C159.094 532.793 159.398 531.588 160.004 530.548C160.611 529.508 161.434 528.693 162.474 528.104C163.514 527.515 164.702 527.22 166.036 527.22C167.388 527.22 168.584 527.515 169.624 528.104C170.682 528.693 171.505 529.508 172.094 530.548C172.701 531.588 173.004 532.793 173.004 534.162C173.004 535.514 172.701 536.719 172.094 537.776C171.505 538.816 170.682 539.639 169.624 540.246C168.567 540.835 167.371 541.13 166.036 541.13ZM166.036 539.492C167.024 539.492 167.9 539.275 168.662 538.842C169.425 538.391 170.023 537.767 170.456 536.97C170.907 536.155 171.132 535.219 171.132 534.162C171.132 533.087 170.907 532.151 170.456 531.354C170.023 530.557 169.425 529.941 168.662 529.508C167.9 529.057 167.033 528.832 166.062 528.832C165.092 528.832 164.225 529.057 163.462 529.508C162.7 529.941 162.093 530.557 161.642 531.354C161.192 532.151 160.966 533.087 160.966 534.162C160.966 535.219 161.192 536.155 161.642 536.97C162.093 537.767 162.7 538.391 163.462 538.842C164.225 539.275 165.083 539.492 166.036 539.492ZM183.741 527.22C184.851 527.22 185.821 527.437 186.653 527.87C187.503 528.286 188.161 528.927 188.629 529.794C189.115 530.661 189.357 531.753 189.357 533.07V541H187.511V533.252C187.511 531.813 187.147 530.73 186.419 530.002C185.709 529.257 184.703 528.884 183.403 528.884C182.433 528.884 181.583 529.083 180.855 529.482C180.145 529.863 179.59 530.427 179.191 531.172C178.81 531.9 178.619 532.784 178.619 533.824V541H176.773V527.35H178.541V531.094L178.255 530.392C178.689 529.404 179.382 528.633 180.335 528.078C181.289 527.506 182.424 527.22 183.741 527.22ZM194.526 530.054C194.144 530.054 193.815 529.915 193.538 529.638C193.278 529.361 193.148 529.023 193.148 528.624C193.148 528.208 193.278 527.87 193.538 527.61C193.815 527.35 194.144 527.22 194.526 527.22C194.907 527.22 195.228 527.35 195.488 527.61C195.765 527.87 195.904 528.208 195.904 528.624C195.904 529.023 195.765 529.361 195.488 529.638C195.228 529.915 194.907 530.054 194.526 530.054ZM194.526 541.13C194.144 541.13 193.815 540.991 193.538 540.714C193.278 540.437 193.148 540.099 193.148 539.7C193.148 539.284 193.278 538.946 193.538 538.686C193.815 538.426 194.144 538.296 194.526 538.296C194.907 538.296 195.228 538.426 195.488 538.686C195.765 538.946 195.904 539.284 195.904 539.7C195.904 540.099 195.765 540.437 195.488 540.714C195.228 540.991 194.907 541.13 194.526 541.13Z" fill="#776A6A"/>
<g filter="url(#filter0_d_374_306)">
<rect x="46" y="308" width="252" height="49" rx="4" fill="white"/>
<rect x="46.1" y="308.1" width="251.8" height="48.8" rx="3.9" stroke="black" stroke-width="0.2"/>
</g>
<path d="M63.25 340H58.7614V325.455H63.4489C64.8598 325.455 66.0672 325.746 67.071 326.328C68.0748 326.906 68.8442 327.737 69.3793 328.821C69.9143 329.901 70.1818 331.193 70.1818 332.699C70.1818 334.214 69.9119 335.518 69.3722 336.612C68.8324 337.701 68.0464 338.539 67.0142 339.126C65.982 339.709 64.7273 340 63.25 340ZM60.5227 338.438H63.1364C64.339 338.438 65.3357 338.205 66.1264 337.741C66.9171 337.277 67.5066 336.617 67.8949 335.76C68.2831 334.903 68.4773 333.883 68.4773 332.699C68.4773 331.525 68.2855 330.514 67.902 329.666C67.5185 328.814 66.9455 328.161 66.1832 327.706C65.4209 327.247 64.4716 327.017 63.3352 327.017H60.5227V338.438ZM77.625 340H73.1364V325.455H77.8239C79.2348 325.455 80.4422 325.746 81.446 326.328C82.4498 326.906 83.2192 327.737 83.7543 328.821C84.2893 329.901 84.5568 331.193 84.5568 332.699C84.5568 334.214 84.2869 335.518 83.7472 336.612C83.2074 337.701 82.4214 338.539 81.3892 339.126C80.357 339.709 79.1023 340 77.625 340ZM74.8977 338.438H77.5114C78.714 338.438 79.7107 338.205 80.5014 337.741C81.2921 337.277 81.8816 336.617 82.2699 335.76C82.6581 334.903 82.8523 333.883 82.8523 332.699C82.8523 331.525 82.6605 330.514 82.277 329.666C81.8935 328.814 81.3205 328.161 80.5582 327.706C79.7959 327.247 78.8466 327.017 77.7102 327.017H74.8977V338.438ZM93.5341 331.946V333.509H87.1705V331.946H93.5341ZM96.7106 325.455H98.8129L103.756 337.528H103.926L108.87 325.455H110.972V340H109.324V328.949H109.182L104.637 340H103.046L98.5004 328.949H98.3583V340H96.7106V325.455ZM114.504 325.455H116.606L121.549 337.528H121.719L126.663 325.455H128.765V340H127.117V328.949H126.975L122.43 340H120.839L116.293 328.949H116.151V340H114.504V325.455ZM138.319 331.946V333.509H131.956V331.946H138.319ZM138.664 325.455H140.681L144.715 332.244H144.885L148.919 325.455H150.936L145.681 334.006V340H143.919V334.006L138.664 325.455ZM151.964 325.455H153.982L158.016 332.244H158.186L162.22 325.455H164.237L158.982 334.006V340H157.22V334.006L151.964 325.455ZM165.265 325.455H167.282L171.316 332.244H171.487L175.521 325.455H177.538L172.282 334.006V340H170.521V334.006L165.265 325.455ZM178.566 325.455H180.583L184.617 332.244H184.788L188.822 325.455H190.839L185.583 334.006V340H183.822V334.006L178.566 325.455Z" fill="black"/>
<path d="M50.68 267.938H60.3V269.576H50.68V267.938ZM50.888 276.336H61.834V278H48.964V259.8H61.444V261.464H50.888V276.336ZM72.9346 264.22C74.0439 264.22 75.0146 264.437 75.8466 264.87C76.6959 265.286 77.3546 265.927 77.8226 266.794C78.3079 267.661 78.5506 268.753 78.5506 270.07V278H76.7046V270.252C76.7046 268.813 76.3406 267.73 75.6126 267.002C74.9019 266.257 73.8966 265.884 72.5966 265.884C71.6259 265.884 70.7766 266.083 70.0486 266.482C69.3379 266.863 68.7832 267.427 68.3846 268.172C68.0032 268.9 67.8126 269.784 67.8126 270.824V278H65.9666V264.35H67.7346V268.094L67.4486 267.392C67.8819 266.404 68.5752 265.633 69.5286 265.078C70.4819 264.506 71.6172 264.22 72.9346 264.22ZM88.9709 278.13C87.6709 278.13 86.5009 277.835 85.4609 277.246C84.4382 276.657 83.6322 275.842 83.0429 274.802C82.4536 273.745 82.1589 272.531 82.1589 271.162C82.1589 269.775 82.4536 268.562 83.0429 267.522C83.6322 266.482 84.4382 265.676 85.4609 265.104C86.5009 264.515 87.6709 264.22 88.9709 264.22C90.1669 264.22 91.2329 264.489 92.1689 265.026C93.1222 265.563 93.8762 266.352 94.4309 267.392C95.0029 268.415 95.2889 269.671 95.2889 271.162C95.2889 272.635 95.0116 273.892 94.4569 274.932C93.9022 275.972 93.1482 276.769 92.1949 277.324C91.2589 277.861 90.1842 278.13 88.9709 278.13ZM89.1009 276.492C90.0716 276.492 90.9382 276.275 91.7009 275.842C92.4809 275.391 93.0876 274.767 93.5209 273.97C93.9716 273.155 94.1969 272.219 94.1969 271.162C94.1969 270.087 93.9716 269.151 93.5209 268.354C93.0876 267.557 92.4809 266.941 91.7009 266.508C90.9382 266.057 90.0716 265.832 89.1009 265.832C88.1476 265.832 87.2896 266.057 86.5269 266.508C85.7642 266.941 85.1576 267.557 84.7069 268.354C84.2562 269.151 84.0309 270.087 84.0309 271.162C84.0309 272.219 84.2562 273.155 84.7069 273.97C85.1576 274.767 85.7642 275.391 86.5269 275.842C87.2896 276.275 88.1476 276.492 89.1009 276.492ZM94.2489 278V273.892L94.4309 271.136L94.1709 268.38V258.708H96.0169V278H94.2489ZM113.397 278.13C112.097 278.13 110.927 277.835 109.887 277.246C108.864 276.657 108.058 275.842 107.469 274.802C106.879 273.745 106.585 272.531 106.585 271.162C106.585 269.775 106.879 268.562 107.469 267.522C108.058 266.482 108.864 265.676 109.887 265.104C110.927 264.515 112.097 264.22 113.397 264.22C114.593 264.22 115.659 264.489 116.595 265.026C117.548 265.563 118.302 266.352 118.857 267.392C119.429 268.415 119.715 269.671 119.715 271.162C119.715 272.635 119.437 273.892 118.883 274.932C118.328 275.972 117.574 276.769 116.621 277.324C115.685 277.861 114.61 278.13 113.397 278.13ZM113.527 276.492C114.497 276.492 115.364 276.275 116.127 275.842C116.907 275.391 117.513 274.767 117.947 273.97C118.397 273.155 118.623 272.219 118.623 271.162C118.623 270.087 118.397 269.151 117.947 268.354C117.513 267.557 116.907 266.941 116.127 266.508C115.364 266.057 114.497 265.832 113.527 265.832C112.573 265.832 111.715 266.057 110.953 266.508C110.19 266.941 109.583 267.557 109.133 268.354C108.682 269.151 108.457 270.087 108.457 271.162C108.457 272.219 108.682 273.155 109.133 273.97C109.583 274.767 110.19 275.391 110.953 275.842C111.715 276.275 112.573 276.492 113.527 276.492ZM118.675 278V273.892L118.857 271.136L118.597 268.38V258.708H120.443V278H118.675ZM134.138 278V274.984L134.06 274.49V269.446C134.06 268.285 133.73 267.392 133.072 266.768C132.43 266.144 131.468 265.832 130.186 265.832C129.302 265.832 128.461 265.979 127.664 266.274C126.866 266.569 126.19 266.959 125.636 267.444L124.804 266.066C125.497 265.477 126.329 265.026 127.3 264.714C128.27 264.385 129.293 264.22 130.368 264.22C132.136 264.22 133.496 264.662 134.45 265.546C135.42 266.413 135.906 267.739 135.906 269.524V278H134.138ZM129.432 278.13C128.409 278.13 127.516 277.965 126.754 277.636C126.008 277.289 125.436 276.821 125.038 276.232C124.639 275.625 124.44 274.932 124.44 274.152C124.44 273.441 124.604 272.8 124.934 272.228C125.28 271.639 125.835 271.171 126.598 270.824C127.378 270.46 128.418 270.278 129.718 270.278H134.424V271.656H129.77C128.452 271.656 127.534 271.89 127.014 272.358C126.511 272.826 126.26 273.407 126.26 274.1C126.26 274.88 126.563 275.504 127.17 275.972C127.776 276.44 128.626 276.674 129.718 276.674C130.758 276.674 131.65 276.44 132.396 275.972C133.158 275.487 133.713 274.793 134.06 273.892L134.476 275.166C134.129 276.067 133.522 276.787 132.656 277.324C131.806 277.861 130.732 278.13 129.432 278.13ZM145.236 278.13C143.953 278.13 142.965 277.783 142.272 277.09C141.578 276.397 141.232 275.417 141.232 274.152V261.334H143.078V274.048C143.078 274.845 143.277 275.461 143.676 275.894C144.092 276.327 144.681 276.544 145.444 276.544C146.258 276.544 146.934 276.31 147.472 275.842L148.122 277.168C147.758 277.497 147.316 277.74 146.796 277.896C146.293 278.052 145.773 278.13 145.236 278.13ZM138.788 265.884V264.35H147.238V265.884H138.788ZM156.798 278.13C155.376 278.13 154.128 277.835 153.054 277.246C151.979 276.639 151.138 275.816 150.532 274.776C149.925 273.719 149.622 272.514 149.622 271.162C149.622 269.81 149.908 268.614 150.48 267.574C151.069 266.534 151.866 265.719 152.872 265.13C153.894 264.523 155.038 264.22 156.304 264.22C157.586 264.22 158.722 264.515 159.71 265.104C160.715 265.676 161.504 266.491 162.076 267.548C162.648 268.588 162.934 269.793 162.934 271.162C162.934 271.249 162.925 271.344 162.908 271.448C162.908 271.535 162.908 271.63 162.908 271.734H151.026V270.356H161.92L161.192 270.902C161.192 269.914 160.975 269.039 160.542 268.276C160.126 267.496 159.554 266.889 158.826 266.456C158.098 266.023 157.257 265.806 156.304 265.806C155.368 265.806 154.527 266.023 153.782 266.456C153.036 266.889 152.456 267.496 152.04 268.276C151.624 269.056 151.416 269.949 151.416 270.954V271.24C151.416 272.28 151.641 273.199 152.092 273.996C152.56 274.776 153.201 275.391 154.016 275.842C154.848 276.275 155.792 276.492 156.85 276.492C157.682 276.492 158.453 276.345 159.164 276.05C159.892 275.755 160.516 275.305 161.036 274.698L162.076 275.894C161.469 276.622 160.706 277.177 159.788 277.558C158.886 277.939 157.89 278.13 156.798 278.13ZM166.873 267.054C166.492 267.054 166.163 266.915 165.885 266.638C165.625 266.361 165.495 266.023 165.495 265.624C165.495 265.208 165.625 264.87 165.885 264.61C166.163 264.35 166.492 264.22 166.873 264.22C167.255 264.22 167.575 264.35 167.835 264.61C168.113 264.87 168.251 265.208 168.251 265.624C168.251 266.023 168.113 266.361 167.835 266.638C167.575 266.915 167.255 267.054 166.873 267.054ZM166.873 278.13C166.492 278.13 166.163 277.991 165.885 277.714C165.625 277.437 165.495 277.099 165.495 276.7C165.495 276.284 165.625 275.946 165.885 275.686C166.163 275.426 166.492 275.296 166.873 275.296C167.255 275.296 167.575 275.426 167.835 275.686C168.113 275.946 168.251 276.284 168.251 276.7C168.251 277.099 168.113 277.437 167.835 277.714C167.575 277.991 167.255 278.13 166.873 278.13Z" fill="#776A6A"/>
<path d="M46.6729 183.017V181.455H57.582V183.017H53.0082V196H51.2468V183.017H46.6729ZM61.799 196.256C61.1077 196.256 60.4804 196.125 59.9169 195.865C59.3535 195.6 58.906 195.219 58.5746 194.722C58.2431 194.22 58.0774 193.614 58.0774 192.903C58.0774 192.278 58.2005 191.772 58.4467 191.384C58.6929 190.991 59.022 190.683 59.4339 190.46C59.8459 190.238 60.3004 190.072 60.7976 189.963C61.2995 189.849 61.8037 189.759 62.3104 189.693C62.9732 189.608 63.5107 189.544 63.9226 189.501C64.3393 189.454 64.6423 189.376 64.8317 189.267C65.0258 189.158 65.1229 188.969 65.1229 188.699V188.642C65.1229 187.941 64.9311 187.397 64.5476 187.009C64.1688 186.62 63.5935 186.426 62.8217 186.426C62.0215 186.426 61.3942 186.601 60.9396 186.952C60.4851 187.302 60.1655 187.676 59.9808 188.074L58.3899 187.506C58.674 186.843 59.0528 186.327 59.5263 185.957C60.0045 185.583 60.5253 185.323 61.0888 185.176C61.657 185.025 62.2157 184.949 62.7649 184.949C63.1153 184.949 63.5178 184.991 63.9723 185.077C64.4316 185.157 64.8743 185.325 65.3004 185.581C65.7313 185.837 66.0888 186.223 66.3729 186.739C66.657 187.255 66.799 187.946 66.799 188.812V196H65.1229V194.523H65.0376C64.924 194.759 64.7346 195.013 64.4695 195.283C64.2043 195.553 63.8516 195.782 63.4112 195.972C62.9709 196.161 62.4335 196.256 61.799 196.256ZM62.0547 194.75C62.7176 194.75 63.2763 194.62 63.7308 194.359C64.1901 194.099 64.5357 193.763 64.7678 193.351C65.0045 192.939 65.1229 192.506 65.1229 192.051V190.517C65.0518 190.602 64.8956 190.68 64.6541 190.751C64.4174 190.818 64.1428 190.877 63.8303 190.929C63.5225 190.976 63.2218 191.019 62.9283 191.057C62.6394 191.09 62.4051 191.118 62.2251 191.142C61.7895 191.199 61.3823 191.291 61.0036 191.419C60.6295 191.542 60.3265 191.729 60.0945 191.98C59.8672 192.226 59.7536 192.562 59.7536 192.989C59.7536 193.571 59.969 194.011 60.3999 194.31C60.8355 194.603 61.3871 194.75 62.0547 194.75ZM77.5856 187.534L76.0799 187.96C75.9852 187.709 75.8455 187.465 75.6609 187.229C75.4809 186.987 75.2347 186.788 74.9222 186.632C74.6097 186.476 74.2096 186.398 73.7219 186.398C73.0543 186.398 72.498 186.552 72.0529 186.859C71.6126 187.162 71.3924 187.548 71.3924 188.017C71.3924 188.434 71.5439 188.763 71.8469 189.004C72.15 189.246 72.6235 189.447 73.2674 189.608L74.8867 190.006C75.8621 190.242 76.5889 190.605 77.0671 191.092C77.5453 191.575 77.7844 192.198 77.7844 192.96C77.7844 193.585 77.6045 194.144 77.2447 194.636C76.8896 195.129 76.3924 195.517 75.7532 195.801C75.114 196.085 74.3706 196.227 73.5231 196.227C72.4104 196.227 71.4895 195.986 70.7603 195.503C70.0311 195.02 69.5695 194.314 69.3754 193.386L70.9663 192.989C71.1178 193.576 71.4042 194.016 71.8256 194.31C72.2518 194.603 72.8081 194.75 73.4947 194.75C74.2759 194.75 74.8962 194.584 75.3555 194.253C75.8195 193.917 76.0515 193.514 76.0515 193.045C76.0515 192.667 75.9189 192.349 75.6538 192.094C75.3886 191.833 74.9814 191.639 74.4322 191.511L72.614 191.085C71.6149 190.848 70.881 190.482 70.4123 189.984C69.9483 189.482 69.7163 188.855 69.7163 188.102C69.7163 187.487 69.8891 186.942 70.2347 186.469C70.5851 185.995 71.061 185.624 71.6623 185.354C72.2683 185.084 72.9549 184.949 73.7219 184.949C74.8015 184.949 75.649 185.186 76.2646 185.659C76.8848 186.133 77.3252 186.758 77.5856 187.534ZM81.87 192.023L81.8416 189.949H82.1825L86.9553 185.091H89.0291L83.9439 190.233H83.8018L81.87 192.023ZM80.3075 196V181.455H81.9837V196H80.3075ZM87.2393 196L82.978 190.602L84.1712 189.438L89.37 196H87.2393ZM98.4876 189.438V196H96.8114V185.091H98.4308V186.795H98.5728C98.8285 186.241 99.2167 185.796 99.7376 185.46C100.258 185.119 100.931 184.949 101.755 184.949C102.493 184.949 103.14 185.1 103.694 185.403C104.248 185.702 104.678 186.156 104.986 186.767C105.294 187.373 105.448 188.14 105.448 189.068V196H103.772V189.182C103.772 188.325 103.549 187.657 103.104 187.179C102.659 186.696 102.048 186.455 101.272 186.455C100.737 186.455 100.258 186.571 99.837 186.803C99.4203 187.035 99.0913 187.373 98.8498 187.818C98.6083 188.263 98.4876 188.803 98.4876 189.438ZM111.721 196.256C111.03 196.256 110.402 196.125 109.839 195.865C109.275 195.6 108.828 195.219 108.496 194.722C108.165 194.22 107.999 193.614 107.999 192.903C107.999 192.278 108.122 191.772 108.369 191.384C108.615 190.991 108.944 190.683 109.356 190.46C109.768 190.238 110.222 190.072 110.719 189.963C111.221 189.849 111.726 189.759 112.232 189.693C112.895 189.608 113.433 189.544 113.844 189.501C114.261 189.454 114.564 189.376 114.754 189.267C114.948 189.158 115.045 188.969 115.045 188.699V188.642C115.045 187.941 114.853 187.397 114.469 187.009C114.091 186.62 113.515 186.426 112.744 186.426C111.943 186.426 111.316 186.601 110.862 186.952C110.407 187.302 110.087 187.676 109.903 188.074L108.312 187.506C108.596 186.843 108.975 186.327 109.448 185.957C109.926 185.583 110.447 185.323 111.011 185.176C111.579 185.025 112.138 184.949 112.687 184.949C113.037 184.949 113.44 184.991 113.894 185.077C114.353 185.157 114.796 185.325 115.222 185.581C115.653 185.837 116.011 186.223 116.295 186.739C116.579 187.255 116.721 187.946 116.721 188.812V196H115.045V194.523H114.96C114.846 194.759 114.656 195.013 114.391 195.283C114.126 195.553 113.773 195.782 113.333 195.972C112.893 196.161 112.355 196.256 111.721 196.256ZM111.977 194.75C112.639 194.75 113.198 194.62 113.653 194.359C114.112 194.099 114.458 193.763 114.69 193.351C114.926 192.939 115.045 192.506 115.045 192.051V190.517C114.974 190.602 114.817 190.68 114.576 190.751C114.339 190.818 114.065 190.877 113.752 190.929C113.444 190.976 113.144 191.019 112.85 191.057C112.561 191.09 112.327 191.118 112.147 191.142C111.711 191.199 111.304 191.291 110.925 191.419C110.551 191.542 110.248 191.729 110.016 191.98C109.789 192.226 109.675 192.562 109.675 192.989C109.675 193.571 109.891 194.011 110.322 194.31C110.757 194.603 111.309 194.75 111.977 194.75ZM119.78 196V185.091H121.4V186.795H121.542C121.769 186.213 122.136 185.761 122.642 185.439C123.149 185.112 123.757 184.949 124.468 184.949C125.187 184.949 125.786 185.112 126.265 185.439C126.748 185.761 127.124 186.213 127.394 186.795H127.507C127.787 186.232 128.206 185.785 128.765 185.453C129.323 185.117 129.993 184.949 130.775 184.949C131.75 184.949 132.548 185.254 133.168 185.865C133.788 186.471 134.098 187.416 134.098 188.699V196H132.422V188.699C132.422 187.894 132.202 187.319 131.762 186.973C131.321 186.627 130.803 186.455 130.206 186.455C129.439 186.455 128.845 186.687 128.424 187.151C128.002 187.61 127.792 188.192 127.792 188.898V196H126.087V188.528C126.087 187.908 125.886 187.409 125.483 187.03C125.081 186.646 124.562 186.455 123.928 186.455C123.492 186.455 123.085 186.571 122.706 186.803C122.332 187.035 122.029 187.357 121.797 187.768C121.57 188.176 121.456 188.647 121.456 189.182V196H119.78ZM141.737 196.227C140.686 196.227 139.779 195.995 139.017 195.531C138.259 195.062 137.674 194.409 137.262 193.571C136.855 192.728 136.652 191.748 136.652 190.631C136.652 189.513 136.855 188.528 137.262 187.676C137.674 186.819 138.247 186.152 138.981 185.673C139.72 185.19 140.582 184.949 141.566 184.949C142.135 184.949 142.696 185.044 143.25 185.233C143.804 185.422 144.308 185.73 144.762 186.156C145.217 186.578 145.579 187.136 145.849 187.832C146.119 188.528 146.254 189.385 146.254 190.403V191.114H137.845V189.665H144.549C144.549 189.049 144.426 188.5 144.18 188.017C143.939 187.534 143.593 187.153 143.143 186.874C142.698 186.594 142.172 186.455 141.566 186.455C140.899 186.455 140.321 186.62 139.833 186.952C139.35 187.278 138.979 187.705 138.718 188.23C138.458 188.756 138.328 189.319 138.328 189.92V190.886C138.328 191.71 138.47 192.409 138.754 192.982C139.043 193.55 139.443 193.983 139.954 194.281C140.466 194.575 141.06 194.722 141.737 194.722C142.177 194.722 142.575 194.66 142.93 194.537C143.29 194.409 143.6 194.22 143.86 193.969C144.121 193.713 144.322 193.396 144.464 193.017L146.083 193.472C145.913 194.021 145.627 194.504 145.224 194.92C144.822 195.332 144.324 195.654 143.733 195.886C143.141 196.114 142.475 196.227 141.737 196.227Z" fill="#050505"/>
<line x1="41" y1="208.75" x2="367" y2="208.75" stroke="url(#paint0_linear_374_306)" stroke-width="2.5"/>
<g clip-path="url(#clip0_374_306)">
<path d="M285 323.25H281.75V321.75C281.75 321.551 281.671 321.36 281.531 321.22C281.39 321.079 281.199 321 281 321C280.802 320.999 280.611 321.078 280.47 321.219C280.329 321.359 280.25 321.55 280.25 321.749V323.25H275.75V321.75C275.75 321.652 275.731 321.554 275.693 321.463C275.655 321.372 275.6 321.289 275.531 321.22C275.461 321.15 275.378 321.095 275.287 321.057C275.197 321.019 275.099 321 275 321C274.802 320.999 274.611 321.078 274.47 321.219C274.329 321.359 274.25 321.55 274.25 321.749V323.25H269.75V321.75C269.75 321.652 269.731 321.554 269.693 321.463C269.655 321.372 269.6 321.289 269.531 321.22C269.461 321.15 269.378 321.095 269.287 321.057C269.197 321.019 269.099 321 269.001 321C268.802 320.999 268.611 321.078 268.47 321.219C268.329 321.359 268.25 321.55 268.25 321.749V323.25H265C264.47 323.25 263.961 323.461 263.586 323.835C263.211 324.21 263 324.719 263 325.249V342.999C263 343.529 263.211 344.038 263.586 344.413C263.961 344.788 264.47 344.999 265 344.999H285C285.53 344.999 286.039 344.788 286.414 344.413C286.789 344.038 287 343.529 287 342.999V325.249C287 324.719 286.789 324.21 286.414 323.835C286.039 323.461 285.53 323.25 285 323.25ZM285.5 343C285.5 343.132 285.447 343.259 285.354 343.353C285.26 343.447 285.133 343.5 285.001 343.5H265C264.867 343.5 264.74 343.447 264.646 343.354C264.553 343.26 264.5 343.133 264.5 343V325.25C264.5 325.118 264.553 324.991 264.647 324.897C264.741 324.804 264.868 324.751 265 324.751H268.25V326.251C268.25 326.45 268.329 326.641 268.469 326.781C268.61 326.922 268.801 327.001 268.999 327.002C269.198 327.002 269.389 326.923 269.53 326.782C269.671 326.642 269.75 326.451 269.75 326.252V324.751H274.25V326.251C274.25 326.45 274.329 326.641 274.469 326.781C274.61 326.922 274.801 327.001 275 327.002C275.198 327.002 275.389 326.923 275.53 326.782C275.671 326.642 275.75 326.451 275.75 326.252V324.751H280.25V326.251C280.25 326.45 280.329 326.641 280.469 326.781C280.61 326.922 280.801 327.001 281 327.002C281.198 327.002 281.389 326.923 281.53 326.782C281.671 326.642 281.75 326.451 281.75 326.252V324.751H285C285.132 324.751 285.259 324.804 285.353 324.897C285.446 324.991 285.499 325.118 285.499 325.25L285.5 343Z" fill="black"/>
<path d="M268.25 330H271.25V332.25H268.25V330ZM268.25 333.75H271.25V336H268.25V333.75ZM268.25 337.5H271.25V339.75H268.25V337.5ZM273.5 337.5H276.5V339.75H273.5V337.5ZM273.5 333.75H276.5V336H273.5V333.75ZM273.5 330H276.5V332.25H273.5V330ZM278.75 337.5H281.75V339.75H278.75V337.5ZM278.75 333.75H281.75V336H278.75V333.75ZM278.75 330H281.75V332.25H278.75V330Z" fill="black"/>
</g>
<circle cx="58" cy="464" r="17" fill="url(#paint1_linear_374_306)"/>
<circle cx="58" cy="464" r="17" fill="#28B4E1"/>
<path d="M65 464.998H59V470.998H57V464.998H51V462.998H57V456.998H59V462.998H65V464.998Z" fill="black"/>
<g filter="url(#filter1_d_374_306)">
<g filter="url(#filter2_d_374_306)">
<rect x="134.5" y="844.5" width="193" height="59" rx="16.5" stroke="#28B4E1" shape-rendering="crispEdges"/>
</g>
<path d="M207.159 870H205.045C204.92 869.392 204.702 868.858 204.389 868.398C204.082 867.938 203.707 867.551 203.264 867.239C202.827 866.92 202.341 866.682 201.807 866.523C201.273 866.364 200.716 866.284 200.136 866.284C199.08 866.284 198.122 866.551 197.264 867.085C196.412 867.619 195.733 868.406 195.227 869.446C194.727 870.486 194.477 871.761 194.477 873.273C194.477 874.784 194.727 876.06 195.227 877.099C195.733 878.139 196.412 878.926 197.264 879.46C198.122 879.994 199.08 880.261 200.136 880.261C200.716 880.261 201.273 880.182 201.807 880.023C202.341 879.864 202.827 879.628 203.264 879.315C203.707 878.997 204.082 878.608 204.389 878.148C204.702 877.682 204.92 877.148 205.045 876.545H207.159C207 877.437 206.71 878.236 206.29 878.94C205.869 879.645 205.347 880.244 204.722 880.739C204.097 881.227 203.395 881.599 202.616 881.855C201.844 882.111 201.017 882.239 200.136 882.239C198.648 882.239 197.324 881.875 196.165 881.148C195.006 880.42 194.094 879.386 193.429 878.045C192.764 876.705 192.432 875.114 192.432 873.273C192.432 871.432 192.764 869.841 193.429 868.5C194.094 867.159 195.006 866.125 196.165 865.398C197.324 864.67 198.648 864.307 200.136 864.307C201.017 864.307 201.844 864.435 202.616 864.69C203.395 864.946 204.097 865.321 204.722 865.815C205.347 866.304 205.869 866.901 206.29 867.605C206.71 868.304 207 869.102 207.159 870ZM214.154 882.307C213.325 882.307 212.572 882.151 211.896 881.838C211.219 881.52 210.683 881.062 210.285 880.466C209.887 879.864 209.688 879.136 209.688 878.284C209.688 877.534 209.836 876.926 210.131 876.46C210.427 875.989 210.822 875.619 211.316 875.352C211.81 875.085 212.356 874.886 212.952 874.756C213.555 874.619 214.16 874.511 214.768 874.432C215.563 874.33 216.208 874.253 216.702 874.202C217.202 874.145 217.566 874.051 217.793 873.92C218.026 873.79 218.143 873.562 218.143 873.239V873.17C218.143 872.33 217.913 871.676 217.452 871.21C216.998 870.744 216.308 870.511 215.381 870.511C214.421 870.511 213.668 870.722 213.123 871.142C212.577 871.562 212.194 872.011 211.972 872.489L210.063 871.807C210.404 871.011 210.859 870.392 211.427 869.949C212.001 869.5 212.626 869.187 213.302 869.011C213.984 868.83 214.654 868.739 215.313 868.739C215.734 868.739 216.217 868.79 216.762 868.892C217.313 868.989 217.844 869.19 218.356 869.497C218.873 869.804 219.302 870.267 219.643 870.886C219.984 871.506 220.154 872.335 220.154 873.375V882H218.143V880.227H218.04C217.904 880.511 217.677 880.815 217.359 881.139C217.04 881.463 216.617 881.739 216.089 881.966C215.56 882.193 214.915 882.307 214.154 882.307ZM214.461 880.5C215.256 880.5 215.927 880.344 216.472 880.031C217.023 879.719 217.438 879.315 217.717 878.821C218.001 878.327 218.143 877.807 218.143 877.261V875.42C218.058 875.523 217.87 875.616 217.58 875.702C217.296 875.781 216.967 875.852 216.592 875.915C216.222 875.972 215.862 876.023 215.509 876.068C215.163 876.108 214.881 876.142 214.665 876.17C214.143 876.239 213.654 876.349 213.2 876.503C212.751 876.651 212.387 876.875 212.109 877.176C211.836 877.472 211.7 877.875 211.7 878.386C211.7 879.085 211.958 879.614 212.475 879.972C212.998 880.324 213.66 880.5 214.461 880.5ZM225.837 874.125V882H223.825V868.909H225.768V870.955H225.939C226.246 870.29 226.712 869.756 227.337 869.352C227.962 868.943 228.768 868.739 229.757 868.739C230.643 868.739 231.419 868.92 232.084 869.284C232.749 869.642 233.266 870.188 233.635 870.92C234.004 871.648 234.189 872.568 234.189 873.682V882H232.178V873.818C232.178 872.79 231.911 871.989 231.376 871.415C230.842 870.835 230.109 870.545 229.178 870.545C228.536 870.545 227.962 870.685 227.456 870.963C226.956 871.241 226.561 871.648 226.271 872.182C225.982 872.716 225.837 873.364 225.837 874.125ZM243.183 882.273C241.955 882.273 240.898 881.983 240.012 881.403C239.126 880.824 238.444 880.026 237.967 879.009C237.489 877.991 237.251 876.83 237.251 875.523C237.251 874.193 237.495 873.02 237.984 872.003C238.478 870.98 239.165 870.182 240.046 869.608C240.933 869.028 241.967 868.739 243.148 868.739C244.069 868.739 244.898 868.909 245.637 869.25C246.376 869.591 246.981 870.068 247.452 870.682C247.924 871.295 248.217 872.011 248.33 872.83H246.319C246.165 872.233 245.825 871.705 245.296 871.244C244.773 870.778 244.069 870.545 243.183 870.545C242.398 870.545 241.711 870.75 241.12 871.159C240.535 871.562 240.077 872.134 239.748 872.872C239.424 873.605 239.262 874.466 239.262 875.455C239.262 876.466 239.421 877.347 239.739 878.097C240.063 878.847 240.518 879.429 241.103 879.844C241.694 880.259 242.387 880.466 243.183 880.466C243.705 880.466 244.18 880.375 244.606 880.193C245.032 880.011 245.393 879.75 245.688 879.409C245.984 879.068 246.194 878.659 246.319 878.182H248.33C248.217 878.955 247.935 879.651 247.487 880.27C247.043 880.884 246.455 881.372 245.722 881.736C244.995 882.094 244.148 882.273 243.183 882.273ZM256.759 882.273C255.498 882.273 254.41 881.994 253.495 881.438C252.586 880.875 251.884 880.091 251.39 879.085C250.901 878.074 250.657 876.898 250.657 875.557C250.657 874.216 250.901 873.034 251.39 872.011C251.884 870.983 252.572 870.182 253.452 869.608C254.339 869.028 255.373 868.739 256.555 868.739C257.237 868.739 257.91 868.852 258.575 869.08C259.239 869.307 259.844 869.676 260.39 870.188C260.935 870.693 261.37 871.364 261.694 872.199C262.018 873.034 262.18 874.062 262.18 875.284V876.136H252.089V874.398H260.134C260.134 873.659 259.987 873 259.691 872.42C259.401 871.841 258.987 871.384 258.447 871.048C257.913 870.713 257.282 870.545 256.555 870.545C255.754 870.545 255.06 870.744 254.475 871.142C253.896 871.534 253.45 872.045 253.137 872.676C252.825 873.307 252.668 873.983 252.668 874.705V875.864C252.668 876.852 252.839 877.69 253.18 878.378C253.526 879.06 254.006 879.58 254.62 879.938C255.234 880.29 255.947 880.466 256.759 880.466C257.288 880.466 257.765 880.392 258.191 880.244C258.623 880.091 258.995 879.864 259.308 879.562C259.62 879.256 259.862 878.875 260.032 878.42L261.975 878.966C261.771 879.625 261.427 880.205 260.944 880.705C260.461 881.199 259.864 881.585 259.154 881.864C258.444 882.136 257.646 882.273 256.759 882.273ZM267.251 864.545V882H265.239V864.545H267.251Z" fill="#28B4E1"/>
</g>
<g filter="url(#filter3_d_374_306)">
<rect x="373" y="844" width="194" height="60" rx="17" fill="#28B4E1"/>
<rect x="373.5" y="844.5" width="193" height="59" rx="16.5" stroke="#CCCCCC"/>
</g>
<path d="M444.568 864.545H446.682V876.102C446.682 877.295 446.401 878.361 445.838 879.298C445.281 880.23 444.494 880.966 443.477 881.506C442.46 882.04 441.267 882.307 439.898 882.307C438.528 882.307 437.335 882.04 436.318 881.506C435.301 880.966 434.511 880.23 433.949 879.298C433.392 878.361 433.114 877.295 433.114 876.102V864.545H435.227V875.932C435.227 876.784 435.415 877.543 435.79 878.207C436.165 878.866 436.699 879.386 437.392 879.767C438.091 880.142 438.926 880.33 439.898 880.33C440.869 880.33 441.705 880.142 442.403 879.767C443.102 879.386 443.636 878.866 444.006 878.207C444.381 877.543 444.568 876.784 444.568 875.932V864.545ZM450.63 886.909V868.909H452.573V870.989H452.812C452.96 870.761 453.164 870.472 453.425 870.119C453.692 869.761 454.073 869.443 454.567 869.165C455.067 868.881 455.744 868.739 456.596 868.739C457.698 868.739 458.67 869.014 459.511 869.565C460.352 870.116 461.008 870.898 461.479 871.909C461.951 872.92 462.187 874.114 462.187 875.489C462.187 876.875 461.951 878.077 461.479 879.094C461.008 880.105 460.354 880.889 459.519 881.446C458.684 881.997 457.721 882.273 456.63 882.273C455.789 882.273 455.116 882.134 454.61 881.855C454.104 881.571 453.715 881.25 453.442 880.892C453.17 880.528 452.96 880.227 452.812 879.989H452.641V886.909H450.63ZM452.607 875.455C452.607 876.443 452.752 877.315 453.042 878.071C453.332 878.821 453.755 879.409 454.312 879.835C454.869 880.256 455.55 880.466 456.357 880.466C457.198 880.466 457.9 880.244 458.462 879.801C459.031 879.352 459.457 878.75 459.741 877.994C460.031 877.233 460.175 876.386 460.175 875.455C460.175 874.534 460.033 873.705 459.749 872.966C459.471 872.222 459.048 871.634 458.479 871.202C457.917 870.764 457.21 870.545 456.357 870.545C455.539 870.545 454.852 870.753 454.295 871.168C453.738 871.577 453.317 872.151 453.033 872.889C452.749 873.622 452.607 874.477 452.607 875.455ZM470.198 882.273C469.107 882.273 468.144 881.997 467.309 881.446C466.474 880.889 465.82 880.105 465.349 879.094C464.877 878.077 464.641 876.875 464.641 875.489C464.641 874.114 464.877 872.92 465.349 871.909C465.82 870.898 466.477 870.116 467.317 869.565C468.158 869.014 469.13 868.739 470.232 868.739C471.085 868.739 471.758 868.881 472.252 869.165C472.752 869.443 473.133 869.761 473.394 870.119C473.661 870.472 473.869 870.761 474.016 870.989H474.187V864.545H476.198V882H474.255V879.989H474.016C473.869 880.227 473.658 880.528 473.386 880.892C473.113 881.25 472.724 881.571 472.218 881.855C471.712 882.134 471.039 882.273 470.198 882.273ZM470.471 880.466C471.278 880.466 471.96 880.256 472.516 879.835C473.073 879.409 473.496 878.821 473.786 878.071C474.076 877.315 474.221 876.443 474.221 875.455C474.221 874.477 474.079 873.622 473.795 872.889C473.511 872.151 473.09 871.577 472.533 871.168C471.977 870.753 471.289 870.545 470.471 870.545C469.619 870.545 468.908 870.764 468.34 871.202C467.778 871.634 467.354 872.222 467.07 872.966C466.792 873.705 466.653 874.534 466.653 875.455C466.653 876.386 466.795 877.233 467.079 877.994C467.369 878.75 467.795 879.352 468.357 879.801C468.925 880.244 469.63 880.466 470.471 880.466ZM484.013 882.307C483.184 882.307 482.431 882.151 481.755 881.838C481.079 881.52 480.542 881.062 480.144 880.466C479.746 879.864 479.548 879.136 479.548 878.284C479.548 877.534 479.695 876.926 479.991 876.46C480.286 875.989 480.681 875.619 481.175 875.352C481.67 875.085 482.215 874.886 482.812 874.756C483.414 874.619 484.019 874.511 484.627 874.432C485.423 874.33 486.067 874.253 486.562 874.202C487.062 874.145 487.425 874.051 487.653 873.92C487.886 873.79 488.002 873.562 488.002 873.239V873.17C488.002 872.33 487.772 871.676 487.312 871.21C486.857 870.744 486.167 870.511 485.241 870.511C484.281 870.511 483.528 870.722 482.982 871.142C482.437 871.562 482.053 872.011 481.832 872.489L479.923 871.807C480.263 871.011 480.718 870.392 481.286 869.949C481.86 869.5 482.485 869.187 483.161 869.011C483.843 868.83 484.513 868.739 485.173 868.739C485.593 868.739 486.076 868.79 486.621 868.892C487.173 868.989 487.704 869.19 488.215 869.497C488.732 869.804 489.161 870.267 489.502 870.886C489.843 871.506 490.013 872.335 490.013 873.375V882H488.002V880.227H487.9C487.763 880.511 487.536 880.815 487.218 881.139C486.9 881.463 486.477 881.739 485.948 881.966C485.42 882.193 484.775 882.307 484.013 882.307ZM484.32 880.5C485.116 880.5 485.786 880.344 486.332 880.031C486.883 879.719 487.298 879.315 487.576 878.821C487.86 878.327 488.002 877.807 488.002 877.261V875.42C487.917 875.523 487.729 875.616 487.44 875.702C487.156 875.781 486.826 875.852 486.451 875.915C486.082 875.972 485.721 876.023 485.369 876.068C485.022 876.108 484.741 876.142 484.525 876.17C484.002 876.239 483.513 876.349 483.059 876.503C482.61 876.651 482.246 876.875 481.968 877.176C481.695 877.472 481.559 877.875 481.559 878.386C481.559 879.085 481.817 879.614 482.335 879.972C482.857 880.324 483.519 880.5 484.32 880.5ZM499.378 868.909V870.614H492.594V868.909H499.378ZM494.571 865.773H496.582V878.25C496.582 878.818 496.665 879.244 496.83 879.528C497 879.807 497.216 879.994 497.477 880.091C497.744 880.182 498.026 880.227 498.321 880.227C498.543 880.227 498.724 880.216 498.866 880.193C499.009 880.165 499.122 880.142 499.207 880.125L499.616 881.932C499.48 881.983 499.29 882.034 499.045 882.085C498.801 882.142 498.491 882.17 498.116 882.17C497.548 882.17 496.991 882.048 496.446 881.804C495.906 881.56 495.457 881.188 495.099 880.688C494.747 880.188 494.571 879.557 494.571 878.795V865.773ZM507.751 882.273C506.49 882.273 505.402 881.994 504.487 881.438C503.578 880.875 502.876 880.091 502.382 879.085C501.893 878.074 501.649 876.898 501.649 875.557C501.649 874.216 501.893 873.034 502.382 872.011C502.876 870.983 503.564 870.182 504.445 869.608C505.331 869.028 506.365 868.739 507.547 868.739C508.229 868.739 508.902 868.852 509.567 869.08C510.232 869.307 510.837 869.676 511.382 870.188C511.928 870.693 512.362 871.364 512.686 872.199C513.01 873.034 513.172 874.062 513.172 875.284V876.136H503.081V874.398H511.126C511.126 873.659 510.979 873 510.683 872.42C510.393 871.841 509.979 871.384 509.439 871.048C508.905 870.713 508.274 870.545 507.547 870.545C506.746 870.545 506.053 870.744 505.467 871.142C504.888 871.534 504.442 872.045 504.129 872.676C503.817 873.307 503.661 873.983 503.661 874.705V875.864C503.661 876.852 503.831 877.69 504.172 878.378C504.518 879.06 504.999 879.58 505.612 879.938C506.226 880.29 506.939 880.466 507.751 880.466C508.28 880.466 508.757 880.392 509.183 880.244C509.615 880.091 509.987 879.864 510.3 879.562C510.612 879.256 510.854 878.875 511.024 878.42L512.967 878.966C512.763 879.625 512.419 880.205 511.936 880.705C511.453 881.199 510.857 881.585 510.146 881.864C509.436 882.136 508.638 882.273 507.751 882.273Z" fill="white"/>
<rect x="47.5" y="573.5" width="611" height="234" rx="15.5" stroke="#28B4E1" stroke-width="3"/>
<rect width="702" height="80" fill="url(#paint2_linear_374_306)"/>
<path d="M678.494 43.0697C678.816 43.3916 678.997 43.8282 678.997 44.2835C678.997 44.7387 678.816 45.1753 678.494 45.4972C678.172 45.8192 677.736 46 677.281 46C676.825 46 676.389 45.8192 676.067 45.4972L667 36.4283L657.93 45.4944C657.609 45.8163 657.172 45.9971 656.717 45.9971C656.261 45.9971 655.825 45.8163 655.503 45.4944C655.181 45.1725 655 44.7359 655 44.2806C655 43.8254 655.181 43.3888 655.503 43.0669L664.572 34.0007L655.506 24.9317C655.184 24.6098 655.003 24.1732 655.003 23.718C655.003 23.2627 655.184 22.8261 655.506 22.5042C655.828 22.1823 656.264 22.0014 656.719 22.0014C657.175 22.0014 657.611 22.1823 657.933 22.5042L667 31.5732L676.07 22.5028C676.391 22.1808 676.828 22 677.283 22C677.739 22 678.175 22.1808 678.497 22.5028C678.819 22.8247 679 23.2613 679 23.7165C679 24.1718 678.819 24.6084 678.497 24.9303L669.428 34.0007L678.494 43.0697Z" fill="#181C7A"/>
<path d="M63.184 56.432C59.608 56.432 56.812 55.436 54.796 53.444C52.78 51.452 51.772 48.608 51.772 44.912V30.8H57.604V44.696C57.604 47.096 58.096 48.824 59.08 49.88C60.064 50.936 61.444 51.464 63.22 51.464C64.996 51.464 66.376 50.936 67.36 49.88C68.344 48.824 68.836 47.096 68.836 44.696V30.8H74.596V44.912C74.596 48.608 73.588 51.452 71.572 53.444C69.556 55.436 66.76 56.432 63.184 56.432ZM91.4111 56.288C89.7791 56.288 88.3511 55.928 87.1271 55.208C85.9031 54.488 84.9431 53.396 84.2471 51.932C83.5751 50.444 83.2391 48.572 83.2391 46.316C83.2391 44.036 83.5631 42.164 84.2111 40.7C84.8591 39.236 85.7951 38.144 87.0191 37.424C88.2431 36.704 89.7071 36.344 91.4111 36.344C93.2351 36.344 94.8671 36.764 96.3071 37.604C97.7711 38.42 98.9231 39.572 99.7631 41.06C100.627 42.548 101.059 44.3 101.059 46.316C101.059 48.356 100.627 50.12 99.7631 51.608C98.9231 53.096 97.7711 54.248 96.3071 55.064C94.8671 55.88 93.2351 56.288 91.4111 56.288ZM79.9631 62.984V36.632H85.3271V40.592L85.2191 46.352L85.5791 52.076V62.984H79.9631ZM90.4391 51.68C91.3751 51.68 92.2031 51.464 92.9231 51.032C93.6671 50.6 94.2551 49.988 94.6871 49.196C95.1431 48.38 95.3711 47.42 95.3711 46.316C95.3711 45.188 95.1431 44.228 94.6871 43.436C94.2551 42.644 93.6671 42.032 92.9231 41.6C92.2031 41.168 91.3751 40.952 90.4391 40.952C89.5031 40.952 88.6631 41.168 87.9191 41.6C87.1751 42.032 86.5871 42.644 86.1551 43.436C85.7231 44.228 85.5071 45.188 85.5071 46.316C85.5071 47.42 85.7231 48.38 86.1551 49.196C86.5871 49.988 87.1751 50.6 87.9191 51.032C88.6631 51.464 89.5031 51.68 90.4391 51.68ZM113.135 56.288C111.311 56.288 109.667 55.88 108.203 55.064C106.739 54.224 105.575 53.06 104.711 51.572C103.871 50.084 103.451 48.332 103.451 46.316C103.451 44.276 103.871 42.512 104.711 41.024C105.575 39.536 106.739 38.384 108.203 37.568C109.667 36.752 111.311 36.344 113.135 36.344C114.767 36.344 116.195 36.704 117.419 37.424C118.643 38.144 119.591 39.236 120.263 40.7C120.935 42.164 121.271 44.036 121.271 46.316C121.271 48.572 120.947 50.444 120.299 51.932C119.651 53.396 118.715 54.488 117.491 55.208C116.291 55.928 114.839 56.288 113.135 56.288ZM114.107 51.68C115.019 51.68 115.847 51.464 116.591 51.032C117.335 50.6 117.923 49.988 118.355 49.196C118.811 48.38 119.039 47.42 119.039 46.316C119.039 45.188 118.811 44.228 118.355 43.436C117.923 42.644 117.335 42.032 116.591 41.6C115.847 41.168 115.019 40.952 114.107 40.952C113.171 40.952 112.331 41.168 111.587 41.6C110.843 42.032 110.243 42.644 109.787 43.436C109.355 44.228 109.139 45.188 109.139 46.316C109.139 47.42 109.355 48.38 109.787 49.196C110.243 49.988 110.843 50.6 111.587 51.032C112.331 51.464 113.171 51.68 114.107 51.68ZM119.183 56V52.04L119.291 46.28L118.931 40.556V29.288H124.547V56H119.183ZM141.624 56V52.22L141.264 51.392V44.624C141.264 43.424 140.892 42.488 140.148 41.816C139.428 41.144 138.312 40.808 136.8 40.808C135.768 40.808 134.748 40.976 133.74 41.312C132.756 41.624 131.916 42.056 131.22 42.608L129.204 38.684C130.26 37.94 131.532 37.364 133.02 36.956C134.508 36.548 136.02 36.344 137.556 36.344C140.508 36.344 142.8 37.04 144.432 38.432C146.064 39.824 146.88 41.996 146.88 44.948V56H141.624ZM135.72 56.288C134.208 56.288 132.912 56.036 131.832 55.532C130.752 55.004 129.924 54.296 129.348 53.408C128.772 52.52 128.484 51.524 128.484 50.42C128.484 49.268 128.76 48.26 129.312 47.396C129.888 46.532 130.788 45.86 132.012 45.38C133.236 44.876 134.832 44.624 136.8 44.624H141.948V47.9H137.412C136.092 47.9 135.18 48.116 134.676 48.548C134.196 48.98 133.956 49.52 133.956 50.168C133.956 50.888 134.232 51.464 134.784 51.896C135.36 52.304 136.14 52.508 137.124 52.508C138.06 52.508 138.9 52.292 139.644 51.86C140.388 51.404 140.928 50.744 141.264 49.88L142.128 52.472C141.72 53.72 140.976 54.668 139.896 55.316C138.816 55.964 137.424 56.288 135.72 56.288ZM159.883 56.288C157.603 56.288 155.827 55.712 154.555 54.56C153.283 53.384 152.647 51.644 152.647 49.34V32.348H158.263V49.268C158.263 50.084 158.479 50.72 158.911 51.176C159.343 51.608 159.931 51.824 160.675 51.824C161.563 51.824 162.319 51.584 162.943 51.104L164.455 55.064C163.879 55.472 163.183 55.784 162.367 56C161.575 56.192 160.747 56.288 159.883 56.288ZM149.659 41.384V37.064H163.087V41.384H149.659ZM176.622 56.288C174.414 56.288 172.47 55.856 170.79 54.992C169.134 54.128 167.85 52.952 166.938 51.464C166.026 49.952 165.57 48.236 165.57 46.316C165.57 44.372 166.014 42.656 166.902 41.168C167.814 39.656 169.05 38.48 170.61 37.64C172.17 36.776 173.934 36.344 175.902 36.344C177.798 36.344 179.502 36.752 181.014 37.568C182.55 38.36 183.762 39.512 184.65 41.024C185.538 42.512 185.982 44.3 185.982 46.388C185.982 46.604 185.97 46.856 185.946 47.144C185.922 47.408 185.898 47.66 185.874 47.9H170.142V44.624H182.922L180.762 45.596C180.762 44.588 180.558 43.712 180.15 42.968C179.742 42.224 179.178 41.648 178.458 41.24C177.738 40.808 176.898 40.592 175.938 40.592C174.978 40.592 174.126 40.808 173.382 41.24C172.662 41.648 172.098 42.236 171.69 43.004C171.282 43.748 171.078 44.636 171.078 45.668V46.532C171.078 47.588 171.306 48.524 171.762 49.34C172.242 50.132 172.902 50.744 173.742 51.176C174.606 51.584 175.614 51.788 176.766 51.788C177.798 51.788 178.698 51.632 179.466 51.32C180.258 51.008 180.978 50.54 181.626 49.916L184.614 53.156C183.726 54.164 182.61 54.944 181.266 55.496C179.922 56.024 178.374 56.288 176.622 56.288ZM200.312 56V30.8H211.22C213.476 30.8 215.42 31.172 217.052 31.916C218.684 32.636 219.944 33.68 220.832 35.048C221.72 36.416 222.164 38.048 222.164 39.944C222.164 41.816 221.72 43.436 220.832 44.804C219.944 46.172 218.684 47.228 217.052 47.972C215.42 48.692 213.476 49.052 211.22 49.052H203.552L206.144 46.424V56H200.312ZM206.144 47.072L203.552 44.3H210.896C212.696 44.3 214.04 43.916 214.928 43.148C215.816 42.38 216.26 41.312 216.26 39.944C216.26 38.552 215.816 37.472 214.928 36.704C214.04 35.936 212.696 35.552 210.896 35.552H203.552L206.144 32.78V47.072ZM225.897 56V36.632H231.261V42.104L230.505 40.52C231.081 39.152 232.005 38.12 233.277 37.424C234.549 36.704 236.097 36.344 237.921 36.344V41.528C237.681 41.504 237.465 41.492 237.273 41.492C237.081 41.468 236.877 41.456 236.661 41.456C235.125 41.456 233.877 41.9 232.917 42.788C231.981 43.652 231.513 45.008 231.513 46.856V56H225.897ZM250.335 56.288C248.271 56.288 246.435 55.856 244.827 54.992C243.243 54.128 241.983 52.952 241.047 51.464C240.135 49.952 239.679 48.236 239.679 46.316C239.679 44.372 240.135 42.656 241.047 41.168C241.983 39.656 243.243 38.48 244.827 37.64C246.435 36.776 248.271 36.344 250.335 36.344C252.375 36.344 254.199 36.776 255.807 37.64C257.415 38.48 258.675 39.644 259.587 41.132C260.499 42.62 260.955 44.348 260.955 46.316C260.955 48.236 260.499 49.952 259.587 51.464C258.675 52.952 257.415 54.128 255.807 54.992C254.199 55.856 252.375 56.288 250.335 56.288ZM250.335 51.68C251.271 51.68 252.111 51.464 252.855 51.032C253.599 50.6 254.187 49.988 254.619 49.196C255.051 48.38 255.267 47.42 255.267 46.316C255.267 45.188 255.051 44.228 254.619 43.436C254.187 42.644 253.599 42.032 252.855 41.6C252.111 41.168 251.271 40.952 250.335 40.952C249.399 40.952 248.559 41.168 247.815 41.6C247.071 42.032 246.471 42.644 246.015 43.436C245.583 44.228 245.367 45.188 245.367 46.316C245.367 47.42 245.583 48.38 246.015 49.196C246.471 49.988 247.071 50.6 247.815 51.032C248.559 51.464 249.399 51.68 250.335 51.68ZM263.269 63.272C262.405 63.272 261.577 63.176 260.785 62.984C259.993 62.816 259.321 62.552 258.769 62.192L260.281 58.124C260.929 58.58 261.721 58.808 262.657 58.808C263.353 58.808 263.905 58.568 264.313 58.088C264.745 57.632 264.961 56.936 264.961 56V36.632H270.577V55.964C270.577 58.196 269.941 59.972 268.669 61.292C267.397 62.612 265.597 63.272 263.269 63.272ZM267.769 33.932C266.737 33.932 265.897 33.632 265.249 33.032C264.601 32.432 264.277 31.688 264.277 30.8C264.277 29.912 264.601 29.168 265.249 28.568C265.897 27.968 266.737 27.668 267.769 27.668C268.801 27.668 269.641 27.956 270.289 28.532C270.937 29.084 271.261 29.804 271.261 30.692C271.261 31.628 270.937 32.408 270.289 33.032C269.665 33.632 268.825 33.932 267.769 33.932ZM285.36 56.288C283.152 56.288 281.208 55.856 279.528 54.992C277.872 54.128 276.588 52.952 275.676 51.464C274.764 49.952 274.308 48.236 274.308 46.316C274.308 44.372 274.752 42.656 275.64 41.168C276.552 39.656 277.788 38.48 279.348 37.64C280.908 36.776 282.672 36.344 284.64 36.344C286.536 36.344 288.24 36.752 289.752 37.568C291.288 38.36 292.5 39.512 293.388 41.024C294.276 42.512 294.72 44.3 294.72 46.388C294.72 46.604 294.708 46.856 294.684 47.144C294.66 47.408 294.636 47.66 294.612 47.9H278.88V44.624H291.66L289.5 45.596C289.5 44.588 289.296 43.712 288.888 42.968C288.48 42.224 287.916 41.648 287.196 41.24C286.476 40.808 285.636 40.592 284.676 40.592C283.716 40.592 282.864 40.808 282.12 41.24C281.4 41.648 280.836 42.236 280.428 43.004C280.02 43.748 279.816 44.636 279.816 45.668V46.532C279.816 47.588 280.044 48.524 280.5 49.34C280.98 50.132 281.64 50.744 282.48 51.176C283.344 51.584 284.352 51.788 285.504 51.788C286.536 51.788 287.436 51.632 288.204 51.32C288.996 51.008 289.716 50.54 290.364 49.916L293.352 53.156C292.464 54.164 291.348 54.944 290.004 55.496C288.66 56.024 287.112 56.288 285.36 56.288ZM307.819 56.288C305.731 56.288 303.871 55.868 302.239 55.028C300.607 54.164 299.323 52.976 298.387 51.464C297.475 49.952 297.019 48.236 297.019 46.316C297.019 44.372 297.475 42.656 298.387 41.168C299.323 39.656 300.607 38.48 302.239 37.64C303.871 36.776 305.731 36.344 307.819 36.344C309.859 36.344 311.635 36.776 313.147 37.64C314.659 38.48 315.775 39.692 316.495 41.276L312.139 43.616C311.635 42.704 310.999 42.032 310.231 41.6C309.487 41.168 308.671 40.952 307.783 40.952C306.823 40.952 305.959 41.168 305.191 41.6C304.423 42.032 303.811 42.644 303.355 43.436C302.923 44.228 302.707 45.188 302.707 46.316C302.707 47.444 302.923 48.404 303.355 49.196C303.811 49.988 304.423 50.6 305.191 51.032C305.959 51.464 306.823 51.68 307.783 51.68C308.671 51.68 309.487 51.476 310.231 51.068C310.999 50.636 311.635 49.952 312.139 49.016L316.495 51.392C315.775 52.952 314.659 54.164 313.147 55.028C311.635 55.868 309.859 56.288 307.819 56.288ZM327.93 56.288C325.65 56.288 323.874 55.712 322.602 54.56C321.33 53.384 320.694 51.644 320.694 49.34V32.348H326.31V49.268C326.31 50.084 326.526 50.72 326.958 51.176C327.39 51.608 327.978 51.824 328.722 51.824C329.61 51.824 330.366 51.584 330.99 51.104L332.502 55.064C331.926 55.472 331.23 55.784 330.414 56C329.622 56.192 328.794 56.288 327.93 56.288ZM317.706 41.384V37.064H331.134V41.384H317.706Z" fill="white"/>
<defs>
<filter id="filter0_d_374_306" x="43" y="306" width="260" height="57" filterUnits="userSpaceOnUse" color-interpolation-filters="sRGB">
<feFlood flood-opacity="0" result="BackgroundImageFix"/>
<feColorMatrix in="SourceAlpha" type="matrix" values="0 0 0 0 0 0 0 0 0 0 0 0 0 0 0 0 0 0 127 0" result="hardAlpha"/>
<feOffset dx="1" dy="2"/>
<feGaussianBlur stdDeviation="2"/>
<feComposite in2="hardAlpha" operator="out"/>
<feColorMatrix type="matrix" values="0 0 0 0 0 0 0 0 0 0 0 0 0 0 0 0 0 0 0.25 0"/>
<feBlend mode="normal" in2="BackgroundImageFix" result="effect1_dropShadow_374_306"/>
<feBlend mode="normal" in="SourceGraphic" in2="effect1_dropShadow_374_306" result="shape"/>
</filter>
<filter id="filter1_d_374_306" x="130" y="839" width="206" height="72" filterUnits="userSpaceOnUse" color-interpolation-filters="sRGB">
<feFlood flood-opacity="0" result="BackgroundImageFix"/>
<feColorMatrix in="SourceAlpha" type="matrix" values="0 0 0 0 0 0 0 0 0 0 0 0 0 0 0 0 0 0 127 0" result="hardAlpha"/>
<feOffset dx="2" dy="1"/>
<feGaussianBlur stdDeviation="3"/>
<feComposite in2="hardAlpha" operator="out"/>
<feColorMatrix type="matrix" values="0 0 0 0 0 0 0 0 0 0 0 0 0 0 0 0 0 0 0.25 0"/>
<feBlend mode="normal" in2="BackgroundImageFix" result="effect1_dropShadow_374_306"/>
<feBlend mode="normal" in="SourceGraphic" in2="effect1_dropShadow_374_306" result="shape"/>
</filter>
<filter id="filter2_d_374_306" x="134" y="844" width="194" height="61" filterUnits="userSpaceOnUse" color-interpolation-filters="sRGB">
<feFlood flood-opacity="0" result="BackgroundImageFix"/>
<feColorMatrix in="SourceAlpha" type="matrix" values="0 0 0 0 0 0 0 0 0 0 0 0 0 0 0 0 0 0 127 0" result="hardAlpha"/>
<feOffset dy="1"/>
<feComposite in2="hardAlpha" operator="out"/>
<feColorMatrix type="matrix" values="0 0 0 0 0 0 0 0 0 0 0 0 0 0 0 0 0 0 0.25 0"/>
<feBlend mode="normal" in2="BackgroundImageFix" result="effect1_dropShadow_374_306"/>
<feBlend mode="normal" in="SourceGraphic" in2="effect1_dropShadow_374_306" result="shape"/>
</filter>
<filter id="filter3_d_374_306" x="369" y="839" width="206" height="72" filterUnits="userSpaceOnUse" color-interpolation-filters="sRGB">
<feFlood flood-opacity="0" result="BackgroundImageFix"/>
<feColorMatrix in="SourceAlpha" type="matrix" values="0 0 0 0 0 0 0 0 0 0 0 0 0 0 0 0 0 0 127 0" result="hardAlpha"/>
<feOffset dx="2" dy="1"/>
<feGaussianBlur stdDeviation="3"/>
<feComposite in2="hardAlpha" operator="out"/>
<feColorMatrix type="matrix" values="0 0 0 0 0 0 0 0 0 0 0 0 0 0 0 0 0 0 0.25 0"/>
<feBlend mode="normal" in2="BackgroundImageFix" result="effect1_dropShadow_374_306"/>
<feBlend mode="normal" in="SourceGraphic" in2="effect1_dropShadow_374_306" result="shape"/>
</filter>
<linearGradient id="paint0_linear_374_306" x1="41" y1="210.5" x2="367" y2="210.5" gradientUnits="userSpaceOnUse">
<stop stop-color="#7EBCEC"/>
<stop offset="1" stop-color="#3F88C0"/>
</linearGradient>
<linearGradient id="paint1_linear_374_306" x1="58" y1="447" x2="58" y2="481" gradientUnits="userSpaceOnUse">
<stop stop-color="#28B4E1"/>
<stop offset="1" stop-color="#B8E9F9"/>
</linearGradient>
<linearGradient id="paint2_linear_374_306" x1="0" y1="40" x2="702" y2="40" gradientUnits="userSpaceOnUse">
<stop stop-color="#22719C"/>
<stop offset="1" stop-color="#B8E9F9"/>
</linearGradient>
<clipPath id="clip0_374_306">
<rect width="24" height="24" fill="white" transform="translate(263 321)"/>
</clipPath>
</defs>
</svg>
