<svg width="298" height="87" viewBox="0 0 298 87" fill="none" xmlns="http://www.w3.org/2000/svg">
<rect width="298" height="87" rx="7" fill="#D1E7DD"/>
<path d="M17.9594 20.2646C17.9225 19.8922 17.764 19.6029 17.4839 19.3967C17.2039 19.1905 16.8238 19.0874 16.3437 19.0874C16.0174 19.0874 15.742 19.1335 15.5173 19.2259C15.2926 19.3151 15.1203 19.4397 15.0003 19.5998C14.8833 19.7598 14.8248 19.9414 14.8248 20.1445C14.8187 20.3138 14.8541 20.4615 14.931 20.5877C15.011 20.7139 15.1203 20.8232 15.2588 20.9155C15.3973 21.0047 15.5573 21.0832 15.7389 21.1509C15.9205 21.2156 16.1144 21.271 16.3206 21.3171L17.17 21.5202C17.5824 21.6126 17.961 21.7357 18.3057 21.8896C18.6504 22.0434 18.9489 22.2327 19.2013 22.4574C19.4536 22.6821 19.6491 22.9467 19.7876 23.2514C19.9291 23.5561 20.0015 23.9054 20.0045 24.2994C20.0015 24.878 19.8537 25.3796 19.5613 25.8043C19.272 26.226 18.8535 26.5537 18.3057 26.7876C17.7609 27.0185 17.1038 27.1339 16.3344 27.1339C15.5712 27.1339 14.9064 27.0169 14.3401 26.783C13.7769 26.5491 13.3368 26.2029 13.0198 25.7443C12.7059 25.2827 12.5412 24.7118 12.5258 24.0316H14.4601C14.4817 24.3486 14.5725 24.6133 14.7325 24.8256C14.8956 25.0349 15.1126 25.1934 15.3834 25.3011C15.6573 25.4058 15.9666 25.4581 16.3113 25.4581C16.6499 25.4581 16.9438 25.4089 17.1931 25.3104C17.4455 25.2119 17.6409 25.0749 17.7794 24.8995C17.9179 24.7241 17.9871 24.5225 17.9871 24.2947C17.9871 24.0824 17.924 23.9039 17.7979 23.7592C17.6747 23.6146 17.4932 23.4915 17.2531 23.3899C17.0161 23.2884 16.7253 23.196 16.3806 23.1129L15.3511 22.8544C14.554 22.6605 13.9246 22.3574 13.463 21.945C13.0013 21.5326 12.772 20.977 12.7751 20.2784C12.772 19.706 12.9244 19.2058 13.2322 18.7781C13.543 18.3503 13.9693 18.0163 14.5109 17.7763C15.0526 17.5362 15.6681 17.4162 16.3575 17.4162C17.0592 17.4162 17.6717 17.5362 18.1949 17.7763C18.7211 18.0163 19.1305 18.3503 19.4229 18.7781C19.7152 19.2058 19.866 19.7013 19.8753 20.2646H17.9594ZM25.8594 23.9808V19.9091H27.826V27H25.9379V25.712H25.864C25.704 26.1275 25.4377 26.4614 25.0653 26.7138C24.696 26.9661 24.2451 27.0923 23.7127 27.0923C23.2388 27.0923 22.8217 26.9846 22.4616 26.7692C22.1016 26.5537 21.82 26.2475 21.6168 25.8505C21.4168 25.4535 21.3152 24.978 21.3121 24.424V19.9091H23.2788V24.0732C23.2818 24.4917 23.3942 24.8226 23.6158 25.0657C23.8374 25.3088 24.1344 25.4304 24.5067 25.4304C24.7437 25.4304 24.9653 25.3765 25.1715 25.2688C25.3777 25.158 25.5439 24.9949 25.6701 24.7795C25.7994 24.564 25.8625 24.2978 25.8594 23.9808ZM32.6029 27.1385C31.8766 27.1385 31.2518 26.9846 30.7286 26.6768C30.2085 26.366 29.8084 25.9351 29.5283 25.3842C29.2513 24.8333 29.1128 24.1993 29.1128 23.4822C29.1128 22.7559 29.2529 22.1188 29.5329 21.571C29.8161 21.0201 30.2177 20.5908 30.7378 20.283C31.258 19.9722 31.8766 19.8168 32.5937 19.8168C33.2123 19.8168 33.7539 19.9291 34.2187 20.1538C34.6834 20.3784 35.0512 20.6939 35.322 21.1001C35.5928 21.5064 35.7421 21.9834 35.7698 22.5312H33.914C33.8617 22.1773 33.7232 21.8926 33.4985 21.6772C33.2769 21.4587 32.9861 21.3494 32.626 21.3494C32.3213 21.3494 32.0551 21.4325 31.8273 21.5987C31.6027 21.7618 31.4272 22.0004 31.301 22.3143C31.1749 22.6282 31.1118 23.0083 31.1118 23.4545C31.1118 23.907 31.1733 24.2917 31.2964 24.6087C31.4226 24.9257 31.5996 25.1673 31.8273 25.3335C32.0551 25.4996 32.3213 25.5827 32.626 25.5827C32.8506 25.5827 33.0522 25.5366 33.2307 25.4442C33.4123 25.3519 33.5616 25.218 33.6785 25.0426C33.7986 24.8641 33.877 24.6502 33.914 24.4009H35.7698C35.739 24.9426 35.5913 25.4196 35.3266 25.832C35.065 26.2414 34.7034 26.5614 34.2417 26.7923C33.7801 27.0231 33.2338 27.1385 32.6029 27.1385ZM40.2328 27.1385C39.5065 27.1385 38.8817 26.9846 38.3585 26.6768C37.8384 26.366 37.4383 25.9351 37.1582 25.3842C36.8812 24.8333 36.7427 24.1993 36.7427 23.4822C36.7427 22.7559 36.8828 22.1188 37.1628 21.571C37.446 21.0201 37.8476 20.5908 38.3677 20.283C38.8878 19.9722 39.5065 19.8168 40.2235 19.8168C40.8422 19.8168 41.3838 19.9291 41.8485 20.1538C42.3133 20.3784 42.681 20.6939 42.9519 21.1001C43.2227 21.5064 43.372 21.9834 43.3997 22.5312H41.5439C41.4915 22.1773 41.353 21.8926 41.1284 21.6772C40.9068 21.4587 40.6159 21.3494 40.2559 21.3494C39.9512 21.3494 39.685 21.4325 39.4572 21.5987C39.2325 21.7618 39.0571 22.0004 38.9309 22.3143C38.8047 22.6282 38.7417 23.0083 38.7417 23.4545C38.7417 23.907 38.8032 24.2917 38.9263 24.6087C39.0525 24.9257 39.2295 25.1673 39.4572 25.3335C39.685 25.4996 39.9512 25.5827 40.2559 25.5827C40.4805 25.5827 40.6821 25.5366 40.8606 25.4442C41.0422 25.3519 41.1915 25.218 41.3084 25.0426C41.4284 24.8641 41.5069 24.6502 41.5439 24.4009H43.3997C43.3689 24.9426 43.2212 25.4196 42.9565 25.832C42.6949 26.2414 42.3333 26.5614 41.8716 26.7923C41.41 27.0231 40.8637 27.1385 40.2328 27.1385ZM47.8904 27.1385C47.161 27.1385 46.5331 26.9908 46.0068 26.6953C45.4836 26.3968 45.0805 25.9751 44.7973 25.4304C44.5142 24.8826 44.3726 24.2347 44.3726 23.4869C44.3726 22.7575 44.5142 22.1173 44.7973 21.5664C45.0805 21.0155 45.479 20.5862 45.993 20.2784C46.51 19.9706 47.1163 19.8168 47.8119 19.8168C48.2797 19.8168 48.7152 19.8922 49.1183 20.043C49.5246 20.1907 49.8785 20.4138 50.1801 20.7124C50.4848 21.0109 50.7218 21.3864 50.8911 21.8388C51.0603 22.2881 51.145 22.8144 51.145 23.4176V23.9577H45.1574V22.739H49.2938C49.2938 22.4558 49.2322 22.205 49.1091 21.9865C48.986 21.768 48.8152 21.5972 48.5967 21.4741C48.3812 21.3479 48.1304 21.2848 47.8442 21.2848C47.5457 21.2848 47.281 21.354 47.0502 21.4925C46.8224 21.628 46.6439 21.8111 46.5146 22.0419C46.3854 22.2696 46.3192 22.5236 46.3161 22.8036V23.9624C46.3161 24.3132 46.3808 24.6164 46.51 24.8718C46.6424 25.1272 46.8286 25.3242 47.0686 25.4627C47.3087 25.6012 47.5934 25.6705 47.9227 25.6705C48.1412 25.6705 48.3412 25.6397 48.5228 25.5781C48.7044 25.5166 48.8598 25.4242 48.9891 25.3011C49.1183 25.178 49.2168 25.0272 49.2845 24.8487L51.1034 24.9688C51.0111 25.4058 50.8218 25.7874 50.5356 26.1136C50.2525 26.4368 49.8862 26.6892 49.4369 26.8707C48.9906 27.0492 48.4751 27.1385 47.8904 27.1385ZM58.3282 21.9311L56.5278 22.0419C56.497 21.888 56.4308 21.7495 56.3293 21.6264C56.2277 21.5002 56.0938 21.4002 55.9276 21.3263C55.7645 21.2494 55.5691 21.2109 55.3414 21.2109C55.0367 21.2109 54.7797 21.2756 54.5704 21.4048C54.3611 21.531 54.2565 21.7003 54.2565 21.9126C54.2565 22.0819 54.3242 22.225 54.4596 22.342C54.595 22.4589 54.8274 22.5528 55.1567 22.6236L56.4401 22.8821C57.1295 23.0237 57.6434 23.2514 57.982 23.5653C58.3205 23.8793 58.4898 24.2917 58.4898 24.8026C58.4898 25.2673 58.3528 25.6751 58.0789 26.0259C57.8081 26.3768 57.4357 26.6507 56.9617 26.8477C56.4909 27.0415 55.9477 27.1385 55.3321 27.1385C54.3934 27.1385 53.6456 26.9431 53.0885 26.5522C52.5345 26.1583 52.2098 25.6228 52.1144 24.9457L54.0487 24.8441C54.1072 25.1303 54.2488 25.3488 54.4735 25.4996C54.6981 25.6474 54.9859 25.7212 55.3367 25.7212C55.6814 25.7212 55.9584 25.6551 56.1677 25.5227C56.3801 25.3873 56.4878 25.2134 56.4909 25.0011C56.4878 24.8226 56.4124 24.6764 56.2646 24.5625C56.1169 24.4455 55.8892 24.3563 55.5814 24.2947L54.3534 24.0501C53.661 23.9116 53.1454 23.6715 52.8069 23.3299C52.4714 22.9883 52.3037 22.5528 52.3037 22.0234C52.3037 21.5679 52.4268 21.1755 52.673 20.8462C52.9223 20.5169 53.2716 20.263 53.721 20.0845C54.1734 19.906 54.7027 19.8168 55.309 19.8168C56.2046 19.8168 56.9094 20.006 57.4234 20.3846C57.9404 20.7631 58.242 21.2786 58.3282 21.9311ZM65.628 21.9311L63.8276 22.0419C63.7968 21.888 63.7306 21.7495 63.6291 21.6264C63.5275 21.5002 63.3936 21.4002 63.2275 21.3263C63.0643 21.2494 62.8689 21.2109 62.6412 21.2109C62.3365 21.2109 62.0795 21.2756 61.8702 21.4048C61.6609 21.531 61.5563 21.7003 61.5563 21.9126C61.5563 22.0819 61.624 22.225 61.7594 22.342C61.8948 22.4589 62.1272 22.5528 62.4565 22.6236L63.7399 22.8821C64.4293 23.0237 64.9432 23.2514 65.2818 23.5653C65.6203 23.8793 65.7896 24.2917 65.7896 24.8026C65.7896 25.2673 65.6526 25.6751 65.3787 26.0259C65.1079 26.3768 64.7355 26.6507 64.2615 26.8477C63.7907 27.0415 63.2475 27.1385 62.6319 27.1385C61.6932 27.1385 60.9454 26.9431 60.3883 26.5522C59.8343 26.1583 59.5096 25.6228 59.4142 24.9457L61.3485 24.8441C61.407 25.1303 61.5486 25.3488 61.7733 25.4996C61.9979 25.6474 62.2857 25.7212 62.6365 25.7212C62.9812 25.7212 63.2582 25.6551 63.4675 25.5227C63.6799 25.3873 63.7876 25.2134 63.7907 25.0011C63.7876 24.8226 63.7122 24.6764 63.5645 24.5625C63.4167 24.4455 63.189 24.3563 62.8812 24.2947L61.6532 24.0501C60.9608 23.9116 60.4453 23.6715 60.1067 23.3299C59.7712 22.9883 59.6035 22.5528 59.6035 22.0234C59.6035 21.5679 59.7266 21.1755 59.9728 20.8462C60.2221 20.5169 60.5714 20.263 61.0208 20.0845C61.4732 19.906 62.0025 19.8168 62.6088 19.8168C63.5044 19.8168 64.2092 20.006 64.7232 20.3846C65.2402 20.7631 65.5418 21.2786 65.628 21.9311ZM72.3865 17.5455L72.2065 24.1655H70.5169L70.3322 17.5455H72.3865ZM71.3617 27.12C71.057 27.12 70.7954 27.0123 70.5769 26.7969C70.3584 26.5784 70.2507 26.3168 70.2537 26.0121C70.2507 25.7105 70.3584 25.4519 70.5769 25.2365C70.7954 25.0211 71.057 24.9134 71.3617 24.9134C71.6541 24.9134 71.911 25.0211 72.1326 25.2365C72.3542 25.4519 72.4666 25.7105 72.4696 26.0121C72.4666 26.2152 72.4127 26.4014 72.3081 26.5707C72.2065 26.7369 72.0726 26.8707 71.9064 26.9723C71.7402 27.0708 71.5587 27.12 71.3617 27.12Z" fill="#1C8956"/>
<path d="M0 43.5H297.5" stroke="#198754"/>
<path d="M12.3324 62.5455H13.6435L16.2656 66.9588H16.3764L18.9986 62.5455H20.3097L16.8935 68.1037V72H15.7486V68.1037L12.3324 62.5455ZM23.5204 72.1477C22.8803 72.1477 22.3186 71.9954 21.8354 71.6907C21.3553 71.386 20.9798 70.9598 20.709 70.4119C20.4412 69.8641 20.3074 69.224 20.3074 68.4915C20.3074 67.7528 20.4412 67.1081 20.709 66.5572C20.9798 66.0063 21.3553 65.5785 21.8354 65.2738C22.3186 64.9691 22.8803 64.8168 23.5204 64.8168C24.1606 64.8168 24.7207 64.9691 25.2008 65.2738C25.684 65.5785 26.0595 66.0063 26.3272 66.5572C26.5981 67.1081 26.7335 67.7528 26.7335 68.4915C26.7335 69.224 26.5981 69.8641 26.3272 70.4119C26.0595 70.9598 25.684 71.386 25.2008 71.6907C24.7207 71.9954 24.1606 72.1477 23.5204 72.1477ZM23.5204 71.169C24.0067 71.169 24.4068 71.0444 24.7207 70.7951C25.0346 70.5458 25.267 70.218 25.4178 69.8118C25.5686 69.4055 25.644 68.9654 25.644 68.4915C25.644 68.0175 25.5686 67.5759 25.4178 67.1665C25.267 66.7572 25.0346 66.4264 24.7207 66.174C24.4068 65.9216 24.0067 65.7955 23.5204 65.7955C23.0342 65.7955 22.6341 65.9216 22.3201 66.174C22.0062 66.4264 21.7739 66.7572 21.623 67.1665C21.4722 67.5759 21.3968 68.0175 21.3968 68.4915C21.3968 68.9654 21.4722 69.4055 21.623 69.8118C21.7739 70.218 22.0062 70.5458 22.3201 70.7951C22.6341 71.0444 23.0342 71.169 23.5204 71.169ZM32.8653 69.1009V64.9091H33.9548V72H32.8653V70.7997H32.7915C32.6253 71.1598 32.3667 71.466 32.0159 71.7184C31.665 71.9677 31.2219 72.0923 30.6863 72.0923C30.2432 72.0923 29.8492 71.9954 29.5045 71.8015C29.1598 71.6045 28.889 71.3091 28.692 70.9151C28.4951 70.5181 28.3966 70.018 28.3966 69.4148V64.9091H29.4861V69.3409C29.4861 69.858 29.6307 70.2704 29.92 70.5781C30.2124 70.8859 30.5848 71.0398 31.0372 71.0398C31.308 71.0398 31.5835 70.9705 31.8635 70.832C32.1467 70.6935 32.3837 70.4812 32.5745 70.195C32.7684 69.9087 32.8653 69.544 32.8653 69.1009ZM35.9503 72V64.9091H37.0028V65.9801H37.0767C37.206 65.6293 37.4399 65.3446 37.7784 65.1261C38.117 64.9076 38.4986 64.7983 38.9233 64.7983C39.0033 64.7983 39.1033 64.7998 39.2234 64.8029C39.3434 64.806 39.4342 64.8106 39.4957 64.8168V65.9247C39.4588 65.9155 39.3742 65.9016 39.2418 65.8832C39.1126 65.8616 38.9756 65.8509 38.831 65.8509C38.4863 65.8509 38.1785 65.9232 37.9077 66.0678C37.6399 66.2094 37.4276 66.4064 37.2706 66.6587C37.1167 66.908 37.0398 67.1927 37.0398 67.5128V72H35.9503ZM45.5329 67.7344V72H44.4434V64.9091H45.496V66.017H45.5883C45.7545 65.657 46.0069 65.3677 46.3454 65.1491C46.684 64.9276 47.121 64.8168 47.6565 64.8168C48.1366 64.8168 48.5567 64.9152 48.9168 65.1122C49.2769 65.3061 49.557 65.6016 49.757 65.9986C49.9571 66.3925 50.0571 66.8911 50.0571 67.4943V72H48.9676V67.5682C48.9676 67.0111 48.8229 66.5772 48.5336 66.2663C48.2443 65.9524 47.8473 65.7955 47.3426 65.7955C46.9948 65.7955 46.684 65.8709 46.4101 66.0217C46.1392 66.1725 45.9253 66.3925 45.7684 66.6818C45.6114 66.9711 45.5329 67.322 45.5329 67.7344ZM55.021 72.1477C54.3377 72.1477 53.7483 71.9969 53.2528 71.6953C52.7604 71.3906 52.3803 70.9659 52.1126 70.4212C51.8479 69.8733 51.7156 69.2363 51.7156 68.5099C51.7156 67.7836 51.8479 67.1435 52.1126 66.5895C52.3803 66.0324 52.7527 65.5985 53.2298 65.2876C53.7099 64.9737 54.27 64.8168 54.9102 64.8168C55.2795 64.8168 55.6442 64.8783 56.0043 65.0014C56.3643 65.1245 56.6921 65.3246 56.9876 65.6016C57.283 65.8755 57.5185 66.2386 57.6939 66.6911C57.8693 67.1435 57.957 67.7005 57.957 68.3622V68.8239H52.4911V67.8821H56.8491C56.8491 67.482 56.7691 67.125 56.609 66.8111C56.4521 66.4972 56.2274 66.2494 55.935 66.0678C55.6457 65.8862 55.3041 65.7955 54.9102 65.7955C54.4762 65.7955 54.1007 65.9032 53.7837 66.1186C53.4698 66.331 53.2282 66.608 53.0589 66.9496C52.8897 67.2912 52.805 67.6574 52.805 68.0483V68.6761C52.805 69.2116 52.8974 69.6656 53.082 70.038C53.2698 70.4073 53.5298 70.6889 53.8622 70.8828C54.1946 71.0736 54.5808 71.169 55.021 71.169C55.3072 71.169 55.5657 71.129 55.7965 71.049C56.0304 70.9659 56.232 70.8428 56.4013 70.6797C56.5705 70.5135 56.7013 70.3073 56.7937 70.0611L57.8462 70.3565C57.7354 70.7135 57.5492 71.0275 57.2876 71.2983C57.026 71.5661 56.7029 71.7753 56.3182 71.9261C55.9335 72.0739 55.5011 72.1477 55.021 72.1477ZM61.2209 72L59.0604 64.9091H60.2053L61.7379 70.3381H61.8118L63.326 64.9091H64.4893L65.9851 70.3196H66.0589L67.5916 64.9091H68.7365L66.576 72H65.505L63.9538 66.5526H63.843L62.2919 72H61.2209ZM75.9197 72.1662C75.4704 72.1662 75.0626 72.0816 74.6964 71.9123C74.3301 71.7399 74.0393 71.4922 73.8239 71.169C73.6084 70.8428 73.5007 70.4489 73.5007 69.9872C73.5007 69.581 73.5807 69.2517 73.7408 68.9993C73.9008 68.7438 74.1147 68.5438 74.3825 68.3991C74.6502 68.2545 74.9457 68.1468 75.2688 68.076C75.5951 68.0021 75.9228 67.9437 76.2521 67.9006C76.683 67.8452 77.0323 67.8036 77.3001 67.7759C77.5709 67.7451 77.7679 67.6944 77.891 67.6236C78.0172 67.5528 78.0803 67.4297 78.0803 67.2543V67.2173C78.0803 66.7618 77.9556 66.4079 77.7063 66.1555C77.4601 65.9032 77.0862 65.777 76.5845 65.777C76.0644 65.777 75.6566 65.8909 75.3612 66.1186C75.0657 66.3464 74.858 66.5895 74.7379 66.848L73.7038 66.4787C73.8885 66.0478 74.1347 65.7124 74.4425 65.4723C74.7533 65.2292 75.0919 65.0599 75.4581 64.9645C75.8274 64.866 76.1906 64.8168 76.5476 64.8168C76.7753 64.8168 77.0369 64.8445 77.3324 64.8999C77.6309 64.9522 77.9187 65.0614 78.1957 65.2276C78.4757 65.3938 78.7081 65.6446 78.8928 65.9801C79.0774 66.3156 79.1697 66.7649 79.1697 67.3281V72H78.0803V71.0398H78.0249C77.951 71.1937 77.8279 71.3583 77.6555 71.5337C77.4832 71.7092 77.2539 71.8584 76.9677 71.9815C76.6815 72.1046 76.3321 72.1662 75.9197 72.1662ZM76.0859 71.1875C76.5168 71.1875 76.88 71.1029 77.1754 70.9336C77.474 70.7643 77.6986 70.5458 77.8494 70.2781C78.0033 70.0103 78.0803 69.7287 78.0803 69.4332V68.4361C78.0341 68.4915 77.9325 68.5423 77.7756 68.5884C77.6217 68.6315 77.4432 68.67 77.2401 68.7038C77.04 68.7346 76.8446 68.7623 76.6538 68.7869C76.466 68.8085 76.3137 68.8269 76.1967 68.8423C75.9136 68.8793 75.6489 68.9393 75.4027 69.0224C75.1596 69.1024 74.9626 69.224 74.8118 69.3871C74.6641 69.5471 74.5902 69.7656 74.5902 70.0426C74.5902 70.4212 74.7302 70.7074 75.0103 70.9013C75.2934 71.0921 75.652 71.1875 76.0859 71.1875ZM83.8358 72.1477C83.2449 72.1477 82.7233 71.9985 82.2709 71.6999C81.8184 71.3983 81.4645 70.9736 81.2091 70.4258C80.9536 69.8749 80.8259 69.224 80.8259 68.473C80.8259 67.7282 80.9536 67.0819 81.2091 66.5341C81.4645 65.9863 81.82 65.5631 82.2755 65.2646C82.731 64.966 83.2573 64.8168 83.8543 64.8168C84.316 64.8168 84.6807 64.8937 84.9484 65.0476C85.2193 65.1984 85.4255 65.3707 85.567 65.5646C85.7117 65.7554 85.824 65.9124 85.904 66.0355H85.9964V62.5455H87.0858V72H86.0333V70.9105H85.904C85.824 71.0398 85.7101 71.2029 85.5624 71.3999C85.4147 71.5937 85.2039 71.7676 84.93 71.9215C84.656 72.0723 84.2913 72.1477 83.8358 72.1477ZM83.9836 71.169C84.4206 71.169 84.7899 71.0552 85.0915 70.8274C85.3931 70.5966 85.6224 70.2781 85.7794 69.8718C85.9363 69.4625 86.0148 68.9901 86.0148 68.4545C86.0148 67.9252 85.9379 67.462 85.784 67.065C85.6301 66.6649 85.4024 66.354 85.1008 66.1325C84.7992 65.9078 84.4268 65.7955 83.9836 65.7955C83.5219 65.7955 83.1372 65.9139 82.8295 66.1509C82.5248 66.3848 82.2955 66.7034 82.1416 67.1065C81.9908 67.5066 81.9154 67.956 81.9154 68.4545C81.9154 68.9593 81.9923 69.4179 82.1462 69.8303C82.3032 70.2396 82.534 70.5658 82.8387 70.8089C83.1465 71.049 83.5281 71.169 83.9836 71.169ZM91.9101 72.1477C91.3192 72.1477 90.7975 71.9985 90.3451 71.6999C89.8927 71.3983 89.5387 70.9736 89.2833 70.4258C89.0278 69.8749 88.9001 69.224 88.9001 68.473C88.9001 67.7282 89.0278 67.0819 89.2833 66.5341C89.5387 65.9863 89.8942 65.5631 90.3497 65.2646C90.8052 64.966 91.3315 64.8168 91.9285 64.8168C92.3902 64.8168 92.7549 64.8937 93.0226 65.0476C93.2935 65.1984 93.4997 65.3707 93.6412 65.5646C93.7859 65.7554 93.8982 65.9124 93.9782 66.0355H94.0706V62.5455H95.1601V72H94.1075V70.9105H93.9782C93.8982 71.0398 93.7844 71.2029 93.6366 71.3999C93.4889 71.5937 93.2781 71.7676 93.0042 71.9215C92.7303 72.0723 92.3656 72.1477 91.9101 72.1477ZM92.0578 71.169C92.4948 71.169 92.8641 71.0552 93.1657 70.8274C93.4674 70.5966 93.6966 70.2781 93.8536 69.8718C94.0106 69.4625 94.089 68.9901 94.089 68.4545C94.089 67.9252 94.0121 67.462 93.8582 67.065C93.7043 66.6649 93.4766 66.354 93.175 66.1325C92.8734 65.9078 92.501 65.7955 92.0578 65.7955C91.5961 65.7955 91.2114 65.9139 90.9037 66.1509C90.599 66.3848 90.3697 66.7034 90.2158 67.1065C90.065 67.5066 89.9896 67.956 89.9896 68.4545C89.9896 68.9593 90.0666 69.4179 90.2204 69.8303C90.3774 70.2396 90.6082 70.5658 90.9129 70.8089C91.2207 71.049 91.6023 71.169 92.0578 71.169ZM97.3067 72V64.9091H98.3962V72H97.3067ZM97.8607 63.7273C97.6483 63.7273 97.4652 63.6549 97.3113 63.5103C97.1605 63.3656 97.0851 63.1918 97.0851 62.9886C97.0851 62.7855 97.1605 62.6116 97.3113 62.467C97.4652 62.3223 97.6483 62.25 97.8607 62.25C98.0731 62.25 98.2546 62.3223 98.4055 62.467C98.5593 62.6116 98.6363 62.7855 98.6363 62.9886C98.6363 63.1918 98.5593 63.3656 98.4055 63.5103C98.2546 63.6549 98.0731 63.7273 97.8607 63.7273ZM103.475 64.9091V65.8324H99.8008V64.9091H103.475ZM100.872 63.2102H101.961V69.9688C101.961 70.2765 102.006 70.5073 102.095 70.6612C102.188 70.812 102.304 70.9136 102.446 70.9659C102.591 71.0152 102.743 71.0398 102.903 71.0398C103.023 71.0398 103.122 71.0336 103.199 71.0213C103.275 71.0059 103.337 70.9936 103.383 70.9844L103.605 71.9631C103.531 71.9908 103.428 72.0185 103.295 72.0462C103.163 72.0769 102.995 72.0923 102.792 72.0923C102.484 72.0923 102.183 72.0262 101.887 71.8938C101.595 71.7615 101.352 71.5599 101.158 71.2891C100.967 71.0182 100.872 70.6766 100.872 70.2642V63.2102ZM105.114 72V64.9091H106.204V72H105.114ZM105.668 63.7273C105.456 63.7273 105.273 63.6549 105.119 63.5103C104.968 63.3656 104.893 63.1918 104.893 62.9886C104.893 62.7855 104.968 62.6116 105.119 62.467C105.273 62.3223 105.456 62.25 105.668 62.25C105.881 62.25 106.062 62.3223 106.213 62.467C106.367 62.6116 106.444 62.7855 106.444 62.9886C106.444 63.1918 106.367 63.3656 106.213 63.5103C106.062 63.6549 105.881 63.7273 105.668 63.7273ZM111.08 72.1477C110.44 72.1477 109.878 71.9954 109.395 71.6907C108.915 71.386 108.539 70.9598 108.269 70.4119C108.001 69.8641 107.867 69.224 107.867 68.4915C107.867 67.7528 108.001 67.1081 108.269 66.5572C108.539 66.0063 108.915 65.5785 109.395 65.2738C109.878 64.9691 110.44 64.8168 111.08 64.8168C111.72 64.8168 112.28 64.9691 112.76 65.2738C113.244 65.5785 113.619 66.0063 113.887 66.5572C114.158 67.1081 114.293 67.7528 114.293 68.4915C114.293 69.224 114.158 69.8641 113.887 70.4119C113.619 70.9598 113.244 71.386 112.76 71.6907C112.28 71.9954 111.72 72.1477 111.08 72.1477ZM111.08 71.169C111.566 71.169 111.966 71.0444 112.28 70.7951C112.594 70.5458 112.827 70.218 112.977 69.8118C113.128 69.4055 113.204 68.9654 113.204 68.4915C113.204 68.0175 113.128 67.5759 112.977 67.1665C112.827 66.7572 112.594 66.4264 112.28 66.174C111.966 65.9216 111.566 65.7955 111.08 65.7955C110.594 65.7955 110.194 65.9216 109.88 66.174C109.566 66.4264 109.333 66.7572 109.183 67.1665C109.032 67.5759 108.956 68.0175 108.956 68.4915C108.956 68.9654 109.032 69.4055 109.183 69.8118C109.333 70.218 109.566 70.5458 109.88 70.7951C110.194 71.0444 110.594 71.169 111.08 71.169ZM117.046 67.7344V72H115.956V64.9091H117.009V66.017H117.101C117.267 65.657 117.52 65.3677 117.858 65.1491C118.197 64.9276 118.634 64.8168 119.169 64.8168C119.649 64.8168 120.069 64.9152 120.43 65.1122C120.79 65.3061 121.07 65.6016 121.27 65.9986C121.47 66.3925 121.57 66.8911 121.57 67.4943V72H120.48V67.5682C120.48 67.0111 120.336 66.5772 120.046 66.2663C119.757 65.9524 119.36 65.7955 118.855 65.7955C118.508 65.7955 118.197 65.8709 117.923 66.0217C117.652 66.1725 117.438 66.3925 117.281 66.6818C117.124 66.9711 117.046 67.322 117.046 67.7344ZM128.823 72L126.663 64.9091H127.808L129.34 70.3381H129.414L130.929 64.9091H132.092L133.588 70.3196H133.661L135.194 64.9091H136.339L134.179 72H133.108L131.556 66.5526H131.446L129.894 72H128.823ZM140.511 72.1477C139.828 72.1477 139.239 71.9969 138.743 71.6953C138.251 71.3906 137.871 70.9659 137.603 70.4212C137.338 69.8733 137.206 69.2363 137.206 68.5099C137.206 67.7836 137.338 67.1435 137.603 66.5895C137.871 66.0324 138.243 65.5985 138.72 65.2876C139.2 64.9737 139.76 64.8168 140.4 64.8168C140.77 64.8168 141.134 64.8783 141.494 65.0014C141.855 65.1245 142.182 65.3246 142.478 65.6016C142.773 65.8755 143.009 66.2386 143.184 66.6911C143.36 67.1435 143.447 67.7005 143.447 68.3622V68.8239H137.981V67.8821H142.339C142.339 67.482 142.259 67.125 142.099 66.8111C141.942 66.4972 141.718 66.2494 141.425 66.0678C141.136 65.8862 140.794 65.7955 140.4 65.7955C139.966 65.7955 139.591 65.9032 139.274 66.1186C138.96 66.331 138.718 66.608 138.549 66.9496C138.38 67.2912 138.295 67.6574 138.295 68.0483V68.6761C138.295 69.2116 138.388 69.6656 138.572 70.038C138.76 70.4073 139.02 70.6889 139.352 70.8828C139.685 71.0736 140.071 71.169 140.511 71.169C140.797 71.169 141.056 71.129 141.287 71.049C141.521 70.9659 141.722 70.8428 141.892 70.6797C142.061 70.5135 142.192 70.3073 142.284 70.0611L143.336 70.3565C143.226 70.7135 143.039 71.0275 142.778 71.2983C142.516 71.5661 142.193 71.7753 141.808 71.9261C141.424 72.0739 140.991 72.1477 140.511 72.1477ZM146.194 67.7344V72H145.105V64.9091H146.157V66.017H146.249C146.416 65.657 146.668 65.3677 147.007 65.1491C147.345 64.9276 147.782 64.8168 148.318 64.8168C148.798 64.8168 149.218 64.9152 149.578 65.1122C149.938 65.3061 150.218 65.6016 150.418 65.9986C150.618 66.3925 150.718 66.8911 150.718 67.4943V72H149.629V67.5682C149.629 67.0111 149.484 66.5772 149.195 66.2663C148.905 65.9524 148.508 65.7955 148.004 65.7955C147.656 65.7955 147.345 65.8709 147.071 66.0217C146.8 66.1725 146.586 66.3925 146.43 66.6818C146.273 66.9711 146.194 67.322 146.194 67.7344ZM155.793 64.9091V65.8324H152.118V64.9091H155.793ZM153.189 63.2102H154.279V69.9688C154.279 70.2765 154.323 70.5073 154.413 70.6612C154.505 70.812 154.622 70.9136 154.763 70.9659C154.908 71.0152 155.06 71.0398 155.22 71.0398C155.34 71.0398 155.439 71.0336 155.516 71.0213C155.593 71.0059 155.654 70.9936 155.701 70.9844L155.922 71.9631C155.848 71.9908 155.745 72.0185 155.613 72.0462C155.48 72.0769 155.313 72.0923 155.11 72.0923C154.802 72.0923 154.5 72.0262 154.205 71.8938C153.912 71.7615 153.669 71.5599 153.475 71.2891C153.285 71.0182 153.189 70.6766 153.189 70.2642V63.2102ZM166.111 66.4972L165.132 66.7741C165.07 66.611 164.98 66.4525 164.86 66.2987C164.743 66.1417 164.583 66.0124 164.38 65.9109C164.176 65.8093 163.916 65.7585 163.599 65.7585C163.165 65.7585 162.804 65.8585 162.514 66.0586C162.228 66.2556 162.085 66.5064 162.085 66.8111C162.085 67.0819 162.184 67.2958 162.381 67.4528C162.578 67.6097 162.885 67.7405 163.304 67.8452L164.356 68.1037C164.99 68.2576 165.463 68.493 165.774 68.81C166.085 69.1239 166.24 69.5286 166.24 70.0241C166.24 70.4304 166.123 70.7936 165.889 71.1136C165.658 71.4337 165.335 71.6861 164.92 71.8707C164.504 72.0554 164.021 72.1477 163.47 72.1477C162.747 72.1477 162.148 71.9908 161.674 71.6768C161.2 71.3629 160.9 70.9044 160.774 70.3011L161.808 70.0426C161.907 70.4242 162.093 70.7105 162.367 70.9013C162.644 71.0921 163.005 71.1875 163.452 71.1875C163.959 71.1875 164.363 71.0798 164.661 70.8643C164.963 70.6458 165.114 70.3842 165.114 70.0795C165.114 69.8333 165.027 69.6271 164.855 69.4609C164.683 69.2917 164.418 69.1655 164.061 69.0824L162.879 68.8054C162.23 68.6515 161.753 68.413 161.448 68.0898C161.146 67.7636 160.996 67.3558 160.996 66.8665C160.996 66.4664 161.108 66.1125 161.333 65.8047C161.56 65.4969 161.87 65.2553 162.261 65.0799C162.655 64.9045 163.101 64.8168 163.599 64.8168C164.301 64.8168 164.852 64.9706 165.252 65.2784C165.655 65.5862 165.941 65.9924 166.111 66.4972ZM172.349 69.1009V64.9091H173.438V72H172.349V70.7997H172.275C172.109 71.1598 171.85 71.466 171.499 71.7184C171.148 71.9677 170.705 72.0923 170.17 72.0923C169.727 72.0923 169.333 71.9954 168.988 71.8015C168.643 71.6045 168.372 71.3091 168.175 70.9151C167.978 70.5181 167.88 70.018 167.88 69.4148V64.9091H168.969V69.3409C168.969 69.858 169.114 70.2704 169.403 70.5781C169.696 70.8859 170.068 71.0398 170.521 71.0398C170.791 71.0398 171.067 70.9705 171.347 70.832C171.63 70.6935 171.867 70.4812 172.058 70.195C172.252 69.9087 172.349 69.544 172.349 69.1009ZM178.314 72.1477C177.65 72.1477 177.077 71.9908 176.597 71.6768C176.117 71.3629 175.748 70.9305 175.489 70.3796C175.231 69.8287 175.101 69.1993 175.101 68.4915C175.101 67.7713 175.234 67.1358 175.498 66.5849C175.766 66.0309 176.138 65.5985 176.616 65.2876C177.096 64.9737 177.656 64.8168 178.296 64.8168C178.794 64.8168 179.244 64.9091 179.644 65.0938C180.044 65.2784 180.372 65.5369 180.627 65.8693C180.883 66.2017 181.041 66.5895 181.103 67.0327H180.013C179.93 66.7095 179.745 66.4233 179.459 66.174C179.176 65.9216 178.794 65.7955 178.314 65.7955C177.89 65.7955 177.517 65.9062 177.197 66.1278C176.88 66.3464 176.632 66.6557 176.454 67.0558C176.278 67.4528 176.191 67.919 176.191 68.4545C176.191 69.0024 176.277 69.4794 176.449 69.8857C176.625 70.2919 176.871 70.6074 177.188 70.832C177.508 71.0567 177.883 71.169 178.314 71.169C178.598 71.169 178.854 71.1198 179.085 71.0213C179.316 70.9228 179.512 70.7812 179.672 70.5966C179.832 70.4119 179.946 70.1903 180.013 69.9318H181.103C181.041 70.3504 180.889 70.7274 180.646 71.0629C180.406 71.3952 180.087 71.6599 179.69 71.8569C179.296 72.0508 178.838 72.1477 178.314 72.1477ZM185.576 72.1477C184.911 72.1477 184.339 71.9908 183.859 71.6768C183.379 71.3629 183.009 70.9305 182.751 70.3796C182.492 69.8287 182.363 69.1993 182.363 68.4915C182.363 67.7713 182.495 67.1358 182.76 66.5849C183.028 66.0309 183.4 65.5985 183.877 65.2876C184.357 64.9737 184.917 64.8168 185.558 64.8168C186.056 64.8168 186.506 64.9091 186.906 65.0938C187.306 65.2784 187.633 65.5369 187.889 65.8693C188.144 66.2017 188.303 66.5895 188.364 67.0327H187.275C187.192 66.7095 187.007 66.4233 186.721 66.174C186.438 65.9216 186.056 65.7955 185.576 65.7955C185.151 65.7955 184.779 65.9062 184.459 66.1278C184.142 66.3464 183.894 66.6557 183.716 67.0558C183.54 67.4528 183.453 67.919 183.453 68.4545C183.453 69.0024 183.539 69.4794 183.711 69.8857C183.886 70.2919 184.133 70.6074 184.45 70.832C184.77 71.0567 185.145 71.169 185.576 71.169C185.859 71.169 186.116 71.1198 186.347 71.0213C186.578 70.9228 186.773 70.7812 186.933 70.5966C187.093 70.4119 187.207 70.1903 187.275 69.9318H188.364C188.303 70.3504 188.151 70.7274 187.907 71.0629C187.667 71.3952 187.349 71.6599 186.952 71.8569C186.558 72.0508 186.099 72.1477 185.576 72.1477ZM192.93 72.1477C192.247 72.1477 191.658 71.9969 191.162 71.6953C190.67 71.3906 190.29 70.9659 190.022 70.4212C189.757 69.8733 189.625 69.2363 189.625 68.5099C189.625 67.7836 189.757 67.1435 190.022 66.5895C190.29 66.0324 190.662 65.5985 191.139 65.2876C191.619 64.9737 192.179 64.8168 192.819 64.8168C193.189 64.8168 193.553 64.8783 193.913 65.0014C194.274 65.1245 194.601 65.3246 194.897 65.6016C195.192 65.8755 195.428 66.2386 195.603 66.6911C195.778 67.1435 195.866 67.7005 195.866 68.3622V68.8239H190.4V67.8821H194.758C194.758 67.482 194.678 67.125 194.518 66.8111C194.361 66.4972 194.137 66.2494 193.844 66.0678C193.555 65.8862 193.213 65.7955 192.819 65.7955C192.385 65.7955 192.01 65.9032 191.693 66.1186C191.379 66.331 191.137 66.608 190.968 66.9496C190.799 67.2912 190.714 67.6574 190.714 68.0483V68.6761C190.714 69.2116 190.807 69.6656 190.991 70.038C191.179 70.4073 191.439 70.6889 191.771 70.8828C192.104 71.0736 192.49 71.169 192.93 71.169C193.216 71.169 193.475 71.129 193.706 71.049C193.94 70.9659 194.141 70.8428 194.31 70.6797C194.48 70.5135 194.611 70.3073 194.703 70.0611L195.755 70.3565C195.645 70.7135 195.458 71.0275 195.197 71.2983C194.935 71.5661 194.612 71.7753 194.227 71.9261C193.843 72.0739 193.41 72.1477 192.93 72.1477ZM202.546 66.4972L201.568 66.7741C201.506 66.611 201.415 66.4525 201.295 66.2987C201.178 66.1417 201.018 66.0124 200.815 65.9109C200.612 65.8093 200.352 65.7585 200.035 65.7585C199.601 65.7585 199.239 65.8585 198.95 66.0586C198.664 66.2556 198.521 66.5064 198.521 66.8111C198.521 67.0819 198.619 67.2958 198.816 67.4528C199.013 67.6097 199.321 67.7405 199.739 67.8452L200.792 68.1037C201.426 68.2576 201.898 68.493 202.209 68.81C202.52 69.1239 202.676 69.5286 202.676 70.0241C202.676 70.4304 202.559 70.7936 202.325 71.1136C202.094 71.4337 201.771 71.6861 201.355 71.8707C200.94 72.0554 200.457 72.1477 199.906 72.1477C199.182 72.1477 198.584 71.9908 198.11 71.6768C197.636 71.3629 197.336 70.9044 197.21 70.3011L198.244 70.0426C198.342 70.4242 198.528 70.7105 198.802 70.9013C199.079 71.0921 199.441 71.1875 199.887 71.1875C200.395 71.1875 200.798 71.0798 201.097 70.8643C201.398 70.6458 201.549 70.3842 201.549 70.0795C201.549 69.8333 201.463 69.6271 201.291 69.4609C201.118 69.2917 200.854 69.1655 200.497 69.0824L199.315 68.8054C198.665 68.6515 198.188 68.413 197.884 68.0898C197.582 67.7636 197.431 67.3558 197.431 66.8665C197.431 66.4664 197.544 66.1125 197.768 65.8047C197.996 65.4969 198.305 65.2553 198.696 65.0799C199.09 64.9045 199.536 64.8168 200.035 64.8168C200.737 64.8168 201.287 64.9706 201.688 65.2784C202.091 65.5862 202.377 65.9924 202.546 66.4972ZM209.338 66.4972L208.36 66.7741C208.298 66.611 208.207 66.4525 208.087 66.2987C207.97 66.1417 207.81 66.0124 207.607 65.9109C207.404 65.8093 207.144 65.7585 206.827 65.7585C206.393 65.7585 206.031 65.8585 205.742 66.0586C205.456 66.2556 205.313 66.5064 205.313 66.8111C205.313 67.0819 205.411 67.2958 205.608 67.4528C205.805 67.6097 206.113 67.7405 206.531 67.8452L207.584 68.1037C208.218 68.2576 208.69 68.493 209.001 68.81C209.312 69.1239 209.468 69.5286 209.468 70.0241C209.468 70.4304 209.351 70.7936 209.117 71.1136C208.886 71.4337 208.563 71.6861 208.147 71.8707C207.732 72.0554 207.249 72.1477 206.698 72.1477C205.974 72.1477 205.376 71.9908 204.902 71.6768C204.428 71.3629 204.128 70.9044 204.002 70.3011L205.036 70.0426C205.134 70.4242 205.32 70.7105 205.594 70.9013C205.871 71.0921 206.233 71.1875 206.679 71.1875C207.187 71.1875 207.59 71.0798 207.889 70.8643C208.19 70.6458 208.341 70.3842 208.341 70.0795C208.341 69.8333 208.255 69.6271 208.083 69.4609C207.91 69.2917 207.646 69.1655 207.289 69.0824L206.107 68.8054C205.457 68.6515 204.98 68.413 204.676 68.0898C204.374 67.7636 204.223 67.3558 204.223 66.8665C204.223 66.4664 204.336 66.1125 204.56 65.8047C204.788 65.4969 205.097 65.2553 205.488 65.0799C205.882 64.9045 206.328 64.8168 206.827 64.8168C207.529 64.8168 208.079 64.9706 208.48 65.2784C208.883 65.5862 209.169 65.9924 209.338 66.4972ZM214.265 64.9091V65.8324H210.443V64.9091H214.265ZM211.588 72V63.9304C211.588 63.5241 211.683 63.1856 211.874 62.9148C212.065 62.6439 212.312 62.4408 212.617 62.3054C212.922 62.17 213.243 62.1023 213.582 62.1023C213.85 62.1023 214.068 62.1238 214.237 62.1669C214.407 62.21 214.533 62.25 214.616 62.2869L214.302 63.2287C214.247 63.2102 214.17 63.1871 214.071 63.1594C213.976 63.1317 213.85 63.1179 213.693 63.1179C213.333 63.1179 213.073 63.2087 212.913 63.3903C212.756 63.5719 212.677 63.8381 212.677 64.1889V72H211.588ZM220.261 69.1009V64.9091H221.35V72H220.261V70.7997H220.187C220.021 71.1598 219.762 71.466 219.411 71.7184C219.061 71.9677 218.617 72.0923 218.082 72.0923C217.639 72.0923 217.245 71.9954 216.9 71.8015C216.555 71.6045 216.285 71.3091 216.088 70.9151C215.891 70.5181 215.792 70.018 215.792 69.4148V64.9091H216.882V69.3409C216.882 69.858 217.026 70.2704 217.316 70.5781C217.608 70.8859 217.98 71.0398 218.433 71.0398C218.704 71.0398 218.979 70.9705 219.259 70.832C219.542 70.6935 219.779 70.4812 219.97 70.195C220.164 69.9087 220.261 69.544 220.261 69.1009ZM224.435 62.5455V72H223.346V62.5455H224.435ZM227.52 62.5455V72H226.431V62.5455H227.52ZM230.217 74.6591C230.033 74.6591 229.868 74.6437 229.723 74.6129C229.579 74.5852 229.479 74.5575 229.423 74.5298L229.7 73.5696C229.965 73.6373 230.199 73.6619 230.402 73.6435C230.605 73.625 230.785 73.5342 230.942 73.3711C231.102 73.2111 231.248 72.951 231.381 72.5909L231.584 72.0369L228.962 64.9091H230.144L232.101 70.5597H232.175L234.132 64.9091H235.314L232.304 73.0341C232.169 73.4003 232.001 73.7035 231.801 73.9435C231.601 74.1867 231.368 74.3667 231.104 74.4837C230.842 74.6006 230.547 74.6591 230.217 74.6591ZM237.102 72.0739C236.874 72.0739 236.679 71.9923 236.515 71.8292C236.352 71.6661 236.271 71.4706 236.271 71.2429C236.271 71.0152 236.352 70.8197 236.515 70.6566C236.679 70.4935 236.874 70.4119 237.102 70.4119C237.329 70.4119 237.525 70.4935 237.688 70.6566C237.851 70.8197 237.933 71.0152 237.933 71.2429C237.933 71.3937 237.894 71.5322 237.817 71.6584C237.743 71.7846 237.643 71.8861 237.517 71.9631C237.394 72.0369 237.256 72.0739 237.102 72.0739Z" fill="#62AE8A"/>
</svg>
