<svg width="384" height="1080" viewBox="0 0 384 1080" fill="none" xmlns="http://www.w3.org/2000/svg">
<rect width="384" height="1080" fill="white"/>
<rect x="107.86" y="32.1797" width="6.58129" height="35.5988" fill="black"/>
<rect x="173.075" y="32.1797" width="6.58129" height="35.5988" fill="black"/>
<rect x="192.52" y="32.1797" width="6.58129" height="35.5988" fill="black"/>
<rect x="182.348" y="32.1797" width="27.2226" height="6.28214" fill="black"/>
<rect x="79.1421" y="32.1797" width="5.98299" height="35.5988" fill="black"/>
<path fill-rule="evenodd" clip-rule="evenodd" d="M87.2129 57.9065H92.0052C99.1095 57.9065 104.869 52.1474 104.869 45.0431C104.869 37.9388 99.1095 32.1797 92.0052 32.1797H84.8252V38.233H91.9846C95.7457 38.233 98.7947 41.2819 98.7947 45.043C98.7947 48.8041 95.7457 51.8531 91.9846 51.8531H89.6553L87.2129 57.9065Z" fill="black"/>
<path fill-rule="evenodd" clip-rule="evenodd" d="M153.032 67.7782V67.7785H146.75V42.0516H153.032V44.316C154.931 42.7163 157.384 41.7524 160.061 41.7524C166.092 41.7524 170.98 46.641 170.98 52.6714V67.7782H164.651C164.682 67.5334 164.698 67.2838 164.698 67.0304V53.8678C164.698 50.6461 162.086 48.0344 158.865 48.0344C155.667 48.0344 153.07 50.6072 153.032 53.7957V67.1026C153.034 67.3312 153.05 67.5566 153.079 67.7782H153.032Z" fill="black"/>
<path fill-rule="evenodd" clip-rule="evenodd" d="M116.937 54.8704C116.692 62.2558 122.195 68.4335 129.229 68.6686C132.326 68.7722 135.205 67.7055 137.476 65.8482V67.7781H143.758V67.8925H143.758V42.0518H137.476V44.6948C135.435 43.0377 132.894 42.0166 130.115 41.9237C123.082 41.6885 117.182 47.485 116.937 54.8704ZM130.296 62.4839C133.698 62.4839 136.569 60.2489 137.476 57.1894V53.0552C136.569 49.9958 133.698 47.7607 130.296 47.7607C126.166 47.7607 122.818 51.0566 122.818 55.1223C122.818 59.188 126.166 62.4839 130.296 62.4839Z" fill="black"/>
<rect x="22.6025" y="25" width="15.2566" height="9.27364" rx="4.63682" fill="#E54C41"/>
<rect x="35.167" y="38.761" width="13.1626" height="9.27364" rx="4.63682" fill="#F9BE15"/>
<rect x="36.3633" y="66.5818" width="14.9575" height="9.27364" rx="4.63682" fill="#4C88EF"/>
<rect x="22.6025" y="66.5818" width="9.57279" height="9.27364" rx="4.63682" fill="#4C88EF"/>
<rect x="22.6025" y="38.761" width="8.97449" height="9.27364" rx="4.48724" fill="#F9BE15"/>
<rect x="39.6533" y="52.5217" width="9.57279" height="9.27364" rx="4.63682" fill="#3FA95B"/>
<rect x="53.1157" y="52.5217" width="8.97449" height="9.27364" rx="4.48724" fill="#3FA95B"/>
<rect x="55.5093" y="66.5818" width="17.3507" height="9.27364" rx="4.63682" fill="#4C88EF"/>
<rect x="22.6025" y="52.5217" width="13.1626" height="9.27364" rx="4.63682" fill="#3FA95B"/>
<path d="M0 98H331" stroke="#1F4768"/>
<g clip-path="url(#clip0_166_302)">
<path d="M62.7498 220.25V231.583H51.4165V220.25H62.7498ZM82.5832 220.25V231.583H71.2498V220.25H82.5832ZM62.7498 200.417V211.75H51.4165V200.417H62.7498ZM82.5832 200.417V211.75H71.2498V200.417H82.5832Z" stroke="#1F4768" stroke-width="2"/>
</g>
<path d="M102.28 223V209H107.52C108.707 209 109.727 209.193 110.58 209.58C111.433 209.953 112.087 210.5 112.54 211.22C113.007 211.927 113.24 212.787 113.24 213.8C113.24 214.787 113.007 215.64 112.54 216.36C112.087 217.067 111.433 217.613 110.58 218C109.727 218.387 108.707 218.58 107.52 218.58H103.1L103.76 217.88V223H102.28ZM103.76 218L103.1 217.28H107.48C108.88 217.28 109.94 216.98 110.66 216.38C111.393 215.767 111.76 214.907 111.76 213.8C111.76 212.68 111.393 211.813 110.66 211.2C109.94 210.587 108.88 210.28 107.48 210.28H103.1L103.76 209.58V218ZM115.886 223V212.5H117.246V215.36L117.106 214.86C117.4 214.06 117.893 213.453 118.586 213.04C119.28 212.613 120.14 212.4 121.166 212.4V213.78C121.113 213.78 121.06 213.78 121.006 213.78C120.953 213.767 120.9 213.76 120.846 213.76C119.74 213.76 118.873 214.1 118.246 214.78C117.62 215.447 117.306 216.4 117.306 217.64V223H115.886ZM127.94 223.1C126.926 223.1 126.013 222.873 125.2 222.42C124.4 221.953 123.766 221.32 123.3 220.52C122.833 219.707 122.6 218.78 122.6 217.74C122.6 216.687 122.833 215.76 123.3 214.96C123.766 214.16 124.4 213.533 125.2 213.08C126 212.627 126.913 212.4 127.94 212.4C128.98 212.4 129.9 212.627 130.7 213.08C131.513 213.533 132.146 214.16 132.6 214.96C133.066 215.76 133.3 216.687 133.3 217.74C133.3 218.78 133.066 219.707 132.6 220.52C132.146 221.32 131.513 221.953 130.7 222.42C129.886 222.873 128.966 223.1 127.94 223.1ZM127.94 221.84C128.7 221.84 129.373 221.673 129.96 221.34C130.546 220.993 131.006 220.513 131.34 219.9C131.686 219.273 131.86 218.553 131.86 217.74C131.86 216.913 131.686 216.193 131.34 215.58C131.006 214.967 130.546 214.493 129.96 214.16C129.373 213.813 128.706 213.64 127.96 213.64C127.213 213.64 126.546 213.813 125.96 214.16C125.373 214.493 124.906 214.967 124.56 215.58C124.213 216.193 124.04 216.913 124.04 217.74C124.04 218.553 124.213 219.273 124.56 219.9C124.906 220.513 125.373 220.993 125.96 221.34C126.546 221.673 127.206 221.84 127.94 221.84ZM134.639 226.98C134.212 226.98 133.805 226.92 133.419 226.8C133.019 226.693 132.685 226.527 132.419 226.3L132.919 225.22C133.345 225.58 133.892 225.76 134.559 225.76C135.119 225.76 135.545 225.593 135.839 225.26C136.145 224.927 136.299 224.433 136.299 223.78V212.5H137.719V223.78C137.719 224.753 137.452 225.527 136.919 226.1C136.399 226.687 135.639 226.98 134.639 226.98ZM137.019 210.18C136.725 210.18 136.479 210.08 136.279 209.88C136.079 209.68 135.979 209.44 135.979 209.16C135.979 208.88 136.079 208.647 136.279 208.46C136.479 208.26 136.725 208.16 137.019 208.16C137.312 208.16 137.559 208.253 137.759 208.44C137.959 208.627 138.059 208.86 138.059 209.14C138.059 209.433 137.959 209.68 137.759 209.88C137.572 210.08 137.325 210.18 137.019 210.18ZM146.147 223.1C145.054 223.1 144.094 222.873 143.267 222.42C142.44 221.953 141.794 221.32 141.327 220.52C140.86 219.707 140.627 218.78 140.627 217.74C140.627 216.7 140.847 215.78 141.287 214.98C141.74 214.18 142.354 213.553 143.127 213.1C143.914 212.633 144.794 212.4 145.767 212.4C146.754 212.4 147.627 212.627 148.387 213.08C149.16 213.52 149.767 214.147 150.207 214.96C150.647 215.76 150.867 216.687 150.867 217.74C150.867 217.807 150.86 217.88 150.847 217.96C150.847 218.027 150.847 218.1 150.847 218.18H141.707V217.12H150.087L149.527 217.54C149.527 216.78 149.36 216.107 149.027 215.52C148.707 214.92 148.267 214.453 147.707 214.12C147.147 213.787 146.5 213.62 145.767 213.62C145.047 213.62 144.4 213.787 143.827 214.12C143.254 214.453 142.807 214.92 142.487 215.52C142.167 216.12 142.007 216.807 142.007 217.58V217.8C142.007 218.6 142.18 219.307 142.527 219.92C142.887 220.52 143.38 220.993 144.007 221.34C144.647 221.673 145.374 221.84 146.187 221.84C146.827 221.84 147.42 221.727 147.967 221.5C148.527 221.273 149.007 220.927 149.407 220.46L150.207 221.38C149.74 221.94 149.154 222.367 148.447 222.66C147.754 222.953 146.987 223.1 146.147 223.1ZM158.117 223.1C157.077 223.1 156.144 222.873 155.317 222.42C154.504 221.953 153.864 221.32 153.397 220.52C152.931 219.707 152.697 218.78 152.697 217.74C152.697 216.687 152.931 215.76 153.397 214.96C153.864 214.16 154.504 213.533 155.317 213.08C156.144 212.627 157.077 212.4 158.117 212.4C159.011 212.4 159.817 212.573 160.537 212.92C161.257 213.267 161.824 213.787 162.237 214.48L161.177 215.2C160.817 214.667 160.371 214.273 159.837 214.02C159.304 213.767 158.724 213.64 158.097 213.64C157.351 213.64 156.677 213.813 156.077 214.16C155.477 214.493 155.004 214.967 154.657 215.58C154.311 216.193 154.137 216.913 154.137 217.74C154.137 218.567 154.311 219.287 154.657 219.9C155.004 220.513 155.477 220.993 156.077 221.34C156.677 221.673 157.351 221.84 158.097 221.84C158.724 221.84 159.304 221.713 159.837 221.46C160.371 221.207 160.817 220.82 161.177 220.3L162.237 221.02C161.824 221.7 161.257 222.22 160.537 222.58C159.817 222.927 159.011 223.1 158.117 223.1ZM168.464 223.1C167.477 223.1 166.717 222.833 166.184 222.3C165.651 221.767 165.384 221.013 165.384 220.04V210.18H166.804V219.96C166.804 220.573 166.957 221.047 167.264 221.38C167.584 221.713 168.037 221.88 168.624 221.88C169.251 221.88 169.771 221.7 170.184 221.34L170.684 222.36C170.404 222.613 170.064 222.8 169.664 222.92C169.277 223.04 168.877 223.1 168.464 223.1ZM163.504 213.68V212.5H170.004V213.68H163.504ZM176.089 223.1C175.222 223.1 174.402 222.98 173.629 222.74C172.856 222.487 172.249 222.173 171.809 221.8L172.449 220.68C172.876 221 173.422 221.28 174.089 221.52C174.756 221.747 175.456 221.86 176.189 221.86C177.189 221.86 177.909 221.707 178.349 221.4C178.789 221.08 179.009 220.66 179.009 220.14C179.009 219.753 178.882 219.453 178.629 219.24C178.389 219.013 178.069 218.847 177.669 218.74C177.269 218.62 176.822 218.52 176.329 218.44C175.836 218.36 175.342 218.267 174.849 218.16C174.369 218.053 173.929 217.9 173.529 217.7C173.129 217.487 172.802 217.2 172.549 216.84C172.309 216.48 172.189 216 172.189 215.4C172.189 214.827 172.349 214.313 172.669 213.86C172.989 213.407 173.456 213.053 174.069 212.8C174.696 212.533 175.456 212.4 176.349 212.4C177.029 212.4 177.709 212.493 178.389 212.68C179.069 212.853 179.629 213.087 180.069 213.38L179.449 214.52C178.982 214.2 178.482 213.973 177.949 213.84C177.416 213.693 176.882 213.62 176.349 213.62C175.402 213.62 174.702 213.787 174.249 214.12C173.809 214.44 173.589 214.853 173.589 215.36C173.589 215.76 173.709 216.073 173.949 216.3C174.202 216.527 174.529 216.707 174.929 216.84C175.342 216.96 175.789 217.06 176.269 217.14C176.762 217.22 177.249 217.32 177.729 217.44C178.222 217.547 178.669 217.7 179.069 217.9C179.482 218.087 179.809 218.36 180.049 218.72C180.302 219.067 180.429 219.527 180.429 220.1C180.429 220.713 180.256 221.247 179.909 221.7C179.576 222.14 179.082 222.487 178.429 222.74C177.789 222.98 177.009 223.1 176.089 223.1ZM183.335 223V209H189.035C190.528 209 191.835 209.3 192.955 209.9C194.088 210.487 194.968 211.307 195.595 212.36C196.221 213.413 196.535 214.627 196.535 216C196.535 217.373 196.221 218.587 195.595 219.64C194.968 220.693 194.088 221.52 192.955 222.12C191.835 222.707 190.528 223 189.035 223H183.335ZM184.815 221.72H188.955C190.195 221.72 191.268 221.48 192.175 221C193.095 220.507 193.808 219.833 194.315 218.98C194.821 218.113 195.075 217.12 195.075 216C195.075 214.867 194.821 213.873 194.315 213.02C193.808 212.167 193.095 211.5 192.175 211.02C191.268 210.527 190.195 210.28 188.955 210.28H184.815V221.72ZM206.138 223V220.68L206.078 220.3V216.42C206.078 215.527 205.825 214.84 205.318 214.36C204.825 213.88 204.085 213.64 203.098 213.64C202.418 213.64 201.771 213.753 201.158 213.98C200.545 214.207 200.025 214.507 199.598 214.88L198.958 213.82C199.491 213.367 200.131 213.02 200.878 212.78C201.625 212.527 202.411 212.4 203.238 212.4C204.598 212.4 205.645 212.74 206.378 213.42C207.125 214.087 207.498 215.107 207.498 216.48V223H206.138ZM202.518 223.1C201.731 223.1 201.045 222.973 200.458 222.72C199.885 222.453 199.445 222.093 199.138 221.64C198.831 221.173 198.678 220.64 198.678 220.04C198.678 219.493 198.805 219 199.058 218.56C199.325 218.107 199.751 217.747 200.338 217.48C200.938 217.2 201.738 217.06 202.738 217.06H206.358V218.12H202.778C201.765 218.12 201.058 218.3 200.658 218.66C200.271 219.02 200.078 219.467 200.078 220C200.078 220.6 200.311 221.08 200.778 221.44C201.245 221.8 201.898 221.98 202.738 221.98C203.538 221.98 204.225 221.8 204.798 221.44C205.385 221.067 205.811 220.533 206.078 219.84L206.398 220.82C206.131 221.513 205.665 222.067 204.998 222.48C204.345 222.893 203.518 223.1 202.518 223.1ZM214.175 223.1C213.308 223.1 212.488 222.98 211.715 222.74C210.942 222.487 210.335 222.173 209.895 221.8L210.535 220.68C210.962 221 211.508 221.28 212.175 221.52C212.842 221.747 213.542 221.86 214.275 221.86C215.275 221.86 215.995 221.707 216.435 221.4C216.875 221.08 217.095 220.66 217.095 220.14C217.095 219.753 216.968 219.453 216.715 219.24C216.475 219.013 216.155 218.847 215.755 218.74C215.355 218.62 214.908 218.52 214.415 218.44C213.922 218.36 213.428 218.267 212.935 218.16C212.455 218.053 212.015 217.9 211.615 217.7C211.215 217.487 210.888 217.2 210.635 216.84C210.395 216.48 210.275 216 210.275 215.4C210.275 214.827 210.435 214.313 210.755 213.86C211.075 213.407 211.542 213.053 212.155 212.8C212.782 212.533 213.542 212.4 214.435 212.4C215.115 212.4 215.795 212.493 216.475 212.68C217.155 212.853 217.715 213.087 218.155 213.38L217.535 214.52C217.068 214.2 216.568 213.973 216.035 213.84C215.502 213.693 214.968 213.62 214.435 213.62C213.488 213.62 212.788 213.787 212.335 214.12C211.895 214.44 211.675 214.853 211.675 215.36C211.675 215.76 211.795 216.073 212.035 216.3C212.288 216.527 212.615 216.707 213.015 216.84C213.428 216.96 213.875 217.06 214.355 217.14C214.848 217.22 215.335 217.32 215.815 217.44C216.308 217.547 216.755 217.7 217.155 217.9C217.568 218.087 217.895 218.36 218.135 218.72C218.388 219.067 218.515 219.527 218.515 220.1C218.515 220.713 218.342 221.247 217.995 221.7C217.662 222.14 217.168 222.487 216.515 222.74C215.875 222.98 215.095 223.1 214.175 223.1ZM226.481 212.4C227.334 212.4 228.081 212.567 228.721 212.9C229.374 213.22 229.881 213.713 230.241 214.38C230.614 215.047 230.801 215.887 230.801 216.9V223H229.381V217.04C229.381 215.933 229.101 215.1 228.541 214.54C227.994 213.967 227.221 213.68 226.221 213.68C225.474 213.68 224.821 213.833 224.261 214.14C223.714 214.433 223.287 214.867 222.981 215.44C222.687 216 222.541 216.68 222.541 217.48V223H221.121V208.16H222.541V215.38L222.261 214.84C222.594 214.08 223.127 213.487 223.861 213.06C224.594 212.62 225.467 212.4 226.481 212.4ZM240.056 223.1C239.136 223.1 238.31 222.893 237.576 222.48C236.843 222.053 236.263 221.44 235.836 220.64C235.41 219.84 235.196 218.873 235.196 217.74C235.196 216.593 235.41 215.627 235.836 214.84C236.276 214.04 236.863 213.433 237.596 213.02C238.33 212.607 239.15 212.4 240.056 212.4C241.056 212.4 241.95 212.627 242.736 213.08C243.536 213.52 244.163 214.14 244.616 214.94C245.07 215.74 245.296 216.673 245.296 217.74C245.296 218.793 245.07 219.727 244.616 220.54C244.163 221.34 243.536 221.967 242.736 222.42C241.95 222.873 241.056 223.1 240.056 223.1ZM234.636 223V208.16H236.056V215.6L235.856 217.72L235.996 219.84V223H234.636ZM239.956 221.84C240.703 221.84 241.37 221.673 241.956 221.34C242.543 220.993 243.01 220.513 243.356 219.9C243.703 219.273 243.876 218.553 243.876 217.74C243.876 216.913 243.703 216.193 243.356 215.58C243.01 214.967 242.543 214.493 241.956 214.16C241.37 213.813 240.703 213.64 239.956 213.64C239.21 213.64 238.536 213.813 237.936 214.16C237.35 214.493 236.883 214.967 236.536 215.58C236.203 216.193 236.036 216.913 236.036 217.74C236.036 218.553 236.203 219.273 236.536 219.9C236.883 220.513 237.35 220.993 237.936 221.34C238.536 221.673 239.21 221.84 239.956 221.84ZM252.471 223.1C251.458 223.1 250.544 222.873 249.731 222.42C248.931 221.953 248.298 221.32 247.831 220.52C247.364 219.707 247.131 218.78 247.131 217.74C247.131 216.687 247.364 215.76 247.831 214.96C248.298 214.16 248.931 213.533 249.731 213.08C250.531 212.627 251.444 212.4 252.471 212.4C253.511 212.4 254.431 212.627 255.231 213.08C256.044 213.533 256.678 214.16 257.131 214.96C257.598 215.76 257.831 216.687 257.831 217.74C257.831 218.78 257.598 219.707 257.131 220.52C256.678 221.32 256.044 221.953 255.231 222.42C254.418 222.873 253.498 223.1 252.471 223.1ZM252.471 221.84C253.231 221.84 253.904 221.673 254.491 221.34C255.078 220.993 255.538 220.513 255.871 219.9C256.218 219.273 256.391 218.553 256.391 217.74C256.391 216.913 256.218 216.193 255.871 215.58C255.538 214.967 255.078 214.493 254.491 214.16C253.904 213.813 253.238 213.64 252.491 213.64C251.744 213.64 251.078 213.813 250.491 214.16C249.904 214.493 249.438 214.967 249.091 215.58C248.744 216.193 248.571 216.913 248.571 217.74C248.571 218.553 248.744 219.273 249.091 219.9C249.438 220.513 249.904 220.993 250.491 221.34C251.078 221.673 251.738 221.84 252.471 221.84ZM267.251 223V220.68L267.191 220.3V216.42C267.191 215.527 266.938 214.84 266.431 214.36C265.938 213.88 265.198 213.64 264.211 213.64C263.531 213.64 262.885 213.753 262.271 213.98C261.658 214.207 261.138 214.507 260.711 214.88L260.071 213.82C260.605 213.367 261.245 213.02 261.991 212.78C262.738 212.527 263.525 212.4 264.351 212.4C265.711 212.4 266.758 212.74 267.491 213.42C268.238 214.087 268.611 215.107 268.611 216.48V223H267.251ZM263.631 223.1C262.845 223.1 262.158 222.973 261.571 222.72C260.998 222.453 260.558 222.093 260.251 221.64C259.945 221.173 259.791 220.64 259.791 220.04C259.791 219.493 259.918 219 260.171 218.56C260.438 218.107 260.865 217.747 261.451 217.48C262.051 217.2 262.851 217.06 263.851 217.06H267.471V218.12H263.891C262.878 218.12 262.171 218.3 261.771 218.66C261.385 219.02 261.191 219.467 261.191 220C261.191 220.6 261.425 221.08 261.891 221.44C262.358 221.8 263.011 221.98 263.851 221.98C264.651 221.98 265.338 221.8 265.911 221.44C266.498 221.067 266.925 220.533 267.191 219.84L267.511 220.82C267.245 221.513 266.778 222.067 266.111 222.48C265.458 222.893 264.631 223.1 263.631 223.1ZM272.468 223V212.5H273.828V215.36L273.688 214.86C273.982 214.06 274.475 213.453 275.168 213.04C275.862 212.613 276.722 212.4 277.748 212.4V213.78C277.695 213.78 277.642 213.78 277.588 213.78C277.535 213.767 277.482 213.76 277.428 213.76C276.322 213.76 275.455 214.1 274.828 214.78C274.202 215.447 273.888 216.4 273.888 217.64V223H272.468ZM284.422 223.1C283.422 223.1 282.522 222.873 281.722 222.42C280.935 221.967 280.315 221.34 279.862 220.54C279.408 219.727 279.182 218.793 279.182 217.74C279.182 216.673 279.408 215.74 279.862 214.94C280.315 214.14 280.935 213.52 281.722 213.08C282.522 212.627 283.422 212.4 284.422 212.4C285.342 212.4 286.162 212.607 286.882 213.02C287.615 213.433 288.195 214.04 288.622 214.84C289.062 215.627 289.282 216.593 289.282 217.74C289.282 218.873 289.068 219.84 288.642 220.64C288.215 221.44 287.635 222.053 286.902 222.48C286.182 222.893 285.355 223.1 284.422 223.1ZM284.522 221.84C285.268 221.84 285.935 221.673 286.522 221.34C287.122 220.993 287.588 220.513 287.922 219.9C288.268 219.273 288.442 218.553 288.442 217.74C288.442 216.913 288.268 216.193 287.922 215.58C287.588 214.967 287.122 214.493 286.522 214.16C285.935 213.813 285.268 213.64 284.522 213.64C283.788 213.64 283.128 213.813 282.542 214.16C281.955 214.493 281.488 214.967 281.142 215.58C280.795 216.193 280.622 216.913 280.622 217.74C280.622 218.553 280.795 219.273 281.142 219.9C281.488 220.513 281.955 220.993 282.542 221.34C283.128 221.673 283.788 221.84 284.522 221.84ZM288.482 223V219.84L288.622 217.72L288.422 215.6V208.16H289.842V223H288.482Z" fill="black"/>
<path d="M28.66 163V149H31.34L37.3 158.88H35.88L41.74 149H44.4L44.44 163H41.4L41.38 153.66H41.94L37.26 161.52H35.8L31.02 153.66H31.7V163H28.66ZM54.1416 163V160.9L53.9416 160.44V156.68C53.9416 156.013 53.7349 155.493 53.3216 155.12C52.9216 154.747 52.3016 154.56 51.4616 154.56C50.8882 154.56 50.3216 154.653 49.7616 154.84C49.2149 155.013 48.7482 155.253 48.3616 155.56L47.2416 153.38C47.8282 152.967 48.5349 152.647 49.3616 152.42C50.1882 152.193 51.0282 152.08 51.8816 152.08C53.5216 152.08 54.7949 152.467 55.7016 153.24C56.6082 154.013 57.0616 155.22 57.0616 156.86V163H54.1416ZM50.8616 163.16C50.0216 163.16 49.3016 163.02 48.7016 162.74C48.1016 162.447 47.6416 162.053 47.3216 161.56C47.0016 161.067 46.8416 160.513 46.8416 159.9C46.8416 159.26 46.9949 158.7 47.3016 158.22C47.6216 157.74 48.1216 157.367 48.8016 157.1C49.4816 156.82 50.3682 156.68 51.4616 156.68H54.3216V158.5H51.8016C51.0682 158.5 50.5616 158.62 50.2816 158.86C50.0149 159.1 49.8816 159.4 49.8816 159.76C49.8816 160.16 50.0349 160.48 50.3416 160.72C50.6616 160.947 51.0949 161.06 51.6416 161.06C52.1616 161.06 52.6282 160.94 53.0416 160.7C53.4549 160.447 53.7549 160.08 53.9416 159.6L54.4216 161.04C54.1949 161.733 53.7816 162.26 53.1816 162.62C52.5816 162.98 51.8082 163.16 50.8616 163.16ZM59.8853 163V152.24H63.0053V163H59.8853ZM61.4453 150.74C60.872 150.74 60.4053 150.573 60.0453 150.24C59.6853 149.907 59.5053 149.493 59.5053 149C59.5053 148.507 59.6853 148.093 60.0453 147.76C60.4053 147.427 60.872 147.26 61.4453 147.26C62.0186 147.26 62.4853 147.42 62.8453 147.74C63.2053 148.047 63.3853 148.447 63.3853 148.94C63.3853 149.46 63.2053 149.893 62.8453 150.24C62.4986 150.573 62.032 150.74 61.4453 150.74ZM72.4409 152.08C73.2943 152.08 74.0543 152.253 74.7209 152.6C75.4009 152.933 75.9343 153.453 76.3209 154.16C76.7076 154.853 76.9009 155.747 76.9009 156.84V163H73.7809V157.32C73.7809 156.453 73.5876 155.813 73.2009 155.4C72.8276 154.987 72.2943 154.78 71.6009 154.78C71.1076 154.78 70.6609 154.887 70.2609 155.1C69.8743 155.3 69.5676 155.613 69.3409 156.04C69.1276 156.467 69.0209 157.013 69.0209 157.68V163H65.9009V152.24H68.8809V155.22L68.3209 154.32C68.7076 153.6 69.2609 153.047 69.9809 152.66C70.7009 152.273 71.5209 152.08 72.4409 152.08Z" fill="black"/>
<g clip-path="url(#clip1_166_302)">
<path d="M60.0938 278.875C59.6711 278.875 59.2657 279.043 58.9668 279.342C58.6679 279.641 58.5 280.046 58.5 280.469C58.5 280.891 58.6679 281.297 58.9668 281.596C59.2657 281.895 59.6711 282.062 60.0938 282.062H69.6562C70.0789 282.062 70.4843 281.895 70.7832 281.596C71.0821 281.297 71.25 280.891 71.25 280.469C71.25 280.046 71.0821 279.641 70.7832 279.342C70.4843 279.043 70.0789 278.875 69.6562 278.875H60.0938ZM60.625 274.094C60.625 273.671 60.7929 273.266 61.0918 272.967C61.3907 272.668 61.7961 272.5 62.2188 272.5H73.9062C74.3289 272.5 74.7343 272.668 75.0332 272.967C75.3321 273.266 75.5 273.671 75.5 274.094C75.5 274.516 75.3321 274.922 75.0332 275.221C74.7343 275.52 74.3289 275.688 73.9062 275.688H62.2188C61.7961 275.688 61.3907 275.52 61.0918 275.221C60.7929 274.922 60.625 274.516 60.625 274.094ZM64.3438 285.25C63.9211 285.25 63.5157 285.418 63.2168 285.717C62.9179 286.016 62.75 286.421 62.75 286.844C62.75 287.266 62.9179 287.672 63.2168 287.971C63.5157 288.27 63.9211 288.438 64.3438 288.438H73.9062C74.3289 288.438 74.7343 288.27 75.0332 287.971C75.3321 287.672 75.5 287.266 75.5 286.844C75.5 286.421 75.3321 286.016 75.0332 285.717C74.7343 285.418 74.3289 285.25 73.9062 285.25H64.3438Z" fill="#1F4768"/>
<path d="M50 267.719C50 265.666 51.666 264 53.7188 264H80.2812C82.334 264 84 265.666 84 267.719V294.281C84 295.268 83.6082 296.213 82.9108 296.911C82.2134 297.608 81.2675 298 80.2812 298H53.7188C52.7325 298 51.7866 297.608 51.0892 296.911C50.3918 296.213 50 295.268 50 294.281V267.719ZM53.7188 267.188C53.5779 267.188 53.4427 267.243 53.3431 267.343C53.2435 267.443 53.1875 267.578 53.1875 267.719V294.281C53.1875 294.574 53.4255 294.812 53.7188 294.812H80.2812C80.4221 294.812 80.5573 294.757 80.6569 294.657C80.7565 294.557 80.8125 294.422 80.8125 294.281V267.719C80.8125 267.578 80.7565 267.443 80.6569 267.343C80.5573 267.243 80.4221 267.188 80.2812 267.188H53.7188Z" fill="#1F4768"/>
</g>
<path d="M102.28 288V274H107.52C108.707 274 109.727 274.193 110.58 274.58C111.433 274.953 112.087 275.5 112.54 276.22C113.007 276.927 113.24 277.787 113.24 278.8C113.24 279.787 113.007 280.64 112.54 281.36C112.087 282.067 111.433 282.613 110.58 283C109.727 283.387 108.707 283.58 107.52 283.58H103.1L103.76 282.88V288H102.28ZM103.76 283L103.1 282.28H107.48C108.88 282.28 109.94 281.98 110.66 281.38C111.393 280.767 111.76 279.907 111.76 278.8C111.76 277.68 111.393 276.813 110.66 276.2C109.94 275.587 108.88 275.28 107.48 275.28H103.1L103.76 274.58V283ZM115.886 288V277.5H117.246V280.36L117.106 279.86C117.4 279.06 117.893 278.453 118.586 278.04C119.28 277.613 120.14 277.4 121.166 277.4V278.78C121.113 278.78 121.06 278.78 121.006 278.78C120.953 278.767 120.9 278.76 120.846 278.76C119.74 278.76 118.873 279.1 118.246 279.78C117.62 280.447 117.306 281.4 117.306 282.64V288H115.886ZM127.94 288.1C126.926 288.1 126.013 287.873 125.2 287.42C124.4 286.953 123.766 286.32 123.3 285.52C122.833 284.707 122.6 283.78 122.6 282.74C122.6 281.687 122.833 280.76 123.3 279.96C123.766 279.16 124.4 278.533 125.2 278.08C126 277.627 126.913 277.4 127.94 277.4C128.98 277.4 129.9 277.627 130.7 278.08C131.513 278.533 132.146 279.16 132.6 279.96C133.066 280.76 133.3 281.687 133.3 282.74C133.3 283.78 133.066 284.707 132.6 285.52C132.146 286.32 131.513 286.953 130.7 287.42C129.886 287.873 128.966 288.1 127.94 288.1ZM127.94 286.84C128.7 286.84 129.373 286.673 129.96 286.34C130.546 285.993 131.006 285.513 131.34 284.9C131.686 284.273 131.86 283.553 131.86 282.74C131.86 281.913 131.686 281.193 131.34 280.58C131.006 279.967 130.546 279.493 129.96 279.16C129.373 278.813 128.706 278.64 127.96 278.64C127.213 278.64 126.546 278.813 125.96 279.16C125.373 279.493 124.906 279.967 124.56 280.58C124.213 281.193 124.04 281.913 124.04 282.74C124.04 283.553 124.213 284.273 124.56 284.9C124.906 285.513 125.373 285.993 125.96 286.34C126.546 286.673 127.206 286.84 127.94 286.84ZM134.639 291.98C134.212 291.98 133.805 291.92 133.419 291.8C133.019 291.693 132.685 291.527 132.419 291.3L132.919 290.22C133.345 290.58 133.892 290.76 134.559 290.76C135.119 290.76 135.545 290.593 135.839 290.26C136.145 289.927 136.299 289.433 136.299 288.78V277.5H137.719V288.78C137.719 289.753 137.452 290.527 136.919 291.1C136.399 291.687 135.639 291.98 134.639 291.98ZM137.019 275.18C136.725 275.18 136.479 275.08 136.279 274.88C136.079 274.68 135.979 274.44 135.979 274.16C135.979 273.88 136.079 273.647 136.279 273.46C136.479 273.26 136.725 273.16 137.019 273.16C137.312 273.16 137.559 273.253 137.759 273.44C137.959 273.627 138.059 273.86 138.059 274.14C138.059 274.433 137.959 274.68 137.759 274.88C137.572 275.08 137.325 275.18 137.019 275.18ZM146.147 288.1C145.054 288.1 144.094 287.873 143.267 287.42C142.44 286.953 141.794 286.32 141.327 285.52C140.86 284.707 140.627 283.78 140.627 282.74C140.627 281.7 140.847 280.78 141.287 279.98C141.74 279.18 142.354 278.553 143.127 278.1C143.914 277.633 144.794 277.4 145.767 277.4C146.754 277.4 147.627 277.627 148.387 278.08C149.16 278.52 149.767 279.147 150.207 279.96C150.647 280.76 150.867 281.687 150.867 282.74C150.867 282.807 150.86 282.88 150.847 282.96C150.847 283.027 150.847 283.1 150.847 283.18H141.707V282.12H150.087L149.527 282.54C149.527 281.78 149.36 281.107 149.027 280.52C148.707 279.92 148.267 279.453 147.707 279.12C147.147 278.787 146.5 278.62 145.767 278.62C145.047 278.62 144.4 278.787 143.827 279.12C143.254 279.453 142.807 279.92 142.487 280.52C142.167 281.12 142.007 281.807 142.007 282.58V282.8C142.007 283.6 142.18 284.307 142.527 284.92C142.887 285.52 143.38 285.993 144.007 286.34C144.647 286.673 145.374 286.84 146.187 286.84C146.827 286.84 147.42 286.727 147.967 286.5C148.527 286.273 149.007 285.927 149.407 285.46L150.207 286.38C149.74 286.94 149.154 287.367 148.447 287.66C147.754 287.953 146.987 288.1 146.147 288.1ZM158.117 288.1C157.077 288.1 156.144 287.873 155.317 287.42C154.504 286.953 153.864 286.32 153.397 285.52C152.931 284.707 152.697 283.78 152.697 282.74C152.697 281.687 152.931 280.76 153.397 279.96C153.864 279.16 154.504 278.533 155.317 278.08C156.144 277.627 157.077 277.4 158.117 277.4C159.011 277.4 159.817 277.573 160.537 277.92C161.257 278.267 161.824 278.787 162.237 279.48L161.177 280.2C160.817 279.667 160.371 279.273 159.837 279.02C159.304 278.767 158.724 278.64 158.097 278.64C157.351 278.64 156.677 278.813 156.077 279.16C155.477 279.493 155.004 279.967 154.657 280.58C154.311 281.193 154.137 281.913 154.137 282.74C154.137 283.567 154.311 284.287 154.657 284.9C155.004 285.513 155.477 285.993 156.077 286.34C156.677 286.673 157.351 286.84 158.097 286.84C158.724 286.84 159.304 286.713 159.837 286.46C160.371 286.207 160.817 285.82 161.177 285.3L162.237 286.02C161.824 286.7 161.257 287.22 160.537 287.58C159.817 287.927 159.011 288.1 158.117 288.1ZM168.464 288.1C167.477 288.1 166.717 287.833 166.184 287.3C165.651 286.767 165.384 286.013 165.384 285.04V275.18H166.804V284.96C166.804 285.573 166.957 286.047 167.264 286.38C167.584 286.713 168.037 286.88 168.624 286.88C169.251 286.88 169.771 286.7 170.184 286.34L170.684 287.36C170.404 287.613 170.064 287.8 169.664 287.92C169.277 288.04 168.877 288.1 168.464 288.1ZM163.504 278.68V277.5H170.004V278.68H163.504ZM177.549 288L171.349 274H172.949L178.749 287.18H177.869L183.709 274H185.209L179.009 288H177.549ZM186.882 288V277.5H188.302V288H186.882ZM187.602 275.18C187.309 275.18 187.062 275.08 186.862 274.88C186.662 274.68 186.562 274.44 186.562 274.16C186.562 273.88 186.662 273.647 186.862 273.46C187.062 273.26 187.309 273.16 187.602 273.16C187.896 273.16 188.142 273.253 188.342 273.44C188.542 273.627 188.642 273.86 188.642 274.14C188.642 274.433 188.542 274.68 188.342 274.88C188.156 275.08 187.909 275.18 187.602 275.18ZM196.713 288.1C195.62 288.1 194.66 287.873 193.833 287.42C193.007 286.953 192.36 286.32 191.893 285.52C191.427 284.707 191.193 283.78 191.193 282.74C191.193 281.7 191.413 280.78 191.853 279.98C192.307 279.18 192.92 278.553 193.693 278.1C194.48 277.633 195.36 277.4 196.333 277.4C197.32 277.4 198.193 277.627 198.953 278.08C199.727 278.52 200.333 279.147 200.773 279.96C201.213 280.76 201.433 281.687 201.433 282.74C201.433 282.807 201.427 282.88 201.413 282.96C201.413 283.027 201.413 283.1 201.413 283.18H192.273V282.12H200.653L200.093 282.54C200.093 281.78 199.927 281.107 199.593 280.52C199.273 279.92 198.833 279.453 198.273 279.12C197.713 278.787 197.067 278.62 196.333 278.62C195.613 278.62 194.967 278.787 194.393 279.12C193.82 279.453 193.373 279.92 193.053 280.52C192.733 281.12 192.573 281.807 192.573 282.58V282.8C192.573 283.6 192.747 284.307 193.093 284.92C193.453 285.52 193.947 285.993 194.573 286.34C195.213 286.673 195.94 286.84 196.753 286.84C197.393 286.84 197.987 286.727 198.533 286.5C199.093 286.273 199.573 285.927 199.973 285.46L200.773 286.38C200.307 286.94 199.72 287.367 199.013 287.66C198.32 287.953 197.553 288.1 196.713 288.1ZM206.268 288L202.308 277.5H203.668L207.268 287.24H206.648L210.348 277.5H211.568L215.228 287.24H214.608L218.268 277.5H219.568L215.588 288H214.248L210.728 278.84H211.148L207.608 288H206.268Z" fill="black"/>
<path d="M109.42 361.12C108.353 361.12 107.367 360.947 106.46 360.6C105.567 360.24 104.787 359.74 104.12 359.1C103.467 358.46 102.953 357.707 102.58 356.84C102.22 355.973 102.04 355.027 102.04 354C102.04 352.973 102.22 352.027 102.58 351.16C102.953 350.293 103.473 349.54 104.14 348.9C104.807 348.26 105.587 347.767 106.48 347.42C107.387 347.06 108.373 346.88 109.44 346.88C110.507 346.88 111.48 347.047 112.36 347.38C113.253 347.713 114.013 348.22 114.64 348.9L113.72 349.84C113.133 349.253 112.487 348.833 111.78 348.58C111.073 348.327 110.313 348.2 109.5 348.2C108.633 348.2 107.833 348.347 107.1 348.64C106.38 348.92 105.747 349.327 105.2 349.86C104.667 350.38 104.247 350.993 103.94 351.7C103.647 352.393 103.5 353.16 103.5 354C103.5 354.827 103.647 355.593 103.94 356.3C104.247 357.007 104.667 357.627 105.2 358.16C105.747 358.68 106.38 359.087 107.1 359.38C107.833 359.66 108.627 359.8 109.48 359.8C110.28 359.8 111.033 359.68 111.74 359.44C112.46 359.2 113.12 358.793 113.72 358.22L114.56 359.34C113.893 359.927 113.113 360.373 112.22 360.68C111.327 360.973 110.393 361.12 109.42 361.12ZM113.14 359.16V354H114.56V359.34L113.14 359.16ZM125.029 361V358.68L124.969 358.3V354.42C124.969 353.527 124.715 352.84 124.209 352.36C123.715 351.88 122.975 351.64 121.989 351.64C121.309 351.64 120.662 351.753 120.049 351.98C119.435 352.207 118.915 352.507 118.489 352.88L117.849 351.82C118.382 351.367 119.022 351.02 119.769 350.78C120.515 350.527 121.302 350.4 122.129 350.4C123.489 350.4 124.535 350.74 125.269 351.42C126.015 352.087 126.389 353.107 126.389 354.48V361H125.029ZM121.409 361.1C120.622 361.1 119.935 360.973 119.349 360.72C118.775 360.453 118.335 360.093 118.029 359.64C117.722 359.173 117.569 358.64 117.569 358.04C117.569 357.493 117.695 357 117.949 356.56C118.215 356.107 118.642 355.747 119.229 355.48C119.829 355.2 120.629 355.06 121.629 355.06H125.249V356.12H121.669C120.655 356.12 119.949 356.3 119.549 356.66C119.162 357.02 118.969 357.467 118.969 358C118.969 358.6 119.202 359.08 119.669 359.44C120.135 359.8 120.789 359.98 121.629 359.98C122.429 359.98 123.115 359.8 123.689 359.44C124.275 359.067 124.702 358.533 124.969 357.84L125.289 358.82C125.022 359.513 124.555 360.067 123.889 360.48C123.235 360.893 122.409 361.1 121.409 361.1ZM135.606 350.4C136.459 350.4 137.206 350.567 137.846 350.9C138.499 351.22 139.006 351.713 139.366 352.38C139.739 353.047 139.926 353.887 139.926 354.9V361H138.506V355.04C138.506 353.933 138.226 353.1 137.666 352.54C137.119 351.967 136.346 351.68 135.346 351.68C134.599 351.68 133.946 351.833 133.386 352.14C132.839 352.433 132.412 352.867 132.106 353.44C131.812 354 131.666 354.68 131.666 355.48V361H130.246V350.5H131.606V353.38L131.386 352.84C131.719 352.08 132.252 351.487 132.986 351.06C133.719 350.62 134.592 350.4 135.606 350.4ZM147.081 361.1C146.095 361.1 145.335 360.833 144.801 360.3C144.268 359.767 144.001 359.013 144.001 358.04V348.18H145.421V357.96C145.421 358.573 145.575 359.047 145.881 359.38C146.201 359.713 146.655 359.88 147.241 359.88C147.868 359.88 148.388 359.7 148.801 359.34L149.301 360.36C149.021 360.613 148.681 360.8 148.281 360.92C147.895 361.04 147.495 361.1 147.081 361.1ZM142.121 351.68V350.5H148.621V351.68H142.121ZM155.795 361.1C154.782 361.1 153.868 360.873 153.055 360.42C152.255 359.953 151.622 359.32 151.155 358.52C150.688 357.707 150.455 356.78 150.455 355.74C150.455 354.687 150.688 353.76 151.155 352.96C151.622 352.16 152.255 351.533 153.055 351.08C153.855 350.627 154.768 350.4 155.795 350.4C156.835 350.4 157.755 350.627 158.555 351.08C159.368 351.533 160.002 352.16 160.455 352.96C160.922 353.76 161.155 354.687 161.155 355.74C161.155 356.78 160.922 357.707 160.455 358.52C160.002 359.32 159.368 359.953 158.555 360.42C157.742 360.873 156.822 361.1 155.795 361.1ZM155.795 359.84C156.555 359.84 157.228 359.673 157.815 359.34C158.402 358.993 158.862 358.513 159.195 357.9C159.542 357.273 159.715 356.553 159.715 355.74C159.715 354.913 159.542 354.193 159.195 353.58C158.862 352.967 158.402 352.493 157.815 352.16C157.228 351.813 156.562 351.64 155.815 351.64C155.068 351.64 154.402 351.813 153.815 352.16C153.228 352.493 152.762 352.967 152.415 353.58C152.068 354.193 151.895 354.913 151.895 355.74C151.895 356.553 152.068 357.273 152.415 357.9C152.762 358.513 153.228 358.993 153.815 359.34C154.402 359.673 155.062 359.84 155.795 359.84ZM168.534 364.98C167.574 364.98 166.654 364.84 165.774 364.56C164.894 364.28 164.181 363.88 163.634 363.36L164.354 362.28C164.848 362.72 165.454 363.067 166.174 363.32C166.908 363.587 167.681 363.72 168.494 363.72C169.828 363.72 170.808 363.407 171.434 362.78C172.061 362.167 172.374 361.207 172.374 359.9V357.28L172.574 355.48L172.434 353.68V350.5H173.794V359.72C173.794 361.533 173.348 362.86 172.454 363.7C171.574 364.553 170.268 364.98 168.534 364.98ZM168.274 360.6C167.274 360.6 166.374 360.387 165.574 359.96C164.774 359.52 164.141 358.913 163.674 358.14C163.221 357.367 162.994 356.48 162.994 355.48C162.994 354.48 163.221 353.6 163.674 352.84C164.141 352.067 164.774 351.467 165.574 351.04C166.374 350.613 167.274 350.4 168.274 350.4C169.208 350.4 170.048 350.593 170.794 350.98C171.541 351.367 172.134 351.94 172.574 352.7C173.014 353.46 173.234 354.387 173.234 355.48C173.234 356.573 173.014 357.5 172.574 358.26C172.134 359.02 171.541 359.6 170.794 360C170.048 360.4 169.208 360.6 168.274 360.6ZM168.414 359.34C169.188 359.34 169.874 359.18 170.474 358.86C171.074 358.527 171.548 358.073 171.894 357.5C172.241 356.913 172.414 356.24 172.414 355.48C172.414 354.72 172.241 354.053 171.894 353.48C171.548 352.907 171.074 352.46 170.474 352.14C169.874 351.807 169.188 351.64 168.414 351.64C167.654 351.64 166.968 351.807 166.354 352.14C165.754 352.46 165.281 352.907 164.934 353.48C164.601 354.053 164.434 354.72 164.434 355.48C164.434 356.24 164.601 356.913 164.934 357.5C165.281 358.073 165.754 358.527 166.354 358.86C166.968 359.18 167.654 359.34 168.414 359.34ZM177.746 361V350.5H179.106V353.36L178.966 352.86C179.259 352.06 179.752 351.453 180.446 351.04C181.139 350.613 181.999 350.4 183.026 350.4V351.78C182.972 351.78 182.919 351.78 182.866 351.78C182.812 351.767 182.759 351.76 182.706 351.76C181.599 351.76 180.732 352.1 180.106 352.78C179.479 353.447 179.166 354.4 179.166 355.64V361H177.746ZM191.415 361V358.68L191.355 358.3V354.42C191.355 353.527 191.102 352.84 190.595 352.36C190.102 351.88 189.362 351.64 188.375 351.64C187.695 351.64 187.049 351.753 186.435 351.98C185.822 352.207 185.302 352.507 184.875 352.88L184.235 351.82C184.769 351.367 185.409 351.02 186.155 350.78C186.902 350.527 187.689 350.4 188.515 350.4C189.875 350.4 190.922 350.74 191.655 351.42C192.402 352.087 192.775 353.107 192.775 354.48V361H191.415ZM187.795 361.1C187.009 361.1 186.322 360.973 185.735 360.72C185.162 360.453 184.722 360.093 184.415 359.64C184.109 359.173 183.955 358.64 183.955 358.04C183.955 357.493 184.082 357 184.335 356.56C184.602 356.107 185.029 355.747 185.615 355.48C186.215 355.2 187.015 355.06 188.015 355.06H191.635V356.12H188.055C187.042 356.12 186.335 356.3 185.935 356.66C185.549 357.02 185.355 357.467 185.355 358C185.355 358.6 185.589 359.08 186.055 359.44C186.522 359.8 187.175 359.98 188.015 359.98C188.815 359.98 189.502 359.8 190.075 359.44C190.662 359.067 191.089 358.533 191.355 357.84L191.675 358.82C191.409 359.513 190.942 360.067 190.275 360.48C189.622 360.893 188.795 361.1 187.795 361.1ZM209.752 350.4C210.606 350.4 211.346 350.567 211.972 350.9C212.612 351.22 213.106 351.713 213.452 352.38C213.812 353.047 213.992 353.887 213.992 354.9V361H212.572V355.04C212.572 353.933 212.306 353.1 211.772 352.54C211.252 351.967 210.512 351.68 209.552 351.68C208.832 351.68 208.206 351.833 207.672 352.14C207.152 352.433 206.746 352.867 206.452 353.44C206.172 354 206.032 354.68 206.032 355.48V361H204.612V355.04C204.612 353.933 204.346 353.1 203.812 352.54C203.279 351.967 202.532 351.68 201.572 351.68C200.866 351.68 200.246 351.833 199.712 352.14C199.179 352.433 198.766 352.867 198.472 353.44C198.192 354 198.052 354.68 198.052 355.48V361H196.632V350.5H197.992V353.34L197.772 352.84C198.092 352.08 198.606 351.487 199.312 351.06C200.032 350.62 200.879 350.4 201.852 350.4C202.879 350.4 203.752 350.66 204.472 351.18C205.192 351.687 205.659 352.453 205.872 353.48L205.312 353.26C205.619 352.407 206.159 351.72 206.932 351.2C207.719 350.667 208.659 350.4 209.752 350.4Z" fill="black"/>
<path d="M74.125 337.438H62.875V340.25H64.2812C64.9564 340.25 65.6217 340.411 66.2214 340.721C66.821 341.032 67.3375 341.481 67.7274 342.032C68.1173 342.583 68.3693 343.22 68.4621 343.889C68.555 344.557 68.486 345.239 68.2609 345.875H74.125V337.438ZM76.9375 365.562V359.938H81.1562C82.178 359.937 83.1649 359.566 83.9338 358.894C84.7027 358.221 85.2013 357.292 85.337 356.279C85.4727 355.267 85.2364 354.239 84.6718 353.388C84.1072 352.536 83.2528 351.918 82.2672 351.649C82.521 351.009 82.6144 350.317 82.539 349.632C82.4637 348.948 82.222 348.292 81.835 347.723C81.448 347.153 80.9276 346.687 80.319 346.365C79.7104 346.043 79.0323 345.875 78.3438 345.875H76.9375V337.438H81.1562C83.0211 337.438 84.8095 338.178 86.1281 339.497C87.4467 340.816 88.1875 342.604 88.1875 344.469V358.531C88.1875 360.396 87.4467 362.184 86.1281 363.503C84.8095 364.822 83.0211 365.562 81.1562 365.562H76.9375ZM71.3125 355.719C71.3125 355.227 71.3969 354.751 71.5516 354.312H67.0938C65.9749 354.312 64.9018 353.868 64.1106 353.077C63.3195 352.286 62.875 351.213 62.875 350.094V365.562H74.125V359.698C73.3021 359.408 72.5897 358.869 72.086 358.156C71.5823 357.443 71.312 356.592 71.3125 355.719ZM60.0625 348.688H55.8438C55.2897 348.688 54.7411 348.578 54.2293 348.366C53.7175 348.154 53.2524 347.844 52.8606 347.452C52.4689 347.06 52.1581 346.595 51.9461 346.083C51.7341 345.571 51.625 345.023 51.625 344.469C51.625 343.915 51.7341 343.366 51.9461 342.854C52.1581 342.342 52.4689 341.877 52.8606 341.486C53.2524 341.094 53.7175 340.783 54.2293 340.571C54.7411 340.359 55.2897 340.25 55.8438 340.25H60.0625V337.438H55.8438C53.9789 337.438 52.1905 338.178 50.8719 339.497C49.5533 340.816 48.8125 342.604 48.8125 344.469V358.531C48.8125 360.396 49.5533 362.184 50.8719 363.503C52.1905 364.822 53.9789 365.562 55.8438 365.562H60.0625V348.688ZM55.8438 343.062C55.4708 343.062 55.1131 343.211 54.8494 343.474C54.5857 343.738 54.4375 344.096 54.4375 344.469C54.4375 344.842 54.5857 345.199 54.8494 345.463C55.1131 345.727 55.4708 345.875 55.8438 345.875H64.2812C64.6542 345.875 65.0119 345.727 65.2756 345.463C65.5393 345.199 65.6875 344.842 65.6875 344.469C65.6875 344.096 65.5393 343.738 65.2756 343.474C65.0119 343.211 64.6542 343.062 64.2812 343.062H55.8438ZM67.0938 348.688C66.7208 348.688 66.3631 348.836 66.0994 349.099C65.8357 349.363 65.6875 349.721 65.6875 350.094C65.6875 350.467 65.8357 350.824 66.0994 351.088C66.3631 351.352 66.7208 351.5 67.0938 351.5H78.3438C78.7167 351.5 79.0744 351.352 79.3381 351.088C79.6018 350.824 79.75 350.467 79.75 350.094C79.75 349.721 79.6018 349.363 79.3381 349.099C79.0744 348.836 78.7167 348.688 78.3438 348.688H67.0938ZM75.5312 354.312C75.1583 354.312 74.8006 354.461 74.5369 354.724C74.2732 354.988 74.125 355.346 74.125 355.719C74.125 356.092 74.2732 356.449 74.5369 356.713C74.8006 356.977 75.1583 357.125 75.5312 357.125H81.1562C81.5292 357.125 81.8869 356.977 82.1506 356.713C82.4143 356.449 82.5625 356.092 82.5625 355.719C82.5625 355.346 82.4143 354.988 82.1506 354.724C81.8869 354.461 81.5292 354.312 81.1562 354.312H75.5312Z" fill="#1F4768"/>
<path d="M255.28 1036V1022H256.76V1034.72H264.6V1036H255.28ZM270.881 1036.1C269.868 1036.1 268.954 1035.87 268.141 1035.42C267.341 1034.95 266.708 1034.32 266.241 1033.52C265.774 1032.71 265.541 1031.78 265.541 1030.74C265.541 1029.69 265.774 1028.76 266.241 1027.96C266.708 1027.16 267.341 1026.53 268.141 1026.08C268.941 1025.63 269.854 1025.4 270.881 1025.4C271.921 1025.4 272.841 1025.63 273.641 1026.08C274.454 1026.53 275.088 1027.16 275.541 1027.96C276.008 1028.76 276.241 1029.69 276.241 1030.74C276.241 1031.78 276.008 1032.71 275.541 1033.52C275.088 1034.32 274.454 1034.95 273.641 1035.42C272.828 1035.87 271.908 1036.1 270.881 1036.1ZM270.881 1034.84C271.641 1034.84 272.314 1034.67 272.901 1034.34C273.488 1033.99 273.948 1033.51 274.281 1032.9C274.628 1032.27 274.801 1031.55 274.801 1030.74C274.801 1029.91 274.628 1029.19 274.281 1028.58C273.948 1027.97 273.488 1027.49 272.901 1027.16C272.314 1026.81 271.648 1026.64 270.901 1026.64C270.154 1026.64 269.488 1026.81 268.901 1027.16C268.314 1027.49 267.848 1027.97 267.501 1028.58C267.154 1029.19 266.981 1029.91 266.981 1030.74C266.981 1031.55 267.154 1032.27 267.501 1032.9C267.848 1033.51 268.314 1033.99 268.901 1034.34C269.488 1034.67 270.148 1034.84 270.881 1034.84ZM283.62 1039.98C282.66 1039.98 281.74 1039.84 280.86 1039.56C279.98 1039.28 279.267 1038.88 278.72 1038.36L279.44 1037.28C279.933 1037.72 280.54 1038.07 281.26 1038.32C281.993 1038.59 282.767 1038.72 283.58 1038.72C284.913 1038.72 285.893 1038.41 286.52 1037.78C287.147 1037.17 287.46 1036.21 287.46 1034.9V1032.28L287.66 1030.48L287.52 1028.68V1025.5H288.88V1034.72C288.88 1036.53 288.433 1037.86 287.54 1038.7C286.66 1039.55 285.353 1039.98 283.62 1039.98ZM283.36 1035.6C282.36 1035.6 281.46 1035.39 280.66 1034.96C279.86 1034.52 279.227 1033.91 278.76 1033.14C278.307 1032.37 278.08 1031.48 278.08 1030.48C278.08 1029.48 278.307 1028.6 278.76 1027.84C279.227 1027.07 279.86 1026.47 280.66 1026.04C281.46 1025.61 282.36 1025.4 283.36 1025.4C284.293 1025.4 285.133 1025.59 285.88 1025.98C286.627 1026.37 287.22 1026.94 287.66 1027.7C288.1 1028.46 288.32 1029.39 288.32 1030.48C288.32 1031.57 288.1 1032.5 287.66 1033.26C287.22 1034.02 286.627 1034.6 285.88 1035C285.133 1035.4 284.293 1035.6 283.36 1035.6ZM283.5 1034.34C284.273 1034.34 284.96 1034.18 285.56 1033.86C286.16 1033.53 286.633 1033.07 286.98 1032.5C287.327 1031.91 287.5 1031.24 287.5 1030.48C287.5 1029.72 287.327 1029.05 286.98 1028.48C286.633 1027.91 286.16 1027.46 285.56 1027.14C284.96 1026.81 284.273 1026.64 283.5 1026.64C282.74 1026.64 282.053 1026.81 281.44 1027.14C280.84 1027.46 280.367 1027.91 280.02 1028.48C279.687 1029.05 279.52 1029.72 279.52 1030.48C279.52 1031.24 279.687 1031.91 280.02 1032.5C280.367 1033.07 280.84 1033.53 281.44 1033.86C282.053 1034.18 282.74 1034.34 283.5 1034.34ZM302.346 1036.1C301.333 1036.1 300.419 1035.87 299.606 1035.42C298.806 1034.95 298.173 1034.32 297.706 1033.52C297.239 1032.71 297.006 1031.78 297.006 1030.74C297.006 1029.69 297.239 1028.76 297.706 1027.96C298.173 1027.16 298.806 1026.53 299.606 1026.08C300.406 1025.63 301.319 1025.4 302.346 1025.4C303.386 1025.4 304.306 1025.63 305.106 1026.08C305.919 1026.53 306.553 1027.16 307.006 1027.96C307.473 1028.76 307.706 1029.69 307.706 1030.74C307.706 1031.78 307.473 1032.71 307.006 1033.52C306.553 1034.32 305.919 1034.95 305.106 1035.42C304.293 1035.87 303.373 1036.1 302.346 1036.1ZM302.346 1034.84C303.106 1034.84 303.779 1034.67 304.366 1034.34C304.953 1033.99 305.413 1033.51 305.746 1032.9C306.093 1032.27 306.266 1031.55 306.266 1030.74C306.266 1029.91 306.093 1029.19 305.746 1028.58C305.413 1027.97 304.953 1027.49 304.366 1027.16C303.779 1026.81 303.113 1026.64 302.366 1026.64C301.619 1026.64 300.953 1026.81 300.366 1027.16C299.779 1027.49 299.313 1027.97 298.966 1028.58C298.619 1029.19 298.446 1029.91 298.446 1030.74C298.446 1031.55 298.619 1032.27 298.966 1032.9C299.313 1033.51 299.779 1033.99 300.366 1034.34C300.953 1034.67 301.613 1034.84 302.346 1034.84ZM314.945 1036.1C314.052 1036.1 313.272 1035.93 312.605 1035.6C311.938 1035.27 311.418 1034.77 311.045 1034.1C310.685 1033.43 310.505 1032.6 310.505 1031.6V1025.5H311.925V1031.44C311.925 1032.56 312.198 1033.41 312.745 1033.98C313.305 1034.54 314.085 1034.82 315.085 1034.82C315.818 1034.82 316.452 1034.67 316.985 1034.38C317.532 1034.07 317.945 1033.63 318.225 1033.06C318.518 1032.49 318.665 1031.8 318.665 1031V1025.5H320.085V1036H318.725V1033.12L318.945 1033.64C318.612 1034.41 318.092 1035.02 317.385 1035.46C316.692 1035.89 315.878 1036.1 314.945 1036.1ZM327.363 1036.1C326.376 1036.1 325.616 1035.83 325.083 1035.3C324.549 1034.77 324.283 1034.01 324.283 1033.04V1023.18H325.703V1032.96C325.703 1033.57 325.856 1034.05 326.163 1034.38C326.483 1034.71 326.936 1034.88 327.523 1034.88C328.149 1034.88 328.669 1034.7 329.083 1034.34L329.583 1035.36C329.303 1035.61 328.963 1035.8 328.563 1035.92C328.176 1036.04 327.776 1036.1 327.363 1036.1ZM322.403 1026.68V1025.5H328.903V1026.68H322.403Z" fill="black"/>
<path d="M78.8752 479C78.8752 478.636 78.8594 478.288 78.8277 477.923L81.7727 475.691C82.406 475.216 82.5802 474.329 82.1844 473.633L79.2235 468.518C79.0337 468.183 78.7266 467.93 78.3613 467.807C77.996 467.684 77.5982 467.701 77.2444 467.853L73.8402 469.294C73.2544 468.883 72.6369 468.518 71.9877 468.218L71.5285 464.56C71.4335 463.768 70.7527 463.167 69.961 463.167H64.0552C63.2477 463.167 62.5669 463.768 62.4719 464.56L62.0127 468.218C61.3635 468.518 60.746 468.883 60.1602 469.294L56.756 467.853C56.0277 467.537 55.1727 467.822 54.7769 468.518L51.816 473.648C51.4202 474.345 51.5944 475.216 52.2277 475.707L55.1727 477.939C55.1071 478.65 55.1071 479.366 55.1727 480.077L52.2277 482.309C51.5944 482.784 51.4202 483.671 51.816 484.368L54.7769 489.482C55.1727 490.178 56.0277 490.463 56.756 490.147L60.1602 488.706C60.746 489.118 61.3635 489.482 62.0127 489.783L62.4719 493.44C62.5669 494.232 63.2477 494.833 64.0394 494.833H69.9452C70.7369 494.833 71.4177 494.232 71.5127 493.44L71.9719 489.783C72.621 489.482 73.2385 489.118 73.8244 488.706L77.2285 490.147C77.9569 490.463 78.8119 490.178 79.2077 489.482L82.1685 484.368C82.5644 483.671 82.3902 482.8 81.7569 482.309L78.8119 480.077C78.8594 479.713 78.8752 479.364 78.8752 479ZM67.0635 484.542C64.0077 484.542 61.5219 482.056 61.5219 479C61.5219 475.944 64.0077 473.458 67.0635 473.458C70.1194 473.458 72.6052 475.944 72.6052 479C72.6052 482.056 70.1194 484.542 67.0635 484.542Z" fill="#1F4768"/>
<path d="M110.14 486.12C109.1 486.12 108.1 485.953 107.14 485.62C106.193 485.273 105.46 484.833 104.94 484.3L105.52 483.16C106.013 483.64 106.673 484.047 107.5 484.38C108.34 484.7 109.22 484.86 110.14 484.86C111.02 484.86 111.733 484.753 112.28 484.54C112.84 484.313 113.247 484.013 113.5 483.64C113.767 483.267 113.9 482.853 113.9 482.4C113.9 481.853 113.74 481.413 113.42 481.08C113.113 480.747 112.707 480.487 112.2 480.3C111.693 480.1 111.133 479.927 110.52 479.78C109.907 479.633 109.293 479.48 108.68 479.32C108.067 479.147 107.5 478.92 106.98 478.64C106.473 478.36 106.06 477.993 105.74 477.54C105.433 477.073 105.28 476.467 105.28 475.72C105.28 475.027 105.46 474.393 105.82 473.82C106.193 473.233 106.76 472.767 107.52 472.42C108.28 472.06 109.253 471.88 110.44 471.88C111.227 471.88 112.007 471.993 112.78 472.22C113.553 472.433 114.22 472.733 114.78 473.12L114.28 474.3C113.68 473.9 113.04 473.607 112.36 473.42C111.693 473.233 111.047 473.14 110.42 473.14C109.58 473.14 108.887 473.253 108.34 473.48C107.793 473.707 107.387 474.013 107.12 474.4C106.867 474.773 106.74 475.2 106.74 475.68C106.74 476.227 106.893 476.667 107.2 477C107.52 477.333 107.933 477.593 108.44 477.78C108.96 477.967 109.527 478.133 110.14 478.28C110.753 478.427 111.36 478.587 111.96 478.76C112.573 478.933 113.133 479.16 113.64 479.44C114.16 479.707 114.573 480.067 114.88 480.52C115.2 480.973 115.36 481.567 115.36 482.3C115.36 482.98 115.173 483.613 114.8 484.2C114.427 484.773 113.853 485.24 113.08 485.6C112.32 485.947 111.34 486.12 110.14 486.12ZM122.745 486.1C121.651 486.1 120.691 485.873 119.865 485.42C119.038 484.953 118.391 484.32 117.925 483.52C117.458 482.707 117.225 481.78 117.225 480.74C117.225 479.7 117.445 478.78 117.885 477.98C118.338 477.18 118.951 476.553 119.725 476.1C120.511 475.633 121.391 475.4 122.365 475.4C123.351 475.4 124.225 475.627 124.985 476.08C125.758 476.52 126.365 477.147 126.805 477.96C127.245 478.76 127.465 479.687 127.465 480.74C127.465 480.807 127.458 480.88 127.445 480.96C127.445 481.027 127.445 481.1 127.445 481.18H118.305V480.12H126.685L126.125 480.54C126.125 479.78 125.958 479.107 125.625 478.52C125.305 477.92 124.865 477.453 124.305 477.12C123.745 476.787 123.098 476.62 122.365 476.62C121.645 476.62 120.998 476.787 120.425 477.12C119.851 477.453 119.405 477.92 119.085 478.52C118.765 479.12 118.605 479.807 118.605 480.58V480.8C118.605 481.6 118.778 482.307 119.125 482.92C119.485 483.52 119.978 483.993 120.605 484.34C121.245 484.673 121.971 484.84 122.785 484.84C123.425 484.84 124.018 484.727 124.565 484.5C125.125 484.273 125.605 483.927 126.005 483.46L126.805 484.38C126.338 484.94 125.751 485.367 125.045 485.66C124.351 485.953 123.585 486.1 122.745 486.1ZM133.675 486.1C132.688 486.1 131.928 485.833 131.395 485.3C130.862 484.767 130.595 484.013 130.595 483.04V473.18H132.015V482.96C132.015 483.573 132.168 484.047 132.475 484.38C132.795 484.713 133.248 484.88 133.835 484.88C134.462 484.88 134.982 484.7 135.395 484.34L135.895 485.36C135.615 485.613 135.275 485.8 134.875 485.92C134.488 486.04 134.088 486.1 133.675 486.1ZM128.715 476.68V475.5H135.215V476.68H128.715ZM141.527 486.1C140.54 486.1 139.78 485.833 139.247 485.3C138.713 484.767 138.447 484.013 138.447 483.04V473.18H139.867V482.96C139.867 483.573 140.02 484.047 140.327 484.38C140.647 484.713 141.1 484.88 141.687 484.88C142.313 484.88 142.833 484.7 143.247 484.34L143.747 485.36C143.467 485.613 143.127 485.8 142.727 485.92C142.34 486.04 141.94 486.1 141.527 486.1ZM136.567 476.68V475.5H143.067V476.68H136.567ZM146.332 486V475.5H147.752V486H146.332ZM147.052 473.18C146.758 473.18 146.512 473.08 146.312 472.88C146.112 472.68 146.012 472.44 146.012 472.16C146.012 471.88 146.112 471.647 146.312 471.46C146.512 471.26 146.758 471.16 147.052 471.16C147.345 471.16 147.592 471.253 147.792 471.44C147.992 471.627 148.092 471.86 148.092 472.14C148.092 472.433 147.992 472.68 147.792 472.88C147.605 473.08 147.358 473.18 147.052 473.18ZM157.063 475.4C157.916 475.4 158.663 475.567 159.303 475.9C159.956 476.22 160.463 476.713 160.823 477.38C161.196 478.047 161.383 478.887 161.383 479.9V486H159.963V480.04C159.963 478.933 159.683 478.1 159.123 477.54C158.576 476.967 157.803 476.68 156.803 476.68C156.056 476.68 155.403 476.833 154.843 477.14C154.296 477.433 153.869 477.867 153.563 478.44C153.269 479 153.123 479.68 153.123 480.48V486H151.703V475.5H153.063V478.38L152.843 477.84C153.176 477.08 153.709 476.487 154.443 476.06C155.176 475.62 156.049 475.4 157.063 475.4ZM169.698 489.98C168.738 489.98 167.818 489.84 166.938 489.56C166.058 489.28 165.345 488.88 164.798 488.36L165.518 487.28C166.012 487.72 166.618 488.067 167.338 488.32C168.072 488.587 168.845 488.72 169.658 488.72C170.992 488.72 171.972 488.407 172.598 487.78C173.225 487.167 173.538 486.207 173.538 484.9V482.28L173.738 480.48L173.598 478.68V475.5H174.958V484.72C174.958 486.533 174.512 487.86 173.618 488.7C172.738 489.553 171.432 489.98 169.698 489.98ZM169.438 485.6C168.438 485.6 167.538 485.387 166.738 484.96C165.938 484.52 165.305 483.913 164.838 483.14C164.385 482.367 164.158 481.48 164.158 480.48C164.158 479.48 164.385 478.6 164.838 477.84C165.305 477.067 165.938 476.467 166.738 476.04C167.538 475.613 168.438 475.4 169.438 475.4C170.372 475.4 171.212 475.593 171.958 475.98C172.705 476.367 173.298 476.94 173.738 477.7C174.178 478.46 174.398 479.387 174.398 480.48C174.398 481.573 174.178 482.5 173.738 483.26C173.298 484.02 172.705 484.6 171.958 485C171.212 485.4 170.372 485.6 169.438 485.6ZM169.578 484.34C170.352 484.34 171.038 484.18 171.638 483.86C172.238 483.527 172.712 483.073 173.058 482.5C173.405 481.913 173.578 481.24 173.578 480.48C173.578 479.72 173.405 479.053 173.058 478.48C172.712 477.907 172.238 477.46 171.638 477.14C171.038 476.807 170.352 476.64 169.578 476.64C168.818 476.64 168.132 476.807 167.518 477.14C166.918 477.46 166.445 477.907 166.098 478.48C165.765 479.053 165.598 479.72 165.598 480.48C165.598 481.24 165.765 481.913 166.098 482.5C166.445 483.073 166.918 483.527 167.518 483.86C168.132 484.18 168.818 484.34 169.578 484.34ZM181.73 486.1C180.863 486.1 180.043 485.98 179.27 485.74C178.496 485.487 177.89 485.173 177.45 484.8L178.09 483.68C178.516 484 179.063 484.28 179.73 484.52C180.396 484.747 181.096 484.86 181.83 484.86C182.83 484.86 183.55 484.707 183.99 484.4C184.43 484.08 184.65 483.66 184.65 483.14C184.65 482.753 184.523 482.453 184.27 482.24C184.03 482.013 183.71 481.847 183.31 481.74C182.91 481.62 182.463 481.52 181.97 481.44C181.476 481.36 180.983 481.267 180.49 481.16C180.01 481.053 179.57 480.9 179.17 480.7C178.77 480.487 178.443 480.2 178.19 479.84C177.95 479.48 177.83 479 177.83 478.4C177.83 477.827 177.99 477.313 178.31 476.86C178.63 476.407 179.096 476.053 179.71 475.8C180.336 475.533 181.096 475.4 181.99 475.4C182.67 475.4 183.35 475.493 184.03 475.68C184.71 475.853 185.27 476.087 185.71 476.38L185.09 477.52C184.623 477.2 184.123 476.973 183.59 476.84C183.056 476.693 182.523 476.62 181.99 476.62C181.043 476.62 180.343 476.787 179.89 477.12C179.45 477.44 179.23 477.853 179.23 478.36C179.23 478.76 179.35 479.073 179.59 479.3C179.843 479.527 180.17 479.707 180.57 479.84C180.983 479.96 181.43 480.06 181.91 480.14C182.403 480.22 182.89 480.32 183.37 480.44C183.863 480.547 184.31 480.7 184.71 480.9C185.123 481.087 185.45 481.36 185.69 481.72C185.943 482.067 186.07 482.527 186.07 483.1C186.07 483.713 185.896 484.247 185.55 484.7C185.216 485.14 184.723 485.487 184.07 485.74C183.43 485.98 182.65 486.1 181.73 486.1Z" fill="black"/>
<path d="M35.36 424.24C34.28 424.24 33.2733 424.067 32.34 423.72C31.42 423.36 30.62 422.853 29.94 422.2C29.26 421.547 28.7267 420.78 28.34 419.9C27.9667 419.02 27.78 418.053 27.78 417C27.78 415.947 27.9667 414.98 28.34 414.1C28.7267 413.22 29.26 412.453 29.94 411.8C30.6333 411.147 31.44 410.647 32.36 410.3C33.28 409.94 34.2867 409.76 35.38 409.76C36.5933 409.76 37.6867 409.973 38.66 410.4C39.6467 410.813 40.4733 411.427 41.14 412.24L39.06 414.16C38.58 413.613 38.0467 413.207 37.46 412.94C36.8733 412.66 36.2333 412.52 35.54 412.52C34.8867 412.52 34.2867 412.627 33.74 412.84C33.1933 413.053 32.72 413.36 32.32 413.76C31.92 414.16 31.6067 414.633 31.38 415.18C31.1667 415.727 31.06 416.333 31.06 417C31.06 417.667 31.1667 418.273 31.38 418.82C31.6067 419.367 31.92 419.84 32.32 420.24C32.72 420.64 33.1933 420.947 33.74 421.16C34.2867 421.373 34.8867 421.48 35.54 421.48C36.2333 421.48 36.8733 421.347 37.46 421.08C38.0467 420.8 38.58 420.38 39.06 419.82L41.14 421.74C40.4733 422.553 39.6467 423.173 38.66 423.6C37.6867 424.027 36.5867 424.24 35.36 424.24ZM47.8569 424.16C46.7102 424.16 45.6902 423.92 44.7969 423.44C43.9169 422.96 43.2169 422.307 42.6969 421.48C42.1902 420.64 41.9369 419.687 41.9369 418.62C41.9369 417.54 42.1902 416.587 42.6969 415.76C43.2169 414.92 43.9169 414.267 44.7969 413.8C45.6902 413.32 46.7102 413.08 47.8569 413.08C48.9902 413.08 50.0035 413.32 50.8969 413.8C51.7902 414.267 52.4902 414.913 52.9969 415.74C53.5035 416.567 53.7569 417.527 53.7569 418.62C53.7569 419.687 53.5035 420.64 52.9969 421.48C52.4902 422.307 51.7902 422.96 50.8969 423.44C50.0035 423.92 48.9902 424.16 47.8569 424.16ZM47.8569 421.6C48.3769 421.6 48.8435 421.48 49.2569 421.24C49.6702 421 49.9969 420.66 50.2369 420.22C50.4769 419.767 50.5969 419.233 50.5969 418.62C50.5969 417.993 50.4769 417.46 50.2369 417.02C49.9969 416.58 49.6702 416.24 49.2569 416C48.8435 415.76 48.3769 415.64 47.8569 415.64C47.3369 415.64 46.8702 415.76 46.4569 416C46.0435 416.24 45.7102 416.58 45.4569 417.02C45.2169 417.46 45.0969 417.993 45.0969 418.62C45.0969 419.233 45.2169 419.767 45.4569 420.22C45.7102 420.66 46.0435 421 46.4569 421.24C46.8702 421.48 47.3369 421.6 47.8569 421.6ZM62.3823 413.08C63.2357 413.08 63.9957 413.253 64.6623 413.6C65.3423 413.933 65.8757 414.453 66.2623 415.16C66.649 415.853 66.8423 416.747 66.8423 417.84V424H63.7223V418.32C63.7223 417.453 63.529 416.813 63.1423 416.4C62.769 415.987 62.2357 415.78 61.5423 415.78C61.049 415.78 60.6023 415.887 60.2023 416.1C59.8157 416.3 59.509 416.613 59.2823 417.04C59.069 417.467 58.9623 418.013 58.9623 418.68V424H55.8423V413.24H58.8223V416.22L58.2623 415.32C58.649 414.6 59.2023 414.047 59.9223 413.66C60.6423 413.273 61.4623 413.08 62.3823 413.08ZM70.0505 424V413C70.0505 411.787 70.4105 410.82 71.1305 410.1C71.8505 409.367 72.8771 409 74.2105 409C74.6638 409 75.0971 409.047 75.5105 409.14C75.9371 409.233 76.2971 409.38 76.5905 409.58L75.7705 411.84C75.5971 411.72 75.4038 411.627 75.1905 411.56C74.9771 411.493 74.7505 411.46 74.5105 411.46C74.0571 411.46 73.7038 411.593 73.4505 411.86C73.2105 412.113 73.0905 412.5 73.0905 413.02V414.02L73.1705 415.36V424H70.0505ZM68.3905 415.88V413.48H75.8505V415.88H68.3905ZM77.6105 424V413.24H80.7305V424H77.6105ZM79.1705 411.74C78.5971 411.74 78.1305 411.573 77.7705 411.24C77.4105 410.907 77.2305 410.493 77.2305 410C77.2305 409.507 77.4105 409.093 77.7705 408.76C78.1305 408.427 78.5971 408.26 79.1705 408.26C79.7438 408.26 80.2105 408.42 80.5705 408.74C80.9305 409.047 81.1105 409.447 81.1105 409.94C81.1105 410.46 80.9305 410.893 80.5705 411.24C80.2238 411.573 79.7571 411.74 79.1705 411.74ZM88.6758 428.04C87.6624 428.04 86.6824 427.913 85.7358 427.66C84.8024 427.42 84.0224 427.053 83.3958 426.56L84.6358 424.32C85.0891 424.693 85.6624 424.987 86.3558 425.2C87.0624 425.427 87.7558 425.54 88.4358 425.54C89.5424 425.54 90.3424 425.293 90.8358 424.8C91.3424 424.307 91.5958 423.573 91.5958 422.6V420.98L91.7958 418.28L91.7558 415.56V413.24H94.7158V422.2C94.7158 424.2 94.1958 425.673 93.1558 426.62C92.1158 427.567 90.6224 428.04 88.6758 428.04ZM88.1958 423.48C87.1958 423.48 86.2891 423.267 85.4758 422.84C84.6758 422.4 84.0291 421.793 83.5358 421.02C83.0558 420.233 82.8158 419.32 82.8158 418.28C82.8158 417.227 83.0558 416.313 83.5358 415.54C84.0291 414.753 84.6758 414.147 85.4758 413.72C86.2891 413.293 87.1958 413.08 88.1958 413.08C89.1024 413.08 89.9024 413.267 90.5958 413.64C91.2891 414 91.8291 414.567 92.2158 415.34C92.6024 416.1 92.7958 417.08 92.7958 418.28C92.7958 419.467 92.6024 420.447 92.2158 421.22C91.8291 421.98 91.2891 422.547 90.5958 422.92C89.9024 423.293 89.1024 423.48 88.1958 423.48ZM88.8158 420.92C89.3624 420.92 89.8491 420.813 90.2758 420.6C90.7024 420.373 91.0358 420.06 91.2758 419.66C91.5158 419.26 91.6358 418.8 91.6358 418.28C91.6358 417.747 91.5158 417.287 91.2758 416.9C91.0358 416.5 90.7024 416.193 90.2758 415.98C89.8491 415.753 89.3624 415.64 88.8158 415.64C88.2691 415.64 87.7824 415.753 87.3558 415.98C86.9291 416.193 86.5891 416.5 86.3358 416.9C86.0958 417.287 85.9758 417.747 85.9758 418.28C85.9758 418.8 86.0958 419.26 86.3358 419.66C86.5891 420.06 86.9291 420.373 87.3558 420.6C87.7824 420.813 88.2691 420.92 88.8158 420.92Z" fill="black"/>
<path d="M358.493 54.173C358.801 54.4812 358.974 54.8992 358.974 55.3351C358.974 55.7709 358.801 56.189 358.493 56.4972C358.185 56.8054 357.767 56.9785 357.331 56.9785C356.895 56.9785 356.477 56.8054 356.169 56.4972L347.489 47.8142L338.806 56.4944C338.497 56.8027 338.079 56.9758 337.643 56.9758C337.208 56.9758 336.79 56.8027 336.481 56.4944C336.173 56.1862 336 55.7682 336 55.3323C336 54.8965 336.173 54.4784 336.481 54.1702L345.164 45.49L336.484 36.8069C336.176 36.4987 336.003 36.0807 336.003 35.6448C336.003 35.209 336.176 34.7909 336.484 34.4827C336.792 34.1745 337.21 34.0014 337.646 34.0014C338.082 34.0014 338.5 34.1745 338.808 34.4827L347.489 43.1657L356.172 34.4814C356.48 34.1732 356.898 34 357.334 34C357.77 34 358.188 34.1732 358.496 34.4814C358.804 34.7896 358.977 35.2076 358.977 35.6435C358.977 36.0793 358.804 36.4974 358.496 36.8056L349.813 45.49L358.493 54.173Z" fill="#1F4768"/>
<path d="M67 553C64.8 553 62.9167 552.217 61.35 550.65C59.7833 549.083 59 547.2 59 545C59 542.8 59.7833 540.917 61.35 539.35C62.9167 537.783 64.8 537 67 537C69.2 537 71.0833 537.783 72.65 539.35C74.2167 540.917 75 542.8 75 545C75 547.2 74.2167 549.083 72.65 550.65C71.0833 552.217 69.2 553 67 553ZM51 569V563.4C51 562.267 51.292 561.225 51.876 560.276C52.46 559.327 53.2347 558.601 54.2 558.1C56.2667 557.067 58.3667 556.292 60.5 555.776C62.6333 555.26 64.8 555.001 67 555C69.2 555 71.3667 555.259 73.5 555.776C75.6333 556.293 77.7333 557.068 79.8 558.1C80.7667 558.6 81.542 559.325 82.126 560.276C82.71 561.227 83.0013 562.268 83 563.4V569H51Z" fill="#1F4768"/>
<path d="M106.28 565V551H111.52C112.707 551 113.727 551.193 114.58 551.58C115.433 551.953 116.087 552.5 116.54 553.22C117.007 553.927 117.24 554.787 117.24 555.8C117.24 556.787 117.007 557.64 116.54 558.36C116.087 559.067 115.433 559.613 114.58 560C113.727 560.387 112.707 560.58 111.52 560.58H107.1L107.76 559.88V565H106.28ZM107.76 560L107.1 559.28H111.48C112.88 559.28 113.94 558.98 114.66 558.38C115.393 557.767 115.76 556.907 115.76 555.8C115.76 554.68 115.393 553.813 114.66 553.2C113.94 552.587 112.88 552.28 111.48 552.28H107.1L107.76 551.58V560ZM119.886 565V554.5H121.246V557.36L121.106 556.86C121.4 556.06 121.893 555.453 122.586 555.04C123.28 554.613 124.14 554.4 125.166 554.4V555.78C125.113 555.78 125.06 555.78 125.006 555.78C124.953 555.767 124.9 555.76 124.846 555.76C123.74 555.76 122.873 556.1 122.246 556.78C121.62 557.447 121.306 558.4 121.306 559.64V565H119.886ZM131.94 565.1C130.926 565.1 130.013 564.873 129.2 564.42C128.4 563.953 127.766 563.32 127.3 562.52C126.833 561.707 126.6 560.78 126.6 559.74C126.6 558.687 126.833 557.76 127.3 556.96C127.766 556.16 128.4 555.533 129.2 555.08C130 554.627 130.913 554.4 131.94 554.4C132.98 554.4 133.9 554.627 134.7 555.08C135.513 555.533 136.146 556.16 136.6 556.96C137.066 557.76 137.3 558.687 137.3 559.74C137.3 560.78 137.066 561.707 136.6 562.52C136.146 563.32 135.513 563.953 134.7 564.42C133.886 564.873 132.966 565.1 131.94 565.1ZM131.94 563.84C132.7 563.84 133.373 563.673 133.96 563.34C134.546 562.993 135.006 562.513 135.34 561.9C135.686 561.273 135.86 560.553 135.86 559.74C135.86 558.913 135.686 558.193 135.34 557.58C135.006 556.967 134.546 556.493 133.96 556.16C133.373 555.813 132.706 555.64 131.96 555.64C131.213 555.64 130.546 555.813 129.96 556.16C129.373 556.493 128.906 556.967 128.56 557.58C128.213 558.193 128.04 558.913 128.04 559.74C128.04 560.553 128.213 561.273 128.56 561.9C128.906 562.513 129.373 562.993 129.96 563.34C130.546 563.673 131.206 563.84 131.94 563.84ZM140.439 565V553.18C140.439 552.247 140.712 551.493 141.259 550.92C141.805 550.347 142.592 550.06 143.619 550.06C144.019 550.06 144.405 550.113 144.779 550.22C145.152 550.327 145.465 550.493 145.719 550.72L145.239 551.78C145.039 551.607 144.805 551.48 144.539 551.4C144.272 551.307 143.985 551.26 143.679 551.26C143.079 551.26 142.619 551.427 142.299 551.76C141.979 552.093 141.819 552.587 141.819 553.24V554.84L141.859 555.5V565H140.439ZM138.559 555.68V554.5H145.059V555.68H138.559ZM146.979 565V554.5H148.399V565H146.979ZM147.699 552.18C147.405 552.18 147.159 552.08 146.959 551.88C146.759 551.68 146.659 551.44 146.659 551.16C146.659 550.88 146.759 550.647 146.959 550.46C147.159 550.26 147.405 550.16 147.699 550.16C147.992 550.16 148.239 550.253 148.439 550.44C148.639 550.627 148.739 550.86 148.739 551.14C148.739 551.433 148.639 551.68 148.439 551.88C148.252 552.08 148.005 552.18 147.699 552.18ZM152.386 565V550.16H153.806V565H152.386ZM162.217 565.1C161.124 565.1 160.164 564.873 159.337 564.42C158.511 563.953 157.864 563.32 157.397 562.52C156.931 561.707 156.697 560.78 156.697 559.74C156.697 558.7 156.917 557.78 157.357 556.98C157.811 556.18 158.424 555.553 159.197 555.1C159.984 554.633 160.864 554.4 161.837 554.4C162.824 554.4 163.697 554.627 164.457 555.08C165.231 555.52 165.837 556.147 166.277 556.96C166.717 557.76 166.937 558.687 166.937 559.74C166.937 559.807 166.931 559.88 166.917 559.96C166.917 560.027 166.917 560.1 166.917 560.18H157.777V559.12H166.157L165.597 559.54C165.597 558.78 165.431 558.107 165.097 557.52C164.777 556.92 164.337 556.453 163.777 556.12C163.217 555.787 162.571 555.62 161.837 555.62C161.117 555.62 160.471 555.787 159.897 556.12C159.324 556.453 158.877 556.92 158.557 557.52C158.237 558.12 158.077 558.807 158.077 559.58V559.8C158.077 560.6 158.251 561.307 158.597 561.92C158.957 562.52 159.451 562.993 160.077 563.34C160.717 563.673 161.444 563.84 162.257 563.84C162.897 563.84 163.491 563.727 164.037 563.5C164.597 563.273 165.077 562.927 165.477 562.46L166.277 563.38C165.811 563.94 165.224 564.367 164.517 564.66C163.824 564.953 163.057 565.1 162.217 565.1Z" fill="black"/>
<defs>
<clipPath id="clip0_166_302">
<rect width="34" height="34" fill="white" transform="translate(50 199)"/>
</clipPath>
<clipPath id="clip1_166_302">
<rect width="34" height="34" fill="white" transform="translate(50 264)"/>
</clipPath>
</defs>
</svg>
