<svg width="298" height="87" viewBox="0 0 298 87" fill="none" xmlns="http://www.w3.org/2000/svg">
<rect width="298" height="87" rx="7" fill="#CFF4FC"/>
<path d="M17.9594 20.2646C17.9225 19.8922 17.764 19.6029 17.4839 19.3967C17.2039 19.1905 16.8238 19.0874 16.3437 19.0874C16.0174 19.0874 15.742 19.1335 15.5173 19.2259C15.2926 19.3151 15.1203 19.4397 15.0003 19.5998C14.8833 19.7598 14.8248 19.9414 14.8248 20.1445C14.8187 20.3138 14.8541 20.4615 14.931 20.5877C15.011 20.7139 15.1203 20.8232 15.2588 20.9155C15.3973 21.0047 15.5573 21.0832 15.7389 21.1509C15.9205 21.2156 16.1144 21.271 16.3206 21.3171L17.17 21.5202C17.5824 21.6126 17.961 21.7357 18.3057 21.8896C18.6504 22.0434 18.9489 22.2327 19.2013 22.4574C19.4536 22.6821 19.6491 22.9467 19.7876 23.2514C19.9291 23.5561 20.0015 23.9054 20.0045 24.2994C20.0015 24.878 19.8537 25.3796 19.5613 25.8043C19.272 26.226 18.8535 26.5537 18.3057 26.7876C17.7609 27.0185 17.1038 27.1339 16.3344 27.1339C15.5712 27.1339 14.9064 27.0169 14.3401 26.783C13.7769 26.5491 13.3368 26.2029 13.0198 25.7443C12.7059 25.2827 12.5412 24.7118 12.5258 24.0316H14.4601C14.4817 24.3486 14.5725 24.6133 14.7325 24.8256C14.8956 25.0349 15.1126 25.1934 15.3834 25.3011C15.6573 25.4058 15.9666 25.4581 16.3113 25.4581C16.6499 25.4581 16.9438 25.4089 17.1931 25.3104C17.4455 25.2119 17.6409 25.0749 17.7794 24.8995C17.9179 24.7241 17.9871 24.5225 17.9871 24.2947C17.9871 24.0824 17.924 23.9039 17.7979 23.7592C17.6747 23.6146 17.4932 23.4915 17.2531 23.3899C17.0161 23.2884 16.7253 23.196 16.3806 23.1129L15.3511 22.8544C14.554 22.6605 13.9246 22.3574 13.463 21.945C13.0013 21.5326 12.772 20.977 12.7751 20.2784C12.772 19.706 12.9244 19.2058 13.2322 18.7781C13.543 18.3503 13.9693 18.0163 14.5109 17.7763C15.0526 17.5362 15.6681 17.4162 16.3575 17.4162C17.0592 17.4162 17.6717 17.5362 18.1949 17.7763C18.7211 18.0163 19.1305 18.3503 19.4229 18.7781C19.7152 19.2058 19.866 19.7013 19.8753 20.2646H17.9594ZM25.8594 23.9808V19.9091H27.826V27H25.9379V25.712H25.864C25.704 26.1275 25.4377 26.4614 25.0653 26.7138C24.696 26.9661 24.2451 27.0923 23.7127 27.0923C23.2388 27.0923 22.8217 26.9846 22.4616 26.7692C22.1016 26.5537 21.82 26.2475 21.6168 25.8505C21.4168 25.4535 21.3152 24.978 21.3121 24.424V19.9091H23.2788V24.0732C23.2818 24.4917 23.3942 24.8226 23.6158 25.0657C23.8374 25.3088 24.1344 25.4304 24.5067 25.4304C24.7437 25.4304 24.9653 25.3765 25.1715 25.2688C25.3777 25.158 25.5439 24.9949 25.6701 24.7795C25.7994 24.564 25.8625 24.2978 25.8594 23.9808ZM32.6029 27.1385C31.8766 27.1385 31.2518 26.9846 30.7286 26.6768C30.2085 26.366 29.8084 25.9351 29.5283 25.3842C29.2513 24.8333 29.1128 24.1993 29.1128 23.4822C29.1128 22.7559 29.2529 22.1188 29.5329 21.571C29.8161 21.0201 30.2177 20.5908 30.7378 20.283C31.258 19.9722 31.8766 19.8168 32.5937 19.8168C33.2123 19.8168 33.7539 19.9291 34.2187 20.1538C34.6834 20.3784 35.0512 20.6939 35.322 21.1001C35.5928 21.5064 35.7421 21.9834 35.7698 22.5312H33.914C33.8617 22.1773 33.7232 21.8926 33.4985 21.6772C33.2769 21.4587 32.9861 21.3494 32.626 21.3494C32.3213 21.3494 32.0551 21.4325 31.8273 21.5987C31.6027 21.7618 31.4272 22.0004 31.301 22.3143C31.1749 22.6282 31.1118 23.0083 31.1118 23.4545C31.1118 23.907 31.1733 24.2917 31.2964 24.6087C31.4226 24.9257 31.5996 25.1673 31.8273 25.3335C32.0551 25.4996 32.3213 25.5827 32.626 25.5827C32.8506 25.5827 33.0522 25.5366 33.2307 25.4442C33.4123 25.3519 33.5616 25.218 33.6785 25.0426C33.7986 24.8641 33.877 24.6502 33.914 24.4009H35.7698C35.739 24.9426 35.5913 25.4196 35.3266 25.832C35.065 26.2414 34.7034 26.5614 34.2417 26.7923C33.7801 27.0231 33.2338 27.1385 32.6029 27.1385ZM40.2328 27.1385C39.5065 27.1385 38.8817 26.9846 38.3585 26.6768C37.8384 26.366 37.4383 25.9351 37.1582 25.3842C36.8812 24.8333 36.7427 24.1993 36.7427 23.4822C36.7427 22.7559 36.8828 22.1188 37.1628 21.571C37.446 21.0201 37.8476 20.5908 38.3677 20.283C38.8878 19.9722 39.5065 19.8168 40.2235 19.8168C40.8422 19.8168 41.3838 19.9291 41.8485 20.1538C42.3133 20.3784 42.681 20.6939 42.9519 21.1001C43.2227 21.5064 43.372 21.9834 43.3997 22.5312H41.5439C41.4915 22.1773 41.353 21.8926 41.1284 21.6772C40.9068 21.4587 40.6159 21.3494 40.2559 21.3494C39.9512 21.3494 39.685 21.4325 39.4572 21.5987C39.2325 21.7618 39.0571 22.0004 38.9309 22.3143C38.8047 22.6282 38.7417 23.0083 38.7417 23.4545C38.7417 23.907 38.8032 24.2917 38.9263 24.6087C39.0525 24.9257 39.2295 25.1673 39.4572 25.3335C39.685 25.4996 39.9512 25.5827 40.2559 25.5827C40.4805 25.5827 40.6821 25.5366 40.8606 25.4442C41.0422 25.3519 41.1915 25.218 41.3084 25.0426C41.4284 24.8641 41.5069 24.6502 41.5439 24.4009H43.3997C43.3689 24.9426 43.2212 25.4196 42.9565 25.832C42.6949 26.2414 42.3333 26.5614 41.8716 26.7923C41.41 27.0231 40.8637 27.1385 40.2328 27.1385ZM47.8904 27.1385C47.161 27.1385 46.5331 26.9908 46.0068 26.6953C45.4836 26.3968 45.0805 25.9751 44.7973 25.4304C44.5142 24.8826 44.3726 24.2347 44.3726 23.4869C44.3726 22.7575 44.5142 22.1173 44.7973 21.5664C45.0805 21.0155 45.479 20.5862 45.993 20.2784C46.51 19.9706 47.1163 19.8168 47.8119 19.8168C48.2797 19.8168 48.7152 19.8922 49.1183 20.043C49.5246 20.1907 49.8785 20.4138 50.1801 20.7124C50.4848 21.0109 50.7218 21.3864 50.8911 21.8388C51.0603 22.2881 51.145 22.8144 51.145 23.4176V23.9577H45.1574V22.739H49.2938C49.2938 22.4558 49.2322 22.205 49.1091 21.9865C48.986 21.768 48.8152 21.5972 48.5967 21.4741C48.3812 21.3479 48.1304 21.2848 47.8442 21.2848C47.5457 21.2848 47.281 21.354 47.0502 21.4925C46.8224 21.628 46.6439 21.8111 46.5146 22.0419C46.3854 22.2696 46.3192 22.5236 46.3161 22.8036V23.9624C46.3161 24.3132 46.3808 24.6164 46.51 24.8718C46.6424 25.1272 46.8286 25.3242 47.0686 25.4627C47.3087 25.6012 47.5934 25.6705 47.9227 25.6705C48.1412 25.6705 48.3412 25.6397 48.5228 25.5781C48.7044 25.5166 48.8598 25.4242 48.9891 25.3011C49.1183 25.178 49.2168 25.0272 49.2845 24.8487L51.1034 24.9688C51.0111 25.4058 50.8218 25.7874 50.5356 26.1136C50.2525 26.4368 49.8862 26.6892 49.4369 26.8707C48.9906 27.0492 48.4751 27.1385 47.8904 27.1385ZM58.3282 21.9311L56.5278 22.0419C56.497 21.888 56.4308 21.7495 56.3293 21.6264C56.2277 21.5002 56.0938 21.4002 55.9276 21.3263C55.7645 21.2494 55.5691 21.2109 55.3414 21.2109C55.0367 21.2109 54.7797 21.2756 54.5704 21.4048C54.3611 21.531 54.2565 21.7003 54.2565 21.9126C54.2565 22.0819 54.3242 22.225 54.4596 22.342C54.595 22.4589 54.8274 22.5528 55.1567 22.6236L56.4401 22.8821C57.1295 23.0237 57.6434 23.2514 57.982 23.5653C58.3205 23.8793 58.4898 24.2917 58.4898 24.8026C58.4898 25.2673 58.3528 25.6751 58.0789 26.0259C57.8081 26.3768 57.4357 26.6507 56.9617 26.8477C56.4909 27.0415 55.9477 27.1385 55.3321 27.1385C54.3934 27.1385 53.6456 26.9431 53.0885 26.5522C52.5345 26.1583 52.2098 25.6228 52.1144 24.9457L54.0487 24.8441C54.1072 25.1303 54.2488 25.3488 54.4735 25.4996C54.6981 25.6474 54.9859 25.7212 55.3367 25.7212C55.6814 25.7212 55.9584 25.6551 56.1677 25.5227C56.3801 25.3873 56.4878 25.2134 56.4909 25.0011C56.4878 24.8226 56.4124 24.6764 56.2646 24.5625C56.1169 24.4455 55.8892 24.3563 55.5814 24.2947L54.3534 24.0501C53.661 23.9116 53.1454 23.6715 52.8069 23.3299C52.4714 22.9883 52.3037 22.5528 52.3037 22.0234C52.3037 21.5679 52.4268 21.1755 52.673 20.8462C52.9223 20.5169 53.2716 20.263 53.721 20.0845C54.1734 19.906 54.7027 19.8168 55.309 19.8168C56.2046 19.8168 56.9094 20.006 57.4234 20.3846C57.9404 20.7631 58.242 21.2786 58.3282 21.9311ZM65.628 21.9311L63.8276 22.0419C63.7968 21.888 63.7306 21.7495 63.6291 21.6264C63.5275 21.5002 63.3936 21.4002 63.2275 21.3263C63.0643 21.2494 62.8689 21.2109 62.6412 21.2109C62.3365 21.2109 62.0795 21.2756 61.8702 21.4048C61.6609 21.531 61.5563 21.7003 61.5563 21.9126C61.5563 22.0819 61.624 22.225 61.7594 22.342C61.8948 22.4589 62.1272 22.5528 62.4565 22.6236L63.7399 22.8821C64.4293 23.0237 64.9432 23.2514 65.2818 23.5653C65.6203 23.8793 65.7896 24.2917 65.7896 24.8026C65.7896 25.2673 65.6526 25.6751 65.3787 26.0259C65.1079 26.3768 64.7355 26.6507 64.2615 26.8477C63.7907 27.0415 63.2475 27.1385 62.6319 27.1385C61.6932 27.1385 60.9454 26.9431 60.3883 26.5522C59.8343 26.1583 59.5096 25.6228 59.4142 24.9457L61.3485 24.8441C61.407 25.1303 61.5486 25.3488 61.7733 25.4996C61.9979 25.6474 62.2857 25.7212 62.6365 25.7212C62.9812 25.7212 63.2582 25.6551 63.4675 25.5227C63.6799 25.3873 63.7876 25.2134 63.7907 25.0011C63.7876 24.8226 63.7122 24.6764 63.5645 24.5625C63.4167 24.4455 63.189 24.3563 62.8812 24.2947L61.6532 24.0501C60.9608 23.9116 60.4453 23.6715 60.1067 23.3299C59.7712 22.9883 59.6035 22.5528 59.6035 22.0234C59.6035 21.5679 59.7266 21.1755 59.9728 20.8462C60.2221 20.5169 60.5714 20.263 61.0208 20.0845C61.4732 19.906 62.0025 19.8168 62.6088 19.8168C63.5044 19.8168 64.2092 20.006 64.7232 20.3846C65.2402 20.7631 65.5418 21.2786 65.628 21.9311ZM72.3865 17.5455L72.2065 24.1655H70.5169L70.3322 17.5455H72.3865ZM71.3617 27.12C71.057 27.12 70.7954 27.0123 70.5769 26.7969C70.3584 26.5784 70.2507 26.3168 70.2537 26.0121C70.2507 25.7105 70.3584 25.4519 70.5769 25.2365C70.7954 25.0211 71.057 24.9134 71.3617 24.9134C71.6541 24.9134 71.911 25.0211 72.1326 25.2365C72.3542 25.4519 72.4666 25.7105 72.4696 26.0121C72.4666 26.2152 72.4127 26.4014 72.3081 26.5707C72.2065 26.7369 72.0726 26.8707 71.9064 26.9723C71.7402 27.0708 71.5587 27.12 71.3617 27.12Z" fill="#569CAC"/>
<path d="M0 43.5H297.5" stroke="#6AACB9"/>
<path d="M12.3324 62.5455H13.6435L16.2656 66.9588H16.3764L18.9986 62.5455H20.3097L16.8935 68.1037V72H15.7486V68.1037L12.3324 62.5455ZM23.5204 72.1477C22.8803 72.1477 22.3186 71.9954 21.8354 71.6907C21.3553 71.386 20.9798 70.9598 20.709 70.4119C20.4412 69.8641 20.3074 69.224 20.3074 68.4915C20.3074 67.7528 20.4412 67.1081 20.709 66.5572C20.9798 66.0063 21.3553 65.5785 21.8354 65.2738C22.3186 64.9691 22.8803 64.8168 23.5204 64.8168C24.1606 64.8168 24.7207 64.9691 25.2008 65.2738C25.684 65.5785 26.0595 66.0063 26.3272 66.5572C26.5981 67.1081 26.7335 67.7528 26.7335 68.4915C26.7335 69.224 26.5981 69.8641 26.3272 70.4119C26.0595 70.9598 25.684 71.386 25.2008 71.6907C24.7207 71.9954 24.1606 72.1477 23.5204 72.1477ZM23.5204 71.169C24.0067 71.169 24.4068 71.0444 24.7207 70.7951C25.0346 70.5458 25.267 70.218 25.4178 69.8118C25.5686 69.4055 25.644 68.9654 25.644 68.4915C25.644 68.0175 25.5686 67.5759 25.4178 67.1665C25.267 66.7572 25.0346 66.4264 24.7207 66.174C24.4068 65.9216 24.0067 65.7955 23.5204 65.7955C23.0342 65.7955 22.6341 65.9216 22.3201 66.174C22.0062 66.4264 21.7739 66.7572 21.623 67.1665C21.4722 67.5759 21.3968 68.0175 21.3968 68.4915C21.3968 68.9654 21.4722 69.4055 21.623 69.8118C21.7739 70.218 22.0062 70.5458 22.3201 70.7951C22.6341 71.0444 23.0342 71.169 23.5204 71.169ZM32.8653 69.1009V64.9091H33.9548V72H32.8653V70.7997H32.7915C32.6253 71.1598 32.3667 71.466 32.0159 71.7184C31.665 71.9677 31.2219 72.0923 30.6863 72.0923C30.2432 72.0923 29.8492 71.9954 29.5045 71.8015C29.1598 71.6045 28.889 71.3091 28.692 70.9151C28.4951 70.5181 28.3966 70.018 28.3966 69.4148V64.9091H29.4861V69.3409C29.4861 69.858 29.6307 70.2704 29.92 70.5781C30.2124 70.8859 30.5848 71.0398 31.0372 71.0398C31.308 71.0398 31.5835 70.9705 31.8635 70.832C32.1467 70.6935 32.3837 70.4812 32.5745 70.195C32.7684 69.9087 32.8653 69.544 32.8653 69.1009ZM35.9503 72V64.9091H37.0028V65.9801H37.0767C37.206 65.6293 37.4399 65.3446 37.7784 65.1261C38.117 64.9076 38.4986 64.7983 38.9233 64.7983C39.0033 64.7983 39.1033 64.7998 39.2234 64.8029C39.3434 64.806 39.4342 64.8106 39.4957 64.8168V65.9247C39.4588 65.9155 39.3742 65.9016 39.2418 65.8832C39.1126 65.8616 38.9756 65.8509 38.831 65.8509C38.4863 65.8509 38.1785 65.9232 37.9077 66.0678C37.6399 66.2094 37.4276 66.4064 37.2706 66.6587C37.1167 66.908 37.0398 67.1927 37.0398 67.5128V72H35.9503ZM48.9122 69.1009V64.9091H50.0017V72H48.9122V70.7997H48.8383C48.6721 71.1598 48.4136 71.466 48.0628 71.7184C47.7119 71.9677 47.2687 72.0923 46.7332 72.0923C46.29 72.0923 45.8961 71.9954 45.5514 71.8015C45.2067 71.6045 44.9359 71.3091 44.7389 70.9151C44.5419 70.5181 44.4434 70.018 44.4434 69.4148V64.9091H45.5329V69.3409C45.5329 69.858 45.6776 70.2704 45.9669 70.5781C46.2593 70.8859 46.6317 71.0398 47.0841 71.0398C47.3549 71.0398 47.6304 70.9705 47.9104 70.832C48.1936 70.6935 48.4305 70.4812 48.6214 70.195C48.8153 69.9087 48.9122 69.544 48.9122 69.1009ZM51.9972 74.6591V64.9091H53.0497V66.0355H53.179C53.259 65.9124 53.3698 65.7554 53.5114 65.5646C53.656 65.3707 53.8622 65.1984 54.13 65.0476C54.4008 64.8937 54.767 64.8168 55.2287 64.8168C55.8258 64.8168 56.352 64.966 56.8075 65.2646C57.263 65.5631 57.6185 65.9863 57.8739 66.5341C58.1294 67.0819 58.2571 67.7282 58.2571 68.473C58.2571 69.224 58.1294 69.8749 57.8739 70.4258C57.6185 70.9736 57.2646 71.3983 56.8121 71.6999C56.3597 71.9985 55.8381 72.1477 55.2472 72.1477C54.7917 72.1477 54.427 72.0723 54.1531 71.9215C53.8791 71.7676 53.6683 71.5937 53.5206 71.3999C53.3729 71.2029 53.259 71.0398 53.179 70.9105H53.0866V74.6591H51.9972ZM53.0682 68.4545C53.0682 68.9901 53.1467 69.4625 53.3036 69.8718C53.4606 70.2781 53.6899 70.5966 53.9915 70.8274C54.2931 71.0552 54.6624 71.169 55.0994 71.169C55.5549 71.169 55.935 71.049 56.2397 70.8089C56.5475 70.5658 56.7783 70.2396 56.9322 69.8303C57.0891 69.4179 57.1676 68.9593 57.1676 68.4545C57.1676 67.956 57.0907 67.5066 56.9368 67.1065C56.786 66.7034 56.5567 66.3848 56.2489 66.1509C55.9442 65.9139 55.5611 65.7955 55.0994 65.7955C54.6563 65.7955 54.2839 65.9078 53.9822 66.1325C53.6806 66.354 53.4529 66.6649 53.299 67.065C53.1451 67.462 53.0682 67.9252 53.0682 68.4545ZM62.5966 72.1477C62.0057 72.1477 61.484 71.9985 61.0316 71.6999C60.5792 71.3983 60.2253 70.9736 59.9698 70.4258C59.7144 69.8749 59.5866 69.224 59.5866 68.473C59.5866 67.7282 59.7144 67.0819 59.9698 66.5341C60.2253 65.9863 60.5807 65.5631 61.0362 65.2646C61.4917 64.966 62.018 64.8168 62.6151 64.8168C63.0767 64.8168 63.4414 64.8937 63.7092 65.0476C63.98 65.1984 64.1862 65.3707 64.3278 65.5646C64.4724 65.7554 64.5848 65.9124 64.6648 66.0355H64.7571V62.5455H65.8466V72H64.794V70.9105H64.6648C64.5848 71.0398 64.4709 71.2029 64.3232 71.3999C64.1754 71.5937 63.9646 71.7676 63.6907 71.9215C63.4168 72.0723 63.0521 72.1477 62.5966 72.1477ZM62.7443 71.169C63.1813 71.169 63.5507 71.0552 63.8523 70.8274C64.1539 70.5966 64.3832 70.2781 64.5401 69.8718C64.6971 69.4625 64.7756 68.9901 64.7756 68.4545C64.7756 67.9252 64.6986 67.462 64.5447 67.065C64.3909 66.6649 64.1631 66.354 63.8615 66.1325C63.5599 65.9078 63.1875 65.7955 62.7443 65.7955C62.2827 65.7955 61.898 65.9139 61.5902 66.1509C61.2855 66.3848 61.0562 66.7034 60.9023 67.1065C60.7515 67.5066 60.6761 67.956 60.6761 68.4545C60.6761 68.9593 60.7531 69.4179 60.907 69.8303C61.0639 70.2396 61.2947 70.5658 61.5994 70.8089C61.9072 71.049 62.2888 71.169 62.7443 71.169ZM70.0799 72.1662C69.6306 72.1662 69.2228 72.0816 68.8565 71.9123C68.4903 71.7399 68.1995 71.4922 67.984 71.169C67.7686 70.8428 67.6609 70.4489 67.6609 69.9872C67.6609 69.581 67.7409 69.2517 67.9009 68.9993C68.061 68.7438 68.2749 68.5438 68.5426 68.3991C68.8104 68.2545 69.1058 68.1468 69.429 68.076C69.7552 68.0021 70.083 67.9437 70.4123 67.9006C70.8432 67.8452 71.1925 67.8036 71.4602 67.7759C71.7311 67.7451 71.928 67.6944 72.0511 67.6236C72.1773 67.5528 72.2404 67.4297 72.2404 67.2543V67.2173C72.2404 66.7618 72.1158 66.4079 71.8665 66.1555C71.6203 65.9032 71.2463 65.777 70.7447 65.777C70.2246 65.777 69.8168 65.8909 69.5213 66.1186C69.2259 66.3464 69.0181 66.5895 68.8981 66.848L67.864 66.4787C68.0487 66.0478 68.2949 65.7124 68.6026 65.4723C68.9135 65.2292 69.252 65.0599 69.6183 64.9645C69.9876 64.866 70.3507 64.8168 70.7077 64.8168C70.9355 64.8168 71.1971 64.8445 71.4925 64.8999C71.7911 64.9522 72.0788 65.0614 72.3558 65.2276C72.6359 65.3938 72.8683 65.6446 73.0529 65.9801C73.2376 66.3156 73.3299 66.7649 73.3299 67.3281V72H72.2404V71.0398H72.185C72.1112 71.1937 71.988 71.3583 71.8157 71.5337C71.6433 71.7092 71.4141 71.8584 71.1278 71.9815C70.8416 72.1046 70.4923 72.1662 70.0799 72.1662ZM70.2461 71.1875C70.677 71.1875 71.0401 71.1029 71.3356 70.9336C71.6341 70.7643 71.8588 70.5458 72.0096 70.2781C72.1635 70.0103 72.2404 69.7287 72.2404 69.4332V68.4361C72.1942 68.4915 72.0927 68.5423 71.9357 68.5884C71.7818 68.6315 71.6033 68.67 71.4002 68.7038C71.2002 68.7346 71.0047 68.7623 70.8139 68.7869C70.6262 68.8085 70.4738 68.8269 70.3569 68.8423C70.0737 68.8793 69.8091 68.9393 69.5629 69.0224C69.3197 69.1024 69.1228 69.224 68.9719 69.3871C68.8242 69.5471 68.7504 69.7656 68.7504 70.0426C68.7504 70.4212 68.8904 70.7074 69.1705 70.9013C69.4536 71.0921 69.8121 71.1875 70.2461 71.1875ZM78.4023 64.9091V65.8324H74.7275V64.9091H78.4023ZM75.7986 63.2102H76.8881V69.9688C76.8881 70.2765 76.9327 70.5073 77.0219 70.6612C77.1143 70.812 77.2312 70.9136 77.3728 70.9659C77.5174 71.0152 77.6698 71.0398 77.8298 71.0398C77.9498 71.0398 78.0483 71.0336 78.1253 71.0213C78.2022 71.0059 78.2638 70.9936 78.3099 70.9844L78.5315 71.9631C78.4577 71.9908 78.3546 72.0185 78.2222 72.0462C78.0899 72.0769 77.9221 72.0923 77.719 72.0923C77.4113 72.0923 77.1096 72.0262 76.8142 71.8938C76.5218 71.7615 76.2787 71.5599 76.0848 71.2891C75.894 71.0182 75.7986 70.6766 75.7986 70.2642V63.2102ZM82.9379 72.1477C82.2547 72.1477 81.6653 71.9969 81.1698 71.6953C80.6774 71.3906 80.2973 70.9659 80.0296 70.4212C79.7649 69.8733 79.6325 69.2363 79.6325 68.5099C79.6325 67.7836 79.7649 67.1435 80.0296 66.5895C80.2973 66.0324 80.6697 65.5985 81.1468 65.2876C81.6269 64.9737 82.187 64.8168 82.8271 64.8168C83.1965 64.8168 83.5612 64.8783 83.9213 65.0014C84.2813 65.1245 84.6091 65.3246 84.9046 65.6016C85.2 65.8755 85.4355 66.2386 85.6109 66.6911C85.7863 67.1435 85.874 67.7005 85.874 68.3622V68.8239H80.4081V67.8821H84.7661C84.7661 67.482 84.6861 67.125 84.526 66.8111C84.3691 66.4972 84.1444 66.2494 83.852 66.0678C83.5627 65.8862 83.2211 65.7955 82.8271 65.7955C82.3932 65.7955 82.0177 65.9032 81.7007 66.1186C81.3868 66.331 81.1452 66.608 80.9759 66.9496C80.8067 67.2912 80.722 67.6574 80.722 68.0483V68.6761C80.722 69.2116 80.8144 69.6656 80.999 70.038C81.1868 70.4073 81.4468 70.6889 81.7792 70.8828C82.1116 71.0736 82.4978 71.169 82.9379 71.169C83.2242 71.169 83.4827 71.129 83.7135 71.049C83.9474 70.9659 84.149 70.8428 84.3183 70.6797C84.4875 70.5135 84.6183 70.3073 84.7107 70.0611L85.7632 70.3565C85.6524 70.7135 85.4662 71.0275 85.2046 71.2983C84.943 71.5661 84.6199 71.7753 84.2352 71.9261C83.8505 72.0739 83.4181 72.1477 82.9379 72.1477ZM92.7941 72L90.6336 64.9091H91.7785L93.3112 70.3381H93.385L94.8992 64.9091H96.0626L97.5583 70.3196H97.6322L99.1649 64.9091H100.31L98.1492 72H97.0782L95.5271 66.5526H95.4163L93.8651 72H92.7941ZM104.482 72.1477C103.799 72.1477 103.209 71.9969 102.714 71.6953C102.221 71.3906 101.841 70.9659 101.574 70.4212C101.309 69.8733 101.176 69.2363 101.176 68.5099C101.176 67.7836 101.309 67.1435 101.574 66.5895C101.841 66.0324 102.214 65.5985 102.691 65.2876C103.171 64.9737 103.731 64.8168 104.371 64.8168C104.74 64.8168 105.105 64.8783 105.465 65.0014C105.825 65.1245 106.153 65.3246 106.449 65.6016C106.744 65.8755 106.979 66.2386 107.155 66.6911C107.33 67.1435 107.418 67.7005 107.418 68.3622V68.8239H101.952V67.8821H106.31C106.31 67.482 106.23 67.125 106.07 66.8111C105.913 66.4972 105.688 66.2494 105.396 66.0678C105.107 65.8862 104.765 65.7955 104.371 65.7955C103.937 65.7955 103.562 65.9032 103.245 66.1186C102.931 66.331 102.689 66.608 102.52 66.9496C102.351 67.2912 102.266 67.6574 102.266 68.0483V68.6761C102.266 69.2116 102.358 69.6656 102.543 70.038C102.731 70.4073 102.991 70.6889 103.323 70.8828C103.656 71.0736 104.042 71.169 104.482 71.169C104.768 71.169 105.027 71.129 105.257 71.049C105.491 70.9659 105.693 70.8428 105.862 70.6797C106.031 70.5135 106.162 70.3073 106.255 70.0611L107.307 70.3565C107.196 70.7135 107.01 71.0275 106.749 71.2983C106.487 71.5661 106.164 71.7753 105.779 71.9261C105.394 72.0739 104.962 72.1477 104.482 72.1477ZM110.165 67.7344V72H109.075V64.9091H110.128V66.017H110.22C110.386 65.657 110.639 65.3677 110.977 65.1491C111.316 64.9276 111.753 64.8168 112.288 64.8168C112.768 64.8168 113.189 64.9152 113.549 65.1122C113.909 65.3061 114.189 65.6016 114.389 65.9986C114.589 66.3925 114.689 66.8911 114.689 67.4943V72H113.599V67.5682C113.599 67.0111 113.455 66.5772 113.165 66.2663C112.876 65.9524 112.479 65.7955 111.974 65.7955C111.627 65.7955 111.316 65.8709 111.042 66.0217C110.771 66.1725 110.557 66.3925 110.4 66.6818C110.243 66.9711 110.165 67.322 110.165 67.7344ZM119.764 64.9091V65.8324H116.089V64.9091H119.764ZM117.16 63.2102H118.249V69.9688C118.249 70.2765 118.294 70.5073 118.383 70.6612C118.476 70.812 118.593 70.9136 118.734 70.9659C118.879 71.0152 119.031 71.0398 119.191 71.0398C119.311 71.0398 119.41 71.0336 119.487 71.0213C119.564 71.0059 119.625 70.9936 119.671 70.9844L119.893 71.9631C119.819 71.9908 119.716 72.0185 119.584 72.0462C119.451 72.0769 119.283 72.0923 119.08 72.0923C118.773 72.0923 118.471 72.0262 118.176 71.8938C117.883 71.7615 117.64 71.5599 117.446 71.2891C117.255 71.0182 117.16 70.6766 117.16 70.2642V63.2102ZM130.081 66.4972L129.103 66.7741C129.041 66.611 128.95 66.4525 128.83 66.2987C128.713 66.1417 128.553 66.0124 128.35 65.9109C128.147 65.8093 127.887 65.7585 127.57 65.7585C127.136 65.7585 126.774 65.8585 126.485 66.0586C126.199 66.2556 126.056 66.5064 126.056 66.8111C126.056 67.0819 126.154 67.2958 126.351 67.4528C126.548 67.6097 126.856 67.7405 127.275 67.8452L128.327 68.1037C128.961 68.2576 129.434 68.493 129.744 68.81C130.055 69.1239 130.211 69.5286 130.211 70.0241C130.211 70.4304 130.094 70.7936 129.86 71.1136C129.629 71.4337 129.306 71.6861 128.89 71.8707C128.475 72.0554 127.992 72.1477 127.441 72.1477C126.718 72.1477 126.119 71.9908 125.645 71.6768C125.171 71.3629 124.871 70.9044 124.745 70.3011L125.779 70.0426C125.877 70.4242 126.064 70.7105 126.337 70.9013C126.614 71.0921 126.976 71.1875 127.422 71.1875C127.93 71.1875 128.333 71.0798 128.632 70.8643C128.933 70.6458 129.084 70.3842 129.084 70.0795C129.084 69.8333 128.998 69.6271 128.826 69.4609C128.653 69.2917 128.389 69.1655 128.032 69.0824L126.85 68.8054C126.2 68.6515 125.723 68.413 125.419 68.0898C125.117 67.7636 124.966 67.3558 124.966 66.8665C124.966 66.4664 125.079 66.1125 125.303 65.8047C125.531 65.4969 125.84 65.2553 126.231 65.0799C126.625 64.9045 127.071 64.8168 127.57 64.8168C128.272 64.8168 128.823 64.9706 129.223 65.2784C129.626 65.5862 129.912 65.9924 130.081 66.4972ZM136.319 69.1009V64.9091H137.409V72H136.319V70.7997H136.246C136.079 71.1598 135.821 71.466 135.47 71.7184C135.119 71.9677 134.676 72.0923 134.14 72.0923C133.697 72.0923 133.303 71.9954 132.959 71.8015C132.614 71.6045 132.343 71.3091 132.146 70.9151C131.949 70.5181 131.851 70.018 131.851 69.4148V64.9091H132.94V69.3409C132.94 69.858 133.085 70.2704 133.374 70.5781C133.666 70.8859 134.039 71.0398 134.491 71.0398C134.762 71.0398 135.038 70.9705 135.318 70.832C135.601 70.6935 135.838 70.4812 136.029 70.195C136.222 69.9087 136.319 69.544 136.319 69.1009ZM142.285 72.1477C141.62 72.1477 141.048 71.9908 140.568 71.6768C140.088 71.3629 139.718 70.9305 139.46 70.3796C139.201 69.8287 139.072 69.1993 139.072 68.4915C139.072 67.7713 139.204 67.1358 139.469 66.5849C139.737 66.0309 140.109 65.5985 140.586 65.2876C141.066 64.9737 141.626 64.8168 142.267 64.8168C142.765 64.8168 143.215 64.9091 143.615 65.0938C144.015 65.2784 144.342 65.5369 144.598 65.8693C144.853 66.2017 145.012 66.5895 145.073 67.0327H143.984C143.901 66.7095 143.716 66.4233 143.43 66.174C143.147 65.9216 142.765 65.7955 142.285 65.7955C141.86 65.7955 141.488 65.9062 141.168 66.1278C140.851 66.3464 140.603 66.6557 140.425 67.0558C140.249 67.4528 140.161 67.919 140.161 68.4545C140.161 69.0024 140.248 69.4794 140.42 69.8857C140.595 70.2919 140.842 70.6074 141.159 70.832C141.479 71.0567 141.854 71.169 142.285 71.169C142.568 71.169 142.825 71.1198 143.056 71.0213C143.287 70.9228 143.482 70.7812 143.642 70.5966C143.802 70.4119 143.916 70.1903 143.984 69.9318H145.073C145.012 70.3504 144.86 70.7274 144.616 71.0629C144.376 71.3952 144.058 71.6599 143.661 71.8569C143.267 72.0508 142.808 72.1477 142.285 72.1477ZM149.547 72.1477C148.882 72.1477 148.31 71.9908 147.829 71.6768C147.349 71.3629 146.98 70.9305 146.722 70.3796C146.463 69.8287 146.334 69.1993 146.334 68.4915C146.334 67.7713 146.466 67.1358 146.731 66.5849C146.998 66.0309 147.371 65.5985 147.848 65.2876C148.328 64.9737 148.888 64.8168 149.528 64.8168C150.027 64.8168 150.476 64.9091 150.876 65.0938C151.276 65.2784 151.604 65.5369 151.86 65.8693C152.115 66.2017 152.274 66.5895 152.335 67.0327H151.246C151.163 66.7095 150.978 66.4233 150.692 66.174C150.409 65.9216 150.027 65.7955 149.547 65.7955C149.122 65.7955 148.75 65.9062 148.43 66.1278C148.113 66.3464 147.865 66.6557 147.686 67.0558C147.511 67.4528 147.423 67.919 147.423 68.4545C147.423 69.0024 147.509 69.4794 147.682 69.8857C147.857 70.2919 148.103 70.6074 148.42 70.832C148.74 71.0567 149.116 71.169 149.547 71.169C149.83 71.169 150.087 71.1198 150.318 71.0213C150.549 70.9228 150.744 70.7812 150.904 70.5966C151.064 70.4119 151.178 70.1903 151.246 69.9318H152.335C152.274 70.3504 152.121 70.7274 151.878 71.0629C151.638 71.3952 151.32 71.6599 150.922 71.8569C150.529 72.0508 150.07 72.1477 149.547 72.1477ZM156.901 72.1477C156.218 72.1477 155.628 71.9969 155.133 71.6953C154.64 71.3906 154.26 70.9659 153.992 70.4212C153.728 69.8733 153.595 69.2363 153.595 68.5099C153.595 67.7836 153.728 67.1435 153.992 66.5895C154.26 66.0324 154.633 65.5985 155.11 65.2876C155.59 64.9737 156.15 64.8168 156.79 64.8168C157.159 64.8168 157.524 64.8783 157.884 65.0014C158.244 65.1245 158.572 65.3246 158.867 65.6016C159.163 65.8755 159.398 66.2386 159.574 66.6911C159.749 67.1435 159.837 67.7005 159.837 68.3622V68.8239H154.371V67.8821H158.729C158.729 67.482 158.649 67.125 158.489 66.8111C158.332 66.4972 158.107 66.2494 157.815 66.0678C157.526 65.8862 157.184 65.7955 156.79 65.7955C156.356 65.7955 155.981 65.9032 155.664 66.1186C155.35 66.331 155.108 66.608 154.939 66.9496C154.77 67.2912 154.685 67.6574 154.685 68.0483V68.6761C154.685 69.2116 154.777 69.6656 154.962 70.038C155.15 70.4073 155.41 70.6889 155.742 70.8828C156.074 71.0736 156.461 71.169 156.901 71.169C157.187 71.169 157.446 71.129 157.676 71.049C157.91 70.9659 158.112 70.8428 158.281 70.6797C158.45 70.5135 158.581 70.3073 158.674 70.0611L159.726 70.3565C159.615 70.7135 159.429 71.0275 159.168 71.2983C158.906 71.5661 158.583 71.7753 158.198 71.9261C157.813 72.0739 157.381 72.1477 156.901 72.1477ZM166.517 66.4972L165.538 66.7741C165.477 66.611 165.386 66.4525 165.266 66.2987C165.149 66.1417 164.989 66.0124 164.786 65.9109C164.583 65.8093 164.323 65.7585 164.006 65.7585C163.572 65.7585 163.21 65.8585 162.921 66.0586C162.634 66.2556 162.491 66.5064 162.491 66.8111C162.491 67.0819 162.59 67.2958 162.787 67.4528C162.984 67.6097 163.292 67.7405 163.71 67.8452L164.763 68.1037C165.397 68.2576 165.869 68.493 166.18 68.81C166.491 69.1239 166.646 69.5286 166.646 70.0241C166.646 70.4304 166.529 70.7936 166.295 71.1136C166.065 71.4337 165.741 71.6861 165.326 71.8707C164.91 72.0554 164.427 72.1477 163.876 72.1477C163.153 72.1477 162.554 71.9908 162.081 71.6768C161.607 71.3629 161.306 70.9044 161.18 70.3011L162.214 70.0426C162.313 70.4242 162.499 70.7105 162.773 70.9013C163.05 71.0921 163.412 71.1875 163.858 71.1875C164.366 71.1875 164.769 71.0798 165.067 70.8643C165.369 70.6458 165.52 70.3842 165.52 70.0795C165.52 69.8333 165.434 69.6271 165.261 69.4609C165.089 69.2917 164.824 69.1655 164.467 69.0824L163.285 68.8054C162.636 68.6515 162.159 68.413 161.854 68.0898C161.553 67.7636 161.402 67.3558 161.402 66.8665C161.402 66.4664 161.514 66.1125 161.739 65.8047C161.967 65.4969 162.276 65.2553 162.667 65.0799C163.061 64.9045 163.507 64.8168 164.006 64.8168C164.707 64.8168 165.258 64.9706 165.658 65.2784C166.061 65.5862 166.348 65.9924 166.517 66.4972ZM173.309 66.4972L172.33 66.7741C172.269 66.611 172.178 66.4525 172.058 66.2987C171.941 66.1417 171.781 66.0124 171.578 65.9109C171.375 65.8093 171.115 65.7585 170.798 65.7585C170.364 65.7585 170.002 65.8585 169.713 66.0586C169.426 66.2556 169.283 66.5064 169.283 66.8111C169.283 67.0819 169.382 67.2958 169.579 67.4528C169.776 67.6097 170.084 67.7405 170.502 67.8452L171.555 68.1037C172.189 68.2576 172.661 68.493 172.972 68.81C173.283 69.1239 173.438 69.5286 173.438 70.0241C173.438 70.4304 173.321 70.7936 173.087 71.1136C172.857 71.4337 172.533 71.6861 172.118 71.8707C171.702 72.0554 171.219 72.1477 170.668 72.1477C169.945 72.1477 169.346 71.9908 168.873 71.6768C168.399 71.3629 168.098 70.9044 167.972 70.3011L169.006 70.0426C169.105 70.4242 169.291 70.7105 169.565 70.9013C169.842 71.0921 170.204 71.1875 170.65 71.1875C171.158 71.1875 171.561 71.0798 171.859 70.8643C172.161 70.6458 172.312 70.3842 172.312 70.0795C172.312 69.8333 172.226 69.6271 172.053 69.4609C171.881 69.2917 171.616 69.1655 171.259 69.0824L170.077 68.8054C169.428 68.6515 168.951 68.413 168.646 68.0898C168.345 67.7636 168.194 67.3558 168.194 66.8665C168.194 66.4664 168.306 66.1125 168.531 65.8047C168.759 65.4969 169.068 65.2553 169.459 65.0799C169.853 64.9045 170.299 64.8168 170.798 64.8168C171.499 64.8168 172.05 64.9706 172.45 65.2784C172.853 65.5862 173.14 65.9924 173.309 66.4972ZM178.236 64.9091V65.8324H174.413V64.9091H178.236ZM175.558 72V63.9304C175.558 63.5241 175.654 63.1856 175.845 62.9148C176.035 62.6439 176.283 62.4408 176.588 62.3054C176.892 62.17 177.214 62.1023 177.553 62.1023C177.82 62.1023 178.039 62.1238 178.208 62.1669C178.377 62.21 178.504 62.25 178.587 62.2869L178.273 63.2287C178.217 63.2102 178.14 63.1871 178.042 63.1594C177.947 63.1317 177.82 63.1179 177.663 63.1179C177.303 63.1179 177.043 63.2087 176.883 63.3903C176.726 63.5719 176.648 63.8381 176.648 64.1889V72H175.558ZM184.232 69.1009V64.9091H185.321V72H184.232V70.7997H184.158C183.991 71.1598 183.733 71.466 183.382 71.7184C183.031 71.9677 182.588 72.0923 182.053 72.0923C181.609 72.0923 181.215 71.9954 180.871 71.8015C180.526 71.6045 180.255 71.3091 180.058 70.9151C179.861 70.5181 179.763 70.018 179.763 69.4148V64.9091H180.852V69.3409C180.852 69.858 180.997 70.2704 181.286 70.5781C181.579 70.8859 181.951 71.0398 182.403 71.0398C182.674 71.0398 182.95 70.9705 183.23 70.832C183.513 70.6935 183.75 70.4812 183.941 70.195C184.135 69.9087 184.232 69.544 184.232 69.1009ZM188.406 62.5455V72H187.316V62.5455H188.406ZM191.491 62.5455V72H190.401V62.5455H191.491ZM194.188 74.6591C194.003 74.6591 193.839 74.6437 193.694 74.6129C193.55 74.5852 193.449 74.5575 193.394 74.5298L193.671 73.5696C193.936 73.6373 194.17 73.6619 194.373 73.6435C194.576 73.625 194.756 73.5342 194.913 73.3711C195.073 73.2111 195.219 72.951 195.351 72.5909L195.555 72.0369L192.932 64.9091H194.114L196.072 70.5597H196.146L198.103 64.9091H199.285L196.275 73.0341C196.139 73.4003 195.972 73.7035 195.772 73.9435C195.572 74.1867 195.339 74.3667 195.074 74.4837C194.813 74.6006 194.517 74.6591 194.188 74.6591ZM201.072 72.0739C200.845 72.0739 200.649 71.9923 200.486 71.8292C200.323 71.6661 200.241 71.4706 200.241 71.2429C200.241 71.0152 200.323 70.8197 200.486 70.6566C200.649 70.4935 200.845 70.4119 201.072 70.4119C201.3 70.4119 201.496 70.4935 201.659 70.6566C201.822 70.8197 201.903 71.0152 201.903 71.2429C201.903 71.3937 201.865 71.5322 201.788 71.6584C201.714 71.7846 201.614 71.8861 201.488 71.9631C201.365 72.0369 201.226 72.0739 201.072 72.0739Z" fill="#78B5C2"/>
</svg>
