<svg width="524" height="690" viewBox="0 0 524 690" fill="none" xmlns="http://www.w3.org/2000/svg">
<rect width="524" height="690" rx="17" fill="white"/>
<path d="M18.052 120V107.4H22.768C23.836 107.4 24.754 107.574 25.522 107.922C26.29 108.258 26.878 108.75 27.286 109.398C27.706 110.034 27.916 110.808 27.916 111.72C27.916 112.608 27.706 113.376 27.286 114.024C26.878 114.66 26.29 115.152 25.522 115.5C24.754 115.848 23.836 116.022 22.768 116.022H18.79L19.384 115.392V120H18.052ZM19.384 115.5L18.79 114.852H22.732C23.992 114.852 24.946 114.582 25.594 114.042C26.254 113.49 26.584 112.716 26.584 111.72C26.584 110.712 26.254 109.932 25.594 109.38C24.946 108.828 23.992 108.552 22.732 108.552H18.79L19.384 107.922V115.5ZM30.2976 120V110.55H31.5216V113.124L31.3956 112.674C31.6596 111.954 32.1036 111.408 32.7276 111.036C33.3516 110.652 34.1256 110.46 35.0496 110.46V111.702C35.0016 111.702 34.9536 111.702 34.9056 111.702C34.8576 111.69 34.8096 111.684 34.7616 111.684C33.7656 111.684 32.9856 111.99 32.4216 112.602C31.8576 113.202 31.5756 114.06 31.5756 115.176V120H30.2976ZM41.1457 120.09C40.2337 120.09 39.4117 119.886 38.6797 119.478C37.9597 119.058 37.3897 118.488 36.9697 117.768C36.5497 117.036 36.3397 116.202 36.3397 115.266C36.3397 114.318 36.5497 113.484 36.9697 112.764C37.3897 112.044 37.9597 111.48 38.6797 111.072C39.3997 110.664 40.2217 110.46 41.1457 110.46C42.0817 110.46 42.9097 110.664 43.6297 111.072C44.3617 111.48 44.9317 112.044 45.3397 112.764C45.7597 113.484 45.9697 114.318 45.9697 115.266C45.9697 116.202 45.7597 117.036 45.3397 117.768C44.9317 118.488 44.3617 119.058 43.6297 119.478C42.8977 119.886 42.0697 120.09 41.1457 120.09ZM41.1457 118.956C41.8297 118.956 42.4357 118.806 42.9637 118.506C43.4917 118.194 43.9057 117.762 44.2057 117.21C44.5177 116.646 44.6737 115.998 44.6737 115.266C44.6737 114.522 44.5177 113.874 44.2057 113.322C43.9057 112.77 43.4917 112.344 42.9637 112.044C42.4357 111.732 41.8357 111.576 41.1637 111.576C40.4917 111.576 39.8917 111.732 39.3637 112.044C38.8357 112.344 38.4157 112.77 38.1037 113.322C37.7917 113.874 37.6357 114.522 37.6357 115.266C37.6357 115.998 37.7917 116.646 38.1037 117.21C38.4157 117.762 38.8357 118.194 39.3637 118.506C39.8917 118.806 40.4857 118.956 41.1457 118.956ZM47.1749 123.582C46.7909 123.582 46.4249 123.528 46.0769 123.42C45.7169 123.324 45.4169 123.174 45.1769 122.97L45.6269 121.998C46.0109 122.322 46.5029 122.484 47.1029 122.484C47.6069 122.484 47.9909 122.334 48.2549 122.034C48.5309 121.734 48.6689 121.29 48.6689 120.702V110.55H49.9469V120.702C49.9469 121.578 49.7069 122.274 49.2269 122.79C48.7589 123.318 48.0749 123.582 47.1749 123.582ZM49.3169 108.462C49.0529 108.462 48.8309 108.372 48.6509 108.192C48.4709 108.012 48.3809 107.796 48.3809 107.544C48.3809 107.292 48.4709 107.082 48.6509 106.914C48.8309 106.734 49.0529 106.644 49.3169 106.644C49.5809 106.644 49.8029 106.728 49.9829 106.896C50.1629 107.064 50.2529 107.274 50.2529 107.526C50.2529 107.79 50.1629 108.012 49.9829 108.192C49.8149 108.372 49.5929 108.462 49.3169 108.462ZM57.5323 120.09C56.5483 120.09 55.6843 119.886 54.9403 119.478C54.1963 119.058 53.6143 118.488 53.1943 117.768C52.7743 117.036 52.5643 116.202 52.5643 115.266C52.5643 114.33 52.7623 113.502 53.1583 112.782C53.5663 112.062 54.1183 111.498 54.8143 111.09C55.5223 110.67 56.3143 110.46 57.1903 110.46C58.0783 110.46 58.8643 110.664 59.5483 111.072C60.2443 111.468 60.7903 112.032 61.1863 112.764C61.5823 113.484 61.7803 114.318 61.7803 115.266C61.7803 115.326 61.7743 115.392 61.7623 115.464C61.7623 115.524 61.7623 115.59 61.7623 115.662H53.5363V114.708H61.0783L60.5743 115.086C60.5743 114.402 60.4243 113.796 60.1243 113.268C59.8363 112.728 59.4403 112.308 58.9363 112.008C58.4323 111.708 57.8503 111.558 57.1903 111.558C56.5423 111.558 55.9603 111.708 55.4443 112.008C54.9283 112.308 54.5263 112.728 54.2383 113.268C53.9503 113.808 53.8063 114.426 53.8063 115.122V115.32C53.8063 116.04 53.9623 116.676 54.2743 117.228C54.5983 117.768 55.0423 118.194 55.6063 118.506C56.1823 118.806 56.8363 118.956 57.5683 118.956C58.1443 118.956 58.6783 118.854 59.1703 118.65C59.6743 118.446 60.1063 118.134 60.4663 117.714L61.1863 118.542C60.7663 119.046 60.2383 119.43 59.6023 119.694C58.9783 119.958 58.2883 120.09 57.5323 120.09ZM68.3056 120.09C67.3696 120.09 66.5296 119.886 65.7856 119.478C65.0536 119.058 64.4776 118.488 64.0576 117.768C63.6376 117.036 63.4276 116.202 63.4276 115.266C63.4276 114.318 63.6376 113.484 64.0576 112.764C64.4776 112.044 65.0536 111.48 65.7856 111.072C66.5296 110.664 67.3696 110.46 68.3056 110.46C69.1096 110.46 69.8356 110.616 70.4836 110.928C71.1316 111.24 71.6416 111.708 72.0136 112.332L71.0596 112.98C70.7356 112.5 70.3336 112.146 69.8536 111.918C69.3736 111.69 68.8516 111.576 68.2876 111.576C67.6156 111.576 67.0096 111.732 66.4696 112.044C65.9296 112.344 65.5036 112.77 65.1916 113.322C64.8796 113.874 64.7236 114.522 64.7236 115.266C64.7236 116.01 64.8796 116.658 65.1916 117.21C65.5036 117.762 65.9296 118.194 66.4696 118.506C67.0096 118.806 67.6156 118.956 68.2876 118.956C68.8516 118.956 69.3736 118.842 69.8536 118.614C70.3336 118.386 70.7356 118.038 71.0596 117.57L72.0136 118.218C71.6416 118.83 71.1316 119.298 70.4836 119.622C69.8356 119.934 69.1096 120.09 68.3056 120.09ZM77.6177 120.09C76.7297 120.09 76.0457 119.85 75.5657 119.37C75.0857 118.89 74.8457 118.212 74.8457 117.336V108.462H76.1237V117.264C76.1237 117.816 76.2617 118.242 76.5377 118.542C76.8257 118.842 77.2337 118.992 77.7617 118.992C78.3257 118.992 78.7937 118.83 79.1657 118.506L79.6157 119.424C79.3637 119.652 79.0577 119.82 78.6977 119.928C78.3497 120.036 77.9897 120.09 77.6177 120.09ZM73.1537 111.612V110.55H79.0037V111.612H73.1537ZM91.4771 110.46C92.2451 110.46 92.9171 110.61 93.4931 110.91C94.0811 111.198 94.5371 111.642 94.8611 112.242C95.1971 112.842 95.3651 113.598 95.3651 114.51V120H94.0871V114.636C94.0871 113.64 93.8351 112.89 93.3311 112.386C92.8391 111.87 92.1431 111.612 91.2431 111.612C90.5711 111.612 89.9831 111.75 89.4791 112.026C88.9871 112.29 88.6031 112.68 88.3271 113.196C88.0631 113.7 87.9311 114.312 87.9311 115.032V120H86.6531V110.55H87.8771V113.142L87.6791 112.656C87.9791 111.972 88.4591 111.438 89.1191 111.054C89.7791 110.658 90.5651 110.46 91.4771 110.46ZM104.739 120V117.912L104.685 117.57V114.078C104.685 113.274 104.457 112.656 104.001 112.224C103.557 111.792 102.891 111.576 102.003 111.576C101.391 111.576 100.809 111.678 100.257 111.882C99.7052 112.086 99.2372 112.356 98.8532 112.692L98.2772 111.738C98.7572 111.33 99.3332 111.018 100.005 110.802C100.677 110.574 101.385 110.46 102.129 110.46C103.353 110.46 104.295 110.766 104.955 111.378C105.627 111.978 105.963 112.896 105.963 114.132V120H104.739ZM101.481 120.09C100.773 120.09 100.155 119.976 99.6272 119.748C99.1112 119.508 98.7152 119.184 98.4392 118.776C98.1632 118.356 98.0252 117.876 98.0252 117.336C98.0252 116.844 98.1392 116.4 98.3672 116.004C98.6072 115.596 98.9912 115.272 99.5192 115.032C100.059 114.78 100.779 114.654 101.679 114.654H104.937V115.608H101.715C100.803 115.608 100.167 115.77 99.8072 116.094C99.4592 116.418 99.2852 116.82 99.2852 117.3C99.2852 117.84 99.4952 118.272 99.9152 118.596C100.335 118.92 100.923 119.082 101.679 119.082C102.399 119.082 103.017 118.92 103.533 118.596C104.061 118.26 104.445 117.78 104.685 117.156L104.973 118.038C104.733 118.662 104.313 119.16 103.713 119.532C103.125 119.904 102.381 120.09 101.481 120.09ZM121.242 110.46C122.01 110.46 122.676 110.61 123.24 110.91C123.816 111.198 124.26 111.642 124.572 112.242C124.896 112.842 125.058 113.598 125.058 114.51V120H123.78V114.636C123.78 113.64 123.54 112.89 123.06 112.386C122.592 111.87 121.926 111.612 121.062 111.612C120.414 111.612 119.85 111.75 119.37 112.026C118.902 112.29 118.536 112.68 118.272 113.196C118.02 113.7 117.894 114.312 117.894 115.032V120H116.616V114.636C116.616 113.64 116.376 112.89 115.896 112.386C115.416 111.87 114.744 111.612 113.88 111.612C113.244 111.612 112.686 111.75 112.206 112.026C111.726 112.29 111.354 112.68 111.09 113.196C110.838 113.7 110.712 114.312 110.712 115.032V120H109.434V110.55H110.658V113.106L110.46 112.656C110.748 111.972 111.21 111.438 111.846 111.054C112.494 110.658 113.256 110.46 114.132 110.46C115.056 110.46 115.842 110.694 116.49 111.162C117.138 111.618 117.558 112.308 117.75 113.232L117.246 113.034C117.522 112.266 118.008 111.648 118.704 111.18C119.412 110.7 120.258 110.46 121.242 110.46ZM132.538 120.09C131.554 120.09 130.69 119.886 129.946 119.478C129.202 119.058 128.62 118.488 128.2 117.768C127.78 117.036 127.57 116.202 127.57 115.266C127.57 114.33 127.768 113.502 128.164 112.782C128.572 112.062 129.124 111.498 129.82 111.09C130.528 110.67 131.32 110.46 132.196 110.46C133.084 110.46 133.87 110.664 134.554 111.072C135.25 111.468 135.796 112.032 136.192 112.764C136.588 113.484 136.786 114.318 136.786 115.266C136.786 115.326 136.78 115.392 136.768 115.464C136.768 115.524 136.768 115.59 136.768 115.662H128.542V114.708H136.084L135.58 115.086C135.58 114.402 135.43 113.796 135.13 113.268C134.842 112.728 134.446 112.308 133.942 112.008C133.438 111.708 132.856 111.558 132.196 111.558C131.548 111.558 130.966 111.708 130.45 112.008C129.934 112.308 129.532 112.728 129.244 113.268C128.956 113.808 128.812 114.426 128.812 115.122V115.32C128.812 116.04 128.968 116.676 129.28 117.228C129.604 117.768 130.048 118.194 130.612 118.506C131.188 118.806 131.842 118.956 132.574 118.956C133.15 118.956 133.684 118.854 134.176 118.65C134.68 118.446 135.112 118.134 135.472 117.714L136.192 118.542C135.772 119.046 135.244 119.43 134.608 119.694C133.984 119.958 133.294 120.09 132.538 120.09ZM139.513 112.422C139.249 112.422 139.021 112.326 138.829 112.134C138.649 111.942 138.559 111.708 138.559 111.432C138.559 111.144 138.649 110.91 138.829 110.73C139.021 110.55 139.249 110.46 139.513 110.46C139.777 110.46 139.999 110.55 140.179 110.73C140.371 110.91 140.467 111.144 140.467 111.432C140.467 111.708 140.371 111.942 140.179 112.134C139.999 112.326 139.777 112.422 139.513 112.422ZM139.513 120.09C139.249 120.09 139.021 119.994 138.829 119.802C138.649 119.61 138.559 119.376 138.559 119.1C138.559 118.812 138.649 118.578 138.829 118.398C139.021 118.218 139.249 118.128 139.513 118.128C139.777 118.128 139.999 118.218 140.179 118.398C140.371 118.578 140.467 118.812 140.467 119.1C140.467 119.376 140.371 119.61 140.179 119.802C139.999 119.994 139.777 120.09 139.513 120.09Z" fill="#776A6A"/>
<path d="M19.24 197.034H25.9V198.168H19.24V197.034ZM19.384 202.848H26.962V204H18.052V191.4H26.692V192.552H19.384V202.848ZM34.647 194.46C35.415 194.46 36.087 194.61 36.663 194.91C37.251 195.198 37.707 195.642 38.031 196.242C38.367 196.842 38.535 197.598 38.535 198.51V204H37.257V198.636C37.257 197.64 37.005 196.89 36.501 196.386C36.009 195.87 35.313 195.612 34.413 195.612C33.741 195.612 33.153 195.75 32.649 196.026C32.157 196.29 31.773 196.68 31.497 197.196C31.233 197.7 31.101 198.312 31.101 199.032V204H29.823V194.55H31.047V197.142L30.849 196.656C31.149 195.972 31.629 195.438 32.289 195.054C32.949 194.658 33.735 194.46 34.647 194.46ZM45.7491 204.09C44.8491 204.09 44.0391 203.886 43.3191 203.478C42.6111 203.07 42.0531 202.506 41.6451 201.786C41.2371 201.054 41.0331 200.214 41.0331 199.266C41.0331 198.306 41.2371 197.466 41.6451 196.746C42.0531 196.026 42.6111 195.468 43.3191 195.072C44.0391 194.664 44.8491 194.46 45.7491 194.46C46.5771 194.46 47.3151 194.646 47.9631 195.018C48.6231 195.39 49.1451 195.936 49.5291 196.656C49.9251 197.364 50.1231 198.234 50.1231 199.266C50.1231 200.286 49.9311 201.156 49.5471 201.876C49.1631 202.596 48.6411 203.148 47.9811 203.532C47.3331 203.904 46.5891 204.09 45.7491 204.09ZM45.8391 202.956C46.5111 202.956 47.1111 202.806 47.6391 202.506C48.1791 202.194 48.5991 201.762 48.8991 201.21C49.2111 200.646 49.3671 199.998 49.3671 199.266C49.3671 198.522 49.2111 197.874 48.8991 197.322C48.5991 196.77 48.1791 196.344 47.6391 196.044C47.1111 195.732 46.5111 195.576 45.8391 195.576C45.1791 195.576 44.5851 195.732 44.0571 196.044C43.5291 196.344 43.1091 196.77 42.7971 197.322C42.4851 197.874 42.3291 198.522 42.3291 199.266C42.3291 199.998 42.4851 200.646 42.7971 201.21C43.1091 201.762 43.5291 202.194 44.0571 202.506C44.5851 202.806 45.1791 202.956 45.8391 202.956ZM49.4031 204V201.156L49.5291 199.248L49.3491 197.34V190.644H50.6271V204H49.4031ZM62.6592 204.09C61.7592 204.09 60.9492 203.886 60.2292 203.478C59.5212 203.07 58.9632 202.506 58.5552 201.786C58.1472 201.054 57.9432 200.214 57.9432 199.266C57.9432 198.306 58.1472 197.466 58.5552 196.746C58.9632 196.026 59.5212 195.468 60.2292 195.072C60.9492 194.664 61.7592 194.46 62.6592 194.46C63.4872 194.46 64.2252 194.646 64.8732 195.018C65.5332 195.39 66.0552 195.936 66.4392 196.656C66.8352 197.364 67.0332 198.234 67.0332 199.266C67.0332 200.286 66.8412 201.156 66.4572 201.876C66.0732 202.596 65.5512 203.148 64.8912 203.532C64.2432 203.904 63.4992 204.09 62.6592 204.09ZM62.7492 202.956C63.4212 202.956 64.0212 202.806 64.5492 202.506C65.0892 202.194 65.5092 201.762 65.8092 201.21C66.1212 200.646 66.2772 199.998 66.2772 199.266C66.2772 198.522 66.1212 197.874 65.8092 197.322C65.5092 196.77 65.0892 196.344 64.5492 196.044C64.0212 195.732 63.4212 195.576 62.7492 195.576C62.0892 195.576 61.4952 195.732 60.9672 196.044C60.4392 196.344 60.0192 196.77 59.7072 197.322C59.3952 197.874 59.2392 198.522 59.2392 199.266C59.2392 199.998 59.3952 200.646 59.7072 201.21C60.0192 201.762 60.4392 202.194 60.9672 202.506C61.4952 202.806 62.0892 202.956 62.7492 202.956ZM66.3132 204V201.156L66.4392 199.248L66.2592 197.34V190.644H67.5372V204H66.3132ZM77.0185 204V201.912L76.9645 201.57V198.078C76.9645 197.274 76.7365 196.656 76.2805 196.224C75.8365 195.792 75.1705 195.576 74.2825 195.576C73.6705 195.576 73.0885 195.678 72.5365 195.882C71.9845 196.086 71.5165 196.356 71.1325 196.692L70.5565 195.738C71.0365 195.33 71.6125 195.018 72.2845 194.802C72.9565 194.574 73.6645 194.46 74.4085 194.46C75.6325 194.46 76.5745 194.766 77.2345 195.378C77.9065 195.978 78.2425 196.896 78.2425 198.132V204H77.0185ZM73.7605 204.09C73.0525 204.09 72.4345 203.976 71.9065 203.748C71.3905 203.508 70.9945 203.184 70.7185 202.776C70.4425 202.356 70.3045 201.876 70.3045 201.336C70.3045 200.844 70.4185 200.4 70.6465 200.004C70.8865 199.596 71.2705 199.272 71.7985 199.032C72.3385 198.78 73.0585 198.654 73.9585 198.654H77.2165V199.608H73.9945C73.0825 199.608 72.4465 199.77 72.0865 200.094C71.7385 200.418 71.5645 200.82 71.5645 201.3C71.5645 201.84 71.7745 202.272 72.1945 202.596C72.6145 202.92 73.2025 203.082 73.9585 203.082C74.6785 203.082 75.2965 202.92 75.8125 202.596C76.3405 202.26 76.7245 201.78 76.9645 201.156L77.2525 202.038C77.0125 202.662 76.5925 203.16 75.9925 203.532C75.4045 203.904 74.6605 204.09 73.7605 204.09ZM84.7016 204.09C83.8136 204.09 83.1296 203.85 82.6496 203.37C82.1696 202.89 81.9296 202.212 81.9296 201.336V192.462H83.2076V201.264C83.2076 201.816 83.3456 202.242 83.6216 202.542C83.9096 202.842 84.3176 202.992 84.8456 202.992C85.4096 202.992 85.8776 202.83 86.2496 202.506L86.6996 203.424C86.4476 203.652 86.1416 203.82 85.7816 203.928C85.4336 204.036 85.0736 204.09 84.7016 204.09ZM80.2376 195.612V194.55H86.0876V195.612H80.2376ZM92.7062 204.09C91.7222 204.09 90.8582 203.886 90.1142 203.478C89.3702 203.058 88.7882 202.488 88.3682 201.768C87.9482 201.036 87.7382 200.202 87.7382 199.266C87.7382 198.33 87.9362 197.502 88.3322 196.782C88.7402 196.062 89.2922 195.498 89.9882 195.09C90.6962 194.67 91.4882 194.46 92.3642 194.46C93.2522 194.46 94.0382 194.664 94.7222 195.072C95.4182 195.468 95.9642 196.032 96.3602 196.764C96.7562 197.484 96.9542 198.318 96.9542 199.266C96.9542 199.326 96.9482 199.392 96.9362 199.464C96.9362 199.524 96.9362 199.59 96.9362 199.662H88.7102V198.708H96.2522L95.7482 199.086C95.7482 198.402 95.5982 197.796 95.2982 197.268C95.0102 196.728 94.6142 196.308 94.1102 196.008C93.6062 195.708 93.0242 195.558 92.3642 195.558C91.7162 195.558 91.1342 195.708 90.6182 196.008C90.1022 196.308 89.7002 196.728 89.4122 197.268C89.1242 197.808 88.9802 198.426 88.9802 199.122V199.32C88.9802 200.04 89.1362 200.676 89.4482 201.228C89.7722 201.768 90.2162 202.194 90.7802 202.506C91.3562 202.806 92.0102 202.956 92.7422 202.956C93.3182 202.956 93.8522 202.854 94.3442 202.65C94.8482 202.446 95.2802 202.134 95.6402 201.714L96.3602 202.542C95.9402 203.046 95.4122 203.43 94.7762 203.694C94.1522 203.958 93.4622 204.09 92.7062 204.09ZM99.6814 196.422C99.4174 196.422 99.1894 196.326 98.9974 196.134C98.8174 195.942 98.7274 195.708 98.7274 195.432C98.7274 195.144 98.8174 194.91 98.9974 194.73C99.1894 194.55 99.4174 194.46 99.6814 194.46C99.9454 194.46 100.167 194.55 100.347 194.73C100.539 194.91 100.635 195.144 100.635 195.432C100.635 195.708 100.539 195.942 100.347 196.134C100.167 196.326 99.9454 196.422 99.6814 196.422ZM99.6814 204.09C99.4174 204.09 99.1894 203.994 98.9974 203.802C98.8174 203.61 98.7274 203.376 98.7274 203.1C98.7274 202.812 98.8174 202.578 98.9974 202.398C99.1894 202.218 99.4174 202.128 99.6814 202.128C99.9454 202.128 100.167 202.218 100.347 202.398C100.539 202.578 100.635 202.812 100.635 203.1C100.635 203.376 100.539 203.61 100.347 203.802C100.167 203.994 99.9454 204.09 99.6814 204.09Z" fill="#776A6A"/>
<path d="M18.052 287V274.4H22.768C23.836 274.4 24.754 274.574 25.522 274.922C26.29 275.258 26.878 275.75 27.286 276.398C27.706 277.034 27.916 277.808 27.916 278.72C27.916 279.608 27.706 280.376 27.286 281.024C26.878 281.66 26.29 282.152 25.522 282.5C24.754 282.848 23.836 283.022 22.768 283.022H18.79L19.384 282.392V287H18.052ZM19.384 282.5L18.79 281.852H22.732C23.992 281.852 24.946 281.582 25.594 281.042C26.254 280.49 26.584 279.716 26.584 278.72C26.584 277.712 26.254 276.932 25.594 276.38C24.946 275.828 23.992 275.552 22.732 275.552H18.79L19.384 274.922V282.5ZM30.2976 287V277.55H31.5216V280.124L31.3956 279.674C31.6596 278.954 32.1036 278.408 32.7276 278.036C33.3516 277.652 34.1256 277.46 35.0496 277.46V278.702C35.0016 278.702 34.9536 278.702 34.9056 278.702C34.8576 278.69 34.8096 278.684 34.7616 278.684C33.7656 278.684 32.9856 278.99 32.4216 279.602C31.8576 280.202 31.5756 281.06 31.5756 282.176V287H30.2976ZM41.1457 287.09C40.2337 287.09 39.4117 286.886 38.6797 286.478C37.9597 286.058 37.3897 285.488 36.9697 284.768C36.5497 284.036 36.3397 283.202 36.3397 282.266C36.3397 281.318 36.5497 280.484 36.9697 279.764C37.3897 279.044 37.9597 278.48 38.6797 278.072C39.3997 277.664 40.2217 277.46 41.1457 277.46C42.0817 277.46 42.9097 277.664 43.6297 278.072C44.3617 278.48 44.9317 279.044 45.3397 279.764C45.7597 280.484 45.9697 281.318 45.9697 282.266C45.9697 283.202 45.7597 284.036 45.3397 284.768C44.9317 285.488 44.3617 286.058 43.6297 286.478C42.8977 286.886 42.0697 287.09 41.1457 287.09ZM41.1457 285.956C41.8297 285.956 42.4357 285.806 42.9637 285.506C43.4917 285.194 43.9057 284.762 44.2057 284.21C44.5177 283.646 44.6737 282.998 44.6737 282.266C44.6737 281.522 44.5177 280.874 44.2057 280.322C43.9057 279.77 43.4917 279.344 42.9637 279.044C42.4357 278.732 41.8357 278.576 41.1637 278.576C40.4917 278.576 39.8917 278.732 39.3637 279.044C38.8357 279.344 38.4157 279.77 38.1037 280.322C37.7917 280.874 37.6357 281.522 37.6357 282.266C37.6357 282.998 37.7917 283.646 38.1037 284.21C38.4157 284.762 38.8357 285.194 39.3637 285.506C39.8917 285.806 40.4857 285.956 41.1457 285.956ZM47.1749 290.582C46.7909 290.582 46.4249 290.528 46.0769 290.42C45.7169 290.324 45.4169 290.174 45.1769 289.97L45.6269 288.998C46.0109 289.322 46.5029 289.484 47.1029 289.484C47.6069 289.484 47.9909 289.334 48.2549 289.034C48.5309 288.734 48.6689 288.29 48.6689 287.702V277.55H49.9469V287.702C49.9469 288.578 49.7069 289.274 49.2269 289.79C48.7589 290.318 48.0749 290.582 47.1749 290.582ZM49.3169 275.462C49.0529 275.462 48.8309 275.372 48.6509 275.192C48.4709 275.012 48.3809 274.796 48.3809 274.544C48.3809 274.292 48.4709 274.082 48.6509 273.914C48.8309 273.734 49.0529 273.644 49.3169 273.644C49.5809 273.644 49.8029 273.728 49.9829 273.896C50.1629 274.064 50.2529 274.274 50.2529 274.526C50.2529 274.79 50.1629 275.012 49.9829 275.192C49.8149 275.372 49.5929 275.462 49.3169 275.462ZM57.5323 287.09C56.5483 287.09 55.6843 286.886 54.9403 286.478C54.1963 286.058 53.6143 285.488 53.1943 284.768C52.7743 284.036 52.5643 283.202 52.5643 282.266C52.5643 281.33 52.7623 280.502 53.1583 279.782C53.5663 279.062 54.1183 278.498 54.8143 278.09C55.5223 277.67 56.3143 277.46 57.1903 277.46C58.0783 277.46 58.8643 277.664 59.5483 278.072C60.2443 278.468 60.7903 279.032 61.1863 279.764C61.5823 280.484 61.7803 281.318 61.7803 282.266C61.7803 282.326 61.7743 282.392 61.7623 282.464C61.7623 282.524 61.7623 282.59 61.7623 282.662H53.5363V281.708H61.0783L60.5743 282.086C60.5743 281.402 60.4243 280.796 60.1243 280.268C59.8363 279.728 59.4403 279.308 58.9363 279.008C58.4323 278.708 57.8503 278.558 57.1903 278.558C56.5423 278.558 55.9603 278.708 55.4443 279.008C54.9283 279.308 54.5263 279.728 54.2383 280.268C53.9503 280.808 53.8063 281.426 53.8063 282.122V282.32C53.8063 283.04 53.9623 283.676 54.2743 284.228C54.5983 284.768 55.0423 285.194 55.6063 285.506C56.1823 285.806 56.8363 285.956 57.5683 285.956C58.1443 285.956 58.6783 285.854 59.1703 285.65C59.6743 285.446 60.1063 285.134 60.4663 284.714L61.1863 285.542C60.7663 286.046 60.2383 286.43 59.6023 286.694C58.9783 286.958 58.2883 287.09 57.5323 287.09ZM68.3056 287.09C67.3696 287.09 66.5296 286.886 65.7856 286.478C65.0536 286.058 64.4776 285.488 64.0576 284.768C63.6376 284.036 63.4276 283.202 63.4276 282.266C63.4276 281.318 63.6376 280.484 64.0576 279.764C64.4776 279.044 65.0536 278.48 65.7856 278.072C66.5296 277.664 67.3696 277.46 68.3056 277.46C69.1096 277.46 69.8356 277.616 70.4836 277.928C71.1316 278.24 71.6416 278.708 72.0136 279.332L71.0596 279.98C70.7356 279.5 70.3336 279.146 69.8536 278.918C69.3736 278.69 68.8516 278.576 68.2876 278.576C67.6156 278.576 67.0096 278.732 66.4696 279.044C65.9296 279.344 65.5036 279.77 65.1916 280.322C64.8796 280.874 64.7236 281.522 64.7236 282.266C64.7236 283.01 64.8796 283.658 65.1916 284.21C65.5036 284.762 65.9296 285.194 66.4696 285.506C67.0096 285.806 67.6156 285.956 68.2876 285.956C68.8516 285.956 69.3736 285.842 69.8536 285.614C70.3336 285.386 70.7356 285.038 71.0596 284.57L72.0136 285.218C71.6416 285.83 71.1316 286.298 70.4836 286.622C69.8356 286.934 69.1096 287.09 68.3056 287.09ZM77.6177 287.09C76.7297 287.09 76.0457 286.85 75.5657 286.37C75.0857 285.89 74.8457 285.212 74.8457 284.336V275.462H76.1237V284.264C76.1237 284.816 76.2617 285.242 76.5377 285.542C76.8257 285.842 77.2337 285.992 77.7617 285.992C78.3257 285.992 78.7937 285.83 79.1657 285.506L79.6157 286.424C79.3637 286.652 79.0577 286.82 78.6977 286.928C78.3497 287.036 77.9897 287.09 77.6177 287.09ZM73.1537 278.612V277.55H79.0037V278.612H73.1537ZM98.4611 277.46C99.2291 277.46 99.8951 277.61 100.459 277.91C101.035 278.198 101.479 278.642 101.791 279.242C102.115 279.842 102.277 280.598 102.277 281.51V287H100.999V281.636C100.999 280.64 100.759 279.89 100.279 279.386C99.8111 278.87 99.1451 278.612 98.2811 278.612C97.6331 278.612 97.0691 278.75 96.5891 279.026C96.1211 279.29 95.7551 279.68 95.4911 280.196C95.2391 280.7 95.1131 281.312 95.1131 282.032V287H93.8351V281.636C93.8351 280.64 93.5951 279.89 93.1151 279.386C92.6351 278.87 91.9631 278.612 91.0991 278.612C90.4631 278.612 89.9051 278.75 89.4251 279.026C88.9451 279.29 88.5731 279.68 88.3091 280.196C88.0571 280.7 87.9311 281.312 87.9311 282.032V287H86.6531V277.55H87.8771V280.106L87.6791 279.656C87.9671 278.972 88.4291 278.438 89.0651 278.054C89.7131 277.658 90.4751 277.46 91.3511 277.46C92.2751 277.46 93.0611 277.694 93.7091 278.162C94.3571 278.618 94.7771 279.308 94.9691 280.232L94.4651 280.034C94.7411 279.266 95.2271 278.648 95.9231 278.18C96.6311 277.7 97.4771 277.46 98.4611 277.46ZM109.757 287.09C108.773 287.09 107.909 286.886 107.165 286.478C106.421 286.058 105.839 285.488 105.419 284.768C104.999 284.036 104.789 283.202 104.789 282.266C104.789 281.33 104.987 280.502 105.383 279.782C105.791 279.062 106.343 278.498 107.039 278.09C107.747 277.67 108.539 277.46 109.415 277.46C110.303 277.46 111.089 277.664 111.773 278.072C112.469 278.468 113.015 279.032 113.411 279.764C113.807 280.484 114.005 281.318 114.005 282.266C114.005 282.326 113.999 282.392 113.987 282.464C113.987 282.524 113.987 282.59 113.987 282.662H105.761V281.708H113.303L112.799 282.086C112.799 281.402 112.649 280.796 112.349 280.268C112.061 279.728 111.665 279.308 111.161 279.008C110.657 278.708 110.075 278.558 109.415 278.558C108.767 278.558 108.185 278.708 107.669 279.008C107.153 279.308 106.751 279.728 106.463 280.268C106.175 280.808 106.031 281.426 106.031 282.122V282.32C106.031 283.04 106.187 283.676 106.499 284.228C106.823 284.768 107.267 285.194 107.831 285.506C108.407 285.806 109.061 285.956 109.793 285.956C110.369 285.956 110.903 285.854 111.395 285.65C111.899 285.446 112.331 285.134 112.691 284.714L113.411 285.542C112.991 286.046 112.463 286.43 111.827 286.694C111.203 286.958 110.513 287.09 109.757 287.09ZM128.414 277.46C129.182 277.46 129.848 277.61 130.412 277.91C130.988 278.198 131.432 278.642 131.744 279.242C132.068 279.842 132.23 280.598 132.23 281.51V287H130.952V281.636C130.952 280.64 130.712 279.89 130.232 279.386C129.764 278.87 129.098 278.612 128.234 278.612C127.586 278.612 127.022 278.75 126.542 279.026C126.074 279.29 125.708 279.68 125.444 280.196C125.192 280.7 125.066 281.312 125.066 282.032V287H123.788V281.636C123.788 280.64 123.548 279.89 123.068 279.386C122.588 278.87 121.916 278.612 121.052 278.612C120.416 278.612 119.858 278.75 119.378 279.026C118.898 279.29 118.526 279.68 118.262 280.196C118.01 280.7 117.884 281.312 117.884 282.032V287H116.606V277.55H117.83V280.106L117.632 279.656C117.92 278.972 118.382 278.438 119.018 278.054C119.666 277.658 120.428 277.46 121.304 277.46C122.228 277.46 123.014 277.694 123.662 278.162C124.31 278.618 124.73 279.308 124.922 280.232L124.418 280.034C124.694 279.266 125.18 278.648 125.876 278.18C126.584 277.7 127.43 277.46 128.414 277.46ZM140.574 287.09C139.746 287.09 139.002 286.904 138.342 286.532C137.682 286.148 137.16 285.596 136.776 284.876C136.392 284.156 136.2 283.286 136.2 282.266C136.2 281.234 136.392 280.364 136.776 279.656C137.172 278.936 137.7 278.39 138.36 278.018C139.02 277.646 139.758 277.46 140.574 277.46C141.474 277.46 142.278 277.664 142.986 278.072C143.706 278.468 144.27 279.026 144.678 279.746C145.086 280.466 145.29 281.306 145.29 282.266C145.29 283.214 145.086 284.054 144.678 284.786C144.27 285.506 143.706 286.07 142.986 286.478C142.278 286.886 141.474 287.09 140.574 287.09ZM135.696 287V273.644H136.974V280.34L136.794 282.248L136.92 284.156V287H135.696ZM140.484 285.956C141.156 285.956 141.756 285.806 142.284 285.506C142.812 285.194 143.232 284.762 143.544 284.21C143.856 283.646 144.012 282.998 144.012 282.266C144.012 281.522 143.856 280.874 143.544 280.322C143.232 279.77 142.812 279.344 142.284 279.044C141.756 278.732 141.156 278.576 140.484 278.576C139.812 278.576 139.206 278.732 138.666 279.044C138.138 279.344 137.718 279.77 137.406 280.322C137.106 280.874 136.956 281.522 136.956 282.266C136.956 282.998 137.106 283.646 137.406 284.21C137.718 284.762 138.138 285.194 138.666 285.506C139.206 285.806 139.812 285.956 140.484 285.956ZM151.909 287.09C150.925 287.09 150.061 286.886 149.317 286.478C148.573 286.058 147.991 285.488 147.571 284.768C147.151 284.036 146.941 283.202 146.941 282.266C146.941 281.33 147.139 280.502 147.535 279.782C147.943 279.062 148.495 278.498 149.191 278.09C149.899 277.67 150.691 277.46 151.567 277.46C152.455 277.46 153.241 277.664 153.925 278.072C154.621 278.468 155.167 279.032 155.563 279.764C155.959 280.484 156.157 281.318 156.157 282.266C156.157 282.326 156.151 282.392 156.139 282.464C156.139 282.524 156.139 282.59 156.139 282.662H147.913V281.708H155.455L154.951 282.086C154.951 281.402 154.801 280.796 154.501 280.268C154.213 279.728 153.817 279.308 153.313 279.008C152.809 278.708 152.227 278.558 151.567 278.558C150.919 278.558 150.337 278.708 149.821 279.008C149.305 279.308 148.903 279.728 148.615 280.268C148.327 280.808 148.183 281.426 148.183 282.122V282.32C148.183 283.04 148.339 283.676 148.651 284.228C148.975 284.768 149.419 285.194 149.983 285.506C150.559 285.806 151.213 285.956 151.945 285.956C152.521 285.956 153.055 285.854 153.547 285.65C154.051 285.446 154.483 285.134 154.843 284.714L155.563 285.542C155.143 286.046 154.615 286.43 153.979 286.694C153.355 286.958 152.665 287.09 151.909 287.09ZM158.759 287V277.55H159.983V280.124L159.857 279.674C160.121 278.954 160.565 278.408 161.189 278.036C161.813 277.652 162.587 277.46 163.511 277.46V278.702C163.463 278.702 163.415 278.702 163.367 278.702C163.319 278.69 163.271 278.684 163.223 278.684C162.227 278.684 161.447 278.99 160.883 279.602C160.319 280.202 160.037 281.06 160.037 282.176V287H158.759ZM168.486 287.09C167.706 287.09 166.968 286.982 166.272 286.766C165.576 286.538 165.03 286.256 164.634 285.92L165.21 284.912C165.594 285.2 166.086 285.452 166.686 285.668C167.286 285.872 167.916 285.974 168.576 285.974C169.476 285.974 170.124 285.836 170.52 285.56C170.916 285.272 171.114 284.894 171.114 284.426C171.114 284.078 171 283.808 170.772 283.616C170.556 283.412 170.268 283.262 169.908 283.166C169.548 283.058 169.146 282.968 168.702 282.896C168.258 282.824 167.814 282.74 167.37 282.644C166.938 282.548 166.542 282.41 166.182 282.23C165.822 282.038 165.528 281.78 165.3 281.456C165.084 281.132 164.976 280.7 164.976 280.16C164.976 279.644 165.12 279.182 165.408 278.774C165.696 278.366 166.116 278.048 166.668 277.82C167.232 277.58 167.916 277.46 168.72 277.46C169.332 277.46 169.944 277.544 170.556 277.712C171.168 277.868 171.672 278.078 172.068 278.342L171.51 279.368C171.09 279.08 170.64 278.876 170.16 278.756C169.68 278.624 169.2 278.558 168.72 278.558C167.868 278.558 167.238 278.708 166.83 279.008C166.434 279.296 166.236 279.668 166.236 280.124C166.236 280.484 166.344 280.766 166.56 280.97C166.788 281.174 167.082 281.336 167.442 281.456C167.814 281.564 168.216 281.654 168.648 281.726C169.092 281.798 169.53 281.888 169.962 281.996C170.406 282.092 170.808 282.23 171.168 282.41C171.54 282.578 171.834 282.824 172.05 283.148C172.278 283.46 172.392 283.874 172.392 284.39C172.392 284.942 172.236 285.422 171.924 285.83C171.624 286.226 171.18 286.538 170.592 286.766C170.016 286.982 169.314 287.09 168.486 287.09ZM174.863 279.422C174.599 279.422 174.371 279.326 174.179 279.134C173.999 278.942 173.909 278.708 173.909 278.432C173.909 278.144 173.999 277.91 174.179 277.73C174.371 277.55 174.599 277.46 174.863 277.46C175.127 277.46 175.349 277.55 175.529 277.73C175.721 277.91 175.817 278.144 175.817 278.432C175.817 278.708 175.721 278.942 175.529 279.134C175.349 279.326 175.127 279.422 174.863 279.422ZM174.863 287.09C174.599 287.09 174.371 286.994 174.179 286.802C173.999 286.61 173.909 286.376 173.909 286.1C173.909 285.812 173.999 285.578 174.179 285.398C174.371 285.218 174.599 285.128 174.863 285.128C175.127 285.128 175.349 285.218 175.529 285.398C175.721 285.578 175.817 285.812 175.817 286.1C175.817 286.376 175.721 286.61 175.529 286.802C175.349 286.994 175.127 287.09 174.863 287.09Z" fill="#776A6A"/>
<path d="M18.052 371V358.4H23.182C24.526 358.4 25.702 358.67 26.71 359.21C27.73 359.738 28.522 360.476 29.086 361.424C29.65 362.372 29.932 363.464 29.932 364.7C29.932 365.936 29.65 367.028 29.086 367.976C28.522 368.924 27.73 369.668 26.71 370.208C25.702 370.736 24.526 371 23.182 371H18.052ZM19.384 369.848H23.11C24.226 369.848 25.192 369.632 26.008 369.2C26.836 368.756 27.478 368.15 27.934 367.382C28.39 366.602 28.618 365.708 28.618 364.7C28.618 363.68 28.39 362.786 27.934 362.018C27.478 361.25 26.836 360.65 26.008 360.218C25.192 359.774 24.226 359.552 23.11 359.552H19.384V369.848ZM36.6671 371.09C35.6831 371.09 34.8191 370.886 34.0751 370.478C33.3311 370.058 32.7491 369.488 32.3291 368.768C31.9091 368.036 31.6991 367.202 31.6991 366.266C31.6991 365.33 31.8971 364.502 32.2931 363.782C32.7011 363.062 33.2531 362.498 33.9491 362.09C34.6571 361.67 35.4491 361.46 36.3251 361.46C37.2131 361.46 37.9991 361.664 38.6831 362.072C39.3791 362.468 39.9251 363.032 40.3211 363.764C40.7171 364.484 40.9151 365.318 40.9151 366.266C40.9151 366.326 40.9091 366.392 40.8971 366.464C40.8971 366.524 40.8971 366.59 40.8971 366.662H32.6711V365.708H40.2131L39.7091 366.086C39.7091 365.402 39.5591 364.796 39.2591 364.268C38.9711 363.728 38.5751 363.308 38.0711 363.008C37.5671 362.708 36.9851 362.558 36.3251 362.558C35.6771 362.558 35.0951 362.708 34.5791 363.008C34.0631 363.308 33.6611 363.728 33.3731 364.268C33.0851 364.808 32.9411 365.426 32.9411 366.122V366.32C32.9411 367.04 33.0971 367.676 33.4091 368.228C33.7331 368.768 34.1771 369.194 34.7411 369.506C35.3171 369.806 35.9711 369.956 36.7031 369.956C37.2791 369.956 37.8131 369.854 38.3051 369.65C38.8091 369.446 39.2411 369.134 39.6011 368.714L40.3211 369.542C39.9011 370.046 39.3731 370.43 38.7371 370.694C38.1131 370.958 37.4231 371.09 36.6671 371.09ZM46.0544 371.09C45.2744 371.09 44.5364 370.982 43.8404 370.766C43.1444 370.538 42.5984 370.256 42.2024 369.92L42.7784 368.912C43.1624 369.2 43.6544 369.452 44.2544 369.668C44.8544 369.872 45.4844 369.974 46.1444 369.974C47.0444 369.974 47.6924 369.836 48.0884 369.56C48.4844 369.272 48.6824 368.894 48.6824 368.426C48.6824 368.078 48.5684 367.808 48.3404 367.616C48.1244 367.412 47.8364 367.262 47.4764 367.166C47.1164 367.058 46.7144 366.968 46.2704 366.896C45.8264 366.824 45.3824 366.74 44.9384 366.644C44.5064 366.548 44.1104 366.41 43.7504 366.23C43.3904 366.038 43.0964 365.78 42.8684 365.456C42.6524 365.132 42.5444 364.7 42.5444 364.16C42.5444 363.644 42.6884 363.182 42.9764 362.774C43.2644 362.366 43.6844 362.048 44.2364 361.82C44.8004 361.58 45.4844 361.46 46.2884 361.46C46.9004 361.46 47.5124 361.544 48.1244 361.712C48.7364 361.868 49.2404 362.078 49.6364 362.342L49.0784 363.368C48.6584 363.08 48.2084 362.876 47.7284 362.756C47.2484 362.624 46.7684 362.558 46.2884 362.558C45.4364 362.558 44.8064 362.708 44.3984 363.008C44.0024 363.296 43.8044 363.668 43.8044 364.124C43.8044 364.484 43.9124 364.766 44.1284 364.97C44.3564 365.174 44.6504 365.336 45.0104 365.456C45.3824 365.564 45.7844 365.654 46.2164 365.726C46.6604 365.798 47.0984 365.888 47.5304 365.996C47.9744 366.092 48.3764 366.23 48.7364 366.41C49.1084 366.578 49.4024 366.824 49.6184 367.148C49.8464 367.46 49.9604 367.874 49.9604 368.39C49.9604 368.942 49.8044 369.422 49.4924 369.83C49.1924 370.226 48.7484 370.538 48.1604 370.766C47.5844 370.982 46.8824 371.09 46.0544 371.09ZM56.2294 371.09C55.2934 371.09 54.4534 370.886 53.7094 370.478C52.9774 370.058 52.4014 369.488 51.9814 368.768C51.5614 368.036 51.3514 367.202 51.3514 366.266C51.3514 365.318 51.5614 364.484 51.9814 363.764C52.4014 363.044 52.9774 362.48 53.7094 362.072C54.4534 361.664 55.2934 361.46 56.2294 361.46C57.0334 361.46 57.7594 361.616 58.4074 361.928C59.0554 362.24 59.5654 362.708 59.9374 363.332L58.9834 363.98C58.6594 363.5 58.2574 363.146 57.7774 362.918C57.2974 362.69 56.7754 362.576 56.2114 362.576C55.5394 362.576 54.9334 362.732 54.3934 363.044C53.8534 363.344 53.4274 363.77 53.1154 364.322C52.8034 364.874 52.6474 365.522 52.6474 366.266C52.6474 367.01 52.8034 367.658 53.1154 368.21C53.4274 368.762 53.8534 369.194 54.3934 369.506C54.9334 369.806 55.5394 369.956 56.2114 369.956C56.7754 369.956 57.2974 369.842 57.7774 369.614C58.2574 369.386 58.6594 369.038 58.9834 368.57L59.9374 369.218C59.5654 369.83 59.0554 370.298 58.4074 370.622C57.7594 370.934 57.0334 371.09 56.2294 371.09ZM62.448 371V361.55H63.672V364.124L63.546 363.674C63.81 362.954 64.254 362.408 64.878 362.036C65.502 361.652 66.276 361.46 67.2 361.46V362.702C67.152 362.702 67.104 362.702 67.056 362.702C67.008 362.69 66.96 362.684 66.912 362.684C65.916 362.684 65.136 362.99 64.572 363.602C64.008 364.202 63.726 365.06 63.726 366.176V371H62.448ZM69.532 371V361.55H70.81V371H69.532ZM70.18 359.462C69.916 359.462 69.694 359.372 69.514 359.192C69.334 359.012 69.244 358.796 69.244 358.544C69.244 358.292 69.334 358.082 69.514 357.914C69.694 357.734 69.916 357.644 70.18 357.644C70.444 357.644 70.666 357.728 70.846 357.896C71.026 358.064 71.116 358.274 71.116 358.526C71.116 358.79 71.026 359.012 70.846 359.192C70.678 359.372 70.456 359.462 70.18 359.462ZM79.244 371.09C78.428 371.09 77.69 370.904 77.03 370.532C76.37 370.148 75.842 369.602 75.446 368.894C75.062 368.174 74.87 367.298 74.87 366.266C74.87 365.234 75.062 364.364 75.446 363.656C75.83 362.936 76.352 362.39 77.012 362.018C77.672 361.646 78.416 361.46 79.244 361.46C80.144 361.46 80.948 361.664 81.656 362.072C82.376 362.468 82.94 363.032 83.348 363.764C83.756 364.484 83.96 365.318 83.96 366.266C83.96 367.226 83.756 368.066 83.348 368.786C82.94 369.506 82.376 370.07 81.656 370.478C80.948 370.886 80.144 371.09 79.244 371.09ZM74.366 374.492V361.55H75.59V364.394L75.464 366.284L75.644 368.192V374.492H74.366ZM79.154 369.956C79.826 369.956 80.426 369.806 80.954 369.506C81.482 369.194 81.902 368.762 82.214 368.21C82.526 367.646 82.682 366.998 82.682 366.266C82.682 365.534 82.526 364.892 82.214 364.34C81.902 363.788 81.482 363.356 80.954 363.044C80.426 362.732 79.826 362.576 79.154 362.576C78.482 362.576 77.876 362.732 77.336 363.044C76.808 363.356 76.388 363.788 76.076 364.34C75.776 364.892 75.626 365.534 75.626 366.266C75.626 366.998 75.776 367.646 76.076 368.21C76.388 368.762 76.808 369.194 77.336 369.506C77.876 369.806 78.482 369.956 79.154 369.956ZM89.5532 371.09C88.6652 371.09 87.9812 370.85 87.5012 370.37C87.0212 369.89 86.7812 369.212 86.7812 368.336V359.462H88.0592V368.264C88.0592 368.816 88.1972 369.242 88.4732 369.542C88.7612 369.842 89.1692 369.992 89.6972 369.992C90.2612 369.992 90.7292 369.83 91.1012 369.506L91.5512 370.424C91.2992 370.652 90.9932 370.82 90.6332 370.928C90.2852 371.036 89.9252 371.09 89.5532 371.09ZM85.0892 362.612V361.55H90.9392V362.612H85.0892ZM93.8777 371V361.55H95.1557V371H93.8777ZM94.5257 359.462C94.2617 359.462 94.0397 359.372 93.8597 359.192C93.6797 359.012 93.5897 358.796 93.5897 358.544C93.5897 358.292 93.6797 358.082 93.8597 357.914C94.0397 357.734 94.2617 357.644 94.5257 357.644C94.7897 357.644 95.0117 357.728 95.1917 357.896C95.3717 358.064 95.4617 358.274 95.4617 358.526C95.4617 358.79 95.3717 359.012 95.1917 359.192C95.0237 359.372 94.8017 359.462 94.5257 359.462ZM102.564 371.09C101.652 371.09 100.83 370.886 100.098 370.478C99.3777 370.058 98.8077 369.488 98.3877 368.768C97.9677 368.036 97.7577 367.202 97.7577 366.266C97.7577 365.318 97.9677 364.484 98.3877 363.764C98.8077 363.044 99.3777 362.48 100.098 362.072C100.818 361.664 101.64 361.46 102.564 361.46C103.5 361.46 104.328 361.664 105.048 362.072C105.78 362.48 106.35 363.044 106.758 363.764C107.178 364.484 107.388 365.318 107.388 366.266C107.388 367.202 107.178 368.036 106.758 368.768C106.35 369.488 105.78 370.058 105.048 370.478C104.316 370.886 103.488 371.09 102.564 371.09ZM102.564 369.956C103.248 369.956 103.854 369.806 104.382 369.506C104.91 369.194 105.324 368.762 105.624 368.21C105.936 367.646 106.092 366.998 106.092 366.266C106.092 365.522 105.936 364.874 105.624 364.322C105.324 363.77 104.91 363.344 104.382 363.044C103.854 362.732 103.254 362.576 102.582 362.576C101.91 362.576 101.31 362.732 100.782 363.044C100.254 363.344 99.8337 363.77 99.5217 364.322C99.2097 364.874 99.0537 365.522 99.0537 366.266C99.0537 366.998 99.2097 367.646 99.5217 368.21C99.8337 368.762 100.254 369.194 100.782 369.506C101.31 369.806 101.904 369.956 102.564 369.956ZM114.821 361.46C115.589 361.46 116.261 361.61 116.837 361.91C117.425 362.198 117.881 362.642 118.205 363.242C118.541 363.842 118.709 364.598 118.709 365.51V371H117.431V365.636C117.431 364.64 117.179 363.89 116.675 363.386C116.183 362.87 115.487 362.612 114.587 362.612C113.915 362.612 113.327 362.75 112.823 363.026C112.331 363.29 111.947 363.68 111.671 364.196C111.407 364.7 111.275 365.312 111.275 366.032V371H109.997V361.55H111.221V364.142L111.023 363.656C111.323 362.972 111.803 362.438 112.463 362.054C113.123 361.658 113.909 361.46 114.821 361.46ZM122.287 363.422C122.023 363.422 121.795 363.326 121.603 363.134C121.423 362.942 121.333 362.708 121.333 362.432C121.333 362.144 121.423 361.91 121.603 361.73C121.795 361.55 122.023 361.46 122.287 361.46C122.551 361.46 122.773 361.55 122.953 361.73C123.145 361.91 123.241 362.144 123.241 362.432C123.241 362.708 123.145 362.942 122.953 363.134C122.773 363.326 122.551 363.422 122.287 363.422ZM122.287 371.09C122.023 371.09 121.795 370.994 121.603 370.802C121.423 370.61 121.333 370.376 121.333 370.1C121.333 369.812 121.423 369.578 121.603 369.398C121.795 369.218 122.023 369.128 122.287 369.128C122.551 369.128 122.773 369.218 122.953 369.398C123.145 369.578 123.241 369.812 123.241 370.1C123.241 370.376 123.145 370.61 122.953 370.802C122.773 370.994 122.551 371.09 122.287 371.09Z" fill="#776A6A"/>
<path d="M316.052 117V104.4H320.768C321.836 104.4 322.754 104.574 323.522 104.922C324.29 105.258 324.878 105.75 325.286 106.398C325.706 107.034 325.916 107.808 325.916 108.72C325.916 109.608 325.706 110.376 325.286 111.024C324.878 111.66 324.29 112.152 323.522 112.5C322.754 112.848 321.836 113.022 320.768 113.022H316.79L317.384 112.392V117H316.052ZM317.384 112.5L316.79 111.852H320.732C321.992 111.852 322.946 111.582 323.594 111.042C324.254 110.49 324.584 109.716 324.584 108.72C324.584 107.712 324.254 106.932 323.594 106.38C322.946 105.828 321.992 105.552 320.732 105.552H316.79L317.384 104.922V112.5ZM328.298 117V107.55H329.522V110.124L329.396 109.674C329.66 108.954 330.104 108.408 330.728 108.036C331.352 107.652 332.126 107.46 333.05 107.46V108.702C333.002 108.702 332.954 108.702 332.906 108.702C332.858 108.69 332.81 108.684 332.762 108.684C331.766 108.684 330.986 108.99 330.422 109.602C329.858 110.202 329.576 111.06 329.576 112.176V117H328.298ZM335.382 117V107.55H336.66V117H335.382ZM336.03 105.462C335.766 105.462 335.544 105.372 335.364 105.192C335.184 105.012 335.094 104.796 335.094 104.544C335.094 104.292 335.184 104.082 335.364 103.914C335.544 103.734 335.766 103.644 336.03 103.644C336.294 103.644 336.516 103.728 336.696 103.896C336.876 104.064 336.966 104.274 336.966 104.526C336.966 104.79 336.876 105.012 336.696 105.192C336.528 105.372 336.306 105.462 336.03 105.462ZM344.068 117.09C343.156 117.09 342.334 116.886 341.602 116.478C340.882 116.058 340.312 115.488 339.892 114.768C339.472 114.036 339.262 113.202 339.262 112.266C339.262 111.318 339.472 110.484 339.892 109.764C340.312 109.044 340.882 108.48 341.602 108.072C342.322 107.664 343.144 107.46 344.068 107.46C345.004 107.46 345.832 107.664 346.552 108.072C347.284 108.48 347.854 109.044 348.262 109.764C348.682 110.484 348.892 111.318 348.892 112.266C348.892 113.202 348.682 114.036 348.262 114.768C347.854 115.488 347.284 116.058 346.552 116.478C345.82 116.886 344.992 117.09 344.068 117.09ZM344.068 115.956C344.752 115.956 345.358 115.806 345.886 115.506C346.414 115.194 346.828 114.762 347.128 114.21C347.44 113.646 347.596 112.998 347.596 112.266C347.596 111.522 347.44 110.874 347.128 110.322C346.828 109.77 346.414 109.344 345.886 109.044C345.358 108.732 344.758 108.576 344.086 108.576C343.414 108.576 342.814 108.732 342.286 109.044C341.758 109.344 341.338 109.77 341.026 110.322C340.714 110.874 340.558 111.522 340.558 112.266C340.558 112.998 340.714 113.646 341.026 114.21C341.338 114.762 341.758 115.194 342.286 115.506C342.814 115.806 343.408 115.956 344.068 115.956ZM351.501 117V107.55H352.725V110.124L352.599 109.674C352.863 108.954 353.307 108.408 353.931 108.036C354.555 107.652 355.329 107.46 356.253 107.46V108.702C356.205 108.702 356.157 108.702 356.109 108.702C356.061 108.69 356.013 108.684 355.965 108.684C354.969 108.684 354.189 108.99 353.625 109.602C353.061 110.202 352.779 111.06 352.779 112.176V117H351.501ZM358.585 117V107.55H359.863V117H358.585ZM359.233 105.462C358.969 105.462 358.747 105.372 358.567 105.192C358.387 105.012 358.297 104.796 358.297 104.544C358.297 104.292 358.387 104.082 358.567 103.914C358.747 103.734 358.969 103.644 359.233 103.644C359.497 103.644 359.719 103.728 359.899 103.896C360.079 104.064 360.169 104.274 360.169 104.526C360.169 104.79 360.079 105.012 359.899 105.192C359.731 105.372 359.509 105.462 359.233 105.462ZM366.407 117.09C365.519 117.09 364.835 116.85 364.355 116.37C363.875 115.89 363.635 115.212 363.635 114.336V105.462H364.913V114.264C364.913 114.816 365.051 115.242 365.327 115.542C365.615 115.842 366.023 115.992 366.551 115.992C367.115 115.992 367.583 115.83 367.955 115.506L368.405 116.424C368.153 116.652 367.847 116.82 367.487 116.928C367.139 117.036 366.779 117.09 366.407 117.09ZM361.943 108.612V107.55H367.793V108.612H361.943ZM370.627 120.582C370.183 120.582 369.757 120.51 369.349 120.366C368.953 120.222 368.611 120.006 368.323 119.718L368.917 118.764C369.157 118.992 369.415 119.166 369.691 119.286C369.979 119.418 370.297 119.484 370.645 119.484C371.065 119.484 371.425 119.364 371.725 119.124C372.037 118.896 372.331 118.488 372.607 117.9L373.219 116.514L373.363 116.316L377.251 107.55H378.511L373.777 118.134C373.513 118.746 373.219 119.232 372.895 119.592C372.583 119.952 372.241 120.204 371.869 120.348C371.497 120.504 371.083 120.582 370.627 120.582ZM373.147 117.27L368.791 107.55H370.123L373.975 116.226L373.147 117.27ZM380.578 109.422C380.314 109.422 380.086 109.326 379.894 109.134C379.714 108.942 379.624 108.708 379.624 108.432C379.624 108.144 379.714 107.91 379.894 107.73C380.086 107.55 380.314 107.46 380.578 107.46C380.842 107.46 381.064 107.55 381.244 107.73C381.436 107.91 381.532 108.144 381.532 108.432C381.532 108.708 381.436 108.942 381.244 109.134C381.064 109.326 380.842 109.422 380.578 109.422ZM380.578 117.09C380.314 117.09 380.086 116.994 379.894 116.802C379.714 116.61 379.624 116.376 379.624 116.1C379.624 115.812 379.714 115.578 379.894 115.398C380.086 115.218 380.314 115.128 380.578 115.128C380.842 115.128 381.064 115.218 381.244 115.398C381.436 115.578 381.532 115.812 381.532 116.1C381.532 116.376 381.436 116.61 381.244 116.802C381.064 116.994 380.842 117.09 380.578 117.09Z" fill="#776A6A"/>
<g filter="url(#filter0_d_1140_2991)">
<rect x="314" y="126" width="194" height="30" rx="4" fill="white"/>
<rect x="314.1" y="126.1" width="193.8" height="29.8" rx="3.9" stroke="black" stroke-width="0.2"/>
</g>
<path d="M331.776 137.778V147.959H330.582L325.034 139.965H324.935V147.959H323.702V137.778H324.895L330.463 145.792H330.562V137.778H331.776ZM337.186 148.119C336.497 148.119 335.892 147.955 335.371 147.626C334.854 147.298 334.45 146.839 334.158 146.249C333.87 145.659 333.726 144.97 333.726 144.181C333.726 143.386 333.87 142.691 334.158 142.098C334.45 141.505 334.854 141.044 335.371 140.716C335.892 140.388 336.497 140.224 337.186 140.224C337.875 140.224 338.479 140.388 338.996 140.716C339.516 141.044 339.92 141.505 340.209 142.098C340.5 142.691 340.646 143.386 340.646 144.181C340.646 144.97 340.5 145.659 340.209 146.249C339.92 146.839 339.516 147.298 338.996 147.626C338.479 147.955 337.875 148.119 337.186 148.119ZM337.186 147.065C337.71 147.065 338.14 146.93 338.479 146.662C338.817 146.393 339.067 146.04 339.229 145.603C339.392 145.165 339.473 144.691 339.473 144.181C339.473 143.671 339.392 143.195 339.229 142.754C339.067 142.313 338.817 141.957 338.479 141.685C338.14 141.414 337.71 141.278 337.186 141.278C336.662 141.278 336.231 141.414 335.893 141.685C335.555 141.957 335.305 142.313 335.143 142.754C334.98 143.195 334.899 143.671 334.899 144.181C334.899 144.691 334.98 145.165 335.143 145.603C335.305 146.04 335.555 146.393 335.893 146.662C336.231 146.93 336.662 147.065 337.186 147.065ZM342.437 147.959V140.323H343.571V141.477H343.65C343.789 141.099 344.041 140.792 344.406 140.557C344.77 140.321 345.181 140.204 345.639 140.204C345.725 140.204 345.833 140.205 345.962 140.209C346.091 140.212 346.189 140.217 346.255 140.224V141.417C346.216 141.407 346.124 141.392 345.982 141.372C345.843 141.349 345.695 141.337 345.539 141.337C345.168 141.337 344.837 141.415 344.545 141.571C344.257 141.723 344.028 141.936 343.859 142.207C343.693 142.476 343.61 142.782 343.61 143.127V147.959H342.437ZM347.646 147.959V140.323H348.78V141.516H348.879C349.038 141.109 349.295 140.792 349.65 140.567C350.004 140.338 350.43 140.224 350.927 140.224C351.431 140.224 351.85 140.338 352.185 140.567C352.523 140.792 352.787 141.109 352.976 141.516H353.055C353.251 141.122 353.544 140.809 353.935 140.577C354.326 140.341 354.795 140.224 355.342 140.224C356.025 140.224 356.583 140.437 357.018 140.865C357.452 141.289 357.669 141.95 357.669 142.849V147.959H356.496V142.849C356.496 142.285 356.341 141.883 356.033 141.641C355.725 141.399 355.362 141.278 354.944 141.278C354.407 141.278 353.992 141.44 353.697 141.765C353.402 142.086 353.254 142.494 353.254 142.988V147.959H352.061V142.729C352.061 142.295 351.92 141.946 351.638 141.68C351.357 141.412 350.994 141.278 350.55 141.278C350.245 141.278 349.96 141.359 349.694 141.521C349.433 141.684 349.22 141.909 349.058 142.197C348.899 142.482 348.819 142.812 348.819 143.187V147.959H347.646ZM362.061 148.138C361.577 148.138 361.138 148.047 360.744 147.865C360.349 147.679 360.036 147.413 359.804 147.065C359.572 146.713 359.456 146.289 359.456 145.792C359.456 145.354 359.542 145 359.715 144.728C359.887 144.453 360.117 144.237 360.406 144.082C360.694 143.926 361.012 143.81 361.36 143.734C361.712 143.654 362.065 143.591 362.419 143.545C362.883 143.485 363.259 143.44 363.548 143.41C363.839 143.377 364.052 143.323 364.184 143.246C364.32 143.17 364.388 143.038 364.388 142.849V142.809C364.388 142.318 364.254 141.937 363.985 141.665C363.72 141.394 363.317 141.258 362.777 141.258C362.217 141.258 361.778 141.38 361.46 141.626C361.142 141.871 360.918 142.133 360.789 142.411L359.675 142.013C359.874 141.549 360.139 141.188 360.47 140.93C360.805 140.668 361.17 140.486 361.564 140.383C361.962 140.277 362.353 140.224 362.737 140.224C362.983 140.224 363.264 140.254 363.583 140.313C363.904 140.37 364.214 140.487 364.512 140.666C364.814 140.845 365.064 141.115 365.263 141.477C365.462 141.838 365.561 142.322 365.561 142.928V147.959H364.388V146.925H364.328C364.249 147.091 364.116 147.268 363.931 147.457C363.745 147.646 363.498 147.807 363.19 147.94C362.882 148.072 362.505 148.138 362.061 148.138ZM362.24 147.084C362.704 147.084 363.095 146.993 363.414 146.811C363.735 146.629 363.977 146.393 364.139 146.105C364.305 145.817 364.388 145.513 364.388 145.195V144.121C364.338 144.181 364.229 144.236 364.06 144.285C363.894 144.332 363.702 144.373 363.483 144.41C363.268 144.443 363.057 144.473 362.852 144.499C362.65 144.522 362.485 144.542 362.36 144.559C362.055 144.599 361.77 144.663 361.504 144.753C361.243 144.839 361.03 144.97 360.868 145.146C360.709 145.318 360.629 145.553 360.629 145.852C360.629 146.259 360.78 146.567 361.082 146.776C361.387 146.982 361.773 147.084 362.24 147.084ZM368.876 137.778V147.959H367.703V137.778H368.876Z" fill="black"/>
<g clip-path="url(#clip0_1140_2991)">
<path d="M488.695 144.75L481.869 140.313L484.146 138.834L488.695 141.792L493.245 138.834L495.522 140.313L488.695 144.75Z" fill="black"/>
</g>
<g filter="url(#filter1_d_1140_2991)">
<rect x="16" y="211" width="194" height="30" rx="4" fill="white"/>
</g>
<path d="M28.8428 232.959H25.7007V222.777H28.982C29.9697 222.777 30.8148 222.981 31.5175 223.389C32.2201 223.793 32.7587 224.375 33.1333 225.134C33.5078 225.889 33.695 226.794 33.695 227.848C33.695 228.909 33.5061 229.822 33.1283 230.588C32.7504 231.35 32.2003 231.936 31.4777 232.347C30.7552 232.755 29.8769 232.959 28.8428 232.959ZM26.9337 231.865H28.7632C29.6051 231.865 30.3028 231.703 30.8563 231.378C31.4098 231.053 31.8224 230.591 32.0942 229.991C32.366 229.391 32.5019 228.677 32.5019 227.848C32.5019 227.026 32.3676 226.319 32.0992 225.725C31.8307 225.129 31.4297 224.671 30.896 224.353C30.3624 224.032 29.6979 223.871 28.9024 223.871H26.9337V231.865ZM38.9053 232.959H35.7632V222.777H39.0445C40.0322 222.777 40.8773 222.981 41.58 223.389C42.2826 223.793 42.8212 224.375 43.1958 225.134C43.5703 225.889 43.7575 226.794 43.7575 227.848C43.7575 228.909 43.5686 229.822 43.1908 230.588C42.8129 231.35 42.2628 231.936 41.5402 232.347C40.8177 232.755 39.9394 232.959 38.9053 232.959ZM36.9962 231.865H38.8257C39.6676 231.865 40.3653 231.703 40.9188 231.378C41.4723 231.053 41.8849 230.591 42.1567 229.991C42.4285 229.391 42.5644 228.677 42.5644 227.848C42.5644 227.026 42.4301 226.319 42.1617 225.725C41.8932 225.129 41.4922 224.671 40.9585 224.353C40.4249 224.032 39.7604 223.871 38.9649 223.871H36.9962V231.865ZM50.0416 227.321V228.415H45.5871V227.321H50.0416ZM52.2652 222.777H53.7368L57.197 231.229H57.3163L60.7765 222.777H62.2481V232.959H61.0947V225.223H60.9953L57.8135 232.959H56.6998L53.518 225.223H53.4186V232.959H52.2652V222.777ZM64.7203 222.777H66.1919L69.6521 231.229H69.7714L73.2316 222.777H74.7032V232.959H73.5498V225.223H73.4504L70.2686 232.959H69.1549L65.9731 225.223H65.8737V232.959H64.7203V222.777ZM81.3912 227.321V228.415H76.9367V227.321H81.3912ZM81.6324 222.777H83.0443L85.8682 227.53H85.9875L88.8113 222.777H90.2233L86.5443 228.763V232.959H85.3113V228.763L81.6324 222.777ZM90.9429 222.777H92.3548L95.1787 227.53H95.298L98.1219 222.777H99.5338L95.8548 228.763V232.959H94.6219V228.763L90.9429 222.777ZM100.253 222.777H101.665L104.489 227.53H104.609L107.432 222.777H108.844L105.165 228.763V232.959H103.932V228.763L100.253 222.777ZM109.564 222.777H110.976L113.8 227.53H113.919L116.743 222.777H118.155L114.476 228.763V232.959H113.243V228.763L109.564 222.777Z" fill="black"/>
<g clip-path="url(#clip1_1140_2991)">
<path d="M195.373 220.336H192.871V219.418C192.871 219.296 192.81 219.179 192.702 219.093C192.594 219.007 192.447 218.959 192.294 218.958C192.141 218.958 191.994 219.007 191.886 219.093C191.777 219.179 191.716 219.296 191.716 219.417V220.336H188.252V219.418C188.252 219.358 188.237 219.298 188.208 219.242C188.179 219.187 188.137 219.136 188.083 219.093C188.03 219.051 187.966 219.017 187.896 218.994C187.826 218.97 187.751 218.959 187.675 218.958C187.522 218.958 187.375 219.007 187.267 219.093C187.158 219.179 187.097 219.296 187.097 219.417V220.336H183.633V219.418C183.633 219.358 183.618 219.298 183.589 219.242C183.56 219.187 183.518 219.136 183.464 219.093C183.411 219.051 183.347 219.017 183.277 218.994C183.207 218.97 183.132 218.959 183.056 218.958C182.903 218.958 182.756 219.007 182.648 219.093C182.539 219.179 182.478 219.296 182.478 219.417V220.336H179.976C179.568 220.336 179.176 220.465 178.888 220.695C178.599 220.924 178.437 221.236 178.437 221.56V232.428C178.437 232.752 178.599 233.064 178.887 233.293C179.176 233.523 179.568 233.652 179.976 233.652H195.373C195.781 233.652 196.173 233.523 196.462 233.293C196.75 233.064 196.913 232.752 196.913 232.428V221.56C196.913 221.236 196.75 220.924 196.461 220.695C196.173 220.465 195.781 220.336 195.373 220.336ZM195.758 232.428C195.758 232.509 195.718 232.587 195.645 232.644C195.573 232.702 195.476 232.734 195.374 232.734H179.976C179.874 232.734 179.776 232.702 179.704 232.645C179.632 232.587 179.591 232.509 179.591 232.428V221.561C179.591 221.48 179.632 221.402 179.704 221.345C179.776 221.288 179.874 221.255 179.976 221.255H182.478V222.174C182.478 222.295 182.539 222.412 182.647 222.498C182.755 222.585 182.902 222.633 183.055 222.633C183.208 222.633 183.355 222.585 183.464 222.499C183.572 222.413 183.633 222.296 183.633 222.174V221.255H187.097V222.174C187.097 222.295 187.158 222.412 187.266 222.498C187.374 222.585 187.521 222.633 187.674 222.633C187.827 222.633 187.974 222.585 188.083 222.499C188.191 222.413 188.252 222.296 188.252 222.174V221.255H191.716V222.174C191.716 222.295 191.777 222.412 191.885 222.498C191.993 222.585 192.14 222.633 192.293 222.633C192.446 222.633 192.593 222.585 192.702 222.499C192.81 222.413 192.871 222.296 192.871 222.174V221.255H195.373C195.475 221.255 195.572 221.288 195.644 221.345C195.716 221.402 195.757 221.48 195.757 221.561L195.758 232.428Z" fill="black"/>
<path d="M182.479 224.469H184.788V225.847H182.479V224.469ZM182.479 226.765H184.788V228.143H182.479V226.765ZM182.479 229.061H184.788V230.439H182.479V229.061ZM186.52 229.061H188.83V230.439H186.52V229.061ZM186.52 226.765H188.83V228.143H186.52V226.765ZM186.52 224.469H188.83V225.847H186.52V224.469ZM190.562 229.061H192.871V230.439H190.562V229.061ZM190.562 226.765H192.871V228.143H190.562V226.765ZM190.562 224.469H192.871V225.847H190.562V224.469Z" fill="black"/>
</g>
<path d="M17.233 143V132.818H20.6733C21.4721 132.818 22.125 132.962 22.6321 133.251C23.1425 133.536 23.5204 133.922 23.7656 134.409C24.0109 134.896 24.1335 135.44 24.1335 136.04C24.1335 136.64 24.0109 137.185 23.7656 137.675C23.5237 138.166 23.1491 138.557 22.642 138.849C22.1349 139.137 21.4853 139.281 20.6932 139.281H18.2273V138.188H20.6534C21.2003 138.188 21.6394 138.093 21.9709 137.904C22.3023 137.715 22.5426 137.46 22.6918 137.138C22.8442 136.814 22.9205 136.447 22.9205 136.04C22.9205 135.632 22.8442 135.268 22.6918 134.946C22.5426 134.625 22.3007 134.373 21.9659 134.19C21.6312 134.005 21.187 133.912 20.6335 133.912H18.4659V143H17.233ZM25.9606 143V135.364H27.0941V136.517H27.1737C27.3129 136.139 27.5647 135.833 27.9293 135.597C28.2939 135.362 28.7049 135.244 29.1623 135.244C29.2485 135.244 29.3562 135.246 29.4854 135.249C29.6147 135.253 29.7125 135.258 29.7788 135.264V136.457C29.739 136.447 29.6478 136.433 29.5053 136.413C29.3661 136.389 29.2186 136.378 29.0629 136.378C28.6916 136.378 28.3602 136.456 28.0685 136.612C27.7802 136.764 27.5515 136.976 27.3825 137.248C27.2167 137.516 27.1339 137.823 27.1339 138.168V143H25.9606ZM34.0394 143.159C33.35 143.159 32.7451 142.995 32.2248 142.667C31.7077 142.339 31.3034 141.88 31.0117 141.29C30.7234 140.7 30.5792 140.01 30.5792 139.222C30.5792 138.426 30.7234 137.732 31.0117 137.138C31.3034 136.545 31.7077 136.085 32.2248 135.756C32.7451 135.428 33.35 135.264 34.0394 135.264C34.7288 135.264 35.332 135.428 35.8491 135.756C36.3694 136.085 36.7738 136.545 37.0621 137.138C37.3538 137.732 37.4996 138.426 37.4996 139.222C37.4996 140.01 37.3538 140.7 37.0621 141.29C36.7738 141.88 36.3694 142.339 35.8491 142.667C35.332 142.995 34.7288 143.159 34.0394 143.159ZM34.0394 142.105C34.5631 142.105 34.994 141.971 35.332 141.702C35.6701 141.434 35.9203 141.081 36.0827 140.643C36.2451 140.206 36.3263 139.732 36.3263 139.222C36.3263 138.711 36.2451 138.236 36.0827 137.795C35.9203 137.354 35.6701 136.998 35.332 136.726C34.994 136.454 34.5631 136.318 34.0394 136.318C33.5157 136.318 33.0849 136.454 32.7468 136.726C32.4087 136.998 32.1585 137.354 31.9961 137.795C31.8337 138.236 31.7525 138.711 31.7525 139.222C31.7525 139.732 31.8337 140.206 31.9961 140.643C32.1585 141.081 32.4087 141.434 32.7468 141.702C33.0849 141.971 33.5157 142.105 34.0394 142.105ZM39.2907 135.364H40.464V143.557C40.464 144.027 40.3828 144.435 40.2203 144.78C40.0613 145.125 39.8193 145.391 39.4945 145.58C39.173 145.769 38.767 145.864 38.2765 145.864C38.2367 145.864 38.1969 145.864 38.1571 145.864C38.1174 145.864 38.0776 145.864 38.0378 145.864V144.77C38.0776 144.77 38.1141 144.77 38.1472 144.77C38.1803 144.77 38.2168 144.77 38.2566 144.77C38.6145 144.77 38.8764 144.664 39.0421 144.452C39.2078 144.243 39.2907 143.945 39.2907 143.557V135.364ZM39.8674 134.091C39.6387 134.091 39.4415 134.013 39.2757 133.857C39.1133 133.701 39.0321 133.514 39.0321 133.295C39.0321 133.077 39.1133 132.889 39.2757 132.734C39.4415 132.578 39.6387 132.5 39.8674 132.5C40.0961 132.5 40.2916 132.578 40.454 132.734C40.6197 132.889 40.7026 133.077 40.7026 133.295C40.7026 133.514 40.6197 133.701 40.454 133.857C40.2916 134.013 40.0961 134.091 39.8674 134.091ZM45.8146 143.159C45.0788 143.159 44.4441 142.997 43.9105 142.672C43.3802 142.344 42.9709 141.886 42.6825 141.3C42.3975 140.71 42.255 140.024 42.255 139.241C42.255 138.459 42.3975 137.77 42.6825 137.173C42.9709 136.573 43.3719 136.106 43.8857 135.771C44.4027 135.433 45.0059 135.264 45.6953 135.264C46.093 135.264 46.4858 135.33 46.8736 135.463C47.2614 135.596 47.6143 135.811 47.9325 136.109C48.2507 136.404 48.5043 136.795 48.6932 137.283C48.8821 137.77 48.9766 138.37 48.9766 139.082V139.58H43.0902V138.565H47.7834C47.7834 138.134 47.6972 137.75 47.5249 137.412C47.3558 137.074 47.1139 136.807 46.799 136.612C46.4875 136.416 46.1196 136.318 45.6953 136.318C45.228 136.318 44.8236 136.434 44.4822 136.666C44.1442 136.895 43.884 137.193 43.7017 137.561C43.5194 137.929 43.4283 138.323 43.4283 138.744V139.42C43.4283 139.997 43.5277 140.486 43.7266 140.887C43.9287 141.285 44.2088 141.588 44.5668 141.797C44.9247 142.002 45.3407 142.105 45.8146 142.105C46.1229 142.105 46.4013 142.062 46.6499 141.976C46.9018 141.886 47.1188 141.754 47.3011 141.578C47.4834 141.399 47.6243 141.177 47.7237 140.912L48.8572 141.23C48.7379 141.615 48.5374 141.953 48.2557 142.244C47.974 142.533 47.6259 142.758 47.2116 142.92C46.7973 143.08 46.3317 143.159 45.8146 143.159ZM53.8636 143.159C53.1477 143.159 52.5313 142.99 52.0142 142.652C51.4972 142.314 51.0994 141.848 50.821 141.255C50.5426 140.662 50.4034 139.984 50.4034 139.222C50.4034 138.446 50.5459 137.762 50.831 137.168C51.1193 136.572 51.5204 136.106 52.0341 135.771C52.5511 135.433 53.1544 135.264 53.8438 135.264C54.3807 135.264 54.8646 135.364 55.2955 135.562C55.7263 135.761 56.0793 136.04 56.3544 136.398C56.6295 136.756 56.8002 137.173 56.8665 137.651H55.6932C55.6037 137.303 55.4048 136.994 55.0966 136.726C54.7917 136.454 54.3807 136.318 53.8636 136.318C53.4063 136.318 53.0052 136.437 52.6605 136.676C52.3191 136.911 52.0523 137.245 51.8601 137.675C51.6712 138.103 51.5767 138.605 51.5767 139.182C51.5767 139.772 51.6695 140.286 51.8551 140.723C52.044 141.161 52.3092 141.5 52.6506 141.742C52.9953 141.984 53.3996 142.105 53.8636 142.105C54.1686 142.105 54.4453 142.052 54.6939 141.946C54.9425 141.84 55.1529 141.688 55.3253 141.489C55.4976 141.29 55.6203 141.051 55.6932 140.773H56.8665C56.8002 141.223 56.6361 141.629 56.3743 141.991C56.1158 142.349 55.7727 142.634 55.3452 142.846C54.9209 143.055 54.4271 143.159 53.8636 143.159ZM61.9027 135.364V136.358H57.9453V135.364H61.9027ZM59.0987 133.534H60.272V140.812C60.272 141.144 60.3201 141.393 60.4162 141.558C60.5156 141.721 60.6416 141.83 60.794 141.886C60.9498 141.939 61.1139 141.966 61.2862 141.966C61.4155 141.966 61.5215 141.959 61.6044 141.946C61.6873 141.929 61.7536 141.916 61.8033 141.906L62.0419 142.96C61.9624 142.99 61.8513 143.02 61.7088 143.05C61.5663 143.083 61.3857 143.099 61.1669 143.099C60.8355 143.099 60.5107 143.028 60.1925 142.886C59.8776 142.743 59.6158 142.526 59.407 142.234C59.2015 141.943 59.0987 141.575 59.0987 141.131V133.534ZM68.7784 138.406V143H67.6051V135.364H68.7386V136.557H68.8381C69.017 136.169 69.2888 135.857 69.6534 135.622C70.018 135.384 70.4886 135.264 71.0653 135.264C71.5824 135.264 72.0348 135.37 72.4226 135.582C72.8104 135.791 73.112 136.109 73.3274 136.537C73.5429 136.961 73.6506 137.498 73.6506 138.148V143H72.4773V138.227C72.4773 137.627 72.3215 137.16 72.0099 136.825C71.6984 136.487 71.2708 136.318 70.7273 136.318C70.3527 136.318 70.018 136.399 69.723 136.562C69.4313 136.724 69.201 136.961 69.032 137.273C68.8629 137.584 68.7784 137.962 68.7784 138.406ZM78.0417 143.179C77.5578 143.179 77.1187 143.088 76.7243 142.906C76.3298 142.72 76.0166 142.453 75.7846 142.105C75.5526 141.754 75.4366 141.33 75.4366 140.832C75.4366 140.395 75.5228 140.04 75.6951 139.768C75.8675 139.493 76.0978 139.278 76.3862 139.122C76.6745 138.966 76.9927 138.85 77.3407 138.774C77.6921 138.695 78.045 138.632 78.3997 138.585C78.8637 138.526 79.2399 138.481 79.5282 138.451C79.8199 138.418 80.032 138.363 80.1646 138.287C80.3005 138.211 80.3684 138.078 80.3684 137.889V137.849C80.3684 137.359 80.2342 136.978 79.9657 136.706C79.7006 136.434 79.2979 136.298 78.7576 136.298C78.1975 136.298 77.7583 136.421 77.4402 136.666C77.122 136.911 76.8983 137.173 76.769 137.452L75.6554 137.054C75.8542 136.59 76.1194 136.229 76.4508 135.97C76.7856 135.708 77.1502 135.526 77.5446 135.423C77.9423 135.317 78.3334 135.264 78.7179 135.264C78.9631 135.264 79.2449 135.294 79.563 135.354C79.8845 135.41 80.1944 135.528 80.4927 135.707C80.7943 135.886 81.0446 136.156 81.2434 136.517C81.4423 136.878 81.5417 137.362 81.5417 137.969V143H80.3684V141.966H80.3088C80.2292 142.132 80.0967 142.309 79.911 142.498C79.7254 142.687 79.4785 142.848 79.1703 142.98C78.862 143.113 78.4859 143.179 78.0417 143.179ZM78.2207 142.125C78.6847 142.125 79.0758 142.034 79.394 141.852C79.7155 141.669 79.9574 141.434 80.1199 141.146C80.2856 140.857 80.3684 140.554 80.3684 140.236V139.162C80.3187 139.222 80.2093 139.276 80.0403 139.326C79.8746 139.372 79.6824 139.414 79.4636 139.45C79.2482 139.483 79.0377 139.513 78.8322 139.54C78.63 139.563 78.466 139.583 78.34 139.599C78.0351 139.639 77.7501 139.704 77.4849 139.793C77.2231 139.879 77.0109 140.01 76.8485 140.186C76.6895 140.358 76.6099 140.594 76.6099 140.892C76.6099 141.3 76.7607 141.608 77.0623 141.817C77.3672 142.022 77.7534 142.125 78.2207 142.125ZM83.6832 143V135.364H84.8168V136.557H84.9162C85.0753 136.149 85.3321 135.833 85.6868 135.607C86.0414 135.379 86.4673 135.264 86.9645 135.264C87.4683 135.264 87.8875 135.379 88.2223 135.607C88.5604 135.833 88.8239 136.149 89.0128 136.557H89.0923C89.2879 136.162 89.5812 135.849 89.9723 135.617C90.3634 135.382 90.8324 135.264 91.3793 135.264C92.062 135.264 92.6205 135.478 93.0547 135.906C93.4889 136.33 93.706 136.991 93.706 137.889V143H92.5327V137.889C92.5327 137.326 92.3786 136.923 92.0703 136.681C91.7621 136.439 91.3991 136.318 90.9815 136.318C90.4446 136.318 90.0286 136.481 89.7337 136.805C89.4387 137.127 89.2912 137.535 89.2912 138.028V143H88.098V137.77C88.098 137.336 87.9571 136.986 87.6754 136.721C87.3937 136.452 87.0308 136.318 86.5866 136.318C86.2817 136.318 85.9967 136.399 85.7315 136.562C85.4697 136.724 85.2576 136.95 85.0952 137.238C84.9361 137.523 84.8565 137.853 84.8565 138.227V143H83.6832ZM99.0529 143.159C98.3171 143.159 97.6824 142.997 97.1488 142.672C96.6185 142.344 96.2092 141.886 95.9208 141.3C95.6358 140.71 95.4933 140.024 95.4933 139.241C95.4933 138.459 95.6358 137.77 95.9208 137.173C96.2092 136.573 96.6102 136.106 97.1239 135.771C97.641 135.433 98.2442 135.264 98.9336 135.264C99.3313 135.264 99.7241 135.33 100.112 135.463C100.5 135.596 100.853 135.811 101.171 136.109C101.489 136.404 101.743 136.795 101.931 137.283C102.12 137.77 102.215 138.37 102.215 139.082V139.58H96.3285V138.565H101.022C101.022 138.134 100.935 137.75 100.763 137.412C100.594 137.074 100.352 136.807 100.037 136.612C99.7257 136.416 99.3578 136.318 98.9336 136.318C98.4663 136.318 98.0619 136.434 97.7205 136.666C97.3825 136.895 97.1223 137.193 96.94 137.561C96.7577 137.929 96.6665 138.323 96.6665 138.744V139.42C96.6665 139.997 96.766 140.486 96.9648 140.887C97.167 141.285 97.4471 141.588 97.805 141.797C98.163 142.002 98.579 142.105 99.0529 142.105C99.3612 142.105 99.6396 142.062 99.8881 141.976C100.14 141.886 100.357 141.754 100.539 141.578C100.722 141.399 100.863 141.177 100.962 140.912L102.096 141.23C101.976 141.615 101.776 141.953 101.494 142.244C101.212 142.533 100.864 142.758 100.45 142.92C100.036 143.08 99.57 143.159 99.0529 143.159Z" fill="#050505"/>
<line x1="16" y1="154.75" x2="210" y2="154.75" stroke="url(#paint0_linear_1140_2991)" stroke-width="2.5"/>
<path d="M51 312.998H45V318.998H43V312.998H37V310.998H43V304.998H45V310.998H51V312.998Z" fill="black"/>
<g filter="url(#filter2_d_1140_2991)">
<rect x="56.5" y="582.5" width="193" height="47" rx="16.5" stroke="#28B4E1" shape-rendering="crispEdges"/>
</g>
<path d="M135.119 606.2H133.534C133.44 605.744 133.276 605.344 133.042 604.998C132.812 604.653 132.531 604.364 132.198 604.129C131.87 603.891 131.506 603.712 131.105 603.592C130.705 603.473 130.287 603.413 129.852 603.413C129.06 603.413 128.342 603.614 127.698 604.014C127.059 604.415 126.55 605.005 126.17 605.785C125.795 606.565 125.608 607.521 125.608 608.655C125.608 609.788 125.795 610.745 126.17 611.525C126.55 612.305 127.059 612.895 127.698 613.295C128.342 613.696 129.06 613.896 129.852 613.896C130.287 613.896 130.705 613.837 131.105 613.717C131.506 613.598 131.87 613.421 132.198 613.187C132.531 612.948 132.812 612.656 133.042 612.311C133.276 611.962 133.44 611.561 133.534 611.109H135.119C135 611.778 134.783 612.377 134.467 612.905C134.152 613.434 133.76 613.883 133.291 614.254C132.822 614.621 132.296 614.9 131.712 615.092C131.133 615.283 130.513 615.379 129.852 615.379C128.736 615.379 127.743 615.106 126.874 614.561C126.004 614.016 125.32 613.24 124.822 612.234C124.323 611.229 124.074 610.035 124.074 608.655C124.074 607.274 124.323 606.081 124.822 605.075C125.32 604.07 126.004 603.294 126.874 602.748C127.743 602.203 128.736 601.93 129.852 601.93C130.513 601.93 131.133 602.026 131.712 602.218C132.296 602.41 132.822 602.691 133.291 603.062C133.76 603.428 134.152 603.876 134.467 604.404C134.783 604.928 135 605.527 135.119 606.2ZM140.366 615.43C139.743 615.43 139.179 615.313 138.672 615.079C138.165 614.84 137.762 614.497 137.464 614.05C137.165 613.598 137.016 613.052 137.016 612.413C137.016 611.851 137.127 611.395 137.349 611.045C137.57 610.692 137.866 610.415 138.237 610.214C138.608 610.014 139.017 609.865 139.464 609.767C139.916 609.665 140.37 609.584 140.826 609.524C141.422 609.447 141.906 609.39 142.277 609.351C142.652 609.309 142.925 609.239 143.095 609.141C143.27 609.043 143.357 608.872 143.357 608.629V608.578C143.357 607.947 143.184 607.457 142.839 607.108C142.498 606.758 141.981 606.584 141.286 606.584C140.566 606.584 140.001 606.741 139.592 607.057C139.183 607.372 138.895 607.709 138.729 608.067L137.297 607.555C137.553 606.959 137.894 606.494 138.32 606.162C138.751 605.825 139.219 605.591 139.726 605.459C140.238 605.322 140.741 605.254 141.235 605.254C141.55 605.254 141.912 605.293 142.322 605.369C142.735 605.442 143.133 605.593 143.517 605.823C143.905 606.053 144.226 606.4 144.482 606.865C144.738 607.329 144.866 607.952 144.866 608.731V615.2H143.357V613.871H143.28C143.178 614.084 143.008 614.312 142.769 614.555C142.53 614.797 142.213 615.004 141.817 615.175C141.42 615.345 140.937 615.43 140.366 615.43ZM140.596 614.075C141.192 614.075 141.695 613.958 142.104 613.724C142.518 613.489 142.829 613.187 143.037 612.816C143.251 612.445 143.357 612.055 143.357 611.646V610.266C143.293 610.342 143.153 610.413 142.935 610.476C142.722 610.536 142.475 610.589 142.194 610.636C141.917 610.679 141.646 610.717 141.382 610.751C141.122 610.781 140.911 610.807 140.749 610.828C140.357 610.879 139.991 610.962 139.65 611.077C139.313 611.188 139.04 611.356 138.831 611.582C138.627 611.804 138.525 612.106 138.525 612.49C138.525 613.014 138.719 613.41 139.106 613.679C139.498 613.943 139.995 614.075 140.596 614.075ZM149.127 609.294V615.2H147.619V605.382H149.076V606.916H149.204C149.434 606.418 149.784 606.017 150.252 605.714C150.721 605.408 151.326 605.254 152.068 605.254C152.733 605.254 153.314 605.391 153.813 605.663C154.311 605.932 154.699 606.341 154.976 606.891C155.253 607.436 155.392 608.126 155.392 608.962V615.2H153.883V609.064C153.883 608.293 153.683 607.692 153.282 607.261C152.882 606.827 152.332 606.609 151.633 606.609C151.152 606.609 150.721 606.714 150.342 606.922C149.967 607.131 149.671 607.436 149.453 607.837C149.236 608.237 149.127 608.723 149.127 609.294ZM162.137 615.405C161.216 615.405 160.424 615.187 159.759 614.753C159.094 614.318 158.583 613.719 158.225 612.957C157.867 612.194 157.688 611.322 157.688 610.342C157.688 609.345 157.871 608.465 158.238 607.702C158.608 606.935 159.124 606.337 159.785 605.906C160.449 605.472 161.225 605.254 162.111 605.254C162.802 605.254 163.424 605.382 163.978 605.638C164.532 605.893 164.986 606.251 165.339 606.712C165.693 607.172 165.912 607.709 165.998 608.322H164.489C164.374 607.875 164.118 607.479 163.722 607.133C163.33 606.784 162.802 606.609 162.137 606.609C161.549 606.609 161.033 606.763 160.59 607.07C160.151 607.372 159.808 607.8 159.561 608.354C159.318 608.904 159.197 609.55 159.197 610.291C159.197 611.05 159.316 611.71 159.555 612.273C159.797 612.835 160.138 613.272 160.577 613.583C161.02 613.894 161.54 614.05 162.137 614.05C162.529 614.05 162.885 613.981 163.204 613.845C163.524 613.709 163.795 613.513 164.016 613.257C164.238 613.001 164.395 612.695 164.489 612.337H165.998C165.912 612.916 165.702 613.438 165.365 613.903C165.032 614.363 164.591 614.729 164.042 615.002C163.496 615.271 162.861 615.405 162.137 615.405ZM172.319 615.405C171.373 615.405 170.557 615.196 169.871 614.778C169.189 614.356 168.663 613.768 168.292 613.014C167.926 612.256 167.743 611.373 167.743 610.368C167.743 609.362 167.926 608.476 168.292 607.709C168.663 606.937 169.179 606.337 169.839 605.906C170.504 605.472 171.28 605.254 172.166 605.254C172.677 605.254 173.182 605.339 173.681 605.51C174.18 605.68 174.633 605.957 175.042 606.341C175.452 606.72 175.778 607.223 176.02 607.849C176.263 608.476 176.385 609.247 176.385 610.163V610.802H168.817V609.498H174.851C174.851 608.945 174.74 608.45 174.518 608.016C174.301 607.581 173.99 607.238 173.585 606.986C173.184 606.735 172.711 606.609 172.166 606.609C171.565 606.609 171.045 606.758 170.606 607.057C170.172 607.351 169.837 607.734 169.603 608.207C169.368 608.68 169.251 609.187 169.251 609.729V610.598C169.251 611.339 169.379 611.968 169.635 612.484C169.895 612.995 170.255 613.385 170.715 613.653C171.175 613.918 171.71 614.05 172.319 614.05C172.716 614.05 173.074 613.994 173.393 613.883C173.717 613.768 173.996 613.598 174.231 613.372C174.465 613.142 174.646 612.856 174.774 612.516L176.231 612.925C176.078 613.419 175.82 613.854 175.458 614.229C175.096 614.599 174.648 614.889 174.116 615.098C173.583 615.302 172.984 615.405 172.319 615.405ZM180.188 602.109V615.2H178.68V602.109H180.188Z" fill="#28B4E1"/>
<rect x="274" y="582" width="194" height="48" rx="17" fill="#28B4E1"/>
<path d="M354.119 606.2H352.534C352.44 605.744 352.276 605.344 352.042 604.998C351.812 604.653 351.531 604.364 351.198 604.129C350.87 603.891 350.506 603.712 350.105 603.592C349.705 603.473 349.287 603.413 348.852 603.413C348.06 603.413 347.342 603.614 346.698 604.014C346.059 604.415 345.55 605.005 345.17 605.785C344.795 606.565 344.608 607.521 344.608 608.655C344.608 609.788 344.795 610.745 345.17 611.525C345.55 612.305 346.059 612.895 346.698 613.295C347.342 613.696 348.06 613.896 348.852 613.896C349.287 613.896 349.705 613.837 350.105 613.717C350.506 613.598 350.87 613.421 351.198 613.187C351.531 612.948 351.812 612.656 352.042 612.311C352.276 611.962 352.44 611.561 352.534 611.109H354.119C354 611.778 353.783 612.377 353.467 612.905C353.152 613.434 352.76 613.883 352.291 614.254C351.822 614.621 351.296 614.9 350.712 615.092C350.133 615.283 349.513 615.379 348.852 615.379C347.736 615.379 346.743 615.106 345.874 614.561C345.004 614.016 344.32 613.24 343.822 612.234C343.323 611.229 343.074 610.035 343.074 608.655C343.074 607.274 343.323 606.081 343.822 605.075C344.32 604.07 345.004 603.294 345.874 602.748C346.743 602.203 347.736 601.93 348.852 601.93C349.513 601.93 350.133 602.026 350.712 602.218C351.296 602.41 351.822 602.691 352.291 603.062C352.76 603.428 353.152 603.876 353.467 604.404C353.783 604.928 354 605.527 354.119 606.2ZM356.476 615.2V605.382H357.934V606.865H358.036C358.215 606.379 358.539 605.985 359.008 605.682C359.476 605.38 360.005 605.229 360.593 605.229C360.704 605.229 360.842 605.231 361.008 605.235C361.175 605.239 361.3 605.246 361.385 605.254V606.788C361.334 606.775 361.217 606.756 361.034 606.731C360.855 606.701 360.665 606.686 360.465 606.686C359.988 606.686 359.562 606.786 359.187 606.986C358.816 607.182 358.522 607.455 358.305 607.805C358.091 608.15 357.985 608.544 357.985 608.987V615.2H356.476ZM366.991 615.405C366.045 615.405 365.229 615.196 364.543 614.778C363.861 614.356 363.335 613.768 362.964 613.014C362.598 612.256 362.415 611.373 362.415 610.368C362.415 609.362 362.598 608.476 362.964 607.709C363.335 606.937 363.851 606.337 364.511 605.906C365.176 605.472 365.952 605.254 366.838 605.254C367.349 605.254 367.854 605.339 368.353 605.51C368.851 605.68 369.305 605.957 369.714 606.341C370.123 606.72 370.449 607.223 370.692 607.849C370.935 608.476 371.057 609.247 371.057 610.163V610.802H363.488V609.498H369.523C369.523 608.945 369.412 608.45 369.19 608.016C368.973 607.581 368.662 607.238 368.257 606.986C367.856 606.735 367.383 606.609 366.838 606.609C366.237 606.609 365.717 606.758 365.278 607.057C364.844 607.351 364.509 607.734 364.275 608.207C364.04 608.68 363.923 609.187 363.923 609.729V610.598C363.923 611.339 364.051 611.968 364.307 612.484C364.567 612.995 364.927 613.385 365.387 613.653C365.847 613.918 366.382 614.05 366.991 614.05C367.388 614.05 367.746 613.994 368.065 613.883C368.389 613.768 368.668 613.598 368.903 613.372C369.137 613.142 369.318 612.856 369.446 612.516L370.903 612.925C370.75 613.419 370.492 613.854 370.13 614.229C369.768 614.599 369.32 614.889 368.787 615.098C368.255 615.302 367.656 615.405 366.991 615.405ZM376.241 615.43C375.618 615.43 375.054 615.313 374.547 615.079C374.04 614.84 373.637 614.497 373.339 614.05C373.04 613.598 372.891 613.052 372.891 612.413C372.891 611.851 373.002 611.395 373.224 611.045C373.445 610.692 373.741 610.415 374.112 610.214C374.483 610.014 374.892 609.865 375.339 609.767C375.791 609.665 376.245 609.584 376.701 609.524C377.297 609.447 377.781 609.39 378.152 609.351C378.527 609.309 378.8 609.239 378.97 609.141C379.145 609.043 379.232 608.872 379.232 608.629V608.578C379.232 607.947 379.059 607.457 378.714 607.108C378.373 606.758 377.856 606.584 377.161 606.584C376.441 606.584 375.876 606.741 375.467 607.057C375.058 607.372 374.77 607.709 374.604 608.067L373.172 607.555C373.428 606.959 373.769 606.494 374.195 606.162C374.626 605.825 375.094 605.591 375.601 605.459C376.113 605.322 376.616 605.254 377.11 605.254C377.425 605.254 377.787 605.293 378.197 605.369C378.61 605.442 379.008 605.593 379.392 605.823C379.78 606.053 380.101 606.4 380.357 606.865C380.613 607.329 380.741 607.952 380.741 608.731V615.2H379.232V613.871H379.155C379.053 614.084 378.883 614.312 378.644 614.555C378.405 614.797 378.088 615.004 377.692 615.175C377.295 615.345 376.812 615.43 376.241 615.43ZM376.471 614.075C377.067 614.075 377.57 613.958 377.979 613.724C378.393 613.489 378.704 613.187 378.912 612.816C379.126 612.445 379.232 612.055 379.232 611.646V610.266C379.168 610.342 379.028 610.413 378.81 610.476C378.597 610.536 378.35 610.589 378.069 610.636C377.792 610.679 377.521 610.717 377.257 610.751C376.997 610.781 376.786 610.807 376.624 610.828C376.232 610.879 375.866 610.962 375.525 611.077C375.188 611.188 374.915 611.356 374.706 611.582C374.502 611.804 374.4 612.106 374.4 612.49C374.4 613.014 374.594 613.41 374.981 613.679C375.373 613.943 375.87 614.075 376.471 614.075ZM387.764 605.382V606.66H382.676V605.382H387.764ZM384.159 603.03H385.667V612.388C385.667 612.814 385.729 613.133 385.853 613.347C385.98 613.555 386.142 613.696 386.338 613.768C386.539 613.837 386.75 613.871 386.971 613.871C387.137 613.871 387.274 613.862 387.38 613.845C387.487 613.824 387.572 613.807 387.636 613.794L387.943 615.149C387.841 615.187 387.698 615.226 387.515 615.264C387.331 615.307 387.099 615.328 386.818 615.328C386.392 615.328 385.974 615.236 385.565 615.053C385.16 614.87 384.824 614.591 384.555 614.216C384.291 613.841 384.159 613.368 384.159 612.797V603.03ZM394.044 615.405C393.098 615.405 392.282 615.196 391.596 614.778C390.914 614.356 390.388 613.768 390.017 613.014C389.651 612.256 389.467 611.373 389.467 610.368C389.467 609.362 389.651 608.476 390.017 607.709C390.388 606.937 390.903 606.337 391.564 605.906C392.229 605.472 393.004 605.254 393.891 605.254C394.402 605.254 394.907 605.339 395.406 605.51C395.904 605.68 396.358 605.957 396.767 606.341C397.176 606.72 397.502 607.223 397.745 607.849C397.988 608.476 398.109 609.247 398.109 610.163V610.802H390.541V609.498H396.575C396.575 608.945 396.464 608.45 396.243 608.016C396.026 607.581 395.714 607.238 395.31 606.986C394.909 606.735 394.436 606.609 393.891 606.609C393.29 606.609 392.77 606.758 392.331 607.057C391.896 607.351 391.562 607.734 391.327 608.207C391.093 608.68 390.976 609.187 390.976 609.729V610.598C390.976 611.339 391.104 611.968 391.359 612.484C391.619 612.995 391.979 613.385 392.44 613.653C392.9 613.918 393.435 614.05 394.044 614.05C394.44 614.05 394.798 613.994 395.118 613.883C395.442 613.768 395.721 613.598 395.955 613.372C396.19 613.142 396.371 612.856 396.499 612.516L397.956 612.925C397.803 613.419 397.545 613.854 397.183 614.229C396.82 614.599 396.373 614.889 395.84 615.098C395.308 615.302 394.709 615.405 394.044 615.405Z" fill="white"/>
<rect x="35.5" y="408.5" width="454" height="100" rx="15.5" stroke="#28B4E1" stroke-width="3"/>
<rect width="524" height="70" fill="url(#paint1_linear_1140_2991)"/>
<path d="M41.88 44.24C39.8933 44.24 38.34 43.6867 37.22 42.58C36.1 41.4733 35.54 39.8933 35.54 37.84V30H38.78V37.72C38.78 39.0533 39.0533 40.0133 39.6 40.6C40.1467 41.1867 40.9133 41.48 41.9 41.48C42.8867 41.48 43.6533 41.1867 44.2 40.6C44.7467 40.0133 45.02 39.0533 45.02 37.72V30H48.22V37.84C48.22 39.8933 47.66 41.4733 46.54 42.58C45.42 43.6867 43.8667 44.24 41.88 44.24ZM57.5617 44.16C56.6551 44.16 55.8617 43.96 55.1817 43.56C54.5017 43.16 53.9684 42.5533 53.5817 41.74C53.2084 40.9133 53.0217 39.8733 53.0217 38.62C53.0217 37.3533 53.2017 36.3133 53.5617 35.5C53.9217 34.6867 54.4417 34.08 55.1217 33.68C55.8017 33.28 56.6151 33.08 57.5617 33.08C58.5751 33.08 59.4817 33.3133 60.2817 33.78C61.0951 34.2333 61.7351 34.8733 62.2017 35.7C62.6817 36.5267 62.9217 37.5 62.9217 38.62C62.9217 39.7533 62.6817 40.7333 62.2017 41.56C61.7351 42.3867 61.0951 43.0267 60.2817 43.48C59.4817 43.9333 58.5751 44.16 57.5617 44.16ZM51.2017 47.88V33.24H54.1817V35.44L54.1217 38.64L54.3217 41.82V47.88H51.2017ZM57.0217 41.6C57.5417 41.6 58.0017 41.48 58.4017 41.24C58.8151 41 59.1417 40.66 59.3817 40.22C59.6351 39.7667 59.7617 39.2333 59.7617 38.62C59.7617 37.9933 59.6351 37.46 59.3817 37.02C59.1417 36.58 58.8151 36.24 58.4017 36C58.0017 35.76 57.5417 35.64 57.0217 35.64C56.5017 35.64 56.0351 35.76 55.6217 36C55.2084 36.24 54.8817 36.58 54.6417 37.02C54.4017 37.46 54.2817 37.9933 54.2817 38.62C54.2817 39.2333 54.4017 39.7667 54.6417 40.22C54.8817 40.66 55.2084 41 55.6217 41.24C56.0351 41.48 56.5017 41.6 57.0217 41.6ZM69.6303 44.16C68.617 44.16 67.7036 43.9333 66.8903 43.48C66.077 43.0133 65.4303 42.3667 64.9503 41.54C64.4836 40.7133 64.2503 39.74 64.2503 38.62C64.2503 37.4867 64.4836 36.5067 64.9503 35.68C65.4303 34.8533 66.077 34.2133 66.8903 33.76C67.7036 33.3067 68.617 33.08 69.6303 33.08C70.537 33.08 71.3303 33.28 72.0103 33.68C72.6903 34.08 73.217 34.6867 73.5903 35.5C73.9636 36.3133 74.1503 37.3533 74.1503 38.62C74.1503 39.8733 73.9703 40.9133 73.6103 41.74C73.2503 42.5533 72.7303 43.16 72.0503 43.56C71.3836 43.96 70.577 44.16 69.6303 44.16ZM70.1703 41.6C70.677 41.6 71.137 41.48 71.5503 41.24C71.9636 41 72.2903 40.66 72.5303 40.22C72.7836 39.7667 72.9103 39.2333 72.9103 38.62C72.9103 37.9933 72.7836 37.46 72.5303 37.02C72.2903 36.58 71.9636 36.24 71.5503 36C71.137 35.76 70.677 35.64 70.1703 35.64C69.6503 35.64 69.1836 35.76 68.7703 36C68.357 36.24 68.0236 36.58 67.7703 37.02C67.5303 37.46 67.4103 37.9933 67.4103 38.62C67.4103 39.2333 67.5303 39.7667 67.7703 40.22C68.0236 40.66 68.357 41 68.7703 41.24C69.1836 41.48 69.6503 41.6 70.1703 41.6ZM72.9903 44V41.8L73.0503 38.6L72.8503 35.42V29.16H75.9703V44H72.9903ZM85.458 44V41.9L85.258 41.44V37.68C85.258 37.0133 85.0513 36.4933 84.638 36.12C84.238 35.7467 83.618 35.56 82.778 35.56C82.2046 35.56 81.638 35.6533 81.078 35.84C80.5313 36.0133 80.0646 36.2533 79.678 36.56L78.558 34.38C79.1446 33.9667 79.8513 33.6467 80.678 33.42C81.5046 33.1933 82.3446 33.08 83.198 33.08C84.838 33.08 86.1113 33.4667 87.018 34.24C87.9246 35.0133 88.378 36.22 88.378 37.86V44H85.458ZM82.178 44.16C81.338 44.16 80.618 44.02 80.018 43.74C79.418 43.4467 78.958 43.0533 78.638 42.56C78.318 42.0667 78.158 41.5133 78.158 40.9C78.158 40.26 78.3113 39.7 78.618 39.22C78.938 38.74 79.438 38.3667 80.118 38.1C80.798 37.82 81.6846 37.68 82.778 37.68H85.638V39.5H83.118C82.3846 39.5 81.878 39.62 81.598 39.86C81.3313 40.1 81.198 40.4 81.198 40.76C81.198 41.16 81.3513 41.48 81.658 41.72C81.978 41.9467 82.4113 42.06 82.958 42.06C83.478 42.06 83.9446 41.94 84.358 41.7C84.7713 41.4467 85.0713 41.08 85.258 40.6L85.738 42.04C85.5113 42.7333 85.098 43.26 84.498 43.62C83.898 43.98 83.1246 44.16 82.178 44.16ZM95.6017 44.16C94.3351 44.16 93.3484 43.84 92.6417 43.2C91.9351 42.5467 91.5817 41.58 91.5817 40.3V30.86H94.7017V40.26C94.7017 40.7133 94.8217 41.0667 95.0617 41.32C95.3017 41.56 95.6284 41.68 96.0417 41.68C96.5351 41.68 96.9551 41.5467 97.3017 41.28L98.1417 43.48C97.8217 43.7067 97.4351 43.88 96.9817 44C96.5417 44.1067 96.0817 44.16 95.6017 44.16ZM89.9217 35.88V33.48H97.3817V35.88H89.9217ZM104.901 44.16C103.674 44.16 102.594 43.92 101.661 43.44C100.741 42.96 100.028 42.3067 99.5211 41.48C99.0144 40.64 98.7611 39.6867 98.7611 38.62C98.7611 37.54 99.0078 36.5867 99.5011 35.76C100.008 34.92 100.694 34.2667 101.561 33.8C102.428 33.32 103.408 33.08 104.501 33.08C105.554 33.08 106.501 33.3067 107.341 33.76C108.194 34.2 108.868 34.84 109.361 35.68C109.854 36.5067 110.101 37.5 110.101 38.66C110.101 38.78 110.094 38.92 110.081 39.08C110.068 39.2267 110.054 39.3667 110.041 39.5H101.301V37.68H108.401L107.201 38.22C107.201 37.66 107.088 37.1733 106.861 36.76C106.634 36.3467 106.321 36.0267 105.921 35.8C105.521 35.56 105.054 35.44 104.521 35.44C103.988 35.44 103.514 35.56 103.101 35.8C102.701 36.0267 102.388 36.3533 102.161 36.78C101.934 37.1933 101.821 37.6867 101.821 38.26V38.74C101.821 39.3267 101.948 39.8467 102.201 40.3C102.468 40.74 102.834 41.08 103.301 41.32C103.781 41.5467 104.341 41.66 104.981 41.66C105.554 41.66 106.054 41.5733 106.481 41.4C106.921 41.2267 107.321 40.9667 107.681 40.62L109.341 42.42C108.848 42.98 108.228 43.4133 107.481 43.72C106.734 44.0133 105.874 44.16 104.901 44.16ZM118.062 44V30H124.122C125.376 30 126.456 30.2067 127.362 30.62C128.269 31.02 128.969 31.6 129.462 32.36C129.956 33.12 130.202 34.0267 130.202 35.08C130.202 36.12 129.956 37.02 129.462 37.78C128.969 38.54 128.269 39.1267 127.362 39.54C126.456 39.94 125.376 40.14 124.122 40.14H119.862L121.302 38.68V44H118.062ZM121.302 39.04L119.862 37.5H123.942C124.942 37.5 125.689 37.2867 126.182 36.86C126.676 36.4333 126.922 35.84 126.922 35.08C126.922 34.3067 126.676 33.7067 126.182 33.28C125.689 32.8533 124.942 32.64 123.942 32.64H119.862L121.302 31.1V39.04ZM132.276 44V33.24H135.256V36.28L134.836 35.4C135.156 34.64 135.669 34.0667 136.376 33.68C137.083 33.28 137.943 33.08 138.956 33.08V35.96C138.823 35.9467 138.703 35.94 138.596 35.94C138.489 35.9267 138.376 35.92 138.256 35.92C137.403 35.92 136.709 36.1667 136.176 36.66C135.656 37.14 135.396 37.8933 135.396 38.92V44H132.276ZM145.853 44.16C144.706 44.16 143.686 43.92 142.793 43.44C141.913 42.96 141.213 42.3067 140.693 41.48C140.186 40.64 139.933 39.6867 139.933 38.62C139.933 37.54 140.186 36.5867 140.693 35.76C141.213 34.92 141.913 34.2667 142.793 33.8C143.686 33.32 144.706 33.08 145.853 33.08C146.986 33.08 148 33.32 148.893 33.8C149.786 34.2667 150.486 34.9133 150.993 35.74C151.5 36.5667 151.753 37.5267 151.753 38.62C151.753 39.6867 151.5 40.64 150.993 41.48C150.486 42.3067 149.786 42.96 148.893 43.44C148 43.92 146.986 44.16 145.853 44.16ZM145.853 41.6C146.373 41.6 146.84 41.48 147.253 41.24C147.666 41 147.993 40.66 148.233 40.22C148.473 39.7667 148.593 39.2333 148.593 38.62C148.593 37.9933 148.473 37.46 148.233 37.02C147.993 36.58 147.666 36.24 147.253 36C146.84 35.76 146.373 35.64 145.853 35.64C145.333 35.64 144.866 35.76 144.453 36C144.04 36.24 143.706 36.58 143.453 37.02C143.213 37.46 143.093 37.9933 143.093 38.62C143.093 39.2333 143.213 39.7667 143.453 40.22C143.706 40.66 144.04 41 144.453 41.24C144.866 41.48 145.333 41.6 145.853 41.6ZM153.038 48.04C152.558 48.04 152.098 47.9867 151.658 47.88C151.218 47.7867 150.845 47.64 150.538 47.44L151.378 45.18C151.738 45.4333 152.178 45.56 152.698 45.56C153.085 45.56 153.392 45.4267 153.618 45.16C153.858 44.9067 153.978 44.52 153.978 44V33.24H157.098V43.98C157.098 45.22 156.745 46.2067 156.038 46.94C155.332 47.6733 154.332 48.04 153.038 48.04ZM155.538 31.74C154.965 31.74 154.498 31.5733 154.138 31.24C153.778 30.9067 153.598 30.4933 153.598 30C153.598 29.5067 153.778 29.0933 154.138 28.76C154.498 28.4267 154.965 28.26 155.538 28.26C156.112 28.26 156.578 28.42 156.938 28.74C157.298 29.0467 157.478 29.4467 157.478 29.94C157.478 30.46 157.298 30.8933 156.938 31.24C156.592 31.5733 156.125 31.74 155.538 31.74ZM165.311 44.16C164.085 44.16 163.005 43.92 162.071 43.44C161.151 42.96 160.438 42.3067 159.931 41.48C159.425 40.64 159.171 39.6867 159.171 38.62C159.171 37.54 159.418 36.5867 159.911 35.76C160.418 34.92 161.105 34.2667 161.971 33.8C162.838 33.32 163.818 33.08 164.911 33.08C165.965 33.08 166.911 33.3067 167.751 33.76C168.605 34.2 169.278 34.84 169.771 35.68C170.265 36.5067 170.511 37.5 170.511 38.66C170.511 38.78 170.505 38.92 170.491 39.08C170.478 39.2267 170.465 39.3667 170.451 39.5H161.711V37.68H168.811L167.611 38.22C167.611 37.66 167.498 37.1733 167.271 36.76C167.045 36.3467 166.731 36.0267 166.331 35.8C165.931 35.56 165.465 35.44 164.931 35.44C164.398 35.44 163.925 35.56 163.511 35.8C163.111 36.0267 162.798 36.3533 162.571 36.78C162.345 37.1933 162.231 37.6867 162.231 38.26V38.74C162.231 39.3267 162.358 39.8467 162.611 40.3C162.878 40.74 163.245 41.08 163.711 41.32C164.191 41.5467 164.751 41.66 165.391 41.66C165.965 41.66 166.465 41.5733 166.891 41.4C167.331 41.2267 167.731 40.9667 168.091 40.62L169.751 42.42C169.258 42.98 168.638 43.4133 167.891 43.72C167.145 44.0133 166.285 44.16 165.311 44.16ZM177.788 44.16C176.628 44.16 175.595 43.9267 174.688 43.46C173.782 42.98 173.068 42.32 172.548 41.48C172.042 40.64 171.788 39.6867 171.788 38.62C171.788 37.54 172.042 36.5867 172.548 35.76C173.068 34.92 173.782 34.2667 174.688 33.8C175.595 33.32 176.628 33.08 177.788 33.08C178.922 33.08 179.908 33.32 180.748 33.8C181.588 34.2667 182.208 34.94 182.608 35.82L180.188 37.12C179.908 36.6133 179.555 36.24 179.128 36C178.715 35.76 178.262 35.64 177.768 35.64C177.235 35.64 176.755 35.76 176.328 36C175.902 36.24 175.562 36.58 175.308 37.02C175.068 37.46 174.948 37.9933 174.948 38.62C174.948 39.2467 175.068 39.78 175.308 40.22C175.562 40.66 175.902 41 176.328 41.24C176.755 41.48 177.235 41.6 177.768 41.6C178.262 41.6 178.715 41.4867 179.128 41.26C179.555 41.02 179.908 40.64 180.188 40.12L182.608 41.44C182.208 42.3067 181.588 42.98 180.748 43.46C179.908 43.9267 178.922 44.16 177.788 44.16ZM188.961 44.16C187.694 44.16 186.708 43.84 186.001 43.2C185.294 42.5467 184.941 41.58 184.941 40.3V30.86H188.061V40.26C188.061 40.7133 188.181 41.0667 188.421 41.32C188.661 41.56 188.988 41.68 189.401 41.68C189.894 41.68 190.314 41.5467 190.661 41.28L191.501 43.48C191.181 43.7067 190.794 43.88 190.341 44C189.901 44.1067 189.441 44.16 188.961 44.16ZM183.281 35.88V33.48H190.741V35.88H183.281Z" fill="white"/>
<path d="M507.579 42.5581C507.847 42.8263 507.998 43.1902 507.998 43.5696C507.998 43.9489 507.847 44.3128 507.579 44.581C507.31 44.8493 506.946 45 506.567 45C506.188 45 505.824 44.8493 505.556 44.581L498 37.0235L490.442 44.5787C490.174 44.8469 489.81 44.9976 489.431 44.9976C489.051 44.9976 488.687 44.8469 488.419 44.5787C488.151 44.3104 488 43.9466 488 43.5672C488 43.1878 488.151 42.824 488.419 42.5557L495.977 35.0006L488.421 27.4431C488.153 27.1748 488.002 26.811 488.002 26.4316C488.002 26.0523 488.153 25.6884 488.421 25.4202C488.69 25.1519 489.054 25.0012 489.433 25.0012C489.812 25.0012 490.176 25.1519 490.444 25.4202L498 32.9776L505.558 25.419C505.826 25.1507 506.19 25 506.569 25C506.949 25 507.313 25.1507 507.581 25.419C507.849 25.6872 508 26.0511 508 26.4304C508 26.8098 507.849 27.1737 507.581 27.4419L500.023 35.0006L507.579 42.5581Z" fill="white"/>
<defs>
<filter id="filter0_d_1140_2991" x="311" y="124" width="202" height="38" filterUnits="userSpaceOnUse" color-interpolation-filters="sRGB">
<feFlood flood-opacity="0" result="BackgroundImageFix"/>
<feColorMatrix in="SourceAlpha" type="matrix" values="0 0 0 0 0 0 0 0 0 0 0 0 0 0 0 0 0 0 127 0" result="hardAlpha"/>
<feOffset dx="1" dy="2"/>
<feGaussianBlur stdDeviation="2"/>
<feComposite in2="hardAlpha" operator="out"/>
<feColorMatrix type="matrix" values="0 0 0 0 0 0 0 0 0 0 0 0 0 0 0 0 0 0 0.25 0"/>
<feBlend mode="normal" in2="BackgroundImageFix" result="effect1_dropShadow_1140_2991"/>
<feBlend mode="normal" in="SourceGraphic" in2="effect1_dropShadow_1140_2991" result="shape"/>
</filter>
<filter id="filter1_d_1140_2991" x="13" y="209" width="202" height="38" filterUnits="userSpaceOnUse" color-interpolation-filters="sRGB">
<feFlood flood-opacity="0" result="BackgroundImageFix"/>
<feColorMatrix in="SourceAlpha" type="matrix" values="0 0 0 0 0 0 0 0 0 0 0 0 0 0 0 0 0 0 127 0" result="hardAlpha"/>
<feOffset dx="1" dy="2"/>
<feGaussianBlur stdDeviation="2"/>
<feComposite in2="hardAlpha" operator="out"/>
<feColorMatrix type="matrix" values="0 0 0 0 0 0 0 0 0 0 0 0 0 0 0 0 0 0 0.25 0"/>
<feBlend mode="normal" in2="BackgroundImageFix" result="effect1_dropShadow_1140_2991"/>
<feBlend mode="normal" in="SourceGraphic" in2="effect1_dropShadow_1140_2991" result="shape"/>
</filter>
<filter id="filter2_d_1140_2991" x="56" y="582" width="194" height="49" filterUnits="userSpaceOnUse" color-interpolation-filters="sRGB">
<feFlood flood-opacity="0" result="BackgroundImageFix"/>
<feColorMatrix in="SourceAlpha" type="matrix" values="0 0 0 0 0 0 0 0 0 0 0 0 0 0 0 0 0 0 127 0" result="hardAlpha"/>
<feOffset dy="1"/>
<feComposite in2="hardAlpha" operator="out"/>
<feColorMatrix type="matrix" values="0 0 0 0 0 0 0 0 0 0 0 0 0 0 0 0 0 0 0.25 0"/>
<feBlend mode="normal" in2="BackgroundImageFix" result="effect1_dropShadow_1140_2991"/>
<feBlend mode="normal" in="SourceGraphic" in2="effect1_dropShadow_1140_2991" result="shape"/>
</filter>
<linearGradient id="paint0_linear_1140_2991" x1="16" y1="156.5" x2="210" y2="156.5" gradientUnits="userSpaceOnUse">
<stop stop-color="#7EBCEC"/>
<stop offset="1" stop-color="#3F88C0"/>
</linearGradient>
<linearGradient id="paint1_linear_1140_2991" x1="0" y1="35" x2="524" y2="35" gradientUnits="userSpaceOnUse">
<stop stop-color="#28B4E1"/>
<stop offset="1" stop-color="#B8E9F9"/>
</linearGradient>
<clipPath id="clip0_1140_2991">
<rect width="38.6116" height="25.102" fill="white" transform="translate(469.389 129.061)"/>
</clipPath>
<clipPath id="clip1_1140_2991">
<rect width="18.4762" height="14.6939" fill="white" transform="translate(178.437 218.959)"/>
</clipPath>
</defs>
</svg>
