<svg width="524" height="690" viewBox="0 0 524 690" fill="none" xmlns="http://www.w3.org/2000/svg">
<rect width="524" height="690" rx="17" fill="white"/>
<path d="M20.5 120V108.552H16.072V107.4H26.26V108.552H21.832V120H20.5ZM33.5126 120V117.912L33.4586 117.57V114.078C33.4586 113.274 33.2306 112.656 32.7746 112.224C32.3306 111.792 31.6646 111.576 30.7766 111.576C30.1646 111.576 29.5826 111.678 29.0306 111.882C28.4786 112.086 28.0106 112.356 27.6266 112.692L27.0506 111.738C27.5306 111.33 28.1066 111.018 28.7786 110.802C29.4506 110.574 30.1586 110.46 30.9026 110.46C32.1266 110.46 33.0686 110.766 33.7286 111.378C34.4006 111.978 34.7366 112.896 34.7366 114.132V120H33.5126ZM30.2546 120.09C29.5466 120.09 28.9286 119.976 28.4006 119.748C27.8846 119.508 27.4886 119.184 27.2126 118.776C26.9366 118.356 26.7986 117.876 26.7986 117.336C26.7986 116.844 26.9126 116.4 27.1406 116.004C27.3806 115.596 27.7646 115.272 28.2926 115.032C28.8326 114.78 29.5526 114.654 30.4526 114.654H33.7106V115.608H30.4886C29.5766 115.608 28.9406 115.77 28.5806 116.094C28.2326 116.418 28.0586 116.82 28.0586 117.3C28.0586 117.84 28.2686 118.272 28.6886 118.596C29.1086 118.92 29.6966 119.082 30.4526 119.082C31.1726 119.082 31.7906 118.92 32.3066 118.596C32.8346 118.26 33.2186 117.78 33.4586 117.156L33.7466 118.038C33.5066 118.662 33.0866 119.16 32.4866 119.532C31.8986 119.904 31.1546 120.09 30.2546 120.09ZM40.7458 120.09C39.9658 120.09 39.2278 119.982 38.5318 119.766C37.8358 119.538 37.2898 119.256 36.8938 118.92L37.4698 117.912C37.8538 118.2 38.3458 118.452 38.9458 118.668C39.5458 118.872 40.1758 118.974 40.8358 118.974C41.7358 118.974 42.3838 118.836 42.7798 118.56C43.1758 118.272 43.3738 117.894 43.3738 117.426C43.3738 117.078 43.2598 116.808 43.0318 116.616C42.8158 116.412 42.5278 116.262 42.1678 116.166C41.8078 116.058 41.4058 115.968 40.9618 115.896C40.5178 115.824 40.0738 115.74 39.6298 115.644C39.1978 115.548 38.8018 115.41 38.4418 115.23C38.0818 115.038 37.7878 114.78 37.5598 114.456C37.3438 114.132 37.2358 113.7 37.2358 113.16C37.2358 112.644 37.3798 112.182 37.6678 111.774C37.9558 111.366 38.3758 111.048 38.9278 110.82C39.4918 110.58 40.1758 110.46 40.9798 110.46C41.5918 110.46 42.2038 110.544 42.8158 110.712C43.4278 110.868 43.9318 111.078 44.3278 111.342L43.7698 112.368C43.3498 112.08 42.8998 111.876 42.4198 111.756C41.9398 111.624 41.4598 111.558 40.9798 111.558C40.1278 111.558 39.4978 111.708 39.0898 112.008C38.6938 112.296 38.4958 112.668 38.4958 113.124C38.4958 113.484 38.6038 113.766 38.8198 113.97C39.0478 114.174 39.3418 114.336 39.7018 114.456C40.0738 114.564 40.4758 114.654 40.9078 114.726C41.3518 114.798 41.7898 114.888 42.2218 114.996C42.6658 115.092 43.0678 115.23 43.4278 115.41C43.7998 115.578 44.0938 115.824 44.3098 116.148C44.5378 116.46 44.6518 116.874 44.6518 117.39C44.6518 117.942 44.4958 118.422 44.1838 118.83C43.8838 119.226 43.4398 119.538 42.8518 119.766C42.2758 119.982 41.5738 120.09 40.7458 120.09ZM48.0048 117.552L48.0408 115.914L53.9268 110.55H55.4928L51.3348 114.528L50.6148 115.14L48.0048 117.552ZM46.9968 120V106.644H48.2748V120H46.9968ZM54.3228 120L50.3808 115.086L51.2088 114.096L55.8888 120H54.3228ZM67.3423 110.46C68.1103 110.46 68.7823 110.61 69.3583 110.91C69.9463 111.198 70.4023 111.642 70.7263 112.242C71.0623 112.842 71.2303 113.598 71.2303 114.51V120H69.9523V114.636C69.9523 113.64 69.7003 112.89 69.1963 112.386C68.7043 111.87 68.0083 111.612 67.1083 111.612C66.4363 111.612 65.8483 111.75 65.3443 112.026C64.8523 112.29 64.4683 112.68 64.1923 113.196C63.9283 113.7 63.7963 114.312 63.7963 115.032V120H62.5183V110.55H63.7423V113.142L63.5443 112.656C63.8443 111.972 64.3243 111.438 64.9843 111.054C65.6443 110.658 66.4303 110.46 67.3423 110.46ZM80.6044 120V117.912L80.5504 117.57V114.078C80.5504 113.274 80.3224 112.656 79.8664 112.224C79.4224 111.792 78.7564 111.576 77.8684 111.576C77.2564 111.576 76.6744 111.678 76.1224 111.882C75.5704 112.086 75.1024 112.356 74.7184 112.692L74.1424 111.738C74.6224 111.33 75.1984 111.018 75.8704 110.802C76.5424 110.574 77.2504 110.46 77.9944 110.46C79.2184 110.46 80.1604 110.766 80.8204 111.378C81.4924 111.978 81.8284 112.896 81.8284 114.132V120H80.6044ZM77.3464 120.09C76.6384 120.09 76.0204 119.976 75.4924 119.748C74.9764 119.508 74.5804 119.184 74.3044 118.776C74.0284 118.356 73.8904 117.876 73.8904 117.336C73.8904 116.844 74.0044 116.4 74.2324 116.004C74.4724 115.596 74.8564 115.272 75.3844 115.032C75.9244 114.78 76.6444 114.654 77.5444 114.654H80.8024V115.608H77.5804C76.6684 115.608 76.0324 115.77 75.6724 116.094C75.3244 116.418 75.1504 116.82 75.1504 117.3C75.1504 117.84 75.3604 118.272 75.7804 118.596C76.2004 118.92 76.7884 119.082 77.5444 119.082C78.2644 119.082 78.8824 118.92 79.3984 118.596C79.9264 118.26 80.3104 117.78 80.5504 117.156L80.8384 118.038C80.5984 118.662 80.1784 119.16 79.5784 119.532C78.9904 119.904 78.2464 120.09 77.3464 120.09ZM97.1076 110.46C97.8756 110.46 98.5416 110.61 99.1056 110.91C99.6816 111.198 100.126 111.642 100.438 112.242C100.762 112.842 100.924 113.598 100.924 114.51V120H99.6456V114.636C99.6456 113.64 99.4056 112.89 98.9256 112.386C98.4576 111.87 97.7916 111.612 96.9276 111.612C96.2796 111.612 95.7156 111.75 95.2356 112.026C94.7676 112.29 94.4016 112.68 94.1376 113.196C93.8856 113.7 93.7596 114.312 93.7596 115.032V120H92.4816V114.636C92.4816 113.64 92.2416 112.89 91.7616 112.386C91.2816 111.87 90.6096 111.612 89.7456 111.612C89.1096 111.612 88.5516 111.75 88.0716 112.026C87.5916 112.29 87.2196 112.68 86.9556 113.196C86.7036 113.7 86.5776 114.312 86.5776 115.032V120H85.2996V110.55H86.5236V113.106L86.3256 112.656C86.6136 111.972 87.0756 111.438 87.7116 111.054C88.3596 110.658 89.1216 110.46 89.9976 110.46C90.9216 110.46 91.7076 110.694 92.3556 111.162C93.0036 111.618 93.4236 112.308 93.6156 113.232L93.1116 113.034C93.3876 112.266 93.8736 111.648 94.5696 111.18C95.2776 110.7 96.1236 110.46 97.1076 110.46ZM108.403 120.09C107.419 120.09 106.555 119.886 105.811 119.478C105.067 119.058 104.485 118.488 104.065 117.768C103.645 117.036 103.435 116.202 103.435 115.266C103.435 114.33 103.633 113.502 104.029 112.782C104.437 112.062 104.989 111.498 105.685 111.09C106.393 110.67 107.185 110.46 108.061 110.46C108.949 110.46 109.735 110.664 110.419 111.072C111.115 111.468 111.661 112.032 112.057 112.764C112.453 113.484 112.651 114.318 112.651 115.266C112.651 115.326 112.645 115.392 112.633 115.464C112.633 115.524 112.633 115.59 112.633 115.662H104.407V114.708H111.949L111.445 115.086C111.445 114.402 111.295 113.796 110.995 113.268C110.707 112.728 110.311 112.308 109.807 112.008C109.303 111.708 108.721 111.558 108.061 111.558C107.413 111.558 106.831 111.708 106.315 112.008C105.799 112.308 105.397 112.728 105.109 113.268C104.821 113.808 104.677 114.426 104.677 115.122V115.32C104.677 116.04 104.833 116.676 105.145 117.228C105.469 117.768 105.913 118.194 106.477 118.506C107.053 118.806 107.707 118.956 108.439 118.956C109.015 118.956 109.549 118.854 110.041 118.65C110.545 118.446 110.977 118.134 111.337 117.714L112.057 118.542C111.637 119.046 111.109 119.43 110.473 119.694C109.849 119.958 109.159 120.09 108.403 120.09ZM115.379 112.422C115.115 112.422 114.887 112.326 114.695 112.134C114.515 111.942 114.425 111.708 114.425 111.432C114.425 111.144 114.515 110.91 114.695 110.73C114.887 110.55 115.115 110.46 115.379 110.46C115.643 110.46 115.865 110.55 116.045 110.73C116.237 110.91 116.333 111.144 116.333 111.432C116.333 111.708 116.237 111.942 116.045 112.134C115.865 112.326 115.643 112.422 115.379 112.422ZM115.379 120.09C115.115 120.09 114.887 119.994 114.695 119.802C114.515 119.61 114.425 119.376 114.425 119.1C114.425 118.812 114.515 118.578 114.695 118.398C114.887 118.218 115.115 118.128 115.379 118.128C115.643 118.128 115.865 118.218 116.045 118.398C116.237 118.578 116.333 118.812 116.333 119.1C116.333 119.376 116.237 119.61 116.045 119.802C115.865 119.994 115.643 120.09 115.379 120.09Z" fill="#776A6A"/>
<path d="M19.24 194.034H25.9V195.168H19.24V194.034ZM19.384 199.848H26.962V201H18.052V188.4H26.692V189.552H19.384V199.848ZM34.647 191.46C35.415 191.46 36.087 191.61 36.663 191.91C37.251 192.198 37.707 192.642 38.031 193.242C38.367 193.842 38.535 194.598 38.535 195.51V201H37.257V195.636C37.257 194.64 37.005 193.89 36.501 193.386C36.009 192.87 35.313 192.612 34.413 192.612C33.741 192.612 33.153 192.75 32.649 193.026C32.157 193.29 31.773 193.68 31.497 194.196C31.233 194.7 31.101 195.312 31.101 196.032V201H29.823V191.55H31.047V194.142L30.849 193.656C31.149 192.972 31.629 192.438 32.289 192.054C32.949 191.658 33.735 191.46 34.647 191.46ZM45.7491 201.09C44.8491 201.09 44.0391 200.886 43.3191 200.478C42.6111 200.07 42.0531 199.506 41.6451 198.786C41.2371 198.054 41.0331 197.214 41.0331 196.266C41.0331 195.306 41.2371 194.466 41.6451 193.746C42.0531 193.026 42.6111 192.468 43.3191 192.072C44.0391 191.664 44.8491 191.46 45.7491 191.46C46.5771 191.46 47.3151 191.646 47.9631 192.018C48.6231 192.39 49.1451 192.936 49.5291 193.656C49.9251 194.364 50.1231 195.234 50.1231 196.266C50.1231 197.286 49.9311 198.156 49.5471 198.876C49.1631 199.596 48.6411 200.148 47.9811 200.532C47.3331 200.904 46.5891 201.09 45.7491 201.09ZM45.8391 199.956C46.5111 199.956 47.1111 199.806 47.6391 199.506C48.1791 199.194 48.5991 198.762 48.8991 198.21C49.2111 197.646 49.3671 196.998 49.3671 196.266C49.3671 195.522 49.2111 194.874 48.8991 194.322C48.5991 193.77 48.1791 193.344 47.6391 193.044C47.1111 192.732 46.5111 192.576 45.8391 192.576C45.1791 192.576 44.5851 192.732 44.0571 193.044C43.5291 193.344 43.1091 193.77 42.7971 194.322C42.4851 194.874 42.3291 195.522 42.3291 196.266C42.3291 196.998 42.4851 197.646 42.7971 198.21C43.1091 198.762 43.5291 199.194 44.0571 199.506C44.5851 199.806 45.1791 199.956 45.8391 199.956ZM49.4031 201V198.156L49.5291 196.248L49.3491 194.34V187.644H50.6271V201H49.4031ZM62.6592 201.09C61.7592 201.09 60.9492 200.886 60.2292 200.478C59.5212 200.07 58.9632 199.506 58.5552 198.786C58.1472 198.054 57.9432 197.214 57.9432 196.266C57.9432 195.306 58.1472 194.466 58.5552 193.746C58.9632 193.026 59.5212 192.468 60.2292 192.072C60.9492 191.664 61.7592 191.46 62.6592 191.46C63.4872 191.46 64.2252 191.646 64.8732 192.018C65.5332 192.39 66.0552 192.936 66.4392 193.656C66.8352 194.364 67.0332 195.234 67.0332 196.266C67.0332 197.286 66.8412 198.156 66.4572 198.876C66.0732 199.596 65.5512 200.148 64.8912 200.532C64.2432 200.904 63.4992 201.09 62.6592 201.09ZM62.7492 199.956C63.4212 199.956 64.0212 199.806 64.5492 199.506C65.0892 199.194 65.5092 198.762 65.8092 198.21C66.1212 197.646 66.2772 196.998 66.2772 196.266C66.2772 195.522 66.1212 194.874 65.8092 194.322C65.5092 193.77 65.0892 193.344 64.5492 193.044C64.0212 192.732 63.4212 192.576 62.7492 192.576C62.0892 192.576 61.4952 192.732 60.9672 193.044C60.4392 193.344 60.0192 193.77 59.7072 194.322C59.3952 194.874 59.2392 195.522 59.2392 196.266C59.2392 196.998 59.3952 197.646 59.7072 198.21C60.0192 198.762 60.4392 199.194 60.9672 199.506C61.4952 199.806 62.0892 199.956 62.7492 199.956ZM66.3132 201V198.156L66.4392 196.248L66.2592 194.34V187.644H67.5372V201H66.3132ZM77.0185 201V198.912L76.9645 198.57V195.078C76.9645 194.274 76.7365 193.656 76.2805 193.224C75.8365 192.792 75.1705 192.576 74.2825 192.576C73.6705 192.576 73.0885 192.678 72.5365 192.882C71.9845 193.086 71.5165 193.356 71.1325 193.692L70.5565 192.738C71.0365 192.33 71.6125 192.018 72.2845 191.802C72.9565 191.574 73.6645 191.46 74.4085 191.46C75.6325 191.46 76.5745 191.766 77.2345 192.378C77.9065 192.978 78.2425 193.896 78.2425 195.132V201H77.0185ZM73.7605 201.09C73.0525 201.09 72.4345 200.976 71.9065 200.748C71.3905 200.508 70.9945 200.184 70.7185 199.776C70.4425 199.356 70.3045 198.876 70.3045 198.336C70.3045 197.844 70.4185 197.4 70.6465 197.004C70.8865 196.596 71.2705 196.272 71.7985 196.032C72.3385 195.78 73.0585 195.654 73.9585 195.654H77.2165V196.608H73.9945C73.0825 196.608 72.4465 196.77 72.0865 197.094C71.7385 197.418 71.5645 197.82 71.5645 198.3C71.5645 198.84 71.7745 199.272 72.1945 199.596C72.6145 199.92 73.2025 200.082 73.9585 200.082C74.6785 200.082 75.2965 199.92 75.8125 199.596C76.3405 199.26 76.7245 198.78 76.9645 198.156L77.2525 199.038C77.0125 199.662 76.5925 200.16 75.9925 200.532C75.4045 200.904 74.6605 201.09 73.7605 201.09ZM84.7016 201.09C83.8136 201.09 83.1296 200.85 82.6496 200.37C82.1696 199.89 81.9296 199.212 81.9296 198.336V189.462H83.2076V198.264C83.2076 198.816 83.3456 199.242 83.6216 199.542C83.9096 199.842 84.3176 199.992 84.8456 199.992C85.4096 199.992 85.8776 199.83 86.2496 199.506L86.6996 200.424C86.4476 200.652 86.1416 200.82 85.7816 200.928C85.4336 201.036 85.0736 201.09 84.7016 201.09ZM80.2376 192.612V191.55H86.0876V192.612H80.2376ZM92.7062 201.09C91.7222 201.09 90.8582 200.886 90.1142 200.478C89.3702 200.058 88.7882 199.488 88.3682 198.768C87.9482 198.036 87.7382 197.202 87.7382 196.266C87.7382 195.33 87.9362 194.502 88.3322 193.782C88.7402 193.062 89.2922 192.498 89.9882 192.09C90.6962 191.67 91.4882 191.46 92.3642 191.46C93.2522 191.46 94.0382 191.664 94.7222 192.072C95.4182 192.468 95.9642 193.032 96.3602 193.764C96.7562 194.484 96.9542 195.318 96.9542 196.266C96.9542 196.326 96.9482 196.392 96.9362 196.464C96.9362 196.524 96.9362 196.59 96.9362 196.662H88.7102V195.708H96.2522L95.7482 196.086C95.7482 195.402 95.5982 194.796 95.2982 194.268C95.0102 193.728 94.6142 193.308 94.1102 193.008C93.6062 192.708 93.0242 192.558 92.3642 192.558C91.7162 192.558 91.1342 192.708 90.6182 193.008C90.1022 193.308 89.7002 193.728 89.4122 194.268C89.1242 194.808 88.9802 195.426 88.9802 196.122V196.32C88.9802 197.04 89.1362 197.676 89.4482 198.228C89.7722 198.768 90.2162 199.194 90.7802 199.506C91.3562 199.806 92.0102 199.956 92.7422 199.956C93.3182 199.956 93.8522 199.854 94.3442 199.65C94.8482 199.446 95.2802 199.134 95.6402 198.714L96.3602 199.542C95.9402 200.046 95.4122 200.43 94.7762 200.694C94.1522 200.958 93.4622 201.09 92.7062 201.09ZM99.6814 193.422C99.4174 193.422 99.1894 193.326 98.9974 193.134C98.8174 192.942 98.7274 192.708 98.7274 192.432C98.7274 192.144 98.8174 191.91 98.9974 191.73C99.1894 191.55 99.4174 191.46 99.6814 191.46C99.9454 191.46 100.167 191.55 100.347 191.73C100.539 191.91 100.635 192.144 100.635 192.432C100.635 192.708 100.539 192.942 100.347 193.134C100.167 193.326 99.9454 193.422 99.6814 193.422ZM99.6814 201.09C99.4174 201.09 99.1894 200.994 98.9974 200.802C98.8174 200.61 98.7274 200.376 98.7274 200.1C98.7274 199.812 98.8174 199.578 98.9974 199.398C99.1894 199.218 99.4174 199.128 99.6814 199.128C99.9454 199.128 100.167 199.218 100.347 199.398C100.539 199.578 100.635 199.812 100.635 200.1C100.635 200.376 100.539 200.61 100.347 200.802C100.167 200.994 99.9454 201.09 99.6814 201.09Z" fill="#776A6A"/>
<path d="M18.052 287V274.4H22.768C23.836 274.4 24.754 274.574 25.522 274.922C26.29 275.258 26.878 275.75 27.286 276.398C27.706 277.034 27.916 277.808 27.916 278.72C27.916 279.608 27.706 280.376 27.286 281.024C26.878 281.66 26.29 282.152 25.522 282.5C24.754 282.836 23.836 283.004 22.768 283.004H18.79L19.384 282.392V287H18.052ZM26.656 287L23.416 282.428H24.856L28.114 287H26.656ZM19.384 282.5L18.79 281.87H22.732C23.992 281.87 24.946 281.594 25.594 281.042C26.254 280.49 26.584 279.716 26.584 278.72C26.584 277.712 26.254 276.932 25.594 276.38C24.946 275.828 23.992 275.552 22.732 275.552H18.79L19.384 274.922V282.5ZM34.8038 287.09C33.8198 287.09 32.9558 286.886 32.2118 286.478C31.4678 286.058 30.8858 285.488 30.4658 284.768C30.0458 284.036 29.8358 283.202 29.8358 282.266C29.8358 281.33 30.0338 280.502 30.4298 279.782C30.8378 279.062 31.3898 278.498 32.0858 278.09C32.7938 277.67 33.5858 277.46 34.4618 277.46C35.3498 277.46 36.1358 277.664 36.8198 278.072C37.5158 278.468 38.0618 279.032 38.4578 279.764C38.8538 280.484 39.0518 281.318 39.0518 282.266C39.0518 282.326 39.0458 282.392 39.0338 282.464C39.0338 282.524 39.0338 282.59 39.0338 282.662H30.8078V281.708H38.3498L37.8458 282.086C37.8458 281.402 37.6958 280.796 37.3958 280.268C37.1078 279.728 36.7118 279.308 36.2078 279.008C35.7038 278.708 35.1218 278.558 34.4618 278.558C33.8138 278.558 33.2318 278.708 32.7158 279.008C32.1998 279.308 31.7978 279.728 31.5098 280.268C31.2218 280.808 31.0778 281.426 31.0778 282.122V282.32C31.0778 283.04 31.2338 283.676 31.5458 284.228C31.8698 284.768 32.3138 285.194 32.8778 285.506C33.4538 285.806 34.1078 285.956 34.8398 285.956C35.4158 285.956 35.9498 285.854 36.4418 285.65C36.9458 285.446 37.3778 285.134 37.7378 284.714L38.4578 285.542C38.0378 286.046 37.5098 286.43 36.8738 286.694C36.2498 286.958 35.5598 287.09 34.8038 287.09ZM44.1911 287.09C43.4111 287.09 42.6731 286.982 41.9771 286.766C41.2811 286.538 40.7351 286.256 40.3391 285.92L40.9151 284.912C41.2991 285.2 41.7911 285.452 42.3911 285.668C42.9911 285.872 43.6211 285.974 44.2811 285.974C45.1811 285.974 45.8291 285.836 46.2251 285.56C46.6211 285.272 46.8191 284.894 46.8191 284.426C46.8191 284.078 46.7051 283.808 46.4771 283.616C46.2611 283.412 45.9731 283.262 45.6131 283.166C45.2531 283.058 44.8511 282.968 44.4071 282.896C43.9631 282.824 43.5191 282.74 43.0751 282.644C42.6431 282.548 42.2471 282.41 41.8871 282.23C41.5271 282.038 41.2331 281.78 41.0051 281.456C40.7891 281.132 40.6811 280.7 40.6811 280.16C40.6811 279.644 40.8251 279.182 41.1131 278.774C41.4011 278.366 41.8211 278.048 42.3731 277.82C42.9371 277.58 43.6211 277.46 44.4251 277.46C45.0371 277.46 45.6491 277.544 46.2611 277.712C46.8731 277.868 47.3771 278.078 47.7731 278.342L47.2151 279.368C46.7951 279.08 46.3451 278.876 45.8651 278.756C45.3851 278.624 44.9051 278.558 44.4251 278.558C43.5731 278.558 42.9431 278.708 42.5351 279.008C42.1391 279.296 41.9411 279.668 41.9411 280.124C41.9411 280.484 42.0491 280.766 42.2651 280.97C42.4931 281.174 42.7871 281.336 43.1471 281.456C43.5191 281.564 43.9211 281.654 44.3531 281.726C44.7971 281.798 45.2351 281.888 45.6671 281.996C46.1111 282.092 46.5131 282.23 46.8731 282.41C47.2451 282.578 47.5391 282.824 47.7551 283.148C47.9831 283.46 48.0971 283.874 48.0971 284.39C48.0971 284.942 47.9411 285.422 47.6291 285.83C47.3291 286.226 46.8851 286.538 46.2971 286.766C45.7211 286.982 45.0191 287.09 44.1911 287.09ZM55.3202 287.09C54.5042 287.09 53.7662 286.904 53.1062 286.532C52.4462 286.148 51.9182 285.602 51.5222 284.894C51.1382 284.174 50.9462 283.298 50.9462 282.266C50.9462 281.234 51.1382 280.364 51.5222 279.656C51.9062 278.936 52.4282 278.39 53.0882 278.018C53.7482 277.646 54.4922 277.46 55.3202 277.46C56.2202 277.46 57.0242 277.664 57.7322 278.072C58.4522 278.468 59.0162 279.032 59.4242 279.764C59.8322 280.484 60.0362 281.318 60.0362 282.266C60.0362 283.226 59.8322 284.066 59.4242 284.786C59.0162 285.506 58.4522 286.07 57.7322 286.478C57.0242 286.886 56.2202 287.09 55.3202 287.09ZM50.4422 290.492V277.55H51.6662V280.394L51.5402 282.284L51.7202 284.192V290.492H50.4422ZM55.2302 285.956C55.9022 285.956 56.5022 285.806 57.0302 285.506C57.5582 285.194 57.9782 284.762 58.2902 284.21C58.6022 283.646 58.7582 282.998 58.7582 282.266C58.7582 281.534 58.6022 280.892 58.2902 280.34C57.9782 279.788 57.5582 279.356 57.0302 279.044C56.5022 278.732 55.9022 278.576 55.2302 278.576C54.5582 278.576 53.9522 278.732 53.4122 279.044C52.8842 279.356 52.4642 279.788 52.1522 280.34C51.8522 280.892 51.7022 281.534 51.7022 282.266C51.7022 282.998 51.8522 283.646 52.1522 284.21C52.4642 284.762 52.8842 285.194 53.4122 285.506C53.9522 285.806 54.5582 285.956 55.2302 285.956ZM66.4934 287.09C65.5814 287.09 64.7594 286.886 64.0274 286.478C63.3074 286.058 62.7374 285.488 62.3174 284.768C61.8974 284.036 61.6874 283.202 61.6874 282.266C61.6874 281.318 61.8974 280.484 62.3174 279.764C62.7374 279.044 63.3074 278.48 64.0274 278.072C64.7474 277.664 65.5694 277.46 66.4934 277.46C67.4294 277.46 68.2574 277.664 68.9774 278.072C69.7094 278.48 70.2794 279.044 70.6874 279.764C71.1074 280.484 71.3174 281.318 71.3174 282.266C71.3174 283.202 71.1074 284.036 70.6874 284.768C70.2794 285.488 69.7094 286.058 68.9774 286.478C68.2454 286.886 67.4174 287.09 66.4934 287.09ZM66.4934 285.956C67.1774 285.956 67.7834 285.806 68.3114 285.506C68.8394 285.194 69.2534 284.762 69.5534 284.21C69.8654 283.646 70.0214 282.998 70.0214 282.266C70.0214 281.522 69.8654 280.874 69.5534 280.322C69.2534 279.77 68.8394 279.344 68.3114 279.044C67.7834 278.732 67.1834 278.576 66.5114 278.576C65.8394 278.576 65.2394 278.732 64.7114 279.044C64.1834 279.344 63.7634 279.77 63.4514 280.322C63.1394 280.874 62.9834 281.522 62.9834 282.266C62.9834 282.998 63.1394 283.646 63.4514 284.21C63.7634 284.762 64.1834 285.194 64.7114 285.506C65.2394 285.806 65.8334 285.956 66.4934 285.956ZM78.7505 277.46C79.5185 277.46 80.1905 277.61 80.7665 277.91C81.3545 278.198 81.8105 278.642 82.1345 279.242C82.4705 279.842 82.6385 280.598 82.6385 281.51V287H81.3605V281.636C81.3605 280.64 81.1085 279.89 80.6045 279.386C80.1125 278.87 79.4165 278.612 78.5165 278.612C77.8445 278.612 77.2565 278.75 76.7525 279.026C76.2605 279.29 75.8765 279.68 75.6005 280.196C75.3365 280.7 75.2045 281.312 75.2045 282.032V287H73.9265V277.55H75.1505V280.142L74.9525 279.656C75.2525 278.972 75.7325 278.438 76.3925 278.054C77.0525 277.658 77.8385 277.46 78.7505 277.46ZM88.6286 287.09C87.8486 287.09 87.1106 286.982 86.4146 286.766C85.7186 286.538 85.1726 286.256 84.7766 285.92L85.3526 284.912C85.7366 285.2 86.2286 285.452 86.8286 285.668C87.4286 285.872 88.0586 285.974 88.7186 285.974C89.6186 285.974 90.2666 285.836 90.6626 285.56C91.0586 285.272 91.2566 284.894 91.2566 284.426C91.2566 284.078 91.1426 283.808 90.9146 283.616C90.6986 283.412 90.4106 283.262 90.0506 283.166C89.6906 283.058 89.2886 282.968 88.8446 282.896C88.4006 282.824 87.9566 282.74 87.5126 282.644C87.0806 282.548 86.6846 282.41 86.3246 282.23C85.9646 282.038 85.6706 281.78 85.4426 281.456C85.2266 281.132 85.1186 280.7 85.1186 280.16C85.1186 279.644 85.2626 279.182 85.5506 278.774C85.8386 278.366 86.2586 278.048 86.8106 277.82C87.3746 277.58 88.0586 277.46 88.8626 277.46C89.4746 277.46 90.0866 277.544 90.6986 277.712C91.3106 277.868 91.8146 278.078 92.2106 278.342L91.6526 279.368C91.2326 279.08 90.7826 278.876 90.3026 278.756C89.8226 278.624 89.3426 278.558 88.8626 278.558C88.0106 278.558 87.3806 278.708 86.9726 279.008C86.5766 279.296 86.3786 279.668 86.3786 280.124C86.3786 280.484 86.4866 280.766 86.7026 280.97C86.9306 281.174 87.2246 281.336 87.5846 281.456C87.9566 281.564 88.3586 281.654 88.7906 281.726C89.2346 281.798 89.6726 281.888 90.1046 281.996C90.5486 282.092 90.9506 282.23 91.3106 282.41C91.6826 282.578 91.9766 282.824 92.1926 283.148C92.4206 283.46 92.5346 283.874 92.5346 284.39C92.5346 284.942 92.3786 285.422 92.0666 285.83C91.7666 286.226 91.3226 286.538 90.7346 286.766C90.1586 286.982 89.4566 287.09 88.6286 287.09ZM94.8797 287V277.55H96.1577V287H94.8797ZM95.5277 275.462C95.2637 275.462 95.0417 275.372 94.8617 275.192C94.6817 275.012 94.5917 274.796 94.5917 274.544C94.5917 274.292 94.6817 274.082 94.8617 273.914C95.0417 273.734 95.2637 273.644 95.5277 273.644C95.7917 273.644 96.0137 273.728 96.1937 273.896C96.3737 274.064 96.4637 274.274 96.4637 274.526C96.4637 274.79 96.3737 275.012 96.1937 275.192C96.0257 275.372 95.8037 275.462 95.5277 275.462ZM104.592 287.09C103.764 287.09 103.02 286.904 102.36 286.532C101.7 286.148 101.178 285.596 100.794 284.876C100.41 284.156 100.218 283.286 100.218 282.266C100.218 281.234 100.41 280.364 100.794 279.656C101.19 278.936 101.718 278.39 102.378 278.018C103.038 277.646 103.776 277.46 104.592 277.46C105.492 277.46 106.296 277.664 107.004 278.072C107.724 278.468 108.288 279.026 108.696 279.746C109.104 280.466 109.308 281.306 109.308 282.266C109.308 283.214 109.104 284.054 108.696 284.786C108.288 285.506 107.724 286.07 107.004 286.478C106.296 286.886 105.492 287.09 104.592 287.09ZM99.7136 287V273.644H100.992V280.34L100.812 282.248L100.938 284.156V287H99.7136ZM104.502 285.956C105.174 285.956 105.774 285.806 106.302 285.506C106.83 285.194 107.25 284.762 107.562 284.21C107.874 283.646 108.03 282.998 108.03 282.266C108.03 281.522 107.874 280.874 107.562 280.322C107.25 279.77 106.83 279.344 106.302 279.044C105.774 278.732 105.174 278.576 104.502 278.576C103.83 278.576 103.224 278.732 102.684 279.044C102.156 279.344 101.736 279.77 101.424 280.322C101.124 280.874 100.974 281.522 100.974 282.266C100.974 282.998 101.124 283.646 101.424 284.21C101.736 284.762 102.156 285.194 102.684 285.506C103.224 285.806 103.83 285.956 104.502 285.956ZM111.913 287V273.644H113.191V287H111.913ZM120.761 287.09C119.777 287.09 118.913 286.886 118.169 286.478C117.425 286.058 116.843 285.488 116.423 284.768C116.003 284.036 115.793 283.202 115.793 282.266C115.793 281.33 115.991 280.502 116.387 279.782C116.795 279.062 117.347 278.498 118.043 278.09C118.751 277.67 119.543 277.46 120.419 277.46C121.307 277.46 122.093 277.664 122.777 278.072C123.473 278.468 124.019 279.032 124.415 279.764C124.811 280.484 125.009 281.318 125.009 282.266C125.009 282.326 125.003 282.392 124.991 282.464C124.991 282.524 124.991 282.59 124.991 282.662H116.765V281.708H124.307L123.803 282.086C123.803 281.402 123.653 280.796 123.353 280.268C123.065 279.728 122.669 279.308 122.165 279.008C121.661 278.708 121.079 278.558 120.419 278.558C119.771 278.558 119.189 278.708 118.673 279.008C118.157 279.308 117.755 279.728 117.467 280.268C117.179 280.808 117.035 281.426 117.035 282.122V282.32C117.035 283.04 117.191 283.676 117.503 284.228C117.827 284.768 118.271 285.194 118.835 285.506C119.411 285.806 120.065 285.956 120.797 285.956C121.373 285.956 121.907 285.854 122.399 285.65C122.903 285.446 123.335 285.134 123.695 284.714L124.415 285.542C123.995 286.046 123.467 286.43 122.831 286.694C122.207 286.958 121.517 287.09 120.761 287.09ZM127.736 279.422C127.472 279.422 127.244 279.326 127.052 279.134C126.872 278.942 126.782 278.708 126.782 278.432C126.782 278.144 126.872 277.91 127.052 277.73C127.244 277.55 127.472 277.46 127.736 277.46C128 277.46 128.222 277.55 128.402 277.73C128.594 277.91 128.69 278.144 128.69 278.432C128.69 278.708 128.594 278.942 128.402 279.134C128.222 279.326 128 279.422 127.736 279.422ZM127.736 287.09C127.472 287.09 127.244 286.994 127.052 286.802C126.872 286.61 126.782 286.376 126.782 286.1C126.782 285.812 126.872 285.578 127.052 285.398C127.244 285.218 127.472 285.128 127.736 285.128C128 285.128 128.222 285.218 128.402 285.398C128.594 285.578 128.69 285.812 128.69 286.1C128.69 286.376 128.594 286.61 128.402 286.802C128.222 286.994 128 287.09 127.736 287.09Z" fill="#776A6A"/>
<path d="M18.052 371V358.4H23.182C24.526 358.4 25.702 358.67 26.71 359.21C27.73 359.738 28.522 360.476 29.086 361.424C29.65 362.372 29.932 363.464 29.932 364.7C29.932 365.936 29.65 367.028 29.086 367.976C28.522 368.924 27.73 369.668 26.71 370.208C25.702 370.736 24.526 371 23.182 371H18.052ZM19.384 369.848H23.11C24.226 369.848 25.192 369.632 26.008 369.2C26.836 368.756 27.478 368.15 27.934 367.382C28.39 366.602 28.618 365.708 28.618 364.7C28.618 363.68 28.39 362.786 27.934 362.018C27.478 361.25 26.836 360.65 26.008 360.218C25.192 359.774 24.226 359.552 23.11 359.552H19.384V369.848ZM36.6671 371.09C35.6831 371.09 34.8191 370.886 34.0751 370.478C33.3311 370.058 32.7491 369.488 32.3291 368.768C31.9091 368.036 31.6991 367.202 31.6991 366.266C31.6991 365.33 31.8971 364.502 32.2931 363.782C32.7011 363.062 33.2531 362.498 33.9491 362.09C34.6571 361.67 35.4491 361.46 36.3251 361.46C37.2131 361.46 37.9991 361.664 38.6831 362.072C39.3791 362.468 39.9251 363.032 40.3211 363.764C40.7171 364.484 40.9151 365.318 40.9151 366.266C40.9151 366.326 40.9091 366.392 40.8971 366.464C40.8971 366.524 40.8971 366.59 40.8971 366.662H32.6711V365.708H40.2131L39.7091 366.086C39.7091 365.402 39.5591 364.796 39.2591 364.268C38.9711 363.728 38.5751 363.308 38.0711 363.008C37.5671 362.708 36.9851 362.558 36.3251 362.558C35.6771 362.558 35.0951 362.708 34.5791 363.008C34.0631 363.308 33.6611 363.728 33.3731 364.268C33.0851 364.808 32.9411 365.426 32.9411 366.122V366.32C32.9411 367.04 33.0971 367.676 33.4091 368.228C33.7331 368.768 34.1771 369.194 34.7411 369.506C35.3171 369.806 35.9711 369.956 36.7031 369.956C37.2791 369.956 37.8131 369.854 38.3051 369.65C38.8091 369.446 39.2411 369.134 39.6011 368.714L40.3211 369.542C39.9011 370.046 39.3731 370.43 38.7371 370.694C38.1131 370.958 37.4231 371.09 36.6671 371.09ZM46.0544 371.09C45.2744 371.09 44.5364 370.982 43.8404 370.766C43.1444 370.538 42.5984 370.256 42.2024 369.92L42.7784 368.912C43.1624 369.2 43.6544 369.452 44.2544 369.668C44.8544 369.872 45.4844 369.974 46.1444 369.974C47.0444 369.974 47.6924 369.836 48.0884 369.56C48.4844 369.272 48.6824 368.894 48.6824 368.426C48.6824 368.078 48.5684 367.808 48.3404 367.616C48.1244 367.412 47.8364 367.262 47.4764 367.166C47.1164 367.058 46.7144 366.968 46.2704 366.896C45.8264 366.824 45.3824 366.74 44.9384 366.644C44.5064 366.548 44.1104 366.41 43.7504 366.23C43.3904 366.038 43.0964 365.78 42.8684 365.456C42.6524 365.132 42.5444 364.7 42.5444 364.16C42.5444 363.644 42.6884 363.182 42.9764 362.774C43.2644 362.366 43.6844 362.048 44.2364 361.82C44.8004 361.58 45.4844 361.46 46.2884 361.46C46.9004 361.46 47.5124 361.544 48.1244 361.712C48.7364 361.868 49.2404 362.078 49.6364 362.342L49.0784 363.368C48.6584 363.08 48.2084 362.876 47.7284 362.756C47.2484 362.624 46.7684 362.558 46.2884 362.558C45.4364 362.558 44.8064 362.708 44.3984 363.008C44.0024 363.296 43.8044 363.668 43.8044 364.124C43.8044 364.484 43.9124 364.766 44.1284 364.97C44.3564 365.174 44.6504 365.336 45.0104 365.456C45.3824 365.564 45.7844 365.654 46.2164 365.726C46.6604 365.798 47.0984 365.888 47.5304 365.996C47.9744 366.092 48.3764 366.23 48.7364 366.41C49.1084 366.578 49.4024 366.824 49.6184 367.148C49.8464 367.46 49.9604 367.874 49.9604 368.39C49.9604 368.942 49.8044 369.422 49.4924 369.83C49.1924 370.226 48.7484 370.538 48.1604 370.766C47.5844 370.982 46.8824 371.09 46.0544 371.09ZM56.2294 371.09C55.2934 371.09 54.4534 370.886 53.7094 370.478C52.9774 370.058 52.4014 369.488 51.9814 368.768C51.5614 368.036 51.3514 367.202 51.3514 366.266C51.3514 365.318 51.5614 364.484 51.9814 363.764C52.4014 363.044 52.9774 362.48 53.7094 362.072C54.4534 361.664 55.2934 361.46 56.2294 361.46C57.0334 361.46 57.7594 361.616 58.4074 361.928C59.0554 362.24 59.5654 362.708 59.9374 363.332L58.9834 363.98C58.6594 363.5 58.2574 363.146 57.7774 362.918C57.2974 362.69 56.7754 362.576 56.2114 362.576C55.5394 362.576 54.9334 362.732 54.3934 363.044C53.8534 363.344 53.4274 363.77 53.1154 364.322C52.8034 364.874 52.6474 365.522 52.6474 366.266C52.6474 367.01 52.8034 367.658 53.1154 368.21C53.4274 368.762 53.8534 369.194 54.3934 369.506C54.9334 369.806 55.5394 369.956 56.2114 369.956C56.7754 369.956 57.2974 369.842 57.7774 369.614C58.2574 369.386 58.6594 369.038 58.9834 368.57L59.9374 369.218C59.5654 369.83 59.0554 370.298 58.4074 370.622C57.7594 370.934 57.0334 371.09 56.2294 371.09ZM62.448 371V361.55H63.672V364.124L63.546 363.674C63.81 362.954 64.254 362.408 64.878 362.036C65.502 361.652 66.276 361.46 67.2 361.46V362.702C67.152 362.702 67.104 362.702 67.056 362.702C67.008 362.69 66.96 362.684 66.912 362.684C65.916 362.684 65.136 362.99 64.572 363.602C64.008 364.202 63.726 365.06 63.726 366.176V371H62.448ZM69.532 371V361.55H70.81V371H69.532ZM70.18 359.462C69.916 359.462 69.694 359.372 69.514 359.192C69.334 359.012 69.244 358.796 69.244 358.544C69.244 358.292 69.334 358.082 69.514 357.914C69.694 357.734 69.916 357.644 70.18 357.644C70.444 357.644 70.666 357.728 70.846 357.896C71.026 358.064 71.116 358.274 71.116 358.526C71.116 358.79 71.026 359.012 70.846 359.192C70.678 359.372 70.456 359.462 70.18 359.462ZM79.244 371.09C78.428 371.09 77.69 370.904 77.03 370.532C76.37 370.148 75.842 369.602 75.446 368.894C75.062 368.174 74.87 367.298 74.87 366.266C74.87 365.234 75.062 364.364 75.446 363.656C75.83 362.936 76.352 362.39 77.012 362.018C77.672 361.646 78.416 361.46 79.244 361.46C80.144 361.46 80.948 361.664 81.656 362.072C82.376 362.468 82.94 363.032 83.348 363.764C83.756 364.484 83.96 365.318 83.96 366.266C83.96 367.226 83.756 368.066 83.348 368.786C82.94 369.506 82.376 370.07 81.656 370.478C80.948 370.886 80.144 371.09 79.244 371.09ZM74.366 374.492V361.55H75.59V364.394L75.464 366.284L75.644 368.192V374.492H74.366ZM79.154 369.956C79.826 369.956 80.426 369.806 80.954 369.506C81.482 369.194 81.902 368.762 82.214 368.21C82.526 367.646 82.682 366.998 82.682 366.266C82.682 365.534 82.526 364.892 82.214 364.34C81.902 363.788 81.482 363.356 80.954 363.044C80.426 362.732 79.826 362.576 79.154 362.576C78.482 362.576 77.876 362.732 77.336 363.044C76.808 363.356 76.388 363.788 76.076 364.34C75.776 364.892 75.626 365.534 75.626 366.266C75.626 366.998 75.776 367.646 76.076 368.21C76.388 368.762 76.808 369.194 77.336 369.506C77.876 369.806 78.482 369.956 79.154 369.956ZM89.5532 371.09C88.6652 371.09 87.9812 370.85 87.5012 370.37C87.0212 369.89 86.7812 369.212 86.7812 368.336V359.462H88.0592V368.264C88.0592 368.816 88.1972 369.242 88.4732 369.542C88.7612 369.842 89.1692 369.992 89.6972 369.992C90.2612 369.992 90.7292 369.83 91.1012 369.506L91.5512 370.424C91.2992 370.652 90.9932 370.82 90.6332 370.928C90.2852 371.036 89.9252 371.09 89.5532 371.09ZM85.0892 362.612V361.55H90.9392V362.612H85.0892ZM93.8777 371V361.55H95.1557V371H93.8777ZM94.5257 359.462C94.2617 359.462 94.0397 359.372 93.8597 359.192C93.6797 359.012 93.5897 358.796 93.5897 358.544C93.5897 358.292 93.6797 358.082 93.8597 357.914C94.0397 357.734 94.2617 357.644 94.5257 357.644C94.7897 357.644 95.0117 357.728 95.1917 357.896C95.3717 358.064 95.4617 358.274 95.4617 358.526C95.4617 358.79 95.3717 359.012 95.1917 359.192C95.0237 359.372 94.8017 359.462 94.5257 359.462ZM102.564 371.09C101.652 371.09 100.83 370.886 100.098 370.478C99.3777 370.058 98.8077 369.488 98.3877 368.768C97.9677 368.036 97.7577 367.202 97.7577 366.266C97.7577 365.318 97.9677 364.484 98.3877 363.764C98.8077 363.044 99.3777 362.48 100.098 362.072C100.818 361.664 101.64 361.46 102.564 361.46C103.5 361.46 104.328 361.664 105.048 362.072C105.78 362.48 106.35 363.044 106.758 363.764C107.178 364.484 107.388 365.318 107.388 366.266C107.388 367.202 107.178 368.036 106.758 368.768C106.35 369.488 105.78 370.058 105.048 370.478C104.316 370.886 103.488 371.09 102.564 371.09ZM102.564 369.956C103.248 369.956 103.854 369.806 104.382 369.506C104.91 369.194 105.324 368.762 105.624 368.21C105.936 367.646 106.092 366.998 106.092 366.266C106.092 365.522 105.936 364.874 105.624 364.322C105.324 363.77 104.91 363.344 104.382 363.044C103.854 362.732 103.254 362.576 102.582 362.576C101.91 362.576 101.31 362.732 100.782 363.044C100.254 363.344 99.8337 363.77 99.5217 364.322C99.2097 364.874 99.0537 365.522 99.0537 366.266C99.0537 366.998 99.2097 367.646 99.5217 368.21C99.8337 368.762 100.254 369.194 100.782 369.506C101.31 369.806 101.904 369.956 102.564 369.956ZM114.821 361.46C115.589 361.46 116.261 361.61 116.837 361.91C117.425 362.198 117.881 362.642 118.205 363.242C118.541 363.842 118.709 364.598 118.709 365.51V371H117.431V365.636C117.431 364.64 117.179 363.89 116.675 363.386C116.183 362.87 115.487 362.612 114.587 362.612C113.915 362.612 113.327 362.75 112.823 363.026C112.331 363.29 111.947 363.68 111.671 364.196C111.407 364.7 111.275 365.312 111.275 366.032V371H109.997V361.55H111.221V364.142L111.023 363.656C111.323 362.972 111.803 362.438 112.463 362.054C113.123 361.658 113.909 361.46 114.821 361.46ZM122.287 363.422C122.023 363.422 121.795 363.326 121.603 363.134C121.423 362.942 121.333 362.708 121.333 362.432C121.333 362.144 121.423 361.91 121.603 361.73C121.795 361.55 122.023 361.46 122.287 361.46C122.551 361.46 122.773 361.55 122.953 361.73C123.145 361.91 123.241 362.144 123.241 362.432C123.241 362.708 123.145 362.942 122.953 363.134C122.773 363.326 122.551 363.422 122.287 363.422ZM122.287 371.09C122.023 371.09 121.795 370.994 121.603 370.802C121.423 370.61 121.333 370.376 121.333 370.1C121.333 369.812 121.423 369.578 121.603 369.398C121.795 369.218 122.023 369.128 122.287 369.128C122.551 369.128 122.773 369.218 122.953 369.398C123.145 369.578 123.241 369.812 123.241 370.1C123.241 370.376 123.145 370.61 122.953 370.802C122.773 370.994 122.551 371.09 122.287 371.09Z" fill="#776A6A"/>
<path d="M316.052 117V104.4H320.768C321.836 104.4 322.754 104.574 323.522 104.922C324.29 105.258 324.878 105.75 325.286 106.398C325.706 107.034 325.916 107.808 325.916 108.72C325.916 109.608 325.706 110.376 325.286 111.024C324.878 111.66 324.29 112.152 323.522 112.5C322.754 112.848 321.836 113.022 320.768 113.022H316.79L317.384 112.392V117H316.052ZM317.384 112.5L316.79 111.852H320.732C321.992 111.852 322.946 111.582 323.594 111.042C324.254 110.49 324.584 109.716 324.584 108.72C324.584 107.712 324.254 106.932 323.594 106.38C322.946 105.828 321.992 105.552 320.732 105.552H316.79L317.384 104.922V112.5ZM328.298 117V107.55H329.522V110.124L329.396 109.674C329.66 108.954 330.104 108.408 330.728 108.036C331.352 107.652 332.126 107.46 333.05 107.46V108.702C333.002 108.702 332.954 108.702 332.906 108.702C332.858 108.69 332.81 108.684 332.762 108.684C331.766 108.684 330.986 108.99 330.422 109.602C329.858 110.202 329.576 111.06 329.576 112.176V117H328.298ZM335.382 117V107.55H336.66V117H335.382ZM336.03 105.462C335.766 105.462 335.544 105.372 335.364 105.192C335.184 105.012 335.094 104.796 335.094 104.544C335.094 104.292 335.184 104.082 335.364 103.914C335.544 103.734 335.766 103.644 336.03 103.644C336.294 103.644 336.516 103.728 336.696 103.896C336.876 104.064 336.966 104.274 336.966 104.526C336.966 104.79 336.876 105.012 336.696 105.192C336.528 105.372 336.306 105.462 336.03 105.462ZM344.068 117.09C343.156 117.09 342.334 116.886 341.602 116.478C340.882 116.058 340.312 115.488 339.892 114.768C339.472 114.036 339.262 113.202 339.262 112.266C339.262 111.318 339.472 110.484 339.892 109.764C340.312 109.044 340.882 108.48 341.602 108.072C342.322 107.664 343.144 107.46 344.068 107.46C345.004 107.46 345.832 107.664 346.552 108.072C347.284 108.48 347.854 109.044 348.262 109.764C348.682 110.484 348.892 111.318 348.892 112.266C348.892 113.202 348.682 114.036 348.262 114.768C347.854 115.488 347.284 116.058 346.552 116.478C345.82 116.886 344.992 117.09 344.068 117.09ZM344.068 115.956C344.752 115.956 345.358 115.806 345.886 115.506C346.414 115.194 346.828 114.762 347.128 114.21C347.44 113.646 347.596 112.998 347.596 112.266C347.596 111.522 347.44 110.874 347.128 110.322C346.828 109.77 346.414 109.344 345.886 109.044C345.358 108.732 344.758 108.576 344.086 108.576C343.414 108.576 342.814 108.732 342.286 109.044C341.758 109.344 341.338 109.77 341.026 110.322C340.714 110.874 340.558 111.522 340.558 112.266C340.558 112.998 340.714 113.646 341.026 114.21C341.338 114.762 341.758 115.194 342.286 115.506C342.814 115.806 343.408 115.956 344.068 115.956ZM351.501 117V107.55H352.725V110.124L352.599 109.674C352.863 108.954 353.307 108.408 353.931 108.036C354.555 107.652 355.329 107.46 356.253 107.46V108.702C356.205 108.702 356.157 108.702 356.109 108.702C356.061 108.69 356.013 108.684 355.965 108.684C354.969 108.684 354.189 108.99 353.625 109.602C353.061 110.202 352.779 111.06 352.779 112.176V117H351.501ZM358.585 117V107.55H359.863V117H358.585ZM359.233 105.462C358.969 105.462 358.747 105.372 358.567 105.192C358.387 105.012 358.297 104.796 358.297 104.544C358.297 104.292 358.387 104.082 358.567 103.914C358.747 103.734 358.969 103.644 359.233 103.644C359.497 103.644 359.719 103.728 359.899 103.896C360.079 104.064 360.169 104.274 360.169 104.526C360.169 104.79 360.079 105.012 359.899 105.192C359.731 105.372 359.509 105.462 359.233 105.462ZM366.407 117.09C365.519 117.09 364.835 116.85 364.355 116.37C363.875 115.89 363.635 115.212 363.635 114.336V105.462H364.913V114.264C364.913 114.816 365.051 115.242 365.327 115.542C365.615 115.842 366.023 115.992 366.551 115.992C367.115 115.992 367.583 115.83 367.955 115.506L368.405 116.424C368.153 116.652 367.847 116.82 367.487 116.928C367.139 117.036 366.779 117.09 366.407 117.09ZM361.943 108.612V107.55H367.793V108.612H361.943ZM370.627 120.582C370.183 120.582 369.757 120.51 369.349 120.366C368.953 120.222 368.611 120.006 368.323 119.718L368.917 118.764C369.157 118.992 369.415 119.166 369.691 119.286C369.979 119.418 370.297 119.484 370.645 119.484C371.065 119.484 371.425 119.364 371.725 119.124C372.037 118.896 372.331 118.488 372.607 117.9L373.219 116.514L373.363 116.316L377.251 107.55H378.511L373.777 118.134C373.513 118.746 373.219 119.232 372.895 119.592C372.583 119.952 372.241 120.204 371.869 120.348C371.497 120.504 371.083 120.582 370.627 120.582ZM373.147 117.27L368.791 107.55H370.123L373.975 116.226L373.147 117.27ZM380.578 109.422C380.314 109.422 380.086 109.326 379.894 109.134C379.714 108.942 379.624 108.708 379.624 108.432C379.624 108.144 379.714 107.91 379.894 107.73C380.086 107.55 380.314 107.46 380.578 107.46C380.842 107.46 381.064 107.55 381.244 107.73C381.436 107.91 381.532 108.144 381.532 108.432C381.532 108.708 381.436 108.942 381.244 109.134C381.064 109.326 380.842 109.422 380.578 109.422ZM380.578 117.09C380.314 117.09 380.086 116.994 379.894 116.802C379.714 116.61 379.624 116.376 379.624 116.1C379.624 115.812 379.714 115.578 379.894 115.398C380.086 115.218 380.314 115.128 380.578 115.128C380.842 115.128 381.064 115.218 381.244 115.398C381.436 115.578 381.532 115.812 381.532 116.1C381.532 116.376 381.436 116.61 381.244 116.802C381.064 116.994 380.842 117.09 380.578 117.09Z" fill="#776A6A"/>
<g filter="url(#filter0_d_1140_2945)">
<rect x="314" y="126" width="194" height="30" rx="4" fill="white"/>
<rect x="314.1" y="126.1" width="193.8" height="29.8" rx="3.9" stroke="black" stroke-width="0.2"/>
</g>
<path d="M331.776 137.778V147.959H330.582L325.034 139.965H324.935V147.959H323.702V137.778H324.895L330.463 145.792H330.562V137.778H331.776ZM337.186 148.119C336.497 148.119 335.892 147.955 335.371 147.626C334.854 147.298 334.45 146.839 334.158 146.249C333.87 145.659 333.726 144.97 333.726 144.181C333.726 143.386 333.87 142.691 334.158 142.098C334.45 141.505 334.854 141.044 335.371 140.716C335.892 140.388 336.497 140.224 337.186 140.224C337.875 140.224 338.479 140.388 338.996 140.716C339.516 141.044 339.92 141.505 340.209 142.098C340.5 142.691 340.646 143.386 340.646 144.181C340.646 144.97 340.5 145.659 340.209 146.249C339.92 146.839 339.516 147.298 338.996 147.626C338.479 147.955 337.875 148.119 337.186 148.119ZM337.186 147.065C337.71 147.065 338.14 146.93 338.479 146.662C338.817 146.393 339.067 146.04 339.229 145.603C339.392 145.165 339.473 144.691 339.473 144.181C339.473 143.671 339.392 143.195 339.229 142.754C339.067 142.313 338.817 141.957 338.479 141.685C338.14 141.414 337.71 141.278 337.186 141.278C336.662 141.278 336.231 141.414 335.893 141.685C335.555 141.957 335.305 142.313 335.143 142.754C334.98 143.195 334.899 143.671 334.899 144.181C334.899 144.691 334.98 145.165 335.143 145.603C335.305 146.04 335.555 146.393 335.893 146.662C336.231 146.93 336.662 147.065 337.186 147.065ZM342.437 147.959V140.323H343.571V141.477H343.65C343.789 141.099 344.041 140.792 344.406 140.557C344.77 140.321 345.181 140.204 345.639 140.204C345.725 140.204 345.833 140.205 345.962 140.209C346.091 140.212 346.189 140.217 346.255 140.224V141.417C346.216 141.407 346.124 141.392 345.982 141.372C345.843 141.349 345.695 141.337 345.539 141.337C345.168 141.337 344.837 141.415 344.545 141.571C344.257 141.723 344.028 141.936 343.859 142.207C343.693 142.476 343.61 142.782 343.61 143.127V147.959H342.437ZM347.646 147.959V140.323H348.78V141.516H348.879C349.038 141.109 349.295 140.792 349.65 140.567C350.004 140.338 350.43 140.224 350.927 140.224C351.431 140.224 351.85 140.338 352.185 140.567C352.523 140.792 352.787 141.109 352.976 141.516H353.055C353.251 141.122 353.544 140.809 353.935 140.577C354.326 140.341 354.795 140.224 355.342 140.224C356.025 140.224 356.583 140.437 357.018 140.865C357.452 141.289 357.669 141.95 357.669 142.849V147.959H356.496V142.849C356.496 142.285 356.341 141.883 356.033 141.641C355.725 141.399 355.362 141.278 354.944 141.278C354.407 141.278 353.992 141.44 353.697 141.765C353.402 142.086 353.254 142.494 353.254 142.988V147.959H352.061V142.729C352.061 142.295 351.92 141.946 351.638 141.68C351.357 141.412 350.994 141.278 350.55 141.278C350.245 141.278 349.96 141.359 349.694 141.521C349.433 141.684 349.22 141.909 349.058 142.197C348.899 142.482 348.819 142.812 348.819 143.187V147.959H347.646ZM362.061 148.138C361.577 148.138 361.138 148.047 360.744 147.865C360.349 147.679 360.036 147.413 359.804 147.065C359.572 146.713 359.456 146.289 359.456 145.792C359.456 145.354 359.542 145 359.715 144.728C359.887 144.453 360.117 144.237 360.406 144.082C360.694 143.926 361.012 143.81 361.36 143.734C361.712 143.654 362.065 143.591 362.419 143.545C362.883 143.485 363.259 143.44 363.548 143.41C363.839 143.377 364.052 143.323 364.184 143.246C364.32 143.17 364.388 143.038 364.388 142.849V142.809C364.388 142.318 364.254 141.937 363.985 141.665C363.72 141.394 363.317 141.258 362.777 141.258C362.217 141.258 361.778 141.38 361.46 141.626C361.142 141.871 360.918 142.133 360.789 142.411L359.675 142.013C359.874 141.549 360.139 141.188 360.47 140.93C360.805 140.668 361.17 140.486 361.564 140.383C361.962 140.277 362.353 140.224 362.737 140.224C362.983 140.224 363.264 140.254 363.583 140.313C363.904 140.37 364.214 140.487 364.512 140.666C364.814 140.845 365.064 141.115 365.263 141.477C365.462 141.838 365.561 142.322 365.561 142.928V147.959H364.388V146.925H364.328C364.249 147.091 364.116 147.268 363.931 147.457C363.745 147.646 363.498 147.807 363.19 147.94C362.882 148.072 362.505 148.138 362.061 148.138ZM362.24 147.084C362.704 147.084 363.095 146.993 363.414 146.811C363.735 146.629 363.977 146.393 364.139 146.105C364.305 145.817 364.388 145.513 364.388 145.195V144.121C364.338 144.181 364.229 144.236 364.06 144.285C363.894 144.332 363.702 144.373 363.483 144.41C363.268 144.443 363.057 144.473 362.852 144.499C362.65 144.522 362.485 144.542 362.36 144.559C362.055 144.599 361.77 144.663 361.504 144.753C361.243 144.839 361.03 144.97 360.868 145.146C360.709 145.318 360.629 145.553 360.629 145.852C360.629 146.259 360.78 146.567 361.082 146.776C361.387 146.982 361.773 147.084 362.24 147.084ZM368.876 137.778V147.959H367.703V137.778H368.876Z" fill="black"/>
<g clip-path="url(#clip0_1140_2945)">
<path d="M488.695 144.75L481.869 140.313L484.146 138.834L488.695 141.792L493.245 138.834L495.522 140.313L488.695 144.75Z" fill="black"/>
</g>
<g filter="url(#filter1_d_1140_2945)">
<rect x="16" y="208" width="194" height="30" rx="4" fill="white"/>
</g>
<path d="M28.8428 229.959H25.7007V219.777H28.982C29.9697 219.777 30.8148 219.981 31.5175 220.389C32.2201 220.793 32.7587 221.375 33.1333 222.134C33.5078 222.889 33.695 223.794 33.695 224.848C33.695 225.909 33.5061 226.822 33.1283 227.588C32.7504 228.35 32.2003 228.936 31.4777 229.347C30.7552 229.755 29.8769 229.959 28.8428 229.959ZM26.9337 228.865H28.7632C29.6051 228.865 30.3028 228.703 30.8563 228.378C31.4098 228.053 31.8224 227.591 32.0942 226.991C32.366 226.391 32.5019 225.677 32.5019 224.848C32.5019 224.026 32.3676 223.319 32.0992 222.725C31.8307 222.129 31.4297 221.671 30.896 221.353C30.3624 221.032 29.6979 220.871 28.9024 220.871H26.9337V228.865ZM38.9053 229.959H35.7632V219.777H39.0445C40.0322 219.777 40.8773 219.981 41.58 220.389C42.2826 220.793 42.8212 221.375 43.1958 222.134C43.5703 222.889 43.7575 223.794 43.7575 224.848C43.7575 225.909 43.5686 226.822 43.1908 227.588C42.8129 228.35 42.2628 228.936 41.5402 229.347C40.8177 229.755 39.9394 229.959 38.9053 229.959ZM36.9962 228.865H38.8257C39.6676 228.865 40.3653 228.703 40.9188 228.378C41.4723 228.053 41.8849 227.591 42.1567 226.991C42.4285 226.391 42.5644 225.677 42.5644 224.848C42.5644 224.026 42.4301 223.319 42.1617 222.725C41.8932 222.129 41.4922 221.671 40.9585 221.353C40.4249 221.032 39.7604 220.871 38.9649 220.871H36.9962V228.865ZM50.0416 224.321V225.415H45.5871V224.321H50.0416ZM52.2652 219.777H53.7368L57.197 228.229H57.3163L60.7765 219.777H62.2481V229.959H61.0947V222.223H60.9953L57.8135 229.959H56.6998L53.518 222.223H53.4186V229.959H52.2652V219.777ZM64.7203 219.777H66.1919L69.6521 228.229H69.7714L73.2316 219.777H74.7032V229.959H73.5498V222.223H73.4504L70.2686 229.959H69.1549L65.9731 222.223H65.8737V229.959H64.7203V219.777ZM81.3912 224.321V225.415H76.9367V224.321H81.3912ZM81.6324 219.777H83.0443L85.8682 224.53H85.9875L88.8113 219.777H90.2233L86.5443 225.763V229.959H85.3113V225.763L81.6324 219.777ZM90.9429 219.777H92.3548L95.1787 224.53H95.298L98.1219 219.777H99.5338L95.8548 225.763V229.959H94.6219V225.763L90.9429 219.777ZM100.253 219.777H101.665L104.489 224.53H104.609L107.432 219.777H108.844L105.165 225.763V229.959H103.932V225.763L100.253 219.777ZM109.564 219.777H110.976L113.8 224.53H113.919L116.743 219.777H118.155L114.476 225.763V229.959H113.243V225.763L109.564 219.777Z" fill="black"/>
<g clip-path="url(#clip1_1140_2945)">
<path d="M195.373 217.336H192.871V216.418C192.871 216.296 192.81 216.179 192.702 216.093C192.594 216.007 192.447 215.959 192.294 215.958C192.141 215.958 191.994 216.007 191.886 216.093C191.777 216.179 191.716 216.296 191.716 216.417V217.336H188.252V216.418C188.252 216.358 188.237 216.298 188.208 216.242C188.179 216.187 188.137 216.136 188.083 216.093C188.03 216.051 187.966 216.017 187.896 215.994C187.826 215.97 187.751 215.959 187.675 215.958C187.522 215.958 187.375 216.007 187.267 216.093C187.158 216.179 187.097 216.296 187.097 216.417V217.336H183.633V216.418C183.633 216.358 183.618 216.298 183.589 216.242C183.56 216.187 183.518 216.136 183.464 216.093C183.411 216.051 183.347 216.017 183.277 215.994C183.207 215.97 183.132 215.959 183.056 215.958C182.903 215.958 182.756 216.007 182.648 216.093C182.539 216.179 182.478 216.296 182.478 216.417V217.336H179.976C179.568 217.336 179.176 217.465 178.888 217.695C178.599 217.924 178.437 218.236 178.437 218.56V229.428C178.437 229.752 178.599 230.064 178.887 230.293C179.176 230.523 179.568 230.652 179.976 230.652H195.373C195.781 230.652 196.173 230.523 196.462 230.293C196.75 230.064 196.913 229.752 196.913 229.428V218.56C196.913 218.236 196.75 217.924 196.461 217.695C196.173 217.465 195.781 217.336 195.373 217.336ZM195.758 229.428C195.758 229.509 195.718 229.587 195.645 229.644C195.573 229.702 195.476 229.734 195.374 229.734H179.976C179.874 229.734 179.776 229.702 179.704 229.645C179.632 229.587 179.591 229.509 179.591 229.428V218.561C179.591 218.48 179.632 218.402 179.704 218.345C179.776 218.288 179.874 218.255 179.976 218.255H182.478V219.174C182.478 219.295 182.539 219.412 182.647 219.498C182.755 219.585 182.902 219.633 183.055 219.633C183.208 219.633 183.355 219.585 183.464 219.499C183.572 219.413 183.633 219.296 183.633 219.174V218.255H187.097V219.174C187.097 219.295 187.158 219.412 187.266 219.498C187.374 219.585 187.521 219.633 187.674 219.633C187.827 219.633 187.974 219.585 188.083 219.499C188.191 219.413 188.252 219.296 188.252 219.174V218.255H191.716V219.174C191.716 219.295 191.777 219.412 191.885 219.498C191.993 219.585 192.14 219.633 192.293 219.633C192.446 219.633 192.593 219.585 192.702 219.499C192.81 219.413 192.871 219.296 192.871 219.174V218.255H195.373C195.475 218.255 195.572 218.288 195.644 218.345C195.716 218.402 195.757 218.48 195.757 218.561L195.758 229.428Z" fill="black"/>
<path d="M182.479 221.469H184.788V222.847H182.479V221.469ZM182.479 223.765H184.788V225.143H182.479V223.765ZM182.479 226.061H184.788V227.439H182.479V226.061ZM186.52 226.061H188.83V227.439H186.52V226.061ZM186.52 223.765H188.83V225.143H186.52V223.765ZM186.52 221.469H188.83V222.847H186.52V221.469ZM190.562 226.061H192.871V227.439H190.562V226.061ZM190.562 223.765H192.871V225.143H190.562V223.765ZM190.562 221.469H192.871V222.847H190.562V221.469Z" fill="black"/>
</g>
<path d="M16.6761 133.912V132.818H24.3125V133.912H21.1108V143H19.8778V133.912H16.6761ZM27.2644 143.179C26.7805 143.179 26.3413 143.088 25.9469 142.906C25.5525 142.72 25.2393 142.453 25.0073 142.105C24.7753 141.754 24.6593 141.33 24.6593 140.832C24.6593 140.395 24.7454 140.04 24.9178 139.768C25.0901 139.493 25.3205 139.278 25.6088 139.122C25.8972 138.966 26.2154 138.85 26.5634 138.774C26.9147 138.695 27.2677 138.632 27.6223 138.585C28.0864 138.526 28.4625 138.481 28.7509 138.451C29.0426 138.418 29.2547 138.363 29.3873 138.287C29.5231 138.211 29.5911 138.078 29.5911 137.889V137.849C29.5911 137.359 29.4569 136.978 29.1884 136.706C28.9232 136.434 28.5205 136.298 27.9803 136.298C27.4202 136.298 26.981 136.421 26.6628 136.666C26.3446 136.911 26.1209 137.173 25.9917 137.452L24.878 137.054C25.0769 136.59 25.342 136.229 25.6735 135.97C26.0082 135.708 26.3728 135.526 26.7672 135.423C27.165 135.317 27.556 135.264 27.9405 135.264C28.1858 135.264 28.4675 135.294 28.7857 135.354C29.1072 135.41 29.4171 135.528 29.7154 135.707C30.017 135.886 30.2672 136.156 30.4661 136.517C30.665 136.878 30.7644 137.362 30.7644 137.969V143H29.5911V141.966H29.5314C29.4519 142.132 29.3193 142.309 29.1337 142.498C28.9481 142.687 28.7012 142.848 28.3929 142.98C28.0847 143.113 27.7085 143.179 27.2644 143.179ZM27.4434 142.125C27.9074 142.125 28.2985 142.034 28.6167 141.852C28.9382 141.669 29.1801 141.434 29.3425 141.146C29.5082 140.857 29.5911 140.554 29.5911 140.236V139.162C29.5414 139.222 29.432 139.276 29.263 139.326C29.0972 139.372 28.905 139.414 28.6863 139.45C28.4708 139.483 28.2604 139.513 28.0549 139.54C27.8527 139.563 27.6886 139.583 27.5627 139.599C27.2578 139.639 26.9727 139.704 26.7076 139.793C26.4457 139.879 26.2336 140.01 26.0712 140.186C25.9121 140.358 25.8326 140.594 25.8326 140.892C25.8326 141.3 25.9834 141.608 26.285 141.817C26.5899 142.022 26.976 142.125 27.4434 142.125ZM38.315 137.074L37.261 137.372C37.1947 137.196 37.0969 137.026 36.9677 136.86C36.8417 136.691 36.6694 136.552 36.4506 136.442C36.2319 136.333 35.9518 136.278 35.6104 136.278C35.1431 136.278 34.7537 136.386 34.4421 136.602C34.1339 136.814 33.9798 137.084 33.9798 137.412C33.9798 137.704 34.0858 137.934 34.2979 138.103C34.5101 138.272 34.8415 138.413 35.2923 138.526L36.4258 138.804C37.1085 138.97 37.6173 139.223 37.9521 139.565C38.2868 139.903 38.4542 140.339 38.4542 140.872C38.4542 141.31 38.3282 141.701 38.0763 142.045C37.8278 142.39 37.4798 142.662 37.0323 142.861C36.5849 143.06 36.0645 143.159 35.4712 143.159C34.6924 143.159 34.0477 142.99 33.5373 142.652C33.0269 142.314 32.7037 141.82 32.5678 141.17L33.6815 140.892C33.7875 141.303 33.988 141.611 34.283 141.817C34.5813 142.022 34.9708 142.125 35.4513 142.125C35.9982 142.125 36.4324 142.009 36.7539 141.777C37.0787 141.542 37.2411 141.26 37.2411 140.932C37.2411 140.667 37.1483 140.445 36.9627 140.266C36.7771 140.083 36.4921 139.947 36.1076 139.858L34.8349 139.56C34.1355 139.394 33.6218 139.137 33.2937 138.789C32.9689 138.438 32.8065 137.999 32.8065 137.472C32.8065 137.041 32.9274 136.66 33.1694 136.328C33.4147 135.997 33.7478 135.737 34.1687 135.548C34.5929 135.359 35.0735 135.264 35.6104 135.264C36.3661 135.264 36.9594 135.43 37.3903 135.761C37.8245 136.093 38.1327 136.53 38.315 137.074ZM41.3141 140.216L41.2942 138.764H41.5328L44.8738 135.364H46.3255L42.7658 138.963H42.6664L41.3141 140.216ZM40.2203 143V132.818H41.3936V143H40.2203ZM45.0726 143L42.0897 139.222L42.9249 138.406L46.5641 143H45.0726ZM52.9464 138.406V143H51.7731V135.364H52.9066V136.557H53.006C53.185 136.169 53.4568 135.857 53.8214 135.622C54.186 135.384 54.6566 135.264 55.2333 135.264C55.7504 135.264 56.2028 135.37 56.5906 135.582C56.9783 135.791 57.2799 136.109 57.4954 136.537C57.7108 136.961 57.8185 137.498 57.8185 138.148V143H56.6452V138.227C56.6452 137.627 56.4895 137.16 56.1779 136.825C55.8664 136.487 55.4388 136.318 54.8952 136.318C54.5207 136.318 54.186 136.399 53.891 136.562C53.5993 136.724 53.369 136.961 53.1999 137.273C53.0309 137.584 52.9464 137.962 52.9464 138.406ZM62.2097 143.179C61.7258 143.179 61.2866 143.088 60.8922 142.906C60.4978 142.72 60.1846 142.453 59.9526 142.105C59.7206 141.754 59.6046 141.33 59.6046 140.832C59.6046 140.395 59.6908 140.04 59.8631 139.768C60.0355 139.493 60.2658 139.278 60.5542 139.122C60.8425 138.966 61.1607 138.85 61.5087 138.774C61.86 138.695 62.213 138.632 62.5676 138.585C63.0317 138.526 63.4078 138.481 63.6962 138.451C63.9879 138.418 64.2 138.363 64.3326 138.287C64.4685 138.211 64.5364 138.078 64.5364 137.889V137.849C64.5364 137.359 64.4022 136.978 64.1337 136.706C63.8685 136.434 63.4659 136.298 62.9256 136.298C62.3655 136.298 61.9263 136.421 61.6081 136.666C61.29 136.911 61.0662 137.173 60.937 137.452L59.8233 137.054C60.0222 136.59 60.2873 136.229 60.6188 135.97C60.9535 135.708 61.3181 135.526 61.7125 135.423C62.1103 135.317 62.5014 135.264 62.8858 135.264C63.1311 135.264 63.4128 135.294 63.731 135.354C64.0525 135.41 64.3624 135.528 64.6607 135.707C64.9623 135.886 65.2125 136.156 65.4114 136.517C65.6103 136.878 65.7097 137.362 65.7097 137.969V143H64.5364V141.966H64.4767C64.3972 142.132 64.2646 142.309 64.079 142.498C63.8934 142.687 63.6465 142.848 63.3382 142.98C63.03 143.113 62.6538 143.179 62.2097 143.179ZM62.3887 142.125C62.8527 142.125 63.2438 142.034 63.562 141.852C63.8835 141.669 64.1254 141.434 64.2878 141.146C64.4535 140.857 64.5364 140.554 64.5364 140.236V139.162C64.4867 139.222 64.3773 139.276 64.2083 139.326C64.0426 139.372 63.8503 139.414 63.6316 139.45C63.4161 139.483 63.2057 139.513 63.0002 139.54C62.798 139.563 62.6339 139.583 62.508 139.599C62.2031 139.639 61.918 139.704 61.6529 139.793C61.391 139.879 61.1789 140.01 61.0165 140.186C60.8574 140.358 60.7779 140.594 60.7779 140.892C60.7779 141.3 60.9287 141.608 61.2303 141.817C61.5352 142.022 61.9213 142.125 62.3887 142.125ZM67.8512 143V135.364H68.9847V136.557H69.0842C69.2433 136.149 69.5001 135.833 69.8548 135.607C70.2094 135.379 70.6353 135.264 71.1325 135.264C71.6362 135.264 72.0555 135.379 72.3903 135.607C72.7283 135.833 72.9918 136.149 73.1808 136.557H73.2603C73.4558 136.162 73.7492 135.849 74.1403 135.617C74.5314 135.382 75.0004 135.264 75.5472 135.264C76.23 135.264 76.7885 135.478 77.2227 135.906C77.6568 136.33 77.8739 136.991 77.8739 137.889V143H76.7006V137.889C76.7006 137.326 76.5465 136.923 76.2383 136.681C75.93 136.439 75.5671 136.318 75.1495 136.318C74.6126 136.318 74.1966 136.481 73.9016 136.805C73.6067 137.127 73.4592 137.535 73.4592 138.028V143H72.266V137.77C72.266 137.336 72.1251 136.986 71.8434 136.721C71.5617 136.452 71.1987 136.318 70.7546 136.318C70.4497 136.318 70.1647 136.399 69.8995 136.562C69.6377 136.724 69.4255 136.95 69.2631 137.238C69.104 137.523 69.0245 137.853 69.0245 138.227V143H67.8512ZM83.2209 143.159C82.4851 143.159 81.8504 142.997 81.3168 142.672C80.7865 142.344 80.3771 141.886 80.0888 141.3C79.8037 140.71 79.6612 140.024 79.6612 139.241C79.6612 138.459 79.8037 137.77 80.0888 137.173C80.3771 136.573 80.7782 136.106 81.2919 135.771C81.8089 135.433 82.4122 135.264 83.1016 135.264C83.4993 135.264 83.892 135.33 84.2798 135.463C84.6676 135.596 85.0206 135.811 85.3388 136.109C85.657 136.404 85.9105 136.795 86.0994 137.283C86.2884 137.77 86.3828 138.37 86.3828 139.082V139.58H80.4964V138.565H85.1896C85.1896 138.134 85.1035 137.75 84.9311 137.412C84.7621 137.074 84.5201 136.807 84.2053 136.612C83.8937 136.416 83.5258 136.318 83.1016 136.318C82.6342 136.318 82.2299 136.434 81.8885 136.666C81.5504 136.895 81.2902 137.193 81.108 137.561C80.9257 137.929 80.8345 138.323 80.8345 138.744V139.42C80.8345 139.997 80.9339 140.486 81.1328 140.887C81.335 141.285 81.6151 141.588 81.973 141.797C82.331 142.002 82.7469 142.105 83.2209 142.105C83.5291 142.105 83.8075 142.062 84.0561 141.976C84.308 141.886 84.5251 141.754 84.7074 141.578C84.8897 141.399 85.0305 141.177 85.13 140.912L86.2635 141.23C86.1442 141.615 85.9437 141.953 85.6619 142.244C85.3802 142.533 85.0322 142.758 84.6179 142.92C84.2036 143.08 83.7379 143.159 83.2209 143.159Z" fill="#050505"/>
<line x1="16" y1="154.75" x2="210" y2="154.75" stroke="url(#paint0_linear_1140_2945)" stroke-width="2.5"/>
<path d="M51 312.998H45V318.998H43V312.998H37V310.998H43V304.998H45V310.998H51V312.998Z" fill="black"/>
<path d="M314.036 288L319.796 275.4H321.11L326.87 288H325.466L320.174 276.174H320.714L315.422 288H314.036ZM316.304 284.634L316.7 283.554H324.026L324.422 284.634H316.304ZM331.134 288.09C330.354 288.09 329.616 287.982 328.92 287.766C328.224 287.538 327.678 287.256 327.282 286.92L327.858 285.912C328.242 286.2 328.734 286.452 329.334 286.668C329.934 286.872 330.564 286.974 331.224 286.974C332.124 286.974 332.772 286.836 333.168 286.56C333.564 286.272 333.762 285.894 333.762 285.426C333.762 285.078 333.648 284.808 333.42 284.616C333.204 284.412 332.916 284.262 332.556 284.166C332.196 284.058 331.794 283.968 331.35 283.896C330.906 283.824 330.462 283.74 330.018 283.644C329.586 283.548 329.19 283.41 328.83 283.23C328.47 283.038 328.176 282.78 327.948 282.456C327.732 282.132 327.624 281.7 327.624 281.16C327.624 280.644 327.768 280.182 328.056 279.774C328.344 279.366 328.764 279.048 329.316 278.82C329.88 278.58 330.564 278.46 331.368 278.46C331.98 278.46 332.592 278.544 333.204 278.712C333.816 278.868 334.32 279.078 334.716 279.342L334.158 280.368C333.738 280.08 333.288 279.876 332.808 279.756C332.328 279.624 331.848 279.558 331.368 279.558C330.516 279.558 329.886 279.708 329.478 280.008C329.082 280.296 328.884 280.668 328.884 281.124C328.884 281.484 328.992 281.766 329.208 281.97C329.436 282.174 329.73 282.336 330.09 282.456C330.462 282.564 330.864 282.654 331.296 282.726C331.74 282.798 332.178 282.888 332.61 282.996C333.054 283.092 333.456 283.23 333.816 283.41C334.188 283.578 334.482 283.824 334.698 284.148C334.926 284.46 335.04 284.874 335.04 285.39C335.04 285.942 334.884 286.422 334.572 286.83C334.272 287.226 333.828 287.538 333.24 287.766C332.664 287.982 331.962 288.09 331.134 288.09ZM337.386 288V278.55H338.664V288H337.386ZM338.034 276.462C337.77 276.462 337.548 276.372 337.368 276.192C337.188 276.012 337.098 275.796 337.098 275.544C337.098 275.292 337.188 275.082 337.368 274.914C337.548 274.734 337.77 274.644 338.034 274.644C338.298 274.644 338.52 274.728 338.7 274.896C338.88 275.064 338.97 275.274 338.97 275.526C338.97 275.79 338.88 276.012 338.7 276.192C338.532 276.372 338.31 276.462 338.034 276.462ZM346.252 291.582C345.388 291.582 344.56 291.456 343.768 291.204C342.976 290.952 342.334 290.592 341.842 290.124L342.49 289.152C342.934 289.548 343.48 289.86 344.128 290.088C344.788 290.328 345.484 290.448 346.216 290.448C347.416 290.448 348.298 290.166 348.862 289.602C349.426 289.05 349.708 288.186 349.708 287.01V284.652L349.888 283.032L349.762 281.412V278.55H350.986V286.848C350.986 288.48 350.584 289.674 349.78 290.43C348.988 291.198 347.812 291.582 346.252 291.582ZM346.018 287.64C345.118 287.64 344.308 287.448 343.588 287.064C342.868 286.668 342.298 286.122 341.878 285.426C341.47 284.73 341.266 283.932 341.266 283.032C341.266 282.132 341.47 281.34 341.878 280.656C342.298 279.96 342.868 279.42 343.588 279.036C344.308 278.652 345.118 278.46 346.018 278.46C346.858 278.46 347.614 278.634 348.286 278.982C348.958 279.33 349.492 279.846 349.888 280.53C350.284 281.214 350.482 282.048 350.482 283.032C350.482 284.016 350.284 284.85 349.888 285.534C349.492 286.218 348.958 286.74 348.286 287.1C347.614 287.46 346.858 287.64 346.018 287.64ZM346.144 286.506C346.84 286.506 347.458 286.362 347.998 286.074C348.538 285.774 348.964 285.366 349.276 284.85C349.588 284.322 349.744 283.716 349.744 283.032C349.744 282.348 349.588 281.748 349.276 281.232C348.964 280.716 348.538 280.314 347.998 280.026C347.458 279.726 346.84 279.576 346.144 279.576C345.46 279.576 344.842 279.726 344.29 280.026C343.75 280.314 343.324 280.716 343.012 281.232C342.712 281.748 342.562 282.348 342.562 283.032C342.562 283.716 342.712 284.322 343.012 284.85C343.324 285.366 343.75 285.774 344.29 286.074C344.842 286.362 345.46 286.506 346.144 286.506ZM359.366 278.46C360.134 278.46 360.806 278.61 361.382 278.91C361.97 279.198 362.426 279.642 362.75 280.242C363.086 280.842 363.254 281.598 363.254 282.51V288H361.976V282.636C361.976 281.64 361.724 280.89 361.22 280.386C360.728 279.87 360.032 279.612 359.132 279.612C358.46 279.612 357.872 279.75 357.368 280.026C356.876 280.29 356.492 280.68 356.216 281.196C355.952 281.7 355.82 282.312 355.82 283.032V288H354.542V278.55H355.766V281.142L355.568 280.656C355.868 279.972 356.348 279.438 357.008 279.054C357.668 278.658 358.454 278.46 359.366 278.46ZM370.72 288.09C369.736 288.09 368.872 287.886 368.128 287.478C367.384 287.058 366.802 286.488 366.382 285.768C365.962 285.036 365.752 284.202 365.752 283.266C365.752 282.33 365.95 281.502 366.346 280.782C366.754 280.062 367.306 279.498 368.002 279.09C368.71 278.67 369.502 278.46 370.378 278.46C371.266 278.46 372.052 278.664 372.736 279.072C373.432 279.468 373.978 280.032 374.374 280.764C374.77 281.484 374.968 282.318 374.968 283.266C374.968 283.326 374.962 283.392 374.95 283.464C374.95 283.524 374.95 283.59 374.95 283.662H366.724V282.708H374.266L373.762 283.086C373.762 282.402 373.612 281.796 373.312 281.268C373.024 280.728 372.628 280.308 372.124 280.008C371.62 279.708 371.038 279.558 370.378 279.558C369.73 279.558 369.148 279.708 368.632 280.008C368.116 280.308 367.714 280.728 367.426 281.268C367.138 281.808 366.994 282.426 366.994 283.122V283.32C366.994 284.04 367.15 284.676 367.462 285.228C367.786 285.768 368.23 286.194 368.794 286.506C369.37 286.806 370.024 286.956 370.756 286.956C371.332 286.956 371.866 286.854 372.358 286.65C372.862 286.446 373.294 286.134 373.654 285.714L374.374 286.542C373.954 287.046 373.426 287.43 372.79 287.694C372.166 287.958 371.476 288.09 370.72 288.09ZM381.583 288.09C380.599 288.09 379.735 287.886 378.991 287.478C378.247 287.058 377.665 286.488 377.245 285.768C376.825 285.036 376.615 284.202 376.615 283.266C376.615 282.33 376.813 281.502 377.209 280.782C377.617 280.062 378.169 279.498 378.865 279.09C379.573 278.67 380.365 278.46 381.241 278.46C382.129 278.46 382.915 278.664 383.599 279.072C384.295 279.468 384.841 280.032 385.237 280.764C385.633 281.484 385.831 282.318 385.831 283.266C385.831 283.326 385.825 283.392 385.813 283.464C385.813 283.524 385.813 283.59 385.813 283.662H377.587V282.708H385.129L384.625 283.086C384.625 282.402 384.475 281.796 384.175 281.268C383.887 280.728 383.491 280.308 382.987 280.008C382.483 279.708 381.901 279.558 381.241 279.558C380.593 279.558 380.011 279.708 379.495 280.008C378.979 280.308 378.577 280.728 378.289 281.268C378.001 281.808 377.857 282.426 377.857 283.122V283.32C377.857 284.04 378.013 284.676 378.325 285.228C378.649 285.768 379.093 286.194 379.657 286.506C380.233 286.806 380.887 286.956 381.619 286.956C382.195 286.956 382.729 286.854 383.221 286.65C383.725 286.446 384.157 286.134 384.517 285.714L385.237 286.542C384.817 287.046 384.289 287.43 383.653 287.694C383.029 287.958 382.339 288.09 381.583 288.09ZM390.97 288.09C390.19 288.09 389.452 287.982 388.756 287.766C388.06 287.538 387.514 287.256 387.118 286.92L387.694 285.912C388.078 286.2 388.57 286.452 389.17 286.668C389.77 286.872 390.4 286.974 391.06 286.974C391.96 286.974 392.608 286.836 393.004 286.56C393.4 286.272 393.598 285.894 393.598 285.426C393.598 285.078 393.484 284.808 393.256 284.616C393.04 284.412 392.752 284.262 392.392 284.166C392.032 284.058 391.63 283.968 391.186 283.896C390.742 283.824 390.298 283.74 389.854 283.644C389.422 283.548 389.026 283.41 388.666 283.23C388.306 283.038 388.012 282.78 387.784 282.456C387.568 282.132 387.46 281.7 387.46 281.16C387.46 280.644 387.604 280.182 387.892 279.774C388.18 279.366 388.6 279.048 389.152 278.82C389.716 278.58 390.4 278.46 391.204 278.46C391.816 278.46 392.428 278.544 393.04 278.712C393.652 278.868 394.156 279.078 394.552 279.342L393.994 280.368C393.574 280.08 393.124 279.876 392.644 279.756C392.164 279.624 391.684 279.558 391.204 279.558C390.352 279.558 389.722 279.708 389.314 280.008C388.918 280.296 388.72 280.668 388.72 281.124C388.72 281.484 388.828 281.766 389.044 281.97C389.272 282.174 389.566 282.336 389.926 282.456C390.298 282.564 390.7 282.654 391.132 282.726C391.576 282.798 392.014 282.888 392.446 282.996C392.89 283.092 393.292 283.23 393.652 283.41C394.024 283.578 394.318 283.824 394.534 284.148C394.762 284.46 394.876 284.874 394.876 285.39C394.876 285.942 394.72 286.422 394.408 286.83C394.108 287.226 393.664 287.538 393.076 287.766C392.5 287.982 391.798 288.09 390.97 288.09ZM397.347 280.422C397.083 280.422 396.855 280.326 396.663 280.134C396.483 279.942 396.393 279.708 396.393 279.432C396.393 279.144 396.483 278.91 396.663 278.73C396.855 278.55 397.083 278.46 397.347 278.46C397.611 278.46 397.833 278.55 398.013 278.73C398.205 278.91 398.301 279.144 398.301 279.432C398.301 279.708 398.205 279.942 398.013 280.134C397.833 280.326 397.611 280.422 397.347 280.422ZM397.347 288.09C397.083 288.09 396.855 287.994 396.663 287.802C396.483 287.61 396.393 287.376 396.393 287.1C396.393 286.812 396.483 286.578 396.663 286.398C396.855 286.218 397.083 286.128 397.347 286.128C397.611 286.128 397.833 286.218 398.013 286.398C398.205 286.578 398.301 286.812 398.301 287.1C398.301 287.376 398.205 287.61 398.013 287.802C397.833 287.994 397.611 288.09 397.347 288.09Z" fill="#776A6A"/>
<path d="M349 312.998H343V318.998H341V312.998H335V310.998H341V304.998H343V310.998H349V312.998Z" fill="black"/>
<g filter="url(#filter2_d_1140_2945)">
<rect x="56.5" y="582.5" width="193" height="47" rx="16.5" stroke="#28B4E1" shape-rendering="crispEdges"/>
</g>
<path d="M135.119 606.2H133.534C133.44 605.744 133.276 605.344 133.042 604.998C132.812 604.653 132.531 604.364 132.198 604.129C131.87 603.891 131.506 603.712 131.105 603.592C130.705 603.473 130.287 603.413 129.852 603.413C129.06 603.413 128.342 603.614 127.698 604.014C127.059 604.415 126.55 605.005 126.17 605.785C125.795 606.565 125.608 607.521 125.608 608.655C125.608 609.788 125.795 610.745 126.17 611.525C126.55 612.305 127.059 612.895 127.698 613.295C128.342 613.696 129.06 613.896 129.852 613.896C130.287 613.896 130.705 613.837 131.105 613.717C131.506 613.598 131.87 613.421 132.198 613.187C132.531 612.948 132.812 612.656 133.042 612.311C133.276 611.962 133.44 611.561 133.534 611.109H135.119C135 611.778 134.783 612.377 134.467 612.905C134.152 613.434 133.76 613.883 133.291 614.254C132.822 614.621 132.296 614.9 131.712 615.092C131.133 615.283 130.513 615.379 129.852 615.379C128.736 615.379 127.743 615.106 126.874 614.561C126.004 614.016 125.32 613.24 124.822 612.234C124.323 611.229 124.074 610.035 124.074 608.655C124.074 607.274 124.323 606.081 124.822 605.075C125.32 604.07 126.004 603.294 126.874 602.748C127.743 602.203 128.736 601.93 129.852 601.93C130.513 601.93 131.133 602.026 131.712 602.218C132.296 602.41 132.822 602.691 133.291 603.062C133.76 603.428 134.152 603.876 134.467 604.404C134.783 604.928 135 605.527 135.119 606.2ZM140.366 615.43C139.743 615.43 139.179 615.313 138.672 615.079C138.165 614.84 137.762 614.497 137.464 614.05C137.165 613.598 137.016 613.052 137.016 612.413C137.016 611.851 137.127 611.395 137.349 611.045C137.57 610.692 137.866 610.415 138.237 610.214C138.608 610.014 139.017 609.865 139.464 609.767C139.916 609.665 140.37 609.584 140.826 609.524C141.422 609.447 141.906 609.39 142.277 609.351C142.652 609.309 142.925 609.239 143.095 609.141C143.27 609.043 143.357 608.872 143.357 608.629V608.578C143.357 607.947 143.184 607.457 142.839 607.108C142.498 606.758 141.981 606.584 141.286 606.584C140.566 606.584 140.001 606.741 139.592 607.057C139.183 607.372 138.895 607.709 138.729 608.067L137.297 607.555C137.553 606.959 137.894 606.494 138.32 606.162C138.751 605.825 139.219 605.591 139.726 605.459C140.238 605.322 140.741 605.254 141.235 605.254C141.55 605.254 141.912 605.293 142.322 605.369C142.735 605.442 143.133 605.593 143.517 605.823C143.905 606.053 144.226 606.4 144.482 606.865C144.738 607.329 144.866 607.952 144.866 608.731V615.2H143.357V613.871H143.28C143.178 614.084 143.008 614.312 142.769 614.555C142.53 614.797 142.213 615.004 141.817 615.175C141.42 615.345 140.937 615.43 140.366 615.43ZM140.596 614.075C141.192 614.075 141.695 613.958 142.104 613.724C142.518 613.489 142.829 613.187 143.037 612.816C143.251 612.445 143.357 612.055 143.357 611.646V610.266C143.293 610.342 143.153 610.413 142.935 610.476C142.722 610.536 142.475 610.589 142.194 610.636C141.917 610.679 141.646 610.717 141.382 610.751C141.122 610.781 140.911 610.807 140.749 610.828C140.357 610.879 139.991 610.962 139.65 611.077C139.313 611.188 139.04 611.356 138.831 611.582C138.627 611.804 138.525 612.106 138.525 612.49C138.525 613.014 138.719 613.41 139.106 613.679C139.498 613.943 139.995 614.075 140.596 614.075ZM149.127 609.294V615.2H147.619V605.382H149.076V606.916H149.204C149.434 606.418 149.784 606.017 150.252 605.714C150.721 605.408 151.326 605.254 152.068 605.254C152.733 605.254 153.314 605.391 153.813 605.663C154.311 605.932 154.699 606.341 154.976 606.891C155.253 607.436 155.392 608.126 155.392 608.962V615.2H153.883V609.064C153.883 608.293 153.683 607.692 153.282 607.261C152.882 606.827 152.332 606.609 151.633 606.609C151.152 606.609 150.721 606.714 150.342 606.922C149.967 607.131 149.671 607.436 149.453 607.837C149.236 608.237 149.127 608.723 149.127 609.294ZM162.137 615.405C161.216 615.405 160.424 615.187 159.759 614.753C159.094 614.318 158.583 613.719 158.225 612.957C157.867 612.194 157.688 611.322 157.688 610.342C157.688 609.345 157.871 608.465 158.238 607.702C158.608 606.935 159.124 606.337 159.785 605.906C160.449 605.472 161.225 605.254 162.111 605.254C162.802 605.254 163.424 605.382 163.978 605.638C164.532 605.893 164.986 606.251 165.339 606.712C165.693 607.172 165.912 607.709 165.998 608.322H164.489C164.374 607.875 164.118 607.479 163.722 607.133C163.33 606.784 162.802 606.609 162.137 606.609C161.549 606.609 161.033 606.763 160.59 607.07C160.151 607.372 159.808 607.8 159.561 608.354C159.318 608.904 159.197 609.55 159.197 610.291C159.197 611.05 159.316 611.71 159.555 612.273C159.797 612.835 160.138 613.272 160.577 613.583C161.02 613.894 161.54 614.05 162.137 614.05C162.529 614.05 162.885 613.981 163.204 613.845C163.524 613.709 163.795 613.513 164.016 613.257C164.238 613.001 164.395 612.695 164.489 612.337H165.998C165.912 612.916 165.702 613.438 165.365 613.903C165.032 614.363 164.591 614.729 164.042 615.002C163.496 615.271 162.861 615.405 162.137 615.405ZM172.319 615.405C171.373 615.405 170.557 615.196 169.871 614.778C169.189 614.356 168.663 613.768 168.292 613.014C167.926 612.256 167.743 611.373 167.743 610.368C167.743 609.362 167.926 608.476 168.292 607.709C168.663 606.937 169.179 606.337 169.839 605.906C170.504 605.472 171.28 605.254 172.166 605.254C172.677 605.254 173.182 605.339 173.681 605.51C174.18 605.68 174.633 605.957 175.042 606.341C175.452 606.72 175.778 607.223 176.02 607.849C176.263 608.476 176.385 609.247 176.385 610.163V610.802H168.817V609.498H174.851C174.851 608.945 174.74 608.45 174.518 608.016C174.301 607.581 173.99 607.238 173.585 606.986C173.184 606.735 172.711 606.609 172.166 606.609C171.565 606.609 171.045 606.758 170.606 607.057C170.172 607.351 169.837 607.734 169.603 608.207C169.368 608.68 169.251 609.187 169.251 609.729V610.598C169.251 611.339 169.379 611.968 169.635 612.484C169.895 612.995 170.255 613.385 170.715 613.653C171.175 613.918 171.71 614.05 172.319 614.05C172.716 614.05 173.074 613.994 173.393 613.883C173.717 613.768 173.996 613.598 174.231 613.372C174.465 613.142 174.646 612.856 174.774 612.516L176.231 612.925C176.078 613.419 175.82 613.854 175.458 614.229C175.096 614.599 174.648 614.889 174.116 615.098C173.583 615.302 172.984 615.405 172.319 615.405ZM180.188 602.109V615.2H178.68V602.109H180.188Z" fill="#28B4E1"/>
<rect x="274" y="582" width="194" height="48" rx="17" fill="#28B4E1"/>
<path d="M354.119 606.2H352.534C352.44 605.744 352.276 605.344 352.042 604.998C351.812 604.653 351.531 604.364 351.198 604.129C350.87 603.891 350.506 603.712 350.105 603.592C349.705 603.473 349.287 603.413 348.852 603.413C348.06 603.413 347.342 603.614 346.698 604.014C346.059 604.415 345.55 605.005 345.17 605.785C344.795 606.565 344.608 607.521 344.608 608.655C344.608 609.788 344.795 610.745 345.17 611.525C345.55 612.305 346.059 612.895 346.698 613.295C347.342 613.696 348.06 613.896 348.852 613.896C349.287 613.896 349.705 613.837 350.105 613.717C350.506 613.598 350.87 613.421 351.198 613.187C351.531 612.948 351.812 612.656 352.042 612.311C352.276 611.962 352.44 611.561 352.534 611.109H354.119C354 611.778 353.783 612.377 353.467 612.905C353.152 613.434 352.76 613.883 352.291 614.254C351.822 614.621 351.296 614.9 350.712 615.092C350.133 615.283 349.513 615.379 348.852 615.379C347.736 615.379 346.743 615.106 345.874 614.561C345.004 614.016 344.32 613.24 343.822 612.234C343.323 611.229 343.074 610.035 343.074 608.655C343.074 607.274 343.323 606.081 343.822 605.075C344.32 604.07 345.004 603.294 345.874 602.748C346.743 602.203 347.736 601.93 348.852 601.93C349.513 601.93 350.133 602.026 350.712 602.218C351.296 602.41 351.822 602.691 352.291 603.062C352.76 603.428 353.152 603.876 353.467 604.404C353.783 604.928 354 605.527 354.119 606.2ZM356.476 615.2V605.382H357.934V606.865H358.036C358.215 606.379 358.539 605.985 359.008 605.682C359.476 605.38 360.005 605.229 360.593 605.229C360.704 605.229 360.842 605.231 361.008 605.235C361.175 605.239 361.3 605.246 361.385 605.254V606.788C361.334 606.775 361.217 606.756 361.034 606.731C360.855 606.701 360.665 606.686 360.465 606.686C359.988 606.686 359.562 606.786 359.187 606.986C358.816 607.182 358.522 607.455 358.305 607.805C358.091 608.15 357.985 608.544 357.985 608.987V615.2H356.476ZM366.991 615.405C366.045 615.405 365.229 615.196 364.543 614.778C363.861 614.356 363.335 613.768 362.964 613.014C362.598 612.256 362.415 611.373 362.415 610.368C362.415 609.362 362.598 608.476 362.964 607.709C363.335 606.937 363.851 606.337 364.511 605.906C365.176 605.472 365.952 605.254 366.838 605.254C367.349 605.254 367.854 605.339 368.353 605.51C368.851 605.68 369.305 605.957 369.714 606.341C370.123 606.72 370.449 607.223 370.692 607.849C370.935 608.476 371.057 609.247 371.057 610.163V610.802H363.488V609.498H369.523C369.523 608.945 369.412 608.45 369.19 608.016C368.973 607.581 368.662 607.238 368.257 606.986C367.856 606.735 367.383 606.609 366.838 606.609C366.237 606.609 365.717 606.758 365.278 607.057C364.844 607.351 364.509 607.734 364.275 608.207C364.04 608.68 363.923 609.187 363.923 609.729V610.598C363.923 611.339 364.051 611.968 364.307 612.484C364.567 612.995 364.927 613.385 365.387 613.653C365.847 613.918 366.382 614.05 366.991 614.05C367.388 614.05 367.746 613.994 368.065 613.883C368.389 613.768 368.668 613.598 368.903 613.372C369.137 613.142 369.318 612.856 369.446 612.516L370.903 612.925C370.75 613.419 370.492 613.854 370.13 614.229C369.768 614.599 369.32 614.889 368.787 615.098C368.255 615.302 367.656 615.405 366.991 615.405ZM376.241 615.43C375.618 615.43 375.054 615.313 374.547 615.079C374.04 614.84 373.637 614.497 373.339 614.05C373.04 613.598 372.891 613.052 372.891 612.413C372.891 611.851 373.002 611.395 373.224 611.045C373.445 610.692 373.741 610.415 374.112 610.214C374.483 610.014 374.892 609.865 375.339 609.767C375.791 609.665 376.245 609.584 376.701 609.524C377.297 609.447 377.781 609.39 378.152 609.351C378.527 609.309 378.8 609.239 378.97 609.141C379.145 609.043 379.232 608.872 379.232 608.629V608.578C379.232 607.947 379.059 607.457 378.714 607.108C378.373 606.758 377.856 606.584 377.161 606.584C376.441 606.584 375.876 606.741 375.467 607.057C375.058 607.372 374.77 607.709 374.604 608.067L373.172 607.555C373.428 606.959 373.769 606.494 374.195 606.162C374.626 605.825 375.094 605.591 375.601 605.459C376.113 605.322 376.616 605.254 377.11 605.254C377.425 605.254 377.787 605.293 378.197 605.369C378.61 605.442 379.008 605.593 379.392 605.823C379.78 606.053 380.101 606.4 380.357 606.865C380.613 607.329 380.741 607.952 380.741 608.731V615.2H379.232V613.871H379.155C379.053 614.084 378.883 614.312 378.644 614.555C378.405 614.797 378.088 615.004 377.692 615.175C377.295 615.345 376.812 615.43 376.241 615.43ZM376.471 614.075C377.067 614.075 377.57 613.958 377.979 613.724C378.393 613.489 378.704 613.187 378.912 612.816C379.126 612.445 379.232 612.055 379.232 611.646V610.266C379.168 610.342 379.028 610.413 378.81 610.476C378.597 610.536 378.35 610.589 378.069 610.636C377.792 610.679 377.521 610.717 377.257 610.751C376.997 610.781 376.786 610.807 376.624 610.828C376.232 610.879 375.866 610.962 375.525 611.077C375.188 611.188 374.915 611.356 374.706 611.582C374.502 611.804 374.4 612.106 374.4 612.49C374.4 613.014 374.594 613.41 374.981 613.679C375.373 613.943 375.87 614.075 376.471 614.075ZM387.764 605.382V606.66H382.676V605.382H387.764ZM384.159 603.03H385.667V612.388C385.667 612.814 385.729 613.133 385.853 613.347C385.98 613.555 386.142 613.696 386.338 613.768C386.539 613.837 386.75 613.871 386.971 613.871C387.137 613.871 387.274 613.862 387.38 613.845C387.487 613.824 387.572 613.807 387.636 613.794L387.943 615.149C387.841 615.187 387.698 615.226 387.515 615.264C387.331 615.307 387.099 615.328 386.818 615.328C386.392 615.328 385.974 615.236 385.565 615.053C385.16 614.87 384.824 614.591 384.555 614.216C384.291 613.841 384.159 613.368 384.159 612.797V603.03ZM394.044 615.405C393.098 615.405 392.282 615.196 391.596 614.778C390.914 614.356 390.388 613.768 390.017 613.014C389.651 612.256 389.467 611.373 389.467 610.368C389.467 609.362 389.651 608.476 390.017 607.709C390.388 606.937 390.903 606.337 391.564 605.906C392.229 605.472 393.004 605.254 393.891 605.254C394.402 605.254 394.907 605.339 395.406 605.51C395.904 605.68 396.358 605.957 396.767 606.341C397.176 606.72 397.502 607.223 397.745 607.849C397.988 608.476 398.109 609.247 398.109 610.163V610.802H390.541V609.498H396.575C396.575 608.945 396.464 608.45 396.243 608.016C396.026 607.581 395.714 607.238 395.31 606.986C394.909 606.735 394.436 606.609 393.891 606.609C393.29 606.609 392.77 606.758 392.331 607.057C391.896 607.351 391.562 607.734 391.327 608.207C391.093 608.68 390.976 609.187 390.976 609.729V610.598C390.976 611.339 391.104 611.968 391.359 612.484C391.619 612.995 391.979 613.385 392.44 613.653C392.9 613.918 393.435 614.05 394.044 614.05C394.44 614.05 394.798 613.994 395.118 613.883C395.442 613.768 395.721 613.598 395.955 613.372C396.19 613.142 396.371 612.856 396.499 612.516L397.956 612.925C397.803 613.419 397.545 613.854 397.183 614.229C396.82 614.599 396.373 614.889 395.84 615.098C395.308 615.302 394.709 615.405 394.044 615.405Z" fill="white"/>
<rect x="35.5" y="408.5" width="454" height="100" rx="15.5" stroke="#28B4E1" stroke-width="3"/>
<rect width="524" height="70" fill="url(#paint1_linear_1140_2945)"/>
<path d="M42.2159 44.24C40.2293 44.24 38.6759 43.6867 37.5559 42.58C36.4359 41.4733 35.8759 39.8933 35.8759 37.84V30H39.1159V37.72C39.1159 39.0533 39.3893 40.0133 39.9359 40.6C40.4826 41.1867 41.2493 41.48 42.2359 41.48C43.2226 41.48 43.9893 41.1867 44.5359 40.6C45.0826 40.0133 45.3559 39.0533 45.3559 37.72V30H48.5559V37.84C48.5559 39.8933 47.9959 41.4733 46.8759 42.58C45.7559 43.6867 44.2026 44.24 42.2159 44.24ZM57.8977 44.16C56.991 44.16 56.1977 43.96 55.5177 43.56C54.8377 43.16 54.3043 42.5533 53.9177 41.74C53.5443 40.9133 53.3577 39.8733 53.3577 38.62C53.3577 37.3533 53.5377 36.3133 53.8977 35.5C54.2577 34.6867 54.7777 34.08 55.4577 33.68C56.1377 33.28 56.951 33.08 57.8977 33.08C58.911 33.08 59.8177 33.3133 60.6177 33.78C61.431 34.2333 62.071 34.8733 62.5377 35.7C63.0177 36.5267 63.2577 37.5 63.2577 38.62C63.2577 39.7533 63.0177 40.7333 62.5377 41.56C62.071 42.3867 61.431 43.0267 60.6177 43.48C59.8177 43.9333 58.911 44.16 57.8977 44.16ZM51.5377 47.88V33.24H54.5177V35.44L54.4577 38.64L54.6577 41.82V47.88H51.5377ZM57.3577 41.6C57.8777 41.6 58.3377 41.48 58.7377 41.24C59.151 41 59.4777 40.66 59.7177 40.22C59.971 39.7667 60.0977 39.2333 60.0977 38.62C60.0977 37.9933 59.971 37.46 59.7177 37.02C59.4777 36.58 59.151 36.24 58.7377 36C58.3377 35.76 57.8777 35.64 57.3577 35.64C56.8377 35.64 56.371 35.76 55.9577 36C55.5443 36.24 55.2177 36.58 54.9777 37.02C54.7377 37.46 54.6177 37.9933 54.6177 38.62C54.6177 39.2333 54.7377 39.7667 54.9777 40.22C55.2177 40.66 55.5443 41 55.9577 41.24C56.371 41.48 56.8377 41.6 57.3577 41.6ZM69.9663 44.16C68.9529 44.16 68.0396 43.9333 67.2263 43.48C66.4129 43.0133 65.7663 42.3667 65.2863 41.54C64.8196 40.7133 64.5863 39.74 64.5863 38.62C64.5863 37.4867 64.8196 36.5067 65.2863 35.68C65.7663 34.8533 66.4129 34.2133 67.2263 33.76C68.0396 33.3067 68.9529 33.08 69.9663 33.08C70.8729 33.08 71.6663 33.28 72.3463 33.68C73.0263 34.08 73.5529 34.6867 73.9263 35.5C74.2996 36.3133 74.4863 37.3533 74.4863 38.62C74.4863 39.8733 74.3063 40.9133 73.9463 41.74C73.5863 42.5533 73.0663 43.16 72.3863 43.56C71.7196 43.96 70.9129 44.16 69.9663 44.16ZM70.5063 41.6C71.0129 41.6 71.4729 41.48 71.8863 41.24C72.2996 41 72.6263 40.66 72.8663 40.22C73.1196 39.7667 73.2463 39.2333 73.2463 38.62C73.2463 37.9933 73.1196 37.46 72.8663 37.02C72.6263 36.58 72.2996 36.24 71.8863 36C71.4729 35.76 71.0129 35.64 70.5063 35.64C69.9863 35.64 69.5196 35.76 69.1063 36C68.6929 36.24 68.3596 36.58 68.1063 37.02C67.8663 37.46 67.7463 37.9933 67.7463 38.62C67.7463 39.2333 67.8663 39.7667 68.1063 40.22C68.3596 40.66 68.6929 41 69.1063 41.24C69.5196 41.48 69.9863 41.6 70.5063 41.6ZM73.3263 44V41.8L73.3863 38.6L73.1863 35.42V29.16H76.3063V44H73.3263ZM85.7939 44V41.9L85.5939 41.44V37.68C85.5939 37.0133 85.3872 36.4933 84.9739 36.12C84.5739 35.7467 83.9539 35.56 83.1139 35.56C82.5406 35.56 81.9739 35.6533 81.4139 35.84C80.8672 36.0133 80.4006 36.2533 80.0139 36.56L78.8939 34.38C79.4806 33.9667 80.1872 33.6467 81.0139 33.42C81.8406 33.1933 82.6806 33.08 83.5339 33.08C85.1739 33.08 86.4472 33.4667 87.3539 34.24C88.2606 35.0133 88.7139 36.22 88.7139 37.86V44H85.7939ZM82.5139 44.16C81.6739 44.16 80.9539 44.02 80.3539 43.74C79.7539 43.4467 79.2939 43.0533 78.9739 42.56C78.6539 42.0667 78.4939 41.5133 78.4939 40.9C78.4939 40.26 78.6472 39.7 78.9539 39.22C79.2739 38.74 79.7739 38.3667 80.4539 38.1C81.1339 37.82 82.0206 37.68 83.1139 37.68H85.9739V39.5H83.4539C82.7206 39.5 82.2139 39.62 81.9339 39.86C81.6672 40.1 81.5339 40.4 81.5339 40.76C81.5339 41.16 81.6872 41.48 81.9939 41.72C82.3139 41.9467 82.7472 42.06 83.2939 42.06C83.8139 42.06 84.2806 41.94 84.6939 41.7C85.1072 41.4467 85.4072 41.08 85.5939 40.6L86.0739 42.04C85.8472 42.7333 85.4339 43.26 84.8339 43.62C84.2339 43.98 83.4606 44.16 82.5139 44.16ZM95.9377 44.16C94.671 44.16 93.6843 43.84 92.9777 43.2C92.271 42.5467 91.9177 41.58 91.9177 40.3V30.86H95.0377V40.26C95.0377 40.7133 95.1577 41.0667 95.3977 41.32C95.6377 41.56 95.9643 41.68 96.3777 41.68C96.871 41.68 97.291 41.5467 97.6377 41.28L98.4777 43.48C98.1577 43.7067 97.771 43.88 97.3177 44C96.8777 44.1067 96.4177 44.16 95.9377 44.16ZM90.2577 35.88V33.48H97.7177V35.88H90.2577ZM105.237 44.16C104.01 44.16 102.93 43.92 101.997 43.44C101.077 42.96 100.364 42.3067 99.857 41.48C99.3504 40.64 99.097 39.6867 99.097 38.62C99.097 37.54 99.3437 36.5867 99.837 35.76C100.344 34.92 101.03 34.2667 101.897 33.8C102.764 33.32 103.744 33.08 104.837 33.08C105.89 33.08 106.837 33.3067 107.677 33.76C108.53 34.2 109.204 34.84 109.697 35.68C110.19 36.5067 110.437 37.5 110.437 38.66C110.437 38.78 110.43 38.92 110.417 39.08C110.404 39.2267 110.39 39.3667 110.377 39.5H101.637V37.68H108.737L107.537 38.22C107.537 37.66 107.424 37.1733 107.197 36.76C106.97 36.3467 106.657 36.0267 106.257 35.8C105.857 35.56 105.39 35.44 104.857 35.44C104.324 35.44 103.85 35.56 103.437 35.8C103.037 36.0267 102.724 36.3533 102.497 36.78C102.27 37.1933 102.157 37.6867 102.157 38.26V38.74C102.157 39.3267 102.284 39.8467 102.537 40.3C102.804 40.74 103.17 41.08 103.637 41.32C104.117 41.5467 104.677 41.66 105.317 41.66C105.89 41.66 106.39 41.5733 106.817 41.4C107.257 41.2267 107.657 40.9667 108.017 40.62L109.677 42.42C109.184 42.98 108.564 43.4133 107.817 43.72C107.07 44.0133 106.21 44.16 105.237 44.16ZM122.578 44.16C121.312 44.16 120.325 43.84 119.618 43.2C118.912 42.5467 118.558 41.58 118.558 40.3V30.86H121.678V40.26C121.678 40.7133 121.798 41.0667 122.038 41.32C122.278 41.56 122.605 41.68 123.018 41.68C123.512 41.68 123.932 41.5467 124.278 41.28L125.118 43.48C124.798 43.7067 124.412 43.88 123.958 44C123.518 44.1067 123.058 44.16 122.578 44.16ZM116.898 35.88V33.48H124.358V35.88H116.898ZM133.47 44V41.9L133.27 41.44V37.68C133.27 37.0133 133.063 36.4933 132.65 36.12C132.25 35.7467 131.63 35.56 130.79 35.56C130.216 35.56 129.65 35.6533 129.09 35.84C128.543 36.0133 128.076 36.2533 127.69 36.56L126.57 34.38C127.156 33.9667 127.863 33.6467 128.69 33.42C129.516 33.1933 130.356 33.08 131.21 33.08C132.85 33.08 134.123 33.4667 135.03 34.24C135.936 35.0133 136.39 36.22 136.39 37.86V44H133.47ZM130.19 44.16C129.35 44.16 128.63 44.02 128.03 43.74C127.43 43.4467 126.97 43.0533 126.65 42.56C126.33 42.0667 126.17 41.5133 126.17 40.9C126.17 40.26 126.323 39.7 126.63 39.22C126.95 38.74 127.45 38.3667 128.13 38.1C128.81 37.82 129.696 37.68 130.79 37.68H133.65V39.5H131.13C130.396 39.5 129.89 39.62 129.61 39.86C129.343 40.1 129.21 40.4 129.21 40.76C129.21 41.16 129.363 41.48 129.67 41.72C129.99 41.9467 130.423 42.06 130.97 42.06C131.49 42.06 131.956 41.94 132.37 41.7C132.783 41.4467 133.083 41.08 133.27 40.6L133.75 42.04C133.523 42.7333 133.11 43.26 132.51 43.62C131.91 43.98 131.136 44.16 130.19 44.16ZM142.833 44.16C141.913 44.16 141.027 44.0533 140.173 43.84C139.333 43.6133 138.667 43.3333 138.173 43L139.213 40.76C139.707 41.0667 140.287 41.32 140.953 41.52C141.633 41.7067 142.3 41.8 142.953 41.8C143.673 41.8 144.18 41.7133 144.473 41.54C144.78 41.3667 144.933 41.1267 144.933 40.82C144.933 40.5667 144.813 40.38 144.573 40.26C144.347 40.1267 144.04 40.0267 143.653 39.96C143.267 39.8933 142.84 39.8267 142.373 39.76C141.92 39.6933 141.46 39.6067 140.993 39.5C140.527 39.38 140.1 39.2067 139.713 38.98C139.327 38.7533 139.013 38.4467 138.773 38.06C138.547 37.6733 138.433 37.1733 138.433 36.56C138.433 35.88 138.627 35.28 139.013 34.76C139.413 34.24 139.987 33.8333 140.733 33.54C141.48 33.2333 142.373 33.08 143.413 33.08C144.147 33.08 144.893 33.16 145.653 33.32C146.413 33.48 147.047 33.7133 147.553 34.02L146.513 36.24C145.993 35.9333 145.467 35.7267 144.933 35.62C144.413 35.5 143.907 35.44 143.413 35.44C142.72 35.44 142.213 35.5333 141.893 35.72C141.573 35.9067 141.413 36.1467 141.413 36.44C141.413 36.7067 141.527 36.9067 141.753 37.04C141.993 37.1733 142.307 37.28 142.693 37.36C143.08 37.44 143.5 37.5133 143.953 37.58C144.42 37.6333 144.887 37.72 145.353 37.84C145.82 37.96 146.24 38.1333 146.613 38.36C147 38.5733 147.313 38.8733 147.553 39.26C147.793 39.6333 147.913 40.1267 147.913 40.74C147.913 41.4067 147.713 42 147.313 42.52C146.913 43.0267 146.333 43.4267 145.573 43.72C144.827 44.0133 143.913 44.16 142.833 44.16ZM152.418 41.8L152.498 38L157.518 33.24H161.238L156.418 38.14L154.798 39.46L152.418 41.8ZM149.838 44V29.16H152.958V44H149.838ZM157.858 44L154.218 39.48L156.178 37.06L161.638 44H157.858Z" fill="white"/>
<path d="M507.579 42.5581C507.847 42.8263 507.998 43.1902 507.998 43.5696C507.998 43.9489 507.847 44.3128 507.579 44.581C507.31 44.8493 506.946 45 506.567 45C506.188 45 505.824 44.8493 505.556 44.581L498 37.0235L490.442 44.5787C490.174 44.8469 489.81 44.9976 489.431 44.9976C489.051 44.9976 488.687 44.8469 488.419 44.5787C488.151 44.3104 488 43.9466 488 43.5672C488 43.1878 488.151 42.824 488.419 42.5557L495.977 35.0006L488.421 27.4431C488.153 27.1748 488.002 26.811 488.002 26.4316C488.002 26.0523 488.153 25.6884 488.421 25.4202C488.69 25.1519 489.054 25.0012 489.433 25.0012C489.812 25.0012 490.176 25.1519 490.444 25.4202L498 32.9776L505.558 25.419C505.826 25.1507 506.19 25 506.569 25C506.949 25 507.313 25.1507 507.581 25.419C507.849 25.6872 508 26.0511 508 26.4304C508 26.8098 507.849 27.1737 507.581 27.4419L500.023 35.0006L507.579 42.5581Z" fill="white"/>
<defs>
<filter id="filter0_d_1140_2945" x="311" y="124" width="202" height="38" filterUnits="userSpaceOnUse" color-interpolation-filters="sRGB">
<feFlood flood-opacity="0" result="BackgroundImageFix"/>
<feColorMatrix in="SourceAlpha" type="matrix" values="0 0 0 0 0 0 0 0 0 0 0 0 0 0 0 0 0 0 127 0" result="hardAlpha"/>
<feOffset dx="1" dy="2"/>
<feGaussianBlur stdDeviation="2"/>
<feComposite in2="hardAlpha" operator="out"/>
<feColorMatrix type="matrix" values="0 0 0 0 0 0 0 0 0 0 0 0 0 0 0 0 0 0 0.25 0"/>
<feBlend mode="normal" in2="BackgroundImageFix" result="effect1_dropShadow_1140_2945"/>
<feBlend mode="normal" in="SourceGraphic" in2="effect1_dropShadow_1140_2945" result="shape"/>
</filter>
<filter id="filter1_d_1140_2945" x="13" y="206" width="202" height="38" filterUnits="userSpaceOnUse" color-interpolation-filters="sRGB">
<feFlood flood-opacity="0" result="BackgroundImageFix"/>
<feColorMatrix in="SourceAlpha" type="matrix" values="0 0 0 0 0 0 0 0 0 0 0 0 0 0 0 0 0 0 127 0" result="hardAlpha"/>
<feOffset dx="1" dy="2"/>
<feGaussianBlur stdDeviation="2"/>
<feComposite in2="hardAlpha" operator="out"/>
<feColorMatrix type="matrix" values="0 0 0 0 0 0 0 0 0 0 0 0 0 0 0 0 0 0 0.25 0"/>
<feBlend mode="normal" in2="BackgroundImageFix" result="effect1_dropShadow_1140_2945"/>
<feBlend mode="normal" in="SourceGraphic" in2="effect1_dropShadow_1140_2945" result="shape"/>
</filter>
<filter id="filter2_d_1140_2945" x="56" y="582" width="194" height="49" filterUnits="userSpaceOnUse" color-interpolation-filters="sRGB">
<feFlood flood-opacity="0" result="BackgroundImageFix"/>
<feColorMatrix in="SourceAlpha" type="matrix" values="0 0 0 0 0 0 0 0 0 0 0 0 0 0 0 0 0 0 127 0" result="hardAlpha"/>
<feOffset dy="1"/>
<feComposite in2="hardAlpha" operator="out"/>
<feColorMatrix type="matrix" values="0 0 0 0 0 0 0 0 0 0 0 0 0 0 0 0 0 0 0.25 0"/>
<feBlend mode="normal" in2="BackgroundImageFix" result="effect1_dropShadow_1140_2945"/>
<feBlend mode="normal" in="SourceGraphic" in2="effect1_dropShadow_1140_2945" result="shape"/>
</filter>
<linearGradient id="paint0_linear_1140_2945" x1="16" y1="156.5" x2="210" y2="156.5" gradientUnits="userSpaceOnUse">
<stop stop-color="#7EBCEC"/>
<stop offset="1" stop-color="#3F88C0"/>
</linearGradient>
<linearGradient id="paint1_linear_1140_2945" x1="0" y1="35" x2="524" y2="35" gradientUnits="userSpaceOnUse">
<stop stop-color="#28B4E1"/>
<stop offset="1" stop-color="#B8E9F9"/>
</linearGradient>
<clipPath id="clip0_1140_2945">
<rect width="38.6116" height="25.102" fill="white" transform="translate(469.389 129.061)"/>
</clipPath>
<clipPath id="clip1_1140_2945">
<rect width="18.4762" height="14.6939" fill="white" transform="translate(178.437 215.959)"/>
</clipPath>
</defs>
</svg>
