<svg width="68" height="65" viewBox="0 0 68 65" fill="none" xmlns="http://www.w3.org/2000/svg">
<g clip-path="url(#clip0_64_131)">
<path d="M46.2229 38.2251C39.6979 38.2251 37.106 30.6561 34.5993 23.3372C32.2249 16.399 29.7654 9.2251 24.4729 9.2251C23.2369 9.29791 22.0505 9.73706 21.065 10.4866C20.0796 11.2361 19.3395 12.2621 18.9393 13.4337L15.501 12.2773C15.5934 12.0055 17.8047 5.6001 24.4729 5.6001C32.3572 5.6001 35.3696 14.3998 38.0303 22.1627C40.2217 28.559 42.2897 34.6001 46.2229 34.6001C47.4586 34.5274 48.6448 34.0885 49.6303 33.3394C50.6157 32.5902 51.3559 31.5646 51.7564 30.3933L55.1929 31.5478C55.1023 31.8197 52.891 38.2251 46.2229 38.2251Z" fill="#F8F8F8"/>
<path d="M11.7852 45.4751V25.5376H15.4102V21.9126H11.7852V-1.6499H8.16016V45.4751C8.16016 46.4365 8.54207 47.3585 9.22189 48.0384C9.90171 48.7182 10.8237 49.1001 11.7852 49.1001H58.9102V45.4751H11.7852Z" fill="#F8F8F8"/>
<path d="M19.0352 21.9126H22.6602V25.5376H19.0352V21.9126ZM26.2852 21.9126H29.9102V25.5376H26.2852V21.9126ZM40.7852 21.9126H44.4102V25.5376H40.7852V21.9126ZM48.0352 21.9126H51.6602V25.5376H48.0352V21.9126ZM55.2852 21.9126H58.9102V25.5376H55.2852V21.9126Z" fill="#F8F8F8"/>
</g>
<defs>
<clipPath id="clip0_64_131">
<rect width="67.5231" height="64.625" fill="white"/>
</clipPath>
</defs>
</svg>
