<svg width="1589" height="1016" viewBox="0 0 1589 1016" fill="none" xmlns="http://www.w3.org/2000/svg">
<rect width="794.903" height="1015.45" fill="#005F73"/>
<path d="M427.674 0H780.903C788.635 0 794.903 6.26799 794.903 14V613.595L778.273 600.847C761.935 588.323 750.12 570.819 744.615 550.983C738.669 529.555 736.602 507.235 738.512 485.079L747.522 380.602C750.733 343.361 726.387 309.313 690.108 300.31L635.611 286.786C600.572 278.091 574.157 249.245 568.572 213.578L562.189 172.814C556.28 135.077 528.167 104.645 491.017 95.7677C469.619 90.6549 452.393 74.8274 445.492 53.9374L427.674 0Z" fill="url(#paint0_linear_502_331)"/>
<path d="M110.2 575.739L120.243 424.196C124.589 358.616 63.7394 307.848 0 323.873V1004.45C0 1010.52 4.92488 1015.45 11 1015.45H493.821L495.958 986.107C497.537 964.443 492.471 942.814 481.436 924.104C465.711 897.441 439.508 878.61 409.223 872.206L405.037 871.321C367.707 863.428 340.999 830.309 340.999 792.154C340.999 762.888 330.905 734.398 312.419 711.709C292.886 687.734 265.259 671.729 234.743 666.711L174.537 656.81C135.42 650.377 107.579 615.295 110.2 575.739Z" fill="url(#paint1_linear_502_331)"/>
<g filter="url(#filter0_d_502_331)">
<ellipse cx="410.633" cy="241.256" rx="99.7905" ry="99.6096" fill="url(#paint2_linear_502_331)"/>
</g>
<g filter="url(#filter1_d_502_331)">
<ellipse cx="224.671" cy="554.399" rx="72.9896" ry="72.8573" fill="url(#paint3_linear_502_331)"/>
</g>
<ellipse cx="26.8009" cy="26.7523" rx="26.8009" ry="26.7523" transform="matrix(-0.999908 -0.0135633 0.0136126 -0.999907 687.333 948.645)" fill="url(#paint4_linear_502_331)"/>
<g clip-path="url(#clip0_502_331)">
<path d="M176.669 88.4365H168.359V133.062H176.669V88.4365Z" fill="white"/>
<path d="M259.013 88.4365H250.703V133.062H259.013V88.4365Z" fill="white"/>
<path d="M283.565 88.4365H275.255V133.062H283.565V88.4365Z" fill="white"/>
<path d="M296.785 88.4365H262.412V96.3115H296.785V88.4365Z" fill="white"/>
<path d="M139.653 88.4365H132.098V133.062H139.653V88.4365Z" fill="white"/>
<path fill-rule="evenodd" clip-rule="evenodd" d="M142.289 120.687H148.34C157.31 120.687 164.582 113.467 164.582 104.562C164.582 95.656 157.31 88.4365 148.34 88.4365H139.275V96.0248H148.792C153.277 96.0248 156.913 99.6345 156.913 104.087V105.036C156.913 109.489 153.277 113.098 148.792 113.098H145.373L142.289 120.687Z" fill="white"/>
<path fill-rule="evenodd" clip-rule="evenodd" d="M220.485 133.062H217.463V100.812H225.396V103.65C227.794 101.645 230.891 100.437 234.272 100.437C241.886 100.437 248.059 106.565 248.059 114.124V133.062H240.067C240.106 132.754 240.127 132.442 240.127 132.124V115.624C240.127 111.585 236.829 108.312 232.761 108.312C228.693 108.312 225.396 111.585 225.396 115.624V132.124C225.396 132.442 225.416 132.754 225.456 133.062H225.396H220.485Z" fill="#FFFAFA"/>
<path fill-rule="evenodd" clip-rule="evenodd" d="M179.821 116.881C179.512 126.139 186.46 133.883 195.341 134.178C199.252 134.308 202.886 132.971 205.754 130.643V133.062H213.686V100.812H205.754V104.125C203.177 102.048 199.969 100.768 196.46 100.652C187.579 100.357 180.13 107.623 179.821 116.881ZM196.689 126.425C200.983 126.425 204.608 123.624 205.754 119.79V114.605C204.608 110.77 200.983 107.969 196.689 107.969C191.474 107.969 187.246 112.1 187.246 117.197C187.246 122.294 191.474 126.425 196.689 126.425Z" fill="white"/>
<path d="M76.951 79.4365H63.7308C62.0619 79.4365 60.709 80.7797 60.709 82.4365V88.0615C60.709 89.7184 62.0619 91.0616 63.7308 91.0616H76.951C78.6199 91.0616 79.9728 89.7184 79.9728 88.0615V82.4365C79.9728 80.7797 78.6199 79.4365 76.951 79.4365Z" fill="#E54C41"/>
<path d="M90.1712 96.6865H79.595C77.9261 96.6865 76.5732 98.0297 76.5732 99.6865V105.312C76.5732 106.968 77.9261 108.312 79.595 108.312H90.1712C91.8401 108.312 93.193 106.968 93.193 105.312V99.6865C93.193 98.0297 91.8401 96.6865 90.1712 96.6865Z" fill="#FFBD00"/>
<path d="M93.9483 131.562H81.1058C79.4369 131.562 78.084 132.905 78.084 134.562V140.187C78.084 141.843 79.4369 143.187 81.1058 143.187H93.9483C95.6172 143.187 96.9701 141.843 96.9701 140.187V134.562C96.9701 132.905 95.6172 131.562 93.9483 131.562Z" fill="#4C88EF"/>
<path d="M69.7743 131.562H63.7308C62.0619 131.562 60.709 132.905 60.709 134.562V140.187C60.709 141.843 62.0619 143.187 63.7308 143.187H69.7743C71.4432 143.187 72.7961 141.843 72.7961 140.187V134.562C72.7961 132.905 71.4432 131.562 69.7743 131.562Z" fill="#4C88EF"/>
<path d="M69.0189 96.6865H63.7308C62.0619 96.6865 60.709 98.0297 60.709 99.6865V105.312C60.709 106.968 62.0619 108.312 63.7308 108.312H69.0189C70.6877 108.312 72.0406 106.968 72.0406 105.312V99.6865C72.0406 98.0297 70.6877 96.6865 69.0189 96.6865Z" fill="#F9BE15"/>
<path d="M91.3046 113.937H85.261C83.5922 113.937 82.2393 115.28 82.2393 116.937V122.562C82.2393 124.218 83.5922 125.562 85.261 125.562H91.3046C92.9735 125.562 94.3263 124.218 94.3263 122.562V116.937C94.3263 115.28 92.9735 113.937 91.3046 113.937Z" fill="#3FA95B"/>
<path d="M107.547 113.937H102.259C100.59 113.937 99.2368 115.28 99.2368 116.937V122.562C99.2368 124.218 100.59 125.562 102.259 125.562H107.547C109.216 125.562 110.568 124.218 110.568 122.562V116.937C110.568 115.28 109.216 113.937 107.547 113.937Z" fill="#3FA95B"/>
<path d="M121.144 131.562H105.28C103.611 131.562 102.258 132.905 102.258 134.562V140.187C102.258 141.843 103.611 143.187 105.28 143.187H121.144C122.813 143.187 124.166 141.843 124.166 140.187V134.562C124.166 132.905 122.813 131.562 121.144 131.562Z" fill="#4C88EF"/>
<path d="M74.307 113.937H63.7308C62.0619 113.937 60.709 115.28 60.709 116.937V122.562C60.709 124.218 62.0619 125.562 63.7308 125.562H74.307C75.9758 125.562 77.3287 124.218 77.3287 122.562V116.937C77.3287 115.28 75.9758 113.937 74.307 113.937Z" fill="#3FA95B"/>
</g>
<rect width="794.903" height="1015.45" transform="matrix(-1 0 0 1 1588.9 0)" fill="#005F73"/>
<path d="M1161.23 0H808C800.268 0 794 6.26799 794 14V613.595L810.631 600.847C826.968 588.323 838.783 570.819 844.288 550.983C850.235 529.555 852.302 507.235 850.391 485.079L841.381 380.602C838.17 343.361 862.516 309.313 898.795 300.31L953.292 286.786C988.331 278.091 1014.75 249.245 1020.33 213.578L1026.71 172.814C1032.62 135.077 1060.74 104.645 1097.89 95.7677C1119.28 90.6549 1136.51 74.8274 1143.41 53.9374L1161.23 0Z" fill="url(#paint5_linear_502_331)"/>
<path d="M1478.7 575.739L1468.66 424.196C1464.31 358.616 1525.16 307.848 1588.9 323.873V1004.45C1588.9 1010.52 1583.98 1015.45 1577.9 1015.45H1095.08L1092.94 986.107C1091.37 964.443 1096.43 942.814 1107.47 924.104C1123.19 897.441 1149.4 878.61 1179.68 872.206L1183.87 871.321C1221.2 863.428 1247.9 830.309 1247.9 792.154C1247.9 762.888 1258 734.398 1276.48 711.709C1296.02 687.734 1323.64 671.729 1354.16 666.711L1414.37 656.81C1453.48 650.377 1481.32 615.295 1478.7 575.739Z" fill="url(#paint6_linear_502_331)"/>
<g filter="url(#filter2_d_502_331)">
<ellipse cx="99.7905" cy="99.6096" rx="99.7905" ry="99.6096" transform="matrix(-1 0 0 1 1278.06 141.646)" fill="url(#paint7_linear_502_331)"/>
</g>
<g filter="url(#filter3_d_502_331)">
<ellipse cx="72.9896" cy="72.8573" rx="72.9896" ry="72.8573" transform="matrix(-1 0 0 1 1437.22 481.542)" fill="url(#paint8_linear_502_331)"/>
</g>
<ellipse cx="26.8009" cy="26.7523" rx="26.8009" ry="26.7523" transform="matrix(0.999908 -0.0135633 -0.0136126 -0.999907 901.57 948.645)" fill="url(#paint9_linear_502_331)"/>
<g clip-path="url(#clip1_502_331)">
<path d="M1434.96 88H1426.65V132.625H1434.96V88Z" fill="white"/>
<path d="M1517.3 88H1508.99V132.625H1517.3V88Z" fill="white"/>
<path d="M1541.86 88H1533.55V132.625H1541.86V88Z" fill="white"/>
<path d="M1555.08 88H1520.7V95.875H1555.08V88Z" fill="white"/>
<path d="M1397.94 88H1390.39V132.625H1397.94V88Z" fill="white"/>
<path fill-rule="evenodd" clip-rule="evenodd" d="M1400.58 120.25H1406.63C1415.6 120.25 1422.87 113.031 1422.87 104.125C1422.87 95.2194 1415.6 88 1406.63 88H1397.57V95.5883H1407.08C1411.57 95.5883 1415.2 99.198 1415.2 103.651V104.599C1415.2 109.052 1411.57 112.662 1407.08 112.662H1403.66L1400.58 120.25Z" fill="white"/>
<path fill-rule="evenodd" clip-rule="evenodd" d="M1478.78 132.625H1475.75V100.375H1483.69V103.214C1486.09 101.208 1489.18 100 1492.56 100C1500.18 100 1506.35 106.128 1506.35 113.688V132.625H1498.36C1498.4 132.318 1498.42 132.005 1498.42 131.688V115.188C1498.42 111.149 1495.12 107.875 1491.05 107.875C1486.98 107.875 1483.69 111.149 1483.69 115.188V131.688C1483.69 132.005 1483.71 132.318 1483.75 132.625H1483.69H1478.78Z" fill="#FFFAFA"/>
<path fill-rule="evenodd" clip-rule="evenodd" d="M1438.11 116.445C1437.8 125.703 1444.75 133.447 1453.63 133.742C1457.54 133.871 1461.18 132.534 1464.04 130.206V132.625H1471.98V100.376H1464.04V103.689C1461.47 101.612 1458.26 100.332 1454.75 100.215C1445.87 99.9205 1438.42 107.187 1438.11 116.445ZM1454.98 125.989C1459.27 125.989 1462.9 123.188 1464.04 119.353V114.168C1462.9 110.333 1459.27 107.532 1454.98 107.532C1449.76 107.532 1445.54 111.664 1445.54 116.76C1445.54 121.857 1449.76 125.989 1454.98 125.989Z" fill="white"/>
<path d="M1335.24 79H1322.02C1320.35 79 1319 80.3431 1319 82V87.625C1319 89.2819 1320.35 90.625 1322.02 90.625H1335.24C1336.91 90.625 1338.26 89.2819 1338.26 87.625V82C1338.26 80.3431 1336.91 79 1335.24 79Z" fill="#E54C41"/>
<path d="M1348.46 96.25H1337.89C1336.22 96.25 1334.86 97.5931 1334.86 99.25V104.875C1334.86 106.532 1336.22 107.875 1337.89 107.875H1348.46C1350.13 107.875 1351.48 106.532 1351.48 104.875V99.25C1351.48 97.5931 1350.13 96.25 1348.46 96.25Z" fill="#FFBD00"/>
<path d="M1352.24 131.125H1339.4C1337.73 131.125 1336.38 132.468 1336.38 134.125V139.75C1336.38 141.407 1337.73 142.75 1339.4 142.75H1352.24C1353.91 142.75 1355.26 141.407 1355.26 139.75V134.125C1355.26 132.468 1353.91 131.125 1352.24 131.125Z" fill="#4C88EF"/>
<path d="M1328.07 131.125H1322.02C1320.35 131.125 1319 132.468 1319 134.125V139.75C1319 141.407 1320.35 142.75 1322.02 142.75H1328.07C1329.73 142.75 1331.09 141.407 1331.09 139.75V134.125C1331.09 132.468 1329.73 131.125 1328.07 131.125Z" fill="#4C88EF"/>
<path d="M1327.31 96.25H1322.02C1320.35 96.25 1319 97.5931 1319 99.25V104.875C1319 106.532 1320.35 107.875 1322.02 107.875H1327.31C1328.98 107.875 1330.33 106.532 1330.33 104.875V99.25C1330.33 97.5931 1328.98 96.25 1327.31 96.25Z" fill="#F9BE15"/>
<path d="M1349.6 113.5H1343.55C1341.88 113.5 1340.53 114.843 1340.53 116.5V122.125C1340.53 123.782 1341.88 125.125 1343.55 125.125H1349.6C1351.26 125.125 1352.62 123.782 1352.62 122.125V116.5C1352.62 114.843 1351.26 113.5 1349.6 113.5Z" fill="#3FA95B"/>
<path d="M1365.84 113.5H1360.55C1358.88 113.5 1357.53 114.843 1357.53 116.5V122.125C1357.53 123.782 1358.88 125.125 1360.55 125.125H1365.84C1367.51 125.125 1368.86 123.782 1368.86 122.125V116.5C1368.86 114.843 1367.51 113.5 1365.84 113.5Z" fill="#3FA95B"/>
<path d="M1379.44 131.125H1363.57C1361.9 131.125 1360.55 132.468 1360.55 134.125V139.75C1360.55 141.407 1361.9 142.75 1363.57 142.75H1379.44C1381.1 142.75 1382.46 141.407 1382.46 139.75V134.125C1382.46 132.468 1381.1 131.125 1379.44 131.125Z" fill="#4C88EF"/>
<path d="M1332.6 113.5H1322.02C1320.35 113.5 1319 114.843 1319 116.5V122.125C1319 123.782 1320.35 125.125 1322.02 125.125H1332.6C1334.27 125.125 1335.62 123.782 1335.62 122.125V116.5C1335.62 114.843 1334.27 113.5 1332.6 113.5Z" fill="#3FA95B"/>
</g>
<defs>
<filter id="filter0_d_502_331" x="309.843" y="140.646" width="207.581" height="207.219" filterUnits="userSpaceOnUse" color-interpolation-filters="sRGB">
<feFlood flood-opacity="0" result="BackgroundImageFix"/>
<feColorMatrix in="SourceAlpha" type="matrix" values="0 0 0 0 0 0 0 0 0 0 0 0 0 0 0 0 0 0 127 0" result="hardAlpha"/>
<feOffset dx="3" dy="3"/>
<feGaussianBlur stdDeviation="2"/>
<feComposite in2="hardAlpha" operator="out"/>
<feColorMatrix type="matrix" values="0 0 0 0 0 0 0 0 0 0 0 0 0 0 0 0 0 0 0.25 0"/>
<feBlend mode="normal" in2="BackgroundImageFix" result="effect1_dropShadow_502_331"/>
<feBlend mode="normal" in="SourceGraphic" in2="effect1_dropShadow_502_331" result="shape"/>
</filter>
<filter id="filter1_d_502_331" x="150.682" y="480.542" width="153.979" height="153.715" filterUnits="userSpaceOnUse" color-interpolation-filters="sRGB">
<feFlood flood-opacity="0" result="BackgroundImageFix"/>
<feColorMatrix in="SourceAlpha" type="matrix" values="0 0 0 0 0 0 0 0 0 0 0 0 0 0 0 0 0 0 127 0" result="hardAlpha"/>
<feOffset dx="3" dy="3"/>
<feGaussianBlur stdDeviation="2"/>
<feComposite in2="hardAlpha" operator="out"/>
<feColorMatrix type="matrix" values="0 0 0 0 0 0 0 0 0 0 0 0 0 0 0 0 0 0 0.25 0"/>
<feBlend mode="normal" in2="BackgroundImageFix" result="effect1_dropShadow_502_331"/>
<feBlend mode="normal" in="SourceGraphic" in2="effect1_dropShadow_502_331" result="shape"/>
</filter>
<filter id="filter2_d_502_331" x="1077.48" y="140.646" width="207.581" height="207.219" filterUnits="userSpaceOnUse" color-interpolation-filters="sRGB">
<feFlood flood-opacity="0" result="BackgroundImageFix"/>
<feColorMatrix in="SourceAlpha" type="matrix" values="0 0 0 0 0 0 0 0 0 0 0 0 0 0 0 0 0 0 127 0" result="hardAlpha"/>
<feOffset dx="3" dy="3"/>
<feGaussianBlur stdDeviation="2"/>
<feComposite in2="hardAlpha" operator="out"/>
<feColorMatrix type="matrix" values="0 0 0 0 0 0 0 0 0 0 0 0 0 0 0 0 0 0 0.25 0"/>
<feBlend mode="normal" in2="BackgroundImageFix" result="effect1_dropShadow_502_331"/>
<feBlend mode="normal" in="SourceGraphic" in2="effect1_dropShadow_502_331" result="shape"/>
</filter>
<filter id="filter3_d_502_331" x="1290.24" y="480.542" width="153.979" height="153.715" filterUnits="userSpaceOnUse" color-interpolation-filters="sRGB">
<feFlood flood-opacity="0" result="BackgroundImageFix"/>
<feColorMatrix in="SourceAlpha" type="matrix" values="0 0 0 0 0 0 0 0 0 0 0 0 0 0 0 0 0 0 127 0" result="hardAlpha"/>
<feOffset dx="3" dy="3"/>
<feGaussianBlur stdDeviation="2"/>
<feComposite in2="hardAlpha" operator="out"/>
<feColorMatrix type="matrix" values="0 0 0 0 0 0 0 0 0 0 0 0 0 0 0 0 0 0 0.25 0"/>
<feBlend mode="normal" in2="BackgroundImageFix" result="effect1_dropShadow_502_331"/>
<feBlend mode="normal" in="SourceGraphic" in2="effect1_dropShadow_502_331" result="shape"/>
</filter>
<linearGradient id="paint0_linear_502_331" x1="792.052" y1="0.569217" x2="668.133" y2="320.041" gradientUnits="userSpaceOnUse">
<stop stop-color="#1976D3"/>
<stop offset="1" stop-color="#5FA1C1"/>
</linearGradient>
<linearGradient id="paint1_linear_502_331" x1="314.768" y1="709.79" x2="0.555537" y2="1016.02" gradientUnits="userSpaceOnUse">
<stop stop-color="#B7E9F9"/>
<stop offset="1" stop-color="#176795"/>
</linearGradient>
<linearGradient id="paint2_linear_502_331" x1="310.843" y1="294.191" x2="533.191" y2="241.645" gradientUnits="userSpaceOnUse">
<stop stop-color="#1976D3"/>
<stop offset="1" stop-color="#162121"/>
</linearGradient>
<linearGradient id="paint3_linear_502_331" x1="297.661" y1="554.399" x2="192.751" y2="573.82" gradientUnits="userSpaceOnUse">
<stop stop-color="#81EEF5"/>
<stop offset="1" stop-color="#28B5E1"/>
</linearGradient>
<linearGradient id="paint4_linear_502_331" x1="26.8009" y1="0" x2="26.8009" y2="53.5046" gradientUnits="userSpaceOnUse">
<stop stop-color="#16364F"/>
<stop offset="1" stop-color="#4D97E0"/>
</linearGradient>
<linearGradient id="paint5_linear_502_331" x1="796.851" y1="0.569217" x2="920.771" y2="320.041" gradientUnits="userSpaceOnUse">
<stop stop-color="#1976D3"/>
<stop offset="1" stop-color="#5FA1C1"/>
</linearGradient>
<linearGradient id="paint6_linear_502_331" x1="1274.14" y1="709.79" x2="1588.35" y2="1016.02" gradientUnits="userSpaceOnUse">
<stop stop-color="#B7E9F9"/>
<stop offset="1" stop-color="#176795"/>
</linearGradient>
<linearGradient id="paint7_linear_502_331" x1="1.83042e-06" y1="152.545" x2="222.348" y2="99.9985" gradientUnits="userSpaceOnUse">
<stop stop-color="#1976D3"/>
<stop offset="1" stop-color="#162121"/>
</linearGradient>
<linearGradient id="paint8_linear_502_331" x1="145.979" y1="72.8573" x2="41.0693" y2="92.2781" gradientUnits="userSpaceOnUse">
<stop stop-color="#81EEF5"/>
<stop offset="1" stop-color="#28B5E1"/>
</linearGradient>
<linearGradient id="paint9_linear_502_331" x1="26.8009" y1="0" x2="26.8009" y2="53.5046" gradientUnits="userSpaceOnUse">
<stop stop-color="#16364F"/>
<stop offset="1" stop-color="#4D97E0"/>
</linearGradient>
<clipPath id="clip0_502_331">
<path d="M60.709 94.4365C60.709 86.1523 67.4247 79.4365 75.709 79.4365H281.785C290.069 79.4365 296.785 86.1523 296.785 94.4365V128.187C296.785 136.471 290.069 143.187 281.785 143.187H75.709C67.4247 143.187 60.709 136.471 60.709 128.187V94.4365Z" fill="white"/>
</clipPath>
<clipPath id="clip1_502_331">
<path d="M1319 94C1319 85.7157 1325.72 79 1334 79H1540.08C1548.36 79 1555.08 85.7157 1555.08 94V127.75C1555.08 136.034 1548.36 142.75 1540.08 142.75H1334C1325.72 142.75 1319 136.034 1319 127.75V94Z" fill="white"/>
</clipPath>
</defs>
</svg>
