<svg width="41" height="40" viewBox="0 0 41 40" fill="none" xmlns="http://www.w3.org/2000/svg">
<path d="M40.3338 0H0.615039C0.447367 0.0140221 0.29079 0.0962604 0.176724 0.230214C0.0626574 0.364167 -0.000458638 0.539925 3.95877e-05 0.722222V3.11111C-0.00150003 3.35596 0.0418833 3.59871 0.127667 3.82522C0.21345 4.05174 0.339922 4.2575 0.499727 4.43056L15.8747 21.0972V34.9861L25.1638 40V21.0694L40.5388 4.40278C40.8329 4.05884 40.9975 3.60789 41 3.13889V0.722222C41 0.530677 40.9298 0.346977 40.8049 0.211534C40.6799 0.0760913 40.5105 0 40.3338 0Z" fill="url(#paint0_linear_596_289)"/>
<defs>
<linearGradient id="paint0_linear_596_289" x1="20.5" y1="0" x2="20.5" y2="40" gradientUnits="userSpaceOnUse">
<stop stop-color="#CCCCCC"/>
<stop offset="1" stop-color="#666666"/>
</linearGradient>
</defs>
</svg>
