<svg width="45" height="45" viewBox="0 0 45 45" fill="none" xmlns="http://www.w3.org/2000/svg">
<path d="M28.125 8.4375H16.875V11.25H18.2812C18.9564 11.2496 19.6217 11.4113 20.2214 11.7214C20.821 12.0315 21.3375 12.481 21.7274 13.0322C22.1173 13.5833 22.3693 14.2199 22.4621 14.8886C22.555 15.5573 22.486 16.2385 22.2609 16.875H28.125V8.4375ZM30.9375 36.5625V30.9375H35.1562C36.178 30.9374 37.1649 30.5664 37.9338 29.8936C38.7027 29.2208 39.2013 28.2918 39.337 27.2792C39.4727 26.2666 39.2364 25.2391 38.6718 24.3875C38.1072 23.536 37.2528 22.9183 36.2672 22.6491C36.521 22.009 36.6144 21.3166 36.539 20.6322C36.4637 19.9478 36.222 19.2922 35.835 18.7227C35.448 18.1532 34.9276 17.6871 34.319 17.365C33.7104 17.0429 33.0323 16.8747 32.3438 16.875H30.9375V8.4375H35.1562C37.0211 8.4375 38.8095 9.17829 40.1281 10.4969C41.4467 11.8155 42.1875 13.6039 42.1875 15.4688V29.5312C42.1875 31.3961 41.4467 33.1845 40.1281 34.5031C38.8095 35.8217 37.0211 36.5625 35.1562 36.5625H30.9375ZM25.3125 26.7188C25.3125 26.2266 25.3969 25.7512 25.5516 25.3125H21.0938C19.9749 25.3125 18.9018 24.868 18.1106 24.0769C17.3195 23.2857 16.875 22.2126 16.875 21.0938V36.5625H28.125V30.6984C27.3021 30.4075 26.5897 29.8685 26.086 29.1558C25.5823 28.443 25.312 27.5915 25.3125 26.7188ZM14.0625 19.6875H9.84375C9.28974 19.6875 8.74115 19.5784 8.2293 19.3664C7.71746 19.1544 7.25239 18.8436 6.86064 18.4519C6.4689 18.0601 6.15814 17.595 5.94613 17.0832C5.73412 16.5714 5.625 16.0228 5.625 15.4688C5.625 14.9147 5.73412 14.3661 5.94613 13.8543C6.15814 13.3425 6.4689 12.8774 6.86064 12.4856C7.25239 12.0939 7.71746 11.7831 8.2293 11.5711C8.74115 11.3591 9.28974 11.25 9.84375 11.25H14.0625V8.4375H9.84375C7.97895 8.4375 6.19052 9.17829 4.87191 10.4969C3.55329 11.8155 2.8125 13.6039 2.8125 15.4688V29.5312C2.8125 31.3961 3.55329 33.1845 4.87191 34.5031C6.19052 35.8217 7.97895 36.5625 9.84375 36.5625H14.0625V19.6875ZM9.84375 14.0625C9.47079 14.0625 9.1131 14.2107 8.84938 14.4744C8.58566 14.7381 8.4375 15.0958 8.4375 15.4688C8.4375 15.8417 8.58566 16.1994 8.84938 16.4631C9.1131 16.7268 9.47079 16.875 9.84375 16.875H18.2812C18.6542 16.875 19.0119 16.7268 19.2756 16.4631C19.5393 16.1994 19.6875 15.8417 19.6875 15.4688C19.6875 15.0958 19.5393 14.7381 19.2756 14.4744C19.0119 14.2107 18.6542 14.0625 18.2812 14.0625H9.84375ZM21.0938 19.6875C20.7208 19.6875 20.3631 19.8357 20.0994 20.0994C19.8357 20.3631 19.6875 20.7208 19.6875 21.0938C19.6875 21.4667 19.8357 21.8244 20.0994 22.0881C20.3631 22.3518 20.7208 22.5 21.0938 22.5H32.3438C32.7167 22.5 33.0744 22.3518 33.3381 22.0881C33.6018 21.8244 33.75 21.4667 33.75 21.0938C33.75 20.7208 33.6018 20.3631 33.3381 20.0994C33.0744 19.8357 32.7167 19.6875 32.3438 19.6875H21.0938ZM29.5312 25.3125C29.1583 25.3125 28.8006 25.4607 28.5369 25.7244C28.2732 25.9881 28.125 26.3458 28.125 26.7188C28.125 27.0917 28.2732 27.4494 28.5369 27.7131C28.8006 27.9768 29.1583 28.125 29.5312 28.125H35.1562C35.5292 28.125 35.8869 27.9768 36.1506 27.7131C36.4143 27.4494 36.5625 27.0917 36.5625 26.7188C36.5625 26.3458 36.4143 25.9881 36.1506 25.7244C35.8869 25.4607 35.5292 25.3125 35.1562 25.3125H29.5312Z" fill="#1F4768"/>
</svg>
