<svg width="331" height="73" viewBox="0 0 331 73" fill="none" xmlns="http://www.w3.org/2000/svg">
<rect x="107.86" y="7.17969" width="6.58129" height="35.5988" fill="white"/>
<rect x="173.075" y="7.17969" width="6.58129" height="35.5988" fill="white"/>
<rect x="192.52" y="7.17969" width="6.58129" height="35.5988" fill="white"/>
<rect x="182.348" y="7.17969" width="27.2226" height="6.28214" fill="white"/>
<rect x="79.1421" y="7.17969" width="5.98299"  height="35.5988" fill="white"/>
<path fill-rule="evenodd" clip-rule="evenodd" d="M87.2129 32.9065H92.0052C99.1095 32.9065 104.869 27.1474 104.869 20.0431C104.869 12.9388 99.1095 7.17969 92.0052 7.17969H84.8252V13.233H91.9846C95.7457 13.233 98.7947 16.2819 98.7947 20.043C98.7947 23.8041 95.7457 26.8531 91.9846 26.8531H89.6553L87.2129 32.9065Z" fill="white"/>
<path fill-rule="evenodd" clip-rule="evenodd" d="M153.032 42.7781V42.7784H146.75V17.0515H153.032V19.316C154.931 17.7162 157.384 16.7524 160.062 16.7524C166.092 16.7524 170.981 21.6409 170.981 27.6713V42.7781H164.651C164.682 42.5333 164.698 42.2837 164.698 42.0303V28.8677C164.698 25.646 162.087 23.0343 158.865 23.0343C155.667 23.0343 153.071 25.6071 153.032 28.7956V42.1025C153.035 42.3311 153.051 42.5566 153.079 42.7781H153.032Z" fill="white"/>
<path fill-rule="evenodd" clip-rule="evenodd" d="M116.937 29.8704C116.692 37.2558 122.195 43.4335 129.229 43.6686C132.326 43.7722 135.205 42.7055 137.476 40.8482V42.7781H143.758V42.8925H143.758V17.0518H137.476V19.6948C135.435 18.0377 132.894 17.0166 130.115 16.9237C123.082 16.6885 117.182 22.485 116.937 29.8704ZM130.296 37.4839C133.698 37.4839 136.569 35.2489 137.476 32.1894V28.0552C136.569 24.9958 133.698 22.7607 130.296 22.7607C126.166 22.7607 122.818 26.0566 122.818 30.1223C122.818 34.188 126.166 37.4839 130.296 37.4839Z" fill="white"/>
<rect x="22.6025" width="15.2566" height="9.27364" rx="4.63682" fill="#E54C41"/>
<rect x="35.167" y="13.761" width="13.1626" height="9.27364" rx="4.63682" fill="#F9BE15"/>
<rect x="36.3633" y="41.5818" width="14.9575" height="9.27364" rx="4.63682" fill="#4C88EF"/>
<rect x="22.6025" y="41.5818" width="9.57279" height="9.27364" rx="4.63682" fill="#4C88EF"/>
<rect x="22.6025" y="13.761" width="8.97449" height="9.27364" rx="4.48724" fill="#F9BE15"/>
<rect x="39.6533" y="27.5217" width="9.57279" height="9.27364" rx="4.63682" fill="#3FA95B"/>
<rect x="53.1157" y="27.5217" width="8.97449" height="9.27364" rx="4.48724" fill="#3FA95B"/>
<rect x="55.5093" y="41.5818" width="17.3507" height="9.27364" rx="4.63682" fill="#4C88EF"/>
<rect x="22.6025" y="27.5217" width="13.1626" height="9.27364" rx="4.63682" fill="#3FA95B"/>
</svg>
