<svg width="250" height="63" viewBox="0 0 250 63" fill="none" xmlns="http://www.w3.org/2000/svg">
<g clip-path="url(#clip0_1684_3858)">
<path d="M122.397 8.83936H113.626V52.6679H122.397V8.83936Z" fill="white"/>
<path d="M209.312 8.83936H200.541V52.6679H209.312V8.83936Z" fill="white"/>
<path d="M235.226 8.83936H226.455V52.6679H235.226V8.83936Z" fill="white"/>
<path d="M249.181 8.83936H212.9V16.5738H249.181V8.83936Z" fill="white"/>
<path d="M83.3263 8.83936H75.3525V52.6679H83.3263V8.83936Z" fill="white"/>
<path fill-rule="evenodd" clip-rule="evenodd" d="M86.1097 40.5138H92.4963C101.964 40.5138 109.64 33.4232 109.64 24.6766C109.64 15.9299 101.964 8.83936 92.4963 8.83936H82.9277V16.2922H92.9735C97.7075 16.2922 101.545 19.8374 101.545 24.2108V25.1424C101.545 29.5157 97.7075 33.061 92.9735 33.061H89.3646L86.1097 40.5138Z" fill="white"/>
<path fill-rule="evenodd" clip-rule="evenodd" d="M168.646 52.6677H165.456V20.9933H173.829V23.7815C176.36 21.8118 179.629 20.625 183.198 20.625C191.234 20.625 197.75 26.6437 197.75 34.0682V52.6677H189.314C189.356 52.3661 189.377 52.0589 189.377 51.7469V35.5414C189.377 31.5749 185.897 28.3594 181.603 28.3594C177.309 28.3594 173.829 31.5749 173.829 35.5414V51.7469C173.829 52.0589 173.85 52.3661 173.892 52.6677H173.829H168.646Z" fill="#FFFAFA"/>
<path fill-rule="evenodd" clip-rule="evenodd" d="M125.723 36.7764C125.397 45.8691 132.731 53.475 142.105 53.7645C146.233 53.892 150.069 52.579 153.096 50.2925V52.6681H161.469V20.9944H153.096V24.248C150.376 22.2081 146.99 20.951 143.286 20.8366C133.912 20.5471 126.05 27.6836 125.723 36.7764ZM143.528 46.1502C148.06 46.1502 151.886 43.3989 153.096 39.633V34.5404C151.886 30.7743 148.06 28.0231 143.528 28.0231C138.023 28.0231 133.56 32.081 133.56 37.0865C133.56 42.0921 138.023 46.1502 143.528 46.1502Z" fill="white"/>
<path d="M17.1436 0H3.18951C1.42799 0 0 1.31917 0 2.94646V8.47106C0 10.0983 1.42799 11.4175 3.18951 11.4175H17.1436C18.9051 11.4175 20.3331 10.0983 20.3331 8.47106V2.94646C20.3331 1.31917 18.9051 0 17.1436 0Z" fill="#E54C41"/>
<path d="M31.0979 16.9419H19.9346C18.1731 16.9419 16.7451 18.2611 16.7451 19.8884V25.413C16.7451 27.0402 18.1731 28.3594 19.9346 28.3594H31.0979C32.8594 28.3594 34.2874 27.0402 34.2874 25.413V19.8884C34.2874 18.2611 32.8594 16.9419 31.0979 16.9419Z" fill="#FFBD00"/>
<path d="M35.0848 51.1948H21.5294C19.7678 51.1948 18.3398 52.514 18.3398 54.1413V59.6659C18.3398 61.2932 19.7678 62.6123 21.5294 62.6123H35.0848C36.8463 62.6123 38.2743 61.2932 38.2743 59.6659V54.1413C38.2743 52.514 36.8463 51.1948 35.0848 51.1948Z" fill="#4C88EF"/>
<path d="M9.56854 51.1948H3.18951C1.42799 51.1948 0 52.514 0 54.1413V59.6659C0 61.2932 1.42799 62.6123 3.18951 62.6123H9.56854C11.3301 62.6123 12.758 61.2932 12.758 59.6659V54.1413C12.758 52.514 11.3301 51.1948 9.56854 51.1948Z" fill="#4C88EF"/>
<path d="M8.77116 16.9419H3.18951C1.42799 16.9419 0 18.2611 0 19.8884V25.413C0 27.0402 1.42799 28.3594 3.18951 28.3594H8.77116C10.5327 28.3594 11.9607 27.0402 11.9607 25.413V19.8884C11.9607 18.2611 10.5327 16.9419 8.77116 16.9419Z" fill="#F9BE15"/>
<path d="M32.2941 33.8843H25.9151C24.1536 33.8843 22.7256 35.2035 22.7256 36.8307V42.3553C22.7256 43.9826 24.1536 45.3018 25.9151 45.3018H32.2941C34.0556 45.3018 35.4836 43.9826 35.4836 42.3553V36.8307C35.4836 35.2035 34.0556 33.8843 32.2941 33.8843Z" fill="#3FA95B"/>
<path d="M49.4372 33.8843H43.8555C42.094 33.8843 40.666 35.2035 40.666 36.8307V42.3553C40.666 43.9826 42.094 45.3018 43.8555 45.3018H49.4372C51.1987 45.3018 52.6267 43.9826 52.6267 42.3553V36.8307C52.6267 35.2035 51.1987 33.8843 49.4372 33.8843Z" fill="#3FA95B"/>
<path d="M63.7899 51.1948H47.045C45.2835 51.1948 43.8555 52.514 43.8555 54.1413V59.6659C43.8555 61.2932 45.2835 62.6123 47.045 62.6123H63.7899C65.5514 62.6123 66.9794 61.2932 66.9794 59.6659V54.1413C66.9794 52.514 65.5514 51.1948 63.7899 51.1948Z" fill="#4C88EF"/>
<path d="M14.3528 33.8843H3.18951C1.42799 33.8843 0 35.2035 0 36.8307V42.3553C0 43.9826 1.42799 45.3018 3.18951 45.3018H14.3528C16.1143 45.3018 17.5423 43.9826 17.5423 42.3553V36.8307C17.5423 35.2035 16.1143 33.8843 14.3528 33.8843Z" fill="#3FA95B"/>
</g>
<defs>
<clipPath id="clip0_1684_3858">
<path d="M0 15C0 6.71573 6.71573 0 15 0H234.181C242.465 0 249.181 6.71573 249.181 15V47.6122C249.181 55.8965 242.465 62.6122 234.181 62.6122H15C6.71573 62.6122 0 55.8965 0 47.6122V15Z" fill="white"/>
</clipPath>
</defs>
</svg>
