<svg width="9" height="10" viewBox="0 0 9 10" fill="none" xmlns="http://www.w3.org/2000/svg">
<path d="M2.8225 8.83802C2.93052 9.17383 3.15208 9.46827 3.45429 9.6776C3.7565 9.88694 4.12322 10 4.5 10C4.87678 10 5.2435 9.88694 5.54571 9.6776C5.84792 9.46827 6.06948 9.17383 6.1775 8.83802H2.8225ZM0 8.37286H9V6.97739L8 5.58191V3.25611C8 2.82852 7.90947 2.4051 7.73358 2.01005C7.55769 1.615 7.29988 1.25605 6.97487 0.953694C6.64987 0.651336 6.26403 0.411492 5.83939 0.247857C5.41475 0.0842218 4.95963 0 4.5 0C4.04037 0 3.58525 0.0842218 3.16061 0.247857C2.73597 0.411492 2.35013 0.651336 2.02513 0.953694C1.70012 1.25605 1.44231 1.615 1.26642 2.01005C1.09053 2.4051 1 2.82852 1 3.25611V5.58191L0 6.97739V8.37286Z" fill="#F8F8F8"/>
</svg>
