<svg width="68" height="65" viewBox="0 0 68 65" fill="none" xmlns="http://www.w3.org/2000/svg">
<g clip-path="url(#clip0_64_125)">
<g clip-path="url(#clip1_64_125)">
<path d="M28.3332 27.667C25.7665 27.667 23.5693 26.7531 21.7415 24.9253C19.9137 23.0975 18.9998 20.9003 18.9998 18.3336C18.9998 15.767 19.9137 13.5697 21.7415 11.742C23.5693 9.91419 25.7665 9.0003 28.3332 9.0003C30.8998 9.0003 33.0971 9.91419 34.9248 11.742C36.7526 13.5697 37.6665 15.767 37.6665 18.3336C37.6665 20.9003 36.7526 23.0975 34.9248 24.9253C33.0971 26.7531 30.8998 27.667 28.3332 27.667ZM42.3332 27.667C41.9054 27.667 41.3609 27.6187 40.6998 27.5223C40.0387 27.4259 39.4943 27.3185 39.0665 27.2003C40.1165 25.9559 40.9238 24.5753 41.4885 23.0586C42.0532 21.542 42.3347 19.967 42.3332 18.3336C42.3332 16.7003 42.0508 15.1253 41.4862 13.6086C40.9215 12.092 40.1149 10.7114 39.0665 9.46697C39.6109 9.27253 40.1554 9.14575 40.6998 9.08664C41.2443 9.02753 41.7887 8.99875 42.3332 9.0003C44.8998 9.0003 47.0971 9.91419 48.9248 11.742C50.7526 13.5697 51.6665 15.767 51.6665 18.3336C51.6665 20.9003 50.7526 23.0975 48.9248 24.9253C47.0971 26.7531 44.8998 27.667 42.3332 27.667ZM49.3332 55.667C46.1054 55.667 43.3544 54.5291 41.0802 52.2533C38.8059 49.9775 37.6681 47.2265 37.6665 44.0003C37.6665 40.7336 38.8044 37.9725 41.0802 35.717C43.3559 33.4614 46.1069 32.3336 49.3332 32.3336C52.5998 32.3336 55.3609 33.4614 57.6165 35.717C59.8721 37.9725 60.9998 40.7336 60.9998 44.0003C60.9998 47.2281 59.8721 49.9799 57.6165 52.2556C55.3609 54.5314 52.5998 55.6685 49.3332 55.667ZM47.6998 49.2503L55.9248 40.967L54.2915 39.3336L47.6998 45.9253L44.3748 42.6003L42.7415 44.292L47.6998 49.2503ZM9.6665 46.3336V39.8003C9.6665 38.4781 10.0072 37.2632 10.6885 36.1556C11.3698 35.0481 12.2736 34.2019 13.3998 33.617C15.8109 32.4114 18.2609 31.5076 20.7498 30.9056C23.2387 30.3036 25.7665 30.0019 28.3332 30.0003C30.0832 30.0003 31.8137 30.1364 33.5248 30.4086C35.2359 30.6809 36.9471 31.1086 38.6582 31.692C36.5582 33.5197 35.0415 35.7271 34.1082 38.314C33.1748 40.9009 32.8637 43.5741 33.1748 46.3336H9.6665Z" fill="#F8F8F8"/>
</g>
</g>
<defs>
<clipPath id="clip0_64_125">
<rect width="67.5231" height="64.625" fill="white" transform="translate(0.464844 0.275146)"/>
</clipPath>
<clipPath id="clip1_64_125">
<rect width="56" height="56" fill="white" transform="translate(5 9.00024)"/>
</clipPath>
</defs>
</svg>
