<svg width="34" height="34" viewBox="0 0 34 34" fill="none" xmlns="http://www.w3.org/2000/svg">
<g clip-path="url(#clip0_166_279)">
<path d="M10.0938 14.875C9.67106 14.875 9.26568 15.0429 8.9668 15.3418C8.66791 15.6407 8.5 16.0461 8.5 16.4688C8.5 16.8914 8.66791 17.2968 8.9668 17.5957C9.26568 17.8946 9.67106 18.0625 10.0938 18.0625H19.6562C20.0789 18.0625 20.4843 17.8946 20.7832 17.5957C21.0821 17.2968 21.25 16.8914 21.25 16.4688C21.25 16.0461 21.0821 15.6407 20.7832 15.3418C20.4843 15.0429 20.0789 14.875 19.6562 14.875H10.0938ZM10.625 10.0938C10.625 9.67106 10.7929 9.26568 11.0918 8.9668C11.3907 8.66791 11.7961 8.5 12.2188 8.5H23.9062C24.3289 8.5 24.7343 8.66791 25.0332 8.9668C25.3321 9.26568 25.5 9.67106 25.5 10.0938C25.5 10.5164 25.3321 10.9218 25.0332 11.2207C24.7343 11.5196 24.3289 11.6875 23.9062 11.6875H12.2188C11.7961 11.6875 11.3907 11.5196 11.0918 11.2207C10.7929 10.9218 10.625 10.5164 10.625 10.0938ZM14.3438 21.25C13.9211 21.25 13.5157 21.4179 13.2168 21.7168C12.9179 22.0157 12.75 22.4211 12.75 22.8438C12.75 23.2664 12.9179 23.6718 13.2168 23.9707C13.5157 24.2696 13.9211 24.4375 14.3438 24.4375H23.9062C24.3289 24.4375 24.7343 24.2696 25.0332 23.9707C25.3321 23.6718 25.5 23.2664 25.5 22.8438C25.5 22.4211 25.3321 22.0157 25.0332 21.7168C24.7343 21.4179 24.3289 21.25 23.9062 21.25H14.3438Z" fill="#1F4768"/>
<path d="M0 3.71875C0 1.666 1.666 0 3.71875 0H30.2812C32.334 0 34 1.666 34 3.71875V30.2812C34 31.2675 33.6082 32.2134 32.9108 32.9108C32.2134 33.6082 31.2675 34 30.2812 34H3.71875C2.73248 34 1.7866 33.6082 1.0892 32.9108C0.391796 32.2134 0 31.2675 0 30.2812L0 3.71875ZM3.71875 3.1875C3.57785 3.1875 3.44273 3.24347 3.3431 3.3431C3.24347 3.44273 3.1875 3.57785 3.1875 3.71875V30.2812C3.1875 30.5745 3.4255 30.8125 3.71875 30.8125H30.2812C30.4221 30.8125 30.5573 30.7565 30.6569 30.6569C30.7565 30.5573 30.8125 30.4221 30.8125 30.2812V3.71875C30.8125 3.57785 30.7565 3.44273 30.6569 3.3431C30.5573 3.24347 30.4221 3.1875 30.2812 3.1875H3.71875Z" fill="#1F4768"/>
</g>
<defs>
<clipPath id="clip0_166_279">
<rect width="34" height="34" fill="white"/>
</clipPath>
</defs>
</svg>
