<svg width="38" height="38" viewBox="0 0 38 38" fill="none" xmlns="http://www.w3.org/2000/svg">
<path d="M30.8752 19.0001C30.8752 18.6359 30.8594 18.2876 30.8277 17.9234L33.7727 15.6909C34.406 15.2159 34.5802 14.3292 34.1844 13.6326L31.2235 8.51841C31.0337 8.18304 30.7266 7.92964 30.3613 7.8069C29.996 7.68415 29.5982 7.70072 29.2444 7.85341L25.8402 9.29425C25.2544 8.88258 24.6369 8.51841 23.9877 8.21758L23.5285 4.56008C23.4335 3.76841 22.7527 3.16675 21.961 3.16675H16.0552C15.2477 3.16675 14.5669 3.76841 14.4719 4.56008L14.0127 8.21758C13.3635 8.51841 12.746 8.88258 12.1602 9.29425L8.75604 7.85341C8.0277 7.53675 7.1727 7.82175 6.77687 8.51841L3.81604 13.6484C3.4202 14.3451 3.59437 15.2159 4.2277 15.7067L7.1727 17.9392C7.10707 18.6502 7.10707 19.3658 7.1727 20.0767L4.2277 22.3092C3.59437 22.7842 3.4202 23.6709 3.81604 24.3676L6.77687 29.4817C7.1727 30.1784 8.0277 30.4634 8.75604 30.1467L12.1602 28.7059C12.746 29.1176 13.3635 29.4817 14.0127 29.7826L14.4719 33.4401C14.5669 34.2317 15.2477 34.8334 16.0394 34.8334H21.9452C22.7369 34.8334 23.4177 34.2317 23.5127 33.4401L23.9719 29.7826C24.621 29.4817 25.2385 29.1176 25.8244 28.7059L29.2285 30.1467C29.9569 30.4634 30.8119 30.1784 31.2077 29.4817L34.1685 24.3676C34.5644 23.6709 34.3902 22.8001 33.7569 22.3092L30.8119 20.0767C30.8594 19.7126 30.8752 19.3642 30.8752 19.0001ZM19.0635 24.5417C16.0077 24.5417 13.5219 22.0559 13.5219 19.0001C13.5219 15.9442 16.0077 13.4584 19.0635 13.4584C22.1194 13.4584 24.6052 15.9442 24.6052 19.0001C24.6052 22.0559 22.1194 24.5417 19.0635 24.5417Z" fill="#1F4768"/>
</svg>
