<svg width="37" height="37" viewBox="0 0 37 37" fill="none" xmlns="http://www.w3.org/2000/svg">
<path d="M18.8135 19.0496L20.9449 18.7302L34.0376 5.01583C34.161 4.89099 34.2594 4.74166 34.3271 4.57655C34.3948 4.41144 34.4304 4.23386 34.4319 4.05417C34.4334 3.87448 34.4007 3.69628 34.3358 3.52996C34.2708 3.36365 34.1749 3.21255 34.0537 3.08548C33.9324 2.95842 33.7881 2.85793 33.6294 2.78989C33.4707 2.72184 33.3006 2.6876 33.1291 2.68916C32.9575 2.69072 32.788 2.72806 32.6304 2.79898C32.4729 2.86991 32.3303 2.973 32.2112 3.10226L19.1158 16.8166L18.811 19.0496H18.8135ZM35.8641 1.18598C36.2242 1.56301 36.5099 2.01069 36.7048 2.50343C36.8997 2.99617 37 3.52432 37 4.05769C37 4.59106 36.8997 5.11921 36.7048 5.61195C36.5099 6.10469 36.2242 6.55237 35.8641 6.9294L22.4691 20.9632C22.2716 21.1709 22.015 21.3057 21.738 21.3475L17.4753 21.9863C17.2767 22.0161 17.0741 21.9971 16.8837 21.9307C16.6933 21.8643 16.5202 21.7523 16.3783 21.6036C16.2364 21.4549 16.1295 21.2737 16.0661 21.0742C16.0027 20.8747 15.9846 20.6624 16.0131 20.4543L16.6228 15.9884C16.6619 15.6985 16.7898 15.4298 16.9871 15.2224L30.3847 1.18869C31.1114 0.427571 32.0969 0 33.1244 0C34.1519 0 35.1374 0.427571 35.8641 1.18869V1.18598Z" fill="#5A5858"/>
<path d="M28.4167 21C28.4167 20.6464 28.5528 20.3072 28.795 20.0572C29.0372 19.8071 29.3658 19.6667 29.7083 19.6667C30.0509 19.6667 30.3794 19.8071 30.6217 20.0572C30.8639 20.3072 31 20.6464 31 21V35.6667C31 36.0203 30.8639 36.3594 30.6217 36.6095C30.3794 36.8595 30.0509 37 29.7083 37H1.29167C0.949095 37 0.620555 36.8595 0.378321 36.6095C0.136086 36.3594 0 36.0203 0 35.6667V6.33333C0 5.97971 0.136086 5.64057 0.378321 5.39052C0.620555 5.14048 0.949095 5 1.29167 5H15.5C15.8426 5 16.1711 5.14048 16.4133 5.39052C16.6556 5.64057 16.7917 5.97971 16.7917 6.33333C16.7917 6.68696 16.6556 7.02609 16.4133 7.27614C16.1711 7.52619 15.8426 7.66667 15.5 7.66667H2.58333V34.3333H28.4167V21Z" fill="#5A5858"/>
</svg>
