<svg width="47" height="47" viewBox="0 0 47 47" fill="none" xmlns="http://www.w3.org/2000/svg">
<circle cx="23.5" cy="23.5" r="23.5" fill="#999999"/>
<path d="M28.9526 14.6364H31.4185V28.1193C31.4185 29.5114 31.0904 30.7543 30.4341 31.848C29.7845 32.9351 28.8664 33.7936 27.6799 34.4233C26.4933 35.0464 25.1013 35.358 23.5037 35.358C21.9062 35.358 20.5141 35.0464 19.3276 34.4233C18.141 33.7936 17.2196 32.9351 16.5634 31.848C15.9138 30.7543 15.589 29.5114 15.589 28.1193V14.6364H18.0549V27.9205C18.0549 28.9148 18.2736 29.7997 18.7111 30.5753C19.1486 31.3442 19.7717 31.9508 20.5804 32.3949C21.3958 32.8324 22.3702 33.0511 23.5037 33.0511C24.6373 33.0511 25.6117 32.8324 26.427 32.3949C27.2424 31.9508 27.8655 31.3442 28.2963 30.5753C28.7338 29.7997 28.9526 28.9148 28.9526 27.9205V14.6364Z" fill="white"/>
</svg>
