<svg width="68" height="65" viewBox="0 0 68 65" fill="none" xmlns="http://www.w3.org/2000/svg">
<path d="M8.42968 26.9329V16.4718C8.42968 15.2331 8.86389 14.1982 9.73231 13.3671C10.6007 12.5359 11.6811 12.1213 12.9734 12.1231H54.5283C55.8224 12.1231 56.9028 12.5377 57.7694 13.3671C58.6378 14.1982 59.072 15.2331 59.072 16.4718V26.9329H56.2585V16.4718C56.2585 16.0589 56.0785 15.6792 55.7183 15.3328C55.3563 14.9881 54.9597 14.8158 54.5283 14.8158H12.9734C12.542 14.8158 12.1453 14.9881 11.7833 15.3328C11.4232 15.6774 11.2431 16.0571 11.2431 16.4718V26.9329H8.42968ZM12.9734 47.1283C11.6792 47.1283 10.5989 46.7127 9.73231 45.8815C8.86389 45.0522 8.42968 44.0173 8.42968 42.7768V29.6257H11.2431V42.7768C11.2431 43.1897 11.4232 43.5694 11.7833 43.9159C12.1453 44.2623 12.542 44.4356 12.9734 44.4356H54.5283C54.9597 44.4356 55.3563 44.2623 55.7183 43.9159C56.0785 43.5712 56.2585 43.1915 56.2585 42.7768V29.6257H59.072V42.7768C59.072 44.0155 58.6387 45.0504 57.7722 45.8815C56.9056 46.7127 55.8243 47.1283 54.5283 47.1283H12.9734ZM4.96631 52.5137V49.821H62.5354V52.5137H4.96631ZM8.42968 29.6257V26.9329H22.497C22.7596 26.9329 23.0081 26.9985 23.2426 27.1295C23.477 27.2606 23.658 27.4464 23.7856 27.6869L28.3349 36.3844L38.123 19.5792C38.2486 19.3458 38.4231 19.1842 38.6463 19.0945C38.8713 19.0029 39.1152 18.9571 39.3778 18.9571C39.6404 18.9571 39.8889 19.002 40.1233 19.0918C40.3578 19.1851 40.5388 19.3575 40.6663 19.6088L44.4926 26.9329H59.072V29.6257H44.1381C43.7311 29.6257 43.3382 29.5188 42.9593 29.3052C42.5804 29.0934 42.2916 28.7927 42.0928 28.4032L39.2371 22.9693L29.3956 39.6695C29.2699 39.9118 29.0899 40.0931 28.8554 40.2134C28.621 40.3355 28.3715 40.3965 28.107 40.3965C27.8444 40.3965 27.5987 40.3301 27.3699 40.1972C27.1411 40.0662 26.9629 39.8804 26.8353 39.6398L21.6023 29.623L8.42968 29.6257Z" fill="white"/>
</svg>
